<svg width="500" height="500" viewBox="0 0 500 500" fill="none" xmlns="http://www.w3.org/2000/svg">
<path d="M285.497 324.505C279.253 323.908 273.407 325.171 267.958 327.829C262.047 330.62 256.465 335.07 251.815 340.783C249.556 343.442 248.293 345.034 244.307 344.506C240.653 343.973 237.197 343.175 234.075 342.114C230.355 340.85 230.421 336.731 232.347 334.007C242.513 319.059 255.268 313.211 272.675 312.416C277.659 315.536 282.044 319.659 285.497 324.505ZM266.297 391.144C276.662 373.008 280.514 355.93 272.742 337.662C271.347 334.273 270.615 330.153 275.268 328.957C277.459 328.359 279.785 328.028 282.108 328.028C287.092 327.764 289.151 330.153 290.747 334.209C292.607 339.19 293.67 344.506 293.67 350.151C293.67 368.553 282.309 384.436 266.297 391.144ZM237.928 393.003C243.842 387.29 247.562 380.714 249.355 373.603C251.215 367.026 251.947 360.186 250.95 353.542C250.22 348.822 250.352 347.427 253.476 343.506C255.601 340.783 258.524 338.591 261.247 336.599C264.237 334.074 267.627 336.398 268.823 339.521C276.529 358.522 270.948 375.53 259.787 393.269C256.465 394.066 252.944 394.467 249.355 394.467C245.436 394.467 241.583 393.935 237.928 393.003ZM205.042 351.081C205.374 366.363 213.48 379.716 225.504 387.491C230.288 390.547 235.603 391.343 239.722 385.827C241.251 383.77 242.58 381.644 243.642 379.386C245.768 374.736 242.114 373.273 238.593 372.674C221.385 369.551 211.42 362.71 205.042 351.081ZM211.354 327.297C213.879 333.076 217.931 337.528 223.046 340.918C228.294 344.372 234.739 346.632 241.916 347.893C246.566 348.691 246.631 349.023 247.296 354.603C247.695 357.461 247.429 360.249 247.165 363.174C247.23 367.624 243.045 369.818 239.789 368.889C220.988 365.3 211.221 356.863 205.641 342.777C206.57 337.197 208.564 332.014 211.354 327.297ZM249.355 305.772C237.132 305.772 226.036 310.753 217.997 318.859C215.605 321.251 214.41 325.703 216.27 328.824C217.466 330.751 218.86 332.546 220.455 334.142C223.777 337.395 227.232 334.871 229.358 331.814C238.991 317.729 250.95 311.085 266.431 309.227C261.182 307.032 255.402 305.772 249.355 305.772Z" fill="white"/>
<path fill-rule="evenodd" clip-rule="evenodd" d="M170.999 80.0789C172.9 80.0789 173.602 79.315 173.602 77.3618C173.602 38.8281 209.645 3.67773 249.964 3.67773C290.285 3.67773 324.977 38.6622 324.977 77.1959C324.977 79.0362 325.922 80.0789 327.415 80.0789H431.333C431.471 115.241 429.472 152.396 423.958 188.797C411.828 268.064 379.572 340.933 333.048 406.44C308.927 440.295 280.943 471.192 249.515 496.443C218.086 471.192 190.104 440.295 165.981 406.44C119.458 340.933 87.2023 268.064 75.0711 188.797C69.5585 152.396 67.5589 115.241 67.6971 80.0789H170.999ZM249.355 23.4102C280.382 23.4102 305.695 48.8568 305.695 79.8834H193.017C193.017 48.8568 218.329 23.4102 249.355 23.4102ZM249.356 75.6966C259.057 75.6966 267.029 67.7246 267.029 57.9576C267.029 48.1916 259.057 40.2203 249.356 40.2203C239.657 40.2203 231.685 48.1924 231.685 57.9576C231.685 67.7254 239.657 75.6966 249.356 75.6966ZM193.017 99.615H239.457V129.644L182.452 181.998H92.8947C89.1745 154.758 87.4461 127.119 87.1143 99.615H193.017ZM133.488 114.031V152.1C133.488 157.349 138.271 160.006 147.905 160.008C156.209 160.008 160.593 156.883 160.593 151.238V113.566H179.861V151.238C179.861 161.269 169.364 166.12 147.905 166.12C135.215 166.12 126.046 164.393 120.333 160.871C116.413 158.213 114.619 155.622 114.619 152.566V114.031H133.488ZM411.597 99.615C411.265 127.12 409.536 154.758 405.817 181.998V181.996H316.26L259.255 129.644V99.615H324.495H411.597ZM346.82 164.791C362.7 164.791 388.874 160.804 388.874 139.411C388.874 121.871 373.994 113.168 344.627 113.168H318.85V164.791H346.82ZM351.205 120.144C363.895 121.473 370.472 127.585 370.472 138.945C370.472 152.034 363.23 155.953 352.069 157.815L337.652 158.678V119.679L351.205 120.144ZM402.627 201.862C399.173 221.13 394.322 240.063 388.344 258.467H110.368C104.387 240.063 99.5371 221.13 96.083 201.862H190.158L249.355 147.449L308.551 201.862H402.627ZM335.792 211.23H326.624V247.971H335.792V211.23ZM171.691 244.05H190.095V248.434H162.522V211.629H171.691V244.05ZM246.964 211.629V248.434H272.741V243.586H256.133V232.225H271.014V226.976H256.133V216.479H272.741V211.629H246.964ZM235.138 248.434H225.969V221.727L216.337 233.952H214.61L205.374 222.127V248.434H196.206V211.629H205.374L215.739 224.783L225.969 211.629H235.138V248.434ZM295.929 232.624H299.052C303.335 233.512 306.409 240.928 308.465 245.89C308.864 246.852 309.224 247.722 309.548 248.434H319.183C317.721 242.057 313.802 232.424 306.89 230.498C310.346 229.366 313.534 227.176 314.398 223.854C315.194 220.797 313.733 217.209 311.341 215.215C307.422 212.16 300.58 211.629 295.929 211.629H287.158V248.434H295.929V232.624ZM295.927 216.479C300.047 216.479 304.697 216.811 304.697 222.127C304.697 227.849 300.24 227.843 296.188 227.838L295.927 227.838V216.479ZM343.233 248.834L357.251 211.629H367.282L380.902 248.834H371.667L369.077 240.529H355.456L352.401 248.834H343.233ZM362.034 220.864L356.785 235.746H367.283L362.034 220.864ZM141.461 211.629L155.48 248.834H146.312L143.256 240.529H129.636L127.044 248.834H117.81L131.429 211.629H141.461ZM141.926 235.746L136.677 220.864L131.428 235.746H141.926ZM249.356 471.932C275.798 449.279 299.184 422.703 319.316 394.267C344.894 358.257 366.021 319.392 381.434 278.399H117.278C132.692 319.392 153.819 358.257 179.397 394.267C199.528 422.703 222.915 449.279 249.356 471.932ZM153.287 282.319H122.991C130.034 300.524 138.272 318.328 147.573 335.601C148.975 338.255 150.414 340.872 151.863 343.505C152.337 344.367 152.812 345.231 153.287 346.098V282.319ZM191.755 282.319H230.156V306.104C213.215 313.545 201.322 330.488 201.322 350.151C201.322 369.751 213.215 386.76 230.156 394.199V448.748C225.24 443.83 220.456 438.78 215.806 433.6C207.368 424.231 199.329 414.531 191.755 404.498V282.319ZM345.425 346.098L345.426 346.095V346.098H345.425ZM345.426 346.095V282.318H375.721C368.678 300.524 360.441 318.328 351.139 335.601C349.771 338.191 348.366 340.744 346.953 343.314L346.949 343.322C346.442 344.243 345.934 345.167 345.426 346.095ZM282.905 433.6C278.256 438.78 273.472 443.83 268.555 448.748V394.199C285.496 386.76 297.39 369.751 297.39 350.151C297.39 330.488 285.496 313.545 268.555 306.104V282.319H306.957V404.498C299.382 414.531 291.344 424.231 282.905 433.6Z" fill="white"/>
</svg>
