<svg width="500" height="500" viewBox="0 0 500 500" fill="none" xmlns="http://www.w3.org/2000/svg">
<g clip-path="url(#clip0_1167_4319)">
<path d="M249.475 499.158C248.354 499.158 247.457 498.421 245.83 497.083C217.041 472.94 191.667 448.022 161.385 404.875C112.397 334.497 85.0178 268.632 72.6112 191.311C66.9588 153.545 64.4353 117.48 64.8961 81.0508C64.8725 79.7562 65.1774 78.7909 65.8293 78.1264C66.4315 77.5132 67.3083 77.2033 68.4361 77.2033H170.613C171.006 57.2011 179.792 38.133 195.415 23.4245C210.531 9.19357 230.263 0.963772 249.551 0.843328L249.976 0.842505C269.244 0.842505 288.871 9.08829 303.824 23.4666C319.163 38.2147 327.706 57.2727 327.939 77.2167H430.403C432.72 77.2167 434.217 78.6789 434.217 80.9421C434.666 116.573 432.135 152.659 426.48 191.255C415.994 262.618 383.687 340.425 337.843 404.725C306.956 448.147 283.467 471.506 253.334 497.179C251.456 498.512 250.543 499.158 249.475 499.158Z" fill="white"/>
<path d="M249.975 1.24559e-05L249.546 0.000834982C230.046 0.122121 210.105 8.43617 194.838 22.8111C179.263 37.4733 170.411 56.4319 169.791 76.3608H68.4353C67.0726 76.3608 65.9936 76.7566 65.228 77.5366C64.4253 78.3536 64.0295 79.5403 64.053 81.0648C63.5932 117.532 66.12 153.633 71.7758 191.426C78.4853 233.24 89.7068 271.787 106.085 309.285C119.983 341.108 137.845 372.533 160.691 405.354C191.03 448.581 216.449 473.542 245.282 497.723C247.014 499.147 248.052 500 249.474 500C250.811 500 251.858 499.259 253.76 497.913L253.822 497.869L253.879 497.82C284.063 472.104 307.59 448.706 338.528 405.212C360.871 373.876 379.905 339.747 395.102 303.776C411.07 265.98 421.907 228.164 427.312 191.378C432.974 152.737 435.507 116.606 435.059 80.9199C435.059 78.2095 433.187 76.3743 430.402 76.3743H328.766C328.305 56.506 319.696 37.5609 304.408 22.8608C289.3 8.33424 269.459 0.00169699 249.975 1.24559e-05ZM249.975 1.68455C289.18 1.68792 327.101 35.9303 327.101 78.0588H430.402C432.274 78.0588 433.374 79.1344 433.374 80.9419C433.828 116.989 431.18 153.355 425.646 191.133C414.552 266.631 380.648 343.236 337.156 404.236C305.889 448.192 281.794 471.824 252.787 496.537C251.119 497.718 250.272 498.315 249.474 498.315C248.659 498.315 247.897 497.692 246.364 496.432C215.833 470.827 191.263 445.98 162.074 404.392C120.948 345.309 87.5548 279.13 73.4418 191.177C67.7902 153.416 65.2819 117.11 65.7376 81.0606C65.698 78.896 66.6598 78.0453 68.4353 78.0453H171.443C171.78 35.5934 210.533 1.92878 249.556 1.68537C249.698 1.68453 249.834 1.68455 249.975 1.68455Z" fill="#231F20"/>
<path d="M246.365 496.432C215.833 470.827 191.264 445.981 162.074 404.392C120.949 345.309 87.5552 279.13 73.4422 191.177C67.7906 153.416 65.2823 117.11 65.738 81.0608C65.6984 78.8962 66.6603 78.0455 68.4358 78.0455H171.443C171.78 35.5936 210.533 1.929 249.557 1.68558C288.913 1.44048 327.102 35.7789 327.102 78.059H430.403C432.274 78.059 433.375 79.1346 433.375 80.9421C433.828 116.989 431.181 153.355 425.646 191.133C414.553 266.631 380.648 343.236 337.156 404.236C305.889 448.192 281.795 471.825 252.787 496.538C249.415 498.925 249.398 498.925 246.365 496.432Z" fill="#050606"/>
<path d="M173.602 77.3617C173.602 79.3149 172.9 80.0789 170.999 80.0789H67.6971C67.5589 115.241 69.5585 152.396 75.0711 188.797C87.2023 268.064 119.458 340.933 165.981 406.44C190.104 440.294 218.086 471.192 249.515 496.443C280.943 471.192 308.927 440.294 333.048 406.44C379.572 340.933 411.828 268.064 423.958 188.797C429.472 152.396 431.471 115.241 431.333 80.0789H327.415C325.922 80.0789 324.977 79.0361 324.977 77.1958C324.977 38.6621 290.285 3.67766 249.964 3.67766C209.645 3.67766 173.602 38.828 173.602 77.3617Z" fill="#F4D017"/>
<path d="M239.457 99.615H193.017H87.1143C87.4461 127.119 89.1745 154.758 92.8947 181.998H182.452L239.457 129.644V99.615Z" fill="#050606"/>
<path d="M405.817 181.998C409.536 154.758 411.265 127.12 411.597 99.615H324.495H259.255V129.644L316.26 181.996H405.817V181.998Z" fill="#050606"/>
<path d="M388.344 258.467C394.322 240.063 399.173 221.13 402.627 201.862H308.551L249.355 147.449L190.158 201.862H96.083C99.5371 221.13 104.387 240.063 110.368 258.467H388.344Z" fill="#050606"/>
<path d="M249.356 471.932C275.798 449.279 299.184 422.703 319.316 394.267C344.894 358.257 366.021 319.392 381.434 278.399H117.278C132.692 319.392 153.819 358.257 179.397 394.267C199.528 422.703 222.915 449.279 249.356 471.932Z" fill="#050606"/>
<path d="M235.538 103.534H196.936H91.1006C91.2994 115.826 91.8317 128.183 92.6301 140.607C93.4926 153.296 94.7552 165.787 96.3496 178.077H180.926L235.538 127.917V103.534Z" fill="white"/>
<path d="M402.363 178.077C403.957 165.787 405.219 153.296 406.082 140.607C406.881 128.183 407.411 115.825 407.612 103.534H324.496H263.174V127.917L317.787 178.077H402.363Z" fill="white"/>
<path d="M385.488 254.549C388.145 246.31 390.538 237.938 392.662 229.368C394.655 221.529 396.383 213.688 397.912 205.85H307.091L249.356 152.765L191.622 205.85H100.801C102.329 213.688 104.056 221.529 106.051 229.368C108.177 237.938 110.568 246.31 113.225 254.549H385.488Z" fill="#397CC8"/>
<path d="M133.488 152.1V114.031H114.619V152.566C114.619 155.622 116.413 158.213 120.333 160.871C126.046 164.393 135.215 166.12 147.905 166.12C169.364 166.12 179.861 161.269 179.861 151.238V113.566H160.593V151.238C160.593 156.883 156.209 160.008 147.905 160.008C138.271 160.006 133.488 157.349 133.488 152.1Z" fill="#EA1E28"/>
<path d="M388.874 139.411C388.874 160.804 362.7 164.791 346.82 164.791H318.85V113.168H344.627C373.994 113.168 388.874 121.871 388.874 139.411ZM370.472 138.945C370.472 127.585 363.895 121.473 351.205 120.144L337.652 119.679V158.678L352.069 157.815C363.23 155.953 370.472 152.034 370.472 138.945Z" fill="#EA1E28"/>
<path d="M249.355 23.4102C280.382 23.4102 305.695 48.8567 305.695 79.8833H193.017C193.017 48.8567 218.329 23.4102 249.355 23.4102Z" fill="#050606"/>
<path d="M249.356 75.6965C259.057 75.6965 267.029 67.7245 267.029 57.9576C267.029 48.1915 259.057 40.2203 249.356 40.2203C239.657 40.2203 231.685 48.1923 231.685 57.9576C231.685 67.7253 239.657 75.6965 249.356 75.6965Z" fill="#F4D017"/>
<path d="M249.355 27.3307C276.928 27.3307 299.648 48.8566 301.575 75.9624H261.446C267.16 72.0433 271.013 65.4652 271.013 57.9573C271.013 46.0653 261.247 36.2992 249.355 36.2992C237.463 36.2992 227.697 46.0653 227.697 57.9573C227.697 65.4652 231.55 72.0433 237.264 75.9624H197.136C199.062 48.8566 221.783 27.3307 249.355 27.3307Z" fill="white"/>
<path d="M326.624 211.23H335.792V247.971H326.624V211.23Z" fill="white"/>
<path d="M171.691 244.05H190.095V248.434H162.522V211.629H171.691V244.05Z" fill="white"/>
<path d="M246.964 248.434V211.629H272.741V216.479H256.133V226.976H271.014V232.225H256.133V243.586H272.741V248.434H246.964Z" fill="white"/>
<path d="M235.138 248.434H225.969V221.727L216.337 233.952H214.61L205.374 222.127V248.434H196.206V211.629H205.374L215.739 224.783L225.969 211.629H235.138V248.434Z" fill="white"/>
<path d="M299.052 232.624H295.929V248.434H287.158V211.629H295.929C300.58 211.629 307.422 212.16 311.341 215.215C313.733 217.209 315.194 220.797 314.398 223.854C313.534 227.176 310.346 229.366 306.89 230.498C313.802 232.424 317.721 242.057 319.183 248.434H309.548C307.555 244.05 304.166 233.685 299.052 232.624ZM304.697 222.127C304.697 216.811 300.047 216.479 295.927 216.479V227.838C300.047 227.84 304.697 227.971 304.697 222.127Z" fill="white"/>
<path d="M343.233 248.833L357.251 211.629H367.282L380.902 248.833H371.667L369.077 240.529H355.456L352.401 248.833H343.233ZM362.034 220.864L356.785 235.746H367.283L362.034 220.864Z" fill="white"/>
<path d="M155.48 248.833L141.461 211.629H131.429L117.81 248.833H127.044L129.636 240.529H143.256L146.312 248.833H155.48ZM136.677 220.864L141.926 235.746H131.428L136.677 220.864Z" fill="white"/>
<path d="M285.497 324.505C279.253 323.908 273.407 325.171 267.958 327.829C262.047 330.62 256.465 335.07 251.815 340.783C249.556 343.442 248.293 345.034 244.307 344.506C240.653 343.973 237.197 343.175 234.075 342.114C230.355 340.85 230.421 336.731 232.347 334.007C242.513 319.059 255.268 313.211 272.675 312.416C277.659 315.536 282.044 319.659 285.497 324.505ZM266.297 391.144C276.662 373.008 280.514 355.93 272.742 337.662C271.347 334.273 270.615 330.153 275.268 328.957C277.459 328.359 279.785 328.028 282.108 328.028C287.092 327.764 289.151 330.153 290.747 334.209C292.607 339.19 293.67 344.506 293.67 350.151C293.67 368.553 282.309 384.436 266.297 391.144ZM237.928 393.003C243.842 387.29 247.562 380.714 249.355 373.603C251.215 367.026 251.947 360.186 250.95 353.542C250.22 348.822 250.352 347.427 253.476 343.506C255.601 340.783 258.524 338.591 261.247 336.599C264.237 334.074 267.627 336.398 268.823 339.521C276.529 358.522 270.948 375.53 259.787 393.269C256.465 394.066 252.944 394.467 249.355 394.467C245.436 394.467 241.583 393.935 237.928 393.003ZM205.042 351.081C205.374 366.363 213.48 379.716 225.504 387.491C230.288 390.547 235.603 391.343 239.722 385.827C241.251 383.77 242.58 381.644 243.642 379.386C245.768 374.736 242.114 373.273 238.593 372.674C221.385 369.551 211.42 362.71 205.042 351.081ZM211.354 327.297C213.879 333.076 217.931 337.528 223.046 340.918C228.294 344.372 234.739 346.632 241.916 347.893C246.566 348.691 246.631 349.023 247.296 354.603C247.695 357.461 247.429 360.249 247.165 363.174C247.23 367.624 243.045 369.818 239.789 368.889C220.988 365.3 211.221 356.863 205.641 342.777C206.57 337.197 208.564 332.014 211.354 327.297ZM249.355 305.772C237.132 305.772 226.036 310.753 217.997 318.859C215.605 321.251 214.41 325.703 216.27 328.824C217.466 330.751 218.86 332.546 220.455 334.142C223.777 337.395 227.232 334.871 229.358 331.814C238.991 317.729 250.95 311.085 266.431 309.227C261.182 307.032 255.402 305.772 249.355 305.772Z" fill="#B25F1D"/>
<path d="M191.754 282.319H153.287V346.098C162.257 361.845 172.023 377.128 182.586 392.008C185.575 396.194 188.632 400.38 191.755 404.5V282.319H191.754Z" fill="#EA1E28"/>
<path d="M306.958 404.497C310.08 400.379 313.136 396.194 316.126 392.008C326.689 377.125 336.455 361.845 345.425 346.098V282.318H306.958V404.497Z" fill="#EA1E28"/>
<path d="M268.556 306.104V282.319H230.156V306.104C236.068 303.512 242.58 302.051 249.356 302.051C256.133 302.051 262.645 303.512 268.556 306.104Z" fill="#EA1E28"/>
<path d="M249.356 466.751C255.934 460.971 262.311 454.99 268.556 448.748V394.199C262.645 396.791 256.132 398.186 249.356 398.186C242.58 398.186 236.068 396.791 230.156 394.199V448.748C236.401 454.99 242.779 460.971 249.356 466.751Z" fill="#EA1E28"/>
<path d="M153.287 282.319H122.991C130.034 300.524 138.272 318.328 147.573 335.601C149.434 339.123 151.36 342.581 153.287 346.098V282.319Z" fill="white"/>
<path d="M230.156 282.319H191.755V404.497C199.329 414.53 207.368 424.231 215.806 433.599C220.456 438.78 225.24 443.83 230.156 448.748V394.199C213.215 386.76 201.322 369.751 201.322 350.151C201.322 330.487 213.215 313.545 230.156 306.104V282.319Z" fill="white"/>
<path d="M345.425 346.098C347.351 342.577 349.278 339.123 351.139 335.601C360.441 318.328 368.678 300.524 375.721 282.318H345.426V346.098H345.425Z" fill="white"/>
<path d="M268.555 448.748C273.472 443.83 278.256 438.78 282.905 433.599C291.344 424.231 299.382 414.53 306.957 404.497V282.319H268.555V306.104C285.496 313.545 297.39 330.487 297.39 350.151C297.39 369.751 285.496 386.76 268.555 394.199V448.748Z" fill="white"/>
</g>
<defs>
<clipPath id="clip0_1167_4319">
<rect width="500" height="500" fill="white"/>
</clipPath>
</defs>
</svg>
