<svg width="500" height="500" viewBox="0 0 500 500" fill="none" xmlns="http://www.w3.org/2000/svg">
<path d="M368.653 223.102C367.015 228.453 365.176 233.844 363.184 239.252L363.546 99.1014L391.841 78.1897C391.512 83.6347 391.055 90.8083 390.722 94.8046C390.635 95.8089 390.536 97.2123 390.409 98.9903C389.199 116.054 385.495 167.981 368.653 223.102ZM299.128 146.711V349.4C311.52 334.435 322.949 318.236 333.057 301.44V121.635L299.128 146.711ZM232.293 196.108V383.675C239.952 391.507 246.373 397.763 249.789 401.051C253.164 397.878 259.44 391.89 266.914 384.391V170.521L232.293 196.108ZM166.286 244.891V300.061C176.621 317.392 188.367 334.114 201.138 349.523V219.131L166.286 244.891Z" fill="white"/>
<path d="M153.861 207.1C154.943 204.956 158.236 204.071 159.759 206.08C163.072 204.45 164.504 204.314 165.85 205.047L169.574 205.927C171.78 203.59 175.032 204.425 176.411 207.446C177.106 208.994 174.81 210.072 174.106 208.524C169.398 209.409 168.011 209.487 166.813 208.887L163.175 207.792C161.878 209.273 159.866 210.903 158.273 208.615C155.355 209.792 153.095 208.619 153.861 207.1ZM166.381 214.624C165.607 216.155 167.862 217.32 170.78 216.155C171.513 217.188 172.859 217.546 175.682 215.311L179.329 216.398C180.53 217.031 181.909 216.929 186.613 216.056C187.325 217.599 189.63 216.533 188.918 214.97C187.544 211.94 184.3 211.113 178.361 212.578C177.032 211.846 175.579 211.99 172.274 213.603C170.764 211.591 167.455 212.484 166.381 214.624ZM149.972 208.52C150.675 210.068 152.988 208.989 152.285 207.442C150.885 204.429 147.646 203.581 141.728 205.043C140.378 204.31 138.95 204.442 135.624 206.076C134.102 204.067 130.813 204.956 129.735 207.096C128.965 208.615 131.229 209.788 134.134 208.611C134.863 209.66 136.221 210.002 139.032 207.788L142.679 208.882C143.88 209.487 145.259 209.405 149.972 208.52ZM165.554 219.505C164.22 218.772 162.775 218.904 159.471 220.526C157.96 218.513 154.655 219.406 153.569 221.559C152.816 223.073 155.054 224.238 157.972 223.065C159.569 225.349 161.582 223.719 162.87 222.238L166.517 223.328C167.718 223.942 169.101 223.851 173.814 222.974C174.522 224.518 176.826 223.448 176.11 221.896C174.727 218.867 171.468 218.044 165.554 219.505ZM194.923 199.285C195.635 200.318 197.005 200.672 199.825 198.457L203.459 199.544C204.661 200.17 206.052 200.071 210.76 199.186C211.464 200.738 213.76 199.667 213.061 198.116C211.678 195.095 208.431 194.255 202.5 195.708C201.158 194.976 199.734 195.111 196.413 196.754C194.89 194.729 191.61 195.626 190.531 197.77C189.737 199.293 192.021 200.458 194.923 199.285ZM150.655 215.311L154.297 216.398C155.499 217.031 156.882 216.929 161.594 216.056C162.302 217.599 164.595 216.533 163.899 214.97C162.508 211.94 159.257 211.113 157.067 213.447L153.342 212.578C151.996 211.846 150.552 211.99 147.247 213.603C145.741 211.595 142.436 212.488 141.357 214.624C140.596 216.155 142.851 217.32 145.757 216.155C147.342 218.418 149.367 216.809 150.655 215.311ZM181.79 223.678L186.362 220.299L184.185 220.526C182.671 218.513 179.382 219.406 178.291 221.559C177.641 222.855 179.567 224.209 181.79 223.678ZM147.671 229.465L151.322 230.551C152.527 231.177 153.906 231.074 158.606 230.193C159.318 231.753 161.623 230.675 160.919 229.115C159.524 226.098 156.273 225.259 154.071 227.6L150.358 226.724C149.025 225.995 147.576 226.131 144.271 227.757C142.757 225.74 139.456 226.633 138.37 228.769C137.596 230.296 139.851 231.461 142.769 230.288C143.494 231.325 144.852 231.687 147.671 229.465ZM138.723 139.645C132.698 139.645 127.677 142.929 125.796 147.514L151.873 147.46C150 142.879 144.749 139.645 138.723 139.645ZM161.775 114.946H187.778L175.341 88.956V81.1404H178.489V79.9674H175.341L174.196 76.4938V79.9674L172.353 80.6012L170.752 81.1404H174.196V88.956L161.775 114.946ZM171.373 227.757C169.879 225.74 166.57 226.633 165.479 228.786C164.718 230.296 166.969 231.461 167.751 229.938C168.031 229.37 169.393 229.613 170.513 232.012L177.374 226.942C176.069 226.419 174.275 226.337 171.373 227.757ZM400.332 67.2788L400.192 69.7317L400.097 71.4233C400.093 71.4932 400.077 71.7567 400.056 72.1188C399.871 75.3455 399.068 89.1042 398.537 95.4629C398.451 96.4465 398.356 97.8171 398.233 99.5456C397.002 116.827 393.253 169.426 376.148 225.394C372.798 236.35 368.662 247.463 363.892 258.567C348.269 294.937 325.558 331.229 298.951 361.718C277.78 385.992 252.657 409.097 252.406 409.332L249.723 411.797L247.068 409.299C246.821 409.068 222.354 385.975 201.203 361.718C175.674 332.455 153.729 297.843 138.193 262.954C137.542 261.493 136.904 260.032 136.275 258.571C136.139 258.254 136.007 257.937 135.871 257.616C131.274 246.829 127.274 236.038 124.018 225.399C106.868 169.306 103.148 116.716 101.921 99.4345C101.802 97.7594 101.707 96.426 101.629 95.4711C101.028 88.4004 100.106 72.1147 100.069 71.4274L99.8345 67.287H400.332V67.2788ZM161.775 149.963V118.704H187.778V159.651L210.97 144.645L257.559 155.301V143.266L255.024 143.764L253.324 149.415L251.447 149.436L252.073 142.616C252.073 142.616 247.11 145.736 244.735 146.975L241.669 146.81L251.003 140.768L250.6 136.949L245.928 137.55L244.262 135.677L249.97 132.018L251.238 130.158L251.501 131.463L253.234 131.981L252.197 132.858L255.3 136.397L257.563 136.233V121.087L255.028 121.606L253.328 127.24L251.452 127.269L252.077 120.453C252.077 120.453 247.114 123.565 244.739 124.812L241.673 124.639L251.007 118.609L250.604 114.782L245.932 115.383L244.266 113.506L249.974 109.851L251.242 107.995L251.505 109.283L253.238 109.806L252.201 110.683L255.304 114.23L257.567 114.07V107.896C251.871 106.777 247.513 101.85 247.031 96.0103H240.545V88.1905H246.739C247.97 83.1859 252.682 80.2061 257.567 78.8068V75.6871H265V78.8068C270.351 80.5189 273.977 81.947 275.82 88.1905H282.002V96.0103H275.512C275.043 101.85 270.696 106.773 265 107.896L264.939 113.551L268.371 113.333L276.298 115.053L282.142 114.823L276.055 117.679L272.532 116.646L276.343 122.503L275.759 127.018L274.347 127.145L274.018 122.886L270.524 120.173L271.762 124.26C271.762 124.26 270.519 126.491 269.643 127.479L267.606 127.347C267.984 126.754 269.519 124.091 269.519 124.091L266.005 119.391L264.885 119.614L264.729 135.747L268.367 135.492L276.294 137.225L282.138 136.99L276.047 139.85L272.524 138.813L276.335 144.67L275.75 149.189L274.339 149.316L274.01 145.053L270.515 142.344L271.754 146.431C271.754 146.431 270.511 148.658 269.635 149.646L267.597 149.526C267.976 148.925 269.511 146.267 269.511 146.267L266.005 141.558L264.655 141.83L264.511 157.194L269.379 158.947L269.445 158.972L382.972 75.1192H108.136C108.457 80.5642 109.033 89.9973 109.44 94.8044C109.527 95.7921 109.622 97.1585 109.745 98.8789C110.379 107.822 111.708 126.4 115.248 149.963H161.775ZM232.277 172.665C225.305 172.665 219.67 184.209 219.551 195.774L240.763 180.097C238.504 176.48 235.536 172.665 232.277 172.665ZM140.164 247.504C142.761 246.343 144.111 246.24 145.288 246.891L148.951 247.948L154.832 243.602L152.153 243.01C150.856 244.495 148.836 246.121 147.243 243.845C144.341 245.01 142.074 243.845 142.843 242.33C143.93 240.174 147.218 239.289 148.745 241.306C152.05 239.676 153.49 239.54 154.832 240.264L157.66 241.52L164.06 236.791L160.195 235.474C158.911 236.968 156.886 238.593 155.297 236.313C152.383 237.47 150.116 236.33 150.889 234.807C151.976 232.655 155.277 231.77 156.787 233.786C160.104 232.157 161.537 232.012 162.874 232.741L167.541 234.214L167.558 234.218L170.513 232.012L201.335 209.236C197.042 209.981 195.38 209.459 194.227 208.882L190.585 207.788C187.77 210.002 186.395 209.66 185.683 208.611C182.778 209.788 180.518 208.615 181.284 207.096C182.358 204.952 185.663 204.067 187.165 206.076C190.482 204.446 191.931 204.31 193.273 205.043L196.977 205.923C198.989 203.812 201.915 205.22 203.471 207.656L215.592 198.696C213.242 164.697 190.548 162.68 187.778 200.606H125.294C125.664 202.087 126.047 203.569 126.438 205.063C127.418 205.491 128.216 206.302 128.739 207.442C129.196 208.45 128.381 209.241 127.562 209.257C127.899 210.496 128.212 211.726 128.558 212.973L130.056 213.875C134.242 211.113 137.481 211.936 138.876 214.97C139.58 216.533 137.279 217.599 136.579 216.056C132.282 216.85 130.751 217.003 129.603 216.542C129.899 217.571 130.2 218.6 130.504 219.628C130.978 219.805 131.41 220.077 131.743 220.53C135.069 218.904 136.517 218.776 137.834 219.509C143.765 218.04 147.008 218.879 148.408 221.9C149.116 223.452 146.794 224.522 146.099 222.979C141.386 223.855 140.003 223.946 138.81 223.333L135.155 222.242C133.616 223.456 132.55 223.851 131.747 223.835C132.015 224.707 132.315 225.584 132.595 226.46C134.431 226.012 136.373 226.954 137.365 229.119C138.081 230.679 135.777 231.757 135.056 230.197L133.632 229.683C133.999 230.79 134.365 231.893 134.748 233.004L137.39 233.63C139.592 231.292 142.839 232.124 144.218 235.153C144.922 236.696 142.613 237.779 141.917 236.227C138.773 236.663 137.201 236.943 136.147 236.927C136.501 237.906 136.83 238.882 137.192 239.861C138.695 239.939 140.135 240.906 140.95 242.676C141.617 244.162 139.534 245.183 138.748 243.89C139.221 245.092 139.682 246.298 140.164 247.504ZM142.358 252.821L145.56 250.455L142.609 249.628L141.954 251.862C142.086 252.183 142.222 252.504 142.358 252.821ZM391.841 78.1894L363.546 99.1011L333.057 121.634L299.127 146.711L266.914 170.52L232.293 196.107L201.138 219.135L166.286 244.89L145.555 260.213C151.556 273.638 158.512 287.022 166.286 300.065C176.621 317.396 188.367 334.118 201.138 349.527C203.109 351.906 205.097 354.256 207.114 356.565C215.571 366.266 224.564 375.773 232.293 383.679C239.952 391.511 246.373 397.767 249.789 401.055C253.164 397.882 259.44 391.894 266.914 384.395C274.931 376.349 284.323 366.562 293.045 356.565C295.098 354.211 297.127 351.82 299.132 349.4C311.524 334.435 322.953 318.236 333.061 301.44C341.49 287.434 348.993 273.017 355.364 258.567C358.204 252.122 360.813 245.672 363.184 239.248C365.18 233.84 367.02 228.448 368.653 223.098C385.495 167.977 389.199 116.049 390.413 98.9859C390.541 97.2121 390.639 95.8086 390.726 94.8003C391.055 90.8081 391.512 83.6345 391.841 78.1894ZM184.3 385.51C187.799 391.54 188.721 397.034 188.721 401.557C188.721 405.192 187.766 407.562 186.255 408.225C184.617 408.953 183.07 408.801 177.217 402.241L165.121 388.667V342.909L179.012 358.479C186.004 366.331 187.799 375.361 187.799 380.074C187.795 386.638 185.494 385.889 184.3 385.51ZM170.867 367.245L177.859 375.098C180.201 377.736 182.074 378.361 182.074 374.731C182.074 370.962 180.399 367.949 177.703 364.916L170.867 357.232V367.245ZM182.761 393.853C182.761 389.832 180.609 385.889 178.456 383.485L170.867 374.958V387.202L178.176 395.417C181.074 398.664 182.761 398.508 182.761 393.853ZM197.289 425.14L203.257 431.832V386.103L197.289 379.411V425.14ZM225.362 407.208L218.584 400.961V446.665L241.125 467.754V458.806L225.366 443.953V407.208H225.362ZM277.327 434.977C277.327 438.598 276.273 443.052 274.586 446.986C272.783 451.242 271.059 454.464 264.552 460.572L251.143 473.236V427.457L266.54 412.929C274.322 405.607 276.302 410.756 276.302 415.464C276.302 422.029 273.754 426.293 272.413 428.49C276.306 426.939 277.327 430.441 277.327 434.977ZM257.489 439.38L265.268 432.05C267.881 429.593 269.947 426.169 269.947 422.535C269.947 418.777 268.099 419.374 265.103 422.21L257.489 429.363V439.38ZM270.696 440.191C270.696 436.174 268.318 436.894 265.943 439.142L257.489 447.085V459.325L265.634 451.67C268.848 448.637 270.696 444.846 270.696 440.191ZM302.564 378.773L313.742 414.032L306.54 420.806L304.511 413.279L292.81 424.305L290.6 435.833L283.624 442.41L294.921 385.98L302.564 378.773ZM302.659 407.134L298.724 392.721L294.576 414.748L302.659 407.134ZM341.552 353.276C345.667 372.34 336.181 384.626 332.386 388.404C328.587 392.194 318.101 399.845 313.96 380.777C309.824 361.709 319.323 349.428 323.109 345.638C326.904 341.851 337.407 334.209 341.552 353.276ZM335.535 359.248C333.086 347.881 327.908 349.593 324.669 352.828C321.426 356.063 317.483 363.43 319.965 374.801C322.414 386.177 327.596 384.453 330.822 381.222C334.053 377.999 338.008 370.624 335.535 359.248ZM434.541 132.051L422.474 146.884L410.399 132.051H400.607L416.918 153.152L400.607 174.582H410.399L422.474 159.737L434.541 174.582H444.341L428.034 153.152L444.341 132.051H434.541ZM88.8251 132.051L76.758 146.884L64.6826 132.051H54.8956L71.2059 153.152L54.8956 174.582H64.6867L76.7621 159.737L88.8292 174.582H98.6286L82.3224 153.152L98.6286 132.051H88.8251ZM68.325 51.4664H63.9624L76.5399 23.3605H80.993L93.3688 51.4664H88.8498L84.87 42.2144H72.4489L68.325 51.4664ZM74.3009 38.1728H83.0591L78.6841 28.3775L74.3009 38.1728ZM106.169 51.4664H110.177V27.4062H119.94V23.3605H96.4062V27.4062H106.169V51.4664ZM131.949 38.7655H148.276V51.4664H152.285V23.3605H148.276V34.7198H131.949V23.3605H127.945V51.4664H131.949V38.7655ZM184.683 47.4331H167.788V23.3605H163.788V51.4664H184.683V47.4331ZM213.826 47.4331H194.363V38.8478H203.821V34.7897H194.363V27.4062H213.131V23.3605H190.346V51.4664H213.826V47.4331ZM229.157 51.4664H233.17V27.4062H242.928V23.3605H219.403V27.4062H229.157V51.4664ZM254.456 23.3605H250.447V51.4664H254.46L254.456 23.3605ZM277.463 52.0796C285.431 52.0796 288.731 49.3345 291.365 46.4576L288.702 43.5232C287.476 44.9801 284.373 48.0298 278.43 48.0298C270.816 48.0298 266.807 42.663 266.807 37.6419C266.807 30.6329 272.232 26.8053 277.421 26.8053C283.142 26.8053 286.673 30.0238 287.929 31.0774L290.929 28.4969C289.596 27.1799 285.003 22.7514 277.384 22.7514C269.145 22.7514 262.803 29.3529 262.803 37.6378C262.803 46.2683 269.931 52.0796 277.463 52.0796ZM325.538 52.0796C333.518 52.0796 336.815 49.3345 339.453 46.4576L336.782 43.5232C335.551 44.9801 332.44 48.0298 326.509 48.0298C318.899 48.0298 314.886 42.663 314.886 37.6419C314.886 30.6329 320.307 26.8053 325.497 26.8053C331.217 26.8053 334.74 30.0238 336.004 31.0774L339.021 28.4969C337.679 27.1799 333.078 22.7514 325.464 22.7514C317.232 22.7514 310.878 29.3529 310.878 37.6378C310.874 46.2683 318.018 52.0796 325.538 52.0796ZM368.789 47.4331H351.915V23.3605H347.894V51.4664H368.785L368.789 47.4331ZM387.466 52.0796C397.661 52.0796 399.657 46.1901 399.657 40.8603V23.3605H395.66V40.8645C395.66 44.9842 393.952 48.0298 387.466 48.0298C380.963 48.0298 379.259 44.9842 379.259 40.8645V23.3605H375.255V40.8645C375.255 46.1942 377.251 52.0796 387.466 52.0796ZM426.199 51.4664H410.325V23.3605H426.199C430.331 23.3605 434.356 25.6859 434.356 31.0033C434.356 34.0736 432.878 35.6581 431.878 36.6665C433.434 37.3826 435.677 39.7779 435.677 43.305C435.681 48.6513 431.578 51.4664 426.199 51.4664ZM414.321 35.1231H426.199C428.936 35.1231 430.339 33.5056 430.339 31.0033C430.339 28.7562 429.022 27.4062 426.199 27.4062H414.321V35.1231ZM414.321 47.4331H426.199C429.932 47.4331 431.685 45.9967 431.685 43.3092C431.685 40.7945 430.397 39.1853 426.199 39.1853H414.321V47.4331ZM468.224 38.1522C468.211 38.5926 468.203 39.5557 468.191 40.9838C467.689 98.953 461.824 155.194 451.222 203.631C432.31 290.01 394.129 359.89 327.419 430.219C295.193 464.19 253.316 497.28 252.896 497.609L249.888 500L246.834 497.621C246.369 497.247 204.15 463.313 171.937 429.334C105.201 359.018 67.0203 289.142 48.1418 202.767C37.5398 154.309 31.6709 98.0599 31.1605 40.1072C31.1482 38.6832 31.1399 37.7283 31.1235 37.2756C31 33.7402 31 12.8573 31 3.93869V0.0164627L468.372 0L468.376 3.91811C468.376 5.13224 468.393 33.7197 468.224 38.1522ZM460.536 7.84035L38.8403 7.85681C38.8403 17.5122 38.8527 34.0613 38.9556 37.004C38.972 37.4855 38.9844 38.5144 38.9967 40.0372C39.503 97.459 45.3143 153.152 55.801 201.091C74.3585 285.989 111.93 354.721 177.625 423.938C205.681 453.53 241.463 483.13 249.875 489.991C258.275 483.245 293.728 454.345 321.735 424.823C387.404 355.594 424.98 286.858 443.571 201.956C454.054 154.041 459.861 98.3521 460.355 40.918C460.367 39.3869 460.375 38.3539 460.396 37.8724C460.515 34.5304 460.532 16.0388 460.536 7.84035Z" fill="white"/>
</svg>
