<svg width="500" height="500" viewBox="0 0 500 500" fill="none" xmlns="http://www.w3.org/2000/svg">
<path d="M121.458 312.878L102.801 327.804L82.9004 342.729C86.6317 352.679 92.8506 361.386 100.313 367.605L121.458 383.774V312.878Z" fill="white"/>
<path d="M172.453 274.321V422.331L223.448 462.132V234.52L172.453 274.321Z" fill="white"/>
<path d="M326.681 156.162L274.442 195.963V462.132L326.681 423.575V156.162Z" fill="white"/>
<path d="M419.965 294.221V84.0225L408.771 92.7289L377.677 116.361V383.774L398.821 367.605C402.552 365.117 406.284 361.386 408.771 357.654C416.234 347.704 419.965 336.51 419.965 325.316V294.221Z" fill="white"/>
<path d="M436.134 50.4403C436.134 30.5398 422.453 25.5647 403.796 20.5896C301.806 -5.52985 196.085 -5.52985 94.0945 20.5896C76.6816 24.3209 63 30.5398 63 50.4403V322.828C63 345.216 74.194 366.361 91.607 380.042L238.373 490.739L249.567 499.445L260.761 490.739L407.527 380.042C426.184 366.361 436.134 345.216 436.134 322.828V50.4403ZM392.602 47.9527L397.577 34.2711L402.552 47.9527H416.234L405.04 56.6592L410.015 70.3408L398.821 61.6343L387.627 70.3408L392.602 56.6592L381.408 47.9527H392.602ZM290.612 88.9975C294.343 86.5099 296.831 84.0224 298.075 79.0473C314.244 84.0224 332.9 74.0721 329.169 56.6592H332.9L344.095 57.903L355.289 60.3905L257.03 135.017V85.2662C273.199 93.9726 284.393 93.9726 290.612 88.9975ZM310.512 159.893L299.318 151.187L286.881 159.893L291.856 146.211L279.418 137.505H294.343L299.318 123.823L304.294 137.505H319.219L308.025 146.211L310.512 159.893ZM227.179 28.0522H242.104L247.08 14.3706L249.567 28.0522H264.493L253.298 36.7587L257.03 50.4403L245.836 41.7338L233.398 50.4403L238.373 36.7587L227.179 28.0522ZM115.239 67.8532L132.652 64.1219L150.065 60.3905C150.065 61.6343 150.065 62.8781 151.308 62.8781C157.527 76.5597 173.697 82.7786 188.622 77.8035C192.353 85.2662 201.06 88.9975 208.522 90.2413C217.229 91.4851 224.692 90.2413 232.154 87.7537V153.674L171.209 200.938C171.209 199.694 171.209 197.206 171.209 195.963V194.719C178.672 189.744 184.891 181.037 186.134 172.331C187.378 168.599 188.622 163.624 187.378 158.649C186.134 158.649 184.891 159.893 183.647 159.893C181.159 159.893 179.915 159.893 177.428 159.893C181.159 159.893 186.134 158.649 188.622 154.918L191.109 152.43C196.085 147.455 201.06 141.236 202.303 133.774L214.741 100.192C209.766 100.192 204.791 102.679 201.06 106.41L196.085 113.873L191.109 121.336C189.866 123.823 187.378 125.067 186.134 126.311L178.672 120.092H177.428L174.94 106.41L179.915 97.704C182.403 93.9726 182.403 88.9975 179.915 85.2662C178.672 85.2662 176.184 85.2662 176.184 85.2662L163.746 92.7289L162.502 91.4851C161.259 91.4851 161.259 91.4851 160.015 91.4851C158.771 91.4851 157.527 92.7289 156.284 93.9726L153.796 96.4602L150.065 98.9478H142.602C140.114 98.9478 138.871 102.679 141.358 106.41C143.846 110.142 145.09 112.629 145.09 116.361V117.604C146.333 121.336 146.333 126.311 146.333 130.042C145.09 146.211 141.358 162.381 133.896 177.306L132.652 178.55L127.677 187.256C126.433 188.5 126.433 190.988 127.677 192.231C128.92 193.475 130.164 193.475 131.408 193.475C135.139 199.694 136.383 204.669 137.627 210.888C138.871 217.107 137.627 222.082 136.383 228.301L126.433 235.764L115.239 244.47V67.8532ZM217.229 209.644L206.035 218.351L211.01 232.032L199.816 223.326L188.622 232.032L193.597 218.351L182.403 209.644H197.328L202.303 195.963L207.279 209.644H217.229ZM71.7065 47.9527H85.3881L90.3632 34.2711L95.3383 47.9527H110.264L97.8259 56.6592L102.801 70.3408L90.3632 61.6343L77.9254 70.3408L82.9005 56.6592L71.7065 47.9527ZM109.02 164.868L97.8259 173.575L101.557 187.256L90.3632 178.55L77.9254 187.256L82.9005 173.575L71.7065 164.868H86.6318L91.607 151.187L96.5821 164.868H109.02ZM77.9254 310.391L82.9005 296.709L71.7065 288.002H86.6318L90.3632 274.321L95.3383 288.002H110.264L99.0697 296.709L104.045 310.391L92.8507 301.684L77.9254 310.391ZM408.771 357.654C406.284 361.386 402.552 365.117 398.821 367.604L249.567 480.789L100.313 367.604C91.607 361.386 85.3881 352.679 82.9005 342.729L102.801 327.803L121.458 312.878L172.453 274.321L223.448 235.764L274.443 197.206L325.438 158.649L376.433 120.092L419.965 87.7537V329.047C419.965 337.754 416.234 348.948 408.771 357.654Z" fill="white"/>
</svg>
