<svg width="500" height="500" viewBox="0 0 500 500" fill="none" xmlns="http://www.w3.org/2000/svg">
<g clip-path="url(#clip0_1170_4840)">
<path d="M389.856 406.328C425.216 380.273 446.308 339.33 443.206 279.156C442.72 276.916 442.511 274.624 442.585 272.333H389.856V406.328ZM57.3497 278.536C54.248 338.71 75.3398 379.653 110.7 405.707V271.712H58.5904C57.9328 273.936 57.5169 276.223 57.3497 278.536ZM278.193 271.712V309.553C285.755 314.298 291.989 320.885 296.31 328.698C300.631 336.51 302.897 345.291 302.897 354.218C302.897 363.146 300.631 371.927 296.31 379.739C291.989 387.551 285.755 394.138 278.193 398.883V440.447C297.062 439.565 315.78 436.653 334.025 431.762V271.712H278.193ZM197.548 354.218C197.56 345.281 199.843 336.493 204.184 328.68C208.524 320.867 214.78 314.285 222.362 309.553V271.712H166.531V431.762C184.775 436.653 203.494 439.565 222.362 440.447V398.883C214.78 394.152 208.524 387.57 204.184 379.757C199.843 371.944 197.56 363.156 197.548 354.218ZM83.4043 99.2556C86.8973 116.834 87.3171 134.884 84.645 152.605H139.236V201.613H192.585V152.605H249.657V99.2556H192.585V45.2854L173.975 35.3598C163.162 41.6609 151.446 46.2638 139.236 49.0074V99.2556H83.4043ZM364.422 201.613V50.2481C357.858 48.9636 351.422 47.0951 345.191 44.665V202.233H364.422V201.613ZM287.499 201.613V52.1092C281.232 54.0013 274.788 55.2484 268.268 55.8313V201.613H287.499ZM402.263 201.613V53.9702L383.032 52.7295V201.613H402.263ZM325.96 201.613V35.3598L306.729 45.2854V201.613H325.96Z" fill="white"/>
<path d="M495.936 248.139L489.112 240.074C458.094 207.816 414.05 126.551 469.881 52.1092L474.223 46.5261L453.132 16.7494L445.687 19.2308C434.499 23.0869 422.779 25.1798 410.948 25.4342C378.69 25.4342 357.598 22.3325 331.543 4.96278L325.34 1.24069L319.136 5.58313C299.133 20.1426 275.019 27.9637 250.278 27.9156C225.193 27.6932 200.84 19.4307 180.799 4.34243L174.596 0L168.392 3.72208C142.337 21.0918 121.246 24.1935 88.9876 24.1935C77.1325 24.1909 65.3714 22.0907 54.2481 17.9901L46.804 15.5087L25.7122 45.2854L30.0546 50.8685C86.5062 127.171 42.4615 207.816 11.4442 240.074L4 247.519L11.4442 255.583L28.1935 272.953V276.675C25.0918 331.266 39.3598 375.931 69.7568 409.429C100.154 442.928 152.883 466.501 213.057 469.603C227.945 483.251 242.834 494.417 243.454 495.037L249.658 500L255.861 495.037C256.481 494.417 271.37 483.251 286.258 469.603C346.432 466.501 396.68 444.789 429.558 409.429C462.437 374.069 474.223 331.266 471.122 277.295V272.953L487.871 255.583L495.936 248.139ZM460.576 269.231C461.196 274.814 460.576 274.194 461.196 277.916C467.399 398.263 383.653 454.715 282.536 459.057C267.027 473.325 250.278 486.352 250.278 486.352C238.753 477.958 227.771 468.841 217.4 459.057C116.283 454.715 32.536 397.643 38.7395 277.295C39.3598 274.194 38.7395 274.194 39.3598 268.61L18.8883 247.519C55.4888 209.677 97.6725 123.449 38.7395 45.2854L51.1464 28.536C63.264 33.0062 76.0719 35.3158 88.9876 35.3598C122.486 35.3598 146.06 32.2581 173.975 13.0273C195.879 29.2935 222.376 38.198 249.658 38.4615C276.94 38.198 303.436 29.2935 325.34 13.0273C353.876 31.6377 376.829 35.3598 410.328 35.3598C423.243 35.3158 436.051 33.0062 448.169 28.536L460.576 45.2854C401.643 123.449 443.826 209.677 480.427 247.519L460.576 269.231Z" fill="white"/>
<path d="M56.1091 271.712C56.2563 272.987 56.0413 274.277 55.4888 275.434C55.5278 276.502 55.3153 277.565 54.8684 278.536C52.387 325.062 64.1736 362.283 88.9875 389.578C113.801 416.873 164.67 439.206 224.223 441.687H274.471C334.025 439.206 380.551 421.216 409.707 389.578C438.863 357.94 446.308 324.442 443.826 277.916C443.826 276.055 443.826 275.434 443.206 274.814C443.256 273.544 443.044 272.277 442.586 271.092V269.851H56.7295L56.1091 271.712ZM58.5905 279.156C58.4 278.081 58.6215 276.974 59.2109 276.055C59.1973 275.187 59.4112 274.332 59.8312 273.573H440.725C440.725 274.814 440.725 275.434 441.345 276.055C441.306 277.123 441.518 278.185 441.965 279.156C444.447 324.442 433.28 361.042 408.466 388.337C383.653 415.633 334.025 436.725 275.712 439.206H225.464C166.531 436.725 120.625 418.735 92.0893 387.717C63.5533 356.7 56.1091 324.442 58.5905 279.156ZM69.1364 200.993L67.8957 203.474H431.419L430.179 200.993C414.67 165.012 402.263 109.802 435.762 52.7295L437.623 49.6278H433.901C425.911 51.0674 417.823 51.8969 409.707 52.1092C377.449 52.1092 353.256 49.0075 325.96 33.4988H324.72C302.204 47.6499 276.247 55.3728 249.658 55.8313C223.07 55.9575 197.01 48.4194 174.595 34.1191H173.355C146.059 49.6278 121.866 52.7295 89.6079 52.7295C81.6816 52.7962 73.7733 51.9638 66.0347 50.2482H62.3126L64.1736 53.3499C97.0521 109.802 85.2654 165.012 69.1364 200.993ZM250.898 58.933C277.442 58.7564 303.421 51.242 325.96 37.2209C353.876 52.7295 378.069 55.8313 410.948 55.8313C418.019 55.8286 425.077 55.2059 432.04 53.9702C401.022 109.802 411.568 163.772 427.077 199.752H250.898V58.933ZM67.8957 53.9702L88.9875 55.8313C121.866 55.8313 146.059 52.7295 173.975 37.2209C196.194 50.939 221.689 58.4377 247.796 58.933V199.752H73.4788C88.3672 163.772 99.5334 109.802 67.8957 53.9702ZM204.372 222.705V212.159H168.392V261.787H178.938V241.315H193.826V230.769H178.938V222.705H204.372ZM246.556 222.084C248.313 222.069 250.043 222.52 251.569 223.392C253.095 224.264 254.362 225.525 255.241 227.047L265.166 222.705C263.549 219.186 260.907 216.238 257.587 214.245C254.266 212.253 250.421 211.31 246.556 211.538C233.528 211.538 224.223 222.084 224.223 236.973C224.223 251.861 232.908 262.407 245.935 262.407C249.801 262.636 253.646 261.692 256.966 259.7C260.287 257.708 262.929 254.759 264.546 251.241L255.241 245.658C254.493 247.507 253.205 249.088 251.545 250.195C249.885 251.301 247.93 251.882 245.935 251.861C239.112 251.861 234.769 245.658 234.769 236.973C234.769 228.288 239.732 222.084 246.556 222.084ZM329.682 225.186C329.682 216.501 323.479 211.538 313.553 211.538H290.6V261.166H313.553C324.72 261.166 331.543 254.963 331.543 245.037C331.648 242.866 331.117 240.712 330.015 238.839C328.913 236.966 327.288 235.455 325.34 234.491C326.843 233.484 328.043 232.084 328.808 230.444C329.573 228.804 329.876 226.986 329.682 225.186ZM301.767 222.084H313.553C318.516 222.084 319.136 224.566 319.136 226.427C319.143 227.053 319.014 227.674 318.758 228.245C318.502 228.817 318.125 229.327 317.654 229.739C317.182 230.152 316.627 230.458 316.026 230.635C315.426 230.813 314.794 230.859 314.174 230.769H301.767V222.084ZM314.174 251.241H301.767V240.074H314.174C318.516 240.074 320.377 241.935 320.377 245.658C320.377 249.38 317.896 251.241 314.174 251.241Z" fill="white"/>
<path d="M249.658 407.568C260.332 407.568 270.767 404.403 279.642 398.473C288.517 392.542 295.435 384.113 299.52 374.252C303.605 364.39 304.673 353.538 302.591 343.069C300.508 332.6 295.368 322.983 287.82 315.435C280.273 307.887 270.656 302.747 260.187 300.665C249.718 298.582 238.866 299.651 229.004 303.736C219.142 307.821 210.713 314.738 204.783 323.614C198.853 332.489 195.688 342.924 195.688 353.598C195.688 367.912 201.374 381.639 211.495 391.761C221.616 401.882 235.344 407.568 249.658 407.568ZM249.658 404.467C239.486 404.527 229.535 401.498 221.122 395.782C232.803 395.469 244.259 392.499 254.621 387.097C263.305 382.134 271.99 375.931 273.851 367.246C275.814 366.226 277.995 365.698 280.207 365.708C282.418 365.718 284.594 366.266 286.548 367.303C288.501 368.341 290.172 369.838 291.419 371.665C292.665 373.492 293.449 375.594 293.702 377.792C289.559 385.887 283.244 392.669 275.466 397.38C267.687 402.091 258.751 404.545 249.658 404.467ZM224.844 365.385C227.648 367.157 230.842 368.222 234.149 368.486C238.234 368.434 242.18 366.992 245.337 364.399C248.494 361.806 250.674 358.216 251.519 354.218C252.967 352.871 254.732 351.909 256.65 351.423C258.568 350.936 260.577 350.94 262.493 351.435C264.409 351.929 266.169 352.898 267.612 354.252C269.055 355.605 270.134 357.301 270.75 359.181C275.092 369.727 265.787 377.171 254 384.615C242.798 390.068 230.478 392.829 218.02 392.68C212.498 387.966 207.874 382.291 204.372 375.931H205.613C209.477 376.105 213.315 375.214 216.707 373.354C220.099 371.494 222.914 368.737 224.844 365.385ZM216.779 339.95C217.169 330.464 218.839 321.074 221.742 312.035C228.81 307.434 236.911 304.663 245.315 303.97C242.859 306.891 241.618 310.644 241.849 314.454C242.08 318.263 243.765 321.839 246.556 324.442L242.834 328.784C240.122 333.03 239.125 338.149 240.047 343.102C240.968 348.055 243.739 352.473 247.797 355.459C247.079 358.685 245.265 361.561 242.663 363.598C240.06 365.634 236.832 366.704 233.529 366.625C222.362 364.144 216.779 352.978 216.779 339.95ZM275.092 364.144C274.979 362.229 274.56 360.344 273.851 358.561C273.021 356.318 271.663 354.309 269.893 352.702C268.122 351.095 265.99 349.939 263.678 349.33C261.365 348.722 258.94 348.679 256.608 349.206C254.275 349.733 252.104 350.814 250.278 352.357C246.75 349.964 244.312 346.272 243.499 342.087C242.685 337.902 243.561 333.566 245.936 330.025C251.519 320.72 265.166 324.442 277.573 331.266C288.232 337.339 296.371 347.019 300.526 358.561C299.945 363.867 298.694 369.078 296.804 374.07C296.045 371.981 294.878 370.065 293.371 368.433C291.864 366.8 290.047 365.484 288.027 364.56C286.006 363.636 283.822 363.124 281.601 363.052C279.38 362.981 277.168 363.352 275.092 364.144ZM278.194 328.164C269.509 323.201 257.722 318.859 249.658 321.96C248.016 320.92 246.674 319.47 245.765 317.752C244.856 316.035 244.41 314.11 244.473 312.168C244.536 310.225 245.104 308.333 246.122 306.678C247.14 305.023 248.573 303.662 250.278 302.73C263.141 302.863 275.476 307.864 284.8 316.727C294.123 325.59 299.743 337.656 300.526 350.496C295.068 341.301 287.389 333.622 278.194 328.164ZM218.02 314.516C216.901 317.956 216.071 321.484 215.539 325.062C213.057 336.849 213.057 354.839 222.362 363.524C220.791 366.546 218.365 369.04 215.387 370.695C212.409 372.349 209.01 373.091 205.613 372.829H203.132C200.593 366.739 199.326 360.195 199.41 353.598C199.358 346.101 201.006 338.69 204.229 331.921C207.452 325.152 212.167 319.202 218.02 314.516Z" fill="white"/>
</g>
<defs>
<clipPath id="clip0_1170_4840">
<rect width="491.936" height="500" fill="white" transform="translate(4)"/>
</clipPath>
</defs>
</svg>
