<svg width="500" height="500" viewBox="0 0 500 500" fill="none" xmlns="http://www.w3.org/2000/svg">
<g clip-path="url(#clip0_1170_4811)">
<path d="M319.789 4.16343C296.769 20.1449 274.574 27.5892 249.947 27.5892C225.317 27.5892 203.123 20.1449 180.101 4.16343L174.103 0L168.017 4.03092C141.996 21.2606 120.855 24.4125 88.5963 24.4125C77.4744 24.4125 65.5159 22.3136 54.0159 18.3419L46.3551 15.697L41.6943 22.326C39.2155 25.8516 37.3737 28.091 35.5936 30.2562C33.4002 32.9231 31.3277 35.4435 28.894 39.3551L24.9965 45.6201L29.4329 51.5159C49.1475 77.7155 56.5875 104.67 56.5875 130.042C56.5875 177.357 30.7173 219.167 10.3419 240.309L3 247.928L10.4885 255.401C14.5053 259.41 21.6599 266.833 27.5769 273.052L27.3392 276.313L27.2871 276.906C27.0442 281.428 26.9217 285.955 26.9196 290.483C26.9196 338.534 41.1219 378.483 69.2288 409.382C101.769 445.157 152.651 466.515 212.786 469.839C227.719 483.439 242.895 494.727 243.574 495.231L250.003 499.999L256.423 495.215C257.097 494.711 272.191 483.43 287.106 469.837C347.239 466.513 398.119 445.156 430.661 409.38C458.766 378.481 472.97 338.532 472.97 290.485C472.97 286.028 472.846 281.502 472.602 276.905L472.595 276.798L472.542 276.208C472.542 276.208 472.329 273.291 472.314 273.051C477.791 267.293 485.178 259.614 489.4 255.398L496.886 247.925L489.547 240.307C469.174 219.163 443.303 177.35 443.303 130.035C443.303 104.664 450.741 77.7111 470.453 51.5141L474.889 45.621L470.996 39.3569C468.561 35.4417 466.488 32.9214 464.295 30.2526C462.516 28.0883 460.674 25.8498 458.198 22.3251L453.538 15.6935L445.877 18.3392C434.375 22.311 422.417 24.4099 411.296 24.4099C379.034 24.4099 357.892 21.2579 331.875 4.02827L325.786 0L319.789 4.16343Z" fill="black"/>
<path d="M249.988 486.584C249.988 486.584 232.799 473.833 217.27 459.328C115.679 455.116 31.6158 398.145 38.039 277.478C38.4188 274.294 38.0964 274.509 38.6476 269.077C32.8225 262.913 23.1839 252.858 18.0938 247.778C54.5337 209.965 97.0549 123.471 38.0346 45.0397C41.9153 38.8003 44.7245 36.7314 50.5001 28.5159C62.2969 32.5892 75.4144 35.1767 88.5946 35.1767C122.44 35.1767 145.549 31.818 173.959 13.0044C196.421 28.5963 220.778 38.3525 249.947 38.3525C279.114 38.3525 303.47 28.5963 325.929 13.0044C354.339 31.8171 377.448 35.1767 411.296 35.1767C424.473 35.1767 437.594 32.5901 449.391 28.5159C455.165 36.7305 457.975 38.8003 461.853 45.0397C402.835 123.471 445.359 209.965 481.795 247.778C476.706 252.858 467.065 262.913 461.241 269.077C461.79 274.508 461.471 274.294 461.85 277.478C468.273 398.145 384.206 455.114 282.622 459.328C267.092 473.834 249.988 486.584 249.988 486.584Z" fill="#E2B900"/>
<path d="M57.3096 270.281H55.8758L55.2645 275.473L54.8237 278.814C52.4527 325.297 64.0419 362.848 89.2619 390.51C118.189 422.241 165.055 440.32 224.793 442.795C224.851 442.797 225.796 442.802 225.796 442.802C243.72 442.899 260.649 442.991 275.052 442.797C334.834 440.321 381.7 422.241 410.627 390.511C435.848 362.85 447.436 325.299 445.072 278.9C445.066 278.816 444.622 275.458 444.622 275.458L444.016 270.343L442.576 270.282H57.3096V270.281Z" fill="black"/>
<path d="M58.7422 273.507L58.4516 275.971C58.4516 275.971 58.0434 279.067 58.039 279.067C57.8429 282.874 57.7439 286.685 57.7422 290.497C57.7422 330.759 69.1247 363.632 91.6468 388.336C97.0293 394.241 103.057 399.66 109.687 404.586V273.507H58.7422ZM441.854 279.149L441.434 275.955L441.144 273.507H390.201V404.587C396.832 399.662 402.86 394.242 408.241 388.337C430.768 363.628 442.149 330.748 442.149 290.539C442.149 286.807 442.052 283.01 441.854 279.149Z" fill="#004B95"/>
<path d="M165.79 273.507H109.688V404.587C125.211 416.124 144.064 424.936 165.79 430.87V273.507ZM334.099 273.507V430.868C355.831 424.931 374.68 416.12 390.201 404.587V273.507H334.099Z" fill="#A4234B"/>
<path d="M196.167 354.244C196.167 334.824 206.463 317.811 221.893 308.359V273.507H165.789V430.87C182.797 435.517 201.568 438.393 221.893 439.422V400.131C206.464 390.678 196.167 373.664 196.167 354.244ZM277.996 273.507V308.358C293.425 317.81 303.722 334.823 303.722 354.243C303.722 373.663 293.425 390.678 277.996 400.13V439.42C298.324 438.388 317.094 435.511 334.099 430.867V273.507H277.996Z" fill="#004B95"/>
<path d="M277.996 308.359V273.507H221.894V308.358C230.06 303.353 239.663 300.466 249.943 300.466C260.224 300.466 269.829 303.354 277.996 308.359ZM221.894 400.131V439.422C222.884 439.474 223.87 439.529 224.868 439.57L225.813 439.575C243.721 439.671 260.636 439.763 274.962 439.572C275.979 439.529 276.985 439.472 277.996 439.421V400.131C269.828 405.133 260.223 408.022 249.943 408.022C239.664 408.023 230.06 405.134 221.894 400.131Z" fill="#A4234B"/>
<path d="M222.5 364.003C212.77 355.14 212.74 337.132 215.354 325.17C216.08 321.838 216.994 318.578 217.938 314.851C206.498 324.155 199.19 338.347 199.19 354.244C199.181 360.765 200.432 367.227 202.876 373.273C203.741 373.386 204.62 373.447 205.512 373.447C213.028 373.447 219.165 369.975 222.5 364.003ZM274.753 367.887C273.088 376.393 263.991 382.767 255.418 387.879C246.585 393.148 232.339 395.871 221.619 396.367C229.709 401.817 239.455 405 249.943 405C269.085 405 285.752 394.402 294.394 378.758C292.88 366.237 280.977 364.766 274.753 367.887Z" fill="#E2B900"/>
<path d="M217.683 393.428C228.271 393.51 244.544 390.846 253.872 385.284C265.928 378.089 275.295 370.413 270.844 359.772C268.595 354.395 261.118 348.171 251.425 355.036C250.806 362.98 241 369.986 233.959 369.083C230.392 368.625 227.403 367.5 224.912 365.87C220.956 372.631 213.872 376.468 205.514 376.468C205.102 376.468 204.692 376.457 204.286 376.434C207.481 382.994 212.05 388.789 217.683 393.428ZM249.813 322.614C258.208 319.133 269.844 323.657 278.709 328.607C287.079 333.284 295.819 342.011 300.609 351.176C299.031 324.712 277.184 303.716 250.382 303.489C242.373 308.749 243.466 318.664 249.813 322.614Z" fill="#E2B900"/>
<path d="M248.393 354.998C238 347.418 238.639 335.49 243.111 328.405C244.208 326.666 245.485 325.299 246.904 324.254C240.861 319.43 239.652 310.072 245.505 303.678C236.999 304.412 228.819 307.291 221.729 312.048C219.512 321.579 216.691 330.284 216.832 340.24C217.022 353.657 222.576 364.579 234.343 366.088C239.834 366.791 247.757 360.949 248.393 354.998Z" fill="#E2B900"/>
<path d="M300.488 358.912C297.592 348.411 287.18 336.802 277.236 331.247C264.975 324.398 251.562 320.673 245.665 330.02C241.88 336.019 241.353 345.927 249.941 352.384C261.614 344.322 270.938 352.162 273.63 358.609C274.495 360.673 274.933 362.637 275.01 364.505C281.9 362.081 293.098 363.642 296.546 374.395C298.674 369.476 300.005 364.249 300.488 358.912Z" fill="#E2B900"/>
<path d="M203.676 211.767H168.197V261.652H179.007V241.071H193.728V230.538H179.007V222.369H204.196V211.769L203.676 211.767ZM224.308 236.708C224.308 252.328 232.893 262.419 246.179 262.419C254.841 262.419 261.08 258.61 264.72 251.101L264.929 250.67L255.837 245.277L255.571 245.723C252.977 250.064 250.509 251.678 246.46 251.678C239.844 251.678 235.398 245.662 235.398 236.708C235.398 227.475 239.611 221.739 246.391 221.739C250.329 221.739 253.097 223.382 254.857 226.764L255.087 227.205L265.094 222.587L264.862 222.11C261.347 214.842 255.008 211 246.528 211C233.445 210.999 224.308 221.572 224.308 236.708ZM325.225 234.634C328.247 232.492 330.02 229.13 330.02 225.195C330.02 216.787 324.033 211.767 314.007 211.767H291.088V261.652H313.796C325.003 261.652 331.691 255.562 331.691 245.362C331.691 240.585 329.305 236.758 325.225 234.634ZM301.688 221.811H313.588C318.444 221.811 319.066 224.03 319.066 225.964C319.066 228.713 317.434 230.049 314.077 230.049H301.689L301.688 221.811ZM314.145 251.33H301.688V239.743H314.145C318.551 239.743 320.604 241.573 320.604 245.502C320.604 249.314 318.371 251.33 314.145 251.33ZM325.372 33.4293C301.203 48.0495 276.529 55.1661 249.941 55.1855C223.355 55.1669 198.684 48.0495 174.514 33.4293L173.707 32.9408L172.886 33.4055C145.354 48.9646 121.129 52.0079 88.5903 52.0079C80.7705 52.0079 72.7033 51.2226 64.6097 49.6731L61.1221 49.0053L62.9136 52.0715C96.3429 109.278 84.4754 164.586 68.6344 200.911L67.6495 203.17H432.239L431.252 200.911C415.412 164.586 403.544 109.278 436.972 52.0715L438.763 49.0053L435.278 49.6731C427.185 51.2226 419.116 52.0079 411.297 52.0079C378.758 52.0079 354.533 48.9646 327.001 33.4055L326.179 32.9408L325.372 33.4293Z" fill="black"/>
<path d="M138.121 50.6316C122.851 54.2544 107.027 55.235 88.5909 55.235C81.6183 55.235 74.4478 54.5132 67.249 53.3109C75.7905 68.5839 81.2252 83.697 84.3082 98.3454H138.122L138.121 50.6316ZM248.331 98.3454V58.3843C229.025 58.1643 210.703 54.2456 192.846 46.5132V98.3454H248.331ZM85.8347 153.072C83.2932 170.588 78.2216 186.466 72.5255 199.942H138.122V153.072H85.8347ZM192.846 199.942H248.331V153.072H192.846V199.942Z" fill="white"/>
<path d="M192.847 98.3454V46.5133C186.394 43.72 180 40.4417 173.647 36.6414C161.497 43.4152 149.976 47.8189 138.122 50.6308V98.3445H84.3086C86.4728 108.628 87.5631 119.108 87.5621 129.617C87.5621 137.701 86.9296 145.535 85.836 153.071H138.122V199.941H192.847V153.071H248.332V98.3445L192.847 98.3454Z" fill="#DB2F36"/>
<path d="M326.239 36.6414L326.161 36.6864V199.941H345.398V45.5954C339.096 43.2058 332.759 40.2756 326.239 36.6414ZM287.685 53.3392V199.942H306.922V46.5627C300.676 49.2682 294.248 51.5326 287.685 53.3392ZM251.556 58.3843V199.942H268.446V57.197C262.844 57.9207 257.204 58.3171 251.556 58.3843ZM364.64 51.2571V199.942H383.876V54.1484C377.26 53.5345 370.891 52.6007 364.64 51.2571ZM412.326 129.618C412.326 105.734 417.848 79.7553 432.639 53.311C425.44 54.5124 418.268 55.235 411.297 55.235C408.505 55.235 405.794 55.2023 403.116 55.1511V199.942H427.362C419.215 180.668 412.326 156.493 412.326 129.618Z" fill="#FFDF00"/>
<path d="M383.877 54.1484V199.942H403.115V55.1511C396.413 55.0239 390.031 54.7191 383.877 54.1484ZM268.447 57.197V199.942H287.685V53.3392C281.37 55.0734 274.942 56.3625 268.447 57.197ZM306.923 46.5627V199.942H326.161V36.6864C319.795 40.4903 313.388 43.7703 306.923 46.5627ZM345.4 45.5954V199.942H364.639V51.2571C358.092 49.8585 351.66 47.9659 345.4 45.5954Z" fill="#DB2F36"/>
</g>
<defs>
<clipPath id="clip0_1170_4811">
<rect width="493.885" height="500" fill="white" transform="translate(3)"/>
</clipPath>
</defs>
</svg>
