<svg width="500" height="500" viewBox="0 0 500 500" fill="none" xmlns="http://www.w3.org/2000/svg">
<path d="M243.694 17.9053C243.583 23.1759 243.801 27.4547 243.583 32.0639C243.694 34.9221 243.801 38.5436 243.913 42.0576C243.694 42.9282 243.694 43.8078 242.703 44.2471C241.717 44.8012 240.949 43.1519 240.072 42.7134C238.757 40.8478 236.229 38.6526 235.793 36.4575C233.269 33.1639 232.829 27.3457 232.609 23.2849L232.829 22.9554C232.499 22.4046 233.269 21.5307 233.048 20.7603C233.925 18.2356 236.014 16.3716 238.757 16.0421C240.072 16.2609 242.703 16.042 243.694 17.9053ZM240.728 18.8986C239.192 18.8986 237.329 18.6766 236.343 20.3209C234.693 24.1653 236.014 27.7843 236.669 31.9541C237.548 34.4828 239.087 37.1133 240.949 38.9789C240.728 37.4428 241.169 36.1239 240.728 34.7001C241.608 29.1072 240.399 24.0562 240.728 18.8986ZM264.215 17.9053C265.641 19.9954 266.186 22.1866 266.186 24.6046C265.09 25.5932 266.738 26.9088 265.641 27.8941C265.749 30.1999 264.981 32.3926 263.778 34.5918C262.681 38.3231 260.373 41.5036 256.976 44.0323C256.205 44.0323 255.875 44.2471 255.434 43.6979C254.887 42.0576 254.887 40.7323 255.215 39.1994C254.774 35.3591 255.112 29.9834 255.001 25.9194L254.887 19.2241C255.215 18.3462 254.556 16.924 255.875 16.5945C258.395 15.7125 262.351 15.7125 264.215 17.9053ZM262.351 20.1077C261.251 18.4553 259.607 18.7856 257.846 19.002C257.846 25.7006 257.846 32.0639 258.287 38.7584C261.799 33.4894 264.871 26.5785 262.351 20.1077ZM251.048 34.8091C250.826 31.4081 250.719 27.8941 249.506 24.7112L248.847 26.0309C247.647 33.0549 247.318 39.9682 249.618 46.5513C250.496 43.1519 251.155 39.8584 251.048 36.4575C251.485 36.0189 250.719 35.1386 251.048 34.8091ZM252.252 23.3939C254.123 31.7376 255.112 40.4068 251.7 48.8579C251.155 49.7374 249.947 49.8472 249.177 49.8472C247.759 49.9563 246.987 48.4169 246.439 47.3218C246.327 46.9923 246.658 45.6734 245.78 45.1266C245.12 38.9789 244.354 33.3844 245.78 27.5678C245.669 25.2596 246.546 22.2996 248.959 21.2004C250.496 20.9799 251.267 22.4046 252.252 23.3939ZM259.338 94.4069C256.044 92.9766 252.643 91.6618 249.238 90.5666C245.726 91.9913 242.657 93.5266 239.581 94.4069C241.117 95.1758 242.762 95.3882 244.192 96.4874C245.619 96.7111 247.267 97.5858 248.69 97.8095C250.227 98.9006 251.877 96.9259 253.303 96.9259C255.384 95.8316 257.252 95.1758 259.338 94.4069ZM264.606 93.3102C264.825 93.8561 265.266 94.6218 264.714 95.1758C260.43 97.5858 254.943 98.7956 250.227 101.207C248.145 101.646 246.056 100.005 243.97 99.5661C240.897 97.9193 236.727 97.2595 233.763 95.1758C233.324 94.1824 234.202 93.966 234.422 93.3102C236.948 92.7602 240.021 90.8929 242.657 89.9011L242.876 90.1265C244.848 88.9166 247.156 88.4773 249.238 87.3829C254.4 89.3576 259.771 91.3314 264.606 93.3102ZM251.267 0.457925C253.019 0.457925 254.556 1.11694 255.764 2.98258C257.083 5.39256 256.535 7.04257 256.754 9.67708L257.413 10.2255L257.628 10.0025C262.9 10.7722 268.275 12.0911 270.581 17.6872C271.35 21.2004 271.792 24.9301 270.909 28.1146C270.142 28.5531 271.018 29.1072 270.581 29.5441C268.605 37.0042 265.09 44.9062 259.384 50.8358C259.17 53.9056 258.724 57.2008 260.811 60.2746C265.749 61.8099 270.365 57.8566 272.884 54.5647C271.792 52.5908 269.591 50.5022 270.25 47.8685C270.142 47.3218 269.924 45.8955 270.581 45.0176C271.899 42.0576 273.214 40.4068 276.723 39.4174C280.234 38.6526 283.854 40.4068 285.832 43.3692C285.832 43.6979 286.385 44.4676 286.603 45.0176C287.811 47.6521 286.603 50.1727 285.395 52.8072C284.736 54.6721 280.456 54.8942 282.757 57.4156C283.969 61.2559 286.714 64.774 290.994 65.9798C291.1 65.9798 290.994 66.4191 291.318 66.3093C292.42 66.0888 293.624 66.7446 294.72 66.3093C297.903 66.2003 300.756 64.2199 302.952 62.1395C297.796 61.81 292.09 59.8353 290.004 54.5647C289.79 53.14 288.47 51.3826 289.13 49.5169L288.685 49.1874C288.356 44.3578 290.004 39.6387 292.42 36.0189C293.846 34.3697 295.825 34.9221 297.688 35.0295L298.017 35.3591C298.566 35.1386 299.436 35.4681 299.989 35.9075C301.852 36.8928 303.171 37.4428 304.927 38.4281C304.598 36.1239 304.272 33.3844 304.16 31.0818C304.045 30.1999 303.716 29.1071 304.383 28.2236C303.831 27.6792 304.383 26.7989 304.383 26.1399C304.712 22.8504 307.449 20.2102 310.526 18.8986L312.389 18.6765H313.486C317.331 18.2356 322.051 20.2102 325.56 21.2004L325.997 21.8603C326.108 21.7496 326.108 21.5307 326.108 21.4201C328.52 22.1865 330.939 25.2596 331.82 27.5678C331.269 28.0048 332.143 28.4441 332.035 28.8794C332.143 34.0442 329.179 38.5436 326.108 42.602L326.33 43.0429C328.849 42.8265 331.269 42.7134 334.01 43.152C334.666 43.4815 335.985 43.9176 336.641 44.9061L337.193 45.3479C336.863 46.0029 338.29 46.6668 337.412 47.5423C338.731 50.3964 336.641 52.5908 336.751 55.6614C334.888 60.8206 331.269 66.5298 325.015 66.7446C322.487 67.0798 319.635 66.2003 317.331 65.4298C316.775 66.3093 317.764 66.9651 317.764 67.7356C319.306 70.3701 321.391 72.5628 324.244 73.8841C329.949 75.4178 334.996 71.0291 338.619 67.2946C337.849 65.4298 336.751 63.6756 336.2 62.0304C336.533 59.5058 336.863 56.6508 338.949 54.8942C340.049 53.9056 341.249 53.3572 342.457 52.9163L342.68 53.14C344.765 52.0376 347.181 52.9163 349.697 53.9056C351.893 55.5508 353.212 58.2959 353.324 60.4911C353.542 62.7953 352.664 65.5404 350.8 67.0798C349.697 68.3954 347.618 68.5045 346.736 69.9283C347.51 74.2096 347.51 78.9318 350.8 81.4565C354.089 83.2082 357.71 81.127 360.455 79.3696L361.555 77.9425C360.126 77.3949 358.477 77.8334 356.942 77.5039C355.409 76.8441 353.871 76.2981 352.771 74.8694C351.452 70.0397 352.557 65.324 355.187 60.9296C357.058 58.4106 359.689 57.0901 362.871 56.977C363.094 57.4156 363.422 57.4156 363.745 57.0901C363.968 57.0901 364.074 57.4156 364.301 57.5303C365.064 57.0901 366.275 58.1861 367.257 58.1861C368.469 56.5417 368.799 54.3458 370.118 53.14C371.21 51.4916 373.3 49.8473 375.164 48.9702C379.991 46.6668 384.703 47.8686 390.086 49.076C390.854 49.2965 392.172 49.4055 392.279 50.2858C393.161 49.8473 393.706 50.7268 394.695 51.0531C396.344 53.9056 392.172 53.031 390.964 54.4556C386.682 57.9696 382.184 62.9043 379.55 67.6241C379.88 70.2627 381.966 72.2293 380.65 74.9744C379.88 78.3834 376.804 80.2467 373.626 80.9025C372.748 81.3434 371.321 80.7975 370.555 80.9025C365.942 86.3936 360.892 91.9913 353.983 94.0766C356.068 95.8316 356.287 98.6898 356.068 100.66C355.302 102.965 352.993 105.27 350.471 105.27C350.8 108.671 352.993 112.185 352.771 115.699C351.034 116.801 348.094 119.617 345.827 121.278C345.827 121.278 296.737 119.906 302.183 119.644C302.293 118.663 301.415 119.543 301.085 119.314C300.974 119.104 301.197 119.104 301.197 118.992C300.756 119.104 300.319 119.104 299.877 118.875C297.466 118.442 294.061 117.673 291.649 117.453C288.578 116.572 285.066 116.467 281.991 116.028C281.227 115.808 279.797 115.588 279.138 115.699C277.051 115.043 274.199 114.819 271.68 114.928C257.187 113.283 242.489 113.39 227.45 115.149C226.904 115.369 226.353 114.709 226.023 115.369C222.839 115.258 219.335 116.467 216.147 116.249V116.467C209.677 117.779 203.091 118.663 197.163 120.307C197.355 120.34 197.512 120.386 197.658 120.43C198.034 120.415 198.325 120.397 198.509 120.386C198.816 120.334 198.775 120.359 198.509 120.386C198.231 120.611 197.987 120.536 197.658 120.43C191.237 120.704 158.316 120.913 153.866 120.873L153.6 121.078C153.38 121.078 153.27 121.078 153.05 120.854C152.85 120.861 153.136 120.861 153.866 120.873C152.061 118.55 145.912 118.992 147.561 114.819L149.647 107.029C148.217 106.366 146.576 106.366 145.695 104.826C144.601 104.505 144.38 103.186 143.832 102.309C143.721 100.11 143.721 97.589 145.807 95.8316C139.112 93.7511 133.953 87.9273 129.348 82.8828C128.027 82.8828 126.932 82.5533 125.393 82.6623C122.758 82.0073 119.358 79.5876 118.923 76.5178C118.484 74.0989 119.029 71.5775 120.017 69.2733C116.285 64.1141 111.785 57.8566 106.3 55.1114L104.981 55.0056C105.421 53.7966 103.666 55.1114 104.652 54.1261C104.391 54.0284 104.305 53.9977 104.309 53.988C104.313 53.9605 104.809 54.0357 104.652 53.5753C105.421 52.2613 107.065 52.9163 107.946 51.7121C108.826 51.3826 109.264 51.931 109.703 51.0531L111.019 50.9416C111.68 50.3964 112.991 50.2858 113.98 49.9563C115.955 49.2964 117.494 50.0677 119.798 49.6268C119.908 50.1727 120.894 49.6268 121.223 50.2858C121.77 49.9563 122.539 50.1727 123.418 50.3964C127.259 51.9309 130.882 55.5508 131.868 59.8353C134.392 59.1754 138.012 57.7459 140.866 59.6108C145.37 62.2493 146.902 67.9585 147.561 72.6743C147.011 74.3227 147.231 76.2981 145.59 77.613C143.502 79.8081 140.537 78.9318 138.012 79.4786C140.097 82.5533 143.282 83.3221 146.246 83.5386C148.112 83.3221 149.865 82.3328 150.854 80.4639C151.51 77.0678 152.72 74.4284 152.39 70.6996C148.988 69.9283 147.011 67.0798 146.137 64.1141C145.912 61.8099 146.246 59.0664 147.777 57.0901C150.195 54.4556 153.491 53.4703 156.997 54.3458C159.854 55.0056 161.61 57.4156 162.704 60.0517C162.815 61.5895 163.584 64.1141 162.16 65.5404C161.83 66.6388 161.28 67.6241 160.62 68.3954C164.02 71.689 167.534 74.9744 172.14 75.3088C175.543 75.5284 178.728 73.2242 180.593 70.2626C181.358 69.1602 181.579 67.7356 182.459 66.7446L182.129 66.3093C178.289 68.3954 172.47 68.7249 168.739 66.0888C163.471 61.81 162.16 55.9909 161.28 49.8472L161.72 49.2965C161.389 48.0907 161.72 46.4423 163.03 45.5628C165.449 43.4815 167.645 44.0323 170.279 44.0323C171.264 43.152 172.03 44.6873 173.13 43.8078C170.939 41.2871 169.289 38.5436 167.975 35.7984L168.193 35.4681C166.985 34.3697 167.425 32.7254 166.875 31.2991C166.544 27.2375 168.96 24.7112 172.14 22.739C173.678 21.6438 175.873 21.8603 177.739 20.7603C182.568 19.3396 188.712 18.3462 192.556 22.739C193.653 24.0562 194.092 25.8056 194.312 27.3457C195.516 31.2991 194.201 35.3591 193.982 39.1994L194.312 39.4174C196.942 37.8821 199.907 35.4681 202.982 35.3591C203.311 36.1239 203.746 35.1386 204.08 35.4681C209.677 37.4428 209.786 44.9061 210.22 50.1727C210.551 54.2351 208.025 57.9696 204.845 60.4911C202.322 61.9149 199.138 62.9043 196.507 62.6863V63.3453C198.591 65.2149 201.222 66.5298 203.641 66.9651C205.946 67.4053 207.807 66.8561 209.786 66.4191C211.321 65.1003 213.184 64.0011 214.281 62.2493C215.705 60.3853 216.365 58.1861 217.025 56.1008C214.5 54.7851 212.859 52.0376 212.089 49.2965C211.651 45.8955 213.299 42.7134 216.259 40.7323C218.013 39.7478 219.99 39.9683 221.524 39.7478C224.486 40.2978 227.233 42.0576 228.549 45.1266C229.758 48.4169 228.769 52.1515 226.135 54.8942C228.33 58.4106 233.269 61.3706 237.768 60.7148C240.728 58.4106 240.289 54.2352 239.743 50.8358C237.877 49.4055 236.888 47.2128 235.464 45.7865L235.682 45.6734C233.048 42.0576 230.418 37.9895 229.428 33.7147C227.45 27.8941 226.244 21.4201 229.319 16.1551C229.537 15.9346 229.868 15.6011 229.537 15.3862C231.399 13.7354 233.378 11.5411 236.014 11.4353C237.329 10.555 239.087 10.8813 240.619 10.1164C241.169 10.2255 241.938 10.555 241.938 9.67708C242.047 9.46063 241.717 9.46063 241.717 9.34756C242.817 8.25079 241.829 6.93109 241.938 6.05723C241.608 3.97191 244.023 2.10629 244.461 1.22597C245.78 0.896452 246.877 -0.201912 248.522 0.237442C249.287 0.237442 250.607 -0.422398 251.267 0.457925ZM160.179 110.316C157.656 109.225 155.461 107.57 152.72 106.918C151.622 109.769 150.962 112.844 150.306 115.699C152.72 117.238 155.021 117.453 156.997 118.992C157.546 118.772 157.875 119.759 158.096 118.875C158.534 115.917 159.854 113.174 160.179 110.316ZM347.841 107.465L347.51 105.595C344.984 105.711 342.35 108.235 339.608 109.004C340.923 111.968 340.923 114.709 342.128 117.779C344.214 117.014 346.303 115.699 348.385 115.043C348.933 114.928 349.374 114.709 349.811 114.159C349.811 113.724 349.811 113.39 349.482 113.061C349.263 111.199 348.17 109.004 347.841 107.465ZM245.343 105.055C244.131 105.055 242.923 105.161 241.829 104.94C232.609 105.929 224.049 106.04 215.27 107.798C212.529 107.798 209.456 108.784 206.931 108.895C200.895 110.21 195.081 111.529 188.712 113.061C187.176 113.503 185.861 114.053 184.654 114.053C180.593 115.699 176.973 116.134 172.689 118.003C172.03 118.109 170.829 118.663 170.17 118.442C168.519 119.429 167.094 120.086 165.34 120.307L165.449 120.748L170.939 120.415L171.264 120.748C175.434 120.198 179.717 121.078 183.883 120.415C184.763 120.198 185.752 119.868 186.517 119.982C197.272 116.684 209.456 114.38 220.209 112.844C224.16 112.409 228.219 111.416 232.168 111.855C237.218 111.199 242.489 110.539 248.191 110.979L248.41 110.76C250.165 111.308 252.582 110.539 254.556 110.873C259.276 110.645 263.007 111.085 267.616 111.199C268.165 111.308 269.154 111.749 269.698 111.416C278.041 111.749 287.258 113.503 295.825 114.928C300.207 115.808 304.045 116.134 308.11 117.673C309.099 117.453 310.196 118.003 311.181 118.223C314.368 119.644 318.317 119.429 321.391 119.644C324.897 119.429 327.205 119.644 330.609 119.429C331.154 119.213 332.473 119.543 333.132 119.314L333.348 119.543C333.68 119.213 334.773 119.644 334.666 119.104C333.791 118.663 332.687 118.442 331.921 118.333C326.986 116.028 321.941 115.478 317.105 113.724C313.486 112.844 309.865 112.185 306.791 110.979V111.199C300.319 109.664 291.976 108.015 285.173 107.465V107.248C279.909 106.479 274.199 106.149 268.386 105.595C267.834 105.929 267.183 104.614 266.627 105.494C259.713 104.94 251.485 104.826 245.343 105.055ZM177.3 104.614C176.532 102.965 174.995 102.965 173.79 102.197C173.349 102.751 172.799 101.976 172.14 102.309C171.155 103.406 170.17 102.635 169.508 104.174C168.519 105.494 168.519 107.359 168.853 108.784C169.508 110.539 171.485 111.749 173.239 111.749C174.449 111.199 175.873 111.416 176.753 110.104C177.959 108.454 177.959 106.149 177.3 104.614ZM330.172 102.635C328.52 100.994 326.215 100.881 324.022 101.756C322.269 103.624 321.714 105.27 322.381 107.689C323.585 110.21 325.777 110.316 328.079 110.316C329.727 109.664 330.502 108.341 331.269 106.918C331.483 105.38 330.939 103.95 330.172 102.635ZM168.634 100.44C166.544 101.1 164.679 101.87 162.815 102.197C160.951 103.515 158.096 103.624 156.23 105.055C158.646 106.809 162.599 106.588 163.69 109.769C163.146 112.739 161.72 116.028 161.28 118.875C164.131 117.453 167.425 116.467 170.279 115.478C170.939 114.928 171.924 115.478 172.03 114.493C169.399 114.159 167.094 111.968 165.889 109.769C164.79 106.149 166.215 102.417 168.634 100.44ZM335.329 100.44C333.791 100.005 332.035 99.6711 330.609 99.1284C332.035 99.7842 332.803 101.1 333.791 102.309C334.225 104.174 335.103 107.248 333.462 109.225C332.584 111.639 329.62 113.39 327.205 113.503C330.387 114.272 333.68 115.478 336.641 116.467C337.081 116.572 338.071 117.453 338.837 117.123L338.508 117.014C338.071 114.272 336.751 110.979 336.092 108.235C336.863 106.149 339.278 106.149 340.816 104.94C341.909 104.721 342.457 104.174 343.446 103.845C343.664 103.295 342.787 103.406 342.68 102.856C340.486 103.076 338.508 101.207 336.533 100.994C336.092 100.44 335.329 100.881 335.329 100.44ZM205.501 100.331C204.623 98.7956 203.2 97.8095 201.442 98.2488C196.726 99.3456 191.346 100.225 186.628 100.994C185.532 101.429 185.092 102.53 184.983 103.624C184.872 104.505 184.872 106.258 186.302 106.809C189.813 107.13 193.103 105.929 196.286 105.595C199.907 104.065 205.837 105.929 205.501 100.331ZM307.557 99.8916L303.716 99.2309C299.218 99.3456 294.943 96.1579 290.663 98.4621C289.898 98.9006 290.004 100.555 290.004 101.541C290.441 102.417 291.318 103.624 292.42 103.624C295.164 104.614 298.566 104.284 301.638 105.27C304.272 105.494 307.121 106.588 309.647 105.595C310.74 105.055 310.851 103.076 310.526 102.197C310.41 100.44 308.769 100.225 307.557 99.8916ZM226.573 94.6218C225.585 94.1865 225.259 92.4299 223.94 92.1011C221.64 91.2224 219.77 92.1011 218.234 93.7511C217.466 94.8463 217.466 97.2595 217.904 98.5743C218.234 99.3456 219.219 99.8916 219.99 100.555C221.64 101.1 222.73 101.207 224.269 100.44C225.364 99.5661 226.683 98.5743 226.795 97.1505C226.464 96.1579 226.573 95.7185 226.573 94.6218ZM281.991 94.516C281.006 92.1011 279.361 91.6618 276.945 91.3314C275.515 91.4413 273.981 92.4299 273.432 93.8561C272.773 95.066 272.884 96.7111 273.432 97.9194C273.651 99.3456 275.41 100.11 276.508 100.331C277.051 100.005 277.382 101.541 277.826 100.44C278.808 100.881 279.909 99.6711 280.787 99.3456C282.105 97.9193 282.209 96.0561 281.991 94.516ZM220.099 88.8108C213.079 89.0273 205.501 91.4413 198.371 92.3208C197.052 92.5413 195.846 93.4119 194.312 93.0856C187.618 95.1758 179.387 96.7111 172.579 99.1284C173.79 99.5661 176.094 98.9006 177.518 100.44C179.277 101.32 180.043 103.406 180.814 104.614C181.799 107.798 179.824 110.76 178.507 112.844C179.608 112.844 180.919 111.639 182.347 111.855C184.433 110.979 186.302 111.085 188.603 110.104C186.411 110.21 183.774 109.554 182.459 107.13C181.028 104.94 181.687 103.186 182.347 100.994C183.668 98.9006 186.191 97.589 188.603 97.6964C188.933 97.6964 190.139 97.0414 190.687 97.3669L191.128 97.0414C196.176 96.3856 200.345 94.6218 205.062 95.7185C207.151 96.4874 208.137 98.5743 208.797 100.555C208.797 102.751 207.916 104.392 206.492 105.929C209.456 105.494 211.98 105.27 214.831 104.505C216.695 104.505 218.676 104.392 220.099 103.735C217.904 103.624 216.585 101.756 215.491 100.555C214.281 98.3563 213.731 95.2848 214.941 93.3102C216.039 91.2224 218.013 89.2461 220.099 88.8108ZM220.539 88.6978L221.309 88.8108V88.5863L220.539 88.6978ZM284.407 89.1371C283.528 88.6978 281.109 88.6978 279.797 88.4773C280.234 88.6978 281.006 88.6977 281.339 88.8108L281.227 89.0273L283.854 91.3314C285.066 93.8561 285.944 96.4874 284.624 99.2309C283.528 101.32 281.549 102.965 279.249 103.515C281.88 104.065 284.852 103.845 287.919 104.614C287.481 102.856 286.493 101.429 286.714 99.3456C287.258 97.2595 289.019 95.5053 291.1 94.6218C291.649 94.7365 292.741 94.4069 293.624 94.4069C294.283 94.7364 295.487 94.6218 296.04 95.066C299.548 95.3882 303.5 96.3856 307.232 96.7111C309.099 97.2595 310.74 97.2595 312.175 98.6898C313.823 100.555 314.145 102.53 313.596 105.161C312.941 106.588 311.952 108.128 310.303 108.565C311.621 109.11 313.049 109.876 314.368 109.876C315.686 109.554 316.56 111.199 317.658 110.434C318.973 111.529 320.18 111.085 321.714 111.749C321.61 111.308 320.732 111.416 320.951 110.76C319.635 110.645 320.402 109.004 319.306 108.454C318.754 105.494 318.754 102.197 321.28 100.225C322.925 98.9006 324.46 97.8095 326.545 98.0267V97.8095C322.925 96.9259 319.635 95.6151 316.122 94.9472C312.175 94.1864 309.318 93.2011 305.694 92.6471C304.49 92.1011 302.952 92.3208 301.746 91.8855C296.477 91.115 289.79 89.0273 284.407 89.1371ZM266.301 87.3829C258.839 86.3936 250.607 87.0526 243.032 86.8321C239.087 86.9452 235.793 87.3829 231.95 87.3829C231.62 88.1477 231.073 87.0526 230.747 87.8215L230.527 87.4879C227.45 88.4773 225.475 87.9273 222.62 88.4773L222.73 88.8108C225.805 88.6977 228.33 91.006 229.537 93.8561C230.088 95.6152 229.978 98.3563 228.878 100.225C228.11 101.646 226.464 102.309 225.914 103.515C229.868 102.965 233.819 102.091 237.989 102.417C238.428 102.53 238.648 101.541 238.974 102.309C244.79 101.87 251.485 102.197 257.846 101.756C262.9 102.53 269.154 102.309 273.981 102.965L271.239 100.44C270.142 98.3563 269.261 96.1579 270.027 93.8561C271.018 91.6618 272.554 89.0273 275.296 88.5863C275.956 88.1478 276.945 88.8108 277.275 88.0419C276.508 87.7124 275.515 88.3715 274.744 87.8215C272.336 88.1477 269.154 86.719 266.301 87.3829ZM168.634 87.0526C166.215 86.5058 164.24 84.8574 162.049 83.9739C161.389 86.2821 160.62 88.042 159.52 90.1265C162.599 89.3576 165.889 88.1477 168.634 87.0526ZM337.519 82.7713C335.433 83.6476 333.017 85.2968 331.269 85.9518C332.473 87.0526 334.336 86.5058 335.655 87.3829C337.081 88.1477 338.4 88.5863 340.049 88.5863C339.06 86.9452 338.4 84.7428 337.519 82.7713ZM253.242 77.2826C251.592 76.8441 250.059 77.5039 248.41 76.9531C246.217 77.3949 244.023 77.2826 241.938 77.1736C239.743 77.9425 237.877 77.1736 235.793 77.8334C223.5 78.272 212.966 80.0286 201.442 81.8934C200.677 81.5679 200.236 82.8828 199.686 82.1123C197.163 82.9918 194.642 83.1017 192.338 84.087L192.008 83.8721C187.833 84.641 183.557 86.0673 179.168 87.0526C178.289 87.8215 176.644 87.4879 175.543 88.3715C165.555 90.8929 157.216 93.966 147.561 97.9194C147.011 98.6898 146.576 99.5661 146.351 100.44C146.685 102.53 147.672 103.515 149.536 104.174C156.341 101.646 164.679 98.5743 172.14 96.0561C174.449 95.1758 177.083 94.7364 179.277 93.966C183.774 92.7602 188.933 91.3314 193.762 90.4519L194.201 90.0126L194.421 90.3462C211.98 85.5173 231.512 84.2016 250.937 83.8721C251.592 84.3075 252.359 83.5386 252.912 83.9739C253.567 83.7607 254.338 83.8721 254.887 83.7607L255.112 83.9739C255.327 83.9739 255.434 83.7607 255.546 83.7607C265.09 83.9739 273.762 84.5279 283.306 85.8428C284.184 85.8428 285.066 85.8428 285.832 86.0673C286.93 86.1771 288.141 86.3936 289.13 86.3936C300.974 88.0419 313.378 91.115 324.681 93.966C330.057 95.1758 335.329 97.6964 340.593 99.0161C341.797 100.005 344.105 100.11 345.314 101.1C347.066 101.207 348.715 102.417 350.471 102.53C351.349 102.53 352.441 101.646 352.993 100.881C354.089 99.3456 353.102 97.9193 352.334 96.5997C348.278 94.9472 344.765 93.6357 340.816 92.1011C337.519 91.115 334.122 90.4519 330.939 88.8108L330.831 89.2461C330.28 88.4773 329.179 89.0273 328.635 88.3715C325.889 87.8215 323.255 86.8321 320.732 85.9518C319.961 86.3936 318.423 85.7378 317.764 85.2968C316.997 85.0779 315.901 85.4075 315.357 84.641C313.823 85.1837 312.503 83.7607 310.963 83.9739C310.196 83.9739 310.089 83.1017 309.428 83.7607C301.085 81.127 291.976 80.7975 283.199 78.9318L282.65 79.2614C277.488 78.4893 273.54 78.0539 268.049 77.5039C265.2 77.613 263.118 77.3949 260.703 77.1736C258.287 77.9425 255.656 76.5178 253.242 77.2826ZM198.478 79.3696C196.286 78.3834 193.871 76.6276 192.008 74.8694C191.128 77.2826 189.813 79.4786 188.493 81.782C191.128 81.127 193.871 80.7975 196.286 80.0286C196.833 79.8081 198.152 79.9171 198.478 79.3696ZM310.963 80.7975C309.532 78.6015 308.547 76.2981 307.232 74.0989C305.035 75.5284 303.282 77.8334 300.648 78.7089L301.197 79.1483L301.526 78.8228C304.272 79.6983 307.449 79.8081 310.963 80.7975ZM227.564 75.3088C226.023 73.9931 224.049 72.2293 222.73 70.5881C222.295 72.4578 220.868 74.4284 219.66 76.0792C221.524 76.1883 223.28 75.7433 224.925 75.9638C225.585 75.5285 226.904 75.6383 227.564 75.3088ZM279.579 75.4178C277.93 73.7726 277.488 71.7939 276.508 70.2626C275.296 71.903 273.214 73.8841 271.899 74.8694C274.422 75.5284 276.837 75.7433 279.579 75.6383V75.4178ZM131.868 71.4644C130.989 69.5996 128.908 68.943 127.154 68.6135C125.063 68.8339 122.32 70.2626 121.549 72.5628C121.329 74.2096 121.444 76.1883 122.43 77.8334C123.198 78.7089 124.294 79.5876 125.172 79.9171C128.577 80.2466 129.563 80.1376 131.868 77.5039C132.637 75.6383 133.293 73.4431 131.868 71.4644ZM254.338 73.9931C252.252 72.3448 250.826 69.7143 249.618 67.6241C248.522 70.0397 246.769 72.3447 245.013 74.2096C246.217 74.0989 247.647 74.5391 249.069 74.3226C250.937 74.2096 252.912 74.6489 254.338 73.9931ZM377.679 70.2626C377.027 69.0544 375.93 67.7356 374.504 67.4052C372.529 66.0888 370.769 67.5191 368.906 68.1749C368.024 69.1603 366.932 70.1536 366.932 71.6889C366.705 73.9931 367.479 76.2981 369.561 77.613C370.88 78.163 372.529 78.8228 374.286 78.163C375.816 77.3949 377.027 76.1883 377.794 74.6489C378.123 73.2243 378.561 71.903 377.679 70.2626ZM143.941 68.8339C142.952 66.2002 141.525 62.9043 138.673 61.5895C136.478 60.6001 134.722 62.0304 132.747 62.9043C133.733 64.6601 132.968 67.4052 133.953 69.0544C135.711 68.7249 137.247 67.7356 139.003 67.2946C139.988 67.5191 140.537 68.2839 140.318 69.2733C139.112 70.4791 137.247 71.0291 135.711 71.6889C135.163 72.0185 135.601 72.6743 135.711 72.9997C135.819 73.9931 135.381 75.9637 136.478 76.2981C138.892 76.735 141.087 76.7351 143.282 75.9638C145.477 73.8841 144.162 71.5775 143.941 68.8339ZM366.498 61.3706C365.064 60.1608 362.981 59.7262 361.333 59.7262C357.166 61.0411 355.958 65.7593 354.968 69.3848C355.302 70.8086 354.313 72.9997 355.958 74.2096C358.258 75.5284 361.222 75.3088 363.745 74.3226C363.197 72.8923 364.186 71.7939 363.859 70.2626C362.653 69.7143 361.114 68.834 359.576 68.3954C358.699 67.8446 358.587 66.6388 359.358 65.9798C361.445 65.5404 363.531 66.6388 365.286 67.6241C366.168 65.324 366.168 63.5641 366.498 61.3706ZM159.635 60.1608C158.976 58.6255 157.656 57.4156 156.01 56.8713C153.491 56.4303 150.962 57.2008 149.647 59.3959C148.112 61.8099 148.988 64.4436 150.416 66.4191C151.401 67.1888 152.72 68.284 154.035 67.7356L154.255 68.0651C155.791 68.0651 157.656 67.6241 158.646 66.4191C159.74 64.4436 160.62 62.2493 159.635 60.1608ZM349.919 58.2959C348.607 56.1008 346.406 54.8942 343.883 55.2245C341.909 55.9909 340.156 57.4156 339.382 59.5058C338.731 62.1395 340.049 64.6601 342.128 66.2003C342.787 65.9798 343.446 67.0798 344.105 66.7446C346.192 66.6388 347.944 66.7446 349.263 64.6601C350.908 63.0158 350.685 59.9443 349.919 58.2959ZM128.468 58.955C127.698 57.5303 127.154 56.3205 125.944 55.0056C122.649 52.2613 118.698 51.8219 114.529 52.2613C112.991 53.14 110.689 53.0309 109.485 53.9056C110.47 54.8942 111.785 55.6614 112.991 56.7598V57.4156C114.42 57.4156 115.629 59.5058 116.285 60.4911L116.503 60.3853C118.043 62.4657 120.129 64.6601 121.329 66.7446C121.77 66.6388 121.664 67.5191 122.209 67.4052C123.309 66.6388 124.733 65.6535 125.944 66.0888C127.259 65.5404 128.686 66.0888 130.329 66.3093C129.783 63.7846 129.457 61.0411 128.468 58.955ZM387.889 51.1621C387.23 51.1621 386.682 51.053 386.137 50.6113C382.732 50.2858 379.331 49.9563 376.038 51.6006C370.992 54.0163 369.788 60.1608 369.018 64.6601L371.866 64.0011C373.844 64.2199 375.493 64.3346 377.464 65.4298C379.113 63.5641 380.21 61.7009 381.743 59.6108C384.166 56.5418 387.23 54.1261 389.864 51.8219L387.889 51.1621ZM190.907 50.3964C190.248 49.5169 189.371 48.8579 188.382 48.6374C186.517 48.2021 184.542 48.8579 183.118 49.9563C181.028 51.931 180.814 54.5646 181.799 56.7598C182.788 58.4106 184.104 58.8459 185.422 59.7262C187.176 60.0517 188.824 59.9443 189.918 58.8459C190.248 59.1754 190.468 58.4106 190.907 58.4106C192.443 56.7598 192.882 54.3458 192.338 52.2613C191.784 51.6006 191.567 50.6113 190.907 50.3964ZM316.342 49.5169C314.805 47.5423 311.729 47.1013 309.647 48.3071C308.439 49.1874 306.902 50.2858 306.791 52.1514C306.247 54.0162 306.902 55.7745 308.221 57.2008C309.647 58.7369 311.844 59.2853 313.708 58.8459C315.019 58.0811 316.668 57.5303 317.105 55.8819C317.434 55.336 317.764 54.3458 317.658 53.7966C317.876 52.2613 317.546 50.6113 316.342 49.5169ZM175.985 47.3218C174.009 46.7718 172.14 46.8808 170.17 46.6668C168.519 46.225 166.765 46.4423 165.009 47.5423C164.349 48.0906 164.24 49.2964 164.131 50.1727C164.679 55.9909 166.985 62.6862 172.579 64.8854C176.203 65.324 180.373 65.1003 182.788 62.0304C179.933 60.7148 179.717 58.0811 177.959 56.1008C175.213 56.6508 172.14 57.0901 169.179 57.2008C168.413 56.8712 167.534 56.4303 167.863 55.445C169.073 53.4703 171.594 54.1261 173.459 53.9056C175.329 53.2458 176.644 53.7966 178.398 52.9163C178.618 52.2613 178.178 51.7121 178.839 51.1621C178.507 49.5169 177.083 48.6374 175.985 47.3218ZM334.225 46.3324C330.939 44.2471 326.545 45.8955 323.255 46.225L320.073 49.7374C320.951 50.5023 320.839 51.7121 320.839 52.2613L321.062 51.9309L321.391 52.2613C324.57 52.2613 326.875 52.9163 330.057 53.0309C330.831 53.2458 331.483 54.2351 331.269 55.0056C330.609 56.5418 328.305 55.8819 327.427 56.1008C325.337 55.5508 322.818 55.445 320.839 55.1114C320.402 57.2008 318.646 59.0664 317.331 60.4911C316.454 60.1608 316.56 61.0411 316.454 61.4804C318.973 63.4551 321.61 64.1141 324.681 64.1141C327.864 63.8936 331.269 61.3706 332.584 57.8566C334.225 54.3458 335.873 49.9563 334.225 46.3324ZM225.805 45.7865C224.82 44.2471 223.61 42.9282 221.854 42.4929C219.77 42.2724 218.125 42.4929 216.365 44.2471C214.721 46.1119 214.611 48.6374 215.38 50.6113C216.476 52.8072 218.676 53.7966 220.759 53.7966C222.4 53.7966 224.049 53.14 224.925 51.7121C226.244 50.1727 226.464 47.5423 225.805 45.7865ZM282.869 44.2471C281.991 42.8265 279.579 41.7273 277.826 41.9421C275.625 42.4929 273.54 44.1373 272.884 46.5513C272.67 48.8579 273.54 50.8358 275.185 52.4777C276.723 53.2458 277.93 53.4703 279.579 53.2458C281.109 52.8072 282.757 51.8219 283.528 50.3964C284.407 48.2021 284.295 46.0029 282.869 44.2471ZM203.641 37.9896C203.2 37.9896 202.651 38.4281 202.322 37.8821L202.21 38.3231C198.371 40.1879 192.222 41.6126 192.008 46.9922L194.312 49.2965C196.942 48.3071 200.127 47.2127 202.87 46.225C203.2 46.4422 203.86 45.5627 204.185 46.4422C204.845 46.9922 205.062 47.6521 204.733 48.4169C201.663 50.2858 198.591 50.6113 195.627 52.2613C195.958 54.6721 194.861 57.0901 194.312 59.5058L197.493 60.0517C197.932 59.5058 198.696 60.1608 199.247 59.6108L199.577 59.8353C200.566 59.3959 201.663 58.6254 202.761 58.5124C206.601 56.4303 207.365 51.8219 207.365 48.2021C207.04 44.9061 206.601 40.7323 203.641 37.9896ZM303.612 41.174C302.074 39.9682 299.877 38.9789 297.903 37.8821C297.466 37.8821 296.591 37.2223 296.369 37.6633C293.624 37.0042 293.624 40.4068 292.527 42.0576C292.638 43.9176 291.1 45.6734 291.868 47.6521C290.994 48.2021 292.42 48.6374 291.649 49.1874C292.09 51.1621 292.197 53.5753 293.624 55.2245C295.709 58.4106 299.548 59.0664 302.952 59.1754C303.612 58.6254 304.598 59.3959 304.927 58.2959C303.716 56.2114 303.282 53.9056 303.612 51.7121C303.831 50.9416 302.624 50.9416 302.293 50.9416C299.548 49.5169 296.369 49.4055 294.283 47.6521C293.731 46.8808 294.506 46.3324 294.614 45.7865C294.836 45.2324 295.487 45.6734 295.825 45.3479C296.259 46.0029 297.029 45.1266 297.137 46.225C297.796 45.8955 298.566 46.1119 298.674 46.5513C300.319 46.9923 301.967 47.5423 303.831 48.3071C305.479 49.2965 305.694 46.8808 307.017 46.4422C306.902 44.5766 306.024 41.9421 303.612 41.174ZM189.698 23.3939C186.191 20.8693 181.687 22.6251 177.959 23.3939C174.884 24.1652 172.25 25.2596 170.17 28.0047C168.634 34.7 172.909 39.5289 177.413 44.4676C179.058 45.457 180.373 49.7374 182.677 46.6668C183.774 45.457 182.238 43.0429 182.129 41.2871C182.129 39.6387 181.249 38.3231 181.14 37.1133C180.593 34.8091 180.484 33.273 179.824 31.1852C179.933 30.313 180.919 30.313 181.358 29.9834C182.347 29.8744 182.568 31.0818 183.009 31.5188C184.104 36.2329 185.422 40.9576 186.411 45.5628C187.176 45.457 187.943 45.6734 189.039 45.6734C189.592 44.6873 189.918 42.9282 190.248 41.6126C190.357 40.9576 191.016 40.0805 190.578 39.7478C191.897 34.2583 193.432 27.7843 189.698 23.3939ZM317.764 21.9693C316.775 21.4201 315.134 21.4201 314.037 20.9799C311.399 21.3062 308.11 22.0791 307.449 24.9301C306.902 25.371 307.891 26.0309 307.017 26.2449L307.232 26.5785C307.017 27.5678 307.232 28.6646 306.575 29.7589C306.902 31.7376 307.017 33.6025 307.232 35.4681C307.232 36.3484 307.669 37.0042 307.891 37.7731C308.657 40.1879 309.206 42.4929 310.089 44.6873C311.077 44.5766 312.941 45.3479 313.049 43.5913C313.049 42.3839 313.596 41.2871 313.486 40.4068L313.708 40.0805C314.59 36.7878 315.134 33.0549 316.227 29.5441C316.454 29.2121 317.216 28.7736 317.658 28.8794C318.317 29.2121 318.865 29.7589 318.973 30.5294C317.986 34.9221 317.216 38.9789 316.122 43.152C314.805 45.2324 316.997 46.1119 318.423 46.8808C320.621 44.5766 323.148 41.9421 325.226 39.1994C327.097 36.1239 329.62 32.1786 329.179 28.5531C327.534 23.3939 322.381 22.7389 317.764 21.9693ZM253.567 3.85887C252.804 3.97194 252.252 3.20146 251.7 2.8776C249.729 2.43582 246.987 2.32355 245.013 4.08097C244.683 4.85145 244.572 6.16306 244.023 6.93112H244.354C244.354 8.79756 245.887 11.2108 243.694 12.7509C241.608 12.9666 239.629 12.6411 237.439 13.5174C234.038 14.2862 231.179 16.8109 230.418 20.3209C229.978 21.0898 230.634 22.4046 229.978 23.1759C229.978 25.8055 230.853 29.2122 231.512 31.4081C231.95 32.2836 232.168 33.8237 232.829 34.5918C234.804 39.8584 238.098 45.2324 242.376 49.5169C243.364 54.0163 243.801 59.8353 239.192 63.1248C233.704 64.774 227.345 61.1501 223.5 56.5418C223.059 56.5418 222.295 56.4303 221.854 56.7598C219.335 55.6614 219.66 59.1754 218.676 60.2746C217.684 61.7009 217.684 62.6862 216.365 64.0011L216.585 64.1141C214.831 66.6388 212.089 68.5044 209.565 68.943C209.015 69.4857 208.025 69.7143 207.591 69.4857C203.2 70.2627 199.247 69.0544 196.286 66.4191C195.407 66.0888 194.092 65.1002 193.653 64.3346C192.222 63.5641 191.237 60.2747 189.259 62.6863C188.168 62.9043 186.847 62.4657 186.411 63.5641C184.872 69.0544 181.687 76.2981 175.434 77.613C169.289 79.2613 162.269 74.5391 158.316 70.2626L155.461 71.0291C155.241 71.7939 155.35 72.4578 155.132 72.9997C155.021 77.0678 154.364 81.0172 151.51 84.4133C148.767 86.3936 145.257 86.6116 141.967 85.7378C140.866 85.5173 139.988 84.4133 139.003 84.4133C137.467 82.6623 135.163 81.568 133.953 79.8081C133.627 80.4639 132.197 80.9025 132.088 81.8934C136.807 87.2715 141.087 91.4413 147.452 93.3102C148.546 93.6356 149.536 93.4119 150.745 93.3102L150.962 93.6357C156.89 92.1011 158.096 85.4074 160.07 80.5762C162.379 78.6015 163.911 82.3328 166.109 82.8828C166.435 83.3221 167.315 82.8828 167.425 83.5386C172.25 85.7378 176.203 85.0779 180.814 83.7607C185.092 82.1123 189.153 76.5178 189.698 71.248C189.918 70.2627 191.128 69.8233 191.897 70.0398C193.432 71.6889 195.081 73.8841 197.052 75.3088C201.992 79.0392 207.696 78.163 213.079 76.9531C217.354 75.5285 219.879 71.0291 220.649 66.8561C219.99 66.0888 220.98 65.215 221.309 64.6601C222.295 63.7846 223.5 64.9904 223.94 65.7593C224.705 69.1602 228.33 72.6743 231.512 73.9931C233.048 74.3227 234.258 74.9744 235.793 74.5391C236.014 75.0883 236.343 74.3226 236.783 74.6489C243.583 74.4284 246.327 67.9585 248.191 62.7952L247.969 62.6863L248.847 61.7009C249.837 60.8206 250.607 62.1394 251.267 62.7952C251.592 63.5641 251.37 63.8937 251.592 64.6601C253.901 69.4857 257.187 74.8694 263.118 74.5391C267.286 74.5391 271.462 72.3447 273.981 68.6135C274.969 67.0798 275.082 64.4436 277.167 64.0011C278.701 64.1141 278.478 65.7593 278.808 66.7446C278.478 66.9651 278.924 67.2946 279.138 67.5191C279.361 70.4791 282.105 74.8694 285.832 76.2981C289.79 76.4055 293.953 79.0392 298.344 76.6276C301.746 74.8694 304.712 73.2243 306.902 69.4857C307.449 69.0545 308.439 69.0544 309.099 69.5996C309.865 71.903 310.74 75.1989 312.389 76.9531C313.049 79.2613 315.794 81.3434 317.764 82.0073C318.095 82.8828 319.083 82.3328 319.635 82.6623C320.291 82.5533 320.292 83.7607 320.839 82.8828C321.28 83.1017 321.714 83.6476 322.159 83.3221C322.925 83.8721 324.57 83.7607 325.56 83.9739C329.843 83.6476 334.01 81.8934 337.304 78.8228C338.177 78.4892 338.949 78.6015 339.497 79.3696C340.816 82.4386 341.467 85.2968 343.223 88.0419C343.777 88.6977 344.324 89.6871 344.873 89.9011C345.755 91.6618 348.607 91.3314 349.919 92.3208C357.71 91.4413 362.653 85.4074 367.587 80.1376C366.932 79.5876 366.168 78.4892 365.286 78.163C362.653 81.782 358.369 84.641 354.089 84.8575C352.771 84.3075 351.237 85.0779 350.025 84.087C349.374 84.3075 349.152 83.1017 348.715 83.4312C344.655 79.8081 344.655 74.762 343.995 69.7143C343.009 69.8233 342.012 68.943 341.146 69.0544C337.849 72.0184 334.122 74.9744 329.949 76.2981C329.398 76.2981 328.635 76.5178 328.193 76.8441C322.596 77.1736 318.317 74.4285 315.571 69.4857C314.368 67.1888 313.596 64.8854 312.718 62.7952C313.049 61.3706 311.181 62.4658 310.851 61.5895L310.526 61.81C308.332 60.2746 307.449 62.2493 305.81 63.3453C303.394 66.5298 299.436 68.1749 295.709 69.0544C295.38 69.0544 294.836 68.6135 294.614 69.0544C294.39 69.2733 294.176 69.2733 293.953 68.943C292.304 69.0544 290.994 68.8339 289.349 68.6135C283.969 67.0798 281.006 61.0411 279.249 56.4303C277.93 56.4303 277.051 56.5418 275.956 55.8819C274.199 57.0901 272.884 59.5058 270.802 60.7148C267.397 63.1248 263.118 64.1142 259.17 62.4658C255.215 58.7369 256.313 54.2351 256.754 49.076C256.976 48.5316 257.413 48.2021 258.065 48.2021C262.351 42.8265 264.981 37.8821 266.956 31.4081C268.275 28.3383 268.824 24.1653 268.605 20.6504C267.616 15.6011 263.23 13.6264 258.839 12.8616C257.301 12.3116 254.556 13.4099 253.683 11.6517C253.793 9.01722 254.556 6.05725 253.567 3.85887Z" fill="white"/>
<path d="M251.617 275.638C253.489 273.277 249.293 273.89 249.204 271.643L249.061 275.024C249.816 275.024 250.722 276.1 251.617 275.638ZM226.527 277.33C224.577 274.719 223.823 271.179 222.769 268.423L222.472 268.882C221.423 270.262 221.116 271.798 222.921 272.877C223.524 273.489 223.374 274.408 222.624 274.874C220.966 274.561 221.423 277.176 221.272 278.246C221.721 280.395 223.823 278.559 225.328 279.173C226.08 278.862 226.98 278.402 226.527 277.33ZM275.052 271.179C275.354 269.494 273.556 267.956 273.25 266.421C273.25 270.262 273.103 273.489 273.405 277.176L276.555 277.639C277.008 275.487 275.504 273.18 275.052 271.179ZM249.665 268.111C249.963 267.039 251.466 265.81 249.816 264.73C250.118 265.965 249.367 266.885 249.665 268.111ZM214.961 265.501C214.508 264.73 213.909 264.119 212.855 263.967C208.352 269.342 216.609 270.571 214.81 275.946C215.414 275.946 217.066 277.785 217.516 276.248C218.115 276.1 218.567 276.248 219.017 276.717C219.465 275.946 218.866 274.874 219.465 274.103C220.518 273.026 217.813 271.952 217.516 271.333C217.066 272.724 216.311 271.179 215.712 271.798C213.456 271.333 216.16 270.105 215.562 268.882L214.508 269.185C213.909 268.728 213.758 268.111 213.456 267.345C214.06 267.194 214.961 266.421 214.961 265.501ZM241.101 269.494L238.248 266.58C236.592 266.267 237.646 262.433 235.393 263.503C235.393 264.274 234.789 265.038 235.393 265.655C234.641 267.499 233.892 269.494 233.892 271.333C236.592 272.877 235.393 277.022 236.441 279.324C237.646 279.478 238.697 278.402 239.746 278.402C242.002 276.867 243.055 275.487 242.452 272.568C242.002 271.496 242.002 269.951 241.101 269.494ZM265.142 264.73C263.337 264.119 261.082 263.04 260.331 260.896C260.78 262.278 259.884 263.199 259.884 264.274C260.331 265.355 259.734 267.345 259.734 268.423L260.032 268.882C258.977 271.179 259.129 273.794 259.129 276.248C260.934 275.025 263.038 278.402 264.537 275.946L261.686 273.949C259.579 270.262 264.987 268.423 265.142 264.73ZM240.501 265.81C240.202 264.119 239.6 261.973 239.6 260.589C238.399 262.278 239.298 264.274 240.501 265.81ZM209.551 262.433C208.499 262.278 207.446 261.356 206.549 260.28C206.998 261.201 207.148 263.199 208.201 264.274L209.551 262.433ZM208.79 259.022C208.827 259.066 208.881 259.134 208.953 259.203C209.551 260.126 210.755 259.972 211.652 259.972C212.293 259.884 213.093 259.508 213.596 259.022H216.93C216.383 259.803 214.799 260.384 214.508 261.664C216.609 263.503 218.719 265.038 220.371 267.194C221.57 266.421 220.966 265.038 221.116 263.967C220.821 262.632 219.179 260.616 219.062 259.004L222.819 259.022C222.858 259.022 222.887 259.042 222.921 259.049V259.022H225.774C225.886 260.997 226.641 263.048 227.279 264.883C226.08 266.113 225.177 263.503 223.974 263.809C224.577 264.73 224.276 265.965 224.878 266.731C226.527 269.951 226.527 276.248 230.584 276.248C231.037 277.022 232.989 276.717 231.941 278.246C231.484 278.862 229.983 279.324 229.832 278.559C228.032 278.402 229.684 280.858 228.032 281.171L229.233 282.397L227.881 284.548C230.133 284.699 232.989 283.007 234.341 280.858C234.043 278.559 233.438 276.562 233.438 274.103C232.688 273.489 231.789 272.877 231.484 271.798C231.484 271.179 231.336 269.951 232.088 269.494C231.484 267.194 229.233 265.655 229.085 263.353C230.285 262.89 231.635 264.582 232.839 264.73C231.851 262.643 231.956 260.828 232.359 259.004L234.954 259.022C234.845 259.714 234.789 260.438 234.789 261.201C236.185 261.031 236.951 260.049 237.725 259.038L242.145 259.022C242.092 259.431 242.016 259.825 241.851 260.126C241.256 266.268 247.111 271.952 243.509 278.402C241.401 280.553 237.948 280.395 236.441 282.706C237.498 282.706 237.948 281.47 238.697 281.013C239.449 280.703 239.897 282.088 240.202 282.86C239.6 282.86 239.449 283.471 239.298 283.927C242.304 282.706 245.008 281.934 247.716 280.09L246.511 278.707C247.561 277.639 246.957 275.946 247.111 275.024C245.608 271.643 247.716 267.194 247.259 263.658C247.915 262.197 248.018 260.619 247.87 259L252.895 259.022L252.671 259.663C250.413 265.355 256.127 270.262 254.171 275.946C253.876 277.022 253.567 278.559 254.93 279.324L253.271 281.013C252.671 283.319 255.526 281.787 256.127 282.397C257.479 282.86 257.479 285.469 259.129 284.081C257.781 283.165 259.431 282.243 259.579 281.47C254.325 278.707 257.324 272.414 257.626 268.111C258.238 264.876 257.534 261.996 257.726 259.038L262.312 259.022C262.533 259.825 262.835 260.597 263.487 261.201C264.39 261.509 265.142 262.74 266.045 262.433C266.94 260.589 265.142 261.509 264.537 260.589C264.081 260.068 263.764 259.555 263.55 259.03L268.877 259.022C270.078 260.98 272.848 261.375 274.153 263.503C276.555 265.038 275.807 268.111 277.763 270.105L278.065 269.342C278.514 269.649 279.862 269.342 280.312 269.951C279.409 272.724 277.911 276.1 279.862 278.707C280.762 277.94 279.862 276.867 280.463 276.248C281.514 276.248 283.017 275.792 283.163 277.485C285.419 279.019 283.621 275.487 284.97 274.56C285.72 274.253 285.57 275.946 286.472 275.024C288.277 272.877 285.271 271.798 284.372 270.105C282.287 266.476 280.401 262.334 277.498 259.015L280.261 259.022L283.768 263.353C284.97 266.267 285.72 269.185 288.727 270.726C289.928 269.342 290.826 266.885 290.683 264.73L287.82 263.04C287.371 263.658 286.926 263.967 286.174 263.809C285.57 263.967 285.271 263.04 285.124 262.584L282.007 259.022H285.4C285.54 259.151 285.654 259.259 285.72 259.358C286.472 259.203 287.371 260.126 288.277 260.28L288.514 259.022H292.964L293 264.575C292.15 273.883 289.258 277.342 284.262 282.812L282.218 282.908C282.464 282.158 282.965 281.233 282.416 280.553C281.212 280.858 279.712 281.628 278.36 282.088C277.454 281.787 277.763 280.858 277.609 280.244C275.504 279.941 272.951 279.478 271.146 278.246C270.697 273.026 271 268.265 270.697 263.503C270.097 263.353 269.496 262.123 268.593 262.584C267.396 266.113 266.045 269.494 263.487 272.26C264.839 274.253 267.543 273.64 268.744 275.792C267.094 277.022 267.543 277.639 268.148 279.173C265.288 279.941 262.282 278.559 259.431 278.246C261.082 280.09 263.934 281.787 265.441 283.927C263.934 285.311 261.538 286.697 259.129 286.082C256.274 287.775 255.674 282.551 252.671 284.081C249.211 283.626 251.767 279.478 251.318 277.785C250.869 277.785 250.413 277.94 250.118 277.639C249.211 278.862 250.722 281.013 248.913 282.243L239.746 286.082L234.641 284.081C232.688 286.082 230.133 286.238 227.881 287C226.08 287 225.026 284.391 222.921 285.623C221.872 284.081 223.974 282.86 224.577 281.47L220.22 281.318C218.866 281.934 217.964 280.09 216.761 281.47C216.965 281.961 217.179 282.44 217.413 282.908H212.965C212.646 282.339 212.351 281.757 212.109 281.171C207.581 273.115 203.972 266.391 200 259.038L208.79 259.022Z" fill="white"/>
<path d="M209.891 244.356C209.891 244.356 210.279 243.975 210.855 243.538C211.409 243.122 212.215 242.607 213.068 242.384L213.455 243.833C212.629 244.047 211.568 244.82 210.963 245.42L209.891 244.356ZM274.795 222.007C274.795 222.007 275.326 221.889 276.049 221.841C276.749 221.784 277.701 221.788 278.538 222.059L278.069 223.493C277.257 223.228 275.949 223.296 275.107 223.473L274.795 222.007ZM217.431 193.222C218.937 193.829 221.053 193.829 222.716 194.427C221.961 194.881 222.11 195.783 222.417 196.236L222.57 196.534L223.627 195.33C223.32 195.33 223.475 195.029 223.475 194.881C223.927 194.427 225.134 194.881 225.742 195.179C224.08 196.236 223.32 198.487 221.658 199.687C220.299 198.039 221.505 193.528 218.785 194.279L218.184 197.582H219.843C219.543 198.039 219.843 198.784 219.089 198.784L215.613 197.921C216.222 197.971 216.272 196.621 216.975 195.783C216.218 195.029 217.582 193.978 216.371 193.377C215.915 193.528 215.613 194.279 216.067 194.736C215.312 196.085 213.346 194.881 213.346 196.684L213.954 197.432C213.346 198.185 212.136 197.582 211.531 197.133L211.076 196.835C212.59 196.534 211.835 194.881 212.59 194.128L211.988 192.325C213.046 191.127 214.106 193.08 215.46 192.628C215.613 193.683 216.823 193.08 217.431 193.222ZM228.915 196.236C227.405 197.432 229.067 198.936 227.855 200.285C226.649 200.437 225.59 200.89 224.682 199.838C224.08 198.331 226.8 198.331 225.59 196.983C225.286 194.585 228.307 195.482 228.915 196.236ZM232.088 160.917H206.83C206.693 161.453 207.475 162.053 207.602 162.442C214.86 162.889 221.961 162.14 229.215 162.442C230.459 162.302 231.955 162.291 232.088 160.917ZM268.932 160.917C269.081 161.288 269.321 161.661 269.576 161.989L289.829 161.838C291.016 161.182 293.684 162.694 294.061 160.917H268.932ZM289.777 185.593V170.88C288.688 171.337 287.599 170.82 286.5 170.548C285.141 170.099 283.632 171.6 282.271 170.7C280.756 169.345 279.851 171.903 278.342 171C276.572 168.949 274.518 171.903 272.868 171.068V189.886C273.721 190.591 274.44 189.777 275.166 189.777C280.63 188.598 284.936 188 289.777 185.593ZM211.231 171.468V186.888C213.375 188.676 216.758 188.205 218.485 189.926L218.937 189.63C222.494 190.067 224.595 191.659 228.09 191.578V171.088C227.632 170.87 226.989 171.702 226.345 171.45C224.08 169.048 221.505 172.954 219.695 170.851C218.637 170.398 218.033 171.755 216.975 171.6C215.054 169.987 213.281 171.668 211.231 171.468ZM206.545 256.46C206.392 256.004 205.94 256.159 205.49 256.159C205.186 256.91 205.94 257.212 206.545 257.061V256.46ZM202.616 256.004C201.858 255.409 202.616 254.207 201.706 253.905C201.858 254.659 202.013 255.711 202.616 256.004ZM200.649 250.149H200.195V251.505C200.802 251.204 200.503 250.606 200.649 250.149ZM204.277 251.8C203.675 250.304 204.426 247.897 202.013 247.453C203.372 249.25 203.068 250.454 204.277 251.8ZM198.232 248.354H198.533L198.983 247.302L198.232 248.354ZM251.134 246.996L250.681 246.094C250.229 249.552 248.413 252.855 250.077 256.159L249.777 256.46C250.229 257.061 250.377 258.414 250.833 258.414C252.49 255.111 251.285 250.756 251.134 246.996ZM198.831 244.745C198.533 243.844 197.477 243.694 196.57 243.542C195.81 244.447 197.477 244.296 197.325 245.194C197.929 245.194 198.684 246.249 199.139 245.194L198.831 244.745ZM222.11 241.294C221.961 239.182 220.604 240.541 219.391 240.985C220.451 241.74 220.903 240.985 222.11 241.294ZM289.222 240.088C290.133 239.638 291.037 238.44 291.489 237.384C290.436 237.987 289.674 239.035 289.222 240.088ZM283.632 235.581C281.968 235.129 280.607 236.185 279.25 235.886L279.702 236.339C280.459 236.487 281.516 237.685 282.271 236.487L282.571 236.785C282.876 236.487 283.476 236.033 283.632 235.581ZM197.629 237.685L197.477 235.431C197.023 236.339 196.871 237.238 197.629 237.685ZM265.492 236.785C266.248 236.573 265.462 236.048 265.115 235.658C265.122 235.537 265.107 235.404 265.04 235.285C264.907 235.371 264.973 235.507 265.115 235.658C265.095 236.12 264.777 236.547 265.492 236.785ZM201.557 235.285C200.802 235.735 199.743 235.735 200.044 236.785C200.351 237.384 200.954 237.384 201.254 237.534C201.557 236.785 200.954 236.033 201.557 235.285ZM302.828 235.431C302.071 234.828 299.8 233.931 300.555 232.579C299.651 233.482 298.29 234.533 297.087 233.632C295.114 234.533 294.366 237.086 294.061 238.587L294.966 237.987C297.234 237.987 297.234 234.979 299.651 235.581C300.259 236.487 299.5 237.086 300.408 237.987L301.467 236.634L302.828 235.431ZM199.743 231.981C198.381 231.377 198.533 234.08 198.081 234.684C199.139 234.227 199.743 232.878 199.743 231.981ZM284.387 233.176C285.6 232.878 286.656 231.226 286.197 230.178L284.084 231.679C284.084 232.132 283.328 233.331 284.387 233.176ZM213.346 225.973C211.683 224.918 209.565 226.423 207.45 225.973C205.49 227.474 202.616 227.474 200.649 229.272C200.802 230.178 202.311 230.626 201.858 231.83C202.764 231.075 203.675 230.48 204.579 229.427C206.545 229.873 207.751 227.322 209.414 228.07C210.474 228.971 209.414 229.873 208.811 230.48L208.51 230.333L207.907 231.075L210.173 231.226C212.59 230.333 211.531 227.474 213.346 225.973ZM290.133 223.864C289.674 223.864 288.77 223.864 289.069 224.472C289.525 224.472 290.281 224.318 290.133 223.864ZM286.5 222.965V222.213H286.197L286.048 223.266C286.352 223.568 286.048 224.019 286.197 224.166V223.191C286.301 223.1 286.4 222.965 286.5 222.965ZM248.261 221.162C245.848 221.618 244.484 219.816 242.062 219.665C241.762 220.114 240.855 220.713 241.458 221.316C243.88 220.265 245.388 221.765 247.356 222.817C249.473 223.421 251.285 221.917 253.398 220.562C251.433 220.863 249.777 221.765 248.261 221.162ZM228.763 231.83V219.514C225.742 221.917 224.834 225.52 223.776 228.527C225.894 229.272 225.59 233.331 228.763 231.83ZM260.659 221.316C259.599 220.414 258.991 216.811 257.026 218.608L257.935 220.265L251.134 224.918C247.505 226.573 245.997 223.568 242.67 223.266C242.062 224.166 241.458 222.817 240.703 222.817V225.375C242.518 227.322 240.099 229.579 240.703 231.679C243.12 231.075 245.848 231.075 248.109 232.132C248.865 231.377 248.261 229.121 249.777 228.971C250.681 231.679 251.433 234.828 252.646 237.086C253.55 234.979 254.614 233.029 254.614 231.075C255.366 230.48 254.154 229.729 255.366 229.272C256.427 228.527 257.331 229.729 257.783 230.333L260.207 228.221C261.412 227.775 261.563 226.422 261.715 225.671L260.659 221.316ZM291.337 218.16C290.436 219.212 289.829 217.409 289.222 217.259C290.436 217.858 289.222 218.914 290.436 219.363C290.888 218.759 291.794 219.064 291.641 218.16H291.337ZM261.111 215.606C261.26 215.456 261.111 214.555 260.507 214.857C260.507 215.456 260.207 216.509 260.807 216.66L261.111 215.606ZM291.037 215.606C291.641 215.008 291.946 213.804 291.337 213.206C290.888 214.555 288.617 214.857 289.069 216.354L291.037 215.606ZM268.061 212.152C267.609 211.847 267.457 211.248 267.457 210.651L266.248 212.304C267.308 211.847 269.42 212.605 270.782 213.055V212.757C270.028 211.998 269.117 211.847 268.061 212.152ZM257.179 209.449C255.211 209.449 256.427 211.554 255.514 212.454C256.278 213.206 257.331 214.404 258.087 214.857L257.783 211.101C257.935 210.195 256.427 210.35 257.179 209.449ZM236.324 204.942H235.717C233.902 208.248 232.695 211.705 231.181 215.008L231.029 229.873L231.48 230.178C230.577 230.48 231.632 231.075 231.181 231.679H231.787C233.298 231.532 236.172 230.626 237.986 231.377C237.379 230.776 238.889 230.028 238.285 229.121C240.251 227.625 237.379 225.973 238.285 224.619C237.683 222.364 239.345 220.562 239.795 218.608C239.193 214.254 236.622 209.6 236.324 204.942ZM280.459 204.192C279.399 203.74 277.583 203.592 276.827 204.192C273.357 204.041 270.325 205.693 268.365 208.402C268.821 208.849 268.213 209.151 268.061 209.6C269.725 208.402 272.146 212.304 272.594 209.151C273.958 208.698 274.258 210.501 275.318 210.501C275.47 211.847 276.522 213.206 275.166 214.254C273.357 213.206 273.201 215.758 271.385 214.857C269.873 216.811 268.213 213.206 266.856 215.16C266.404 215.606 266.708 216.203 267.157 216.509L267.457 216.059L268.669 217.259C267.609 217.711 268.365 218.914 267.005 218.608C265.641 218.311 264.132 217.409 264.132 215.758C261.563 218.311 263.38 222.062 264.132 224.166L266.404 222.213C267.913 221.467 269.725 222.062 270.782 222.364C270.478 225.822 274.258 226.872 275.47 229.579C275.923 230.928 276.219 232.429 277.13 233.784C278.342 233.784 280.154 233.931 281.364 233.029C282.571 230.776 279.099 231.226 278.794 229.579C279.399 226.872 281.667 229.427 282.876 229.579C285.448 228.971 283.328 227.022 283.632 225.52C284.387 224.019 283.024 222.666 283.476 221.162C284.536 220.265 286.048 219.665 287.412 219.212C284.84 215.758 288.318 213.055 289.829 210.501C289.984 209.6 288.318 209.752 289.069 208.849C286.952 207.647 285.748 205.693 282.876 205.089C282.876 205.693 281.516 205.991 282.571 206.602C283.476 207.948 284.688 209.752 283.632 211.248C282.876 212.454 281.968 213.653 280.607 214.106C279.099 213.653 277.583 215.305 276.523 213.955C277.43 213.206 277.887 212.152 278.191 211.101C278.039 209.295 275.767 210.05 274.562 209.6C274.105 207.948 275.166 206.602 275.923 205.089C276.522 204.942 277.43 205.391 278.039 205.991C276.593 208.59 280.83 208.006 281.055 210.594C280.999 208.849 280.489 207.73 278.794 206.75L280.459 204.192ZM270.478 202.843C269.273 202.541 268.213 202.994 267.308 202.541L265.34 203.292L266.248 207.499L268.821 204.645C269.42 204.34 270.478 203.438 270.478 202.843ZM211.231 212.907V215.397V216.735V222.062V223.025C211.6 224.739 214.404 222.757 215.46 224.472C216.67 224.619 217.881 225.069 218.937 223.864C220.604 219.212 221.357 215.606 222.868 210.953C224.232 208.402 227.704 207.349 227.101 203.891C221.505 203.438 216.67 202.541 211.231 201.188C211.35 202.812 211.304 204.337 211.231 205.852V212.907ZM289.777 199.371C286.174 200.12 282.223 201.206 278.947 201.49L281.968 201.937C284.536 203.141 286.197 204.041 288.77 205.542L289.777 206.55V199.371ZM223.475 192.628C218.937 192.027 214.106 190.527 210.173 189.023C209.717 192.027 210.326 195.632 209.717 198.784C210.173 198.487 211.231 198.784 211.988 198.936C216.823 200.135 222.868 201.49 227.855 201.639L228.007 200.285C228.763 197.737 232.544 197.432 231.48 194.279L227.556 193.829C226.345 193.683 224.378 193.377 223.475 192.628ZM235.565 167.693C235.113 166.796 235.264 165.443 233.902 164.994C224.682 164.239 215.312 164.843 204.882 165.145L204.277 166.196C203.974 167.546 202.764 169.492 204.579 170.548C205.94 170.851 207.149 170.851 208.058 170.099C208.359 169.492 208.962 168.448 208.211 167.844C207.907 167.844 207.299 167.693 207.299 167.995L207.602 168.75C207 169.048 207 170.247 206.089 169.949C205.49 169.643 205.338 169.048 204.882 168.595C205.186 167.246 205.031 165.896 206.697 165.443C207.907 166.495 209.414 164.994 210.021 166.796C213.65 167.246 218.937 166.495 222.868 166.796C225.438 166.347 228.763 167.844 230.729 165.443C231.632 165.443 233.15 165.443 233.902 166.196C234.657 167.693 234.206 169.048 232.848 169.949C232.088 169.345 231.181 168.297 231.632 167.693C230.277 167.546 231.632 168.75 230.729 169.048C231.181 170.398 232.392 171.151 233.75 170.548C235.412 170.548 234.96 168.595 235.565 167.693ZM288.165 192.179C289.066 193.219 289.962 195.157 291.463 195.92C291.345 195.979 291.208 196.032 291.037 196.085C291.185 196.236 291.337 196.085 291.463 195.92C292.468 195.361 291.527 194.189 291.794 193.377C291.037 191.273 292.702 188.872 291.489 187.522C283.78 191.273 273.357 192.778 264.436 192.477C264.28 193.222 264.588 194.128 265.04 194.881C265.788 194.585 266.708 194.736 267.308 194.128C268.821 194.279 267.761 195.632 268.669 196.085L268.968 195.783C269.273 195.33 268.821 194.881 268.365 194.427C268.821 194.279 269.117 193.528 269.873 193.829C271.238 194.279 272.594 193.222 273.81 193.528C273.053 194.736 273.653 196.085 274.105 197.133L275.622 196.684L275.923 197.889C275.622 198.936 274.562 198.784 273.653 198.936C269.576 199.687 273.201 196.684 271.385 194.881C269.576 196.085 271.238 199.536 268.365 199.687L265.944 195.632H265.34C265.492 197.582 264.132 198.784 264.436 200.742C270.478 200.89 277.287 199.083 282.876 198.487C283.328 197.889 283.476 198.784 283.78 198.637C285.141 197.432 287.412 198.185 288.917 197.133V196.835L290.436 196.684C290.436 196.534 290.888 196.236 290.436 196.085C289.369 196.384 287.56 196.684 288.012 195.179C287.713 195.33 287.412 195.029 287.257 195.33C287.56 195.783 287.861 196.236 287.257 196.835C284.84 196.835 282.721 197.432 280.756 197.582C281.059 196.236 280.907 194.279 280.154 193.08C279.399 193.377 280.459 193.829 279.851 194.128C279.399 194.736 279.099 194.128 278.643 193.978C278.491 195.179 278.491 196.534 279.547 197.737C278.643 198.039 277.287 198.637 276.375 197.889C277.13 196.835 276.522 195.33 276.219 194.279C275.923 194.427 275.622 194.881 275.318 194.881C275.018 194.736 274.258 194.279 274.562 193.829C276.219 192.027 280.007 192.778 282.571 191.729C283.024 191.578 283.328 192.628 283.632 191.729L284.084 192.179C284.536 193.08 284.536 193.829 284.235 194.881C287.257 196.684 284.992 192.179 286.952 190.674C287.712 190.674 288.012 191.578 288.165 192.179ZM217.279 169.048C216.975 169.048 216.519 168.75 216.371 169.048H217.279ZM212.59 168.898H211.683C211.383 169.492 212.59 169.199 212.59 168.898ZM226.497 168.898C226.345 168.448 226.041 168.898 225.742 168.898L226.192 169.199L226.497 168.898ZM221.81 168.898C221.658 168.595 221.053 168.595 221.053 169.048C221.357 169.048 221.81 169.199 221.81 168.898ZM262.467 194.736H262.015C262.32 197.582 260.355 199.536 258.991 201.639C260.051 203.292 259.903 205.089 259.903 206.602C258.087 209 260.659 211.248 262.015 213.055C267.457 211.248 262.467 206.448 262.772 202.994C260.507 200.135 264.132 197.889 262.467 194.736ZM240.703 191.273C240.099 189.926 242.062 186.465 239.045 187.823C239.045 190.074 238.285 192.027 238.285 194.279C237.534 202.843 239.497 209.449 241.91 216.956C242.974 217.711 244.636 217.107 245.24 218.311C246.449 217.858 248.109 219.665 249.621 218.759C247.505 217.711 246.145 215.758 244.636 214.106C243.728 214.254 242.822 214.71 242.062 213.955C242.369 212.757 242.518 212.152 242.822 211.101C243.88 210.195 245.085 209.6 246.145 210.953C247.505 213.511 249.473 217.56 253.247 217.56C254.31 217.711 255.514 216.811 255.67 216.059C252.341 213.055 248.561 209.151 246.145 205.693C242.67 202.242 241.61 196.384 240.703 191.273ZM250.981 184.369C248.865 184.666 246.752 185.569 244.784 184.219C244.484 185.421 242.518 185.719 242.822 186.918C244.181 187.22 246.145 188.12 247.809 187.972C247.809 187.069 246.752 186.021 247.961 185.27C248.561 185.421 249.02 185.27 249.777 185.719C249.473 186.62 250.981 187.522 249.925 188.418C249.317 189.174 248.109 189.174 248.109 188.418L247.356 189.926C245.996 189.777 244.332 189.777 242.974 189.324C242.822 191.876 244.181 194.279 244.332 196.983C246.449 197.432 245.388 199.536 245.692 200.437L246.145 200.135C247.053 201.041 247.961 199.536 249.02 199.536C249.169 197.737 249.925 196.236 248.865 194.736C249.169 194.128 249.777 193.08 250.681 193.377C251.59 195.179 251.889 196.534 251.59 198.637C252.341 201.639 248.716 202.092 246.904 202.394C247.809 203.891 249.169 205.991 250.681 207.047C250.833 205.991 251.889 204.34 250.981 202.994C251.285 202.394 252.038 201.937 252.801 201.937C255.514 204.645 251.433 207.948 253.55 210.35L253.702 209.449C254.762 208.248 255.67 206.602 257.179 208.402C257.479 206.602 257.479 204.645 257.179 203.141C256.875 200.591 253.398 202.394 252.95 200.135C253.55 198.185 256.427 199.687 257.479 199.687C255.819 199.234 257.783 198.185 257.935 197.432C261.412 198.487 257.783 192.93 261.715 193.528L261.563 191.729C260.96 190.375 259.599 188.12 257.479 187.972L257.026 189.63C255.67 190.074 253.55 190.375 252.038 189.926C251.59 187.069 255.066 188.728 256.427 187.522C254.614 186.465 251.134 187.522 250.981 184.369ZM251.59 173.252C250.229 171.6 248.261 171.755 245.996 171.755C245.085 172.05 245.24 172.805 245.692 173.252C248.865 172.201 247.204 175.504 247.961 177.008C249.473 176.861 251.59 181.215 252.801 177.612L251.733 175.055L249.317 175.504C247.961 175.206 248.717 174.003 249.02 173.252C249.777 173.705 250.681 173.104 251.134 173.104C251.59 173.403 250.681 174.154 251.59 174.303V173.252ZM253.854 169.492C253.398 167.844 250.681 167.397 249.169 167.094C247.356 167.397 244.484 167.995 244.332 169.798C245.24 169.949 245.848 169.643 246.904 169.199C248.865 170.099 252.341 168.75 253.55 171.755C254.154 172.954 253.702 174.908 254.614 175.353C255.514 173.104 254.006 171.302 253.854 169.492ZM236.324 193.08C235.868 191.729 237.075 190.074 236.172 188.728C233.298 191.127 234.054 193.829 233.902 196.983C229.822 199.234 230.125 204.34 228.763 207.499C223.172 211.399 223.627 218.914 221.206 224.472C220.299 225.671 218.485 226.72 216.975 226.573L218.184 227.173C218.485 227.775 218.937 228.527 218.485 229.272C219.843 228.527 221.357 227.775 222.11 226.423C222.57 220.414 228.915 217.409 230.125 211.554C229.067 212.605 228.155 211.399 227.855 210.501C228.459 209 230.425 209.449 231.632 208.551C234.808 202.994 236.622 198.331 236.324 193.08ZM297.087 166.196L295.567 164.39C286.805 164.239 276.522 164.541 268.365 164.239C266.248 164.541 265.34 166.645 265.492 168.595C265.944 169.048 266.708 170.247 267.457 170.398C269.117 170.851 269.725 169.643 270.478 168.595C270.478 167.844 269.725 167.246 268.968 167.397L269.725 168.146C269.117 168.75 268.516 169.492 267.913 169.798C267.157 169.048 266.248 167.844 266.553 166.796C267.457 166.042 267.913 165.145 268.968 164.994C270.177 165.443 271.538 165.145 272.446 166.347L290.733 166.196C291.337 165.289 292.398 164.843 293.306 164.688C294.21 165.289 295.723 164.994 296.179 166.347C296.029 167.246 296.635 169.048 295.114 169.492C294.21 169.345 292.846 168.448 293.455 167.246C293.306 167.246 293.003 167.246 292.846 167.397C291.946 168.297 292.846 169.492 293.758 169.949C294.814 169.798 296.029 170.398 296.931 169.492C296.782 168.448 297.842 167.397 297.087 166.196ZM274.258 168.898V168.595H273.653L274.258 168.898ZM283.78 168.595C283.476 168.146 282.876 168.448 282.721 168.75C283.179 168.595 283.78 168.898 283.78 168.595ZM278.191 168.595H278.794L278.191 168.297V168.595ZM263.743 258.983C263.313 257.971 263.275 256.903 263.38 255.711C265.189 253.754 261.111 252.855 262.623 251.049C264.132 249.552 265.34 252.107 266.404 253.006C266.1 254.809 265.189 256.159 266.1 257.806C267.157 256.46 264.888 254.056 267.457 253.603C270.177 253.308 268.365 256.612 268.669 257.961C268.768 258.342 268.917 258.674 269.103 258.964L263.743 258.983ZM232.364 258.983C232.823 256.96 233.674 254.949 233.75 252.559C232.392 250.606 234.206 248.648 232.695 246.694C232.695 245.943 233.75 245.496 234.506 245.798C235.264 247.148 235.868 249.7 236.172 251.204C236.324 250.149 236.47 248.954 237.379 248.199C237.683 248.354 237.834 248.803 238.133 248.803C238.437 248.354 238.889 248.803 239.193 249.101C239.497 250.001 238.589 250.304 238.737 251.049C236.893 253.628 235.442 255.997 234.977 258.983H232.364ZM222.868 258.983V258.712C223.927 256.159 221.658 253.754 223.02 251.8C224.232 250.907 225.286 252.559 225.438 253.603C226.041 254.358 224.983 255.561 226.345 255.561C226.649 254.358 225.438 253.452 226.649 252.408C225.59 251.505 227.101 250.756 227.252 249.401C227.855 248.803 229.067 249.401 229.367 250.001C229.367 250.149 229.215 250.304 229.067 250.149L229.367 250.606C228.155 253.452 229.517 255.409 229.669 258.113C228.459 259.316 226.952 257.668 225.742 257.961C225.718 258.295 225.718 258.626 225.738 258.957L222.868 258.983ZM218.985 258.983C218.924 258.191 219.244 257.51 220.299 257.061C221.309 257.349 222.045 258.594 222.766 258.964L218.985 258.983ZM199.805 258.983C198.285 256.266 196.718 253.445 195.028 250.429L194 241.135C194 239.638 194.304 238.889 194.304 237.534C196.419 234.08 196.871 228.527 200.195 226.872C200.503 226.271 202.16 225.973 203.372 225.671C204.241 224.069 206.636 224.386 208.301 223.81V203.321C208.029 202.966 207.656 202.646 207.149 202.394C206.697 199.838 208.51 196.684 207.907 193.377C207.299 191.876 208.962 189.926 207.602 188.728C208.178 187.443 207.118 186.291 208.301 185.41V172.682C206.794 173.388 204.711 172.796 203.068 172.201C201.254 170.7 201.254 167.693 201.706 166.042C202.464 164.843 203.372 163.637 204.73 163.191C205.614 162.309 204.34 161.423 203.995 160.687H204.502V160H233.287V160.687H234.521C233.305 162.619 235.611 163.086 236.927 164.541C237.379 166.347 238.133 168.146 237.534 170.099C236.046 172.751 233.406 172.805 231.017 172.661V190.501L231.029 192.179L231.632 192.027C231.787 191.127 232.239 189.63 232.695 189.476C234.206 186.021 238.437 185.719 241.159 184.967C243.88 183.773 242.822 180.161 242.822 178.509C240.703 175.956 241.61 173.554 241.007 170.851C241.159 167.995 244.181 166.796 246.292 165.289L246.597 165.594C248.561 164.094 250.681 165.594 252.49 165.443C255.67 166.947 256.278 169.643 257.179 172.201C259.295 177.159 251.134 180.311 253.702 184.967C255.066 184.817 257.479 185.719 258.687 186.314C261.111 186.465 262.015 189.023 263.528 190.375C264.888 190.674 266.708 189.777 267.308 190.674C268.168 190.429 269.124 190.584 269.943 190.248V172.529C267.842 173.083 265.321 172.328 263.828 170.398C262.623 167.844 263.828 165.594 265.04 163.486C265.492 162.588 267.157 163.191 266.856 161.687C266.73 161.238 266.56 160.917 266.366 160.687H267.275V160H296.056V160.687H296.449C296.137 161.098 295.967 161.634 296.029 162.291C297.234 162.14 297.991 163.791 298.895 164.39C299.199 166.495 299.956 167.995 298.895 170.099C297.539 172.502 294.966 172.352 292.702 172.352V181.665C293.003 181.816 293.15 181.51 293.455 181.51C294.366 181.963 295.418 182.868 295.418 184.219C294.061 186.021 294.662 187.522 294.061 189.476C293.306 192.325 295.566 196.236 292.702 198.331V210.195C293.306 211.847 294.061 213.653 294.061 215.16C295.878 219.665 290.281 224.619 293.758 228.674C294.51 229.873 293.758 231.679 295.114 232.277L296.33 231.226L296.782 231.679C297.234 231.83 297.234 231.226 297.687 231.226C299.199 231.532 300.86 229.729 302.223 229.121C303.283 229.272 303.128 231.226 302.828 232.277C303.58 233.331 304.792 233.931 306 234.533C305.397 236.185 303.128 238.44 305.849 239.487C305.982 239.725 306.546 244.42 303.736 243.395C301.467 243.245 299.199 242.795 297.687 244.745C296.931 247.595 294.662 250.756 293.306 253.754L293.335 258.983H288.859L289.525 255.561L288.917 255.111C287.412 247.897 287.56 257.806 284.387 257.212C284.387 258.034 285.218 258.58 285.722 259L282.312 258.983L281.667 258.263C281.211 258.414 280.154 257.961 280.459 258.863L280.56 258.983H277.776C277.112 258.245 276.397 257.551 275.622 256.91L275.923 256.309C273.958 253.006 276.219 249.552 276.827 246.547C280.607 244.896 276.827 249.7 280.607 249.25C280.007 250.756 279.099 252.107 277.735 253.006C277.887 254.056 276.983 255.561 278.342 256.46C280.907 256.159 282.42 256.004 284.387 254.659C285.296 253.452 285.6 251.653 285.448 250.304C286.048 249.552 285.448 247.453 287.257 247.595C288.77 247.897 288.012 249.101 288.318 250.001C290.733 248.954 290.436 252.257 290.888 253.452L292.398 250.606C291.337 249.101 291.489 247.302 291.946 245.647C292.846 245.798 294.814 245.496 294.366 246.547C295.114 245.345 295.567 243.542 296.931 242.197C298.595 240.985 301.619 240.838 303.128 240.985C303.432 239.638 301.312 239.337 300.555 238.44V239.035C298.746 240.24 296.479 238.889 294.966 240.838C294.366 240.39 293.758 239.638 293.455 238.889C292.702 241.74 289.069 242.643 287.713 245.194L286.048 243.542C286.952 243.093 287.257 242.197 287.257 241.294C286.5 240.24 287.257 238.138 286.197 236.785C286.5 236.185 286.805 234.382 288.165 234.979C288.617 235.285 288.77 235.735 288.917 236.185L289.829 235.431C289.829 234.227 289.069 232.878 289.829 231.83C290.585 230.48 291.794 231.83 292.246 232.579L291.641 229.873C290.281 228.971 291.489 225.52 288.77 227.173L289.069 230.333C288.318 232.731 287.108 235.431 284.688 236.339C286.197 237.238 284.387 237.987 283.78 238.587C281.364 240.088 278.794 238.587 276.827 237.238C273.053 235.285 274.866 230.928 271.841 228.971C271.086 229.873 269.576 229.729 268.821 228.674C269.117 228.527 269.117 228.221 269.117 227.775C268.365 227.625 267.761 227.923 267.157 226.872C267.157 225.973 267.761 225.069 268.365 224.619C266.404 223.568 265.944 228.07 264.28 225.52C264.436 227.173 263.828 230.178 264.736 231.981C265.641 231.075 266.248 229.873 267.005 228.971C271.538 229.121 266.553 232.429 267.457 234.08L268.669 231.83C269.117 231.83 270.177 231.377 270.63 232.277C269.576 235.431 273.653 238.889 269.873 241.294C269.273 242.347 270.325 243.245 269.117 243.844C268.669 243.995 267.913 244.296 267.761 243.694C264.888 241.294 270.63 239.79 268.365 236.634C268.061 238.739 265.944 238.29 265.189 239.938C264.436 240.985 264.28 242.197 264.436 243.092C262.32 247.148 261.111 251.049 261.111 255.258C262.027 256.349 262.164 257.716 262.501 258.953L257.886 258.983C257.971 257.633 258.265 256.254 258.991 254.809C257.935 251.505 259.748 248.954 260.207 246.249C262.772 242.045 263.225 234.382 261.715 230.028L259.139 232.579C254.462 232.731 256.574 238.889 252.49 240.24C252.95 244.597 253.702 248.354 254.462 253.006L255.67 252.855C257.026 254.056 256.278 255.258 257.179 256.46C256.574 256.762 256.122 257.363 255.514 257.363C254.31 257.061 254.462 256.46 254.31 255.409L253.023 258.983H247.972C247.642 255.201 245.963 251.196 247.204 247.897L247.809 246.694C247.553 247.09 247.36 247.483 247.204 247.897C246.292 248.648 244.181 252.559 243.272 249.25C244.332 247.148 245.996 245.647 246.449 243.092C247.204 243.245 248.413 243.245 248.413 243.995C248.865 241.74 250.377 238.889 249.621 236.487C247.961 237.086 246.904 234.979 245.996 233.931C244.484 233.482 242.062 233.176 240.855 234.382C240.703 238.44 240.4 241.135 241.007 244.745C241.458 247.897 242.369 251.049 242.369 254.207C242.822 254.507 243.88 253.308 244.332 254.507C244.636 254.96 245.24 255.711 244.332 256.159C242.207 255.691 242.385 257.514 242.21 258.979L237.758 258.983C238.407 258.169 239.067 257.321 240.099 256.91C238.889 253.452 240.551 249.401 238.737 246.249C238.133 244.597 238.285 243.694 238.437 242.197C237.683 239.79 238.437 237.238 238.437 234.382C235.412 232.132 232.088 233.931 229.367 234.08C230.881 234.828 230.425 236.339 230.881 237.384C230.729 238.29 229.669 239.79 231.029 240.39C232.392 241.891 230.277 242.643 229.367 242.795C228.763 242.197 229.215 241.135 228.307 240.838C227.704 239.638 227.855 238.44 228.459 237.238C227.704 234.684 224.834 234.533 223.927 232.579C224.08 231.377 222.57 230.626 221.658 230.028C220.451 231.377 218.485 231.83 217.582 232.731C215.764 233.176 215.46 235.285 214.404 236.487C212.438 238.29 210.021 236.033 208.51 238.138C208.058 238.289 207.149 238.587 206.697 237.987C206.089 237.238 207.149 237.086 206.697 236.185C208.663 234.382 210.326 234.684 212.738 234.684C212.738 233.784 213.954 232.277 214.256 231.377L211.076 233.632L208.058 233.482C207.149 233.784 207.602 234.684 207 235.285C206.241 236.185 205.338 234.979 204.73 234.684C205.031 233.176 205.94 232.132 207.149 231.075C206.241 231.226 205.789 232.579 205.186 232.132C204.426 233.784 203.22 234.979 203.974 236.634C203.524 237.987 205.94 238.889 206.241 240.088C203.974 240.541 201.858 240.24 199.743 239.487L201.102 240.692C198.533 242.347 202.311 243.245 201.254 245.194C202.16 244.745 202.916 245.496 203.524 245.345C206.545 246.694 206.697 250.907 206.697 253.905C207.907 255.258 209.265 253.308 210.173 252.559C210.625 253.006 211.383 253.603 211.683 254.207C211.531 254.207 211.383 254.659 211.076 254.507V255.409C211.835 255.561 212.59 255.711 213.498 256.004C215.008 254.659 214.404 252.855 213.954 251.204C214.256 249.85 213.954 246.845 216.519 246.4C218.637 245.345 217.126 243.092 217.881 241.135C217.126 240.692 216.975 240.088 217.126 239.337C217.582 238.889 218.033 238.44 218.785 238.587C220.299 238.138 219.543 236.785 219.244 235.735C217.431 236.339 217.126 238.44 216.371 239.487C215.915 238.889 214.708 239.638 214.556 238.44C215.008 236.785 215.613 234.828 217.279 233.931C218.485 234.08 219.996 233.029 220.903 233.931L221.961 234.979C220.755 239.182 225.134 239.487 226.952 242.493L226.345 242.942C224.378 244.296 224.378 246.996 222.417 248.497C220.604 246.996 222.266 245.345 220.755 243.694C219.391 243.694 220.299 245.043 219.996 245.496C219.089 246.845 220.755 247.302 221.658 248.048C221.658 248.497 221.505 248.954 221.206 249.25C220.451 250.454 219.089 249.25 218.184 248.954L218.937 251.955C219.244 252.257 220.151 252.107 219.996 252.855C219.244 254.056 218.184 255.111 217.126 253.603C216.519 254.809 216.67 256.309 216.371 257.363C217.13 258.065 217.149 258.555 216.838 258.983H213.483C213.813 258.674 214.01 258.324 213.954 257.961C212.59 258.712 211.231 257.363 209.717 257.514C209.308 258.191 208.275 258.377 208.648 258.964L199.805 258.983Z" fill="white"/>
<path fill-rule="evenodd" clip-rule="evenodd" d="M412.379 118.862H87L249.672 500L412.379 118.862ZM250.764 372.536L163.007 160.882H338.503L250.764 372.536ZM249.418 492.592L249.394 490.849L93.9346 123.357H248.065V123.356H403.875L250.075 491.022L250.075 492.457L249.773 491.744L249.418 492.592ZM343.6 156.965L249.824 377.84L157.994 156.967H253.548V156.965H343.6Z" fill="white"/>
<path d="M197.302 130.116C196.905 129.905 196.265 129.665 195.383 129.399C194.491 129.134 193.267 128.985 191.694 128.965C190.219 128.95 188.749 129.354 187.298 130.179C185.838 131.007 184.624 132.314 183.65 134.109C182.676 135.903 182.174 138.244 182.136 141.134C182.186 144.938 183.11 147.941 184.898 150.14C186.696 152.343 189.076 153.462 192.033 153.505C193.387 153.497 194.506 153.392 195.395 153.194C196.282 153.01 196.938 152.83 197.365 152.665L197.181 147.694C196.941 147.851 196.458 148.095 195.731 148.417C195.013 148.735 194.039 148.922 192.821 148.959C191.204 148.922 189.881 148.209 188.85 146.814C187.816 145.421 187.283 143.552 187.25 141.205C187.266 138.777 187.76 136.869 188.734 135.491C189.704 134.109 191.035 133.405 192.732 133.375C193.867 133.405 194.777 133.577 195.469 133.877C196.155 134.187 196.687 134.471 197.058 134.738L197.302 130.116Z" fill="white"/>
<path d="M210.364 143.788H205.583L208.112 133.923H208.171L210.364 143.788ZM212.65 153.102H217.766L210.941 129.368H205.46L198.394 153.102H203.208L204.669 147.794H211.338L212.65 153.102Z" fill="white"/>
<path d="M224.975 133.514H226.256C228.179 133.538 229.588 134.245 230.483 135.642C231.375 137.032 231.816 138.965 231.803 141.438C231.816 143.645 231.394 145.436 230.547 146.822C229.696 148.204 228.367 148.91 226.565 148.957H224.975V133.514ZM219.981 153.102H226.895C228.714 153.112 230.386 152.711 231.909 151.903C233.44 151.089 234.668 149.82 235.604 148.104C236.534 146.388 237.018 144.162 237.04 141.438C237.013 138.475 236.545 136.103 235.639 134.336C234.736 132.566 233.563 131.289 232.128 130.511C230.693 129.734 229.161 129.353 227.534 129.368H219.981V153.102Z" fill="white"/>
<path d="M245.312 129.37H240.317V153.104H245.312V129.37Z" fill="white"/>
<path d="M248.211 153.102H262.186V148.823H253.817L262.068 133.718V129.368H248.422V133.647H256.462L248.211 148.548V153.102Z" fill="white"/>
<path d="M287.623 130.116C287.228 129.905 286.584 129.665 285.695 129.399C284.813 129.134 283.585 128.985 282.017 128.965C280.534 128.95 279.073 129.354 277.612 130.179C276.163 131.007 274.943 132.314 273.97 134.109C272.996 135.903 272.496 138.244 272.451 141.134C272.505 144.938 273.432 147.941 275.219 150.14C277.014 152.343 279.398 153.462 282.351 153.505C283.705 153.497 284.823 153.392 285.717 153.194C286.603 153.01 287.254 152.83 287.681 152.665L287.504 147.694C287.254 147.851 286.772 148.095 286.055 148.417C285.334 148.735 284.36 148.922 283.141 148.959C281.527 148.922 280.196 148.209 279.169 146.814C278.137 145.421 277.604 143.552 277.573 141.205C277.589 138.777 278.08 136.869 279.054 135.491C280.028 134.109 281.355 133.405 283.053 133.375C284.184 133.405 285.096 133.577 285.787 133.877C286.476 134.187 287.006 134.471 287.374 134.738L287.623 130.116Z" fill="white"/>
<path d="M294.684 148.008H290.296V153.104H294.684V148.008Z" fill="white"/>
<path d="M298.463 153.102H303.271V143.173H309.973V139.03H303.271V133.514H310.25V129.368H298.463V153.102Z" fill="white"/>
<path d="M314.911 148.008H310.525V153.104H314.911V148.008Z" fill="white"/>
</svg>
