<svg width="500" height="500" viewBox="0 0 500 500" fill="none" xmlns="http://www.w3.org/2000/svg">
<path d="M251.091 103.084H239.749C239.749 82.9997 239.079 57.8947 235.076 56.2238C230.41 54.2137 225.405 56.8938 228.739 63.9167C232.743 71.6177 230.41 76.9696 222.741 77.6396C216.404 78.3097 208.066 76.9696 203.723 62.2457C198.718 44.8418 210.398 40.4908 229.74 22.4169C246.417 7.02293 251.091 0 251.091 0C251.091 0 255.757 7.02293 272.765 22.7559C292.115 40.4908 303.787 44.8418 298.782 62.5848C294.448 77.3087 286.109 78.3096 279.772 77.9787C272.103 77.3087 270.101 71.9487 273.766 64.2557C277.439 57.2328 272.434 54.5528 267.429 56.5547C263.426 58.2338 262.764 83.3306 262.764 103.415H251.091V103.076V103.084ZM251.091 500L214.063 286.487C220.791 284.695 226.775 280.811 231.151 275.396C235.527 269.981 238.069 263.315 238.409 256.361H263.757C264.427 270.754 274.436 283.137 288.111 286.479L251.091 500ZM122.676 165.66C120.013 163.319 118.342 160.308 116.34 158.298C113.676 155.618 110.673 153.616 107 153.616C110.673 153.616 113.668 151.598 116.009 148.934C118.011 146.916 119.674 143.574 122.345 141.564C124.008 140.224 126.341 139.223 128.682 139.223C132.686 139.223 136.02 141.564 137.683 145.245C139.685 145.245 145.691 145.245 149.356 144.914C153.698 144.575 156.701 144.575 151.696 140.894L149.356 139.223C145.985 137.249 143.395 134.177 142.018 130.521C141.695 130.182 141.695 129.52 141.356 128.85C141.017 128.18 141.017 127.51 140.686 126.51C140.355 125.5 140.355 124.169 140.355 122.82C140.355 112.787 148.024 104.755 158.033 104.085H161.698C162.037 104.085 162.699 104.416 163.03 104.416C165.032 104.755 166.703 105.756 168.705 106.757L169.375 107.096C178.706 113.118 183.049 124.5 183.049 124.5C183.049 124.5 180.708 123.16 171.038 121.489C163.7 120.479 159.365 123.829 160.366 130.521C162.037 140.894 176.043 143.574 176.043 143.574H200.389V163.319H176.043C176.043 163.319 162.037 165.999 160.366 176.372C159.365 183.395 163.7 186.745 171.038 185.074C180.708 183.064 183.049 182.063 183.049 182.063C183.049 182.063 178.706 193.768 169.375 199.467L168.705 199.798C166.986 200.944 165.057 201.74 163.03 202.139C162.707 202.139 162.037 202.478 161.698 202.478C160.499 202.813 159.232 202.813 158.033 202.478C148.024 202.139 140.355 193.776 140.355 184.073C140.355 182.733 140.355 181.732 140.686 180.384C140.753 179.567 140.98 178.772 141.356 178.043C141.687 177.373 141.687 177.042 142.018 176.372C143.689 172.691 146.022 169.672 149.364 167.67L151.696 165.999C156.701 162.318 153.359 162.318 149.356 161.979C146.022 161.648 139.685 161.648 137.683 161.648C136.351 165.329 132.678 167.67 128.682 167.67C126.341 168.001 124.347 167 122.676 165.66ZM378.497 165.66C381.16 163.319 382.831 160.308 384.833 158.298C387.174 155.618 390.169 153.616 393.842 153.616C390.169 153.616 387.174 151.598 384.833 148.934C382.831 146.916 381.169 143.574 378.497 141.564C376.699 140.108 374.472 139.285 372.16 139.223C368.156 139.223 364.822 141.564 363.159 145.245C361.157 145.245 354.82 145.245 351.479 144.914C347.144 144.575 344.141 144.575 349.146 140.894L351.487 139.223C354.82 137.213 357.484 134.202 358.824 130.521C359.147 130.182 359.147 129.52 359.486 128.85C359.817 128.18 359.817 127.51 360.156 126.51C360.487 125.17 360.487 124.169 360.487 122.82C360.487 112.787 352.819 104.755 342.809 104.085H339.144C338.805 104.085 338.143 104.416 337.804 104.416C335.81 104.755 334.139 105.756 332.137 106.757L331.467 107.096C322.128 113.118 317.793 124.5 317.793 124.5C317.793 124.5 320.134 123.16 329.804 121.489C337.142 120.479 341.477 123.829 340.476 130.521C338.805 140.894 324.799 143.574 324.799 143.574H300.453V163.319H324.799C324.799 163.319 338.805 165.999 340.476 176.372C341.477 183.395 337.142 186.745 329.804 185.074C320.134 183.064 317.793 182.063 317.793 182.063C317.793 182.063 322.128 193.768 331.467 199.467L332.137 199.798C334.139 201.138 336.141 201.808 337.804 202.139C338.143 202.139 338.805 202.478 339.144 202.478C340.343 202.81 341.61 202.81 342.809 202.478C352.479 201.808 360.487 193.776 360.487 183.734C360.487 182.394 360.487 181.393 360.156 180.053C360.089 179.236 359.862 178.441 359.486 177.712C359.155 177.042 359.155 176.703 358.824 176.033C357.153 172.352 354.82 169.341 351.479 167.331L349.146 165.66C344.141 161.979 347.483 161.979 351.487 161.648C354.82 161.309 361.157 161.309 363.159 161.309C364.491 164.99 368.164 167.331 372.16 167.331C374.501 168.001 376.495 167.008 378.497 165.66Z" fill="#D50032"/>
<path d="M286.447 243.978C276.769 255.683 264.765 263.053 252.092 269.745L250.421 270.754L248.75 270.084C236.076 263.384 223.734 255.691 214.063 244.309C191.057 216.54 179.376 175.702 179.707 139.554H320.795C321.796 175.032 309.131 216.863 286.447 243.978Z" fill="white"/>
<path d="M317.462 130.852C320.465 167.662 307.791 213.19 284.107 241.968C274.767 253.011 263.095 260.373 250.752 267.073C238.409 260.373 226.406 253.011 217.066 241.968C193.051 212.851 181.378 168.34 183.711 130.852H317.462Z" fill="#6CACE4"/>
<path d="M287.441 120.479C268.099 112.778 265.427 111.115 250.752 111.115C233.073 111.115 231.411 112.786 214.063 120.479C212.059 119.199 210.263 117.62 208.735 115.797C208.735 114.457 209.058 112.786 210.059 111.115C212.723 105.755 219.738 101.065 225.074 100.734C231.411 95.7135 241.751 93.0335 249.089 94.3735C249.751 94.3735 250.421 94.7125 250.752 94.7125C251.422 94.7125 251.753 94.3735 252.423 94.3735C259.761 93.0335 270.101 95.7135 276.438 100.734C282.105 101.065 288.781 105.755 291.452 111.107C292.445 112.778 292.776 114.457 292.776 115.789C291.249 117.615 289.445 119.196 287.441 120.479Z" fill="#C09A4E"/>
<path d="M250.752 81.6596C269.431 73.2886 278.771 79.9806 280.442 89.6916C303.448 84.0006 301.454 118.469 287.44 123.829L285.438 127.841C273.766 125.5 265.427 124.499 250.752 124.499C240.08 124.499 224.404 125.169 215.072 126.501L214.063 123.829C199.718 118.808 197.725 84.0006 220.739 89.6835C222.741 79.9806 231.741 73.2967 250.752 81.6596ZM215.395 115.128C224.735 115.458 224.073 109.106 223.064 104.085C222.402 100.396 220.4 99.0636 220.4 93.3726C214.402 88.3516 207.726 97.7236 207.064 104.085C206.394 115.128 214.733 115.128 215.395 115.128ZM247.749 83.6697C216.735 69.9467 223.072 115.128 245.085 104.416C246.417 103.746 246.417 102.406 246.086 101.066C245.085 96.0526 245.755 89.0216 247.749 83.6697ZM253.424 83.6697C255.426 88.6906 256.087 95.7136 255.087 101.066C254.764 102.406 254.764 103.746 256.087 104.416C278.101 115.458 284.438 69.9467 253.424 83.6697ZM285.778 115.128C286.439 115.128 295.117 115.128 294.116 103.746C293.446 97.3845 286.77 88.3516 280.773 93.0336C280.773 98.7245 278.771 100.065 278.109 103.746C277.1 109.106 276.438 115.458 285.778 115.128Z" fill="#C09A4E"/>
<path d="M288.111 125.169L282.775 133.863L283.106 134.202V134.533C283.106 134.872 283.106 134.872 282.775 135.203C282.775 135.542 282.444 135.542 282.105 135.542H281.774C281.443 135.542 281.104 135.542 281.104 135.203C279.441 134.202 277.439 133.532 275.776 132.862C273.096 131.861 270.771 131.191 268.761 130.521C266.098 129.851 263.757 129.181 261.424 128.85C258.76 128.511 256.419 128.18 254.425 128.18H247.087C245.085 128.18 242.413 128.511 240.08 128.85C237.74 129.181 235.415 129.52 232.743 130.521C230.402 131.191 228.077 131.861 225.736 132.862C224.073 133.532 222.071 134.202 220.408 135.203C220.069 135.542 219.738 135.542 219.738 135.542C219.399 135.542 219.399 135.542 219.068 135.203C218.906 135.018 218.816 134.78 218.816 134.533C218.816 134.287 218.906 134.049 219.068 133.863L213.732 125.169C233.413 111.447 268.1 111.447 288.111 125.169ZM247.749 68.9376V68.6147H253.424L252.423 71.9567L255.087 70.9557V76.6467L252.423 75.6457L253.424 79.9887H247.749L248.75 75.6457L246.086 76.6467V70.9557L248.75 71.9567L247.749 68.9457V68.9376Z" fill="#C09A4E"/>
<path d="M261.101 107.427C260.679 106.97 260.438 106.376 260.423 105.756C260.423 105.086 260.762 104.416 261.093 104.085L261.763 103.415C262.094 103.415 262.094 103.076 262.425 103.076H263.765C264.096 103.076 264.096 103.076 264.427 103.415C264.766 103.746 265.097 103.746 265.097 104.085C265.515 104.542 265.753 105.136 265.767 105.756V106.426C265.767 107.096 265.428 107.427 265.097 108.097L264.427 108.767C264.096 108.767 264.096 109.106 263.765 109.106H263.426C263.765 112.448 268.43 115.459 272.103 113.457C272.765 113.118 273.766 112.448 274.436 111.778C274.105 111.447 274.105 111.108 273.766 110.777H273.104L272.765 110.438C272.434 110.438 272.103 110.777 272.103 110.777H271.764C271.433 110.777 271.433 111.108 271.102 111.108C270.763 111.108 270.763 111.447 270.432 111.447C270.432 111.447 270.101 111.447 270.101 111.778C270.101 111.778 269.762 112.117 269.431 112.117C269.431 112.117 269.1 112.117 269.1 112.448H268.761C268.099 112.448 267.768 111.778 268.099 111.108C268.43 110.777 268.43 110.438 268.761 110.107L269.1 109.768V109.437C269.1 109.106 269.1 109.106 268.761 108.767C268.438 107.766 268.761 107.096 269.1 106.757C269.1 106.426 269.431 106.426 269.431 106.087C269.762 105.756 269.762 105.756 269.762 105.417C270.101 105.086 270.432 105.086 270.432 104.755C270.763 104.755 270.763 104.416 270.763 104.416C270.763 103.415 271.102 103.076 271.102 102.745H272.103C272.426 102.745 272.765 103.415 272.765 104.085V104.416C272.765 105.086 272.765 105.417 273.104 106.087C273.104 106.426 273.427 106.426 273.427 106.757C273.766 107.096 273.766 107.427 274.105 107.766C274.26 107.458 274.498 107.201 274.792 107.022C275.086 106.844 275.424 106.752 275.768 106.757V107.096C275.225 106.622 274.773 106.053 274.436 105.417C274.105 104.755 274.105 104.755 273.766 103.746C273.766 103.746 273.435 103.076 273.104 102.745C273.104 102.406 273.104 102.075 273.427 101.736C273.766 101.736 274.105 101.405 274.767 102.075L275.437 102.745C275.768 103.076 276.099 102.745 276.438 102.745C276.769 102.745 277.1 102.406 277.439 102.406H278.101C278.101 102.406 278.771 102.406 279.102 103.076C279.441 103.415 279.441 103.746 279.441 104.085C279.441 104.416 279.772 104.755 280.103 104.755H281.104C281.774 105.086 282.436 105.086 282.436 105.417C282.436 105.756 282.113 106.087 281.774 106.426H280.773C280.103 106.426 279.772 106.757 279.102 107.096C278.494 107.467 277.809 107.696 277.1 107.766H276.777C277.082 107.924 277.337 108.164 277.512 108.459C277.688 108.755 277.777 109.093 277.77 109.437C278.44 109.437 278.771 109.106 279.441 108.767C280.103 108.436 280.442 107.766 281.104 107.427C281.435 107.427 281.774 107.096 282.105 107.096C282.775 107.096 283.106 107.766 282.775 108.436L282.105 109.106C281.774 109.429 282.105 110.107 282.105 110.438C282.234 110.85 282.241 111.291 282.123 111.707C282.006 112.123 281.769 112.495 281.443 112.779C280.773 113.788 279.772 113.788 280.103 114.458C280.442 115.798 279.772 116.468 279.441 116.468C279.102 116.468 278.101 116.468 278.101 114.789C278.101 114.119 278.101 113.118 277.77 112.448C277.439 111.778 277.1 111.778 277.1 110.777C276.777 111.108 276.438 111.108 275.768 111.108C275.768 115.467 279.441 117.469 282.775 116.799C283.776 116.799 284.438 116.468 285.439 115.798C285.108 115.459 285.108 115.128 285.108 114.789C285.108 113.788 286.109 112.787 287.11 112.787C288.111 112.787 289.112 113.788 289.112 114.789C289.112 115.798 288.111 116.807 287.11 116.807H286.44C286.109 120.48 289.104 123.491 292.777 121.15C292.454 120.819 292.454 120.48 292.454 120.149C291.776 120.48 290.113 120.819 289.774 120.819C289.112 120.819 289.112 120.48 289.112 120.149C289.112 119.81 289.443 119.479 289.774 119.479C290.113 119.14 289.774 118.47 290.113 117.8C290.444 117.138 290.444 117.138 291.114 117.138C291.776 116.799 291.776 117.138 291.776 116.799C292.115 116.799 292.115 116.129 292.115 116.129L292.446 115.798H293.116C293.447 116.129 293.447 116.468 293.447 116.799V118.809C293.778 118.809 293.778 118.47 294.117 118.47H294.448C294.448 118.139 294.778 117.138 294.778 116.468V115.459C295.118 115.128 295.448 115.459 295.779 115.459C296.118 115.798 296.78 116.799 297.119 116.799H298.112C298.782 117.13 299.783 118.139 299.783 118.47C299.783 119.14 299.783 118.809 299.452 119.14C299.113 119.479 297.781 119.14 296.789 119.14C296.449 119.14 296.118 119.479 295.779 119.479L294.778 120.48L294.117 121.15H293.778C292.675 122.207 291.28 122.907 289.774 123.16H289.112C288.442 123.16 287.78 122.821 286.771 122.49C284.438 121.481 285.108 118.13 285.108 117.469C284.438 118.139 283.776 118.139 282.767 118.47C281.106 118.86 279.365 118.745 277.77 118.139C275.106 117.138 274.436 113.457 274.436 112.117C274.436 112.448 273.435 113.449 272.095 113.788C270.763 114.458 268.761 115.128 267.09 114.458C264.427 113.788 263.426 111.778 262.094 110.099C261.763 110.438 261.763 110.777 261.424 111.108C260.092 112.117 258.09 113.118 256.096 113.118C253.093 112.787 251.091 110.107 250.752 109.106C250.09 109.768 248.088 112.787 245.424 113.118C243.414 113.457 241.412 112.117 240.08 111.108L239.41 110.438C238.078 112.117 237.417 114.119 234.406 114.797C232.743 115.459 230.741 114.797 229.401 114.119C228.077 113.457 227.076 112.787 227.076 112.448C227.076 113.449 226.406 117.13 223.734 118.47C222.135 119.071 220.394 119.189 218.729 118.809C217.926 118.534 217.146 118.196 216.396 117.8C216.396 118.47 216.735 121.82 214.733 122.821C213.732 123.491 213.062 123.83 212.392 123.83H211.73C210.059 123.83 208.727 122.821 207.727 121.811H207.396L206.726 121.15C206.064 120.819 205.725 120.48 205.725 120.48C205.394 120.149 205.063 120.149 204.724 120.149C203.723 119.81 202.391 120.149 202.06 120.149C201.721 119.81 201.721 120.149 201.721 119.479C201.721 118.809 202.722 117.8 203.392 117.8C204.062 117.469 203.723 117.8 204.393 117.8C205.063 117.8 205.394 116.799 205.725 116.468C206.064 116.129 206.395 116.129 206.726 116.468C207.065 116.799 206.726 116.468 206.726 117.469C206.726 118.139 206.726 119.14 207.065 119.479H207.387C207.727 119.479 208.066 119.479 208.066 119.81V117.8C208.066 117.469 208.066 117.138 208.388 116.799C208.727 116.468 209.058 116.799 209.058 116.799C209.058 116.799 209.397 116.799 209.397 117.13C209.397 117.469 209.728 117.8 209.728 117.8C210.059 118.139 210.059 117.8 210.398 118.139C211.06 118.47 211.06 118.47 211.399 118.809C211.73 119.479 211.399 120.149 211.73 120.48L212.4 121.15C212.4 121.481 212.4 121.82 211.73 121.82C211.399 121.82 209.728 121.15 209.067 121.15C209.067 121.481 209.067 121.82 208.727 122.151C212.4 124.491 215.395 121.82 215.064 117.8H214.402C213.883 117.764 213.395 117.541 213.027 117.173C212.659 116.805 212.436 116.317 212.4 115.798C212.4 114.789 213.401 113.78 214.402 113.78C215.395 113.78 216.396 114.789 216.396 115.798C216.396 116.129 216.396 116.799 216.073 116.799C216.735 117.13 217.736 117.469 218.737 117.8C222.071 118.47 225.736 116.468 225.736 112.117C225.074 112.117 224.735 111.778 224.404 111.447C224.404 112.448 224.073 112.448 223.734 113.118C223.411 113.788 223.411 114.789 223.411 115.459C223.411 117.13 222.402 117.13 222.071 117.13C221.732 117.13 221.07 116.468 221.401 115.128C221.401 114.458 220.739 114.458 220.069 113.457C219.738 113.118 219.399 112.448 219.399 111.116C219.399 110.777 219.738 110.438 219.399 109.768L218.737 109.106C218.398 108.436 218.737 107.766 219.399 107.766C219.738 107.766 220.4 107.766 220.4 108.097C221.07 108.436 221.401 108.767 222.071 109.437C222.733 109.768 223.072 110.107 223.403 110.107C223.403 109.437 223.734 108.767 224.404 108.436H224.073C223.072 108.767 222.402 108.097 221.732 107.766C221.07 107.427 221.07 107.096 220.4 107.096H219.399C219.068 106.757 218.737 106.426 219.068 106.087C219.068 105.756 219.738 105.417 220.4 105.417H221.401C222.071 105.417 222.071 104.755 222.071 104.755C222.071 104.416 222.071 104.085 222.402 103.746C222.706 103.481 223.043 103.256 223.403 103.076H224.073C224.404 103.076 224.735 103.076 225.074 103.415C225.405 103.415 225.736 103.746 226.075 103.415L226.737 102.745C227.407 102.406 227.738 102.406 228.077 102.406C228.4 102.406 228.4 103.076 228.4 103.415C228.4 103.746 227.738 104.085 227.738 104.416C227.407 105.086 227.407 105.417 227.076 106.087C226.734 106.723 226.28 107.292 225.736 107.766L225.405 108.097C226.075 108.097 226.737 108.436 227.076 109.106C227.331 108.503 227.668 107.938 228.077 107.427C228.4 106.757 228.4 106.087 228.4 105.417C228.4 103.746 229.409 103.746 229.74 104.085C230.071 104.416 230.41 104.416 230.41 105.756C230.41 106.426 231.411 106.087 232.073 107.096C232.412 107.427 233.074 108.097 232.743 109.768C232.743 110.107 232.412 110.777 232.743 111.108C233.074 111.447 233.074 111.778 233.413 112.117C233.744 112.779 233.074 113.449 232.412 113.449C232.073 113.449 231.742 113.118 231.411 112.787C230.41 112.117 230.41 112.117 229.74 111.778L228.408 111.108C228.077 111.108 228.077 111.108 227.738 110.777C227.738 111.108 227.407 111.447 227.076 111.778C227.61 112.613 228.446 113.211 229.409 113.449C233.413 115.467 237.748 112.448 238.078 109.106C236.747 108.767 235.737 107.766 235.737 106.426C235.737 105.086 236.747 103.746 238.409 103.746C239.749 103.746 241.081 105.086 241.081 106.426C241.075 106.94 240.912 107.44 240.613 107.858C240.314 108.277 239.895 108.594 239.41 108.767C239.749 109.106 239.749 109.437 240.08 109.768C241.081 111.447 243.083 112.448 246.086 111.786C249.089 111.447 250.09 108.767 250.421 107.766C249.42 107.427 248.75 107.096 248.419 106.087C248.335 106.59 248.102 107.057 247.749 107.427C247.426 107.766 246.748 108.767 246.748 109.106C246.425 109.768 246.086 110.107 246.086 110.438C245.755 110.777 245.416 110.777 245.416 110.777C245.085 110.777 244.754 110.107 244.754 109.768C244.754 109.106 244.754 108.097 244.415 108.097C244.084 107.427 243.083 107.096 243.083 105.756C243.083 104.085 244.084 104.085 244.084 103.415C244.084 103.076 243.753 101.736 243.753 101.397C243.753 100.735 244.076 100.404 244.415 100.404C245.085 100.404 245.755 100.735 245.755 101.066C246.078 101.736 246.417 101.736 246.748 102.075C247.418 102.745 247.749 102.745 248.088 103.415C248.419 103.746 248.419 103.746 248.419 104.085C248.561 103.609 248.818 103.177 249.167 102.824C249.516 102.472 249.947 102.212 250.421 102.067H250.09C249.089 101.744 248.419 101.405 248.088 100.735C247.418 100.065 247.418 99.7337 246.748 99.7337C246.086 99.3946 246.086 99.3946 245.755 99.0636C245.416 98.7246 245.416 98.3936 245.755 98.0546C246.078 97.7236 246.417 97.3846 247.418 97.7236C248.088 97.7236 248.088 97.7236 248.419 98.0546C249.089 98.3936 249.089 98.0546 249.42 98.0546C249.751 97.7236 250.09 97.0536 250.421 97.0536C251.091 96.7146 251.422 96.7146 251.422 96.7146C251.422 96.7146 251.753 96.7146 252.423 97.0536C253.085 97.3846 253.085 98.0546 253.424 98.0546C253.755 98.3936 253.755 98.3936 254.425 98.0546C255.087 97.7236 255.087 97.7236 255.426 97.7236C256.088 97.7236 256.758 97.7236 257.089 98.0546C257.428 98.3936 257.428 98.7246 257.089 99.0636C256.758 99.3946 256.758 99.3946 256.088 99.7337C255.426 100.065 255.426 100.396 254.756 100.735C254.086 101.405 253.755 101.736 252.754 102.075H252.423C252.896 102.219 253.326 102.479 253.676 102.829C254.025 103.18 254.282 103.611 254.425 104.085C254.425 103.746 254.756 103.415 254.756 103.415C254.756 103.415 254.756 103.076 255.087 103.076L255.757 102.406L256.088 102.075C256.088 102.075 256.427 102.075 256.427 101.736C256.758 101.405 257.089 101.066 257.089 100.735L257.759 100.065C258.09 100.065 258.09 99.7337 258.429 99.7337C258.752 99.7337 259.091 100.396 259.091 100.735C259.091 101.405 258.76 102.406 258.76 102.745L259.091 103.076C259.422 103.415 259.761 103.746 259.761 104.755V105.086C259.747 105.705 259.509 106.299 259.091 106.757C258.76 107.096 258.429 107.096 258.429 107.427C258.429 108.097 258.09 108.767 258.09 109.106C258.09 109.429 257.759 109.768 257.428 110.107H256.758C256.758 110.107 256.427 110.107 256.427 109.768C256.427 109.768 256.088 109.437 256.088 109.106C256.088 108.767 255.757 108.767 255.757 108.436C255.757 108.097 255.426 108.097 255.426 107.766C255.087 107.427 254.756 107.096 254.756 106.757C254.425 106.087 254.086 105.756 254.086 105.086C253.667 105.883 252.951 106.484 252.092 106.757C252.415 107.766 253.424 110.438 256.427 110.777C257.514 110.938 258.624 110.84 259.667 110.491C260.709 110.141 261.654 109.551 262.425 108.767C262.764 108.436 262.764 108.097 263.095 107.766H262.764C261.424 107.766 261.432 107.427 261.101 107.427Z" fill="white"/>
<path d="M220.069 100.735C220.069 99.0636 221.401 97.3846 223.403 97.3846C225.074 97.3846 226.737 99.0636 226.737 100.735C226.737 101.62 226.386 102.47 225.762 103.098C225.137 103.725 224.289 104.08 223.403 104.085C222.518 104.08 221.67 103.725 221.045 103.098C220.42 102.47 220.069 101.62 220.069 100.735ZM221.401 82.6606C221.401 80.9897 222.733 79.6497 224.735 79.6497C226.406 79.6497 227.738 80.9897 227.738 82.6606C227.738 84.3316 226.406 86.0107 224.735 86.0107C223.849 86.0064 223.002 85.6515 222.377 85.0238C221.752 84.396 221.401 83.5463 221.401 82.6606Z" fill="white"/>
<path d="M226.737 79.3186C226.737 77.9786 227.738 76.9777 229.078 76.9777C230.41 76.9777 231.411 77.9786 231.411 79.3186C231.411 80.6506 230.41 81.6596 229.07 81.6596C228.761 81.6663 228.454 81.6102 228.167 81.4948C227.881 81.3794 227.621 81.2071 227.403 80.9882C227.185 80.7694 227.013 80.5086 226.899 80.2216C226.784 79.9347 226.729 79.6275 226.737 79.3186Z" fill="white"/>
<path d="M231.41 77.9787C231.41 76.6387 232.411 75.6377 233.743 75.6377C235.075 75.6377 236.084 76.6387 236.084 77.9787C236.084 79.3187 235.075 80.3196 233.743 80.3196C233.434 80.3274 233.126 80.2722 232.838 80.1573C232.551 80.0424 232.289 79.8702 232.07 79.6513C231.852 79.4323 231.679 79.1711 231.564 78.8836C231.45 78.5961 231.402 78.2882 231.41 77.9787Z" fill="white"/>
<path d="M236.076 77.6396C236.076 76.6387 237.077 75.6377 238.078 75.6377C239.079 75.6377 240.08 76.6387 240.08 77.6396C240.08 78.6487 239.079 79.6577 238.078 79.6577C237.077 79.6577 236.076 78.9796 236.076 77.6396ZM240.08 77.9787C240.08 76.9696 241.081 75.9687 242.082 75.9687C243.083 75.9687 244.084 76.9696 244.084 77.9787C244.084 78.9796 243.083 79.9887 242.082 79.9887C240.75 79.9887 240.08 79.3267 240.08 77.9787Z" fill="white"/>
<path d="M243.746 78.9797C243.746 78.3097 244.416 77.6396 245.086 77.6396C245.748 77.6396 246.418 78.3097 246.418 78.9797C246.418 79.6497 245.756 80.6506 245.086 80.6506C244.416 80.6506 243.746 79.9887 243.746 78.9797ZM246.418 80.3197C246.418 79.6497 247.088 78.9797 247.75 78.9797C248.42 78.9797 249.09 79.6497 249.09 80.3197C249.09 80.9897 248.42 81.6597 247.75 81.6597C247.088 81.6597 246.418 80.9897 246.418 80.3197Z" fill="white"/>
<path d="M248.75 81.6597C248.75 80.6506 249.751 79.6497 250.752 79.6497C251.753 79.6497 252.754 80.6506 252.754 81.6597C252.754 82.6606 252.092 83.6697 250.752 83.6697C249.751 83.3306 248.75 82.6687 248.75 81.6597Z" fill="white"/>
<path d="M248.419 85.6717C248.419 84.3317 249.42 83.3307 250.76 83.3307C252.092 83.3307 253.084 84.3317 253.084 85.6717C253.084 87.0117 252.092 88.0126 250.752 88.0126C250.443 88.0193 250.136 87.9632 249.849 87.8478C249.563 87.7324 249.302 87.5601 249.084 87.3413C248.866 87.1224 248.695 86.8617 248.58 86.5747C248.466 86.2877 248.411 85.9805 248.419 85.6717Z" fill="white"/>
<path d="M248.088 90.6926C248.088 89.0216 249.42 88.0126 250.752 88.0126C252.423 88.0126 253.416 89.3526 253.416 90.6926C253.422 91.045 253.358 91.3951 253.226 91.7221C253.095 92.0491 252.899 92.3464 252.651 92.5964C252.402 92.8464 252.106 93.0439 251.78 93.1772C251.454 93.3105 251.104 93.377 250.752 93.3726C249.089 93.3726 248.088 92.3716 248.088 90.6926Z" fill="white"/>
<path d="M247.087 97.0535C247.096 96.0827 247.484 95.1537 248.169 94.4656C248.854 93.7776 249.781 93.3852 250.752 93.3726C251.724 93.3831 252.654 93.7745 253.34 94.4628C254.027 95.1511 254.417 96.0813 254.425 97.0535C254.417 98.0258 254.027 98.956 253.34 99.6443C252.654 100.333 251.724 100.724 250.752 100.735C248.75 100.404 247.087 99.0636 247.087 97.0535ZM203.723 116.128C203.723 115.332 204.039 114.568 204.602 114.005C205.165 113.442 205.929 113.126 206.726 113.126C207.522 113.126 208.286 113.442 208.849 114.005C209.412 114.568 209.728 115.332 209.728 116.128C209.728 116.925 209.412 117.689 208.849 118.252C208.286 118.815 207.522 119.131 206.726 119.131C205.929 119.131 205.165 118.815 204.602 118.252C204.039 117.689 203.723 116.925 203.723 116.128Z" fill="white"/>
<path d="M200.72 110.777C200.72 109.106 202.391 107.427 204.062 107.427C205.725 107.427 207.396 108.767 207.396 110.777C207.396 112.448 205.725 114.119 204.062 114.119C202.06 114.119 200.728 112.787 200.728 110.777H200.72Z" fill="white"/>
<path d="M199.719 105.086C199.719 104.289 200.035 103.525 200.598 102.962C201.161 102.399 201.925 102.083 202.722 102.083C203.518 102.083 204.282 102.399 204.845 102.962C205.408 103.525 205.725 104.289 205.725 105.086C205.728 105.481 205.652 105.873 205.503 106.24C205.353 106.606 205.132 106.939 204.853 107.219C204.573 107.499 204.241 107.721 203.875 107.872C203.509 108.022 203.117 108.099 202.722 108.096C201.059 108.096 199.719 106.426 199.719 105.086ZM200.72 99.0636C200.72 97.3845 202.06 96.3835 203.392 96.3835C205.063 96.3835 206.056 97.7235 206.056 99.0636C206.061 99.4153 205.996 99.7645 205.864 100.091C205.732 100.417 205.536 100.713 205.288 100.962C205.04 101.211 204.744 101.408 204.418 101.541C204.092 101.674 203.743 101.74 203.392 101.735C202.06 102.075 200.728 100.735 200.728 99.0636H200.72Z" fill="white"/>
<path d="M203.393 94.7127C203.393 93.3727 204.394 92.0327 206.056 92.0327C207.396 92.0327 208.728 93.0418 208.728 94.7127C208.734 95.0644 208.669 95.4136 208.537 95.7397C208.405 96.0658 208.209 96.3622 207.961 96.6113C207.712 96.8604 207.417 97.0572 207.091 97.19C206.765 97.3228 206.416 97.389 206.065 97.3847C204.394 97.0537 203.393 96.0527 203.393 94.7127Z" fill="white"/>
<path d="M206.726 91.3626C206.726 90.0226 207.727 89.0216 209.067 89.0216C210.398 89.0216 211.399 90.0226 211.399 91.3626C211.399 92.7026 210.398 93.7036 209.058 93.7036C207.727 93.3726 206.726 92.3716 206.726 91.3626Z" fill="white"/>
<path d="M210.729 89.3607C210.729 88.3516 211.73 87.3426 212.731 87.3426C213.732 87.3426 214.733 88.3516 214.733 89.3607C214.733 90.3616 213.732 91.3626 212.731 91.3626C211.73 91.3626 210.729 90.3616 210.729 89.3526V89.3607ZM214.733 88.6907C214.733 87.6816 215.395 87.0116 216.396 87.0116C217.397 87.0116 218.067 87.6816 218.067 88.6907C218.067 89.6916 217.397 90.3616 216.396 90.3616C215.403 90.3616 214.733 89.6916 214.733 88.6907ZM274.767 100.735C274.767 99.0636 276.099 97.3846 278.101 97.3846C279.772 97.3846 281.435 99.0636 281.435 100.735C281.435 101.62 281.084 102.47 280.46 103.098C279.835 103.725 278.987 104.08 278.101 104.085C276.438 104.085 274.767 102.406 274.767 100.735ZM273.435 82.6606C273.435 80.9897 274.767 79.6497 276.769 79.6497C278.44 79.6497 279.772 80.9897 279.772 82.6606C279.772 84.3316 278.44 86.0107 276.769 86.0107C275.106 86.0107 273.435 84.3316 273.435 82.6606Z" fill="white"/>
<path d="M269.762 79.3186C269.762 77.9786 270.763 76.9777 272.103 76.9777C273.435 76.9777 274.436 77.9786 274.436 79.3186C274.436 80.6506 273.435 81.6596 272.095 81.6596C271.102 81.6596 269.762 80.6506 269.762 79.3186Z" fill="white"/>
<path d="M265.427 77.9787C265.427 76.6387 266.428 75.6377 267.768 75.6377C269.1 75.6377 270.101 76.6387 270.101 77.9787C270.101 79.3187 269.1 80.3196 267.76 80.3196C267.452 80.3263 267.144 80.2702 266.858 80.1548C266.571 80.0394 266.311 79.8671 266.093 79.6483C265.875 79.4294 265.704 79.1687 265.589 78.8817C265.475 78.5947 265.42 78.2875 265.427 77.9787Z" fill="white"/>
<path d="M261.424 77.6396C261.424 76.6387 262.425 75.6377 263.426 75.6377C264.427 75.6377 265.428 76.6387 265.428 77.6396C265.428 78.6487 264.427 79.6577 263.426 79.6577C262.425 79.6577 261.432 78.9796 261.432 77.6396H261.424Z" fill="white"/>
<path d="M257.759 77.9786C257.759 76.9696 258.429 75.9686 259.761 75.9686C260.762 75.9686 261.763 76.9696 261.763 77.9786C261.763 78.9796 260.762 79.9886 259.761 79.9886C258.429 79.9886 257.759 79.3267 257.759 77.9786ZM254.756 78.9796C254.756 78.3096 255.426 77.6396 256.427 77.6396C257.089 77.6396 257.759 78.3096 257.759 78.9796C257.759 79.6496 257.089 80.6506 256.427 80.6506C255.426 80.6506 254.756 79.9886 254.756 78.9796Z" fill="white"/>
<path d="M252.423 80.3196C252.423 79.6496 253.085 78.9796 253.755 78.9796C254.425 78.9796 255.087 79.6496 255.087 80.3196C255.087 80.9896 254.425 81.6596 253.755 81.6596C253.093 81.6596 252.423 80.9896 252.423 80.3196ZM294.116 110.777C294.116 109.106 295.448 107.426 297.45 107.426C298.339 107.426 299.191 107.779 299.819 108.408C300.447 109.036 300.8 109.888 300.8 110.777C300.8 111.665 300.447 112.517 299.819 113.145C299.191 113.774 298.339 114.127 297.45 114.127C295.448 114.127 294.116 112.787 294.116 110.777Z" fill="white"/>
<path d="M295.779 105.086C295.776 104.69 295.851 104.298 296.001 103.931C296.151 103.565 296.372 103.232 296.651 102.952C296.93 102.672 297.263 102.45 297.628 102.3C297.994 102.149 298.386 102.072 298.782 102.075C299.178 102.072 299.57 102.149 299.936 102.3C300.301 102.45 300.634 102.672 300.913 102.952C301.192 103.232 301.413 103.565 301.563 103.931C301.713 104.298 301.788 104.69 301.785 105.086C301.788 105.481 301.713 105.873 301.563 106.24C301.413 106.606 301.192 106.939 300.913 107.219C300.634 107.499 300.301 107.721 299.936 107.872C299.57 108.022 299.178 108.099 298.782 108.096C297.119 107.766 295.779 106.426 295.779 105.086ZM295.117 99.0636C295.117 97.7235 296.449 96.3835 297.781 96.3835C299.452 96.3835 300.445 97.7235 300.445 99.0636C300.45 99.4153 300.385 99.7645 300.253 100.091C300.122 100.417 299.926 100.713 299.677 100.962C299.429 101.211 299.133 101.408 298.807 101.541C298.482 101.674 298.133 101.74 297.781 101.735C296.449 102.075 295.117 100.735 295.117 99.0636Z" fill="white"/>
<path d="M293.115 94.7126C293.115 93.3726 294.116 92.3716 295.448 92.3716C296.78 92.3716 297.789 93.3726 297.789 94.7126C297.789 96.0526 296.78 97.0535 295.448 97.0535C294.447 97.0535 293.115 96.0526 293.115 94.7126Z" fill="white"/>
<path d="M290.113 91.3626C290.113 90.0226 291.114 89.0216 292.454 89.0216C293.777 89.0216 294.778 90.0226 294.778 91.3626C294.778 92.7026 293.777 93.7036 292.445 93.7036C291.114 93.3726 290.113 92.3716 290.113 91.3626Z" fill="white"/>
<path d="M286.771 89.3607C286.771 88.3516 287.441 87.3426 288.773 87.3426C289.774 87.3426 290.775 88.3516 290.775 89.3607C290.775 90.3616 289.782 91.3626 288.781 91.3626C287.441 91.3626 286.779 90.3616 286.779 89.3526L286.771 89.3607ZM283.106 88.6907C283.106 87.6816 283.776 87.0116 284.777 87.0116C285.778 87.0116 286.44 87.6816 286.44 88.6907C286.44 89.6916 285.778 90.3616 284.777 90.3616C284.107 90.3616 283.106 89.6916 283.106 88.6907ZM218.075 88.0207C218.075 86.3416 219.738 84.6707 221.401 84.6707C222.29 84.6707 223.142 85.0236 223.77 85.6519C224.398 86.2801 224.751 87.1322 224.751 88.0207C224.751 88.9091 224.398 89.7612 223.77 90.3895C223.142 91.0177 222.29 91.3707 221.401 91.3707C219.738 91.0316 218.067 89.6916 218.067 88.0207H218.075Z" fill="white"/>
<path d="M218.075 88.0207C218.075 86.3416 219.738 84.6707 221.401 84.6707C222.29 84.6707 223.142 85.0236 223.77 85.6519C224.398 86.2801 224.751 87.1322 224.751 88.0207C224.751 88.9091 224.398 89.7612 223.77 90.3895C223.142 91.0177 222.29 91.3707 221.401 91.3707C219.738 91.0316 218.067 89.6916 218.067 88.0207H218.075Z" fill="white"/>
<path d="M216.735 94.7126C216.744 93.7417 217.132 92.8128 217.817 92.1247C218.502 91.4367 219.429 91.0443 220.4 91.0317C221.372 91.0422 222.302 91.4336 222.989 92.1219C223.675 92.8102 224.065 93.7404 224.073 94.7126C224.065 95.6849 223.675 96.6151 222.989 97.3034C222.302 97.9916 221.372 98.3831 220.4 98.3936C219.429 98.381 218.502 97.9886 217.817 97.3006C217.132 96.6125 216.744 95.6835 216.735 94.7126ZM276.769 88.0207C276.769 86.3416 278.101 84.6707 279.772 84.6707C281.443 84.6707 283.106 86.0107 283.106 88.0207C283.106 89.6916 281.774 91.0317 279.772 91.0317C277.77 91.0317 276.769 89.6916 276.769 88.0207ZM277.1 94.7126C277.109 93.7404 277.498 92.8102 278.185 92.1219C278.872 91.4336 279.801 91.0422 280.773 91.0317C281.744 91.0443 282.671 91.4367 283.356 92.1247C284.041 92.8128 284.43 93.7417 284.438 94.7126C284.43 95.6835 284.041 96.6125 283.356 97.3006C282.671 97.9886 281.744 98.381 280.773 98.3936C279.801 98.3831 278.872 97.9916 278.185 97.3034C277.498 96.6151 277.109 95.6849 277.1 94.7126ZM250.421 125.5L242.752 120.819L250.421 116.137L258.09 120.819C255.426 122.15 253.085 123.83 250.421 125.5Z" fill="white"/>
<path d="M250.421 117.13C252.423 118.139 254.086 119.47 256.088 120.48L250.421 123.83L245.085 120.48L250.421 117.13ZM275.768 123.16L264.095 119.14L262.093 125.17L274.105 129.182L275.768 123.16Z" fill="white"/>
<path d="M274.767 123.83L264.435 120.479L263.426 124.16L273.435 127.841L274.767 123.83ZM287.11 126.84V130.521L283.776 132.192L280.773 127.171L287.11 126.84Z" fill="white"/>
<path d="M287.78 127.171H281.104L284.438 132.192C284.777 132.862 284.115 133.201 283.776 133.201L280.442 126.501C280.442 126.501 281.104 126.501 288.111 125.831C288.111 125.831 288.111 127.171 287.78 127.171ZM225.074 123.159L237.078 119.139L238.749 125.169L227.076 129.181L225.074 123.159Z" fill="white"/>
<path d="M226.406 123.83L236.416 120.479L237.748 124.16L227.407 127.841L226.406 123.83ZM214.402 126.84L214.725 130.521L218.067 132.192L220.731 127.171L214.402 126.84Z" fill="white"/>
<path d="M214.063 127.171H220.739L217.397 132.192C217.074 132.862 217.736 133.201 218.067 133.201L221.401 126.501C221.401 126.501 220.739 126.501 213.732 125.831C213.401 125.831 213.401 127.171 214.063 127.171ZM291.776 116.129C291.776 115.332 292.092 114.568 292.655 114.005C293.218 113.442 293.982 113.126 294.778 113.126C295.575 113.126 296.339 113.442 296.902 114.005C297.465 114.568 297.781 115.332 297.781 116.129C297.785 116.524 297.709 116.916 297.559 117.283C297.41 117.649 297.189 117.982 296.91 118.262C296.63 118.542 296.298 118.764 295.932 118.915C295.566 119.065 295.174 119.142 294.778 119.139C294.383 119.142 293.991 119.065 293.625 118.915C293.259 118.764 292.927 118.542 292.647 118.262C292.368 117.982 292.147 117.649 291.997 117.283C291.848 116.916 291.772 116.524 291.776 116.129ZM206.726 154.617C209.728 192.436 224.404 222.893 254.425 246.65C251.761 249.33 249.42 251.671 248.088 252.68C216.065 226.574 198.056 187.084 197.717 145.915H299.121V154.617H206.726Z" fill="white"/>
<path d="M299.444 164.998H219.738C225.066 199.467 236.416 218.873 262.764 238.287C264.427 236.277 266.76 234.267 268.431 232.596C244.415 215.531 234.075 196.448 230.41 173.692H299.453L299.444 164.998Z" fill="white"/>
</svg>
