<svg width="500" height="500" viewBox="0 0 500 500" fill="none" xmlns="http://www.w3.org/2000/svg">
<path d="M251.091 103.084H239.749C239.749 82.9997 239.079 57.8947 235.076 56.2238C230.41 54.2137 225.405 56.8938 228.739 63.9167C232.743 71.6177 230.41 76.9696 222.741 77.6396C216.404 78.3097 208.066 76.9696 203.723 62.2457C198.718 44.8418 210.398 40.4908 229.74 22.4169C246.417 7.02292 251.091 0 251.091 0C251.091 0 255.757 7.02293 272.765 22.7559C292.115 40.4908 303.787 44.8418 298.782 62.5848C294.448 77.3087 286.109 78.3096 279.772 77.9787C272.103 77.3087 270.101 71.9487 273.766 64.2557C277.439 57.2328 272.434 54.5528 267.429 56.5547C263.426 58.2338 262.764 83.3306 262.764 103.415H251.091V103.076V103.084ZM251.091 500L214.063 286.487C220.791 284.695 226.775 280.811 231.151 275.396C235.527 269.981 238.069 263.315 238.409 256.361H263.757C264.427 270.754 274.436 283.137 288.111 286.479L251.091 500ZM122.676 165.66C120.013 163.319 118.342 160.308 116.34 158.298C113.676 155.618 110.673 153.616 107 153.616C110.673 153.616 113.668 151.598 116.009 148.934C118.011 146.916 119.674 143.574 122.345 141.564C124.008 140.224 126.341 139.223 128.682 139.223C132.686 139.223 136.02 141.564 137.683 145.245C139.685 145.245 145.691 145.245 149.356 144.914C153.698 144.575 156.701 144.575 151.696 140.894L149.356 139.223C145.985 137.249 143.395 134.177 142.018 130.521C141.695 130.182 141.695 129.52 141.356 128.85C141.017 128.18 141.017 127.51 140.686 126.51C140.355 125.5 140.355 124.169 140.355 122.82C140.355 112.787 148.024 104.755 158.033 104.085H161.698C162.037 104.085 162.699 104.416 163.03 104.416C165.032 104.755 166.703 105.756 168.705 106.757L169.375 107.096C178.706 113.118 183.049 124.5 183.049 124.5C183.049 124.5 180.708 123.16 171.038 121.489C163.7 120.479 159.365 123.829 160.366 130.521C162.037 140.894 176.043 143.574 176.043 143.574H196.389V163.319H176.043C176.043 163.319 162.037 165.999 160.366 176.372C159.365 183.395 163.7 186.745 171.038 185.074C180.708 183.064 183.049 182.063 183.049 182.063C183.049 182.063 178.706 193.768 169.375 199.467L168.705 199.798C166.986 200.944 165.057 201.74 163.03 202.139C162.707 202.139 162.037 202.478 161.698 202.478C160.499 202.813 159.232 202.813 158.033 202.478C148.024 202.139 140.355 193.776 140.355 184.073C140.355 182.733 140.355 181.732 140.686 180.384C140.753 179.567 140.98 178.772 141.356 178.043C141.687 177.373 141.687 177.042 142.018 176.372C143.689 172.691 146.022 169.672 149.364 167.67L151.696 165.999C156.701 162.318 153.359 162.318 149.356 161.979C146.022 161.648 139.685 161.648 137.683 161.648C136.351 165.329 132.678 167.67 128.682 167.67C126.341 168.001 124.347 167 122.676 165.66ZM378.497 165.66C381.16 163.319 382.831 160.308 384.833 158.298C387.174 155.618 390.169 153.616 393.842 153.616C390.169 153.616 387.174 151.598 384.833 148.934C382.831 146.916 381.169 143.574 378.497 141.564C376.699 140.108 374.472 139.285 372.16 139.223C368.156 139.223 364.822 141.564 363.159 145.245C361.157 145.245 354.82 145.245 351.479 144.914C347.144 144.575 344.141 144.575 349.146 140.894L351.487 139.223C354.82 137.213 357.484 134.202 358.824 130.521C359.147 130.182 359.147 129.52 359.486 128.85C359.817 128.18 359.817 127.51 360.156 126.51C360.487 125.17 360.487 124.169 360.487 122.82C360.487 112.787 352.819 104.755 342.809 104.085H339.144C338.805 104.085 338.143 104.416 337.804 104.416C335.81 104.755 334.139 105.756 332.137 106.757L331.467 107.096C322.128 113.118 317.793 124.5 317.793 124.5C317.793 124.5 320.134 123.16 329.804 121.489C337.142 120.479 341.477 123.829 340.476 130.521C338.805 140.894 324.799 143.574 324.799 143.574H300.453V163.319H324.799C324.799 163.319 338.805 165.999 340.476 176.372C341.477 183.395 337.142 186.745 329.804 185.074C320.134 183.064 317.793 182.063 317.793 182.063C317.793 182.063 322.128 193.768 331.467 199.467L332.137 199.798C334.139 201.138 336.141 201.808 337.804 202.139C338.143 202.139 338.805 202.478 339.144 202.478C340.343 202.81 341.61 202.81 342.809 202.478C352.479 201.808 360.487 193.776 360.487 183.734C360.487 182.394 360.487 181.393 360.156 180.053C360.089 179.236 359.862 178.441 359.486 177.712C359.155 177.042 359.155 176.703 358.824 176.033C357.153 172.352 354.82 169.341 351.479 167.331L349.146 165.66C344.141 161.979 347.483 161.979 351.487 161.648C354.82 161.309 361.157 161.309 363.159 161.309C364.491 164.99 368.164 167.331 372.16 167.331C374.501 168.001 376.495 167.008 378.497 165.66Z" fill="white"/>
<path fill-rule="evenodd" clip-rule="evenodd" d="M284.273 131.943L287.11 130.521V127.171H287.78C288.111 127.171 288.111 125.831 288.111 125.831C287.964 125.845 287.82 125.859 287.679 125.873L288.111 125.169C287.78 124.942 287.445 124.719 287.106 124.5L287.44 123.829C287.94 123.638 288.425 123.41 288.893 123.148C288.966 123.156 289.039 123.16 289.112 123.16H289.774C291.28 122.907 292.675 122.207 293.778 121.15H294.117L294.778 120.48L295.779 119.479C295.949 119.479 296.116 119.394 296.284 119.309C296.451 119.224 296.619 119.14 296.789 119.14C297.132 119.14 297.516 119.18 297.885 119.219L297.886 119.219C298.584 119.293 299.231 119.361 299.452 119.14C299.562 119.03 299.635 118.993 299.684 118.968C299.709 118.956 299.727 118.946 299.741 118.932C299.783 118.89 299.783 118.806 299.783 118.47C299.783 118.139 298.782 117.13 298.112 116.799H297.119C296.884 116.799 296.491 116.314 296.16 115.905C296.015 115.726 295.883 115.562 295.779 115.459C295.689 115.459 295.598 115.434 295.508 115.405C295.732 114.916 295.942 114.415 296.137 113.905C296.53 114.05 296.971 114.127 297.45 114.127C298.339 114.127 299.191 113.774 299.819 113.145C300.447 112.517 300.8 111.665 300.8 110.777C300.8 109.888 300.447 109.036 299.819 108.408C299.683 108.272 299.537 108.148 299.381 108.039C299.571 108.001 299.756 107.945 299.936 107.872C300.301 107.721 300.634 107.499 300.913 107.219C301.192 106.939 301.413 106.606 301.563 106.24C301.713 105.873 301.788 105.481 301.785 105.086C301.788 104.69 301.713 104.298 301.563 103.931C301.413 103.565 301.192 103.232 300.913 102.952C300.634 102.672 300.301 102.45 299.936 102.3C299.57 102.149 299.178 102.072 298.782 102.075C298.445 102.073 298.111 102.128 297.793 102.237C297.778 102.073 297.762 101.908 297.743 101.745C297.756 101.742 297.768 101.739 297.781 101.735C298.133 101.74 298.482 101.674 298.807 101.541C299.133 101.408 299.429 101.211 299.677 100.962C299.926 100.713 300.122 100.417 300.253 100.091C300.385 99.7645 300.45 99.4153 300.445 99.0636C300.445 97.7235 299.452 96.3835 297.781 96.3835C297.488 96.3835 297.196 96.4483 296.917 96.5635C297.455 96.1431 297.789 95.484 297.789 94.7126C297.789 93.3726 296.78 92.3716 295.448 92.3716C295.093 92.3716 294.761 92.443 294.465 92.5731C294.665 92.2246 294.778 91.8127 294.778 91.3626C294.778 90.0226 293.777 89.0216 292.454 89.0216C291.755 89.0216 291.148 89.2937 290.728 89.7442C290.758 89.6177 290.775 89.4892 290.775 89.3607C290.775 88.3516 289.774 87.3426 288.773 87.3426C287.54 87.3426 286.874 88.2077 286.782 89.1369C286.76 89.1346 286.738 89.1323 286.715 89.1302C286.692 89.1278 286.668 89.1256 286.645 89.1233C286.563 89.1157 286.482 89.1088 286.4 89.1025C286.426 88.9728 286.44 88.8352 286.44 88.6907C286.44 87.6816 285.778 87.0116 284.777 87.0116C283.776 87.0116 283.106 87.6816 283.106 88.6907C283.106 88.8659 283.137 89.031 283.191 89.1841C283.139 89.1901 283.088 89.1964 283.036 89.2029C282.975 89.2105 282.914 89.2185 282.853 89.2267C283.018 88.858 283.106 88.4503 283.106 88.0207C283.106 86.0107 281.443 84.6707 279.772 84.6707C279.521 84.6707 279.278 84.7083 279.046 84.7781C279.499 84.1749 279.772 83.4169 279.772 82.6606C279.772 80.9897 278.44 79.6497 276.769 79.6497C275.937 79.6497 275.221 79.881 274.668 80.2714C274.556 80.1967 274.443 80.1234 274.328 80.0518C274.398 79.8229 274.436 79.5768 274.436 79.3186C274.436 77.9786 273.435 76.9777 272.103 76.9777C271.231 76.9777 270.502 77.4015 270.1 78.0668C270.101 78.0376 270.101 78.0082 270.101 77.9787C270.101 76.6387 269.1 75.6377 267.768 75.6377C266.469 75.6377 265.488 76.5796 265.43 77.8593L265.412 77.8596C265.422 77.7865 265.428 77.7131 265.428 77.6396C265.428 76.6387 264.427 75.6377 263.426 75.6377C262.608 75.6377 261.79 76.3063 261.518 77.097C261.16 76.4578 260.46 75.9686 259.761 75.9686C258.429 75.9686 257.759 76.9696 257.759 77.9786C257.759 78.3917 257.822 78.7404 257.947 79.0253L257.829 79.058L257.754 79.0791C257.756 79.0605 257.757 79.042 257.758 79.0238C257.758 79.0089 257.759 78.9942 257.759 78.9796C257.759 78.3096 257.089 77.6396 256.427 77.6396C255.426 77.6396 254.756 78.3096 254.756 78.9796C254.756 79.2183 254.793 79.4376 254.864 79.6333C254.614 79.257 254.186 78.9796 253.755 78.9796C253.572 78.9796 253.391 79.0293 253.223 79.115L252.423 75.6457L255.087 76.6467V70.9557L252.423 71.9567L253.424 68.6147H247.749V68.9376V68.9457L248.75 71.9567L246.086 70.9557V76.6467L248.75 75.6457L247.976 79.0043C247.901 78.9882 247.826 78.9797 247.75 78.9797C247.205 78.9797 246.654 79.4342 246.477 79.9689C246.365 79.9301 246.254 79.8919 246.144 79.8543C246.313 79.5664 246.418 79.2467 246.418 78.9797C246.418 78.3097 245.748 77.6396 245.086 77.6396C244.709 77.6396 244.331 77.8524 244.073 78.1579C244.08 78.0983 244.084 78.0385 244.084 77.9787C244.084 76.9696 243.083 75.9687 242.082 75.9687C241.081 75.9687 240.08 76.9696 240.08 77.9787C240.08 78.081 240.084 78.1793 240.092 78.2738L239.962 78.2517C240.038 78.0535 240.08 77.8465 240.08 77.6396C240.08 76.6387 239.079 75.6377 238.078 75.6377C237.077 75.6377 236.076 76.6387 236.076 77.6396C236.076 77.7173 236.08 77.7928 236.086 77.866L236.082 77.8659C236.027 76.5829 235.037 75.6377 233.743 75.6377C232.411 75.6377 231.41 76.6387 231.41 77.9787C231.408 78.0822 231.411 78.1855 231.421 78.2879C231.351 78.3035 231.281 78.3195 231.212 78.3359C230.856 77.5179 230.057 76.9777 229.078 76.9777C227.738 76.9777 226.737 77.9786 226.737 79.3186C226.73 79.5998 226.775 79.8796 226.869 80.1441C226.785 80.1981 226.701 80.253 226.619 80.3087C226.105 79.8958 225.451 79.6497 224.735 79.6497C222.733 79.6497 221.401 80.9897 221.401 82.6606C221.401 83.4241 221.662 84.1609 222.134 84.7518C221.895 84.6983 221.65 84.6707 221.401 84.6707C219.738 84.6707 218.075 86.3416 218.075 88.0207H218.067C218.067 88.4479 218.177 88.8535 218.367 89.2262C218.247 89.2099 218.127 89.1948 218.008 89.1809C218.047 89.0287 218.067 88.8647 218.067 88.6907C218.067 87.6816 217.397 87.0116 216.396 87.0116C215.395 87.0116 214.733 87.6816 214.733 88.6907C214.733 88.8363 214.748 88.9749 214.775 89.1054L214.713 89.1105C214.568 88.1914 213.649 87.3426 212.731 87.3426C211.732 87.3426 210.732 88.3489 210.729 89.3566C210.73 89.4833 210.746 89.6098 210.776 89.7342C210.357 89.2897 209.756 89.0216 209.067 89.0216C207.727 89.0216 206.726 90.0226 206.726 91.3626C206.726 91.6403 206.801 91.9174 206.939 92.1801C206.655 92.0831 206.356 92.0327 206.056 92.0327C204.394 92.0327 203.393 93.3727 203.393 94.7127C203.393 95.4126 203.666 96.0199 204.165 96.4877C203.926 96.4203 203.668 96.3835 203.392 96.3835C202.06 96.3835 200.72 97.3845 200.72 99.0636H200.728C200.728 100.735 202.06 102.075 203.392 101.735C203.406 101.736 203.421 101.736 203.436 101.736C203.451 101.736 203.467 101.735 203.482 101.735C203.466 101.879 203.451 102.024 203.437 102.169C203.205 102.112 202.965 102.083 202.722 102.083C201.925 102.083 201.161 102.399 200.598 102.962C200.035 103.525 199.719 104.289 199.719 105.086C199.719 106.299 200.817 107.784 202.26 108.053C201.367 108.693 200.72 109.736 200.72 110.777H200.728C200.728 112.787 202.06 114.119 204.062 114.119C204.22 114.119 204.378 114.103 204.535 114.075C204.014 114.63 203.723 115.364 203.723 116.128C203.723 116.724 203.9 117.302 204.225 117.791C204.064 117.773 203.989 117.73 203.931 117.697C203.829 117.638 203.778 117.609 203.392 117.8C202.722 117.8 201.721 118.809 201.721 119.479C201.721 119.812 201.721 119.896 201.762 119.937C201.77 119.945 201.779 119.951 201.789 119.957C201.794 119.959 201.799 119.962 201.804 119.965L201.82 119.972C201.87 119.997 201.946 120.035 202.06 120.149C202.139 120.149 202.274 120.129 202.448 120.105C203.006 120.026 203.961 119.89 204.724 120.149C205.063 120.149 205.394 120.149 205.725 120.48C205.725 120.48 206.064 120.819 206.726 121.15L207.396 121.811H207.727C208.727 122.821 210.059 123.83 211.73 123.83H212.392C212.723 123.83 213.054 123.747 213.424 123.583C213.634 123.672 213.847 123.754 214.063 123.829L214.397 124.715C214.174 124.865 213.952 125.016 213.732 125.169L214.77 126.86L214.402 126.84L214.725 130.521L218.032 132.175L219.068 133.863C218.906 134.049 218.816 134.287 218.816 134.533C218.816 134.78 218.906 135.018 219.068 135.203L219.068 135.203C219.258 135.397 219.339 135.48 219.437 135.516C219.51 135.542 219.593 135.542 219.738 135.542C219.738 135.542 220.069 135.542 220.408 135.203C221.704 134.423 223.206 133.844 224.593 133.31L224.595 133.309L224.599 133.307C224.99 133.157 225.371 133.009 225.736 132.862C228.077 131.861 230.402 131.191 232.743 130.521C235.415 129.52 237.74 129.181 240.081 128.85C242.413 128.511 245.085 128.18 247.087 128.18H254.425C256.21 128.18 258.274 128.446 260.598 128.745C260.87 128.78 261.145 128.815 261.424 128.85C263.295 129.116 265.171 129.599 267.214 130.126C267.719 130.256 268.234 130.389 268.761 130.521C269.393 130.732 270.056 130.943 270.752 131.164C272.268 131.645 273.939 132.176 275.776 132.862C276.143 133.01 276.526 133.158 276.919 133.309L276.919 133.309L276.919 133.309C278.306 133.844 279.808 134.423 281.104 135.203C281.104 135.542 281.443 135.542 281.774 135.542H282.105C282.444 135.542 282.775 135.542 282.775 135.203C283.106 134.872 283.106 134.872 283.106 134.533V134.202L282.775 133.863L283.51 132.666L283.776 133.201C284.115 133.201 284.777 132.862 284.438 132.192L284.273 131.943ZM251.781 79.9887H252.475C252.441 80.0969 252.423 80.2083 252.423 80.3196C252.423 80.5114 252.478 80.7032 252.572 80.8792L252.564 80.8824C252.391 80.5278 252.111 80.2119 251.781 79.9887ZM207.065 119.479C206.982 119.396 206.92 119.274 206.872 119.128C207.194 119.112 207.509 119.045 207.805 118.93C207.891 119.047 207.978 119.162 208.066 119.276V119.81C208.066 119.479 207.727 119.479 207.387 119.479H207.065ZM248.935 80.8934L248.949 80.8642C248.944 80.8738 248.939 80.8835 248.934 80.893L248.935 80.8934ZM248.96 80.8426C249.134 80.5042 249.405 80.2035 249.723 79.9887H249.038C249.071 80.0969 249.09 80.2083 249.09 80.3197C249.09 80.4982 249.042 80.6767 248.96 80.8426ZM243.687 79.0921C243.708 79.0645 243.727 79.0366 243.746 79.0082C243.746 79.0223 243.747 79.0364 243.747 79.0503C243.748 79.0702 243.749 79.09 243.75 79.1096L243.687 79.0921ZM290.65 121.952C291.316 121.878 292.033 121.624 292.777 121.15C292.473 120.838 292.455 120.519 292.454 120.207C291.891 120.849 291.289 121.434 290.65 121.952ZM293.569 118.79C293.658 118.761 293.717 118.701 293.777 118.641C293.861 118.555 293.946 118.47 294.117 118.47H294.448C294.448 118.333 294.504 118.082 294.57 117.788C294.631 117.517 294.7 117.21 294.741 116.92C294.379 117.573 293.988 118.198 293.569 118.79ZM209.93 121.31C209.591 121.218 209.277 121.15 209.067 121.15C209.067 121.481 209.067 121.82 208.727 122.151C209.979 122.948 211.153 123.164 212.142 122.942C211.358 122.487 210.62 121.938 209.93 121.31ZM209.349 112.565C209.535 112.087 209.768 111.601 210.059 111.115C211.973 107.264 216.134 103.758 220.304 101.967C220.151 101.579 220.069 101.161 220.069 100.735C220.069 99.8543 220.439 98.9718 221.081 98.3337L221.078 98.3237C220.856 98.3674 220.63 98.3911 220.4 98.3936C219.429 98.381 218.502 97.9886 217.817 97.3006C217.132 96.6125 216.744 95.6835 216.735 94.7126C216.744 93.7417 217.132 92.8128 217.817 92.1247C217.837 92.105 217.857 92.0854 217.877 92.0662C212.662 90.8995 207.634 98.608 207.064 104.085C206.806 108.341 207.886 110.957 209.349 112.565ZM292.081 112.362C293.5 110.696 294.493 108.025 294.116 103.746C293.532 98.1952 288.374 90.6105 283.085 91.8779C283.179 91.9553 283.27 92.0376 283.356 92.1247C284.041 92.8128 284.43 93.7417 284.438 94.7126C284.43 95.6835 284.041 96.6125 283.356 97.3006C282.671 97.9886 281.744 98.381 280.773 98.3936C280.621 98.392 280.47 98.381 280.321 98.3611C280.987 98.9969 281.435 99.8668 281.435 100.735C281.435 101.141 281.361 101.539 281.221 101.913C285.463 103.686 289.513 107.222 291.452 111.107C291.702 111.527 291.909 111.947 292.081 112.362ZM273.309 98.6207C277.441 89.186 272.491 75.2326 253.424 83.6697C254.622 86.6744 255.34 90.3961 255.509 94.0476C261.239 93.8364 268.026 95.5653 273.309 98.6207ZM245.679 94.0378C245.87 90.5003 246.583 86.7981 247.749 83.6697C228.497 75.1512 223.637 89.3299 227.986 98.7476C233.2 95.6713 239.938 93.8999 245.679 94.0378Z" fill="white"/>
<path fill-rule="evenodd" clip-rule="evenodd" d="M214.063 127.171H220.739L218.289 130.852H183.711C181.378 168.34 193.051 212.851 217.066 241.968C226.406 253.011 238.409 260.373 250.752 267.073C263.095 260.373 274.767 253.011 284.107 241.968C307.791 213.19 320.465 167.662 317.462 130.852H219.236L221.401 126.501C221.401 126.501 220.739 126.501 213.732 125.831C213.401 125.831 213.401 127.171 214.063 127.171ZM219.236 130.852H218.289L217.397 132.192C217.074 132.862 217.736 133.201 218.067 133.201L219.236 130.852ZM291.776 116.129C291.776 115.332 292.092 114.568 292.655 114.005C293.218 113.442 293.982 113.126 294.778 113.126C295.575 113.126 296.339 113.442 296.902 114.005C297.465 114.568 297.781 115.332 297.781 116.129C297.785 116.524 297.709 116.916 297.559 117.283C297.41 117.649 297.189 117.982 296.91 118.262C296.63 118.542 296.298 118.764 295.932 118.915C295.566 119.065 295.174 119.142 294.778 119.139C294.383 119.142 293.991 119.065 293.625 118.915C293.259 118.764 292.927 118.542 292.647 118.262C292.368 117.982 292.147 117.649 291.997 117.283C291.848 116.916 291.772 116.524 291.776 116.129ZM206.726 154.617C209.728 192.436 224.404 222.893 254.425 246.65C251.761 249.33 249.42 251.671 248.088 252.68C216.065 226.574 198.056 187.084 197.717 145.915H299.121V154.617H206.726ZM219.738 164.998H299.444L299.453 173.692H230.41C234.075 196.448 244.415 215.531 268.431 232.596C267.909 233.117 267.324 233.671 266.714 234.248C265.37 235.521 263.908 236.904 262.764 238.287C236.416 218.873 225.066 199.467 219.738 164.998Z" fill="white"/>
</svg>
