<svg width="500" height="500" viewBox="0 0 500 500" fill="none" xmlns="http://www.w3.org/2000/svg">
<g clip-path="url(#clip0_1173_5812)">
<path d="M317.973 1.24988C345.612 54.7221 395.473 90.6943 452.834 103.333V201.944C422.973 228.889 398.945 273.333 380.612 335.139C357.417 406.389 326.167 445.694 250.195 499.028C191.167 464.167 142.556 420.555 120.334 341.528C103.667 277.222 81.1671 232.5 47.9727 200.555V103.194C116.167 82.4999 161.028 48.7499 182.556 1.80544L317.973 1.24988Z" fill="#E6C777"/>
<path d="M317.972 1.24999L317.139 1.66666C344.917 55.4167 394.917 91.6666 452.694 104.306L452.972 103.333H452V201.944H452.972L452.278 201.25C422.278 228.333 398.111 272.917 379.778 334.861C368.25 370.417 354.639 397.917 334.5 423.194C314.361 448.472 287.694 471.667 249.639 498.194L250.194 499.028L250.75 498.194C191.861 463.333 143.528 420 121.306 341.389C104.5 276.944 82.1389 232.083 48.6667 200L47.9722 200.694H48.9444V103.333H47.9722L48.25 104.306C116.583 83.6111 161.722 49.5833 183.389 2.36111L182.556 1.94444V2.91666L317.972 2.22222V1.24999V0.277774L181.861 0.972218L181.583 1.52778C160.194 48.1944 115.75 81.8055 47.6944 102.361L47 102.5V200.972L47.2778 201.25C80.3333 233.056 102.694 277.5 119.361 341.667C141.583 420.833 190.611 464.722 249.639 499.722L250.194 500L250.75 499.583C288.806 472.917 315.611 449.722 336.028 424.167C356.306 398.611 370.056 370.833 381.583 335.278C399.917 273.611 423.944 229.306 453.528 202.5L453.806 202.222V102.361L453.111 102.222C395.889 89.5833 346.306 53.75 318.944 0.555547L318.667 0H318.111L317.972 1.24999Z" fill="#866B10"/>
<path d="M129.361 306.389C118.111 268.889 99.6392 230.555 82.417 211.805H420.611C398.667 238.194 383.389 272.778 372.695 306.389H129.361Z" fill="#C5112E"/>
<path d="M129.361 306.389L130.333 306.111C118.944 268.472 100.611 230.139 83.2497 211.111L82.5552 211.805V212.778H420.75V211.805L420.055 211.25C397.972 237.778 382.694 272.361 372 306.25L372.972 306.528V305.555H129.361V306.389V307.361H373.527L373.805 306.667C384.5 273.055 399.777 238.611 421.583 212.361L422.833 210.833H80.333L81.8608 212.5C98.9441 231.111 117.277 269.305 128.527 306.805L128.666 307.5H129.361V306.389Z" fill="#C5112E"/>
<path d="M68.8051 191.389C68.944 191.528 68.5273 114.583 68.5273 114.583C86.7218 110.695 104.222 103.75 120.75 94.1667V191.389H68.8051Z" fill="white"/>
<path d="M377 93.75C394.222 104.306 412.834 111.944 432.972 116.667L432.834 191.528H376.861V93.75H377Z" fill="white"/>
<path d="M134.222 85.6945C156.305 70.4167 178.249 50.9722 192.416 22.6389H307.694C322.277 47.2222 343.249 69.5834 363.666 84.7223V191.528H134.222V85.6945Z" fill="white"/>
<path d="M170.888 405.139C143.666 373.194 134.916 322.222 134.916 322.222H367.138C364.499 330 358.249 364.583 327.277 405.139H170.888Z" fill="#1B458F"/>
<path d="M249.778 476.111C228.25 464.305 203.945 444.861 190.056 429.444H306.167C292.695 443.472 270.611 462.5 249.778 476.111Z" fill="#1B458F"/>
<path d="M173.667 409.722H324.223L311.028 424.306H186.584C181.584 419.306 177.417 414.722 173.667 409.722Z" fill="#05642C"/>
<path d="M180.473 356.667H175.334V378.611H180.473V356.667Z" fill="#E6C777"/>
<path d="M336.723 328.889H331.584V350.833H336.723V328.889Z" fill="#E6C777"/>
<path d="M320.472 356.25L311.722 378.194H316.861L318.666 373.333H327.416L329.222 378.194H334.499L325.749 356.25H320.472ZM320.055 369.583L323.111 361.528L326.027 369.583H320.055Z" fill="#E6C777"/>
<path d="M174.5 336.25H179.5C179.362 335 178.945 333.889 178.389 332.916C177.834 331.944 177 331.111 176.167 330.416C175.334 329.722 174.223 329.166 173.112 328.889C172 328.472 170.75 328.333 169.5 328.333C167.695 328.333 166.167 328.611 164.639 329.166C163.25 329.722 162 330.555 161.028 331.666C160.056 332.777 159.362 333.889 158.806 335.277C158.25 336.666 157.973 338.194 157.973 339.861C157.973 341.389 158.25 342.916 158.806 344.305C159.362 345.694 160.056 346.805 161.028 347.916C162 348.889 163.25 349.722 164.639 350.277C166.028 350.833 167.695 351.111 169.5 351.111C170.889 351.111 172.278 350.972 173.389 350.555C174.639 350.139 175.612 349.583 176.584 348.75C177.417 347.916 178.25 347.083 178.806 345.972C179.362 344.861 179.639 343.611 179.778 342.222H174.778C174.639 343.75 174.084 344.861 173.112 345.833C172.278 346.666 171.028 347.222 169.5 347.222C168.389 347.222 167.417 346.944 166.584 346.666C165.75 346.25 165.195 345.694 164.639 345C164.084 344.305 163.806 343.472 163.528 342.639C163.25 341.805 163.25 340.833 163.25 340C163.25 339.027 163.389 338.055 163.528 337.222C163.806 336.389 164.084 335.555 164.639 334.861C165.195 334.166 165.75 333.611 166.584 333.194C167.417 332.777 168.389 332.5 169.5 332.5C170.195 332.5 170.75 332.639 171.306 332.777C171.862 332.916 172.417 333.194 172.834 333.611C173.25 334.027 173.667 334.305 173.945 334.861C174.223 335.139 174.362 335.694 174.5 336.25Z" fill="#E6C777"/>
<path d="M104.639 140.417H113.667C113.389 137.222 112.695 134.444 111.584 131.944C110.472 129.444 109.084 127.361 107.417 125.833C105.75 124.167 103.945 122.917 101.861 121.944C99.778 121.111 97.5558 120.694 95.1947 120.694C92.0002 120.694 88.9447 121.389 86.4447 122.917C83.8058 124.444 81.7224 126.389 79.9169 129.028C78.1113 131.667 76.7224 134.722 75.7502 138.194C74.778 141.667 74.3613 145.417 74.3613 149.583C74.3613 153.611 74.778 157.361 75.7502 160.833C76.7224 164.305 78.1113 167.222 79.9169 169.861C81.7224 172.361 83.9447 174.444 86.4447 175.972C89.0835 177.361 92.0002 178.055 95.1947 178.055C97.8336 178.055 100.195 177.5 102.417 176.528C104.639 175.555 106.445 174.028 108.111 172.083C109.778 170.139 111.028 167.778 112 165C112.972 162.222 113.667 159.167 113.806 155.694H104.778C104.361 159.444 103.389 162.361 101.861 164.583C100.334 166.805 98.1113 167.917 95.1947 167.917C93.1113 167.917 91.3058 167.361 89.778 166.389C88.2502 165.278 87.1391 163.889 86.1669 162.222C85.1947 160.417 84.6391 158.472 84.0836 156.389C83.6669 154.167 83.528 151.944 83.528 149.583C83.528 147.222 83.6669 144.861 84.0836 142.639C84.5002 140.417 85.1947 138.333 86.1669 136.667C87.1391 134.861 88.2502 133.472 89.778 132.5C91.3058 131.389 92.9724 130.833 95.1947 130.833C96.3058 130.833 97.4169 131.111 98.528 131.667C99.6391 132.083 100.611 132.778 101.445 133.611C102.278 134.444 102.972 135.555 103.528 136.667C104.222 137.778 104.5 139.028 104.639 140.417Z" fill="#E6C777"/>
<path d="M104.639 140.417V141.389H114.778L114.639 140.278C114.361 136.944 113.666 134.028 112.555 131.528C111.444 129.028 110.055 126.805 108.25 125.139C106.583 123.333 104.5 121.944 102.278 121.111C100.055 120.139 97.6942 119.722 95.3331 119.722C91.8609 119.722 88.8053 120.555 86.0276 122.083C83.2498 123.611 81.0276 125.833 79.222 128.472C77.4164 131.25 75.8887 134.305 74.9164 138.055C73.9442 141.667 73.3887 145.556 73.3887 149.722C73.3887 153.75 73.9442 157.639 74.9164 161.25C75.8887 164.722 77.2776 167.917 79.222 170.556C81.0276 173.194 83.3887 175.417 86.0276 176.944C88.8053 178.472 91.8609 179.167 95.3331 179.167C98.1109 179.167 100.611 178.611 102.972 177.5C105.333 176.389 107.278 174.861 109.083 172.778C110.75 170.694 112.139 168.194 113.25 165.417C114.222 162.5 114.916 159.306 115.194 155.833L115.333 154.861H104.361L104.222 155.694C103.944 159.305 102.972 162.083 101.444 164.167C100.055 166.25 98.1109 167.083 95.6109 167.083C93.6664 167.083 92.1387 166.667 90.7498 165.694C89.3609 164.722 88.3887 163.472 87.4165 161.806C86.5831 160.139 85.8887 158.333 85.472 156.25C85.0553 154.167 84.9165 151.944 84.9165 149.722C84.9165 147.361 85.0553 145.139 85.472 142.917C85.8887 140.694 86.5831 138.889 87.4165 137.222C88.2498 135.556 89.3609 134.306 90.7498 133.333C91.9998 132.361 93.6664 131.944 95.472 131.944C96.4442 131.944 97.4164 132.222 98.2498 132.639C99.222 133.056 100.055 133.611 100.75 134.444C101.444 135.278 102.139 136.111 102.694 137.222C103.25 138.194 103.528 139.444 103.666 140.694L103.805 141.528H104.639V140.417L105.611 140.278C105.472 138.75 105.055 137.361 104.5 136.25C103.944 135 103.111 133.889 102.278 132.917C101.305 131.944 100.333 131.25 99.0831 130.694C97.972 130.139 96.722 129.861 95.3331 129.861C93.1109 129.861 91.0276 130.417 89.3609 131.667C87.6942 132.778 86.4442 134.305 85.472 136.25C84.4998 138.055 83.8053 140.139 83.3887 142.5C82.972 144.861 82.8331 147.222 82.8331 149.722C82.8331 152.083 82.972 154.444 83.3887 156.667C83.8053 158.889 84.4998 160.972 85.472 162.778C86.4442 164.583 87.6942 166.111 89.3609 167.361C91.0276 168.472 92.972 169.028 95.3331 169.028C98.3887 169.028 101.028 167.778 102.833 165.278C104.639 162.778 105.611 159.722 106.028 155.833L105.055 155.694V156.667H114.083V155.694H113.111C112.833 159.028 112.278 162.083 111.305 164.722C110.333 167.361 109.083 169.722 107.555 171.528C106.028 173.333 104.222 174.722 102.139 175.694C100.055 176.667 97.8331 177.083 95.3331 177.083C92.2776 177.083 89.4998 176.389 86.9998 175C84.4998 173.611 82.4165 171.667 80.7498 169.167C79.0831 166.667 77.6942 163.75 76.722 160.417C75.7498 157.083 75.3331 153.333 75.3331 149.444C75.3331 145.417 75.7498 141.667 76.722 138.333C77.6942 134.861 78.9442 131.944 80.7498 129.444C82.4165 126.944 84.4998 125 86.9998 123.611C89.4998 122.222 92.2776 121.528 95.3331 121.528C97.5553 121.528 99.6387 121.944 101.583 122.778C103.528 123.611 105.333 124.861 106.861 126.389C108.389 127.917 109.778 129.861 110.75 132.222C111.722 134.583 112.416 137.222 112.694 140.417L113.666 140.278V139.306H104.639V140.417Z" fill="#866B10"/>
<path d="M398.666 135H420.332V124.305H388.805V182.361H398.666V158.333H417.416V148.333H398.666V135Z" fill="#E6C777"/>
<path d="M388.806 124.305H387.834V183.333H399.64V159.305H418.39V147.361H399.64V135.972H421.306V123.333H387.834V124.305H388.806V125.139H419.362V134.028H397.695V149.305H416.445V157.361H397.695V181.389H389.778V124.305H388.806V125.139V124.305Z" fill="#866B10"/>
<path d="M161.583 185.139V148.611H157.139V131.806L172.416 133.056L172 121.945L190.055 107.361L189.5 102.639L202.555 93.889L205.75 91.8057L194.222 88.6112L197 87.639L183.944 85.5557L186.583 83.889L178.389 82.2223L182.694 80.5557L173.389 78.1946L175.75 74.8612L167.139 73.7501L170.055 71.6668L164.083 69.0279C173.666 66.2501 182.972 66.2501 191.722 69.3057L216.722 84.4446L231.583 74.8612L227.972 73.3334L224.5 61.389L227.416 40.4168L227.278 37.9168C229.639 35.5557 232.555 33.7501 236.444 32.3612C238.528 31.6668 245.194 30.8334 246.722 31.1112C249.639 31.6668 260.472 36.389 260.472 36.389L260.889 38.7501L264.083 42.2223L270.333 64.7223L269.361 70.2779L263.528 74.7223L274.778 79.7223L280.333 80.5557L284.222 81.6668L286.028 85.139L313.389 102.361L314.778 108.195L317.139 108.333L323.528 114.722L323.805 121.945L324.778 124.028L333.528 129.722L335.194 130.833L344.916 130.278V146.25H339.916V185.417V191.806H161.722L161.583 185.139Z" fill="#866B10"/>
<path d="M158.667 133.611V146.945L252.417 148.889L342.834 144.722H343.25V131.667L257.834 140.833L252.139 144.722L246.028 141.25L158.667 133.611Z" fill="#E6C777"/>
<path d="M338.388 190.416H163.11L163.249 147.222V148.611L252.416 150.139L338.388 146.389V190.416Z" fill="#E6C777"/>
<path d="M174.778 133.472L212.139 136.667C212.139 136.667 212 134.028 214.361 132.778C216.722 131.528 219.5 128.889 219.5 128.889L219.222 122.5L213.806 112.639C213.806 112.639 220.333 118.611 220.75 119.028C221.167 119.444 221.444 127.639 221.444 127.639C221.444 127.639 227 129.583 227.278 130.278C227.694 130.972 235.472 130 235.472 130L239.222 128.75C239.222 128.75 233.944 125.694 230.75 122.5C227.556 119.305 226.444 116.389 224.5 113.889C222.556 111.528 218.944 107.639 218.944 107.639L216.861 102.917L203.528 97.0833L192.139 103.75L192.417 108.611L174.5 122.917L174.778 133.472Z" fill="#E6C777"/>
<path d="M192.972 129.166C192.972 129.166 202.416 122.222 204.916 122.5C205.611 122.5 206.861 122.639 208.249 122.639L209.638 124.028C206.722 124.722 203.527 125.416 202.555 125.694C200.194 126.111 192.972 129.166 192.972 129.166Z" fill="#866B10"/>
<path d="M207.416 92.4999L216.583 98.1944L215.055 98.3333L219.499 101.528L217.694 101.389L223.805 108.333L229.777 117.5L234.777 123.75L241.305 129.028L246.999 137.083L248.388 139.167C248.388 139.167 243.388 129.722 242.416 127.5C241.444 125.417 235.194 113.75 233.11 109.583C231.027 105.417 223.11 94.7222 223.11 94.7222L215.61 84.9999L203.944 78.0555L191.999 70.6944C186.166 67.9166 172.972 67.6388 168.666 69.5833L172.972 71.9444L169.638 73.4722L177.972 74.1666L175.055 77.7777L186.305 80.4166L181.444 82.2222L190.055 83.3333L186.86 85.1388L200.472 87.0833L197.833 88.6111L208.11 90.9722L207.416 92.4999Z" fill="#E6C777"/>
<path d="M220.055 137.361L224.221 131.667C224.221 131.667 226.582 132.083 230.332 131.944C234.082 131.805 236.721 131.25 236.721 131.25L239.499 130.833L246.444 138.611L243.249 139.305L240.61 138.611L225.471 137.917L220.055 137.361Z" fill="#E6C777"/>
<path d="M219.084 85.9723L235.751 109.445L249.501 140L251.306 142.083L255.195 139.028L260.334 123.611L261.306 120.972L260.89 126.389L267.556 122.778L274.223 113.056L271.028 121.528L277.417 120.833L262.278 127.361L259.501 132.778C259.501 132.778 269.778 128.194 272.001 127.917C272.278 127.917 285.89 132.917 288.528 135.417C289.917 136.667 331.167 131.111 331.167 131.111L319.778 122.778C319.778 122.778 316.028 118.75 309.362 118.75C302.695 118.75 297.695 124.306 297.834 124.306L289.501 122.222L296.723 121.25L307.556 116.944L320.334 114.722L315.473 109.445L300.612 109.028L291.445 117.083L297.278 107.361L310.334 102.361L285.473 87.3612L276.723 91.8056L278.528 85.8334L284.362 85.0001L282.001 82.6389L276.584 81.5278L272.556 82.7778V80.2778L267.278 77.9167L261.306 75.9723L262.417 80.4167L260.056 93.8889C260.056 93.8889 250.612 111.667 250.612 111.528C250.473 111.667 250.751 118.194 251.028 118.194C251.306 118.333 245.751 107.083 245.751 107.083L231.584 86.1112L233.945 87.2223L234.084 76.1112L234.223 74.0278L232.001 76.5278L224.64 82.3612L219.084 85.9723Z" fill="#E6C777"/>
<path d="M227.833 87.5L232.556 100.694L227.972 95.1389L226.583 90L224.083 86.8056L222.556 85.4167L228.945 81.25L231.722 78.75L227.833 87.5Z" fill="#866B10"/>
<path d="M260.055 108.611L269.638 87.9167L257.555 107.778L255.888 117.639L251.444 129.445L242.832 114.167L238.805 108.611L246.86 124.861L248.805 130.833L251.305 135.139L258.666 117.917L260.055 108.611Z" fill="#866B10"/>
<path d="M270.333 101.806L265.194 112.917L267.694 99.7222L275.611 92.5L270.333 101.806Z" fill="#866B10"/>
<path d="M282.278 106.25C282.834 105.555 292.834 98.4719 292.834 98.4719L297.139 98.6108L299.501 99.9997L282.278 106.25Z" fill="#866B10"/>
<path d="M258.249 138.472C258.249 138.472 263.527 133.472 269.082 131.25C269.082 131.25 273.805 132.361 276.86 133.889C280.055 135.417 281.582 136.944 281.582 136.944L258.249 138.472Z" fill="#E6C777"/>
<path d="M194.5 108.472C196.861 108.472 209.916 111.528 209.916 111.528C209.916 111.528 194.639 104.028 194.639 103.75C194.639 103.75 194.361 108.472 194.5 108.472Z" fill="#866B10"/>
<path d="M264.639 90.1389L259.5 100.972L263.389 87.9167L271.722 82.6389L264.639 90.1389Z" fill="#866B10"/>
<path d="M238.806 124.166L220.056 97.4997L211.445 91.1108L213.528 90.833L211.445 88.333L201.861 85.6941L207.417 85.9719L203.389 83.7497L195.056 82.3608L198.945 81.3886L190.195 76.5275L183.111 75.5553L186.028 74.4442L184.361 73.4719L212.972 87.083L221.445 96.9442L232.278 114.166L238.806 124.166Z" fill="#866B10"/>
<path d="M258.944 62.0831C256.583 71.5276 250.194 71.5276 250.194 71.5276L255.61 71.9442L256.305 90.972L249.777 104.305L235.61 86.3887L239.638 70.972C239.638 70.972 235.471 65.4164 234.36 57.222C233.11 47.7776 236.583 42.6387 236.583 42.6387L246.999 43.472L241.166 44.8609C241.166 44.8609 245.194 45.5553 250.61 45.5553C251.027 45.5553 258.805 43.3331 258.805 43.3331C258.805 43.3331 261.305 53.0553 258.944 62.0831Z" fill="#E6C777"/>
<path d="M228.528 39.3054C229.778 36.5276 233.112 34.4443 238.528 32.9165C239.917 32.4998 245.612 31.9443 248.389 32.7776C252.695 33.8887 256.028 35.1387 258.112 36.6665C252.556 38.611 245.473 39.7221 239.084 39.861L243.112 37.4999L232.695 41.111L229.501 45.9721L228.528 39.3054Z" fill="#E6C777"/>
<path d="M231.86 67.7775L233.527 70.5553L228.11 68.472L225.61 60.5553L229.083 51.2498L229.777 52.7775L229.499 59.4442L227.971 59.1664L231.86 67.7775Z" fill="#E6C777"/>
<path d="M265.333 57.6388L264.777 53.3333L262.277 65.6944L265.611 61.9444L265.472 68.3333L267.972 64.3055L266.305 56.111L265.333 57.6388Z" fill="#E6C777"/>
<path d="M242.139 63.7498C242.139 63.7498 244.5 63.0554 246.305 62.7776C248.111 62.4998 251.861 63.7498 251.861 63.7498C250.472 66.2498 244.639 66.6665 242.139 63.7498Z" fill="#866B10"/>
<path d="M244.5 59.722V58.8887L245.611 59.3053L246.444 60.1387L244.5 59.722Z" fill="#866B10"/>
<path d="M257.973 49.861L255.612 50.6943C255.473 50.6943 255.195 50.8332 255.056 50.8332L256.167 50.9721C255.334 51.6665 253.667 52.361 252.14 52.4999L250.334 51.3888L250.751 51.2499L249.64 51.111L250.334 49.861L255.334 49.3054L257.973 49.861Z" fill="#866B10"/>
<path d="M244.917 51.2499L245.056 53.7499L243.389 51.6665L242.278 52.6387C242.278 52.6387 239.778 52.9165 238.25 52.6387C237.278 52.4999 237.278 51.6665 237.278 51.2499L236.167 50.9721L238.389 50.8332C237.695 50.5554 235.473 49.9999 235.473 49.9999L238.25 49.3054L244.362 49.861L244.917 51.2499Z" fill="#866B10"/>
<path d="M188.11 114.583L192.694 111.805L202.277 111.667L212.833 120.555L188.11 114.583Z" fill="#866B10"/>
<path d="M161.028 137.917L160.889 136.667L245.055 142.639L246.166 143.889L161.028 137.917Z" fill="#866B10"/>
<path d="M247.14 145L248.251 146.25L160.89 141.806L160.751 140.695L247.14 145Z" fill="#866B10"/>
<path d="M248.945 147.083L250.057 148.333L161.029 145.417L160.751 143.889L248.945 147.083Z" fill="#866B10"/>
<path d="M258.944 143.611L259.917 142.361L341.305 134.722L340.889 136.25L258.944 143.611Z" fill="#866B10"/>
<path d="M257.694 145.417L258.667 144.167L341.444 138.611L341.305 140L257.694 145.417Z" fill="#866B10"/>
<path d="M256.166 147.778L256.999 146.389L341.583 141.806L341.305 143.333L256.166 147.778Z" fill="#866B10"/>
<path d="M191.444 178.611H176.861V172.361H190.055V168.055H176.861V162.5H191.166V157.917H170.889V183.194H191.444V178.611Z" fill="#05642C"/>
<path d="M223.944 178.611H210.75V157.917H204.777V183.194H223.944V178.611Z" fill="#05642C"/>
<path d="M254.5 166.389H260.333C260.194 164.861 259.777 163.611 259.083 162.5C258.389 161.389 257.555 160.417 256.444 159.583C255.472 158.75 254.222 158.194 252.833 157.778C251.583 157.361 250.055 157.222 248.666 157.222C246.583 157.222 244.777 157.5 243.111 158.194C241.444 158.889 240.055 159.861 238.944 161.111C237.833 162.361 237 163.75 236.305 165.417C235.75 167.083 235.333 168.75 235.333 170.694C235.333 172.5 235.611 174.305 236.305 175.833C236.861 177.361 237.833 178.75 238.944 180C240.055 181.25 241.444 182.083 243.111 182.778C244.777 183.472 246.583 183.75 248.666 183.75C250.333 183.75 251.861 183.472 253.25 183.056C254.639 182.639 255.889 181.944 256.861 180.972C257.833 180.139 258.666 179.028 259.361 177.639C260.055 176.389 260.333 174.861 260.611 173.333H254.777C254.5 175 253.944 176.389 252.833 177.5C251.861 178.611 250.472 179.028 248.527 179.028C247.139 179.028 246.027 178.75 245.055 178.333C244.083 177.778 243.389 177.222 242.833 176.389C242.277 175.556 241.861 174.722 241.583 173.75C241.305 172.778 241.166 171.667 241.166 170.556C241.166 169.444 241.305 168.333 241.583 167.361C241.861 166.25 242.277 165.417 242.833 164.583C243.389 163.75 244.222 163.055 245.055 162.639C246.027 162.083 247.139 161.944 248.527 161.944C249.222 161.944 249.916 162.083 250.611 162.361C251.305 162.639 251.861 162.917 252.416 163.333C252.972 163.75 253.389 164.167 253.805 164.722C254.222 165.139 254.361 165.694 254.5 166.389Z" fill="#05642C"/>
<path d="M279.639 172.361H290.611V183.194H296.583V157.917H290.611V167.639H279.639V157.917H273.806V183.194H279.639V172.361Z" fill="#05642C"/>
<path d="M331.583 178.611H317V172.361H330.194V168.055H317V162.5H331.305V157.917H311.027V183.194H331.583V178.611Z" fill="#05642C"/>
<path d="M228.528 224.167V216.111H235.056V219.306H238.111V216.111H244.639V219.306H247.695V216.111H254.223V219.306H257.278V216.111H263.806V219.306H266.861V216.111H273.389V224.167H269.361V232.917H277.139V239.306H283.25V232.917H296.445V245H206.167V232.917H219.361V239.306H225.611V232.917H233.945V224.167H228.528ZM221.306 245.278L281.445 245.139C284.361 266.111 297 278.056 319.5 282.5V301.806H182.417V283.056C207.834 276.111 220.889 263.611 221.306 245.278ZM265.75 279.584C265.75 279.584 264.917 270 252.834 270C240.75 270 239.639 280.695 239.639 280.695V294.722H265.611L265.75 279.584Z" fill="#E6C777"/>
<path d="M270.334 234.167V223.056H232.417V224.167H233.528V225.278H268.111V231.945H262.695V238.195H258.806V231.945H243.528V238.195H239.639V231.945H234.639V224.167H233.528V225.278V224.167H232.417V234.167H237.417V240.417H245.75V234.167H256.584V240.417H264.917V234.167H270.334Z" fill="#866B10"/>
<path d="M228.528 224.167H229.639V217.222H233.945V219.306V220.278H239.223V217.222H243.528V219.306V220.278H248.806V217.222H253.111V219.306V220.278H258.25V217.222H262.556V219.306V220.278H267.834V217.222H272.139V223.056H228.528V224.167H229.639H228.528V225.278H274.361V215H265.611V218.194H264.778V216.111V215H256.167V218.194H255.334V216.111V215H246.584V218.194H245.75V216.111V215H237V218.194H236.167V216.111V215H227.417V225.278H228.528V224.167Z" fill="#866B10"/>
<path d="M264.639 294.167V293.611H240.334V280.833H239.778L240.334 280.972C240.75 277.778 242.417 275.278 244.639 273.75C246.862 272.083 249.639 271.25 252.556 271.25C255.334 271.25 258.25 272.083 260.334 273.75C262.556 275.417 264.084 277.778 264.362 280.972L264.223 294.306L264.639 294.167H265.195L265.334 280.833C264.917 277.222 263.25 274.583 260.889 272.778C258.528 270.972 255.473 270.139 252.417 270.139C249.362 270.139 246.306 270.972 243.945 272.778C241.445 274.583 239.778 277.222 239.223 280.833V294.722H265.195V294.167H264.639Z" fill="#C4014B"/>
<path d="M217.973 240.417H226.445V234.028H237.417V240.417H245.75V234.028H256.584V240.417H264.917V234.028H275.889V240.417H284.223V234.028H295.056V243.889H205.889V245H207H205.889V246.111H297.278V231.944H282V238.194H278.111V231.944H262.695V238.194H258.806V231.944H243.528V238.194H239.639V231.944H224.223V238.194H220.195V231.944H204.917V246.111H205.889V245H207V234.028H217.973V240.417Z" fill="#866B10"/>
<path d="M282.556 285.278H307V279.861L305.472 279.306H282.556V285.278ZM309.222 285.278H318.389V283.333C315.056 282.639 312 281.806 309.222 280.833V285.278ZM318.528 287.5H295.195V293.75H318.528V287.5ZM295.611 276.944H300.889C298.945 275.833 297.278 274.722 295.611 273.472V276.944ZM285.611 268.611H290.333C288.667 266.806 287.278 264.722 286.028 262.639H285.611V268.611ZM265.472 268.611H283.389V262.639H260.889L266.028 264.722L264.222 267.222L265.472 268.611ZM255.472 262.639H253.389V264.028H255.056L255.472 262.639ZM251.167 264.028V262.639H248.528L249.083 264.028H251.167ZM244.083 262.639H221.306V268.611H239.222L240.195 267.639L238.389 265.694L244.083 262.639ZM237.139 270.833H235.889V272.222H233.667V271.806V270.833H210.056C208.111 272.5 206.028 274.028 203.667 275.417V276.944H231.722L233.667 271.806V272.222H235.889V270.833L236.861 271.111L237.139 270.833ZM234.5 279.306H218.25V285.278H230.75V283.472H234.5V279.306ZM230.889 287.5H208.528V293.75H234.639V291.25H230.889V287.5ZM236.445 293.75H238.528V291.389H236.445V293.75ZM240.333 293.75H264.639V280.972C264.639 279.583 263.25 271.111 252.278 271.111C241.306 271.111 240.333 281.111 240.333 281.111V293.75ZM266.306 293.75H268.389V290.972H266.306V293.75ZM270.333 293.75H292.972V287.5H274.083V290.833H270.333V293.75ZM280.472 279.306H270.333V278.056L273.389 277.083H293.528V271.806L292.695 270.972H270.75L273.389 277.083L270.333 278.194V279.444V283.333H274.083V285.417H280.472V279.306ZM309.639 295.972V300.556H318.528V295.972H309.639ZM307.417 300.556V295.972H274.917V300.556H307.417ZM212.833 300.556H230.333V302.639H240.333V300.556H264.639V295.972H240.333V300.556V302.639H230.333V300.556V295.972H212.833V300.556ZM232.139 300.556H238.389V296.25H232.139V300.556ZM266.306 300.556H273.111V296.389H266.306V300.556ZM183.528 293.75H206.306V287.5H183.528V293.75ZM210.611 295.972H183.528V300.556H210.611V295.972ZM183.528 285.278H183.945V283.611L183.528 283.75V285.278ZM186.167 285.278H216.167V279.306H196.306C193.25 280.694 189.917 281.944 186.167 283.056V285.278ZM201.028 276.944H201.583V276.667L201.028 276.944ZM212.556 268.611H219.083V262.639H217.278C216.028 264.722 214.361 266.667 212.556 268.611ZM218.667 260.278H236.583V254.306H221.028C220.472 256.389 219.639 258.472 218.667 260.278ZM238.806 260.278H268.667V254.306H238.806V260.278ZM270.889 260.278H284.778C283.806 258.333 282.972 256.389 282.417 254.306H270.889V260.278ZM221.583 252.083H250.889V246.111H222.417C222.278 248.194 222 250.139 221.583 252.083ZM253.111 252.083H281.722C281.167 250.139 280.75 248.194 280.472 246.111H253.111V252.083ZM218.528 243.889H282.417L282.556 244.861C283.945 255.139 287.833 263.194 293.945 269.167C297.278 272.361 301.167 275 305.889 277.083C310.056 278.889 314.639 280.278 319.917 281.389L320.75 281.528V302.917H181.306V282.222L182.139 281.944C194.778 278.611 204.222 273.75 210.472 267.639C216.583 261.667 219.917 254.444 220.195 245.694L218.528 243.889ZM272.139 289.028V285H266.445L266.306 289.028H272.139ZM268.389 283.056L268.528 278.75L266.306 279.444C266.306 279.444 266.583 280.417 266.445 280.833V283.056H268.389ZM269.222 272.361L266.167 273.75L264.222 274.722C264.917 275.694 265.333 276.528 265.75 277.639L270.75 275.972L269.222 272.361ZM263.111 268.75L261.028 271.528C261.861 272.083 262.278 272.5 262.972 273.194L265.889 271.806L263.111 268.75ZM259.222 270.417L261.445 267.639L262.972 265.417L257.139 263.056L257 263.889L255.75 269.444C257.139 269.722 258.111 270 259.222 270.417ZM253.667 269.167L254.639 265.833H249.917L251.028 269.306C252 269.167 252.695 269.167 253.667 269.167ZM248.945 269.583L246.722 263.333L241.306 266.111L245.611 270.694C247 270.139 247.278 270 248.945 269.583ZM241.306 268.889L238.806 271.944L242.278 273.194C242.833 272.639 243.389 272.222 244.083 271.806L241.306 268.889ZM235.333 272.639L233.945 276.25L239.083 277.917C239.5 276.806 239.917 275.833 240.611 274.861L237 273.333L235.333 272.639ZM238.667 279.861L236.445 279.167L236.583 283.472H238.528V280.833L238.667 279.861ZM238.389 285.278H232.695V289.306H238.389V285.278Z" fill="#866B10"/>
<path d="M248.806 327.778L314.222 352.639L315.195 354.028H299.639V374.861H307.556V388.194H299.222L299.083 393.611H307.417V399.861H190.195V394.028H197.833V387.917H190.611V374.583H198.528V354.167H180.056V353.333L248.806 327.778ZM220.611 387.917V393.75H277.139V387.917H220.611Z" fill="#E6C777"/>
<path d="M205.889 375.556V386.389H210.612V375.556H205.889ZM203.806 386.528V375.694H199.084V386.528H203.806ZM212.834 375.556V386.389H217.556V375.556H212.834ZM219.778 375.556V386.389H224.501V375.556H219.778ZM226.584 375.556V386.389H231.306V375.556H226.584ZM233.528 375.556V386.389H238.251V375.556H233.528ZM240.334 375.556V386.389H245.056V375.556H240.334ZM247.278 375.556V386.389H252.001V375.556H247.278ZM254.223 375.556V386.389H258.945V375.556H254.223ZM261.028 375.556V386.389H265.751V375.556H261.028ZM267.973 375.556V386.389H272.695V375.556H267.973ZM274.917 375.556V386.389H279.639V375.556H274.917ZM281.723 375.556V386.389H286.445V375.556H281.723ZM288.667 375.556V386.389H293.389V375.556H288.667ZM295.612 375.556V386.389H300.334V375.556H295.612ZM302.417 375.556V386.389H306.306V375.556H302.417ZM307.695 351.25V352.222H310.334L307.695 351.25ZM305.473 352.222V350.278L300.751 348.472V352.222H305.473ZM300.751 346.111L316.584 352.222L316.167 354.305H301.028V373.333H308.251V388.333H300.056V392.222H308.389V400.139H189.362V392.222H196.862V388.333H189.501V373.333H196.306V354.444H178.945L178.528 352.361L248.806 325.972L300.751 346.111ZM298.667 352.222V347.639L293.945 345.833V352.222H298.667ZM291.723 352.222V345L287.001 343.194V352.222H291.723ZM284.917 352.222V342.222L280.195 340.417V352.222H284.917ZM277.973 352.222V339.583L273.251 337.778V352.222H277.973ZM271.028 352.222V336.944L266.306 335.139V352.222H271.028ZM264.223 352.222V334.306L259.501 332.5V352.361H264.223V352.222ZM257.278 352.222V331.528L252.556 329.722V352.222H257.278ZM250.334 352.222V328.889L248.806 328.333L245.612 329.583V352.361L250.334 352.222ZM243.528 352.222V330.278L238.806 332.083V352.222H243.528ZM236.584 352.222V332.917L231.862 334.722V352.361H236.584V352.222ZM229.639 352.222V335.417L224.917 337.222V352.222H229.639ZM222.834 352.222V338.056L218.112 339.861V352.222H222.834ZM215.889 352.222V340.556L211.167 342.361V352.222H215.889ZM209.084 352.222V343.194L204.362 345V352.222H209.084ZM202.139 352.222V345.833L197.417 347.639V352.361H202.139V352.222ZM195.195 352.222V348.333L190.473 350.139V352.222H195.195ZM188.389 352.222V350.972L185.056 352.222H188.389ZM191.584 394.722V398.333H306.445V394.722H191.584ZM276.028 388.611H221.862V392.5H276.028V388.611ZM278.251 388.611V392.5H298.112V388.611H278.251ZM199.084 388.611V392.5H219.778V388.611H199.084ZM192.139 375.556V386.389H196.862V375.556H192.139ZM200.195 355.278V372.639H297.278V355.278H200.195Z" fill="#866B10"/>
</g>
<defs>
<clipPath id="clip0_1173_5812">
<rect width="500" height="500" fill="white"/>
</clipPath>
</defs>
</svg>
