<svg width="500" height="500" viewBox="0 0 500 500" fill="none" xmlns="http://www.w3.org/2000/svg">
<path fill-rule="evenodd" clip-rule="evenodd" d="M161.583 148.611V185.139L161.722 191.806H339.916V185.417V146.25H344.916V130.278L335.194 130.833L333.528 129.722L324.778 124.028L323.805 121.945L323.528 114.722L317.139 108.333L314.778 108.195L313.389 102.361L286.028 85.139L284.222 81.6668L280.333 80.5557L274.778 79.7223L263.528 74.7223L269.361 70.2779L270.333 64.7223L264.083 42.2223L260.889 38.7501L260.472 36.389C260.472 36.389 249.639 31.6668 246.722 31.1112C245.194 30.8334 238.528 31.6668 236.444 32.3612C232.555 33.7501 229.639 35.5557 227.278 37.9168L227.416 40.4168L224.5 61.389L227.972 73.3334L231.583 74.8612L216.722 84.4446L191.722 69.3057C182.972 66.2501 173.666 66.2501 164.083 69.0279L170.055 71.6668L167.139 73.7501L175.75 74.8612L173.389 78.1946L182.694 80.5557L178.389 82.2223L186.583 83.889L183.944 85.5557L197 87.639L194.222 88.6112L205.75 91.8057L202.555 93.889L189.5 102.639L190.055 107.361L172 121.945L172.416 133.056L157.139 131.806V148.611H161.583ZM338.388 190.416H163.11L163.249 147.222V148.611L252.416 150.139L338.388 146.389V190.416ZM191.444 178.611H176.861V172.361H190.055V168.055H176.861V162.5H191.166V157.917H170.889V183.194H191.444V178.611ZM210.75 178.611H223.944V183.194H204.777V157.917H210.75V178.611ZM254.5 166.389H260.333C260.194 164.861 259.777 163.611 259.083 162.5C258.389 161.389 257.555 160.417 256.444 159.583C255.472 158.75 254.222 158.194 252.833 157.778C251.583 157.361 250.055 157.222 248.666 157.222C246.583 157.222 244.777 157.5 243.111 158.194C241.444 158.889 240.055 159.861 238.944 161.111C237.833 162.361 237 163.75 236.305 165.417C235.75 167.083 235.333 168.75 235.333 170.694C235.333 172.5 235.611 174.305 236.305 175.833C236.861 177.361 237.833 178.75 238.944 180C240.055 181.25 241.444 182.083 243.111 182.778C244.777 183.472 246.583 183.75 248.666 183.75C250.333 183.75 251.861 183.472 253.25 183.056C254.639 182.639 255.889 181.944 256.861 180.972C257.833 180.139 258.666 179.028 259.361 177.639C260.055 176.389 260.333 174.861 260.611 173.333H254.777C254.5 175 253.944 176.389 252.833 177.5C251.861 178.611 250.472 179.028 248.527 179.028C247.139 179.028 246.027 178.75 245.055 178.333C244.083 177.778 243.389 177.222 242.833 176.389C242.277 175.556 241.861 174.722 241.583 173.75C241.305 172.778 241.166 171.667 241.166 170.556C241.166 169.444 241.305 168.333 241.583 167.361C241.861 166.25 242.277 165.417 242.833 164.583C243.389 163.75 244.222 163.055 245.055 162.639C246.027 162.083 247.139 161.944 248.527 161.944C249.222 161.944 249.916 162.083 250.611 162.361C251.305 162.639 251.861 162.917 252.416 163.333C252.972 163.75 253.389 164.167 253.805 164.722C254.222 165.139 254.361 165.694 254.5 166.389ZM290.611 172.361H279.639V183.194H273.806V157.917H279.639V167.639H290.611V157.917H296.583V183.194H290.611V172.361ZM331.583 178.611H317V172.361H330.194V168.055H317V162.5H331.305V157.917H311.027V183.194H331.583V178.611ZM212.139 136.667L174.778 133.472L174.5 122.917L192.417 108.611L192.139 103.75L203.528 97.0833L216.861 102.917L218.944 107.639C218.944 107.639 222.556 111.528 224.5 113.889C225.207 114.797 225.803 115.761 226.43 116.773C227.527 118.546 228.717 120.466 230.75 122.5C233.944 125.694 239.222 128.75 239.222 128.75L235.472 130C235.472 130 227.694 130.972 227.278 130.278C227 129.583 221.444 127.639 221.444 127.639C221.444 127.639 221.167 119.444 220.75 119.028C220.333 118.611 213.806 112.639 213.806 112.639L219.222 122.5L219.5 128.889C219.5 128.889 216.722 131.528 214.361 132.778C212 134.028 212.139 136.667 212.139 136.667ZM204.916 122.5C202.416 122.222 192.972 129.166 192.972 129.166C192.972 129.166 200.194 126.111 202.555 125.694C203.131 125.53 204.488 125.219 206.106 124.848C207.217 124.593 208.451 124.31 209.638 124.028L208.249 122.639C207.436 122.639 206.67 122.591 206.035 122.552C205.587 122.524 205.204 122.5 204.916 122.5ZM194.5 108.472C196.861 108.472 209.917 111.528 209.917 111.528C209.917 111.528 194.639 104.028 194.639 103.75C194.639 103.75 194.361 108.472 194.5 108.472ZM192.694 111.805L188.11 114.583L212.833 120.555L202.277 111.667L192.694 111.805ZM238.528 32.9165C233.112 34.4443 229.778 36.5276 228.528 39.3054L229.501 45.9721L232.695 41.111L243.112 37.4999L239.084 39.861C245.473 39.7221 252.556 38.611 258.112 36.6665C256.028 35.1387 252.695 33.8887 248.389 32.7776C245.612 31.9443 239.917 32.4998 238.528 32.9165ZM216.583 98.1944L207.416 92.4999L208.11 90.9722L197.833 88.6111L200.472 87.0833L186.86 85.1388L190.055 83.3333L181.444 82.2222L186.305 80.4166L175.055 77.7777L177.972 74.1666L169.638 73.4722L172.972 71.9444L168.666 69.5833C172.972 67.6388 186.166 67.9166 191.999 70.6944L203.944 78.0555L215.61 84.9999L223.11 94.7222C223.11 94.7222 231.027 105.417 233.11 109.583C234.117 111.596 236.096 115.359 237.982 118.947C240.001 122.785 241.913 126.423 242.416 127.5C243.388 129.722 248.388 139.167 248.388 139.167L246.999 137.083L241.305 129.028L234.777 123.75L229.777 117.5L223.805 108.333L217.694 101.389L219.499 101.528L215.055 98.3333L216.583 98.1944ZM220.056 97.4997L238.806 124.166L232.278 114.166L221.445 96.9442L212.972 87.083L184.361 73.4719L186.028 74.4442L183.111 75.5553L190.195 76.5275L198.945 81.3886L195.056 82.3608L203.389 83.7497L207.417 85.9719L201.861 85.6942L211.445 88.333L213.528 90.833L211.445 91.1108L220.056 97.4997ZM219.084 85.9723L235.751 109.445L249.501 140L251.306 142.083L255.195 139.028L260.334 123.611L261.306 120.972L260.89 126.389L267.556 122.778L274.223 113.056L271.028 121.528L277.417 120.833L262.278 127.361L259.501 132.778C259.501 132.778 269.778 128.194 272.001 127.917C272.278 127.917 285.89 132.917 288.528 135.417C289.917 136.667 331.167 131.111 331.167 131.111L319.778 122.778C319.778 122.778 316.028 118.75 309.362 118.75C302.729 118.75 297.746 124.249 297.832 124.305L289.501 122.222L296.723 121.25L307.556 116.944L320.334 114.722L315.473 109.445L300.612 109.028L291.445 117.083L297.278 107.361L310.334 102.361L285.473 87.3612L276.723 91.8056L278.528 85.8334L284.362 85.0001L282.001 82.6389L276.584 81.5278L272.556 82.7778V80.2778L267.278 77.9167L261.306 75.9723L262.417 80.4167L260.056 93.8889C260.056 93.8889 250.612 111.667 250.612 111.528C250.493 111.647 250.679 116.435 250.909 117.822C250.097 115.885 245.751 107.083 245.751 107.083L231.584 86.1112L233.945 87.2223L234.084 76.1112L234.223 74.0278L232.001 76.5278L224.64 82.3612L219.084 85.9723ZM227.833 87.5L232.556 100.694L227.972 95.1389L226.583 90L224.083 86.8056L222.556 85.4167L228.945 81.25L231.722 78.75L227.833 87.5ZM269.638 87.9167L260.055 108.611L258.666 117.917L251.305 135.139L248.805 130.833L246.86 124.861L238.805 108.611L242.832 114.167L251.444 129.445L255.888 117.639L257.555 107.778L269.638 87.9167ZM270.333 101.806L265.194 112.917L267.694 99.7222L275.611 92.5L270.333 101.806ZM292.834 98.4719C292.834 98.4719 282.834 105.555 282.278 106.25L299.501 99.9997L297.139 98.6108L292.834 98.4719ZM264.639 90.1389L259.5 100.972L263.389 87.9167L271.722 82.6389L264.639 90.1389ZM220.055 137.361L224.221 131.667C224.221 131.667 226.582 132.083 230.332 131.944C234.082 131.805 236.721 131.25 236.721 131.25L239.499 130.833L246.444 138.611L243.249 139.305L240.61 138.611L225.471 137.917L220.055 137.361ZM258.249 138.472C258.249 138.472 263.527 133.472 269.082 131.25C269.082 131.25 273.805 132.361 276.86 133.889C280.055 135.417 281.582 136.944 281.582 136.944L258.249 138.472ZM231.86 67.7775L233.527 70.5553L228.11 68.472L225.61 60.5553L229.083 51.2498L229.777 52.7775L229.499 59.4442L227.971 59.1664L231.86 67.7775ZM264.777 53.3333L265.333 57.6388L266.305 56.111L267.972 64.3055L265.472 68.3333L265.611 61.9444L262.277 65.6944L264.777 53.3333ZM258.944 62.0831C256.583 71.5276 250.194 71.5276 250.194 71.5276L255.61 71.9442L256.305 90.972L249.777 104.305L235.61 86.3887L239.638 70.972C239.638 70.972 235.471 65.4165 234.36 57.222C233.11 47.7776 236.583 42.6387 236.583 42.6387L246.999 43.472L241.166 44.8609C241.166 44.8609 245.194 45.5553 250.61 45.5553C251.027 45.5553 258.805 43.3331 258.805 43.3331C258.805 43.3331 261.305 53.0553 258.944 62.0831ZM242.139 63.7498C242.139 63.7498 244.5 63.0554 246.305 62.7776C248.111 62.4998 251.861 63.7498 251.861 63.7498C250.472 66.2498 244.639 66.6665 242.139 63.7498ZM245.611 59.3053L244.5 58.8887V59.722L246.444 60.1387L245.611 59.3053ZM257.973 49.861L255.612 50.6943C255.542 50.6943 255.438 50.729 255.334 50.7637C255.23 50.7985 255.126 50.8332 255.056 50.8332L256.167 50.9721C255.334 51.6665 253.667 52.361 252.14 52.4999L250.334 51.3888L250.751 51.2499L249.64 51.111L250.334 49.861L255.334 49.3054L257.973 49.861ZM245.056 53.7499L244.917 51.2499L244.362 49.861L238.25 49.3054L235.473 49.9999C235.473 49.9999 237.695 50.5554 238.389 50.8332L236.167 50.9721L237.278 51.2499C237.278 51.6665 237.278 52.4999 238.25 52.6387C239.778 52.9165 242.278 52.6387 242.278 52.6387L243.389 51.6665L245.056 53.7499ZM158.667 146.945V133.611L246.028 141.25L252.139 144.722L257.834 140.833L343.25 131.667V144.722H342.834L252.417 148.889L158.667 146.945ZM160.889 136.667L161.028 137.917L246.166 143.889L245.055 142.639L160.889 136.667ZM247.14 145L248.251 146.25L160.89 141.806L160.751 140.695L247.14 145ZM250.057 148.333L248.945 147.083L160.751 143.889L161.029 145.417L250.057 148.333ZM258.944 143.611L259.917 142.361L341.305 134.722L340.889 136.25L258.944 143.611ZM258.667 144.167L257.694 145.417L341.305 140L341.444 138.611L258.667 144.167ZM256.166 147.778L256.999 146.389L341.583 141.806L341.305 143.333L256.166 147.778Z" fill="white"/>
<path fill-rule="evenodd" clip-rule="evenodd" d="M452.834 103.333C395.473 90.6943 345.612 54.7221 317.973 1.24988L182.556 1.80544C161.028 48.7499 116.167 82.4999 47.9727 103.194V200.555C81.1671 232.5 103.667 277.222 120.334 341.528C142.556 420.555 191.167 464.167 250.195 499.028C326.167 445.694 357.417 406.389 380.612 335.139C398.945 273.333 422.973 228.889 452.834 201.944V103.333ZM192.416 22.6389C178.249 50.9722 156.305 70.4167 134.222 85.6945V191.528H363.666V84.7223C343.249 69.5834 322.277 47.2222 307.694 22.6389H192.416ZM68.8051 191.389C68.8054 191.389 68.8056 191.389 68.8059 191.389H68.8051ZM68.5273 114.583C68.5273 114.583 68.9425 191.25 68.8059 191.389H120.75V94.1667C104.222 103.75 86.7218 110.695 68.5273 114.583ZM113.667 140.417H104.639C104.5 139.028 104.222 137.778 103.528 136.667C102.972 135.555 102.278 134.444 101.445 133.611C100.611 132.778 99.6391 132.083 98.528 131.667C97.4169 131.111 96.3058 130.833 95.1947 130.833C92.9724 130.833 91.3058 131.389 89.778 132.5C88.2502 133.472 87.1391 134.861 86.1669 136.667C85.1947 138.333 84.5002 140.417 84.0835 142.639C83.6669 144.861 83.528 147.222 83.528 149.583C83.528 151.944 83.6669 154.167 84.0835 156.389C84.6391 158.472 85.1947 160.417 86.1669 162.222C87.1391 163.889 88.2502 165.278 89.778 166.389C91.3058 167.361 93.1113 167.917 95.1947 167.917C98.1113 167.917 100.334 166.805 101.861 164.583C103.389 162.361 104.361 159.444 104.778 155.694H113.806C113.667 159.167 112.972 162.222 112 165C111.028 167.778 109.778 170.139 108.111 172.083C106.445 174.028 104.639 175.555 102.417 176.528C100.195 177.5 97.8335 178.055 95.1947 178.055C92.0002 178.055 89.0835 177.361 86.4447 175.972C83.9447 174.444 81.7224 172.361 79.9169 169.861C78.1113 167.222 76.7224 164.305 75.7502 160.833C74.778 157.361 74.3613 153.611 74.3613 149.583C74.3613 145.417 74.778 141.667 75.7502 138.194C76.7224 134.722 78.1113 131.667 79.9169 129.028C81.7224 126.389 83.8058 124.444 86.4447 122.917C88.9447 121.389 92.0002 120.694 95.1947 120.694C97.5558 120.694 99.778 121.111 101.861 121.944C103.945 122.917 105.75 124.167 107.417 125.833C109.084 127.361 110.472 129.444 111.584 131.944C112.695 134.444 113.389 137.222 113.667 140.417ZM432.972 116.667C412.834 111.944 394.222 104.306 377 93.75H376.861V191.528H432.834L432.972 116.667ZM420.332 135H398.666V148.333H417.416V158.333H398.666V182.361H388.805V124.305H420.332V135ZM134.916 322.222C134.916 322.222 143.666 373.194 170.888 405.139H327.277C353.96 370.2 362.294 339.693 365.778 326.941C366.338 324.891 366.773 323.299 367.138 322.222H134.916ZM175.334 356.667H180.473V378.611H175.334V356.667ZM336.723 328.889H331.584V350.833H336.723V328.889ZM311.722 378.194L320.472 356.25H325.749L334.499 378.194H329.222L327.416 373.333H318.666L316.861 378.194H311.722ZM323.111 361.528L320.055 369.583H326.027L323.111 361.528ZM174.5 336.25H179.5C179.362 335 178.945 333.889 178.389 332.916C177.834 331.944 177 331.111 176.167 330.416C175.334 329.722 174.223 329.166 173.112 328.889C172 328.472 170.75 328.333 169.5 328.333C167.695 328.333 166.167 328.611 164.639 329.166C163.25 329.722 162 330.555 161.028 331.666C160.056 332.777 159.362 333.889 158.806 335.277C158.25 336.666 157.973 338.194 157.973 339.861C157.973 341.389 158.25 342.916 158.806 344.305C159.362 345.694 160.056 346.805 161.028 347.916C162 348.889 163.25 349.722 164.639 350.277C166.028 350.833 167.695 351.111 169.5 351.111C170.889 351.111 172.278 350.972 173.389 350.555C174.639 350.139 175.612 349.583 176.584 348.75C177.417 347.916 178.25 347.083 178.806 345.972C179.362 344.861 179.639 343.611 179.778 342.222H174.778C174.639 343.75 174.084 344.861 173.112 345.833C172.278 346.666 171.028 347.222 169.5 347.222C168.389 347.222 167.417 346.944 166.584 346.666C165.75 346.25 165.195 345.694 164.639 345C164.084 344.305 163.806 343.472 163.528 342.639C163.25 341.805 163.25 340.833 163.25 340C163.25 339.027 163.389 338.055 163.528 337.222C163.806 336.389 164.084 335.555 164.639 334.861C165.195 334.166 165.75 333.611 166.584 333.194C167.417 332.777 168.389 332.5 169.5 332.5C170.195 332.5 170.75 332.639 171.306 332.777C171.862 332.916 172.417 333.194 172.834 333.611C172.896 333.673 172.957 333.731 173.019 333.788C173.046 333.814 173.073 333.839 173.1 333.864L173.151 333.91L173.151 333.91L173.151 333.91C173.454 334.188 173.738 334.447 173.945 334.861C174.223 335.139 174.362 335.694 174.5 336.25ZM205.889 386.389V375.556H210.612V386.389H205.889ZM203.806 375.694V386.528H199.084V375.694H203.806ZM212.834 386.389V375.556H217.556V386.389H212.834ZM219.778 386.389V375.556H224.501V386.389H219.778ZM226.584 386.389V375.556H231.306V386.389H226.584ZM233.528 386.389V375.556H238.251V386.389H233.528ZM240.334 386.389V375.556H245.056V386.389H240.334ZM247.278 386.389V375.556H252.001V386.389H247.278ZM254.223 386.389V375.556H258.945V386.389H254.223ZM261.028 386.389V375.556H265.751V386.389H261.028ZM267.973 386.389V375.556H272.695V386.389H267.973ZM274.917 386.389V375.556H279.639V386.389H274.917ZM281.723 386.389V375.556H286.445V386.389H281.723ZM288.667 386.389V375.556H293.389V386.389H288.667ZM295.612 386.389V375.556H300.334V386.389H295.612ZM302.417 386.389V375.556H306.306V386.389H302.417ZM307.695 352.222V351.25L310.334 352.222H307.695ZM305.473 350.278V352.222H300.751V348.472L305.473 350.278ZM316.584 352.222L300.751 346.111L248.806 325.972L178.528 352.361L178.945 354.444H196.306V373.333H189.501V388.333H196.862V392.222H189.362V400.139H308.389V392.222H300.056V388.333H308.251V373.333H301.028V354.305H316.167L316.584 352.222ZM298.667 347.639V352.222H293.945V345.833L298.667 347.639ZM291.723 345V352.222H287.001V343.194L291.723 345ZM284.917 342.222V352.222H280.195V340.417L284.917 342.222ZM277.973 339.583V352.222H273.251V337.778L277.973 339.583ZM271.028 336.944V352.222H266.306V335.139L271.028 336.944ZM264.223 334.306V352.222V352.361H259.501V332.5L264.223 334.306ZM257.278 331.528V352.222H252.556V329.722L257.278 331.528ZM250.334 328.889V352.222L245.612 352.361V329.583L248.806 328.333L250.334 328.889ZM243.528 330.278V352.222H238.806V332.083L243.528 330.278ZM236.584 332.917V352.222V352.361H231.862V334.722L236.584 332.917ZM229.639 335.417V352.222H224.917V337.222L229.639 335.417ZM222.834 338.056V352.222H218.112V339.861L222.834 338.056ZM215.889 340.556V352.222H211.167V342.361L215.889 340.556ZM209.084 343.194V352.222H204.362V345L209.084 343.194ZM202.139 345.833V352.222V352.361H197.417V347.639L202.139 345.833ZM195.195 348.333V352.222H190.473V350.139L195.195 348.333ZM188.389 350.972V352.222H185.056L188.389 350.972ZM191.584 398.333V394.722H306.445V398.333H191.584ZM221.862 388.611H276.028V392.5H221.862V388.611ZM278.251 392.5V388.611H298.112V392.5H278.251ZM199.084 392.5V388.611H219.778V392.5H199.084ZM192.139 386.389V375.556H196.862V386.389H192.139ZM200.195 372.639V355.278H297.278V372.639H200.195ZM249.778 476.111C228.25 464.305 203.945 444.861 190.056 429.444H306.167C292.695 443.472 270.611 462.5 249.778 476.111ZM324.223 409.722H173.667C177.417 414.722 181.584 419.306 186.584 424.306H311.028L324.223 409.722ZM82.417 211.805C99.6392 230.555 118.111 268.889 129.361 306.389H372.695C383.389 272.778 398.667 238.194 420.611 211.805H82.417ZM272.139 223.056H229.639V217.222H233.945V219.306V220.278H239.223V217.222H243.528V219.306V220.278H248.806V217.222H253.111V219.306V220.278H258.25V217.222H262.556V219.306V220.278H267.834V217.222H272.139V223.056ZM228.528 225.278H232.417V231.944H224.223V238.194H220.195V231.944H204.917V246.111H205.889H220.179C219.81 254.674 216.486 261.762 210.472 267.639C204.222 273.75 194.778 278.611 182.139 281.944L181.306 282.222V302.917H320.75V281.528L319.917 281.389C314.639 280.278 310.056 278.889 305.889 277.083C301.167 275 297.278 272.361 293.945 269.167C288.083 263.439 284.266 255.794 282.739 246.111H297.278V231.944H282V238.194H278.111V231.944H270.334V225.278H274.361V215H265.611V218.194H264.778V216.111V215H256.167V218.194H255.334V216.111V215H246.584V218.194H245.75V216.111V215H237V218.194H236.167V216.111V215H227.417V225.278H228.528ZM264.917 234.167H270.334V234.028H275.889V240.417H284.223V234.028H295.056V243.889H207V234.028H217.973V240.417H226.445V234.028H232.417V234.167H237.417V240.417V240.417H245.75V240.417V234.167H256.584V240.417H264.917V240.417V234.167ZM268.111 231.944V225.278H234.639V231.944H239.639V231.945V238.194H243.528V231.945H258.806V238.195L262.695 238.194V231.945V231.944H268.111ZM282.556 285.278H307V279.861L305.472 279.306H282.556V285.278ZM309.222 285.278H318.389V283.333C315.056 282.639 312 281.806 309.222 280.833V285.278ZM318.528 287.5H295.195V293.75H318.528V287.5ZM295.611 276.944H300.889C298.945 275.833 297.278 274.722 295.611 273.472V276.944ZM285.611 268.611H290.333C288.667 266.806 287.278 264.722 286.028 262.639H285.611V268.611ZM283.389 268.611V262.639H260.889L266.028 264.722L264.222 267.222L265.472 268.611H283.389ZM255.472 262.639H253.389V264.028H255.056L255.472 262.639ZM251.167 262.639H248.528L249.083 264.028H251.167V262.639ZM244.083 262.639H221.306V268.611H239.222L240.195 267.639L238.389 265.694L244.083 262.639ZM237.139 270.833H235.889L236.861 271.111L237.139 270.833ZM233.667 271.806V270.833H210.056C208.111 272.5 206.028 274.028 203.667 275.417V276.944H231.722L233.667 271.806ZM234.5 279.306H218.25V285.278H230.75V283.472H234.5V279.306ZM230.889 287.5H208.528V293.75H234.639V291.25H230.889V287.5ZM236.445 293.75H238.528V291.389H236.445V293.75ZM240.333 293.75H264.639V280.972C264.639 279.583 263.25 271.111 252.278 271.111C241.306 271.111 240.333 281.111 240.333 281.111V293.75ZM268.389 293.75V290.972H266.306V293.75H268.389ZM292.972 293.75V287.5H274.083V290.833H270.333V293.75H292.972ZM273.389 277.083H293.528V271.806L292.695 270.972H270.75L273.389 277.083ZM270.333 279.306V279.444V283.333H274.083V285.417H280.472V279.306H270.333ZM309.639 295.972V300.556H318.528V295.972H309.639ZM307.417 300.556V295.972H274.917V300.556H307.417ZM212.833 300.556H230.333V295.972H212.833V300.556ZM240.333 300.556H264.639V295.972H240.333V300.556ZM232.139 300.556H238.389V296.25H232.139V300.556ZM266.306 300.556H273.111V296.389H266.306V300.556ZM183.528 293.75H206.306V287.5H183.528V293.75ZM210.611 295.972H183.528V300.556H210.611V295.972ZM183.528 285.278H183.945V283.611L183.528 283.75V285.278ZM186.167 285.278H216.167V279.306H196.306C193.25 280.694 189.917 281.944 186.167 283.056V285.278ZM201.028 276.944H201.583V276.667L201.028 276.944ZM212.556 268.611H219.083V262.639H217.278C216.028 264.722 214.361 266.667 212.556 268.611ZM218.667 260.278H236.583V254.306H221.028C220.472 256.389 219.639 258.472 218.667 260.278ZM238.806 260.278H268.667V254.306H238.806V260.278ZM270.889 260.278H284.778C283.806 258.333 282.972 256.389 282.417 254.306H270.889V260.278ZM221.583 252.083H250.889V246.111H222.417C222.278 248.194 222 250.139 221.583 252.083ZM253.111 252.083H281.722C281.167 250.139 280.75 248.194 280.472 246.111H253.111V252.083ZM272.139 289.028V285H266.445L266.306 289.028H272.139ZM268.389 283.056L268.528 278.75L266.306 279.444C266.306 279.444 266.583 280.417 266.445 280.833V283.056H268.389ZM264.222 274.722C264.917 275.694 265.333 276.528 265.75 277.639L270.75 275.972L269.222 272.361L266.167 273.75L264.222 274.722ZM263.111 268.75L261.028 271.528C261.861 272.083 262.278 272.5 262.972 273.194L262.972 273.194L262.972 273.194L265.889 271.806L263.111 268.75ZM259.222 270.417L261.445 267.639L262.972 265.417L257.139 263.056L257 263.889L255.75 269.444C257.139 269.722 258.111 270 259.222 270.417ZM253.667 269.167L254.639 265.833H249.917L251.028 269.306C252 269.167 252.695 269.167 253.667 269.167ZM248.945 269.583L246.722 263.333L241.306 266.111L245.611 270.694C245.746 270.641 245.87 270.591 245.986 270.544C247.067 270.109 247.44 269.96 248.945 269.583ZM241.306 268.889L238.806 271.944L242.278 273.194C242.833 272.639 243.389 272.222 244.083 271.806L241.306 268.889ZM235.333 272.639L233.945 276.25L239.083 277.917C239.5 276.806 239.917 275.833 240.611 274.861L237 273.333L235.333 272.639ZM238.667 279.861L236.445 279.167L236.583 283.472H238.528V280.833L238.667 279.861ZM238.389 285.278H232.695V289.306H238.389V285.278Z" fill="white"/>
</svg>
