<svg width="500" height="500" viewBox="0 0 500 500" fill="none" xmlns="http://www.w3.org/2000/svg">
<path d="M389.325 231.865C371.575 206.772 347.335 186.977 319.2 174.6C323.606 173.615 327.675 171.489 331 168.435C336.2 163.555 338.075 155.97 335.8 149.055C336.675 147.94 337.37 146.83 338.045 145.755L338.78 144.605C343.239 137.638 346.87 130.174 349.6 122.365C352.315 114.45 354.73 105.585 353.995 94.3951C353.65 89.8101 352.37 86.2251 351.245 83.0601L350.815 81.8351C349.42 78.0601 347.6 75.4751 345.84 72.9701L345.495 72.4701C339.56 63.9951 330.87 58.5501 320.38 56.7301C315.615 55.8801 309.58 56.0251 305.04 57.1001C304.311 57.2742 303.593 57.4912 302.89 57.7501C301.373 56.0968 299.719 54.5747 297.945 53.2001C292.265 48.7001 282.18 44.2201 270.865 45.1401C270.54 45.1701 270.215 45.2101 269.895 45.2501C269.759 44.6594 269.596 44.0754 269.405 43.5001C269.197 42.8109 268.939 42.1375 268.635 41.4851C268.489 41.1402 268.335 40.7985 268.175 40.4601L267.71 39.6101C267.503 39.2378 267.286 38.871 267.06 38.5101C266.821 38.1021 266.552 37.7127 266.255 37.3451C265.882 36.8342 265.487 36.3403 265.07 35.8651L264.5 35.2701L264.4 35.1701H268.325V13.3201H260.41V5.19507H239.175V13.3251H231.28V35.1751H235.18C232.708 37.7018 230.92 40.8163 229.985 44.2251C229.84 44.7088 229.711 45.1974 229.6 45.6901C228.537 45.5833 227.469 45.5266 226.4 45.5201C216.69 45.5201 207.72 48.7701 201.155 54.6401C199.869 55.7868 198.666 57.0232 197.555 58.3401C196.327 57.9409 195.075 57.6235 193.805 57.3901C192.51 57.2059 191.209 57.0642 189.905 56.9651L188.945 56.8651L188.565 56.8151L186.675 56.5401L186.66 56.6901C184.13 56.6001 181.78 57.0701 180.075 57.3901C179.8 57.4501 179.54 57.4801 179.095 57.5401L177.905 57.7401C162.18 61.4501 150.475 74.0551 147.365 90.6101C146.66 94.299 146.435 98.0635 146.695 101.81C147.78 117.765 152.845 128.575 158.385 139.155L159 140.305C160.525 143.19 162.385 146.705 164.85 149.69C163.65 153.37 163.665 157.77 164.935 161.71C166.765 167.27 171.11 171.595 177.16 173.89C178.12 174.255 179.115 174.56 180.14 174.81C152.036 187.28 127.852 207.158 110.175 232.315C90.435 260.385 80 293.295 80 327.495C80 419.83 156.235 494.95 249.935 494.95C343.6 494.95 419.815 419.83 419.815 327.495C419.815 293.1 409.27 260.035 389.325 231.865Z" fill="#FEFEFE"/>
<path d="M88.4004 328.17C88.4004 240.42 160.71 169.27 249.935 169.27C339.105 169.27 411.415 240.42 411.415 328.17C411.415 415.92 339.105 487.065 249.935 487.065C160.71 487.065 88.4004 415.92 88.4004 328.17Z" fill="#E01517"/>
<path d="M107.815 328.32C107.815 325.275 110.815 322.82 114.53 322.82C118.175 322.82 121.2 325.27 121.2 328.32C121.2 331.33 118.18 333.81 114.53 333.81C110.815 333.81 107.815 331.33 107.815 328.32ZM375.965 328.32C375.965 325.275 378.945 322.82 382.635 322.82C386.355 322.82 389.33 325.27 389.33 328.32C389.33 331.33 386.355 333.81 382.635 333.81C378.945 333.81 375.965 331.33 375.965 328.32ZM147.835 258.755L141.47 260.1C142.635 262.395 142.475 264.71 141.115 266.92C138.845 270.48 134.065 269.445 130.465 267.425C126.87 265.365 123.575 261.76 125.215 257.88C126.2 255.5 127.815 254.165 130.215 253.715L128.355 247.715C124.25 248.645 121.68 250.845 119.605 254.675C116.075 261.24 120.305 269.92 127.03 273.765C133.77 277.575 142.96 277.04 146.715 270.115C148.76 266.27 149.215 262.895 147.835 258.755ZM157.705 230.855C160.81 233.695 162.025 238.86 159.16 241.945L157.175 244.035L145.64 232.52L147.585 230.46C150.305 227.575 154.825 228.175 157.705 230.855ZM162.625 225.62C156.96 220.395 148.185 220.2 142.93 225.82L136.12 233.06L157.04 253.79L163.79 246.57C169.29 240.745 168.455 231.09 162.625 225.62ZM322.25 234.725L337.645 209.36L331.755 205.54L323 219.93L323.275 200.15L317.375 196.325L301.995 221.655L307.93 225.455L316.63 211.115L316.35 230.905L322.25 234.725ZM287.55 205.13L282.5 203.815L287.1 195.9L287.55 205.13ZM295.37 218.57L292.145 187.61L286.415 186.12L269.435 211.905L275.82 215.215L278.995 209.805L287.905 212.11L288.24 218.395L295.37 218.57ZM258.045 192.5C258.045 195.06 255.415 196.525 252.965 196.525H251.84V188.46H252.965C255.415 188.46 258.045 189.96 258.045 192.5ZM265.09 192.505C265.09 186.145 259.145 181.785 252.97 181.785H244.88V211.68H251.845V203.205H252.97C259.145 203.205 265.09 198.895 265.09 192.505ZM233.75 203.725C232.91 199.285 229.48 197.31 225.23 196.09L223.195 195.53C221.06 194.915 219.26 194.595 219.4 192.82C219.445 191.69 220.17 190.7 221.185 190.48C222.78 190.08 224.445 189.965 225.525 191.135L228.645 185.51C225.94 183.48 223.195 183.195 219.835 183.96C215.61 184.88 211.685 189.44 212.545 194.25C213.445 199.1 217.605 200.69 222.205 202.11L223.915 202.675C225.345 203.155 226.67 203.645 226.925 205.175C227.046 205.89 226.91 206.626 226.542 207.251C226.173 207.876 225.595 208.35 224.91 208.59C222.95 209.225 220.665 208.755 219.795 206.86L216.445 212.71C219.26 215.42 223.11 215.79 226.295 215.135C231.345 214.03 234.725 208.92 233.75 203.725ZM207.515 218.765L204.9 212.705L195.4 217.03L193.13 211.835L200.875 208.32L198.25 202.235L190.5 205.76L188.84 201.93L197.91 197.785L195.25 191.69L179.835 198.79L191.685 226.07L207.515 218.765ZM365.6 238.59L362.595 231.915L349.1 235.93L353.94 222.34L347.66 218.765L341.96 237.8L333.9 245.515L338.73 250.84L346.75 243.11L365.6 238.59ZM371.085 270.1C366.93 272.58 362.395 273.325 360.305 269.605C358.225 265.875 361.1 262.245 365.305 259.74C369.485 257.24 373.99 256.53 376.065 260.25C378.175 263.96 375.27 267.6 371.085 270.1ZM374.595 276.395C381.36 272.39 385.49 263.915 381.615 256.97C377.705 250.01 368.495 249.43 361.745 253.49C355.02 257.475 350.895 265.965 354.765 272.905C358.695 279.84 367.885 280.415 374.595 276.395ZM368.81 309.765L375.1 308.15L372.61 298.02L394.495 292.405L392.835 285.445L364.65 292.66L368.81 309.765ZM122.96 367.27C118.95 368.435 114.095 366.785 113.045 362.645L112.375 359.82L127.96 355.82L128.655 358.625C129.57 362.53 126.735 366.145 122.96 367.27ZM124.67 374.285C131.97 372.155 136.74 364.59 134.955 357.03L132.58 347.255L104.415 354.46L106.785 364.2C108.645 372.105 117.075 376.535 124.67 374.285ZM126.065 408.19L131.735 404.96L126.685 395.595L131.51 392.83L135.625 400.485L141.275 397.25L137.185 389.645L140.76 387.575L145.545 396.505L151.21 393.25L143.055 378.11L117.63 392.56L126.065 408.19ZM165.275 435.63C164.025 437.245 162.025 436.58 159.665 434.745L158.825 434.015L162.195 429.555L163.08 430.255C165.57 432.245 166.5 434.02 165.275 435.63ZM171.095 425.92C170.195 427.145 168.89 427.07 166.74 425.38L165.905 424.74L168.705 421.025L169.48 421.625C171.64 423.38 171.98 424.795 171.095 425.92ZM170.375 440.62C172.435 437.91 172.125 434.525 170.325 431.58C173.135 432.245 175.74 431.56 177.525 429.185C180.655 425.085 177.755 419.82 173.395 416.285L167.195 411.345L149.325 434.89L156.09 440.25C160.79 444.09 166.975 445.135 170.375 440.62ZM196.17 450.63L191.405 448.44L197.285 441.455L196.17 450.63ZM201.62 465.255L203.68 434.195L198.28 431.74L177.205 454.105L182.965 458.45L186.975 453.735L195.38 457.575L194.63 463.825L201.62 465.255ZM230.54 451.66C230.235 453.73 227.775 454.52 225.73 454.21L224.635 454.045L225.64 447.45L226.745 447.6C229.965 448.14 230.875 449.48 230.54 451.66ZM237.715 470.75L231.45 460.025C233.02 459.468 234.412 458.5 235.481 457.222C236.551 455.944 237.258 454.404 237.53 452.76C238.425 446.85 233.48 441.98 227.73 441L219.765 439.745L215.23 469.24L222.12 470.37L223.605 460.63L224.685 460.79L231.135 472.835L237.715 470.75ZM271.46 468.28L266.915 463.505C265.745 465.74 263.725 466.91 261.205 466.91C257.09 466.91 255.265 462.16 254.995 457.945C254.685 453.745 255.865 448.985 259.935 448.235C262.36 447.77 264.36 448.44 266.02 450.315L269.93 445.42C266.89 442.37 263.73 441.36 259.45 441.7C252.185 442.22 247.425 450.585 247.95 458.455C248.49 466.375 253.95 474.03 261.61 473.495C265.9 473.155 268.885 471.685 271.46 468.28ZM302.7 463.58L300.825 457.17L290.875 460.315L289.25 454.885L297.365 452.35L295.475 445.97L287.35 448.55L286.19 444.535L295.67 441.535L293.745 435.19L277.61 440.22L286.08 468.83L302.7 463.58ZM345.825 417.96C349.18 421.51 350.975 425.86 347.99 428.81C344.99 431.82 340.845 429.825 337.525 426.235C334.105 422.675 332.33 418.345 335.315 415.375C338.335 412.395 342.45 414.36 345.825 417.96ZM350.92 412.86C345.49 407.13 336.505 405.055 330.91 410.65C325.345 416.2 326.975 425.545 332.395 431.29C337.825 437.04 346.8 439.13 352.425 433.56C358.045 428 356.33 418.66 350.92 412.86ZM333.32 447.85L330.175 442.04L321.325 447.115L310.4 426.83L304.255 430.3L318.405 456.42L333.32 447.85ZM382.715 356.69L381.615 361.965L373.755 357.47L382.715 356.69ZM395.525 348.225L365.515 352.57L364.295 358.5L389.945 375.06L392.905 368.395L387.56 365.375L389.475 356.1L395.585 355.57L395.525 348.225ZM384.565 388.34L359.155 373.865L355.795 380.15L370.19 388.34L350.99 389.09L347.565 395.355L372.985 409.82L376.375 403.565L361.95 395.37L381.2 394.605L384.565 388.34ZM115.22 290.705C117.25 291.175 117.86 293.725 117.41 295.825L117.16 296.91L110.845 295.44L111.09 294.315C111.81 291.065 113.225 290.23 115.22 290.705ZM134.265 284.695L123.465 290.355C122.49 286.845 119.92 284.345 116.815 283.6C111.15 282.275 106.075 287.025 104.795 292.78L102.95 300.88L131.25 307.635L132.815 300.655L123.48 298.435L123.705 297.36L135.81 291.54L134.265 284.685V284.695Z" fill="#F5D10D"/>
<path d="M143.29 328.135C143.29 271.555 191.055 225.66 249.94 225.66C308.78 225.66 356.51 271.565 356.51 328.135C356.51 384.705 308.775 430.58 249.935 430.58C191.055 430.58 143.285 384.705 143.29 328.135Z" fill="#FEFEFE"/>
<path d="M143.285 328.135C143.285 271.555 191.055 225.66 249.935 225.66C308.785 225.66 356.515 271.565 356.515 328.135C356.515 384.705 308.78 430.58 249.935 430.58C191.05 430.58 143.285 384.705 143.285 328.135Z" fill="#FEFEFE"/>
<mask id="mask0_1173_5968" style="mask-type:luminance" maskUnits="userSpaceOnUse" x="143" y="225" width="214" height="206">
<path d="M143.285 328.135C143.285 271.555 191.055 225.66 249.935 225.66C308.785 225.66 356.515 271.565 356.515 328.135C356.515 384.705 308.78 430.58 249.935 430.58C191.05 430.58 143.285 384.705 143.285 328.135Z" fill="white"/>
</mask>
<g mask="url(#mask0_1173_5968)">
<path d="M369.885 264.81L398.595 294.375L215.175 483.11L186.45 453.535L369.885 264.81ZM327.195 219.17L355.885 248.76L172.465 437.465L143.765 407.875L327.195 219.17ZM295.07 162.575L323.77 192.17L140.375 380.87L111.665 351.32L295.07 162.575Z" fill="#0077BD"/>
</g>
<path d="M326.45 104.17C326.129 107.567 325.432 110.918 324.37 114.16C324.285 114.45 324.15 114.705 324.055 114.99C323.955 115.395 323.805 115.71 323.745 116.02C323.555 116.505 323.47 116.845 323.33 117.245C323.19 117.67 322.98 118.02 322.815 118.41C322.682 118.879 322.504 119.334 322.285 119.77C322.085 120.255 321.865 120.715 321.67 121.25C321.41 121.75 321.12 122.305 320.855 122.835C320.56 123.42 320.24 123.975 319.95 124.54C319.595 125.195 319.25 125.855 318.9 126.525C317.845 128.405 316.595 130.285 315.345 132.03C313.3 134.895 311.235 137.33 311.45 142.56C307.885 142.591 304.412 143.692 301.48 145.72C300.65 146.3 299.98 147.29 299.19 147.855C299.165 147.905 298.97 147.945 298.875 147.935C298.875 147.935 298.835 147.655 298.815 147.605C298.815 147.605 298.92 147.405 298.875 147.33C298.807 146.687 298.713 146.046 298.595 145.41C298.164 143.363 297.172 141.476 295.73 139.96C295.02 139.245 294.35 138.56 293.525 137.96C291.885 136.695 292.26 137.2 293.525 135.895C295.73 133.665 297 129.42 298.475 126.27C302.275 117.87 305.47 108.655 306.82 97.6301C307.245 93.9951 307.555 89.5951 307.01 85.6651C308.435 85.2151 310.135 85.0251 311.89 84.8701C317.33 84.4101 321.36 87.1451 323.75 90.2301C324.16 90.8151 324.755 91.3901 325.105 92.1201C326.55 95.0351 326.655 98.3051 326.505 102.24C326.58 102.245 326.45 103.885 326.45 104.17ZM281.92 115.805C280.93 118.18 279.905 120.55 278.9 122.905C277.87 125.305 276.36 127.5 276.145 130.805C276.04 132.5 276.515 133.765 276.75 135.105C272.27 136.39 268.48 138.705 266.575 142.72C264.33 137.6 262.51 135.99 257.845 133.555C258.665 132.305 259.41 130.665 259.7 128.75C259.94 127.185 259.815 125.31 259.815 123.535V77.0901C262.795 75.6001 266.17 74.3151 270.165 74.0001C275.615 73.5651 279.685 75.2501 282.515 77.7501C284.13 79.2001 285.545 80.7501 286.425 83.0401C290.045 92.5051 284.8 108.72 281.92 115.805ZM234.075 141.935C233.955 142.295 233.875 142.625 233.775 143.07C233.185 142.485 232.875 141.8 232.375 141.1C230.4 138.39 226.955 136.29 223.275 135.5C224.65 129.765 222.92 127.185 221.16 123.125C219.99 120.55 218.715 117.875 217.76 115.155C212.17 99.6701 206.165 76.1951 227.935 74.4101C232.85 74.0001 236.825 75.9851 240.26 77.4001C240.615 81.1601 240.335 85.5201 240.335 89.4251V116.76C240.335 120.71 239.845 125.99 240.475 129.575C240.78 131.26 241.53 132.585 242.265 133.81C238.78 135.595 235.36 137.795 234.075 141.935ZM206.6 138.525C205.631 139.257 204.773 140.124 204.05 141.1C202.55 142.95 201.445 145.085 201.445 148.49C199.25 146.82 197.275 144.89 194.335 144.05C192.715 143.52 191.105 143.34 188.95 142.99C189.43 138.16 187.24 135.69 185.5 133.08C184.22 131.195 182.8 129.26 181.72 127.25C180.05 124.17 178.25 120.99 177.065 117.5C174.815 111.04 171.98 98.7901 176 92.1301C178.2 88.3451 181.75 85.8251 187.035 85.4401C189.16 85.3601 191.285 85.6451 193.32 86.2701C192.81 89.9701 193.03 94.0051 193.47 97.5551C194.845 109.16 198.2 118.365 202.035 127.25C203.28 130.225 204.425 133.725 206.36 136.015C206.85 136.555 207.41 137.16 207.925 137.605C207.42 137.905 207.055 138.2 206.6 138.525ZM346.315 96.2251C346.015 92.1251 344.7 88.8351 343.59 85.6751C342.44 82.5651 340.815 80.3751 339.13 77.9601C334.53 71.3751 327.575 66.6801 318.515 65.1001C314.565 64.4001 309.49 64.5501 305.85 65.4201C304.92 65.6051 300.45 67.4001 300.04 67.2551C299.85 67.2051 298.47 65.2051 298.245 64.9351C296.995 63.3351 294.97 61.5101 293.42 60.3001C288.505 56.4001 280.265 52.9801 271.265 53.7201C268.45 53.9801 265.995 54.7201 263.455 55.0951C263.505 54.1701 263.6 53.2051 263.65 52.1751V51.7001C263.65 51.3551 263.6 51.0051 263.585 50.6601C263.555 50.5351 263.555 50.4351 263.555 50.3101C263.545 50.1951 263.545 50.0701 263.505 49.9101C263.505 49.7851 263.45 49.6951 263.44 49.5801C263.342 48.9884 263.212 48.4025 263.05 47.8251C263.021 47.7048 262.981 47.5876 262.93 47.4751C262.786 46.9635 262.596 46.4664 262.36 45.9901C262.272 45.7607 262.174 45.5355 262.065 45.3151C261.805 44.8651 261.54 44.3751 261.25 43.9301C261.15 43.7611 261.036 43.6006 260.91 43.4501C260.644 43.0754 260.36 42.7133 260.06 42.3651C259.955 42.2851 259.895 42.1751 259.775 42.0851C258.13 40.2902 256.037 38.9664 253.71 38.2501V30.2951H261.54V22.2601H253.71V14.2151H245.9V22.2651H238.1V30.2951H245.9V38.2451C245.823 38.2728 245.748 38.3045 245.675 38.3401C244.565 38.7051 243.525 39.1901 242.55 39.8401C242.4 39.9151 242.25 39.9801 242.115 40.0901C241.53 40.4701 240.965 40.9401 240.4 41.5051C238.535 43.2951 237.19 45.5551 236.515 48.0451C235.785 50.4451 235.69 52.9951 236.25 55.4401C233.185 54.9351 230.215 54.1201 226.67 54.1201C218.055 54.1201 210.79 57.2001 205.945 61.5351C203.815 63.3851 202.14 65.7901 200.095 67.7351L200.005 67.9051C199.605 68.0151 198.755 67.4051 198.405 67.2551C196.84 66.7101 195.14 66.0901 193.47 65.7901C191.685 65.5201 190.03 65.4701 188.325 65.2251H188.2C186.125 64.9901 183.93 65.3901 182.225 65.7101C181.49 65.8601 180.84 65.9251 180.16 66.0351C167.51 69.0201 157.55 79.3801 154.925 93.3251C154.39 95.9851 154.175 99.3351 154.39 102.54C155.38 117.115 160.01 126.87 165.175 136.73C167.485 141.07 170.115 146.475 174.04 148.975C173.43 149.91 172.68 150.745 172.275 151.85C171.235 154.285 171.29 157.58 172.1 160.1C175.17 169.41 189.335 171.76 197.95 166.48C201.79 164.16 203.89 161.44 204.45 155.705C211.615 163.195 227.165 162.885 232.9 154.105C233.595 153.005 234.04 151.68 234.54 150.265C235.52 151.755 236.425 153.325 237.76 154.41C243.975 159.735 256.1 159.725 262.345 154.41C263.7 153.27 264.595 151.715 265.595 150.215C268.725 159.535 280.225 163.19 290.395 159.03C292.51 158.18 294.195 156.625 295.865 155.23C295.865 164.355 305.305 169.72 314.615 168.795C318.744 168.416 322.635 166.697 325.695 163.9C328.42 161.35 330.315 156.77 328.575 151.75C328.13 150.43 327.2 149.55 326.645 148.34C329.49 146.505 330.5 144.475 332.34 141.605C336.458 135.177 339.809 128.288 342.325 121.08C344.695 114.205 346.965 106.115 346.315 96.2251Z" fill="#F5D10D"/>
<path d="M187.035 85.4351C181.75 85.8201 178.2 88.3401 176 92.1251C171.98 98.7851 174.815 111.035 177.065 117.495C178.25 120.985 180.05 124.165 181.715 127.245C182.795 129.255 184.215 131.195 185.505 133.075C187.24 135.685 189.43 138.155 188.955 142.985C191.105 143.335 192.715 143.515 194.335 144.045C197.275 144.89 199.25 146.815 201.445 148.485C201.445 145.085 202.55 142.955 204.045 141.095C204.8 140.095 205.61 139.265 206.595 138.52C207.055 138.2 207.42 137.9 207.925 137.595C207.376 137.093 206.854 136.562 206.36 136.005C204.425 133.715 203.28 130.215 202.035 127.24C198.205 118.355 194.845 109.15 193.47 97.5401C193.03 93.9901 192.81 89.9651 193.32 86.2601C191.287 85.6343 189.162 85.3554 187.035 85.4351ZM270.165 74.0001C266.17 74.3151 262.79 75.6001 259.815 77.0901V123.535C259.815 125.31 259.935 127.185 259.7 128.75C259.41 130.665 258.665 132.3 257.845 133.555C262.51 135.99 264.335 137.605 266.575 142.72C268.48 138.7 272.275 136.39 276.75 135.105C276.515 133.765 276.035 132.5 276.145 130.805C276.36 127.5 277.87 125.305 278.9 122.905C279.905 120.55 280.93 118.18 281.92 115.805C284.8 108.72 290.045 92.5051 286.42 83.0401C285.545 80.7451 284.13 79.2001 282.515 77.7501C279.69 75.2501 275.615 73.5651 270.165 74.0001ZM227.935 74.4101C206.165 76.1951 212.17 99.6701 217.76 115.155C218.715 117.875 219.99 120.55 221.16 123.125C222.92 127.185 224.65 129.765 223.28 135.495C226.955 136.295 230.4 138.39 232.38 141.1C232.875 141.795 233.18 142.48 233.78 143.07C233.86 142.687 233.961 142.308 234.08 141.935C235.36 137.795 238.78 135.595 242.265 133.81C241.53 132.585 240.77 131.26 240.475 129.575C239.845 125.99 240.335 120.715 240.335 116.76V89.4251C240.335 85.5251 240.615 81.1601 240.26 77.4001C236.825 75.9851 232.85 74.0001 227.935 74.4101ZM311.88 84.8751C310.125 85.0301 308.43 85.2201 307 85.6751C307.545 89.6001 307.235 94.0001 306.805 97.6351C305.455 108.66 302.265 117.875 298.465 126.275C296.99 129.425 295.72 133.67 293.515 135.9C292.25 137.2 291.875 136.7 293.515 137.96C294.34 138.56 295.015 139.25 295.72 139.97C297.05 141.44 298.095 143.06 298.585 145.415C298.695 145.99 298.805 146.77 298.865 147.335C298.905 147.415 298.805 147.66 298.805 147.66L298.865 147.94C298.965 147.95 299.16 147.91 299.18 147.86C299.97 147.295 300.64 146.3 301.47 145.725C304.404 143.698 307.879 142.597 311.445 142.565C311.225 137.33 313.295 134.895 315.335 132.03C316.585 130.28 317.835 128.405 318.895 126.53C319.24 125.855 319.585 125.195 319.94 124.54C320.23 123.975 320.55 123.42 320.845 122.835C321.11 122.305 321.395 121.745 321.66 121.25C321.86 120.715 322.075 120.25 322.275 119.77C322.496 119.333 322.674 118.876 322.805 118.405C322.965 118.02 323.175 117.67 323.32 117.245C323.47 116.845 323.545 116.505 323.735 116.02C323.8 115.71 323.95 115.395 324.045 114.99C324.15 114.705 324.28 114.45 324.36 114.16C325.426 110.918 326.126 107.567 326.445 104.17C326.445 103.885 326.57 102.245 326.495 102.245C326.635 98.3101 326.535 95.0401 325.1 92.1251C324.74 91.3951 324.15 90.8251 323.735 90.2351C321.35 87.1501 317.32 84.4151 311.88 84.8751Z" fill="#E01517"/>
</svg>
