<svg width="500" height="500" viewBox="0 0 500 500" fill="none" xmlns="http://www.w3.org/2000/svg">
<path fill-rule="evenodd" clip-rule="evenodd" d="M319.2 174.6C347.335 186.977 371.575 206.772 389.325 231.865C409.27 260.035 419.815 293.1 419.815 327.495C419.815 419.83 343.6 494.95 249.935 494.95C156.235 494.95 80 419.83 80 327.495C80 293.295 90.435 260.385 110.175 232.315C127.852 207.158 152.036 187.28 180.14 174.81C179.115 174.56 178.12 174.255 177.16 173.89C171.11 171.595 166.765 167.27 164.935 161.71C163.665 157.77 163.65 153.37 164.85 149.69C162.385 146.705 160.525 143.19 159 140.305L158.385 139.155C152.845 128.575 147.78 117.765 146.695 101.81C146.435 98.0635 146.66 94.299 147.365 90.6101C150.475 74.0551 162.18 61.4501 177.905 57.7401L179.095 57.5401C179.167 57.5303 179.234 57.5214 179.298 57.513C179.625 57.4696 179.845 57.4403 180.075 57.3901C180.153 57.3754 180.232 57.3605 180.313 57.3453C181.995 57.0283 184.246 56.6042 186.66 56.6901L186.675 56.5401L188.565 56.8151L188.945 56.8651L189.905 56.9651C191.209 57.0642 192.51 57.2059 193.805 57.3901C195.075 57.6235 196.327 57.9409 197.555 58.3401C198.666 57.0232 199.869 55.7868 201.155 54.6401C207.72 48.7701 216.69 45.5201 226.4 45.5201C227.469 45.5266 228.537 45.5833 229.6 45.6901C229.711 45.1974 229.84 44.7088 229.985 44.2251C230.92 40.8163 232.708 37.7018 235.18 35.1751H231.28V13.3251H239.175V5.19507H260.41V13.3201H268.325V35.1701H264.4L264.5 35.2701L265.07 35.8651C265.487 36.3403 265.882 36.8342 266.255 37.3451C266.552 37.7127 266.821 38.1021 267.06 38.5101C267.286 38.871 267.503 39.2378 267.71 39.6101L268.175 40.4601C268.335 40.7985 268.489 41.1402 268.635 41.4851C268.939 42.1375 269.197 42.8109 269.405 43.5001C269.596 44.0754 269.759 44.6594 269.895 45.2501C270.215 45.2101 270.54 45.1701 270.865 45.1401C282.18 44.2201 292.265 48.7001 297.945 53.2001C299.719 54.5747 301.373 56.0968 302.89 57.7501C303.593 57.4912 304.311 57.2742 305.04 57.1001C309.58 56.0251 315.615 55.8801 320.38 56.7301C330.87 58.5501 339.56 63.9951 345.495 72.4701L345.84 72.9701L345.856 72.9924C347.611 75.4904 349.424 78.0713 350.815 81.8351L351.245 83.0601L351.26 83.1019C352.381 86.2567 353.652 89.8303 353.995 94.3951C354.73 105.585 352.315 114.45 349.6 122.365C346.87 130.174 343.239 137.638 338.78 144.605L338.045 145.755L338.022 145.791C337.354 146.855 336.665 147.953 335.8 149.055C338.075 155.97 336.2 163.555 331 168.435C327.675 171.489 323.606 173.615 319.2 174.6ZM324.37 114.16C325.432 110.918 326.129 107.567 326.45 104.17C326.45 104.079 326.463 103.851 326.479 103.582C326.512 103.006 326.556 102.243 326.505 102.24C326.655 98.3051 326.55 95.0351 325.105 92.1201C324.875 91.64 324.539 91.2269 324.219 90.8339C324.052 90.6294 323.89 90.4303 323.75 90.2301C321.36 87.1451 317.33 84.4101 311.89 84.8701C310.135 85.0251 308.435 85.2151 307.01 85.6651C307.555 89.5951 307.245 93.9951 306.82 97.6301C305.47 108.655 302.275 117.87 298.475 126.27C298.075 127.124 297.691 128.058 297.299 129.01C296.243 131.573 295.133 134.269 293.525 135.895C292.86 136.581 292.441 136.767 292.431 136.972C292.422 137.158 292.747 137.36 293.525 137.96C294.316 138.535 294.965 139.189 295.643 139.872L295.73 139.96C297.172 141.476 298.164 143.363 298.595 145.41C298.713 146.046 298.807 146.687 298.875 147.33C298.92 147.405 298.815 147.605 298.815 147.605C298.835 147.655 298.875 147.935 298.875 147.935C298.97 147.945 299.165 147.905 299.19 147.855C299.576 147.579 299.932 147.202 300.293 146.821C300.672 146.422 301.055 146.017 301.48 145.72C304.412 143.692 307.885 142.591 311.45 142.56C311.25 137.704 313.017 135.257 314.908 132.638C315.053 132.437 315.199 132.235 315.345 132.03C316.595 130.285 317.845 128.405 318.9 126.525C319.25 125.855 319.595 125.195 319.95 124.54C320.084 124.279 320.224 124.02 320.366 123.76C320.53 123.456 320.696 123.15 320.855 122.835C321.093 122.359 321.351 121.863 321.59 121.404L321.67 121.25C321.797 120.902 321.934 120.585 322.07 120.273C322.143 120.106 322.215 119.939 322.285 119.77C322.504 119.334 322.682 118.879 322.815 118.41C322.877 118.263 322.946 118.122 323.015 117.98C323.128 117.745 323.243 117.51 323.33 117.245C323.383 117.094 323.428 116.951 323.474 116.805C323.549 116.567 323.627 116.321 323.745 116.02C323.776 115.858 323.832 115.695 323.893 115.518C323.948 115.357 324.007 115.184 324.055 114.99C324.098 114.862 324.148 114.74 324.199 114.619C324.261 114.469 324.323 114.32 324.37 114.16ZM279.71 121.012C280.451 119.282 281.195 117.545 281.92 115.805C284.8 108.72 290.045 92.5051 286.425 83.0401C285.545 80.7501 284.13 79.2001 282.515 77.7501C279.685 75.2501 275.615 73.5651 270.165 74.0001C266.17 74.3151 262.795 75.6001 259.815 77.0901V123.535C259.815 123.988 259.823 124.448 259.831 124.907C259.855 126.247 259.879 127.585 259.7 128.75C259.41 130.665 258.665 132.305 257.845 133.555C262.51 135.99 264.33 137.6 266.575 142.72C268.48 138.705 272.27 136.39 276.75 135.105C276.685 134.737 276.603 134.374 276.519 134.006C276.298 133.037 276.069 132.034 276.145 130.805C276.308 128.293 277.22 126.423 278.1 124.616C278.378 124.046 278.653 123.481 278.9 122.905C279.169 122.275 279.439 121.644 279.71 121.012ZM233.775 143.07C233.875 142.625 233.955 142.295 234.075 141.935C235.36 137.795 238.78 135.595 242.265 133.81C241.53 132.585 240.78 131.26 240.475 129.575C240.031 127.049 240.143 123.681 240.248 120.53C240.292 119.209 240.335 117.927 240.335 116.76V89.4251C240.335 88.2423 240.361 87.0177 240.387 85.7807C240.446 82.9338 240.508 80.0212 240.26 77.4001C239.886 77.2458 239.505 77.0848 239.117 76.9208C235.947 75.5807 232.314 74.0448 227.935 74.4101C206.165 76.1951 212.17 99.6701 217.76 115.155C218.574 117.472 219.619 119.757 220.635 121.974C220.811 122.36 220.987 122.744 221.16 123.125C221.378 123.628 221.595 124.107 221.806 124.573C223.301 127.872 224.48 130.475 223.275 135.5C226.955 136.29 230.4 138.39 232.375 141.1C232.548 141.342 232.698 141.582 232.844 141.816C233.122 142.261 233.389 142.687 233.775 143.07ZM204.05 141.1C204.773 140.124 205.631 139.257 206.6 138.525C206.723 138.437 206.839 138.352 206.953 138.268C207.262 138.041 207.556 137.824 207.925 137.605C207.41 137.16 206.85 136.555 206.36 136.015C204.803 134.173 203.758 131.547 202.76 129.042C202.518 128.433 202.278 127.832 202.035 127.25C198.2 118.365 194.845 109.16 193.47 97.5551C193.03 94.0051 192.81 89.9701 193.32 86.2701C191.285 85.6451 189.16 85.3601 187.035 85.4401C181.75 85.8251 178.2 88.3451 176 92.1301C171.98 98.7901 174.815 111.04 177.065 117.5C178.146 120.683 179.738 123.608 181.277 126.435C181.425 126.708 181.573 126.979 181.72 127.25C182.571 128.834 183.633 130.371 184.671 131.874C184.951 132.278 185.229 132.68 185.5 133.08C185.696 133.375 185.898 133.667 186.102 133.962C187.7 136.277 189.376 138.705 188.95 142.99C189.376 143.059 189.78 143.122 190.168 143.182C191.742 143.425 193.035 143.625 194.335 144.05C196.717 144.731 198.466 146.127 200.211 147.521C200.62 147.847 201.029 148.173 201.445 148.49C201.445 145.085 202.55 142.95 204.05 141.1ZM343.957 86.709C344.973 89.5585 346.048 92.5699 346.315 96.2251C346.965 106.115 344.695 114.205 342.325 121.08C339.809 128.288 336.458 135.177 332.34 141.605C332.093 141.99 331.861 142.36 331.638 142.717C330.196 145.016 329.108 146.751 326.645 148.34C326.885 148.864 327.196 149.327 327.508 149.79C327.915 150.395 328.323 151.002 328.575 151.75C330.315 156.77 328.42 161.35 325.695 163.9C322.635 166.697 318.744 168.416 314.615 168.795C305.305 169.72 295.865 164.355 295.865 155.23C295.663 155.399 295.46 155.57 295.257 155.743C293.781 156.991 292.254 158.283 290.395 159.03C280.225 163.19 268.725 159.535 265.595 150.215C265.433 150.458 265.274 150.702 265.116 150.945C264.294 152.207 263.481 153.454 262.345 154.41C256.1 159.725 243.975 159.735 237.76 154.41C236.619 153.483 235.793 152.202 234.965 150.919C234.824 150.701 234.683 150.482 234.54 150.265C234.507 150.359 234.474 150.452 234.442 150.544C233.98 151.854 233.549 153.078 232.9 154.105C227.165 162.885 211.615 163.195 204.45 155.705C203.89 161.44 201.79 164.16 197.95 166.48C189.335 171.76 175.17 169.41 172.1 160.1C171.29 157.58 171.235 154.285 172.275 151.85C172.566 151.057 173.034 150.403 173.501 149.751C173.685 149.495 173.868 149.239 174.04 148.975C170.425 146.672 167.908 141.905 165.728 137.775C165.541 137.421 165.357 137.072 165.175 136.73C160.01 126.87 155.38 117.115 154.39 102.54C154.175 99.3351 154.39 95.9851 154.925 93.3251C157.55 79.3801 167.51 69.0201 180.16 66.0351C180.404 65.9957 180.643 65.9621 180.885 65.9282C181.317 65.8676 181.753 65.8064 182.225 65.7101C183.93 65.3901 186.125 64.9901 188.2 65.2251H188.325C189.14 65.3421 189.943 65.4147 190.754 65.488C191.641 65.5681 192.538 65.6491 193.47 65.7901C195.002 66.0654 196.56 66.6101 198.015 67.119C198.146 67.1648 198.276 67.2102 198.405 67.2551C198.501 67.2964 198.635 67.3724 198.788 67.4588C199.189 67.6862 199.715 67.9848 200.005 67.9051L200.095 67.7351C201.017 66.858 201.864 65.8874 202.711 64.9164C203.743 63.734 204.776 62.5509 205.945 61.5351C210.79 57.2001 218.055 54.1201 226.67 54.1201C229.287 54.1201 231.591 54.5642 233.851 54.9999C234.652 55.1544 235.448 55.3079 236.25 55.4401C235.69 52.9951 235.785 50.4451 236.515 48.0451C237.19 45.5551 238.535 43.2951 240.4 41.5051C240.965 40.9401 241.53 40.4701 242.115 40.0901C242.228 39.9977 242.352 39.9371 242.478 39.8756C242.502 39.8639 242.526 39.8521 242.55 39.8401C243.525 39.1901 244.565 38.7051 245.675 38.3401C245.748 38.3045 245.823 38.2728 245.9 38.2451V30.2951H238.1V22.2651H245.9V14.2151H253.71V22.2601H261.54V30.2951H253.71V38.2501C256.037 38.9664 258.13 40.2902 259.775 42.0851C259.838 42.1319 259.884 42.1842 259.928 42.2349C259.97 42.2815 260.01 42.3267 260.06 42.3651C260.36 42.7133 260.644 43.0754 260.91 43.4501C261.036 43.6006 261.15 43.7611 261.25 43.9301C261.465 44.2598 261.666 44.6141 261.862 44.9587C261.93 45.0792 261.998 45.1985 262.065 45.3151C262.174 45.5355 262.272 45.7607 262.36 45.9901C262.596 46.4664 262.786 46.9635 262.93 47.4751C262.981 47.5876 263.021 47.7048 263.05 47.8251C263.212 48.4025 263.342 48.9884 263.44 49.5801C263.445 49.6313 263.458 49.6775 263.471 49.7241C263.488 49.7822 263.505 49.8407 263.505 49.9101C263.536 50.0347 263.543 50.1382 263.549 50.2321C263.551 50.2588 263.553 50.2847 263.555 50.3101C263.555 50.4351 263.555 50.5351 263.585 50.6601C263.591 50.8019 263.603 50.9445 263.615 51.0873C263.633 51.292 263.65 51.4969 263.65 51.7001V52.1751C263.623 52.734 263.583 53.2737 263.543 53.7983C263.51 54.2405 263.478 54.672 263.455 55.0951C264.492 54.9421 265.514 54.7283 266.552 54.5111C268.059 54.1961 269.599 53.874 271.265 53.7201C280.265 52.9801 288.505 56.4001 293.42 60.3001C294.97 61.5101 296.995 63.3351 298.245 64.9351C298.314 65.0174 298.49 65.2605 298.706 65.56C299.201 66.2432 299.908 67.2203 300.04 67.2551C300.28 67.34 301.912 66.7597 303.411 66.227C304.471 65.8499 305.465 65.4967 305.85 65.4201C309.49 64.5501 314.565 64.4001 318.515 65.1001C327.575 66.6801 334.53 71.3751 339.13 77.9601C339.265 78.1539 339.4 78.3463 339.534 78.5378C341.073 80.7325 342.532 82.8147 343.59 85.6751C343.71 86.0179 343.833 86.3623 343.957 86.709ZM88.4004 328.17C88.4004 240.42 160.71 169.27 249.935 169.27C339.105 169.27 411.415 240.42 411.415 328.17C411.415 415.92 339.105 487.065 249.935 487.065C160.71 487.065 88.4004 415.92 88.4004 328.17ZM107.815 328.32C107.815 325.275 110.815 322.82 114.53 322.82C118.175 322.82 121.2 325.27 121.2 328.32C121.2 331.33 118.18 333.81 114.53 333.81C110.815 333.81 107.815 331.33 107.815 328.32ZM375.965 328.32C375.965 325.275 378.945 322.82 382.635 322.82C386.355 322.82 389.33 325.27 389.33 328.32C389.33 331.33 386.355 333.81 382.635 333.81C378.945 333.81 375.965 331.33 375.965 328.32ZM147.835 258.755L141.47 260.1C142.635 262.395 142.475 264.71 141.115 266.92C138.845 270.48 134.065 269.445 130.465 267.425C126.87 265.365 123.575 261.76 125.215 257.88C126.2 255.5 127.815 254.165 130.215 253.715L128.355 247.715C124.25 248.645 121.68 250.845 119.605 254.675C116.075 261.24 120.305 269.92 127.03 273.765C133.77 277.575 142.96 277.04 146.715 270.115C148.76 266.27 149.215 262.895 147.835 258.755ZM157.705 230.855C160.81 233.695 162.025 238.86 159.16 241.945L157.175 244.035L145.64 232.52L147.585 230.46C150.305 227.575 154.825 228.175 157.705 230.855ZM162.625 225.62C156.96 220.395 148.185 220.2 142.93 225.82L136.12 233.06L157.04 253.79L163.79 246.57C169.29 240.745 168.455 231.09 162.625 225.62ZM322.25 234.725L337.645 209.36L331.755 205.54L323 219.93L323.275 200.15L317.375 196.325L301.995 221.655L307.93 225.455L316.63 211.115L316.35 230.905L322.25 234.725ZM287.55 205.13L282.5 203.815L287.1 195.9L287.55 205.13ZM295.37 218.57L292.145 187.61L286.415 186.12L269.435 211.905L275.82 215.215L278.995 209.805L287.905 212.11L288.24 218.395L295.37 218.57ZM258.045 192.5C258.045 195.06 255.415 196.525 252.965 196.525H251.84V188.46H252.965C255.415 188.46 258.045 189.96 258.045 192.5ZM265.09 192.505C265.09 186.145 259.145 181.785 252.97 181.785H244.88V211.68H251.845V203.205H252.97C259.145 203.205 265.09 198.895 265.09 192.505ZM233.75 203.725C232.91 199.285 229.48 197.31 225.23 196.09L223.195 195.53C223.102 195.503 223.009 195.477 222.917 195.451C222.816 195.422 222.717 195.395 222.618 195.367C220.747 194.844 219.273 194.432 219.4 192.82C219.445 191.69 220.17 190.7 221.185 190.48C222.78 190.08 224.445 189.965 225.525 191.135L228.645 185.51C225.94 183.48 223.195 183.195 219.835 183.96C215.61 184.88 211.685 189.44 212.545 194.25C213.445 199.1 217.605 200.69 222.205 202.11L223.915 202.675C225.345 203.155 226.67 203.645 226.925 205.175C227.046 205.89 226.91 206.626 226.542 207.251C226.173 207.876 225.595 208.35 224.91 208.59C222.95 209.225 220.665 208.755 219.795 206.86L216.445 212.71C219.26 215.42 223.11 215.79 226.295 215.135C231.345 214.03 234.725 208.92 233.75 203.725ZM207.515 218.765L204.9 212.705L195.4 217.03L193.13 211.835L200.875 208.32L198.25 202.235L190.5 205.76L188.84 201.93L197.91 197.785L195.25 191.69L179.835 198.79L191.685 226.07L207.515 218.765ZM365.6 238.59L362.595 231.915L349.1 235.93L353.94 222.34L347.66 218.765L341.96 237.8L333.9 245.515L338.73 250.84L346.75 243.11L365.6 238.59ZM371.085 270.1C366.93 272.58 362.395 273.325 360.305 269.605C358.225 265.875 361.1 262.245 365.305 259.74C369.485 257.24 373.99 256.53 376.065 260.25C378.175 263.96 375.27 267.6 371.085 270.1ZM374.595 276.395C381.36 272.39 385.49 263.915 381.615 256.97C377.705 250.01 368.495 249.43 361.745 253.49C355.02 257.475 350.895 265.965 354.765 272.905C358.695 279.84 367.885 280.415 374.595 276.395ZM368.81 309.765L375.1 308.15L372.61 298.02L394.495 292.405L392.835 285.445L364.65 292.66L368.81 309.765ZM122.96 367.27C118.95 368.435 114.095 366.785 113.045 362.645L112.375 359.82L127.96 355.82L128.655 358.625C129.57 362.53 126.735 366.145 122.96 367.27ZM124.67 374.285C131.97 372.155 136.74 364.59 134.955 357.03L132.58 347.255L104.415 354.46L106.785 364.2C108.645 372.105 117.075 376.535 124.67 374.285ZM126.065 408.19L131.735 404.96L126.685 395.595L131.51 392.83L135.625 400.485L141.275 397.25L137.185 389.645L140.76 387.575L145.545 396.505L151.21 393.25L143.055 378.11L117.63 392.56L126.065 408.19ZM165.275 435.63C164.025 437.245 162.025 436.58 159.665 434.745L158.825 434.015L162.195 429.555L163.08 430.255C165.57 432.245 166.5 434.02 165.275 435.63ZM171.095 425.92C170.195 427.145 168.89 427.07 166.74 425.38L165.905 424.74L168.705 421.025L169.48 421.625C171.64 423.38 171.98 424.795 171.095 425.92ZM170.375 440.62C172.435 437.91 172.125 434.525 170.325 431.58C173.135 432.245 175.74 431.56 177.525 429.185C180.655 425.085 177.755 419.82 173.395 416.285L167.195 411.345L149.325 434.89L156.09 440.25C160.79 444.09 166.975 445.135 170.375 440.62ZM196.17 450.63L191.405 448.44L197.285 441.455L196.17 450.63ZM201.62 465.255L203.68 434.195L198.28 431.74L177.205 454.105L182.965 458.45L186.975 453.735L195.38 457.575L194.63 463.825L201.62 465.255ZM230.54 451.66C230.235 453.73 227.775 454.52 225.73 454.21L224.635 454.045L225.64 447.45L226.745 447.6C229.965 448.14 230.875 449.48 230.54 451.66ZM237.715 470.75L231.45 460.025C233.02 459.467 234.412 458.5 235.481 457.222C236.551 455.944 237.258 454.404 237.53 452.76C238.425 446.85 233.48 441.98 227.73 441L219.765 439.745L215.23 469.24L222.12 470.37L223.605 460.63L224.685 460.79L231.135 472.835L237.715 470.75ZM271.46 468.28L266.915 463.505C265.745 465.74 263.725 466.91 261.205 466.91C257.09 466.91 255.265 462.16 254.995 457.945C254.685 453.745 255.865 448.985 259.935 448.235C262.36 447.77 264.36 448.44 266.02 450.315L269.93 445.42C266.89 442.37 263.73 441.36 259.45 441.7C252.185 442.22 247.425 450.585 247.95 458.455C248.49 466.375 253.95 474.03 261.61 473.495C265.9 473.155 268.885 471.685 271.46 468.28ZM302.7 463.58L300.825 457.17L290.875 460.315L289.25 454.885L297.365 452.35L295.475 445.97L287.35 448.55L286.19 444.535L295.67 441.535L293.745 435.19L277.61 440.22L286.08 468.83L302.7 463.58ZM345.825 417.96C349.18 421.51 350.975 425.86 347.99 428.81C344.99 431.82 340.845 429.825 337.525 426.235C334.105 422.675 332.33 418.345 335.315 415.375C338.335 412.395 342.45 414.36 345.825 417.96ZM350.92 412.86C345.49 407.13 336.505 405.055 330.91 410.65C325.345 416.2 326.975 425.545 332.395 431.29C337.825 437.04 346.8 439.13 352.425 433.56C358.045 428 356.33 418.66 350.92 412.86ZM333.32 447.85L330.175 442.04L321.325 447.115L310.4 426.83L304.255 430.3L318.405 456.42L333.32 447.85ZM382.715 356.69L381.615 361.965L373.755 357.47L382.715 356.69ZM395.525 348.225L365.515 352.57L364.295 358.5L389.945 375.06L392.905 368.395L387.56 365.375L389.475 356.1L395.585 355.57L395.525 348.225ZM384.565 388.34L359.155 373.865L355.795 380.15L370.19 388.34L350.99 389.09L347.565 395.355L372.985 409.82L376.375 403.565L361.95 395.37L381.2 394.605L384.565 388.34ZM115.22 290.705C117.25 291.175 117.86 293.725 117.41 295.825L117.16 296.91L110.845 295.44L111.09 294.315C111.81 291.065 113.225 290.23 115.22 290.705ZM134.265 284.695L123.465 290.355C122.49 286.845 119.92 284.345 116.815 283.6C111.15 282.275 106.075 287.025 104.795 292.78L102.95 300.88L131.25 307.635L132.815 300.655L123.48 298.435L123.705 297.36L135.81 291.54L134.265 284.685V284.695ZM250.65 226C191.765 226 144 271.895 144 328.475C143.995 385.045 191.765 430.92 250.645 430.92C309.485 430.92 357.22 385.045 357.22 328.475C357.22 271.905 309.49 226 250.65 226ZM337.361 268.893L194.678 415.688C182.645 408.546 172.2 399.17 163.97 388.164L306.714 241.316C318.728 248.477 329.153 257.871 337.361 268.893ZM286.243 231.858L152.763 369.199C147.126 356.717 144 342.946 144 328.475C144 325.15 144.165 321.862 144.488 318.618L233.149 227.374C238.844 226.47 244.69 226 250.65 226C263.131 226 275.112 228.065 286.243 231.858ZM268.3 429.521C262.559 430.441 256.662 430.92 250.65 430.92C238.199 430.92 226.245 428.869 215.134 425.099L348.525 287.861C354.126 300.316 357.23 314.049 357.23 328.475C357.23 331.87 357.058 335.227 356.722 338.537L268.3 429.521Z" fill="white"/>
</svg>
