<svg width="500" height="500" viewBox="0 0 500 500" fill="none" xmlns="http://www.w3.org/2000/svg">
<g clip-path="url(#clip0_1173_6037)">
<path d="M169.643 133.635H330.844L330.655 133.506C319.311 126.312 306.943 120.591 293.824 116.617L293.741 116.692C282.084 126.796 266.875 132.91 250.238 132.91C233.568 132.91 218.331 126.771 206.664 116.631L206.571 116.641C193.483 120.615 181.143 126.326 169.822 133.505L169.643 133.635ZM135.133 163.786C113.008 190.004 99.6588 223.855 99.6588 260.766C99.6588 325.261 140.419 380.416 197.532 401.825L196.241 401.144C159.902 381.312 135.112 342.12 135.112 297.113V163.997L135.133 163.786ZM365.364 163.817V297.113C365.364 342.48 340.177 381.94 303.36 401.618L304.749 401.134C360.915 379.25 400.817 324.58 400.817 260.766C400.817 223.934 387.524 190.148 365.484 163.954L365.364 163.817ZM196.271 27.6681C208.337 10.9105 228.014 -6.36684e-06 250.238 -6.36684e-06C272.383 -6.36684e-06 291.999 10.8326 304.075 27.4881L304.191 27.6376C410.33 52.1037 489.475 147.194 489.475 260.766C489.475 392.889 382.36 500 250.238 500C118.116 500 11 392.889 11 260.766C11 147.296 90.0009 52.2747 195.998 27.703L196.271 27.6681Z" fill="#E8EAEC"/>
<mask id="mask0_1173_6037" style="mask-type:luminance" maskUnits="userSpaceOnUse" x="19" y="38" width="455" height="237">
<path d="M19.8252 258.295C44.3612 263.919 80.0736 271.598 94.1673 274.614L94.3213 274.639C93.9184 270.068 93.7125 265.44 93.7125 260.766C93.7125 219.97 109.401 182.77 135.06 154.881L135.113 154.809V133.635H159L159.098 133.578C172.002 124.306 186.367 116.947 201.777 111.917L201.718 111.866C190.595 99.9849 183.783 84.0153 183.783 66.4555C183.783 56.3768 186.027 46.8219 190.043 38.2636L190.103 38.1302C92.7956 64.4382 20.795 153.001 19.6641 258.249L19.8252 258.295ZM402.921 226.211C396.8 199.158 383.656 174.741 365.511 154.984L365.364 154.854V133.635H341.452L341.387 133.586C328.48 124.31 314.112 116.948 298.7 111.917L298.809 111.811C309.902 99.9357 316.693 83.9876 316.693 66.4555C316.693 56.3938 314.456 46.8542 310.454 38.3066L310.423 38.1436C390.244 59.7444 453.027 123.236 473.619 203.461L473.499 203.489C462.194 205.872 435.157 212.423 403.054 226.133L402.921 226.211Z" fill="white"/>
</mask>
<g mask="url(#mask0_1173_6037)">
<path d="M19.8252 258.295C44.3612 263.919 80.0736 271.598 94.1673 274.614L94.3213 274.639C93.9184 270.068 93.7125 265.44 93.7125 260.766C93.7125 219.97 109.401 182.77 135.06 154.881L135.113 154.809V133.635H159L159.098 133.578C172.002 124.306 186.367 116.947 201.777 111.917L201.718 111.866C190.595 99.9849 183.783 84.0153 183.783 66.4555C183.783 56.3768 186.027 46.8219 190.043 38.2636L190.103 38.1302C92.7956 64.4382 20.795 153.001 19.6641 258.249L19.8252 258.295ZM402.921 226.211C396.8 199.158 383.656 174.741 365.511 154.984L365.364 154.854V133.635H341.452L341.387 133.586C328.48 124.31 314.112 116.948 298.7 111.917L298.809 111.811C309.902 99.9357 316.693 83.9876 316.693 66.4555C316.693 56.3938 314.456 46.8542 310.454 38.3066L310.423 38.1436C390.244 59.7444 453.027 123.236 473.619 203.461L473.499 203.489C462.194 205.872 435.157 212.423 403.054 226.133L402.921 226.211Z" fill="url(#paint0_linear_1173_6037)"/>
</g>
<mask id="mask1_1173_6037" style="mask-type:luminance" maskUnits="userSpaceOnUse" x="19" y="203" width="462" height="289">
<path d="M402.921 226.211C405.435 237.331 406.764 248.897 406.764 260.766C406.764 347.072 336.546 417.289 250.237 417.289C168.602 417.289 101.364 354.471 94.321 274.639L94.167 274.615C80.0733 271.598 44.3609 263.919 19.8249 258.295L19.6638 258.249C19.6539 259.088 19.6494 259.927 19.6494 260.766C19.6494 387.91 123.09 491.351 250.237 491.351C377.384 491.351 480.825 387.91 480.825 260.766C480.825 240.991 478.324 221.788 473.618 203.461L473.498 203.489C462.194 205.872 435.157 212.423 403.054 226.133L402.921 226.211Z" fill="white"/>
</mask>
<g mask="url(#mask1_1173_6037)">
<path d="M402.921 226.211C405.435 237.331 406.764 248.897 406.764 260.766C406.764 347.072 336.546 417.289 250.237 417.289C168.602 417.289 101.364 354.471 94.321 274.639L94.167 274.615C80.0733 271.598 44.3609 263.919 19.8249 258.295L19.6638 258.249C19.6539 259.088 19.6494 259.927 19.6494 260.766C19.6494 387.91 123.09 491.351 250.237 491.351C377.384 491.351 480.825 387.91 480.825 260.766C480.825 240.991 478.324 221.788 473.618 203.461L473.498 203.489C462.194 205.872 435.157 212.423 403.054 226.133L402.921 226.211Z" fill="url(#paint1_linear_1173_6037)"/>
</g>
<path d="M254.022 139.58V408.907L254.114 408.908C312.615 406.818 359.417 357.565 359.417 297.113V139.581H254.163L254.022 139.58Z" fill="#89AD34"/>
<path d="M246.453 139.58V408.924L246.359 408.908C187.86 406.817 141.059 357.564 141.059 297.113V139.581H246.274L246.453 139.58Z" fill="#B2463F"/>
<path d="M332.771 324.508C335.946 324.507 339.081 324.497 338.92 323.155C338.718 321.466 334.663 321.127 334.663 321.127C334.663 321.127 335.069 318.358 335.542 312.208C335.542 312.208 336.897 312.204 343.111 311.938C351.016 311.6 352.774 309.91 352.84 308.424C352.892 307.276 348.854 307.41 345.611 307.41C344.445 307.41 342.821 307.402 341.219 307.39C341.219 307.39 341.083 302.004 339.529 302.004C338.043 302.004 338.043 307.367 338.043 307.367C336.592 307.353 335.559 307.342 335.559 307.342C335.63 305.058 335.677 302.542 335.677 299.842C335.677 296.734 333.785 294.368 332.771 294.436C331.757 294.368 329.865 296.734 329.865 299.842C329.865 302.542 329.911 305.058 329.983 307.342C329.983 307.342 328.951 307.353 327.499 307.367C327.499 307.367 327.499 302.004 326.014 302.004C324.458 302.004 324.325 307.39 324.325 307.39C322.721 307.402 321.096 307.41 319.931 307.41C316.688 307.41 312.649 307.276 312.702 308.424C312.768 309.91 314.526 311.6 322.431 311.938C328.645 312.204 330 312.208 330 312.208C330.474 318.358 330.878 321.127 330.878 321.127C330.878 321.127 326.825 321.466 326.622 323.155C326.46 324.497 329.595 324.507 332.771 324.508Z" fill="white"/>
<path d="M332.771 261.067C335.946 261.066 339.081 261.056 338.92 259.714C338.718 258.024 334.663 257.687 334.663 257.687C334.663 257.687 335.069 254.916 335.542 248.767C335.542 248.767 336.897 248.761 343.111 248.496C351.016 248.159 352.774 246.469 352.84 244.983C352.892 243.835 348.854 243.969 345.611 243.969C344.445 243.969 342.821 243.959 341.219 243.948C341.219 243.948 341.083 238.563 339.529 238.563C338.043 238.563 338.043 243.923 338.043 243.923C336.592 243.91 335.559 243.901 335.559 243.901C335.63 241.615 335.677 239.102 335.677 236.4C335.677 233.292 333.785 230.927 332.771 230.994C331.757 230.927 329.865 233.292 329.865 236.4C329.865 239.102 329.911 241.615 329.983 243.901C329.983 243.901 328.951 243.91 327.499 243.923C327.499 243.923 327.499 238.563 326.014 238.563C324.458 238.563 324.325 243.948 324.325 243.948C322.721 243.959 321.096 243.969 319.931 243.969C316.688 243.969 312.649 243.835 312.702 244.983C312.768 246.469 314.526 248.159 322.431 248.496C328.645 248.761 330 248.767 330 248.767C330.474 254.916 330.878 257.687 330.878 257.687C330.878 257.687 326.825 258.024 326.622 259.714C326.46 261.056 329.595 261.066 332.771 261.067Z" fill="white"/>
<path d="M332.771 197.623C335.946 197.622 339.081 197.612 338.92 196.271C338.718 194.581 334.663 194.244 334.663 194.244C334.663 194.244 335.069 191.473 335.542 185.323C335.542 185.323 336.897 185.319 343.111 185.053C351.016 184.716 352.774 183.026 352.84 181.539C352.892 180.392 348.854 180.525 345.611 180.525C344.445 180.525 342.821 180.517 341.219 180.505C341.219 180.505 341.083 175.119 339.529 175.119C338.043 175.119 338.043 180.481 338.043 180.481C336.592 180.469 335.559 180.458 335.559 180.458C335.63 178.173 335.677 175.658 335.677 172.957C335.677 169.849 333.785 167.483 332.771 167.551C331.757 167.483 329.865 169.849 329.865 172.957C329.865 175.658 329.911 178.173 329.983 180.458C329.983 180.458 328.951 180.469 327.499 180.481C327.499 180.481 327.499 175.119 326.014 175.119C324.458 175.119 324.325 180.505 324.325 180.505C322.721 180.517 321.096 180.525 319.931 180.525C316.688 180.525 312.649 180.392 312.702 181.539C312.768 183.026 314.526 184.716 322.431 185.053C328.645 185.319 330 185.323 330 185.323C330.474 191.473 330.878 194.244 330.878 194.244C330.878 194.244 326.825 194.581 326.622 196.271C326.46 197.612 329.595 197.622 332.771 197.623Z" fill="white"/>
<path d="M308.934 66.4555C308.934 98.8719 282.652 125.15 250.238 125.15C217.823 125.15 191.543 98.8719 191.543 66.4555C191.543 34.0391 217.823 7.75975 250.238 7.75975C282.652 7.75975 308.934 34.0391 308.934 66.4555Z" fill="white"/>
<path d="M290.875 467.939L282.117 469.481L283.911 479.68L293.575 477.978L291.781 467.781L290.875 467.939Z" fill="white"/>
<path d="M349.335 447.125L341.412 451.165L346.113 460.389L354.854 455.932L350.152 446.708L349.335 447.125Z" fill="white"/>
<path d="M429.017 372.917L424.137 380.351L432.791 386.033L438.177 377.83L429.522 372.149L429.017 372.917Z" fill="white"/>
<path d="M456.746 304.687L454.731 313.35L464.816 315.694L467.04 306.137L456.955 303.791L456.746 304.687Z" fill="white"/>
<path d="M470.444 245.087L461.018 245.404L461.345 255.211L471.694 254.864L471.363 245.057L470.444 245.087Z" fill="white"/>
<path d="M306.719 229.345C309.895 229.344 313.03 229.335 312.869 227.993C312.666 226.303 308.612 225.965 308.612 225.965C308.612 225.965 309.016 223.195 309.49 217.046C309.49 217.046 310.846 217.041 317.058 216.775C324.963 216.437 326.721 214.748 326.788 213.261C326.841 212.113 322.802 212.247 319.558 212.247C318.394 212.247 316.769 212.238 315.166 212.228C315.166 212.228 315.032 206.841 313.476 206.841C311.99 206.841 311.99 212.203 311.99 212.203C310.539 212.19 309.508 212.181 309.508 212.181C309.579 209.895 309.625 207.38 309.625 204.68C309.625 201.571 307.732 199.206 306.719 199.272C305.706 199.206 303.813 201.571 303.813 204.68C303.813 207.38 303.859 209.895 303.93 212.181C303.93 212.181 302.899 212.19 301.448 212.203C301.448 212.203 301.448 206.841 299.962 206.841C298.406 206.841 298.272 212.228 298.272 212.228C296.669 212.238 295.043 212.247 293.88 212.247C290.635 212.247 286.597 212.113 286.649 213.261C286.717 214.748 288.473 216.437 296.38 216.775C302.593 217.041 303.948 217.046 303.948 217.046C304.422 223.195 304.827 225.965 304.827 225.965C304.827 225.965 300.772 226.303 300.569 227.993C300.408 229.335 303.543 229.344 306.719 229.345Z" fill="white"/>
<path d="M306.719 292.786C309.895 292.785 313.03 292.776 312.869 291.434C312.666 289.744 308.612 289.406 308.612 289.406C308.612 289.406 309.016 286.636 309.49 280.486C309.49 280.486 310.846 280.482 317.058 280.217C324.963 279.878 326.721 278.19 326.788 276.702C326.841 275.554 322.802 275.689 319.558 275.689C318.394 275.689 316.769 275.68 315.166 275.669C315.166 275.669 315.032 270.283 313.476 270.283C311.99 270.283 311.99 275.645 311.99 275.645C310.539 275.631 309.508 275.622 309.508 275.622C309.579 273.337 309.625 270.821 309.625 268.121C309.625 265.013 307.732 262.647 306.719 262.713C305.706 262.647 303.813 265.013 303.813 268.121C303.813 270.821 303.859 273.337 303.93 275.622C303.93 275.622 302.899 275.631 301.448 275.645C301.448 275.645 301.448 270.283 299.962 270.283C298.406 270.283 298.272 275.669 298.272 275.669C296.669 275.68 295.043 275.689 293.88 275.689C290.635 275.689 286.597 275.554 286.649 276.702C286.717 278.19 288.473 279.878 296.38 280.217C302.593 280.482 303.948 280.486 303.948 280.486C304.422 286.636 304.827 289.406 304.827 289.406C304.827 289.406 300.772 289.744 300.569 291.434C300.408 292.776 303.543 292.785 306.719 292.786Z" fill="white"/>
<path d="M306.719 356.228C309.895 356.227 313.03 356.217 312.869 354.875C312.666 353.185 308.612 352.848 308.612 352.848C308.612 352.848 309.016 350.077 309.49 343.928C309.49 343.928 310.846 343.923 317.058 343.656C324.963 343.319 326.721 341.63 326.788 340.144C326.841 338.996 322.802 339.13 319.558 339.13C318.394 339.13 316.769 339.121 315.166 339.11C315.166 339.11 315.032 333.724 313.476 333.724C311.99 333.724 311.99 339.085 311.99 339.085C310.539 339.073 309.508 339.063 309.508 339.063C309.579 336.778 309.625 334.263 309.625 331.562C309.625 328.452 307.732 326.088 306.719 326.156C305.706 326.088 303.813 328.452 303.813 331.562C303.813 334.263 303.859 336.778 303.93 339.063C303.93 339.063 302.899 339.073 301.448 339.085C301.448 339.085 301.448 333.724 299.962 333.724C298.406 333.724 298.272 339.11 298.272 339.11C296.669 339.121 295.043 339.13 293.88 339.13C290.635 339.13 286.597 338.996 286.649 340.144C286.717 341.63 288.473 343.319 296.38 343.656C302.593 343.923 303.948 343.928 303.948 343.928C304.422 350.077 304.827 352.848 304.827 352.848C304.827 352.848 300.772 353.185 300.569 354.875C300.408 356.217 303.543 356.227 306.719 356.228Z" fill="white"/>
<path d="M280.668 324.508C283.844 324.507 286.98 324.497 286.818 323.155C286.614 321.466 282.56 321.127 282.56 321.127C282.56 321.127 282.965 318.358 283.438 312.208C283.438 312.208 284.794 312.204 291.007 311.938C298.914 311.6 300.67 309.91 300.738 308.424C300.789 307.276 296.751 307.41 293.507 307.41C292.343 307.41 290.717 307.402 289.114 307.39C289.114 307.39 288.981 302.004 287.425 302.004C285.938 302.004 285.938 307.367 285.938 307.367C284.488 307.353 283.456 307.342 283.456 307.342C283.528 305.058 283.573 302.542 283.573 299.842C283.573 296.734 281.681 294.368 280.668 294.436C279.654 294.368 277.762 296.734 277.762 299.842C277.762 302.542 277.807 305.058 277.879 307.342C277.879 307.342 276.847 307.353 275.397 307.367C275.397 307.367 275.397 302.004 273.91 302.004C272.355 302.004 272.221 307.39 272.221 307.39C270.618 307.402 268.993 307.41 267.829 307.41C264.585 307.41 260.545 307.276 260.598 308.424C260.665 309.91 262.423 311.6 270.329 311.938C276.541 312.204 277.897 312.208 277.897 312.208C278.37 318.358 278.775 321.127 278.775 321.127C278.775 321.127 274.721 321.466 274.518 323.155C274.356 324.497 277.492 324.507 280.668 324.508Z" fill="white"/>
<path d="M280.668 261.067C283.844 261.066 286.98 261.056 286.818 259.714C286.614 258.024 282.56 257.687 282.56 257.687C282.56 257.687 282.965 254.916 283.438 248.767C283.438 248.767 284.794 248.761 291.007 248.496C298.914 248.159 300.67 246.469 300.738 244.983C300.789 243.835 296.751 243.969 293.507 243.969C292.343 243.969 290.717 243.959 289.114 243.948C289.114 243.948 288.981 238.563 287.425 238.563C285.938 238.563 285.938 243.923 285.938 243.923C284.488 243.91 283.456 243.901 283.456 243.901C283.528 241.615 283.573 239.102 283.573 236.4C283.573 233.292 281.681 230.927 280.668 230.994C279.654 230.927 277.762 233.292 277.762 236.4C277.762 239.102 277.807 241.615 277.879 243.901C277.879 243.901 276.847 243.91 275.397 243.923C275.397 243.923 275.397 238.563 273.91 238.563C272.355 238.563 272.221 243.948 272.221 243.948C270.618 243.959 268.993 243.969 267.829 243.969C264.585 243.969 260.545 243.835 260.598 244.983C260.665 246.469 262.423 248.159 270.329 248.496C276.541 248.761 277.897 248.767 277.897 248.767C278.37 254.916 278.775 257.687 278.775 257.687C278.775 257.687 274.721 258.024 274.518 259.714C274.356 261.056 277.492 261.066 280.668 261.067Z" fill="white"/>
<path d="M280.668 387.949C283.844 387.947 286.98 387.939 286.818 386.597C286.614 384.907 282.56 384.569 282.56 384.569C282.56 384.569 282.965 381.798 283.438 375.649C283.438 375.649 284.794 375.645 291.007 375.379C298.914 375.041 300.67 373.352 300.738 371.865C300.789 370.717 296.751 370.852 293.507 370.852C292.343 370.852 290.717 370.843 289.114 370.831C289.114 370.831 288.981 365.445 287.425 365.445C285.938 365.445 285.938 370.807 285.938 370.807C284.488 370.794 283.456 370.784 283.456 370.784C283.528 368.499 283.573 365.983 283.573 363.282C283.573 360.175 281.681 357.809 280.668 357.876C279.654 357.809 277.762 360.175 277.762 363.282C277.762 365.983 277.807 368.499 277.879 370.784C277.879 370.784 276.847 370.794 275.397 370.807C275.397 370.807 275.397 365.445 273.91 365.445C272.355 365.445 272.221 370.831 272.221 370.831C270.618 370.843 268.993 370.852 267.829 370.852C264.585 370.852 260.545 370.717 260.598 371.865C260.665 373.352 262.423 375.041 270.329 375.379C276.541 375.645 277.897 375.649 277.897 375.649C278.37 381.798 278.775 384.569 278.775 384.569C278.775 384.569 274.721 384.907 274.518 386.597C274.356 387.939 277.492 387.947 280.668 387.949Z" fill="white"/>
<path d="M280.668 197.623C283.844 197.622 286.98 197.612 286.818 196.271C286.614 194.581 282.56 194.244 282.56 194.244C282.56 194.244 282.965 191.473 283.438 185.323C283.438 185.323 284.794 185.319 291.007 185.053C298.914 184.716 300.67 183.026 300.738 181.539C300.789 180.392 296.751 180.525 293.507 180.525C292.343 180.525 290.717 180.517 289.114 180.505C289.114 180.505 288.981 175.119 287.425 175.119C285.938 175.119 285.938 180.481 285.938 180.481C284.488 180.469 283.456 180.458 283.456 180.458C283.528 178.173 283.573 175.658 283.573 172.957C283.573 169.849 281.681 167.483 280.668 167.551C279.654 167.483 277.762 169.849 277.762 172.957C277.762 175.658 277.807 178.173 277.879 180.458C277.879 180.458 276.847 180.469 275.397 180.481C275.397 180.481 275.397 175.119 273.91 175.119C272.355 175.119 272.221 180.505 272.221 180.505C270.618 180.517 268.993 180.525 267.829 180.525C264.585 180.525 260.545 180.392 260.598 181.539C260.665 183.026 262.423 184.716 270.329 185.053C276.541 185.319 277.897 185.323 277.897 185.323C278.37 191.473 278.775 194.244 278.775 194.244C278.775 194.244 274.721 194.581 274.518 196.271C274.356 197.612 277.492 197.622 280.668 197.623Z" fill="white"/>
<path d="M193.75 266.894C210.706 255.18 220.077 236.98 220.077 225.087C220.077 213.193 213.769 207.608 213.769 207.608C217.012 200.039 215.391 189.948 215.391 189.948C211.787 195.714 208.544 197.156 208.544 197.156C207.282 187.965 202.777 181.478 202.777 181.478C202.777 181.478 201.713 186.894 199.353 190.668C196.65 194.993 193.75 196.616 193.75 196.616C193.75 196.616 190.851 194.993 188.148 190.668C185.789 186.894 184.723 181.478 184.723 181.478C184.723 181.478 180.218 187.965 178.957 197.156C178.957 197.156 175.714 195.714 172.11 189.948C172.11 189.948 170.487 200.039 173.73 207.608C173.73 207.608 167.424 213.193 167.424 225.087C167.424 236.98 176.795 255.18 193.75 266.894Z" fill="#E8EAEC"/>
<mask id="mask2_1173_6037" style="mask-type:luminance" maskUnits="userSpaceOnUse" x="169" y="186" width="50" height="79">
<path d="M171.048 234.562L218.072 222.43L218.067 222.384C218.003 221.668 217.916 220.981 217.809 220.325L217.81 220.265L170.405 232.494L170.427 232.533C170.602 233.179 170.799 233.834 171.017 234.497L171.048 234.562ZM173.666 240.931C173.97 241.547 174.289 242.165 174.623 242.785L174.66 242.842L217.247 231.857L217.266 231.811C217.46 231.039 217.624 230.283 217.756 229.545L217.772 229.487L173.647 240.87L173.666 240.931ZM215.765 213.737C214.278 210.656 212.634 209.131 212.508 209.017L211.499 208.104L212.031 206.863C213.527 203.372 213.901 199.228 213.901 195.951C213.901 195.655 213.886 195.409 213.881 195.129C211.457 197.838 209.587 198.762 209.312 198.884L207.012 199.907L206.669 197.412C206.051 192.909 204.603 189.093 203.353 186.443C202.77 188.134 201.986 190.026 200.958 191.671C198.032 196.353 194.81 198.191 194.674 198.267L193.75 198.784L192.827 198.267C192.691 198.191 189.47 196.353 186.544 191.671C185.515 190.026 184.733 188.134 184.15 186.443C182.899 189.093 181.451 192.909 180.832 197.412L180.49 199.907L178.189 198.884C177.914 198.762 176.044 197.838 173.621 195.129C173.617 195.409 173.6 195.655 173.6 195.951C173.6 199.228 173.975 203.372 175.471 206.863L175.995 208.111L174.994 209.017C174.761 209.226 169.316 214.281 169.316 225.087C169.316 225.298 169.32 225.513 169.326 225.729L169.338 225.791L215.799 213.806L215.765 213.737ZM214.452 239.639C210.509 248.201 203.505 257.441 193.75 264.499C187.473 259.955 182.333 254.506 178.416 248.918L178.378 248.862L214.496 239.545L214.452 239.639Z" fill="white"/>
</mask>
<g mask="url(#mask2_1173_6037)">
<path d="M171.048 234.562L218.072 222.43L218.067 222.384C218.003 221.668 217.916 220.981 217.809 220.325L217.81 220.265L170.405 232.494L170.427 232.533C170.602 233.179 170.799 233.834 171.017 234.497L171.048 234.562ZM173.666 240.931C173.97 241.547 174.289 242.165 174.623 242.785L174.66 242.842L217.247 231.857L217.266 231.811C217.46 231.039 217.624 230.283 217.756 229.545L217.772 229.487L173.647 240.87L173.666 240.931ZM215.765 213.737C214.278 210.656 212.634 209.131 212.508 209.017L211.499 208.104L212.031 206.863C213.527 203.372 213.901 199.228 213.901 195.951C213.901 195.655 213.886 195.409 213.881 195.129C211.457 197.838 209.587 198.762 209.312 198.884L207.012 199.907L206.669 197.412C206.051 192.909 204.603 189.093 203.353 186.443C202.77 188.134 201.986 190.026 200.958 191.671C198.032 196.353 194.81 198.191 194.674 198.267L193.75 198.784L192.827 198.267C192.691 198.191 189.47 196.353 186.544 191.671C185.515 190.026 184.733 188.134 184.15 186.443C182.899 189.093 181.451 192.909 180.832 197.412L180.49 199.907L178.189 198.884C177.914 198.762 176.044 197.838 173.621 195.129C173.617 195.409 173.6 195.655 173.6 195.951C173.6 199.228 173.975 203.372 175.471 206.863L175.995 208.111L174.994 209.017C174.761 209.226 169.316 214.281 169.316 225.087C169.316 225.298 169.32 225.513 169.326 225.729L169.338 225.791L215.799 213.806L215.765 213.737ZM214.452 239.639C210.509 248.201 203.505 257.441 193.75 264.499C187.473 259.955 182.333 254.506 178.416 248.918L178.378 248.862L214.496 239.545L214.452 239.639Z" fill="url(#paint2_linear_1173_6037)"/>
</g>
<path d="M213.211 139.773V192.904L213.208 193.019C210.574 196.253 208.544 197.155 208.544 197.155C207.282 187.965 202.777 181.478 202.777 181.478C202.777 181.478 201.712 186.894 199.353 190.668C196.65 194.993 193.75 196.615 193.75 196.615C193.75 196.615 190.851 194.993 188.148 190.668C185.789 186.894 184.723 181.478 184.723 181.478C184.723 181.478 180.218 187.965 178.957 197.155C178.957 197.155 176.922 196.251 174.286 193.01L174.289 192.854V139.705V139.581H213.211V139.773Z" fill="#FBEA37"/>
<path d="M246.325 246.711H213.211V402.381C198.515 396.954 185.283 388.387 174.284 377.471L174.289 377.333V246.711H174.17H141.178H141.059V207.788H141.16H173.377L173.536 207.795C172.471 208.855 167.424 214.447 167.424 225.087C167.424 236.98 176.795 255.18 193.75 266.894C210.706 255.18 220.077 236.98 220.077 225.087C220.077 214.449 215.03 208.856 213.965 207.795L214.175 207.788H246.409H246.453V246.709L246.325 246.711Z" fill="#FBEA37"/>
<path d="M169.337 225.792L215.798 213.806L215.825 213.863C216.615 215.526 217.353 217.632 217.787 220.201L217.809 220.265L170.405 232.494V232.461C169.771 230.116 169.411 227.905 169.332 225.897L169.337 225.792Z" fill="white"/>
<path d="M171.048 234.562L218.072 222.43L218.077 222.502C218.147 223.323 218.185 224.184 218.185 225.087C218.185 226.433 218.05 227.881 217.782 229.407L217.772 229.487L173.646 240.87L173.611 240.823C172.575 238.709 171.721 236.626 171.057 234.62L171.048 234.562Z" fill="white"/>
<path d="M285.806 76.6768C284.392 76.2676 279.07 74.6576 272.3 71.7359C265.146 68.6468 261.366 66.5838 260.697 66.2104L260.598 66.282C257.761 68.8858 249.415 76.1064 236.344 83.763L236.272 83.78C236.378 85.2512 237.275 97.2371 239.249 108.438L239.306 108.475C242.354 110.138 250.873 114.168 264.942 116.188L265.009 116.157C276.033 111.428 284.73 103.527 286.419 101.934L286.437 101.863C287.092 90.8376 286.284 81.0867 285.826 76.795L285.806 76.6768ZM260.611 65.5083C261.014 53.517 259.555 40.0958 259.216 37.1768L259.223 37.0586C250.373 32.0631 239.949 28.34 234.213 26.4767L234.11 26.4489C232.268 27.1294 223.313 30.8624 211.234 42.885L211.209 42.9692C210.161 48.2503 208.944 58.8993 212.153 72.2087L212.231 72.2562C214.198 73.3101 225.57 79.3415 235.797 83.4443L235.859 83.4201C249.565 75.4187 258.093 67.8776 260.557 65.5845L260.611 65.5083ZM286.357 76.6902C286.814 80.9353 287.62 90.6039 286.996 101.573L287.004 101.667C288.151 101.728 292.559 101.92 297.223 101.504L297.338 101.486C289.31 112.262 277.67 120.19 264.212 123.477L264.222 123.387C264.448 120.506 264.407 117.712 264.381 116.765L264.38 116.652C250.609 114.612 242.2 110.662 239.096 108.975L239.028 108.933C237.426 109.326 229.406 111.085 216.979 110.31L216.928 110.277C216.654 111.298 216.32 112.669 216.071 114.078L216.068 114.184C215.903 114.065 215.738 113.946 215.575 113.826L215.58 113.75C215.845 112.306 216.192 110.921 216.464 109.923L216.411 109.871C214.7 107.977 207.718 100.096 203.111 92.6983C202.58 91.8477 201.742 90.2592 201.47 89.5276L201.401 89.4677C200.053 88.7298 197.515 87.1781 194.408 84.5017L194.351 84.4444C194.244 84.1131 194.139 83.78 194.04 83.446L194.096 83.5096C197.288 86.3543 199.936 88.0287 201.411 88.8561L201.468 88.8668C201.974 87.1369 203.969 82.1209 211.624 72.4854L211.653 72.4397C208.407 59.0596 209.605 48.3228 210.665 42.9396L210.662 42.8232C209.364 41.9126 204.855 38.7598 200.3 35.7414L200.231 35.7083C205.105 27.7983 211.803 21.132 219.74 16.2959L219.926 16.2368C223.278 14.8766 228.295 13.247 234.376 12.5217L234.453 12.5056C235.807 11.603 238.745 9.8722 243.544 8.16108L243.627 8.12798C244.413 8.04023 245.204 7.96767 245.999 7.91126L245.719 7.99634C240.012 9.8176 236.544 11.7857 234.953 12.8226L234.955 12.8826C234.805 14.4415 234.325 19.9867 234.45 25.9761L234.512 26.0066C240.278 27.8851 250.596 31.585 259.401 36.5392L259.446 36.5204C261.338 36.0405 271.885 33.4017 282.088 31.6055L282.082 31.55C281.898 26.5241 281.282 21.6459 280.934 19.1881L280.916 19.085C279.816 18.0204 274.423 13.1817 263.773 9.40573L263.113 9.17738C270.999 10.9422 278.284 14.2937 284.619 18.8791L284.533 18.9069C283.9 19.0179 282.875 19.1683 281.479 19.2731L281.505 19.3734C281.866 21.9593 282.462 26.808 282.63 31.7685L282.664 31.8625C284.248 33.6936 292.425 43.339 298.103 53.8242L298.135 53.8752C300.187 54.399 303.814 55.4449 308.161 57.2205L308.213 57.2321C308.247 57.4452 308.281 57.6583 308.312 57.8714L308.23 57.8338C304.066 56.1146 300.545 55.0661 298.411 54.5047L298.377 54.5862C297.857 56.0546 293.507 67.9833 286.341 76.5855L286.357 76.6902Z" fill="#211915"/>
<path d="M174.659 242.842L217.246 231.857L217.233 231.939C216.619 234.335 215.713 236.877 214.523 239.482L214.495 239.545L178.377 248.862L178.343 248.815C176.97 246.848 175.748 244.864 174.682 242.897L174.659 242.842Z" fill="white"/>
<path d="M328.04 375.594C330.724 372.798 333.269 369.86 335.657 366.79L335.652 366.723C335.668 365.615 335.677 364.467 335.677 363.282C335.677 360.175 333.785 357.809 332.771 357.876C331.757 357.809 329.865 360.175 329.865 363.282C329.865 365.983 329.911 368.499 329.983 370.784C329.983 370.784 328.951 370.793 327.499 370.807C327.499 370.807 327.499 365.445 326.014 365.445C324.458 365.445 324.325 370.831 324.325 370.831C322.721 370.843 321.096 370.852 319.931 370.852C316.688 370.852 312.649 370.717 312.702 371.864C312.768 373.352 314.526 375.04 322.431 375.379C325.034 375.491 326.783 375.555 327.938 375.594H328.04Z" fill="white"/>
<path d="M254.022 292.798V262.896L254.053 262.874C254.257 262.758 254.448 262.704 254.616 262.714C255.631 262.647 257.523 265.013 257.523 268.121C257.523 270.822 257.476 273.337 257.404 275.622C257.404 275.622 258.437 275.632 259.887 275.645C259.887 275.645 259.887 270.283 261.374 270.283C262.929 270.283 263.063 275.669 263.063 275.669C264.667 275.68 266.291 275.689 267.456 275.689C270.699 275.689 274.739 275.555 274.686 276.703C274.62 278.19 272.862 279.879 264.955 280.217C258.742 280.482 257.387 280.487 257.387 280.487C256.914 286.636 256.508 289.407 256.508 289.407C256.508 289.407 260.563 289.744 260.766 291.434C260.928 292.776 257.792 292.785 254.616 292.786C254.459 292.786 254.301 292.786 254.146 292.786L254.022 292.798Z" fill="white"/>
<path d="M303.831 394.596C305.516 393.62 307.175 392.601 308.804 391.537L308.774 391.498C308.14 390.293 307.29 389.559 306.719 389.597C305.763 389.534 304.025 391.633 303.832 394.48L303.831 394.596Z" fill="white"/>
<path d="M303.98 139.642C303.875 140.143 303.813 140.678 303.813 141.236C303.813 143.938 303.859 146.452 303.93 148.737C303.93 148.737 302.899 148.748 301.448 148.76C301.448 148.76 301.448 143.399 299.962 143.399C298.406 143.399 298.272 148.785 298.272 148.785C296.669 148.796 295.043 148.805 293.88 148.805C290.635 148.805 286.597 148.671 286.649 149.819C286.717 151.305 288.473 152.995 296.38 153.332C302.593 153.598 303.948 153.603 303.948 153.603C304.422 159.752 304.827 162.522 304.827 162.522C304.827 162.522 300.772 162.86 300.569 164.55C300.408 165.891 303.543 165.901 306.719 165.902C309.895 165.901 313.03 165.891 312.869 164.55C312.666 162.86 308.612 162.522 308.612 162.522C308.612 162.522 309.016 159.752 309.49 153.603C309.49 153.603 310.846 153.598 317.058 153.332C324.963 152.995 326.721 151.305 326.788 149.819C326.841 148.671 322.802 148.805 319.558 148.805C318.394 148.805 316.769 148.796 315.166 148.785C315.166 148.785 315.032 143.399 313.476 143.399C311.99 143.399 311.99 148.76 311.99 148.76C310.539 148.748 309.508 148.737 309.508 148.737C309.579 146.452 309.625 143.938 309.625 141.236C309.625 140.683 309.564 140.152 309.459 139.655L309.439 139.582H303.999L303.98 139.642Z" fill="white"/>
<path d="M359.247 229.345C359.106 229.345 358.965 229.345 358.822 229.345C355.646 229.344 352.511 229.335 352.672 227.993C352.875 226.303 356.93 225.965 356.93 225.965C356.93 225.965 356.524 223.195 356.051 217.046C356.051 217.046 354.696 217.041 348.483 216.775C340.577 216.437 338.82 214.748 338.752 213.261C338.7 212.113 342.739 212.247 345.983 212.247C347.147 212.247 348.772 212.238 350.375 212.228C350.375 212.228 350.51 206.841 352.064 206.841C353.551 206.841 353.551 212.203 353.551 212.203C355.001 212.19 356.034 212.181 356.034 212.181C355.962 209.895 355.917 207.38 355.917 204.68C355.917 201.571 357.809 199.206 358.822 199.272C358.972 199.262 359.142 199.306 359.322 199.399L359.418 199.442V229.345H359.247Z" fill="white"/>
<path d="M359.418 292.779V262.877L359.362 262.86C359.168 262.755 358.984 262.704 358.822 262.713C357.809 262.647 355.917 265.013 355.917 268.121C355.917 270.821 355.962 273.337 356.034 275.622C356.034 275.622 355.001 275.631 353.551 275.645C353.551 275.645 353.551 270.283 352.064 270.283C350.51 270.283 350.375 275.669 350.375 275.669C348.772 275.68 347.147 275.689 345.983 275.689C342.739 275.689 338.7 275.554 338.752 276.702C338.82 278.19 340.577 279.878 348.483 280.217C354.696 280.482 356.051 280.486 356.051 280.486C356.524 286.636 356.93 289.406 356.93 289.406C356.93 289.406 352.875 289.744 352.672 291.434C352.511 292.776 355.646 292.785 358.822 292.786C358.972 292.786 359.122 292.786 359.272 292.786L359.418 292.779Z" fill="white"/>
<path d="M349.529 343.698C350.817 340.819 351.99 337.873 353.042 334.87L353.018 334.814C352.801 334.175 352.495 333.724 352.064 333.724C350.51 333.724 350.375 339.11 350.375 339.11C348.772 339.121 347.147 339.13 345.983 339.13C342.739 339.13 338.7 338.996 338.752 340.144C338.82 341.63 340.577 343.319 348.483 343.657C348.805 343.671 349.114 343.684 349.41 343.697L349.529 343.698Z" fill="white"/>
<path d="M359.293 165.902C359.136 165.902 358.98 165.902 358.822 165.902C355.646 165.901 352.511 165.892 352.672 164.55C352.875 162.861 356.93 162.522 356.93 162.522C356.93 162.522 356.524 159.753 356.051 153.603C356.051 153.603 354.696 153.599 348.483 153.333C340.577 152.995 338.82 151.305 338.752 149.819C338.7 148.671 342.739 148.805 345.983 148.805C347.147 148.805 348.772 148.796 350.375 148.785C350.375 148.785 350.51 143.399 352.064 143.399C353.551 143.399 353.551 148.761 353.551 148.761C355.001 148.748 356.034 148.737 356.034 148.737C355.962 146.452 355.917 143.938 355.917 141.237C355.917 140.654 355.984 140.098 356.098 139.577L356.1 139.582H359.418V165.908L359.293 165.902Z" fill="white"/>
<path d="M254.022 229.36V199.458L254.048 199.435C254.254 199.318 254.447 199.261 254.616 199.272C255.631 199.206 257.523 201.57 257.523 204.679C257.523 207.38 257.476 209.894 257.404 212.18C257.404 212.18 258.437 212.19 259.887 212.203C259.887 212.203 259.887 206.841 261.374 206.841C262.929 206.841 263.063 212.228 263.063 212.228C264.667 212.237 266.291 212.246 267.456 212.246C270.699 212.246 274.739 212.113 274.686 213.261C274.62 214.747 272.862 216.437 264.955 216.774C258.742 217.04 257.387 217.046 257.387 217.046C256.914 223.195 256.508 225.965 256.508 225.965C256.508 225.965 260.563 226.303 260.766 227.992C260.928 229.334 257.792 229.343 254.616 229.345C254.454 229.345 254.292 229.345 254.129 229.344L254.022 229.36Z" fill="white"/>
<path d="M254.022 356.233V326.314L254.06 326.311C254.261 326.199 254.45 326.145 254.616 326.156C255.631 326.088 257.523 328.453 257.523 331.562C257.523 334.263 257.476 336.778 257.404 339.063C257.404 339.063 258.437 339.073 259.887 339.086C259.887 339.086 259.887 333.724 261.374 333.724C262.929 333.724 263.063 339.11 263.063 339.11C264.667 339.121 266.291 339.13 267.456 339.13C270.699 339.13 274.739 338.996 274.686 340.144C274.62 341.63 272.862 343.319 264.955 343.657C258.742 343.923 257.387 343.928 257.387 343.928C256.914 350.077 256.508 352.848 256.508 352.848C256.508 352.848 260.563 353.186 260.766 354.875C260.928 356.217 257.792 356.227 254.616 356.228C254.454 356.228 254.292 356.228 254.129 356.228L254.022 356.233Z" fill="white"/>
<path d="M257.271 408.75C256.223 408.818 255.17 408.871 254.114 408.908L254.022 408.907V389.768L254.072 389.746C254.268 389.638 254.454 389.586 254.616 389.597C255.631 389.529 257.523 391.895 257.523 395.003C257.523 397.704 257.476 400.219 257.404 402.503C257.404 402.503 258.437 402.515 259.887 402.528C259.887 402.528 259.887 397.165 261.374 397.165C262.929 397.165 263.063 402.552 263.063 402.552C264.667 402.563 266.291 402.571 267.456 402.571C270.699 402.571 274.739 402.437 274.686 403.585C274.62 405.071 272.862 406.761 264.955 407.099C258.742 407.365 257.387 407.369 257.387 407.369C257.352 407.822 257.318 408.255 257.284 408.671L257.271 408.75Z" fill="white"/>
<path d="M254.022 165.908V139.581L254.163 139.582H257.339L257.353 139.634C257.46 140.137 257.523 140.675 257.523 141.237C257.523 143.938 257.476 146.452 257.404 148.737C257.404 148.737 258.437 148.748 259.887 148.761C259.887 148.761 259.887 143.399 261.374 143.399C262.929 143.399 263.063 148.785 263.063 148.785C264.667 148.796 266.291 148.805 267.456 148.805C270.699 148.805 274.739 148.671 274.686 149.819C274.62 151.305 272.862 152.995 264.955 153.333C258.742 153.599 257.387 153.603 257.387 153.603C256.914 159.753 256.508 162.522 256.508 162.522C256.508 162.522 260.563 162.861 260.766 164.55C260.928 165.892 257.792 165.901 254.616 165.902C254.442 165.902 254.268 165.902 254.095 165.901L254.022 165.908Z" fill="white"/>
<path d="M97.2592 326.751L89.5417 330.889C89.5417 330.889 92.9344 337.217 93.6292 338.511C92.0721 339.347 52.5381 360.549 52.5381 360.549L57.367 369.554C57.367 369.554 96.9011 348.352 98.4591 347.518C99.1557 348.815 102.61 355.258 102.61 355.258L111.139 350.685L98.0705 326.315L97.2592 326.751Z" fill="white"/>
<path d="M109.26 377.937C105.301 382.181 98.7692 389.185 97.7735 390.252C97.0214 389.349 95.7723 387.852 95.0148 386.945C96.2567 386.16 104.355 381.038 109.26 377.937ZM118.675 361.866L70.2075 390.459L76.6643 398.2C76.6643 398.2 85.6703 392.761 86.8478 392.051C87.5927 392.943 90.5028 396.432 91.2541 397.333C90.3264 398.362 83.3109 406.165 83.3109 406.165L90.0354 414.225L127.361 371.075L119.347 361.469L118.675 361.866Z" fill="white"/>
<path d="M239.063 428.643C236.549 431.22 235.257 434.818 235.219 439.336C235.219 439.336 234.99 467.466 234.99 467.557C234.99 472.578 236.127 476.478 238.369 479.158C240.69 481.93 244.148 483.355 248.65 483.391C253.046 483.428 256.512 482.05 258.953 479.298C261.36 476.58 262.6 472.689 262.641 467.732L262.695 461.123L252.207 461.038L252.139 469.379C252.126 471.046 251.811 472.288 251.204 473.071C250.652 473.786 249.831 474.129 248.695 474.119C247.558 474.11 246.742 473.753 246.2 473.03C245.609 472.239 245.315 470.991 245.329 469.323L245.577 438.894C245.591 437.231 245.903 435.998 246.505 435.229C247.059 434.526 247.881 434.188 249.02 434.199C250.158 434.207 250.975 434.559 251.518 435.271C252.108 436.05 252.401 437.288 252.387 438.949L252.331 445.848L262.819 445.934L262.871 439.786C262.906 435.257 261.71 431.602 259.312 428.922C256.891 426.216 253.566 424.828 249.429 424.794C245.073 424.758 241.585 426.053 239.063 428.643Z" fill="white"/>
<path d="M370.825 372.211H370.825C368.184 375.051 366.955 378.452 367.173 382.324C367.391 386.183 369.01 389.544 371.985 392.311C374.036 394.22 376.449 395.562 379.16 396.3C381.854 397.039 386.254 397.303 392.609 397.106C392.616 397.106 393.751 397.054 393.751 397.054C399.884 396.76 403.947 397.496 405.824 399.244C406.806 400.156 407.307 401.142 407.355 402.256C407.405 403.363 407.003 404.358 406.132 405.296C405.147 406.352 404.054 406.773 402.785 406.581C401.384 406.369 399.67 405.426 397.69 403.774L396.914 403.128L391.246 411.385L391.875 411.923C395.603 415.107 399.427 416.729 403.238 416.743C407.093 416.758 410.572 415.128 413.575 411.898C416.3 408.97 417.581 405.571 417.381 401.796C417.182 398.036 415.528 394.683 412.462 391.831C410.206 389.731 407.694 388.275 404.995 387.5C402.302 386.73 398.294 386.499 392.747 386.792C392.761 386.792 392.091 386.81 392.091 386.81C385.11 387.126 380.512 386.287 378.398 384.322C377.442 383.43 376.928 382.516 376.83 381.524C376.737 380.575 377.048 379.732 377.78 378.945C378.573 378.091 379.385 377.765 380.34 377.915C381.422 378.088 382.858 378.903 384.605 380.337L385.374 380.968L391.168 372.645L390.491 372.109C387.087 369.407 383.582 368.037 380.074 368.037C376.514 368.038 373.401 369.441 370.825 372.211Z" fill="white"/>
<path d="M418.716 333.244C424.288 334.86 433.487 337.527 434.889 337.933C434.424 339.011 433.65 340.803 433.184 341.887C431.924 341.134 423.697 336.22 418.716 333.244ZM404.111 320.906L399.467 331.677L447.52 362.437L451.511 353.18C451.511 353.18 442.593 347.6 441.427 346.869C441.888 345.802 443.686 341.63 444.15 340.553C445.489 340.916 455.618 343.654 455.618 343.654L459.775 334.016L404.42 320.189L404.111 320.906Z" fill="white"/>
<path d="M424.469 274.535C424.592 272.479 425.12 271.007 426.041 270.159C426.952 269.32 428.413 268.954 430.38 269.069L456.617 270.623C458.361 270.726 459.613 271.098 460.339 271.73C460.939 272.252 461.234 273.005 461.234 274.022C461.234 274.132 461.229 274.246 461.223 274.364C461.223 274.364 461.093 276.576 461.025 277.707C459.319 277.605 426.117 275.64 424.411 275.54C424.441 275.037 424.469 274.535 424.469 274.535ZM419.359 261.612C416.605 263.838 415.061 267.418 414.775 272.258L414.012 285.161L470.218 288.486L471.003 275.207C471.288 270.384 470.183 266.71 467.717 264.291C465.288 261.903 461.277 260.526 455.794 260.203L431.441 258.761C426.153 258.449 422.088 259.407 419.359 261.612Z" fill="white"/>
<path d="M86.0224 290.407L32.6982 305.375L40.1892 332.061L49.7665 329.372C49.7665 329.372 45.4838 314.114 45.037 312.524C46.5207 312.109 57.5288 309.018 59.0107 308.603C59.4441 310.143 62.7204 321.815 62.7204 321.815L72.0371 319.199C72.0371 319.199 68.7617 307.527 68.3292 305.986C69.7735 305.581 78.9066 303.017 80.3518 302.611C80.7977 304.202 85.0805 319.461 85.0805 319.461L94.399 316.845L86.9071 290.159L86.0224 290.407Z" fill="white"/>
<path d="M139.201 384.758L105.609 428.793L113.734 434.989C113.734 434.989 127.537 416.895 128.57 415.541C129.843 416.512 139.481 423.865 139.481 423.865L145.351 416.17C145.351 416.17 135.712 408.817 134.441 407.846C135.35 406.654 141.104 399.111 142.013 397.918C143.325 398.92 155.927 408.533 155.927 408.533L161.797 400.838L139.759 384.027L139.201 384.758Z" fill="white"/>
<path d="M71.1559 252.055L43.2666 252.877C38.1574 253.028 34.2122 254.207 31.5386 256.38C28.7655 258.635 27.4304 261.806 27.5728 265.806L27.5907 266.325C27.708 269.833 27.8298 273.462 31.5609 276.844C33.9785 279.035 37.5602 280.009 43.1726 280.003L58.4823 279.552L58.039 264.536L49.3124 264.791C49.3124 264.791 49.4252 268.634 49.461 269.866C47.9952 269.909 41.7955 270.092 41.7955 270.092C40.1094 270.141 38.8424 269.873 38.0294 269.297C37.2889 268.771 36.9137 267.964 36.8797 266.831C36.8447 265.694 37.1743 264.866 37.8825 264.297C38.6597 263.676 39.9088 263.333 41.5949 263.283L71.9868 262.388C73.6415 262.34 74.879 262.605 75.6633 263.178C76.3833 263.704 76.7513 264.513 76.7844 265.654C76.8184 266.791 76.4996 267.621 75.8102 268.191C75.058 268.809 73.8403 269.148 72.1874 269.196L65.5372 269.392L65.83 279.336L71.7298 279.162C76.5194 279.021 80.1896 277.798 82.6395 275.527C85.1251 273.222 86.3214 269.915 86.1978 265.699C86.0689 261.35 84.647 257.915 81.967 255.491C79.2996 253.079 75.6624 251.923 71.1559 252.055Z" fill="white"/>
<path d="M170.975 407.077L147.795 457.378L172.969 468.979L177.133 459.946C177.133 459.946 162.738 453.311 161.24 452.62C161.884 451.221 166.669 440.839 167.313 439.438C168.767 440.11 179.778 445.182 179.778 445.182L183.827 436.392C183.827 436.392 172.818 431.32 171.364 430.651C171.991 429.288 175.962 420.669 176.59 419.306C178.09 419.997 192.483 426.63 192.483 426.63L196.535 417.842L171.36 406.242L170.975 407.077Z" fill="white"/>
<path d="M319.913 411.045L294.769 420.313L314.238 473.145L323.825 469.61C323.825 469.61 315.957 448.255 315.367 446.657C316.87 446.103 328.244 441.912 328.244 441.912L324.899 432.831C324.899 432.831 313.524 437.023 312.021 437.577C311.502 436.17 308.221 427.267 307.703 425.86C309.253 425.289 324.124 419.807 324.124 419.807L320.777 410.727L319.913 411.045Z" fill="white"/>
<path d="M293.881 57.9061C291.853 60.0676 286.853 65.4741 284.826 67.6365C282.799 69.7989 276.31 72.2317 272.73 70.7427C266.549 68.1738 262.962 66.2056 261.681 65.5153C261.728 64.0925 261.76 62.6545 261.76 61.2093C261.76 50.8816 260.681 40.5074 260.331 37.4129C263.229 36.6876 272.748 34.364 281.978 32.7245C283.37 34.3443 288.33 40.254 293.034 47.4728C295.836 51.7717 295.907 55.7428 293.881 57.9061Z" fill="#57615B"/>
<path d="M279.554 41.2818C279.689 46.9578 277.121 50.0667 274.689 52.3643C272.256 54.6619 268.742 57.3651 265.633 60.2026C262.525 63.0411 261.984 61.0139 262.245 56.9595C262.027 48.523 261.244 40.7598 260.918 37.8246C263.387 37.2113 269.484 35.733 276.271 34.3639C278.662 33.9323 279.419 35.6058 279.554 41.2818Z" fill="#8A8E91"/>
<path d="M232.478 15.0628C232.478 15.0628 232.387 20.3788 232.658 25.334C232.658 25.334 221.576 30.2892 211.124 41.1917C211.124 41.1917 206.437 37.9476 203.646 35.9661C203.646 35.9661 215.359 19.1172 232.478 15.0628Z" fill="#4A524C"/>
<path d="M234.729 84.4396C234.729 84.4396 234.729 90.206 235.54 97.7749C235.54 97.7749 227.342 95.1612 223.287 91.7381C219.232 88.314 214.276 85.6117 211.843 83.5388C209.41 81.4668 208.869 79.9348 210.132 77.682C211.393 75.43 212.565 73.898 212.565 73.898C212.565 73.898 220.763 78.7636 234.729 84.4396Z" fill="#2E3733"/>
<path d="M234.188 84.8006C234.188 84.8006 234.188 86.9621 234.188 90.1157C234.188 90.1157 231.396 87.6829 229.413 86.1518C227.432 84.6206 224.458 82.3678 222.747 81.5574C221.034 80.7462 218.06 78.4933 217.25 77.7725C216.439 77.0517 214.727 75.7901 214.727 75.7901C214.727 75.7901 224.007 80.9262 234.188 84.8006Z" fill="#5A6161"/>
<path d="M231.923 24.9283C231.923 24.9283 220.029 29.7939 211.38 39.9299C211.38 39.9299 208.948 38.714 210.84 36.9572C212.732 35.2004 220.841 27.4972 225.706 24.9283C230.571 22.3602 231.923 24.9283 231.923 24.9283Z" fill="#57615C"/>
<path d="M244.434 8.04356C235.524 8.91838 227.197 11.7855 219.908 16.1945L219.739 16.2957L219.926 16.2365C223.277 14.8764 228.294 13.2468 234.376 12.5215L234.453 12.5054C235.806 11.6028 238.744 9.87199 243.544 8.16087L243.626 8.12777" fill="#E4E5E3"/>
<path d="M245.999 7.91108L245.72 7.99616C240.012 9.81742 236.544 11.7855 234.953 12.8224L234.955 12.8824C234.806 14.4413 234.326 19.9865 234.45 25.9759L234.512 26.0064C240.278 27.885 250.596 31.5848 259.401 36.5391L259.446 36.5203C261.338 36.0403 271.885 33.4015 282.088 31.6054L282.082 31.5498C281.899 26.5239 281.283 21.6458 280.934 19.1879L280.916 19.0849C279.816 18.0202 274.423 13.1815 263.774 9.40555L263.113 9.1772L262.866 9.12167C258.798 8.22984 254.573 7.75976 250.238 7.75976C248.879 7.75976 247.53 7.80634 246.194 7.89678L245.999 7.91108Z" fill="#E0E4E4"/>
<path d="M260.611 65.5082C261.014 53.5169 259.555 40.0956 259.216 37.1766L259.223 37.0584C250.373 32.0629 239.949 28.3398 234.213 26.4765L234.11 26.4487C232.268 27.1292 223.313 30.8622 211.234 42.8848L211.209 42.969C210.161 48.2501 208.944 58.8992 212.153 72.2085L212.231 72.256C214.198 73.3099 225.57 79.3413 235.797 83.4441L235.859 83.4199C249.565 75.4186 258.093 67.8774 260.557 65.5843L260.611 65.5082Z" fill="#D3D7DC"/>
<path d="M234.279 27.9019C234.279 27.9019 226.439 31.9572 220.628 36.822C214.817 41.6876 213.331 45.742 213.6 48.7148C213.871 51.6884 219.277 60.6085 223.737 63.1765C228.197 65.7445 233.603 71.2853 236.982 71.5557C240.36 71.8261 246.172 71.5557 250.496 69.7989C254.821 68.0421 259.416 65.0685 259.416 65.0685C259.416 65.0685 259.416 56.8245 258.876 49.1213C258.335 41.4172 257.796 37.7684 257.796 37.7684C257.796 37.7684 243.874 30.7404 234.279 27.9019Z" fill="#EAECEA"/>
<path d="M234.413 28.4427C234.413 28.4427 224.547 33.9835 221.034 37.3628C217.519 40.7411 216.034 44.9307 217.25 46.2828C218.466 47.6339 221.169 51.8236 221.574 54.9324C221.979 58.0404 228.602 59.662 230.9 62.5004C233.197 65.3388 236.035 66.5548 240.495 65.474C244.955 64.3924 249.551 66.6909 250.766 63.9877C251.983 61.2844 256.038 61.014 257.254 62.23C258.471 63.4468 259.281 59.6619 258.74 52.7691C258.2 45.8771 257.254 38.1731 257.254 38.1731C257.254 38.1731 244.009 31.4163 234.413 28.4427Z" fill="white"/>
<path d="M242.523 27.0917C242.523 27.0917 253.47 31.686 259.552 35.3357C259.552 35.3357 274.959 31.2813 280.635 30.6052C280.635 30.6052 279.419 27.6325 277.661 26.5509C275.904 25.4692 276.986 21.9556 274.013 20.7396C271.04 19.5228 266.174 21.1444 263.877 19.5228C261.579 17.9012 253.604 15.874 250.902 17.6308C248.199 19.3876 235.63 24.2533 242.523 27.0917Z" fill="#EEF0ED"/>
<path d="M259.687 34.7947C259.687 34.7947 251.984 30.6051 248.334 28.7131C244.685 26.8211 244.55 24.3874 247.524 23.9826C250.496 23.577 255.496 22.2258 257.12 21.685C258.74 21.1442 261.174 25.0634 265.768 23.8474C270.364 22.6314 272.256 23.3066 273.877 25.6042C275.5 27.9018 278.337 30.1994 273.337 31.4163C268.336 32.6323 259.687 34.7947 259.687 34.7947Z" fill="white"/>
<path d="M297.376 101.435C304.636 91.6658 308.933 79.5626 308.933 66.4557C308.933 63.5626 308.724 60.7197 308.319 57.9394L308.311 57.8714L308.23 57.8338C304.065 56.1146 300.545 55.0661 298.41 54.5047L298.377 54.5861C297.857 56.0546 293.507 67.9833 286.341 76.5854L286.357 76.6902C286.814 80.9353 287.619 90.6039 286.995 101.573L287.003 101.667C288.15 101.728 292.559 101.92 297.223 101.504L297.337 101.486L297.376 101.435Z" fill="#E1E6E7"/>
<path d="M308.203 57.1657C305.71 41.4924 297.012 27.8858 284.707 18.9425L284.619 18.8789L284.533 18.9067C283.901 19.0177 282.875 19.1681 281.479 19.2729L281.505 19.3732C281.866 21.9591 282.462 26.8078 282.63 31.7683L282.664 31.8623C284.248 33.6935 292.425 43.3388 298.103 53.824L298.135 53.875C300.187 54.3988 303.815 55.4447 308.161 57.2203L308.213 57.2319L308.203 57.1657Z" fill="#F0F1ED"/>
<path d="M285.806 76.6765C284.393 76.2673 279.07 74.6574 272.301 71.7357C265.147 68.6465 261.366 66.5835 260.697 66.2101L260.599 66.2817C257.761 68.8856 249.415 76.1061 236.344 83.7627L236.272 83.7798C236.378 85.2509 237.275 97.2369 239.25 108.438L239.307 108.475C242.354 110.138 250.874 114.168 264.943 116.187L265.01 116.157C276.034 111.428 284.73 103.527 286.42 101.933L286.438 101.863C287.092 90.8374 286.285 81.0864 285.826 76.7947L285.806 76.6765Z" fill="#E7E8E8"/>
<path d="M261.578 71.6461C258.706 71.9648 253.379 76.6917 247.614 80.8356C241.846 84.9805 239.505 85.5213 239.505 85.5213C239.505 85.5213 239.865 94.3509 240.766 100.568C241.667 106.785 241.846 109.307 241.846 109.307C241.846 109.307 254.28 114.713 262.93 115.074C262.93 115.074 276.986 109.578 285.365 100.748C285.365 100.748 286.174 86.9638 285.185 80.0253C285.185 80.0253 279.87 77.8629 272.391 74.7997C264.912 71.7356 263.201 71.4661 261.578 71.6461Z" fill="#B7BCC5"/>
<path d="M262.3 71.9166C260.855 72.076 256.173 75.0694 251.307 78.5838C246.443 82.0974 242.657 85.251 241.487 85.7014C240.315 86.1518 240.315 87.4134 240.495 89.6663C240.676 91.9182 240.676 95.7022 244.73 94.9814C248.785 94.2615 254.101 95.1623 256.894 93.7207C259.687 92.2791 260.858 95.6127 265.903 93.4503C270.949 91.2879 276.882 96.1535 280.848 94.0806C284.813 92.0087 285.185 91.2879 285.095 86.5126C285.004 81.7365 284.914 80.3854 284.914 80.3854C284.914 80.3854 280.68 78.4934 273.112 75.5197C265.543 72.5461 263.111 71.8262 262.3 71.9166Z" fill="#D3D7DC"/>
<path d="M307.8 58.4004C307.8 58.4004 303.656 56.8693 302.034 56.1485C300.411 55.4268 299.329 59.7525 297.349 64.3469C295.367 68.9421 292.484 73.4478 290.412 76.151C288.339 78.8543 287.799 81.7366 287.708 89.215C287.617 96.6934 287.528 99.1263 287.528 99.1263C287.528 99.1263 293.563 99.5776 295.636 99.3967C297.709 99.2158 301.403 95.6127 304.016 89.3959C306.629 83.1782 310.413 70.0237 307.8 58.4004Z" fill="#B0B7C1"/>
<path d="M303.025 57.4993C301.66 56.7651 301.133 57.2298 298.16 64.257C295.187 71.2851 293.295 73.8083 291.222 76.4202C289.15 79.0339 288.43 80.3851 288.158 84.8899C287.888 89.3956 288.868 91.6475 290.219 90.1155C291.57 88.5843 293.474 91.0172 294.737 86.7819C295.174 85.3143 297.351 84.709 297.71 81.6467C298.07 78.5835 300.842 78.2209 300.954 75.249C301.133 70.4747 303.746 70.2939 303.475 66.8698C303.206 63.4467 304.918 62.3659 304.557 60.2026C304.197 58.0402 304.195 58.1306 303.025 57.4993Z" fill="#D5DADC"/>
<path d="M286.086 29.749C284.899 27.378 284.285 22.4506 283.383 21.1889C282.482 19.9282 282.031 19.6578 282.031 19.6578C282.031 19.6578 284.103 19.4779 284.555 19.3874C285.004 19.297 290.141 22.8114 295.906 30.0195C301.673 37.2275 306.899 48.2195 307.89 56.8691C307.89 56.8691 304.827 55.2467 303.926 54.7963C303.024 54.3459 300.682 50.2924 299.691 48.5804C298.699 46.8675 296.899 45.3363 296.627 43.4443C296.358 41.5523 295.095 42.1827 294.105 39.8403C293.114 37.4979 290.14 37.1371 289.779 35.0651C289.419 32.9922 287.258 32.0914 286.086 29.749Z" fill="#D3D6D4"/>
<path d="M286.357 23.2618C284.891 22.4479 284.827 23.8931 285.547 26.7754C286.266 29.6586 286.898 30.6507 288.249 31.9114C289.601 33.1731 290.141 34.0739 290.321 34.7947C290.502 35.5155 291.762 36.958 292.663 37.3179C293.564 37.6779 293.565 38.4891 294.196 39.2995C294.826 40.1107 294.825 40.9219 296.268 41.6427C297.71 42.3636 297.079 44.346 297.529 44.8859C297.98 45.4268 299.33 46.5075 300.503 48.7604C301.674 51.0123 302.395 52.9043 303.475 53.3556C304.557 53.806 304.288 53.3556 303.927 50.3819C303.566 47.4083 303.116 45.6971 301.313 44.346C299.511 42.9939 300.863 40.8315 298.52 38.3082C296.178 35.7859 296.086 34.8851 293.295 31.821C290.502 28.7578 289.601 25.0643 286.357 23.2618Z" fill="#E3E5E6"/>
<path d="M194.04 83.4459L194.096 83.5095C197.288 86.3542 199.937 88.0286 201.411 88.8559L201.469 88.8667C201.974 87.1368 203.969 82.1207 211.624 72.4852L211.653 72.4396C208.407 59.0595 209.605 48.3227 210.665 42.9395L210.663 42.8231C209.364 41.9124 204.855 38.7597 200.3 35.7413L200.231 35.7082L200.177 35.7959C194.7 44.7196 191.543 55.2182 191.543 66.4555C191.543 72.324 192.403 77.9911 194.006 83.3376L194.04 83.4459Z" fill="#E4E7E9"/>
<path d="M215.574 113.826L215.58 113.75C215.845 112.306 216.192 110.92 216.464 109.923L216.411 109.871C214.7 107.976 207.718 100.096 203.11 92.6979C202.58 91.8473 201.742 90.2588 201.47 89.5272L201.401 89.4673C200.053 88.7294 197.515 87.1777 194.408 84.5013L194.351 84.444L194.407 84.6204C198.231 96.3825 205.669 106.515 215.412 113.706L215.574 113.826Z" fill="#D9DDDC"/>
<path d="M264.212 123.477L264.222 123.386C264.447 120.506 264.406 117.712 264.38 116.765L264.379 116.652C250.609 114.612 242.2 110.662 239.095 108.975L239.027 108.933C237.426 109.326 229.405 111.085 216.979 110.31L216.928 110.277C216.654 111.298 216.319 112.668 216.07 114.078L216.067 114.183L216.158 114.249C225.766 121.112 237.53 125.15 250.237 125.15C255.001 125.15 259.633 124.583 264.069 123.511L264.212 123.477Z" fill="#D9DDDC"/>
<path d="M192.472 57.41C193.876 45.6918 200.13 36.3259 200.13 36.3259C200.13 36.3259 201.211 38.3092 202.293 40.0203C203.374 41.7323 208.961 44.6155 208.961 44.6155C208.961 44.6155 208.24 48.31 208.509 57.23C208.781 66.1501 209.14 71.1053 209.14 71.1053C209.14 71.1053 201.661 82.1877 200.401 86.4221C200.401 86.4221 196.887 84.9805 194.094 82.0973C194.094 82.0973 190.4 74.7093 192.472 57.41Z" fill="#9EA3A2"/>
<path d="M201.301 39.3901C201.301 39.3901 203.013 42.2733 208.24 45.0661C208.24 45.0661 207.699 60.8342 208.69 70.5646C208.69 70.5646 204.455 76.5111 203.193 79.2143C201.933 81.9175 199.86 74.7999 200.041 71.2854C200.22 67.7718 197.608 64.4383 198.057 61.6446C198.509 58.8518 197.157 55.9677 197.878 52.815C198.598 49.6614 197.067 48.7606 198.598 45.9678C200.13 43.1741 201.301 39.3901 201.301 39.3901Z" fill="#D3D7DC"/>
<path d="M264.103 119.669C264.103 121.383 263.832 123.183 263.832 123.183C263.832 123.183 251.76 127.058 236.442 123.272C222.84 119.913 216.439 114.083 216.439 114.083C216.439 114.083 216.8 112.1 217.251 110.929C217.251 110.929 231.848 112.01 237.343 111.83C242.84 111.651 246.083 114.894 248.966 115.435C251.849 115.976 253.02 117.417 256.895 117.417C260.768 117.417 264.103 118.048 264.103 119.669Z" fill="#979C9A"/>
<path d="M217.519 111.74C217.519 111.74 216.168 112.912 217.7 113.543C219.232 114.173 225.089 115.795 227.882 117.327C230.674 118.858 234.008 120.029 238.514 120.12C243.018 120.21 249.956 120.75 252.929 120.93C255.902 121.111 252.478 119.129 256.353 119.129C260.227 119.129 261.758 118.948 257.883 118.497C254.01 118.048 250.047 116.965 247.073 115.525C244.099 114.083 241.216 113.093 237.702 113.002C234.188 112.912 231.305 112.551 226.62 112.371C221.935 112.191 218.15 111.65 217.519 111.74Z" fill="#A2A4A5"/>
<path d="M215.898 110.14C215.898 110.14 211.573 106.425 206.842 100.004C202.112 93.5853 200.086 89.53 200.086 89.53C200.086 89.53 197.382 88.1788 194.814 85.4764C194.814 85.4764 197.451 93.7204 202.991 100.951C208.532 108.181 215.29 113.385 215.29 113.385C215.29 113.385 215.358 112.777 215.898 110.14Z" fill="#969E9C"/>
<path d="M199.747 89.8684C199.747 89.8684 198.261 89.0581 197.518 88.5844C196.774 88.1117 198.734 91.6933 201.302 95.7477C203.87 99.8021 210.086 107.438 212.586 109.465C215.087 111.493 215.29 110.614 213.735 108.993C212.181 107.37 208.735 103.181 205.356 98.7885C201.978 94.3956 199.747 89.8684 199.747 89.8684Z" fill="#A2A3A4"/>
</g>
<defs>
<linearGradient id="paint0_linear_1173_6037" x1="111.736" y1="73.3188" x2="357.748" y2="319.331" gradientUnits="userSpaceOnUse">
<stop stop-color="#1D5CA1"/>
<stop offset="0.673089" stop-color="#1D5CA1"/>
<stop offset="0.904494" stop-color="#003F7D"/>
<stop offset="1" stop-color="#003F7D"/>
</linearGradient>
<linearGradient id="paint1_linear_1173_6037" x1="19.6494" y1="347.406" x2="480.825" y2="347.406" gradientUnits="userSpaceOnUse">
<stop stop-color="#4779B6"/>
<stop offset="0.673089" stop-color="#4779B6"/>
<stop offset="0.904494" stop-color="#00569E"/>
<stop offset="1" stop-color="#00569E"/>
</linearGradient>
<linearGradient id="paint2_linear_1173_6037" x1="171.086" y1="197.665" x2="216.417" y2="242.996" gradientUnits="userSpaceOnUse">
<stop stop-color="#A20F2A"/>
<stop offset="0.0715552" stop-color="#A20F2A"/>
<stop offset="1" stop-color="#6E1610"/>
</linearGradient>
<clipPath id="clip0_1173_6037">
<rect width="500" height="500" fill="white"/>
</clipPath>
</defs>
</svg>
