<svg width="500" height="500" viewBox="0 0 500 500" fill="none" xmlns="http://www.w3.org/2000/svg">
<g clip-path="url(#clip0_1174_6187)">
<path fill-rule="evenodd" clip-rule="evenodd" d="M246.453 408.924V139.58L246.274 139.581H141.059V297.113C141.059 357.564 187.86 406.816 246.359 408.908L246.453 408.924ZM193.75 266.894C210.706 255.18 220.077 236.98 220.077 225.087C220.077 213.193 213.769 207.608 213.769 207.608C217.012 200.039 215.391 189.948 215.391 189.948C211.787 195.714 208.544 197.156 208.544 197.156C207.282 187.965 202.777 181.478 202.777 181.478C202.777 181.478 201.713 186.894 199.353 190.669C196.65 194.993 193.75 196.616 193.75 196.616C193.75 196.616 190.851 194.993 188.148 190.669C185.789 186.894 184.723 181.478 184.723 181.478C184.723 181.478 180.218 187.965 178.957 197.156C178.957 197.156 175.714 195.714 172.11 189.948C172.11 189.948 170.487 200.039 173.73 207.608C173.73 207.608 167.424 213.193 167.424 225.087C167.424 236.98 176.795 255.18 193.75 266.894ZM171.048 234.562L218.072 222.43L218.067 222.384C218.003 221.668 217.916 220.981 217.809 220.325L217.81 220.265L170.405 232.494L170.427 232.533C170.602 233.179 170.799 233.834 171.017 234.497L171.048 234.562ZM173.666 240.931C173.97 241.547 174.289 242.165 174.623 242.785L174.66 242.842L217.247 231.857L217.266 231.811C217.46 231.04 217.624 230.283 217.756 229.545L217.772 229.487L173.647 240.87L173.666 240.931ZM215.765 213.737C214.278 210.656 212.634 209.131 212.508 209.017L211.499 208.104L212.031 206.863C213.527 203.372 213.901 199.228 213.901 195.951C213.901 195.772 213.896 195.611 213.89 195.45C213.887 195.345 213.883 195.24 213.881 195.129C211.457 197.838 209.587 198.762 209.312 198.885L207.012 199.907L206.669 197.412C206.051 192.909 204.603 189.093 203.353 186.443C202.77 188.134 201.986 190.026 200.958 191.671C198.032 196.353 194.81 198.191 194.674 198.267L193.75 198.784L192.827 198.267C192.691 198.191 189.47 196.353 186.544 191.671C185.515 190.026 184.733 188.134 184.15 186.443C182.899 189.093 181.451 192.909 180.832 197.412L180.49 199.907L178.189 198.885C177.914 198.762 176.044 197.838 173.621 195.129C173.62 195.248 173.615 195.36 173.611 195.472C173.606 195.626 173.6 195.78 173.6 195.951C173.6 199.228 173.975 203.372 175.471 206.863L175.995 208.111L174.994 209.017C174.761 209.227 169.316 214.281 169.316 225.087C169.316 225.298 169.32 225.513 169.326 225.729L169.338 225.792L215.799 213.806L215.765 213.737ZM214.452 239.639C210.509 248.201 203.505 257.442 193.75 264.499C187.473 259.955 182.333 254.506 178.416 248.918L178.378 248.862L214.496 239.545L214.452 239.639ZM213.211 192.904V139.773V139.582H174.289V139.705V192.854L174.286 193.011C176.922 196.251 178.957 197.155 178.957 197.155C180.218 187.965 184.723 181.478 184.723 181.478C184.723 181.478 185.789 186.894 188.148 190.668C190.851 194.993 193.75 196.615 193.75 196.615C193.75 196.615 196.65 194.993 199.353 190.668C201.712 186.894 202.777 181.478 202.777 181.478C202.777 181.478 207.282 187.965 208.544 197.155C208.544 197.155 210.574 196.253 213.208 193.019L213.211 192.904ZM213.211 246.711H246.325L246.453 246.709V207.788H246.409H214.175L213.965 207.795C215.03 208.856 220.077 214.449 220.077 225.087C220.077 236.98 210.706 255.18 193.75 266.894C176.795 255.18 167.424 236.98 167.424 225.087C167.424 214.447 172.471 208.855 173.536 207.795L173.377 207.788H141.16H141.059V246.711H141.178H174.17H174.289V377.333L174.284 377.471C185.283 388.387 198.515 396.954 213.211 402.381V246.711Z" fill="white"/>
<path d="M285.806 76.6768C284.392 76.2676 279.07 74.6576 272.3 71.7359C265.146 68.6468 261.366 66.5838 260.697 66.2104L260.598 66.282C257.761 68.8858 249.415 76.1064 236.344 83.763L236.272 83.78C236.378 85.2512 237.275 97.2371 239.249 108.438L239.306 108.475C242.354 110.138 250.873 114.168 264.942 116.188L265.009 116.157C276.033 111.428 284.73 103.527 286.419 101.934L286.437 101.863C287.092 90.8376 286.284 81.0867 285.826 76.795L285.806 76.6768ZM260.611 65.5083C261.014 53.517 259.555 40.0958 259.216 37.1768L259.223 37.0586C250.373 32.0631 239.949 28.34 234.213 26.4767L234.11 26.4489C232.268 27.1294 223.313 30.8624 211.234 42.885L211.209 42.9692C210.161 48.2503 208.944 58.8993 212.153 72.2087L212.231 72.2562C214.198 73.3101 225.57 79.3415 235.797 83.4443L235.859 83.4201C249.565 75.4187 258.093 67.8776 260.557 65.5845L260.611 65.5083ZM286.357 76.6902C286.814 80.9353 287.62 90.6039 286.996 101.573L287.004 101.667C288.151 101.728 292.559 101.92 297.223 101.504L297.338 101.486C289.31 112.262 277.67 120.19 264.212 123.477L264.222 123.387C264.448 120.506 264.407 117.712 264.381 116.765L264.38 116.652C250.609 114.612 242.2 110.662 239.096 108.975L239.028 108.933C237.426 109.326 229.406 111.085 216.979 110.31L216.928 110.277C216.654 111.298 216.32 112.669 216.071 114.078L216.068 114.184C215.903 114.065 215.738 113.946 215.575 113.826L215.58 113.75C215.845 112.306 216.192 110.921 216.464 109.923L216.411 109.871C214.7 107.977 207.718 100.096 203.111 92.6983C202.58 91.8477 201.742 90.2592 201.47 89.5276L201.401 89.4677C200.053 88.7298 197.515 87.1781 194.408 84.5017L194.351 84.4444C194.244 84.1131 194.139 83.78 194.04 83.446L194.096 83.5096C197.288 86.3543 199.936 88.0287 201.411 88.8561L201.468 88.8668C201.974 87.1369 203.969 82.1209 211.624 72.4854L211.653 72.4397C208.407 59.0596 209.605 48.3228 210.665 42.9396L210.662 42.8232C209.364 41.9126 204.855 38.7598 200.3 35.7414L200.231 35.7083C205.105 27.7983 211.803 21.132 219.74 16.2959L219.926 16.2368C223.278 14.8766 228.295 13.247 234.376 12.5217L234.453 12.5056C235.807 11.603 238.745 9.8722 243.544 8.16108L243.627 8.12798C244.413 8.04023 245.204 7.96767 245.999 7.91125L245.719 7.99634C240.012 9.8176 236.544 11.7857 234.953 12.8226L234.955 12.8826C234.805 14.4415 234.325 19.9867 234.45 25.9761L234.512 26.0066C240.278 27.8851 250.596 31.585 259.401 36.5392L259.446 36.5204C261.338 36.0405 271.885 33.4017 282.088 31.6055L282.082 31.55C281.898 26.5241 281.282 21.646 280.934 19.1881L280.916 19.0851C279.816 18.0204 274.423 13.1817 263.773 9.40573L263.113 9.17738C270.999 10.9422 278.284 14.2937 284.619 18.8791L284.533 18.9069C283.9 19.0179 282.875 19.1683 281.479 19.2731L281.505 19.3734C281.866 21.9593 282.462 26.808 282.63 31.7685L282.664 31.8625C284.248 33.6936 292.425 43.339 298.103 53.8242L298.135 53.8752C300.187 54.399 303.814 55.4449 308.161 57.2205L308.213 57.2321C308.247 57.4452 308.281 57.6583 308.312 57.8715L308.23 57.8338C304.066 56.1146 300.545 55.0661 298.411 54.5047L298.377 54.5862C297.857 56.0546 293.507 67.9833 286.341 76.5855L286.357 76.6902Z" fill="white"/>
<path fill-rule="evenodd" clip-rule="evenodd" d="M358.822 165.902H359.293L359.417 165.908V199.441L359.322 199.399C359.142 199.306 358.972 199.262 358.822 199.272C357.809 199.206 355.917 201.571 355.917 204.68C355.917 207.38 355.962 209.895 356.034 212.181C356.034 212.181 355.001 212.19 353.551 212.203C353.551 212.203 353.551 206.841 352.064 206.841C350.51 206.841 350.375 212.228 350.375 212.228C348.772 212.238 347.147 212.247 345.983 212.247C345.686 212.247 345.383 212.246 345.077 212.244H345.074H345.071H345.069H345.066H345.063H345.06H345.057H345.057C342.02 212.233 338.705 212.221 338.752 213.261C338.82 214.748 340.577 216.437 348.483 216.775C354.696 217.041 356.051 217.046 356.051 217.046C356.524 223.195 356.93 225.965 356.93 225.965C356.93 225.965 352.875 226.303 352.672 227.992C352.511 229.335 355.646 229.344 358.822 229.345H359.247H359.417V262.877L359.362 262.86C359.168 262.755 358.984 262.704 358.822 262.713C357.809 262.647 355.917 265.013 355.917 268.121C355.917 270.821 355.962 273.336 356.034 275.622C356.034 275.622 355.001 275.631 353.551 275.645C353.551 275.645 353.551 270.283 352.064 270.283C350.51 270.283 350.375 275.669 350.375 275.669C348.772 275.68 347.147 275.689 345.983 275.689C345.681 275.689 345.372 275.688 345.061 275.686L345.052 275.686C342.016 275.675 338.705 275.662 338.752 276.702C338.82 278.19 340.577 279.878 348.483 280.217C354.696 280.482 356.051 280.486 356.051 280.486C356.524 286.636 356.93 289.406 356.93 289.406C356.93 289.406 352.875 289.744 352.672 291.434C352.511 292.776 355.646 292.785 358.822 292.786H359.272L359.417 292.779V297.113C359.417 310.363 357.169 323.074 353.042 334.869L353.018 334.814C352.801 334.175 352.495 333.724 352.064 333.724C350.51 333.724 350.375 339.11 350.375 339.11C348.772 339.121 347.147 339.13 345.983 339.13C345.886 339.13 345.788 339.13 345.69 339.13L345.564 339.13C345.4 339.129 345.235 339.129 345.07 339.128L345.061 339.128L345.052 339.128C342.016 339.116 338.705 339.104 338.752 340.144C338.82 341.63 340.577 343.319 348.483 343.657C348.805 343.671 349.114 343.684 349.41 343.697L349.529 343.698C350.629 341.241 351.644 338.734 352.572 336.186C348.515 347.337 342.77 357.647 335.657 366.79L335.652 366.723C335.668 365.615 335.677 364.467 335.677 363.282C335.677 360.175 333.785 357.809 332.771 357.876C331.757 357.809 329.865 360.175 329.865 363.282C329.865 365.983 329.911 368.499 329.983 370.784C329.983 370.784 328.951 370.793 327.499 370.807C327.499 370.807 327.499 365.445 326.014 365.445C324.458 365.445 324.325 370.831 324.325 370.831C322.721 370.843 321.096 370.852 319.931 370.852C319.629 370.852 319.321 370.85 319.009 370.849L319 370.849C315.965 370.838 312.654 370.825 312.702 371.864C312.768 373.352 314.526 375.04 322.431 375.379C325.034 375.491 326.783 375.555 327.938 375.594H328.039C321.966 381.913 315.165 387.497 307.776 392.201C308.12 391.982 308.463 391.761 308.804 391.537L308.774 391.498C308.14 390.293 307.29 389.559 306.719 389.597C305.763 389.534 304.025 391.633 303.832 394.48L303.831 394.596C289.92 402.642 274.114 407.652 257.271 408.749L257.284 408.671C257.318 408.255 257.352 407.822 257.387 407.369C257.387 407.369 258.742 407.365 264.955 407.099C272.862 406.761 274.62 405.071 274.686 403.585C274.734 402.545 271.422 402.557 268.387 402.569C268.072 402.57 267.761 402.571 267.456 402.571C266.291 402.571 264.667 402.563 263.063 402.552C263.063 402.552 262.929 397.165 261.374 397.165C259.887 397.165 259.887 402.528 259.887 402.528C258.437 402.515 257.404 402.503 257.404 402.503C257.476 400.219 257.523 397.704 257.523 395.003C257.523 391.895 255.631 389.529 254.616 389.597C254.454 389.586 254.268 389.638 254.072 389.746L254.022 389.768V356.233L254.129 356.228H254.616C257.792 356.227 260.928 356.217 260.766 354.875C260.563 353.186 256.508 352.848 256.508 352.848C256.508 352.848 256.914 350.077 257.387 343.928C257.387 343.928 258.742 343.923 264.955 343.657C272.862 343.319 274.62 341.63 274.686 340.144C274.734 339.104 271.422 339.116 268.387 339.128L268.378 339.128C268.067 339.129 267.758 339.13 267.456 339.13C266.291 339.13 264.667 339.121 263.063 339.11C263.063 339.11 262.929 333.724 261.374 333.724C259.887 333.724 259.887 339.086 259.887 339.086C258.437 339.073 257.404 339.063 257.404 339.063C257.476 336.778 257.523 334.263 257.523 331.562C257.523 328.453 255.631 326.088 254.616 326.156C254.45 326.145 254.261 326.199 254.06 326.311L254.022 326.313V292.798L254.146 292.786H254.616C257.792 292.785 260.928 292.776 260.766 291.434C260.563 289.744 256.508 289.407 256.508 289.407C256.508 289.407 256.914 286.636 257.387 280.487C257.387 280.487 258.742 280.482 264.955 280.217C272.862 279.879 274.62 278.19 274.686 276.703C274.734 275.663 271.422 275.675 268.387 275.687L268.378 275.687C268.067 275.688 267.758 275.689 267.456 275.689C266.291 275.689 264.667 275.68 263.063 275.669C263.063 275.669 262.929 270.283 261.374 270.283C259.887 270.283 259.887 275.645 259.887 275.645C258.437 275.632 257.404 275.622 257.404 275.622C257.476 273.337 257.523 270.822 257.523 268.121C257.523 265.013 255.631 262.647 254.616 262.714C254.448 262.704 254.257 262.758 254.053 262.874L254.022 262.895V229.36L254.129 229.344C254.288 229.345 254.446 229.345 254.604 229.345H254.616C257.792 229.343 260.928 229.334 260.766 227.992C260.563 226.302 256.508 225.965 256.508 225.965C256.508 225.965 256.914 223.195 257.387 217.046C257.387 217.046 258.742 217.04 264.955 216.774C272.862 216.437 274.62 214.747 274.686 213.261C274.734 212.22 271.418 212.233 268.382 212.244H268.379H268.376H268.373C268.063 212.245 267.756 212.246 267.456 212.246C266.291 212.246 264.667 212.237 263.063 212.228C263.063 212.228 262.929 206.841 261.374 206.841C259.887 206.841 259.887 212.203 259.887 212.203C258.437 212.19 257.404 212.18 257.404 212.18C257.476 209.894 257.523 207.38 257.523 204.679C257.523 201.57 255.631 199.206 254.616 199.272C254.447 199.261 254.254 199.318 254.048 199.435L254.022 199.458V165.908L254.095 165.901C254.268 165.902 254.442 165.902 254.616 165.902C257.792 165.901 260.928 165.892 260.766 164.55C260.563 162.861 256.508 162.522 256.508 162.522C256.508 162.522 256.914 159.753 257.387 153.603C257.387 153.603 258.742 153.599 264.955 153.333C272.862 152.995 274.62 151.305 274.686 149.819C274.734 148.779 271.422 148.792 268.387 148.803C268.072 148.804 267.761 148.805 267.456 148.805C266.291 148.805 264.667 148.796 263.063 148.785C263.063 148.785 262.929 143.399 261.374 143.399C259.887 143.399 259.887 148.761 259.887 148.761C258.437 148.748 257.404 148.737 257.404 148.737C257.476 146.452 257.523 143.938 257.523 141.237C257.523 140.675 257.46 140.137 257.353 139.634L257.339 139.582H254.163L254.022 139.581V139.58L254.163 139.581H356.097C355.983 140.1 355.917 140.655 355.917 141.237C355.917 143.938 355.962 146.452 356.034 148.737C356.034 148.737 355.001 148.748 353.551 148.761C353.551 148.761 353.551 143.399 352.064 143.399C350.51 143.399 350.375 148.785 350.375 148.785C348.772 148.796 347.147 148.805 345.983 148.805C345.678 148.805 345.367 148.804 345.053 148.803L345.052 148.803C342.016 148.792 338.705 148.779 338.752 149.819C338.82 151.305 340.577 152.995 348.483 153.333C354.696 153.599 356.051 153.603 356.051 153.603C356.524 159.753 356.93 162.522 356.93 162.522C356.93 162.522 352.875 162.861 352.672 164.55C352.511 165.892 355.646 165.901 358.822 165.902ZM356.1 139.581H356.097L356.098 139.577L356.1 139.581ZM356.1 139.581L356.1 139.582H359.417V165.908L359.418 165.908V139.582H359.417V139.581H356.1ZM257.271 408.749L257.271 408.75C256.223 408.818 255.17 408.871 254.114 408.908C255.17 408.87 256.223 408.817 257.271 408.749ZM303.831 394.596C304.032 394.479 304.233 394.362 304.434 394.245C304.233 394.362 304.032 394.48 303.831 394.596L303.831 394.596ZM328.039 375.594C328.593 375.018 329.141 374.435 329.682 373.847C329.141 374.435 328.593 375.018 328.04 375.594H328.039ZM335.657 366.79L335.657 366.79C334.165 368.709 332.611 370.576 331 372.389C332.611 370.576 334.164 368.709 335.657 366.79ZM352.572 336.186C352.731 335.748 352.888 335.309 353.042 334.869L353.042 334.87C352.888 335.31 352.732 335.748 352.572 336.186ZM359.417 292.779V262.877L359.418 262.877V292.779L359.417 292.779ZM359.417 229.345V199.441L359.418 199.442V229.345H359.417ZM332.771 324.508C335.946 324.507 339.081 324.497 338.92 323.155C338.718 321.466 334.663 321.127 334.663 321.127C334.663 321.127 335.069 318.358 335.542 312.208C335.542 312.208 336.897 312.204 343.111 311.938C351.016 311.6 352.774 309.91 352.84 308.424C352.887 307.383 349.572 307.396 346.536 307.407C346.223 307.408 345.913 307.41 345.611 307.41C344.445 307.41 342.821 307.402 341.219 307.39C341.219 307.39 341.083 302.004 339.529 302.004C338.043 302.004 338.043 307.367 338.043 307.367C336.592 307.353 335.559 307.342 335.559 307.342C335.63 305.058 335.677 302.542 335.677 299.842C335.677 296.734 333.785 294.368 332.771 294.436C331.757 294.368 329.865 296.734 329.865 299.842C329.865 302.542 329.911 305.058 329.983 307.342C329.983 307.342 328.951 307.353 327.499 307.367C327.499 307.367 327.499 302.004 326.014 302.004C324.458 302.004 324.325 307.39 324.325 307.39C322.721 307.402 321.096 307.41 319.931 307.41C319.628 307.41 319.318 307.408 319.006 307.407C315.969 307.396 312.654 307.383 312.702 308.424C312.768 309.91 314.526 311.6 322.431 311.938C328.645 312.204 330 312.208 330 312.208C330.474 318.358 330.878 321.127 330.878 321.127C330.878 321.127 326.825 321.466 326.622 323.155C326.46 324.497 329.595 324.507 332.771 324.508ZM338.92 259.714C339.081 261.056 335.946 261.066 332.771 261.067C329.595 261.066 326.46 261.056 326.622 259.714C326.825 258.024 330.878 257.687 330.878 257.687C330.878 257.687 330.474 254.916 330 248.767C330 248.767 328.645 248.761 322.431 248.496C314.526 248.159 312.768 246.469 312.702 244.983C312.654 243.943 315.965 243.955 319 243.967C319.315 243.968 319.627 243.969 319.931 243.969C321.096 243.969 322.721 243.959 324.325 243.948C324.325 243.948 324.458 238.563 326.014 238.563C327.499 238.563 327.499 243.923 327.499 243.923C328.951 243.91 329.983 243.901 329.983 243.901C329.911 241.615 329.865 239.102 329.865 236.4C329.865 233.292 331.757 230.927 332.771 230.994C333.785 230.927 335.677 233.292 335.677 236.4C335.677 239.102 335.63 241.615 335.559 243.901C335.559 243.901 336.592 243.91 338.043 243.923C338.043 243.923 338.043 238.563 339.529 238.563C341.083 238.563 341.219 243.948 341.219 243.948C342.821 243.959 344.445 243.969 345.611 243.969C345.915 243.969 346.227 243.968 346.541 243.967C349.576 243.955 352.887 243.943 352.84 244.983C352.774 246.469 351.016 248.159 343.111 248.496C336.897 248.761 335.542 248.767 335.542 248.767C335.069 254.916 334.663 257.687 334.663 257.687C334.663 257.687 338.718 258.024 338.92 259.714ZM332.771 197.623C335.946 197.622 339.081 197.612 338.92 196.271C338.718 194.581 334.663 194.243 334.663 194.243C334.663 194.243 335.069 191.473 335.542 185.323C335.542 185.323 336.897 185.319 343.111 185.053C351.016 184.715 352.774 183.026 352.84 181.539C352.887 180.499 349.573 180.511 346.537 180.523C346.224 180.524 345.914 180.525 345.611 180.525C344.445 180.525 342.821 180.517 341.219 180.505C341.219 180.505 341.083 175.119 339.529 175.119C338.043 175.119 338.043 180.481 338.043 180.481C336.592 180.469 335.559 180.458 335.559 180.458C335.63 178.173 335.677 175.658 335.677 172.957C335.677 169.849 333.785 167.483 332.771 167.551C331.757 167.483 329.865 169.849 329.865 172.957C329.865 175.658 329.911 178.173 329.983 180.458C329.983 180.458 328.951 180.469 327.499 180.481C327.499 180.481 327.499 175.119 326.014 175.119C324.458 175.119 324.325 180.505 324.325 180.505C322.721 180.517 321.096 180.525 319.931 180.525C319.628 180.525 319.318 180.524 319.005 180.523C315.969 180.511 312.654 180.499 312.702 181.539C312.768 183.026 314.526 184.715 322.431 185.053C328.645 185.319 330 185.323 330 185.323C330.474 191.473 330.878 194.243 330.878 194.243C330.878 194.243 326.825 194.581 326.622 196.271C326.46 197.612 329.595 197.622 332.771 197.623ZM312.869 227.992C313.03 229.335 309.895 229.344 306.719 229.345C303.543 229.344 300.408 229.335 300.569 227.992C300.772 226.303 304.827 225.965 304.827 225.965C304.827 225.965 304.422 223.195 303.948 217.046C303.948 217.046 302.593 217.041 296.38 216.775C288.473 216.437 286.717 214.748 286.649 213.261C286.602 212.221 289.917 212.233 292.954 212.244H292.957C293.269 212.246 293.578 212.247 293.88 212.247C295.043 212.247 296.669 212.238 298.272 212.228C298.272 212.228 298.406 206.841 299.962 206.841C301.448 206.841 301.448 212.203 301.448 212.203C302.899 212.19 303.93 212.181 303.93 212.181C303.859 209.895 303.813 207.38 303.813 204.68C303.813 201.571 305.706 199.206 306.719 199.272C307.732 199.206 309.625 201.571 309.625 204.68C309.625 207.38 309.579 209.895 309.508 212.181C309.508 212.181 310.539 212.19 311.99 212.203C311.99 212.203 311.99 206.841 313.476 206.841C315.032 206.841 315.166 212.228 315.166 212.228C316.769 212.238 318.394 212.247 319.558 212.247C319.861 212.247 320.171 212.246 320.484 212.244H320.484C323.521 212.233 326.836 212.221 326.788 213.261C326.721 214.748 324.963 216.437 317.058 216.775C310.846 217.041 309.49 217.046 309.49 217.046C309.016 223.195 308.612 225.965 308.612 225.965C308.612 225.965 312.666 226.303 312.869 227.992ZM306.719 292.786C309.895 292.785 313.03 292.776 312.869 291.434C312.666 289.744 308.612 289.406 308.612 289.406C308.612 289.406 309.016 286.636 309.49 280.486C309.49 280.486 310.846 280.482 317.058 280.217C324.963 279.878 326.721 278.19 326.788 276.702C326.836 275.662 323.525 275.675 320.489 275.686L320.48 275.686C320.168 275.688 319.86 275.689 319.558 275.689C318.394 275.689 316.769 275.68 315.166 275.669C315.166 275.669 315.032 270.283 313.476 270.283C311.99 270.283 311.99 275.645 311.99 275.645C310.539 275.631 309.508 275.622 309.508 275.622C309.579 273.336 309.625 270.821 309.625 268.121C309.625 265.013 307.732 262.647 306.719 262.713C305.706 262.647 303.813 265.013 303.813 268.121C303.813 270.821 303.859 273.336 303.93 275.622C303.93 275.622 302.899 275.631 301.448 275.645C301.448 275.645 301.448 270.283 299.962 270.283C298.406 270.283 298.272 275.669 298.272 275.669C296.669 275.68 295.043 275.689 293.88 275.689C293.575 275.689 293.264 275.688 292.949 275.686C289.913 275.675 286.602 275.662 286.649 276.702C286.717 278.19 288.473 279.878 296.38 280.217C302.593 280.482 303.948 280.486 303.948 280.486C304.422 286.636 304.827 289.406 304.827 289.406C304.827 289.406 300.772 289.744 300.569 291.434C300.408 292.776 303.543 292.785 306.719 292.786ZM312.869 354.875C313.03 356.217 309.895 356.227 306.719 356.228C303.543 356.227 300.408 356.217 300.569 354.875C300.772 353.185 304.827 352.848 304.827 352.848C304.827 352.848 304.422 350.077 303.948 343.928C303.948 343.928 302.593 343.923 296.38 343.656C288.473 343.319 286.717 341.63 286.649 340.144C286.602 339.104 289.913 339.116 292.949 339.128C293.264 339.129 293.575 339.13 293.88 339.13C295.043 339.13 296.669 339.121 298.272 339.11C298.272 339.11 298.406 333.724 299.962 333.724C301.448 333.724 301.448 339.085 301.448 339.085C302.899 339.073 303.93 339.063 303.93 339.063C303.859 336.778 303.813 334.263 303.813 331.562C303.813 328.452 305.706 326.088 306.719 326.156C307.732 326.088 309.625 328.452 309.625 331.562C309.625 334.263 309.579 336.778 309.508 339.063C309.508 339.063 310.539 339.073 311.99 339.085C311.99 339.085 311.99 333.724 313.476 333.724C315.032 333.724 315.166 339.11 315.166 339.11C316.769 339.121 318.394 339.13 319.558 339.13C319.863 339.13 320.174 339.129 320.489 339.128C323.525 339.116 326.836 339.104 326.788 340.144C326.721 341.63 324.963 343.319 317.058 343.656C310.846 343.923 309.49 343.928 309.49 343.928C309.016 350.077 308.612 352.848 308.612 352.848C308.612 352.848 312.666 353.185 312.869 354.875ZM280.668 324.508C283.844 324.507 286.98 324.497 286.818 323.155C286.614 321.466 282.56 321.127 282.56 321.127C282.56 321.127 282.965 318.358 283.438 312.208C283.438 312.208 284.794 312.204 291.007 311.938C298.914 311.6 300.67 309.91 300.738 308.424C300.785 307.383 297.47 307.396 294.433 307.407C294.12 307.408 293.81 307.41 293.507 307.41C292.343 307.41 290.717 307.402 289.114 307.39C289.114 307.39 288.981 302.004 287.425 302.004C285.938 302.004 285.938 307.367 285.938 307.367C284.488 307.353 283.456 307.342 283.456 307.342C283.528 305.058 283.573 302.542 283.573 299.842C283.573 296.734 281.681 294.368 280.668 294.436C279.654 294.368 277.762 296.734 277.762 299.842C277.762 302.542 277.807 305.058 277.879 307.342C277.879 307.342 276.847 307.353 275.397 307.367C275.397 307.367 275.397 302.004 273.91 302.004C272.355 302.004 272.221 307.39 272.221 307.39C270.618 307.402 268.993 307.41 267.829 307.41C267.526 307.41 267.216 307.408 266.903 307.407C263.866 307.396 260.55 307.383 260.598 308.424C260.665 309.91 262.423 311.6 270.329 311.938C276.541 312.204 277.897 312.208 277.897 312.208C278.37 318.358 278.775 321.127 278.775 321.127C278.775 321.127 274.721 321.466 274.518 323.155C274.356 324.497 277.492 324.507 280.668 324.508ZM286.818 259.714C286.98 261.056 283.844 261.066 280.668 261.067C277.492 261.066 274.356 261.056 274.518 259.714C274.721 258.024 278.775 257.687 278.775 257.687C278.775 257.687 278.37 254.916 277.897 248.767C277.897 248.767 276.541 248.761 270.329 248.496C262.423 248.159 260.665 246.469 260.598 244.983C260.55 243.943 263.862 243.955 266.897 243.967C267.212 243.968 267.524 243.969 267.829 243.969C268.993 243.969 270.618 243.959 272.221 243.948C272.221 243.948 272.355 238.563 273.91 238.563C275.397 238.563 275.397 243.923 275.397 243.923C276.847 243.91 277.879 243.901 277.879 243.901C277.807 241.615 277.762 239.102 277.762 236.4C277.762 233.292 279.654 230.927 280.668 230.994C281.681 230.927 283.573 233.292 283.573 236.4C283.573 239.102 283.528 241.615 283.456 243.901C283.456 243.901 284.488 243.91 285.938 243.923C285.938 243.923 285.938 238.563 287.425 238.563C288.981 238.563 289.114 243.948 289.114 243.948C290.717 243.959 292.343 243.969 293.507 243.969C293.812 243.969 294.124 243.968 294.438 243.967C297.474 243.955 300.785 243.943 300.738 244.983C300.67 246.469 298.914 248.159 291.007 248.496C284.794 248.761 283.438 248.767 283.438 248.767C282.965 254.916 282.56 257.687 282.56 257.687C282.56 257.687 286.614 258.024 286.818 259.714ZM280.668 387.949C283.844 387.947 286.98 387.939 286.818 386.597C286.614 384.907 282.56 384.569 282.56 384.569C282.56 384.569 282.965 381.798 283.438 375.649C283.438 375.649 284.794 375.645 291.007 375.379C298.914 375.041 300.67 373.352 300.738 371.865C300.785 370.825 297.474 370.838 294.439 370.849L294.43 370.849C294.118 370.851 293.809 370.852 293.507 370.852C292.343 370.852 290.717 370.843 289.114 370.831C289.114 370.831 288.981 365.445 287.425 365.445C285.938 365.445 285.938 370.807 285.938 370.807C284.488 370.794 283.456 370.784 283.456 370.784C283.528 368.499 283.573 365.983 283.573 363.282C283.573 360.175 281.681 357.809 280.668 357.876C279.654 357.809 277.762 360.175 277.762 363.282C277.762 365.983 277.807 368.499 277.879 370.784C277.879 370.784 276.847 370.794 275.397 370.807C275.397 370.807 275.397 365.445 273.91 365.445C272.355 365.445 272.221 370.831 272.221 370.831C270.618 370.843 268.993 370.852 267.829 370.852C267.527 370.852 267.218 370.851 266.906 370.849L266.897 370.849C263.862 370.838 260.55 370.825 260.598 371.865C260.665 373.352 262.423 375.041 270.329 375.379C276.541 375.645 277.897 375.649 277.897 375.649C278.37 381.798 278.775 384.569 278.775 384.569C278.775 384.569 274.721 384.907 274.518 386.597C274.356 387.939 277.492 387.947 280.668 387.949ZM286.818 196.271C286.98 197.612 283.844 197.622 280.668 197.623C277.492 197.622 274.356 197.612 274.518 196.271C274.721 194.581 278.775 194.243 278.775 194.243C278.775 194.243 278.37 191.473 277.897 185.323C277.897 185.323 276.541 185.319 270.329 185.053C262.423 184.715 260.665 183.026 260.598 181.539C260.55 180.499 263.865 180.511 266.902 180.523C267.215 180.524 267.525 180.525 267.829 180.525C268.993 180.525 270.618 180.517 272.221 180.505C272.221 180.505 272.355 175.119 273.91 175.119C275.397 175.119 275.397 180.481 275.397 180.481C276.847 180.469 277.879 180.458 277.879 180.458C277.807 178.173 277.762 175.658 277.762 172.957C277.762 169.849 279.654 167.483 280.668 167.551C281.681 167.483 283.573 169.849 283.573 172.957C283.573 175.658 283.528 178.173 283.456 180.458C283.456 180.458 284.488 180.469 285.938 180.481C285.938 180.481 285.938 175.119 287.425 175.119C288.981 175.119 289.114 180.505 289.114 180.505C290.717 180.517 292.343 180.525 293.507 180.525C293.81 180.525 294.12 180.524 294.433 180.523C297.47 180.511 300.785 180.499 300.738 181.539C300.67 183.026 298.914 184.715 291.007 185.053C284.794 185.319 283.438 185.323 283.438 185.323C282.965 191.473 282.56 194.243 282.56 194.243C282.56 194.243 286.614 194.581 286.818 196.271ZM303.813 141.236C303.813 140.678 303.875 140.143 303.98 139.642L303.999 139.582H309.439L309.459 139.655C309.564 140.152 309.625 140.683 309.625 141.236C309.625 143.938 309.579 146.452 309.508 148.737C309.508 148.737 310.539 148.748 311.99 148.76C311.99 148.76 311.99 143.399 313.476 143.399C315.032 143.399 315.166 148.785 315.166 148.785C316.769 148.796 318.394 148.805 319.558 148.805C319.862 148.805 320.174 148.804 320.488 148.803L320.489 148.803C323.524 148.791 326.836 148.779 326.788 149.819C326.721 151.305 324.963 152.995 317.058 153.332C310.846 153.598 309.49 153.603 309.49 153.603C309.016 159.752 308.612 162.522 308.612 162.522C308.612 162.522 312.666 162.86 312.869 164.55C313.03 165.891 309.895 165.901 306.719 165.902C303.543 165.901 300.408 165.891 300.569 164.55C300.772 162.86 304.827 162.522 304.827 162.522C304.827 162.522 304.422 159.752 303.948 153.603C303.948 153.603 302.593 153.598 296.38 153.332C288.473 152.995 286.717 151.305 286.649 149.819C286.602 148.779 289.913 148.791 292.949 148.803L292.95 148.803C293.264 148.804 293.576 148.805 293.88 148.805C295.043 148.805 296.669 148.796 298.272 148.785C298.272 148.785 298.406 143.399 299.962 143.399C301.448 143.399 301.448 148.76 301.448 148.76C302.899 148.748 303.93 148.737 303.93 148.737C303.859 146.452 303.813 143.938 303.813 141.236Z" fill="white"/>
<path fill-rule="evenodd" clip-rule="evenodd" d="M94.1673 274.614L94.1668 274.614L94.167 274.614L94.321 274.639C101.364 354.47 168.602 417.289 250.237 417.289C336.546 417.289 406.764 347.072 406.764 260.766C406.764 248.897 405.435 237.331 402.921 226.211L402.921 226.21C396.8 199.158 383.656 174.741 365.511 154.983L365.364 154.854V133.635H341.452L341.387 133.586C328.48 124.31 314.112 116.947 298.7 111.917L298.809 111.811C309.902 99.9356 316.693 83.9875 316.693 66.4554C316.693 56.3937 314.456 46.8541 310.454 38.3065L310.423 38.1435C390.244 59.7444 453.027 123.236 473.619 203.461L473.618 203.461C478.324 221.788 480.826 240.991 480.826 260.766C480.826 387.91 377.384 491.351 250.237 491.351C123.09 491.351 19.6494 387.91 19.6494 260.766C19.6494 259.927 19.6539 259.088 19.6638 258.249L19.8249 258.295L20.3658 258.419L19.8252 258.295L19.6641 258.249C20.795 153.001 92.7956 64.4381 190.103 38.1301L190.043 38.2635C186.027 46.8218 183.783 56.3767 183.783 66.4554C183.783 84.0153 190.595 99.9849 201.718 111.866L201.777 111.917C186.367 116.947 172.002 124.306 159.098 133.578L159 133.635H135.113V154.809L135.06 154.881C109.401 182.77 93.7125 219.97 93.7125 260.766C93.7125 265.44 93.9184 270.068 94.3213 274.639L94.1673 274.614ZM290.875 467.939L282.117 469.481L283.911 479.68L293.575 477.978L291.781 467.781L290.875 467.939ZM341.412 451.165L349.335 447.125L350.152 446.708L354.854 455.932L346.113 460.389L341.412 451.165ZM429.017 372.917L424.137 380.351L432.791 386.033L438.177 377.83L429.522 372.149L429.017 372.917ZM454.731 313.35L456.746 304.687L456.955 303.791L467.04 306.137L464.816 315.694L454.731 313.35ZM470.444 245.087L461.018 245.404L461.345 255.211L471.694 254.864L471.363 245.057L470.444 245.087ZM89.5417 330.889L97.2592 326.751L98.0705 326.315L111.139 350.685L102.61 355.258C102.61 355.258 99.1557 348.815 98.4591 347.518C96.9011 348.352 57.367 369.554 57.367 369.554L52.5381 360.549C52.5381 360.549 92.0721 339.347 93.6292 338.511C92.9344 337.217 89.5417 330.889 89.5417 330.889ZM109.26 377.937C106.621 380.767 102.837 384.824 100.313 387.529L97.774 390.252C97.0219 389.349 95.7728 387.852 95.0153 386.945L97.0651 385.649C100.094 383.733 105.577 380.266 109.26 377.937ZM118.675 361.866L70.208 390.459L76.6648 398.2C76.6648 398.2 85.6708 392.761 86.8482 392.051C87.5932 392.943 90.5033 396.432 91.2545 397.333C90.3269 398.362 83.3114 406.165 83.3114 406.165L90.0359 414.225L127.362 371.075L119.348 361.469L118.675 361.866ZM235.219 439.336C235.257 434.818 236.549 431.22 239.063 428.643C241.585 426.053 245.073 424.758 249.429 424.794C253.566 424.828 256.891 426.216 259.312 428.922C261.71 431.602 262.906 435.257 262.87 439.786L262.819 445.934L252.331 445.848L252.387 438.949C252.401 437.288 252.108 436.05 251.518 435.271C250.975 434.559 250.158 434.207 249.02 434.199C247.881 434.188 247.059 434.526 246.505 435.229C245.903 435.998 245.591 437.231 245.577 438.894L245.329 469.323C245.315 470.991 245.609 472.239 246.2 473.03C246.742 473.753 247.558 474.11 248.695 474.119C249.831 474.129 250.652 473.786 251.204 473.071C251.811 472.288 252.126 471.046 252.139 469.379L252.207 461.038L262.695 461.124L262.641 467.732C262.6 472.689 261.36 476.58 258.953 479.298C256.512 482.05 253.046 483.428 248.65 483.391C244.148 483.355 240.689 481.93 238.369 479.158C236.127 476.478 234.99 472.578 234.99 467.557C234.99 467.466 235.219 439.336 235.219 439.336ZM370.825 372.211H370.824C368.184 375.051 366.955 378.452 367.173 382.324C367.391 386.183 369.01 389.544 371.985 392.311C374.036 394.22 376.449 395.562 379.16 396.3C381.854 397.039 386.254 397.303 392.609 397.106C392.616 397.106 393.751 397.054 393.751 397.054C399.884 396.76 403.947 397.496 405.824 399.244C406.806 400.156 407.307 401.142 407.355 402.256C407.405 403.363 407.003 404.358 406.132 405.296C405.147 406.352 404.054 406.773 402.785 406.581C401.384 406.369 399.67 405.426 397.69 403.774L396.914 403.128L391.246 411.385L391.875 411.923C395.603 415.107 399.427 416.729 403.238 416.743C407.093 416.758 410.572 415.128 413.575 411.898C416.3 408.97 417.581 405.571 417.381 401.796C417.182 398.036 415.528 394.683 412.462 391.831C410.206 389.731 407.694 388.275 404.995 387.5C402.302 386.73 398.294 386.499 392.747 386.792C392.752 386.792 392.666 386.794 392.555 386.797L392.091 386.81C385.11 387.126 380.512 386.287 378.398 384.322C377.442 383.43 376.928 382.516 376.83 381.524C376.737 380.575 377.048 379.732 377.78 378.945C378.573 378.091 379.385 377.766 380.34 377.915C381.422 378.088 382.858 378.903 384.605 380.337L385.374 380.968L391.168 372.645L390.491 372.109C387.087 369.407 383.582 368.037 380.074 368.037C376.514 368.038 373.401 369.441 370.825 372.211ZM434.889 337.933C433.487 337.527 424.288 334.86 418.716 333.244C423.697 336.22 431.924 341.134 433.184 341.887C433.65 340.803 434.424 339.011 434.889 337.933ZM399.467 331.677L404.111 320.906L404.42 320.189L459.775 334.016L455.618 343.654C455.618 343.654 445.489 340.916 444.15 340.553L443.651 341.712L442.447 344.503L441.427 346.869C442.593 347.6 451.511 353.18 451.511 353.18L447.52 362.437L399.467 331.677ZM424.469 274.535C424.592 272.479 425.12 271.007 426.041 270.159C426.952 269.32 428.413 268.954 430.38 269.069L456.617 270.623C458.361 270.726 459.613 271.098 460.339 271.73C460.939 272.252 461.234 273.005 461.234 274.022C461.234 274.079 461.233 274.137 461.23 274.196L461.229 274.228C461.228 274.273 461.225 274.318 461.223 274.364C461.223 274.364 461.093 276.576 461.025 277.707C459.319 277.605 426.117 275.64 424.411 275.54C424.441 275.037 424.469 274.535 424.469 274.535ZM419.359 261.612C416.605 263.838 415.061 267.418 414.775 272.258L414.012 285.161L470.218 288.486L471.003 275.207C471.288 270.384 470.183 266.71 467.717 264.291C465.288 261.903 461.277 260.526 455.794 260.203L431.441 258.761C426.153 258.449 422.088 259.407 419.359 261.612ZM32.6982 305.375L86.0224 290.407L86.9071 290.159L94.399 316.845L85.0805 319.461C85.0805 319.461 80.7977 304.202 80.3518 302.611L77.8681 303.309L77.1533 303.509L77.0021 303.552C73.7525 304.464 69.3009 305.714 68.3292 305.986L72.0371 319.199L62.7204 321.815C62.7204 321.815 59.4441 310.143 59.0107 308.603C58.4102 308.771 56.2456 309.379 53.7843 310.069L53.5584 310.133L53.1877 310.237C49.7173 311.211 45.8713 312.291 45.037 312.524C45.4838 314.114 49.7665 329.372 49.7665 329.372L40.1892 332.061L32.6982 305.375ZM139.201 384.758L105.608 428.793L113.733 434.989C113.733 434.989 127.537 416.895 128.569 415.541L139.481 423.865L145.35 416.17C145.35 416.17 135.712 408.817 134.441 407.846C135.349 406.654 141.103 399.111 142.013 397.918C143.325 398.92 155.927 408.533 155.927 408.533L161.796 400.838L139.758 384.027L139.201 384.758ZM43.2666 252.877L71.1559 252.055C75.6624 251.923 79.2996 253.079 81.967 255.491C84.647 257.915 86.0689 261.35 86.1978 265.699C86.3214 269.915 85.1251 273.222 82.6395 275.527C80.1896 277.798 76.5194 279.021 71.7298 279.162L65.83 279.336L65.5372 269.392L72.1874 269.196C73.8403 269.148 75.058 268.809 75.8102 268.191C76.4996 267.621 76.8184 266.791 76.7844 265.654C76.7513 264.513 76.3833 263.704 75.6633 263.178C74.879 262.605 73.6415 262.34 71.9868 262.388L41.5949 263.283C39.9088 263.333 38.6597 263.676 37.8825 264.297C37.1743 264.866 36.8447 265.694 36.8797 266.831C36.9137 267.964 37.2889 268.771 38.0294 269.297C38.8424 269.873 40.1094 270.141 41.7955 270.092C41.7955 270.092 47.9952 269.909 49.461 269.866C49.4252 268.634 49.3124 264.791 49.3124 264.791L58.039 264.536L58.4823 279.552L43.1726 280.003C37.5602 280.009 33.9785 279.035 31.5609 276.844C27.8298 273.462 27.708 269.833 27.5907 266.325L27.5728 265.806C27.4304 261.806 28.7655 258.635 31.5386 256.38C34.2122 254.207 38.1574 253.028 43.2666 252.877ZM170.975 407.077L147.795 457.378L172.969 468.979L177.133 459.946C177.133 459.946 162.738 453.311 161.24 452.62C161.536 451.977 162.707 449.436 163.949 446.741C165.408 443.574 166.965 440.195 167.313 439.438C168.767 440.11 179.778 445.182 179.778 445.182L183.827 436.392L171.364 430.651C171.992 429.288 175.962 420.669 176.59 419.306L192.483 426.63L196.535 417.842L171.36 406.242L170.975 407.077ZM294.769 420.313L319.913 411.045L320.777 410.727L324.124 419.807L307.703 425.86C308.221 427.267 311.502 436.17 312.021 437.577C313.524 437.023 324.899 432.831 324.899 432.831L328.244 441.912C328.244 441.912 316.87 446.103 315.367 446.657C315.957 448.255 323.825 469.61 323.825 469.61L314.238 473.145L294.769 420.313Z" fill="white"/>
</g>
<defs>
<clipPath id="clip0_1174_6187">
<rect width="500" height="500" fill="white"/>
</clipPath>
</defs>
</svg>
