<svg width="500" height="500" viewBox="0 0 500 500" fill="none" xmlns="http://www.w3.org/2000/svg">
<g clip-path="url(#clip0_1174_6308)">
<path d="M499.144 250C499.144 387.598 387.598 499.144 250 499.144C112.401 499.144 0.855957 387.598 0.855957 250C0.855957 112.402 112.401 0.856439 250 0.856439C387.598 0.856439 499.144 112.402 499.144 250Z" fill="white"/>
<path d="M249.999 -2.33948e-05C183.222 -2.33948e-05 120.442 26.0044 73.2227 73.2234C26.0044 120.442 0 183.223 0 250C0 316.777 26.0044 379.558 73.2227 426.777C120.442 473.996 183.222 500 249.999 500C316.777 500 379.557 473.996 426.777 426.777C473.996 379.558 500 316.777 500 250C500 183.223 473.996 120.442 426.777 73.2234C379.557 26.0044 316.777 -2.33948e-05 249.999 -2.33948e-05ZM249.999 7.91589C383.699 7.91589 492.084 116.301 492.084 250C492.084 383.699 383.699 492.084 249.999 492.084C116.3 492.084 7.91593 383.699 7.91593 250C7.91593 116.301 116.3 7.91589 249.999 7.91589Z" fill="#E51636"/>
<path d="M484.168 250C484.168 379.328 379.327 484.168 250 484.168C120.672 484.168 15.8315 379.328 15.8315 250C15.8315 120.673 120.672 15.8322 250 15.8322C379.327 15.8322 484.168 120.673 484.168 250Z" fill="#E51636"/>
<path d="M249.998 92.7515C163.291 92.7515 92.7515 163.292 92.7515 249.999C92.7515 336.706 163.291 407.249 249.998 407.249C336.706 407.249 407.248 336.706 407.248 249.999C407.248 163.292 336.706 92.7515 249.998 92.7515Z" fill="white"/>
<path d="M118.174 376.101L132.926 390.173L129.23 394.047L118.742 384.041L114.808 388.165L124.051 396.983L120.355 400.858L111.11 392.039L103.956 399.54L99.6929 395.474L118.174 376.101Z" fill="white"/>
<path d="M129.365 406.983L138.018 394.364L142.876 397.695L134.311 410.188C131.845 413.784 132.367 416.877 135.332 418.91C138.297 420.945 141.328 420.379 143.729 416.877L152.404 404.227L157.262 407.559L148.718 420.019C144.132 426.708 138.128 427.414 132.196 423.348C126.267 419.281 124.91 413.481 129.365 406.983Z" fill="white"/>
<path d="M167.909 419.096L160.539 415.631L162.849 410.716L182.918 420.153L180.607 425.066L173.238 421.6L164.16 440.909L158.832 438.403L167.909 419.096Z" fill="white"/>
<path d="M201.993 434.43C202.481 432.741 201.433 431.404 199.046 430.714L193.463 429.105L191.894 434.542L197.111 436.045C199.609 436.766 201.421 436.414 201.972 434.503L201.993 434.43ZM197.078 441.129L190.538 439.243L188.906 444.901L195.629 446.84C198.127 447.559 199.887 447.112 200.439 445.202L200.46 445.129C200.958 443.402 199.978 441.966 197.078 441.129ZM189.383 422.556L201.322 426C204.26 426.847 206.342 428.323 207.388 430.216C208.223 431.73 208.398 433.333 207.89 435.095L207.868 435.168C207.031 438.071 205.023 439.243 202.888 439.741C205.536 441.739 206.874 443.994 205.878 447.449L205.857 447.522C204.5 452.224 200.003 453.472 194.199 451.799L181.966 448.27L189.383 422.556Z" fill="white"/>
<path d="M237.763 445.808L237.771 445.732C238.239 441.168 235.282 437.023 230.566 436.541C225.85 436.058 222.196 439.45 221.729 444.014L221.722 444.09C221.255 448.654 224.212 452.799 228.929 453.281C233.645 453.764 237.296 450.372 237.763 445.808ZM215.591 443.54L215.6 443.464C216.373 435.895 222.979 430.308 231.193 431.148C239.408 431.988 244.677 438.714 243.902 446.282L243.895 446.358C243.121 453.926 236.516 459.514 228.3 458.674C220.085 457.834 214.817 451.108 215.591 443.54Z" fill="white"/>
<path d="M252.817 432.729L258.696 432.361L260.036 453.732L273.356 452.897L273.691 458.238L254.494 459.444L252.817 432.729Z" fill="white"/>
<path d="M295.921 440.907L295.899 440.834C293.647 433.565 297.28 425.911 305.136 423.477C309.958 421.982 313.343 422.695 316.442 424.297L314.141 429.535C311.614 428.356 309.265 427.884 306.707 428.676C302.396 430.012 300.399 434.555 301.759 438.939L301.781 439.013C303.14 443.396 307.304 446.11 311.689 444.752C314.61 443.847 316.039 442.122 317.482 439.672L322.184 442.181C320.425 445.809 318.045 448.468 313.114 449.996C305.587 452.329 298.196 448.252 295.921 440.907Z" fill="white"/>
<path d="M321.986 417.838L327.267 415.236L336.733 434.44L348.702 428.539L351.069 433.341L333.82 441.845L321.986 417.838Z" fill="white"/>
<path d="M352.941 419.035L344.158 406.513L348.978 403.131L357.676 415.528C360.179 419.096 363.259 419.691 366.202 417.627C369.143 415.562 369.677 412.526 367.239 409.051L358.433 396.499L363.253 393.116L371.928 405.482C376.584 412.118 375.143 417.986 369.258 422.116C363.373 426.244 357.466 425.483 352.941 419.035Z" fill="white"/>
<path d="M389.503 390.102L384.662 394.888L388.802 399.076L393.779 394.155C395.628 392.328 396.097 390.572 394.7 389.158L394.645 389.104C393.382 387.826 391.65 387.977 389.503 390.102ZM386.058 382.539C384.821 381.288 383.142 381.548 381.375 383.295L377.242 387.382L381.221 391.408L385.083 387.59C386.931 385.762 387.51 384.008 386.111 382.593L386.058 382.539ZM369.533 387.744L378.372 379.007C380.546 376.856 382.851 375.76 385.013 375.772C386.744 375.783 388.229 376.413 389.518 377.719L389.572 377.772C391.696 379.92 391.738 382.246 391.131 384.352C394.167 383.017 396.789 382.951 399.318 385.507L399.371 385.562C402.813 389.043 401.705 393.578 397.409 397.826L388.353 406.78L369.533 387.744Z" fill="white"/>
<path d="M103.172 119.059L103.073 118.944C93.3122 107.677 93.6698 90.6655 105.8 80.1596C112.814 74.0851 118.817 72.3048 125.994 72.2267L126.14 81.4568C120.746 81.501 116.255 82.473 111.14 86.9044C103.724 93.3277 103.716 104.703 110.388 112.406L110.488 112.522C117.658 120.799 128.397 122.162 136.617 115.042C140.412 111.756 142.815 107.561 143.694 103.581L137.171 96.0497L126.881 104.963L121.553 98.8115L138.685 83.9737L153.323 100.874C152.294 107.702 149.093 115.505 141.964 121.68C129.375 132.584 113.328 130.786 103.172 119.059Z" fill="white"/>
<path d="M144.285 54.8396L152.598 50.5535L176.988 97.8728L168.675 102.158L144.285 54.8396Z" fill="white"/>
<path d="M203.928 59.9716C210.413 58.3197 213.675 53.8786 212.343 48.6463L212.305 48.4996C210.896 42.973 206.148 40.9657 199.443 42.6736L186.253 46.0342L190.665 63.3506L203.928 59.9716ZM175.086 40.0903L198.076 34.2334C204.561 32.5807 210.134 33.2009 214.275 35.5984C217.716 37.7039 220.24 41.1419 221.385 45.6367L221.421 45.7842C223.581 54.2584 219.792 60.6382 213.17 64.5224L232.073 80.5011L221.313 83.2422L204.059 68.4915L192.711 71.3831L197.292 89.3631L188.228 91.6714L175.086 40.0903Z" fill="white"/>
<path d="M279.759 56.3246L279.768 56.1727C280.383 45.8497 273.381 36.8231 262.829 36.1941C252.278 35.565 244.412 43.551 243.796 53.8747L243.787 54.0259C243.172 64.3497 250.179 73.2995 260.73 73.9293C271.281 74.5591 279.142 66.6483 279.759 56.3246ZM233.986 53.5938L233.995 53.4426C234.888 38.4883 247.172 26.652 263.493 27.6255C279.813 28.5989 290.461 41.6513 289.569 56.6048L289.559 56.7575C288.667 71.711 276.382 83.5473 260.062 82.5739C243.742 81.5997 233.093 68.548 233.986 53.5938Z" fill="white"/>
<path d="M311.839 35.6083L319.874 38.8656L332.472 83.6938L346.303 49.5832L354.83 53.0404L334.827 102.376L327.567 99.432L314.594 53.3022L300.363 88.4011L291.834 84.9424L311.839 35.6083Z" fill="white"/>
<path d="M383.19 114.505L390.518 92.4991L369.526 102.293L383.19 114.505ZM394.848 81.3782L401.311 87.1547L383.051 142.731L375.68 136.144L380.219 122.964L361.452 106.193L348.806 112.126L341.663 105.741L394.848 81.3782Z" fill="white"/>
<path d="M101.463 249.746L249.914 101.24C231.721 101.251 214.295 104.538 198.188 110.533L110.735 198.021C104.747 214.128 101.467 231.553 101.463 249.746Z" fill="#E51636"/>
<path d="M301.824 389.013L389.252 301.561C395.247 285.446 398.531 268.011 398.536 249.809L250.092 398.312C268.288 398.3 285.715 395.011 301.824 389.013Z" fill="#E51636"/>
<path d="M292.4 143.64L318.222 117.807C308.572 112.808 298.306 108.836 287.565 106.036L271.184 122.423L292.4 143.64Z" fill="#E51636"/>
<path d="M122.675 270.983L106.272 287.39C109.076 298.134 113.054 308.402 118.059 318.054L143.897 292.205L122.675 270.983Z" fill="#E51636"/>
<path d="M334.875 186.114L365.095 155.884C358.754 148.12 351.642 141.01 343.877 134.67L313.659 164.897L334.875 186.114Z" fill="#E51636"/>
<path d="M165.147 313.455L134.922 343.689C141.267 351.454 148.381 358.564 156.15 364.904L186.366 334.676L165.147 313.455Z" fill="#E51636"/>
<path d="M377.316 228.557L393.722 212.145C390.918 201.403 386.939 191.136 381.934 181.485L356.094 207.334L377.316 228.557Z" fill="#E51636"/>
<path d="M207.585 355.895L181.755 381.734C191.405 386.735 201.672 390.709 212.414 393.511L228.805 377.115L207.585 355.895Z" fill="#E51636"/>
<path d="M265.344 370.993V128.557L250.002 113.207L235.015 128.188V371.362L250.002 386.34L265.344 370.993Z" fill="#F9A70D"/>
<path d="M295.79 340.557V158.983L265.345 128.545V370.994L295.79 340.557Z" fill="#E51636"/>
<path d="M204.578 158.632V340.918L235.015 371.363V128.188L204.578 158.632Z" fill="#E51636"/>
<path d="M143.688 219.523V280.021L174.01 310.348V189.195L143.688 219.523Z" fill="#E51636"/>
<path d="M356.68 279.659V219.885L326.368 189.573V309.978L356.68 279.659Z" fill="#E51636"/>
<path d="M174.009 189.195V310.348L204.577 340.917V158.632L174.009 189.195Z" fill="#F9A70D"/>
<path d="M113.436 249.774L143.688 280.021V219.523L113.436 249.774Z" fill="#F9A70D"/>
<path d="M326.368 309.965V189.559L295.79 158.983V340.548L326.368 309.965Z" fill="#F9A70D"/>
<path d="M386.555 249.774L356.68 219.884V279.659L386.555 249.774Z" fill="#F9A70D"/>
<path d="M206.119 342.458L176.587 312.927L147.295 283.627L113.436 249.774L147.295 215.916L176.587 186.618L206.119 157.092L235.523 127.68L250.002 113.208L264.823 128.036L294.236 157.441L323.776 186.98L353.059 216.264L386.555 249.774L353.059 283.281L323.776 312.57L294.236 342.111L264.823 371.514L250.002 386.34L235.523 371.871L206.119 342.458ZM250.002 101.24L101.467 249.774L250.002 398.313L398.531 249.774L250.002 101.24Z" fill="white"/>
<path d="M240.684 321.254C238.563 319.401 238.563 319.401 234.959 319.401H208.42C196.04 319.401 185.967 309.33 185.967 296.95V191.124H314.246V296.95C314.246 309.33 304.173 319.401 291.793 319.401H265.254C261.696 319.401 261.696 319.401 259.41 321.358L250.002 329.407L240.684 321.254Z" fill="white"/>
<path d="M303.638 205.943C302.647 205.527 301.559 205.296 300.417 205.296H300.305C295.712 205.296 291.988 209.02 291.988 213.614V227.578C291.988 230.625 289.516 233.096 286.468 233.096H280.759C277.711 233.096 275.24 230.625 275.24 227.578V213.614C275.24 209.02 271.516 205.296 266.922 205.296H266.811C262.216 205.296 258.493 209.02 258.493 213.614V227.578C258.493 230.625 256.021 233.096 252.974 233.096H247.264C244.216 233.096 241.745 230.625 241.745 227.578V213.614C241.745 209.02 238.021 205.296 233.427 205.296H233.315C228.721 205.296 224.997 209.02 224.997 213.614V227.578C224.997 230.625 222.527 233.096 219.479 233.096H213.768C210.721 233.096 208.25 230.625 208.25 227.578V213.614C208.25 209.02 204.526 205.296 199.932 205.296H199.82C198.67 205.296 197.574 205.53 196.577 205.952V201.532H303.638V205.943ZM303.638 253.998C302.647 253.581 301.559 253.35 300.417 253.35H300.305C295.712 253.35 291.988 257.074 291.988 261.668V275.631C291.988 278.679 289.516 281.151 286.468 281.151H280.759C277.711 281.151 275.24 278.679 275.24 275.631V261.668C275.24 257.074 271.516 253.35 266.922 253.35H266.811C262.216 253.35 258.493 257.074 258.493 261.668V275.631C258.493 278.679 256.021 281.151 252.974 281.151H247.264C244.216 281.151 241.745 278.679 241.745 275.631V261.668C241.745 257.074 238.021 253.35 233.427 253.35H233.315C228.721 253.35 224.997 257.074 224.997 261.668V275.631C224.997 278.679 222.527 281.151 219.479 281.151H213.768C210.721 281.151 208.25 278.679 208.25 275.631V261.668C208.25 257.074 204.526 253.35 199.932 253.35H199.82C198.67 253.35 197.574 253.584 196.577 254.007V229.174C196.724 229.162 196.871 229.152 197.021 229.152H202.731C205.779 229.152 208.25 231.623 208.25 234.67V248.634C208.25 253.228 211.974 256.952 216.568 256.952H216.679C221.274 256.952 224.997 253.228 224.997 248.634V234.67C224.997 231.623 227.468 229.152 230.516 229.152H236.226C239.274 229.152 241.745 231.623 241.745 234.67V248.634C241.745 253.228 245.469 256.952 250.063 256.952H250.175C254.768 256.952 258.493 253.228 258.493 248.634V234.67C258.493 231.623 260.963 229.152 264.011 229.152H269.721C272.769 229.152 275.24 231.623 275.24 234.67V248.634C275.24 253.228 278.964 256.952 283.558 256.952H283.67C288.263 256.952 291.988 253.228 291.988 248.634V234.67C291.988 231.623 294.458 229.152 297.506 229.152H303.216C303.358 229.152 303.498 229.162 303.638 229.173V253.998ZM303.638 299.847C303.638 304.676 299.721 308.593 294.892 308.593H266.381C258.244 308.593 255.069 310.139 250.107 314.387C245.399 310.268 241.969 308.593 233.833 308.593H205.323C200.493 308.593 196.577 304.676 196.577 299.847V277.229C196.724 277.217 196.871 277.206 197.021 277.206H202.731C205.779 277.206 208.25 279.677 208.25 282.725V296.688C208.25 301.282 211.974 305.006 216.568 305.006H216.679C221.274 305.006 224.997 301.282 224.997 296.688V282.725C224.997 279.677 227.468 277.206 230.516 277.206H236.226C239.274 277.206 241.745 279.677 241.745 282.725V296.688C241.745 301.282 245.469 305.006 250.063 305.006H250.175C254.768 305.006 258.493 301.282 258.493 296.688V282.725C258.493 279.677 260.963 277.206 264.011 277.206H269.721C272.769 277.206 275.24 279.677 275.24 282.725V296.688C275.24 301.282 278.964 305.006 283.558 305.006H283.67C288.263 305.006 291.988 301.282 291.988 296.688V282.725C291.988 279.677 294.458 277.206 297.506 277.206H303.216C303.358 277.206 303.498 277.217 303.638 277.227V299.847ZM299.934 196.328H191.172V296.949C191.172 306.46 198.91 314.198 208.42 314.198H234.959C240.283 314.198 241.324 314.901 244.111 317.338L250.041 322.526L256.027 317.403C259.058 314.809 259.975 314.198 265.255 314.198H291.794C301.305 314.198 309.042 306.46 309.042 296.949V205.435V196.328H299.934Z" fill="#E51636"/>
</g>
<defs>
<clipPath id="clip0_1174_6308">
<rect width="500" height="500" fill="white"/>
</clipPath>
</defs>
</svg>
