<svg xmlns="http://www.w3.org/2000/svg" width="685" height="682" fill="none"><path fill="#812C7C" fill-rule="evenodd" d="M97.222 147.191a3.844 3.844 0 0 0 1.614 5.218l119.762 69.007.266.141a3.882 3.882 0 0 0 3.079.259 3.887 3.887 0 0 0 2.294-2.069 157.03 157.03 0 0 1 109.998-76.806 3.844 3.844 0 0 0 2.988-4.362v-.252L311.845 3.355v-.239A3.899 3.899 0 0 0 307.539.03h-.323a306.058 306.058 0 0 0-121.614 50.592 300.836 300.836 0 0 0-88.38 96.457" clip-rule="evenodd"/><path fill="#005093" fill-rule="evenodd" d="M29.128 408.102a3.927 3.927 0 0 0 5.148 1.978l129.806-49.231.281-.127a3.828 3.828 0 0 0 1.95-5.301 153.035 153.035 0 0 1 8.501-132.756c.216-.44.349-.915.393-1.403a3.852 3.852 0 0 0-1.978-3.576l-.238-.127-122.582-64.716-.21-.098a3.915 3.915 0 0 0-5.093 1.375c0 .098-.112.196-.168.294a296.61 296.61 0 0 0-15.824 253.674" clip-rule="evenodd"/><path fill="#008FC9" fill-rule="evenodd" d="M191.761 621.942a3.929 3.929 0 0 0 3.83-1.094 3.822 3.822 0 0 0 .855-1.655l41.202-130.68.085-.28a3.774 3.774 0 0 0-2.329-4.601 156.855 156.855 0 0 1-60.505-33.298 154.463 154.463 0 0 1-40.136-55.823 3.9 3.9 0 0 0-4.938-1.88l-.183.141L2.544 447.094l-.225.099a3.829 3.829 0 0 0-2.104 4.782l.14.309a302.966 302.966 0 0 0 76.886 106.033 303.02 303.02 0 0 0 114.464 63.681" clip-rule="evenodd"/><path fill="#009949" fill-rule="evenodd" d="M463.803 629.25a3.82 3.82 0 0 0 1.464-4.027 3.804 3.804 0 0 0-.65-1.359l-77.382-113.527-.182-.252a3.9 3.9 0 0 0-5.626-.701 159.34 159.34 0 0 1-133.117 21.221 4.22 4.22 0 0 0-1.487 0 3.878 3.878 0 0 0-3.1 2.679l-.07.28-36.91 131.845v.21a3.425 3.425 0 0 0 0 1.683 3.935 3.935 0 0 0 2.554 2.903l.322.085a309.608 309.608 0 0 0 131.967 7.251 305.656 305.656 0 0 0 122.315-48.193" clip-rule="evenodd"/><path fill="#FFF101" fill-rule="evenodd" d="M640.535 425.017a3.84 3.84 0 0 0-2.318-3.64 3.843 3.843 0 0 0-1.484-.315L497.85 410.416h-.308a3.836 3.836 0 0 0-1.56.233 3.831 3.831 0 0 0-2.222 2.144 3.864 3.864 0 0 0-.287 1.551 152.655 152.655 0 0 1-19.457 65.024 155.332 155.332 0 0 1-46.393 51.125 3.758 3.758 0 0 0-.757 5.175l.154.225 82.348 110.342.14.182a3.994 3.994 0 0 0 5.219.926l.266-.196a302.731 302.731 0 0 0 87.917-97.551 295.013 295.013 0 0 0 37.625-124.579Z" clip-rule="evenodd"/><path fill="#E9822C" fill-rule="evenodd" d="M588.405 160.993a3.93 3.93 0 0 0-5.499.392l-95.395 99.192-.21.224a3.767 3.767 0 0 0-.961 2.895 3.776 3.776 0 0 0 1.494 2.66 154.468 154.468 0 0 1 39.014 55.739 152.313 152.313 0 0 1 11.138 67.507c0 .477.098.954.267 1.402a3.875 3.875 0 0 0 3.325 2.385h.28l138.49 6.62h.239a3.695 3.695 0 0 0 1.655-.322 3.853 3.853 0 0 0 2.329-3.072v-.337a298.22 298.22 0 0 0-21.726-128.43 298.28 298.28 0 0 0-74.398-106.926" clip-rule="evenodd"/><path fill="#D8232A" fill-rule="evenodd" d="M345.682 37.2a3.816 3.816 0 0 0-3.086 4.53l20.412 136.052v.28a3.86 3.86 0 0 0 2.805 3.002c.672.2 1.386.209 2.063.028a160.14 160.14 0 0 1 69.048 4.207 158.43 158.43 0 0 1 61.193 33.256 3.937 3.937 0 0 0 2.743.818 3.938 3.938 0 0 0 2.574-1.253l.182-.196 91.424-103.975.155-.196c.372-.437.636-.956.771-1.515a3.827 3.827 0 0 0-1.024-3.731l-.252-.224a310.055 310.055 0 0 0-116.712-62.774A310.092 310.092 0 0 0 345.71 37.2" clip-rule="evenodd"/><path fill="#1A1919" fill-rule="evenodd" d="M337.265 232.301a114.455 114.455 0 0 1 81.019 33.017 114.418 114.418 0 0 1 34.016 80.593 113.617 113.617 0 0 1-69.829 104.821 113.649 113.649 0 0 1-123.658-24.004 113.595 113.595 0 0 1 15.709-174.603 113.644 113.644 0 0 1 62.743-19.824Zm84.172 177.582a103.094 103.094 0 0 0 22.109-64.042c0-1.108-.084-2.216-.084-3.31a63.632 63.632 0 0 1-6.215 13.493 67.985 67.985 0 0 0-2.371-9.328 64.262 64.262 0 0 0-13.636-23.605l-31.803 6.368-.126-.351 29.699-13.395a63.92 63.92 0 0 0-3.058-26.537 71.689 71.689 0 0 0-3.634-8.921 62.328 62.328 0 0 1 13.411 7.588 105.873 105.873 0 0 0-59.34-42.526 60.28 60.28 0 0 1 11.756 10.421 72.723 72.723 0 0 0-9.736-.659 66.215 66.215 0 0 0-26.739 5.414l-3.689 31.783h-.379l-3.69-31.755a66.25 66.25 0 0 0-26.78-5.442c-3.241 0-6.495.224-9.708.659a58.803 58.803 0 0 1 11.784-10.435 105.868 105.868 0 0 0-59.383 42.597 61.538 61.538 0 0 1 13.482-7.645 68.348 68.348 0 0 0-3.634 8.921 64.042 64.042 0 0 0-3.072 26.509l29.741 13.409-.113.351-31.817-6.368a64.389 64.389 0 0 0-13.663 23.648 67.29 67.29 0 0 0-2.371 9.327 62.587 62.587 0 0 1-6.243-13.591c-.084 1.122-.084 2.258-.084 3.408 0 23.283 7.884 45.865 22.347 64.099a64.644 64.644 0 0 1-2.889-14.251 68.145 68.145 0 0 0 7.463 6.186 65.934 65.934 0 0 0 24.662 11.08l22.263-23.942.309.224-16.133 28.192a64.774 64.774 0 0 0 18.476 20.016 71.403 71.403 0 0 0 8.249 5.105 68.416 68.416 0 0 1-14.52 1.683 107.152 107.152 0 0 0 71.223 0 68.015 68.015 0 0 1-14.477-1.683 73.754 73.754 0 0 0 8.262-5.119 64.899 64.899 0 0 0 18.462-20.016l-16.119-28.178.309-.224 22.249 23.942a66.027 66.027 0 0 0 24.662-11.08 70.493 70.493 0 0 0 7.478-6.2 65.095 65.095 0 0 1-2.89 14.18Zm-131.238-79.527 47.052-33.522 47.066 33.522-17.971 54.225H308.17l-17.971-54.239v.014Z" clip-rule="evenodd"/><path fill="#fff" fill-rule="evenodd" d="M421.437 409.926a65.16 65.16 0 0 0 2.89-14.167 70.78 70.78 0 0 1-7.478 6.172 66.018 66.018 0 0 1-24.662 11.094l-22.249-23.942-.309.224 16.119 28.193a64.918 64.918 0 0 1-18.462 20.001 71.744 71.744 0 0 1-8.262 5.105 68.01 68.01 0 0 0 14.477 1.683 107.152 107.152 0 0 1-71.223 0c4.886-.03 9.754-.59 14.52-1.669a73.385 73.385 0 0 1-8.249-5.105 64.988 64.988 0 0 1-18.476-20.015l16.133-28.193-.309-.224-22.263 23.942a65.934 65.934 0 0 1-24.662-11.08 69.728 69.728 0 0 1-7.463-6.172 64.83 64.83 0 0 0 2.89 14.223 103.164 103.164 0 0 1-22.264-67.493 63.202 63.202 0 0 0 6.243 13.605 66.459 66.459 0 0 1 2.371-9.341 64.415 64.415 0 0 1 13.664-23.648l31.816 6.368.113-.351-29.741-13.409a64.042 64.042 0 0 1 3.072-26.509 68.322 68.322 0 0 1 3.634-8.921 60.975 60.975 0 0 0-13.482 7.645 105.868 105.868 0 0 1 59.383-42.597 59.239 59.239 0 0 0-11.784 10.435 72.484 72.484 0 0 1 9.708-.659 66.259 66.259 0 0 1 26.781 5.442l3.689 31.755h.379l3.689-31.783a66.215 66.215 0 0 1 26.739-5.414c3.254 0 6.509.224 9.736.659a59.632 59.632 0 0 0-11.756-10.421 105.867 105.867 0 0 1 59.34 42.527 62.071 62.071 0 0 0-13.411-7.575 72.263 72.263 0 0 1 3.634 8.907 63.797 63.797 0 0 1 3.058 26.537l-29.699 13.395.127.351 31.802-6.368a64.523 64.523 0 0 1 13.636 23.605 69.357 69.357 0 0 1 2.371 9.328 62.947 62.947 0 0 0 6.215-13.493c0 1.094.084 2.202.084 3.31a103.1 103.1 0 0 1-22.109 64.043ZM290.27 330.342l17.97 54.239h58.177l17.97-54.239-47.066-33.522-47.051 33.522Z" clip-rule="evenodd"/></svg>
