<svg width="500" height="500" viewBox="0 0 500 500" fill="none" xmlns="http://www.w3.org/2000/svg">
<path fill-rule="evenodd" clip-rule="evenodd" d="M70.967 108.441C70.7923 108.768 70.6842 109.127 70.649 109.496C70.6137 109.865 70.6519 110.237 70.7614 110.591C70.8709 110.945 71.0495 111.274 71.2869 111.559C71.5243 111.844 71.8158 112.079 72.1446 112.25L159.564 162.622L159.759 162.724C160.1 162.908 160.476 163.019 160.863 163.052C161.249 163.084 161.638 163.037 162.006 162.913C162.373 162.789 162.712 162.592 163 162.332C163.288 162.072 163.52 161.756 163.681 161.404C172.091 146.709 183.653 134.059 197.536 124.366C211.42 114.672 227.279 108.174 243.973 105.339C244.675 105.188 245.293 104.774 245.698 104.182C246.104 103.589 246.267 102.864 246.154 102.155V101.971L227.63 3.44867V3.27462C227.486 2.57236 227.082 1.95028 226.5 1.53271C225.917 1.11514 225.198 0.932834 224.486 1.02222H224.251C192.33 6.74334 162.038 19.3449 135.48 37.9514C109.07 56.4052 87.0451 80.4428 70.967 108.359" fill="#812C7C"/>
<path fill-rule="evenodd" clip-rule="evenodd" d="M21.2615 298.892C21.5726 299.578 22.1412 300.114 22.8445 300.385C23.5477 300.655 24.3291 300.637 25.0196 300.336L119.771 264.4L119.976 264.308C120.335 264.161 120.659 263.941 120.928 263.661C121.198 263.382 121.406 263.05 121.54 262.686C121.674 262.322 121.73 261.934 121.706 261.547C121.682 261.16 121.577 260.782 121.399 260.438C115.075 244.859 112.348 228.055 113.422 211.276C114.497 194.498 119.345 178.178 127.605 163.533C127.762 163.212 127.859 162.865 127.891 162.509C127.92 161.983 127.799 161.459 127.544 160.997C127.289 160.536 126.909 160.155 126.448 159.899L126.274 159.807L36.7957 112.568L36.6421 112.496C36.0089 112.17 35.2767 112.092 34.5891 112.277C33.9014 112.463 33.3079 112.899 32.9249 113.499C32.9249 113.571 32.843 113.643 32.802 113.714C17.2756 141.795 8.18477 172.975 6.18712 204.999C4.18946 237.023 9.33486 269.09 21.2512 298.882" fill="#005093"/>
<path fill-rule="evenodd" clip-rule="evenodd" d="M139.975 454.984C140.47 455.112 140.99 455.105 141.481 454.965C141.973 454.824 142.418 454.555 142.77 454.185C143.075 453.84 143.29 453.425 143.395 452.977L173.47 357.588L173.532 357.383C173.727 356.712 173.661 355.992 173.345 355.368C173.029 354.745 172.488 354.264 171.832 354.025C155.487 349.304 140.399 341.001 127.666 329.719C114.963 318.51 104.95 304.582 98.3695 288.971C98.0505 288.332 97.5027 287.836 96.835 287.582C96.1672 287.328 95.4283 287.334 94.7649 287.599L94.6318 287.702L1.85662 327.354L1.69279 327.426C1.04214 327.705 0.521729 328.221 0.23663 328.869C-0.0484691 329.517 -0.0770077 330.249 0.156776 330.917L0.259169 331.142C13.0987 360.725 32.2537 387.141 56.3816 408.541C80.5096 429.941 109.027 445.806 139.934 455.025" fill="#008FC9"/>
<path fill-rule="evenodd" clip-rule="evenodd" d="M338.551 460.318C338.851 460.101 339.105 459.826 339.297 459.51C339.49 459.194 339.618 458.843 339.673 458.477C339.728 458.111 339.71 457.737 339.619 457.378C339.529 457.019 339.367 456.682 339.145 456.386L282.66 373.518L282.527 373.334C282.298 373.022 282.007 372.76 281.673 372.564C281.339 372.368 280.969 372.242 280.584 372.194C280.2 372.146 279.81 372.177 279.438 372.285C279.066 372.393 278.72 372.576 278.421 372.822C264.342 382.349 248.344 388.673 231.556 391.349C214.768 394.025 197.597 392.989 181.253 388.313C180.894 388.248 180.526 388.248 180.167 388.313C179.645 388.395 179.157 388.622 178.757 388.968C178.357 389.313 178.062 389.764 177.904 390.268L177.853 390.473L150.911 486.712V486.865C150.809 487.275 150.809 487.685 150.911 488.094C151.013 488.578 151.238 489.028 151.564 489.399C151.891 489.77 152.308 490.051 152.775 490.213L153.01 490.275C184.364 498.952 217.223 500.758 249.339 495.568C281.3 490.456 311.766 478.453 338.622 460.389" fill="#009949"/>
<path fill-rule="evenodd" clip-rule="evenodd" d="M467.555 311.239C467.566 310.867 467.503 310.496 467.369 310.148C467.234 309.8 467.032 309.482 466.774 309.214C466.515 308.945 466.206 308.73 465.864 308.582C465.521 308.434 465.153 308.356 464.78 308.352L363.403 300.581H363.178C362.791 300.559 362.403 300.616 362.039 300.751C361.676 300.886 361.344 301.094 361.065 301.364C360.786 301.633 360.565 301.958 360.418 302.316C360.271 302.675 360.199 303.06 360.208 303.448C359.096 320.135 354.242 336.357 346.005 350.912C337.66 365.734 326.087 378.489 312.141 388.231C311.577 388.665 311.203 389.303 311.1 390.008C310.997 390.713 311.172 391.43 311.589 392.009L311.701 392.172L371.811 472.716L371.913 472.849C372.356 473.408 372.988 473.784 373.689 473.909C374.391 474.033 375.114 473.897 375.722 473.525L375.917 473.382C402.261 454.627 424.168 430.319 440.091 402.175C455.901 374.284 465.284 343.217 467.555 311.239Z" fill="#FFF101"/>
<path fill-rule="evenodd" clip-rule="evenodd" d="M429.503 118.516C428.93 118.027 428.188 117.783 427.437 117.837C426.686 117.891 425.986 118.237 425.489 118.803L355.856 191.207L355.703 191.371C355.445 191.655 355.25 191.99 355.129 192.353C355.008 192.717 354.965 193.102 355.001 193.484C355.038 193.866 355.154 194.235 355.342 194.57C355.53 194.904 355.785 195.195 356.092 195.425C368.491 206.703 378.219 220.602 384.57 236.112C390.982 251.708 393.762 268.559 392.7 285.388C392.7 285.736 392.772 286.084 392.895 286.412C393.304 287.405 394.247 288.081 395.322 288.153H395.527L496.617 292.985H496.791C497.206 293.001 497.62 292.92 497.999 292.749C498.454 292.558 498.851 292.249 499.149 291.856C499.448 291.462 499.637 290.997 499.699 290.507V290.262C501.385 258.226 495.97 226.214 483.84 196.515C471.71 166.816 453.166 140.163 429.534 118.465" fill="#E9822C"/>
<path fill-rule="evenodd" clip-rule="evenodd" d="M252.329 28.1534C251.961 28.2171 251.61 28.354 251.296 28.5561C250.982 28.7582 250.712 29.0213 250.502 29.3298C250.292 29.6382 250.146 29.9858 250.073 30.3518C250 30.7178 250.001 31.0948 250.076 31.4604L264.976 130.771V130.976C265.18 132.04 265.979 132.89 267.024 133.167C267.514 133.312 268.035 133.32 268.529 133.187C285.353 130.526 302.555 131.575 318.931 136.258C335.437 140.937 350.694 149.229 363.598 160.533C364.167 160.976 364.882 161.189 365.6 161.131C366.319 161.072 366.989 160.745 367.479 160.216L367.612 160.073L434.347 84.1768L434.459 84.0335C434.731 83.7142 434.924 83.3354 435.023 82.9278C435.151 82.4483 435.149 81.9434 435.018 81.4647C434.887 80.9861 434.63 80.5511 434.275 80.2044L434.091 80.0406C409.328 58.806 380.266 43.1751 348.897 34.2192C317.528 25.2633 284.593 23.1941 252.35 28.1534" fill="#D8232A"/>
<path fill-rule="evenodd" clip-rule="evenodd" d="M246.185 170.567C268.313 170.452 289.582 179.12 305.325 194.668C321.067 210.215 329.997 231.373 330.154 253.496C330.153 269.854 325.313 285.846 316.243 299.461C307.174 313.076 294.279 323.704 279.183 330.01C264.086 336.316 247.461 338.017 231.4 334.899C215.339 331.781 200.559 323.984 188.919 312.488C177.28 300.993 169.3 286.312 165.985 270.293C162.67 254.275 164.167 237.633 170.288 222.463C176.409 207.293 186.881 194.272 200.386 185.038C213.891 175.803 229.825 170.769 246.185 170.567ZM307.626 300.192C318.118 286.872 323.805 270.4 323.764 253.445C323.764 252.636 323.703 251.827 323.703 251.029C322.576 254.479 321.061 257.786 319.166 260.878C318.751 258.57 318.173 256.295 317.436 254.069C315.388 247.68 311.994 241.804 307.482 236.839L284.268 241.487L284.176 241.231L305.854 231.453C306.483 224.911 305.722 218.31 303.622 212.083C302.885 209.855 301.999 207.68 300.97 205.571C304.451 207.004 307.738 208.868 310.759 211.11C300.459 195.955 285.107 184.953 267.444 180.068C270.618 182.218 273.516 184.777 276.025 187.675C273.669 187.356 271.295 187.195 268.918 187.194C262.208 187.142 255.561 188.488 249.401 191.145L246.707 214.345H246.431L243.738 191.166C237.569 188.498 230.911 187.145 224.189 187.194C221.824 187.194 219.448 187.357 217.103 187.675C219.612 184.767 222.51 182.197 225.705 180.057C208.023 184.949 192.658 195.971 182.359 211.151C185.39 208.888 188.697 207.004 192.199 205.571C191.163 207.677 190.277 209.852 189.547 212.083C187.449 218.304 186.685 224.897 187.305 231.433L209.014 241.22L208.932 241.476L185.707 236.828C181.186 241.803 177.785 247.689 175.733 254.09C174.995 256.315 174.416 258.59 174.003 260.898C172.093 257.785 170.563 254.455 169.446 250.977C169.384 251.796 169.384 252.626 169.384 253.465C169.384 270.461 175.139 286.944 185.697 300.254C184.605 296.877 183.897 293.388 183.587 289.852C185.298 291.49 187.12 292.995 189.035 294.367C194.413 298.277 200.542 301.031 207.037 302.455L223.288 284.978L223.514 285.142L211.737 305.721C215.147 311.495 219.745 316.471 225.224 320.331C227.149 321.713 229.156 322.952 231.245 324.058C227.763 324.846 224.21 325.256 220.646 325.286C237.469 331.214 255.813 331.214 272.635 325.286C269.079 325.256 265.536 324.845 262.068 324.058C264.156 322.942 266.174 321.703 268.099 320.321C273.574 316.458 278.167 311.479 281.575 305.711L269.809 285.142L270.034 284.978L286.275 302.455C292.77 301.03 298.899 298.276 304.277 294.367C306.198 292.986 308.022 291.474 309.735 289.842C309.418 293.364 308.711 296.834 307.626 300.192ZM211.83 242.142L246.175 217.673L280.53 242.142L267.413 281.723H224.947L211.83 242.132V242.142Z" fill="#1A1919"/>
<path fill-rule="evenodd" clip-rule="evenodd" d="M307.626 300.223C308.711 296.865 309.418 293.394 309.735 289.883C308.021 291.507 306.197 293.012 304.277 294.387C298.9 298.3 292.77 301.057 286.275 302.486L270.034 285.009L269.809 285.173L281.575 305.752C278.166 311.516 273.573 316.492 268.099 320.351C266.175 321.729 264.16 322.974 262.068 324.078C265.539 324.867 269.082 325.276 272.635 325.307C255.813 331.235 237.469 331.235 220.646 325.307C224.213 325.284 227.766 324.876 231.245 324.088C229.156 322.983 227.149 321.734 225.224 320.362C219.747 316.499 215.15 311.52 211.737 305.752L223.514 285.173L223.288 285.009L207.037 302.486C200.542 301.062 194.413 298.308 189.035 294.398C187.117 293.024 185.297 291.519 183.587 289.893C183.895 293.415 184.611 296.906 185.697 300.274C174.615 286.295 168.857 268.836 169.446 251.008C170.572 254.489 172.088 257.817 174.003 260.939C174.412 258.625 174.996 256.342 175.733 254.121C177.781 247.722 181.191 241.835 185.707 236.859L208.932 241.507L209.014 241.251L187.305 231.463C186.685 224.928 187.449 218.334 189.547 212.113C190.274 209.881 191.165 207.711 192.199 205.602C188.697 207.035 185.39 208.909 182.359 211.182C192.658 196.002 208.023 184.98 225.705 180.088C222.51 182.238 219.612 184.798 217.103 187.705C219.459 187.388 221.814 187.224 224.189 187.224C230.911 187.176 237.569 188.529 243.738 191.197L246.431 214.376H246.707L249.401 191.176C255.561 188.518 262.208 187.172 268.918 187.224C271.294 187.224 273.67 187.388 276.025 187.705C273.512 184.803 270.627 182.245 267.444 180.098C285.107 184.984 300.459 195.986 310.759 211.141C307.738 208.899 304.45 207.042 300.97 205.612C301.994 207.711 302.885 209.892 303.622 212.113C305.721 218.338 306.489 224.942 305.854 231.484L284.176 241.261L284.268 241.517L307.482 236.869C311.99 241.839 315.383 247.713 317.436 254.1C318.173 256.332 318.746 258.605 319.166 260.909C321.061 257.817 322.586 254.51 323.703 251.059C323.703 251.858 323.764 252.667 323.764 253.476C323.805 270.431 318.118 286.903 307.626 300.223ZM211.881 242.132L224.998 281.723H267.464L280.582 242.132L246.226 217.662L211.881 242.132Z" fill="white"/>
</svg>
