<svg xmlns="http://www.w3.org/2000/svg" width="685" height="682" fill="none"><path fill="#fff" fill-rule="evenodd" d="M97.222 147.191a3.844 3.844 0 0 0 1.613 5.218l119.762 69.007.267.141a3.882 3.882 0 0 0 3.078.259 3.89 3.89 0 0 0 2.295-2.069 157.024 157.024 0 0 1 109.998-76.806 3.842 3.842 0 0 0 2.988-4.362v-.252L311.845 3.355v-.239A3.896 3.896 0 0 0 307.538.03h-.322a306.046 306.046 0 0 0-121.614 50.592 300.84 300.84 0 0 0-88.38 96.457M29.128 408.102a3.927 3.927 0 0 0 5.148 1.978l129.806-49.231.281-.127a3.828 3.828 0 0 0 1.95-5.301 153.035 153.035 0 0 1 8.501-132.756c.216-.44.349-.915.393-1.403a3.852 3.852 0 0 0-1.978-3.576l-.238-.127-122.582-64.716-.21-.098a3.915 3.915 0 0 0-5.093 1.375c0 .098-.112.196-.168.294a296.61 296.61 0 0 0-15.824 253.674M191.761 621.942a3.929 3.929 0 0 0 3.83-1.094 3.822 3.822 0 0 0 .855-1.655l41.202-130.68.085-.28a3.774 3.774 0 0 0-2.329-4.601 156.855 156.855 0 0 1-60.505-33.298 154.463 154.463 0 0 1-40.136-55.823 3.9 3.9 0 0 0-4.938-1.88l-.183.141L2.544 447.094l-.225.099a3.829 3.829 0 0 0-2.104 4.782l.14.309a302.966 302.966 0 0 0 76.886 106.033 303.02 303.02 0 0 0 114.464 63.681M463.803 629.25a3.82 3.82 0 0 0 1.464-4.027 3.804 3.804 0 0 0-.65-1.359l-77.382-113.527-.182-.252a3.9 3.9 0 0 0-5.626-.701 159.34 159.34 0 0 1-133.117 21.221 4.22 4.22 0 0 0-1.487 0 3.878 3.878 0 0 0-3.1 2.679l-.07.28-36.91 131.845v.21a3.425 3.425 0 0 0 0 1.683 3.935 3.935 0 0 0 2.554 2.903l.322.085a309.608 309.608 0 0 0 131.967 7.251 305.656 305.656 0 0 0 122.315-48.193M640.535 425.017a3.84 3.84 0 0 0-2.318-3.64 3.843 3.843 0 0 0-1.484-.315L497.85 410.416h-.308a3.836 3.836 0 0 0-1.56.233 3.831 3.831 0 0 0-2.222 2.144 3.864 3.864 0 0 0-.287 1.551 152.655 152.655 0 0 1-19.457 65.024 155.332 155.332 0 0 1-46.393 51.125 3.758 3.758 0 0 0-.757 5.175l.154.225 82.348 110.342.14.182a3.994 3.994 0 0 0 5.219.926l.266-.196a302.731 302.731 0 0 0 87.917-97.551 295.013 295.013 0 0 0 37.625-124.579ZM588.405 160.993a3.93 3.93 0 0 0-5.499.392l-95.395 99.192-.21.224a3.767 3.767 0 0 0-.961 2.895 3.776 3.776 0 0 0 1.494 2.66 154.468 154.468 0 0 1 39.014 55.739 152.313 152.313 0 0 1 11.138 67.507c0 .477.098.954.267 1.402a3.875 3.875 0 0 0 3.325 2.385h.28l138.49 6.62h.239a3.695 3.695 0 0 0 1.655-.322 3.853 3.853 0 0 0 2.329-3.072v-.337a298.22 298.22 0 0 0-21.726-128.43 298.28 298.28 0 0 0-74.398-106.926M345.683 37.2a3.82 3.82 0 0 0-2.503 1.61 3.81 3.81 0 0 0-.584 2.92l20.412 136.052v.28a3.862 3.862 0 0 0 2.806 3.002c.671.2 1.385.209 2.062.028a160.14 160.14 0 0 1 69.048 4.207 158.422 158.422 0 0 1 61.193 33.256 3.94 3.94 0 0 0 5.317-.435l.182-.196 91.425-103.975.154-.196c.372-.437.637-.956.771-1.515a3.827 3.827 0 0 0-1.024-3.731l-.252-.224a310.055 310.055 0 0 0-116.712-62.774 310.088 310.088 0 0 0-132.267-8.31M421.437 409.926a65.1 65.1 0 0 0 2.889-14.167 70.668 70.668 0 0 1-7.477 6.172 66.025 66.025 0 0 1-24.662 11.094l-22.249-23.942-.309.224 16.119 28.193a64.918 64.918 0 0 1-18.462 20.001 71.67 71.67 0 0 1-8.263 5.105 68.027 68.027 0 0 0 14.478 1.683 107.152 107.152 0 0 1-71.223 0c4.886-.03 9.754-.59 14.519-1.669a73.462 73.462 0 0 1-8.248-5.105 64.988 64.988 0 0 1-18.476-20.015l16.133-28.193-.309-.224-22.263 23.942a65.934 65.934 0 0 1-24.662-11.08 69.74 69.74 0 0 1-7.464-6.172 64.83 64.83 0 0 0 2.89 14.223 103.168 103.168 0 0 1-22.263-67.493 63.154 63.154 0 0 0 6.243 13.605 66.456 66.456 0 0 1 2.37-9.341 64.443 64.443 0 0 1 13.664-23.648l31.817 6.368.112-.351-29.74-13.409a64.042 64.042 0 0 1 3.072-26.509 68.457 68.457 0 0 1 3.633-8.921 60.968 60.968 0 0 0-13.481 7.645 105.868 105.868 0 0 1 59.383-42.597 59.239 59.239 0 0 0-11.784 10.435 72.484 72.484 0 0 1 9.708-.659 66.25 66.25 0 0 1 26.78 5.442l3.69 31.755h.379l3.689-31.783a66.212 66.212 0 0 1 26.739-5.414c3.254 0 6.509.224 9.735.659a59.632 59.632 0 0 0-11.756-10.421 105.87 105.87 0 0 1 59.341 42.527 62.119 62.119 0 0 0-13.411-7.575 72.257 72.257 0 0 1 3.633 8.907 63.798 63.798 0 0 1 3.059 26.537l-29.699 13.395.126.351 31.803-6.368a64.523 64.523 0 0 1 13.636 23.605 69.357 69.357 0 0 1 2.371 9.328 62.895 62.895 0 0 0 6.214-13.493c0 1.094.085 2.202.085 3.31a103.1 103.1 0 0 1-22.109 64.043Zm-131.168-79.584 17.971 54.239h58.176l17.971-54.239-47.066-33.522-47.052 33.522Z" clip-rule="evenodd"/></svg>