<svg width="503" height="500" viewBox="0 0 503 500" fill="none" xmlns="http://www.w3.org/2000/svg">
<path fill-rule="evenodd" clip-rule="evenodd" d="M71.967 108.441C71.7923 108.768 71.6842 109.127 71.649 109.496C71.6137 109.865 71.6519 110.237 71.7614 110.591C71.8709 110.945 72.0495 111.274 72.2869 111.559C72.5243 111.844 72.8158 112.079 73.1446 112.25L160.564 162.622L160.759 162.724C161.101 162.908 161.476 163.019 161.863 163.052C162.249 163.084 162.638 163.037 163.006 162.913C163.373 162.789 163.712 162.592 164 162.332C164.288 162.072 164.52 161.756 164.681 161.404C173.091 146.709 184.653 134.06 198.536 124.366C212.42 114.672 228.279 108.174 244.973 105.339C245.675 105.188 246.293 104.774 246.699 104.182C247.104 103.589 247.267 102.864 247.154 102.155V101.971L228.63 3.44867V3.27462C228.486 2.57236 228.082 1.95028 227.5 1.53271C226.917 1.11514 226.198 0.932834 225.486 1.02222H225.251C193.33 6.74334 163.038 19.345 136.48 37.9514C110.07 56.4052 88.0451 80.4429 71.967 108.359" fill="white"/>
<path fill-rule="evenodd" clip-rule="evenodd" d="M22.262 298.892C22.5731 299.578 23.1417 300.114 23.845 300.385C24.5482 300.655 25.3296 300.637 26.0201 300.336L120.772 264.4L120.976 264.308C121.335 264.161 121.66 263.941 121.929 263.661C122.198 263.382 122.406 263.05 122.54 262.686C122.674 262.322 122.731 261.934 122.707 261.547C122.682 261.16 122.578 260.782 122.4 260.438C116.075 244.859 113.348 228.055 114.423 211.276C115.497 194.498 120.345 178.178 128.605 163.533C128.762 163.212 128.86 162.865 128.892 162.509C128.92 161.983 128.8 161.459 128.544 160.997C128.289 160.536 127.909 160.155 127.448 159.899L127.274 159.807L37.7962 112.568L37.6426 112.496C37.0094 112.17 36.2772 112.092 35.5896 112.277C34.9019 112.463 34.3084 112.899 33.9254 113.499C33.9254 113.571 33.8435 113.643 33.8025 113.714C18.276 141.795 9.18526 172.975 7.18761 204.999C5.18995 237.023 10.3353 269.09 22.2517 298.882" fill="white"/>
<path fill-rule="evenodd" clip-rule="evenodd" d="M140.975 454.984C141.47 455.112 141.99 455.105 142.482 454.965C142.973 454.825 143.418 454.555 143.771 454.185C144.075 453.84 144.29 453.425 144.395 452.977L174.47 357.588L174.532 357.383C174.727 356.712 174.661 355.992 174.345 355.368C174.029 354.745 173.489 354.265 172.832 354.025C156.487 349.305 141.399 341.001 128.666 329.72C115.963 318.51 105.95 304.582 99.3695 288.971C99.0505 288.332 98.5028 287.836 97.835 287.582C97.1673 287.328 96.4284 287.334 95.765 287.6L95.6319 287.702L2.85663 327.354L2.69279 327.426C2.04214 327.705 1.52173 328.221 1.23663 328.869C0.951531 329.517 0.922992 330.249 1.15678 330.917L1.25917 331.143C14.0987 360.725 33.2537 387.141 57.3817 408.541C81.5096 429.941 110.027 445.806 140.934 455.025" fill="white"/>
<path fill-rule="evenodd" clip-rule="evenodd" d="M339.551 460.318C339.851 460.101 340.105 459.827 340.297 459.51C340.49 459.194 340.618 458.843 340.673 458.477C340.729 458.111 340.71 457.737 340.62 457.379C340.529 457.02 340.367 456.682 340.145 456.387L283.66 373.519L283.527 373.334C283.298 373.022 283.007 372.76 282.673 372.564C282.339 372.368 281.969 372.242 281.584 372.194C281.2 372.146 280.81 372.177 280.438 372.285C280.066 372.393 279.72 372.576 279.421 372.822C265.342 382.349 249.344 388.673 232.556 391.349C215.768 394.026 198.597 392.989 182.253 388.313C181.894 388.248 181.526 388.248 181.167 388.313C180.645 388.396 180.157 388.623 179.757 388.968C179.357 389.314 179.062 389.764 178.904 390.268L178.853 390.473L151.911 486.712V486.866C151.809 487.275 151.809 487.685 151.911 488.094C152.013 488.578 152.238 489.028 152.564 489.399C152.891 489.77 153.308 490.051 153.775 490.214L154.01 490.275C185.364 498.952 218.223 500.758 250.339 495.568C282.3 490.457 312.766 478.453 339.622 460.39" fill="white"/>
<path fill-rule="evenodd" clip-rule="evenodd" d="M468.556 311.24C468.567 310.867 468.503 310.496 468.369 310.148C468.235 309.8 468.032 309.483 467.774 309.214C467.516 308.945 467.206 308.73 466.864 308.582C466.522 308.435 466.153 308.356 465.781 308.352L364.404 300.582H364.178C363.791 300.559 363.403 300.617 363.04 300.751C362.676 300.886 362.344 301.095 362.065 301.364C361.786 301.633 361.566 301.958 361.418 302.316C361.271 302.675 361.2 303.061 361.209 303.448C360.096 320.135 355.242 336.357 347.006 350.913C338.661 365.734 327.087 378.489 313.142 388.231C312.577 388.665 312.203 389.303 312.1 390.008C311.997 390.713 312.172 391.43 312.589 392.009L312.701 392.173L372.811 472.716L372.913 472.85C373.356 473.408 373.988 473.785 374.69 473.909C375.391 474.034 376.115 473.897 376.722 473.525L376.917 473.382C403.262 454.627 425.169 430.319 441.092 402.175C456.901 374.285 466.284 343.217 468.556 311.24Z" fill="white"/>
<path fill-rule="evenodd" clip-rule="evenodd" d="M430.503 118.516C429.93 118.027 429.188 117.783 428.437 117.837C427.686 117.891 426.986 118.237 426.489 118.803L356.856 191.207L356.703 191.371C356.445 191.655 356.25 191.99 356.129 192.353C356.008 192.717 355.965 193.102 356.001 193.484C356.038 193.866 356.154 194.235 356.342 194.57C356.53 194.904 356.785 195.195 357.092 195.425C369.491 206.703 379.219 220.602 385.57 236.112C391.982 251.708 394.762 268.559 393.7 285.388C393.7 285.736 393.772 286.084 393.895 286.412C394.304 287.405 395.247 288.081 396.322 288.153H396.527L497.617 292.985H497.791C498.206 293.001 498.62 292.92 498.999 292.75C499.454 292.558 499.851 292.25 500.149 291.856C500.448 291.462 500.637 290.997 500.699 290.507V290.262C502.385 258.226 496.97 226.214 484.84 196.515C472.71 166.816 454.166 140.163 430.534 118.465" fill="white"/>
<path fill-rule="evenodd" clip-rule="evenodd" d="M253.329 28.1534C252.962 28.2171 252.61 28.354 252.296 28.5561C251.982 28.7582 251.712 29.0213 251.502 29.3298C251.292 29.6382 251.146 29.9858 251.073 30.3518C251 30.7178 251.001 31.0948 251.077 31.4604L265.976 130.771V130.976C266.181 132.04 266.979 132.89 268.024 133.167C268.514 133.313 269.035 133.32 269.529 133.187C286.353 130.527 303.555 131.575 319.931 136.259C336.437 140.937 351.695 149.229 364.598 160.533C365.167 160.976 365.882 161.189 366.601 161.131C367.319 161.072 367.99 160.745 368.479 160.216L368.612 160.073L435.347 84.1768L435.46 84.0335C435.732 83.7142 435.924 83.3354 436.023 82.9278C436.151 82.4484 436.15 81.9434 436.018 81.4648C435.887 80.9861 435.631 80.5511 435.275 80.2044L435.091 80.0406C410.328 58.806 381.267 43.1751 349.898 34.2192C318.529 25.2633 285.594 23.1941 253.35 28.1534" fill="white"/>
<path fill-rule="evenodd" clip-rule="evenodd" d="M308.626 300.223C309.711 296.865 310.418 293.395 310.735 289.883C309.021 291.507 307.197 293.012 305.277 294.388C299.9 298.3 293.77 301.057 287.275 302.486L271.034 285.009L270.809 285.173L282.575 305.752C279.166 311.516 274.573 316.492 269.099 320.352C267.175 321.729 265.16 322.974 263.068 324.078C266.539 324.867 270.082 325.276 273.635 325.307C256.813 331.235 238.469 331.235 221.646 325.307C225.213 325.285 228.766 324.876 232.245 324.089C230.156 322.983 228.149 321.734 226.224 320.362C220.747 316.499 216.15 311.52 212.738 305.752L224.514 285.173L224.288 285.009L208.037 302.486C201.542 301.062 195.413 298.308 190.035 294.398C188.117 293.024 186.297 291.519 184.587 289.893C184.895 293.415 185.612 296.906 186.697 300.275C175.615 286.295 169.857 268.836 170.446 251.008C171.572 254.489 173.088 257.817 175.003 260.939C175.412 258.626 175.996 256.342 176.733 254.121C178.781 247.722 182.191 241.835 186.707 236.859L209.932 241.507L210.014 241.251L188.305 231.464C187.685 224.928 188.449 218.335 190.547 212.113C191.274 209.882 192.165 207.711 193.199 205.602C189.697 207.035 186.39 208.909 183.359 211.182C193.658 196.002 209.023 184.98 226.705 180.088C223.51 182.238 220.612 184.798 218.103 187.706C220.459 187.388 222.814 187.224 225.189 187.224C231.911 187.176 238.569 188.529 244.738 191.197L247.431 214.376H247.707L250.401 191.176C256.561 188.519 263.208 187.173 269.918 187.224C272.294 187.224 274.67 187.388 277.025 187.706C274.512 184.803 271.627 182.245 268.444 180.099C286.107 184.984 301.459 195.986 311.759 211.141C308.738 208.899 305.45 207.042 301.97 205.612C302.994 207.711 303.885 209.892 304.622 212.113C306.721 218.338 307.489 224.942 306.854 231.484L285.176 241.262L285.268 241.518L308.482 236.869C312.99 241.839 316.383 247.713 318.436 254.1C319.173 256.332 319.746 258.605 320.166 260.909C322.061 257.817 323.587 254.51 324.703 251.06C324.703 251.858 324.764 252.667 324.764 253.476C324.805 270.431 319.118 286.903 308.626 300.223ZM212.881 242.132L225.998 281.723H268.464L281.582 242.132L247.226 217.663L212.881 242.132Z" fill="white"/>
</svg>
