<svg width="500" height="500" viewBox="0 0 500 500" fill="none" xmlns="http://www.w3.org/2000/svg">
<path d="M397.727 264.498C375.207 309.539 348.967 352.515 319.008 393.01C277.066 396.11 235.124 396.523 193.182 394.044L140.909 477.928C221.074 485.572 293.802 487.432 368.388 475.862C421.901 410.159 463.223 342.597 500 265.118C471.488 198.382 432.438 137.432 389.256 80.4072L337.19 163.672C359.711 195.49 379.959 229.374 397.727 264.498ZM162.81 334.539C140.289 302.308 120.041 268.63 101.86 233.713C124.174 188.672 150.62 145.696 180.785 105.201C222.727 102.101 264.669 101.688 306.612 104.167L359.091 20.2832C283.471 12.6386 207.231 13.2584 131.612 22.3493C78.9256 86.8121 34.7107 157.68 0 233.506C29.1322 300.035 65.7025 358.3 110.744 417.804L162.81 334.539Z" fill="white"/>
<path d="M249.793 316.771C287.19 316.771 317.562 286.399 317.562 249.002C317.355 211.605 287.19 181.234 249.793 181.234C212.397 181.234 182.025 211.605 182.025 249.002C182.025 286.399 212.397 316.771 249.793 316.771Z" fill="white"/>
</svg>
