<svg xmlns="http://www.w3.org/2000/svg" width="500" height="470" fill="none"><path fill="#fff" d="M397.727 249.498c-22.52 45.041-48.76 88.017-78.719 128.512-41.942 3.1-83.884 3.513-125.826 1.034l-52.273 83.884c80.165 7.644 152.893 9.504 227.479-2.066C421.901 395.159 463.223 327.597 500 250.118c-28.512-66.736-67.562-127.686-110.744-184.71l-52.066 83.264c22.521 31.818 42.769 65.702 60.537 100.826ZM162.81 319.539c-22.521-32.231-42.769-65.909-60.95-100.826 22.314-45.041 48.76-88.017 78.925-128.512 41.942-3.1 83.884-3.513 125.827-1.033l52.479-83.885c-75.62-7.644-151.86-7.025-227.479 2.066C78.926 71.812 34.711 142.68 0 218.506 29.132 285.035 65.703 343.3 110.744 402.804l52.066-83.265Z"/><path fill="#fff" d="M249.793 301.771c37.397 0 67.769-30.372 67.769-67.769-.207-37.397-30.372-67.768-67.769-67.768-37.396 0-67.768 30.371-67.768 67.768 0 37.397 30.372 67.769 67.768 67.769Z"/></svg>
