<svg xmlns="http://www.w3.org/2000/svg" width="856" height="1199" fill="none"><g clip-path="url(#a)"><path fill="#fff" stroke="#000" stroke-width="2.051" d="M847.516 38.785H14.194V180.75h833.322V38.785Z"/><path fill="#F5D77F" d="M427.514 1121.99c-1.106 0-83.236-46.49-182.511-103.3l-180.5-103.301-.252-303.695L64 308H791.007l-.252 303.704-.251 303.704L610.014 1018.7c-99.269 56.82-181.394 103.3-182.5 103.29Zm-28.511-92.27c1.324-.22 1.533-18.06 1.782-152.234l.282-151.986 79.921-45.484c43.956-25.017 80.392-45.642 80.968-45.834.726-.242 1.047 50.477 1.047 165.766 0 145.646.182 166.185 1.478 166.682.845.324 13.811-6.289 30.25-15.428l28.772-15.996.263-168.353.264-168.353 37.736-21.535 37.737-21.535.261-39.169.262-39.169-3.762 1.569c-2.069.862-18.946 10.291-37.504 20.953C640.201 510.276 624.789 519 624.51 519c-.279 0-.507-18.675-.507-41.5V436h105v-61h-166v179.572l-23.75 13.579-23.75 13.578-.255-103.365L514.993 375H261.978l2.627 4.162c1.445 2.289 12.057 16.014 23.582 30.5L309.143 436h30.86v245.856l-76.25 43.479-76.25 43.479-.253-196.907L186.998 375H126.003v505h2.75c1.79 0 39.059-20.538 106.75-58.827l104-58.826.5 117.459.5 117.459 28.5 16.355c15.675 8.99 29.175 16.24 30 16.1Zm7.25-385.682-5.25 3.002V435h54l-.022 90.75-.023 90.75-21.728 12.268c-11.95 6.748-24.09 13.619-26.977 15.27Z"/><path fill="#0AB9D8" d="M427.503 211H.003V0h855v211h-427.5Zm-120.297-52.035c.936.019 2.883-.503 4.325-1.16 1.442-.657 3.263-2.434 4.047-3.95 1.054-2.038 1.425-6.803 1.425-18.305V120h34v17c0 15.594.163 17.163 1.974 18.975 1.086 1.086 3.12 2.262 4.52 2.613 1.4.351 3.907.074 5.573-.616 1.665-.689 3.702-2.559 4.528-4.155 1.268-2.452 1.454-8.353 1.202-38.109l-.297-35.208-2.824-6.11c-1.57-3.398-4.9-8.148-7.5-10.7-2.572-2.525-7.376-5.838-10.676-7.362-4.983-2.302-7.356-2.77-14-2.763-6.65.007-9.053.49-14.234 2.852-3.832 1.746-7.939 4.664-10.658 7.57-2.432 2.601-5.309 6.48-6.392 8.621-1.083 2.14-2.475 6.277-3.093 9.191-.703 3.316-1.11 17.35-1.088 37.5.028 24.805.34 32.75 1.36 34.591.729 1.314 2.401 2.986 3.715 3.714 1.314.729 3.156 1.341 4.093 1.361ZM334.003 101h-17V90.968c0-6.164.521-11.28 1.351-13.266.743-1.778 2.983-4.666 4.979-6.418 1.995-1.752 5.212-3.483 7.149-3.846 1.936-.363 5.106-.363 7.042 0 1.937.363 5.154 2.094 7.149 3.846 1.995 1.751 4.236 4.64 4.979 6.418.83 1.987 1.351 7.102 1.351 13.266V101h-17Zm72.3 57.965c.989.019 3.039-.606 4.555-1.39 1.516-.784 3.293-2.605 3.95-4.047.762-1.672 1.195-8.224 1.195-18.075V120h17.453c11.401 0 18.362-.414 20.075-1.195 1.442-.657 3.263-2.434 4.047-3.95.784-1.516 1.425-3.432 1.425-4.258 0-.827-.538-2.683-1.195-4.125-.657-1.442-2.434-3.263-3.95-4.047-2.078-1.075-7.072-1.425-20.305-1.425h-17.55v-8.75c0-6.914.413-9.422 1.956-11.951 1.073-1.761 3.299-3.899 4.946-4.75C425.27 74.328 429.521 74 443.003 74c12.844 0 17.785-.355 19.855-1.425 1.516-.784 3.293-2.605 3.95-4.047.657-1.442 1.195-3.48 1.195-4.528 0-1.048-.538-3.086-1.195-4.528-.657-1.442-2.434-3.263-3.95-4.047-2.06-1.065-6.943-1.425-19.346-1.425-14.141 0-17.554.311-23.112 2.107-3.587 1.159-8.402 3.541-10.701 5.294-2.299 1.754-5.441 5.067-6.984 7.363-1.556 2.317-3.443 7.194-4.241 10.956-1.083 5.11-1.432 14.783-1.418 39.28.014 25.08.32 33.046 1.342 34.89.729 1.314 2.401 2.986 3.715 3.714 1.314.729 3.2 1.341 4.19 1.361Zm87.903 0c.937.019 2.883-.503 4.325-1.16 1.442-.657 3.263-2.434 4.047-3.95 1.054-2.038 1.425-6.803 1.425-18.305V120h34v17c0 15.594.163 17.163 1.975 18.975 1.086 1.086 3.119 2.262 4.519 2.613s3.907.074 5.573-.616c1.665-.689 3.702-2.559 4.528-4.155 1.268-2.452 1.454-8.353 1.202-38.109l-.297-35.208-2.824-6.11c-1.57-3.398-4.9-8.148-7.5-10.7-2.572-2.525-7.376-5.838-10.676-7.362-4.983-2.302-7.356-2.77-14-2.763-6.65.007-9.053.49-14.234 2.852-3.832 1.746-7.939 4.664-10.658 7.57-2.432 2.601-5.309 6.48-6.392 8.621-1.083 2.14-2.475 6.277-3.093 9.191-.703 3.316-1.11 17.35-1.088 37.5.027 24.805.34 32.75 1.36 34.591.729 1.314 2.401 2.986 3.715 3.714 1.314.729 3.156 1.341 4.093 1.361ZM521.003 101h-17V90.968c0-6.164.521-11.28 1.351-13.266.743-1.778 2.983-4.666 4.979-6.418 1.995-1.752 5.212-3.483 7.149-3.846 1.936-.363 5.105-.363 7.042 0 1.937.363 5.154 2.094 7.149 3.846 1.995 1.751 4.236 4.64 4.979 6.418.83 1.987 1.351 7.102 1.351 13.266V101h-17Zm-374.5 35h124.5V78h-249v58h124.5Zm562 0h124.5V78h-249v58h124.5Z"/><path fill="#DAA813" d="M428.509 1198.9c-1.103-.05-97.856-55.31-215.006-122.8l-213-122.709L.25 598.696 0 244h853.006l-.252 356.208-.251 356.209-210.994 121.293c-116.047 66.71-211.897 121.25-213 121.19Zm-.995-76.91c1.106 0 83.231-46.47 182.5-103.29l180.489-103.292.251-303.704.252-303.704H64l.251 303.694.252 303.695 180.5 103.301c99.275 56.81 181.405 103.3 182.511 103.3Z"/><path fill="#004A79" d="M399.003 1029.72c-.825.14-14.325-7.11-30-16.1l-28.5-16.355-.5-117.459-.5-117.459-104 58.826C167.812 859.462 130.543 880 128.753 880h-2.75V375H186.998l.252 196.907.253 196.907 76.25-43.479 76.25-43.479V436h-30.86l-20.955-26.338c-11.526-14.486-22.138-28.211-23.583-30.5L261.978 375h253.016l.254 103.364.255 103.365 23.75-13.578 23.75-13.579V375h166v61h-105v41.5c0 22.825.228 41.5.507 41.5s15.691-8.724 34.25-19.386c18.559-10.662 35.436-20.091 37.505-20.953l3.761-1.569-.261 39.169-.262 39.169-37.736 21.535L624.03 598.5l-.263 168.353-.264 168.353-28.772 15.996c-16.439 9.139-29.405 15.752-30.25 15.428-1.296-.497-1.478-21.036-1.478-166.682 0-115.289-.321-166.008-1.047-165.766-.576.192-37.012 20.817-80.968 45.834l-79.92 45.484-.283 151.986c-.249 134.174-.458 152.014-1.782 152.234Zm7.25-385.682c2.887-1.651 15.027-8.522 26.977-15.27l21.728-12.268.023-90.75.022-90.75h-54v212.04l5.25-3.002Z"/></g><defs><clipPath id="a"><path fill="#fff" d="M0 0h855.003v1198.9H0z"/></clipPath></defs></svg>
