<svg xmlns="http://www.w3.org/2000/svg" width="500" height="500" fill="none"><path fill="#fff" d="M423 16H78v59h345V16Z"/><path fill="#F5D77F" d="M250.294 467.925c-.461-.002-34.714-19.389-76.116-43.083l-75.277-43.081-.105-126.655-.105-126.655h303.197l-.105 126.659-.105 126.659-75.273 43.08c-41.4 23.693-75.65 43.078-76.111 43.076Zm-11.891-38.481c.553-.092.64-7.533.744-63.49l.118-63.385 33.33-18.97c18.332-10.433 33.527-19.034 33.768-19.114.303-.101.436 21.051.436 69.132 0 60.741.076 69.307.617 69.514.352.136 5.76-2.622 12.616-6.434l11.999-6.671.11-70.211.11-70.212 15.738-8.981 15.737-8.981.11-16.335.109-16.335-1.569.654c-.863.359-7.901 4.292-15.641 8.738-7.74 4.447-14.168 8.085-14.284 8.085-.117 0-.212-7.788-.212-17.307v-17.308h43.79v-25.44h-69.23v74.89l-9.905 5.663-9.904 5.663-.107-43.108-.106-43.108h-105.52l1.096 1.736c.603.954 5.028 6.678 9.835 12.72l8.74 10.984h12.87v102.534l-31.8 18.133-31.8 18.133-.106-82.12-.105-82.12h-25.438v210.61l1.147-.001c.747 0 16.29-8.565 44.52-24.533l43.373-24.533.209 48.986.208 48.986 11.886 6.82c6.537 3.751 12.167 6.774 12.511 6.716Zm3.024-160.849-2.189 1.252V181.416h22.52l-.009 37.847-.01 37.847-9.061 5.117a4455.748 4455.748 0 0 0-11.251 6.368Z"/><path fill="#0AB9D8" d="M250.289 87.997H72.001V0h356.577v87.997H250.289ZM200.12 66.296c.39.008 1.202-.21 1.803-.484.602-.274 1.361-1.015 1.688-1.647.44-.85.595-2.837.595-7.634v-6.485h14.179v7.09c0 6.503.068 7.158.824 7.913.453.453 1.301.943 1.884 1.09.584.146 1.63.03 2.325-.257.694-.288 1.544-1.067 1.888-1.733.529-1.023.606-3.483.502-15.893l-.124-14.684-1.178-2.548c-.655-1.417-2.044-3.398-3.128-4.463-1.073-1.052-3.076-2.434-4.452-3.07-2.079-.96-3.068-1.155-5.839-1.152-2.773.003-3.775.204-5.937 1.19-1.597.728-3.311 1.945-4.444 3.157-1.015 1.084-2.214 2.702-2.666 3.595-.452.893-1.032 2.618-1.29 3.833-.293 1.383-.463 7.236-.454 15.64.012 10.344.142 13.658.568 14.426.303.548 1.001 1.245 1.549 1.549.548.303 1.316.559 1.707.567Zm11.175-24.174h-7.089v-4.184c0-2.57.217-4.704.563-5.532.31-.742 1.244-1.947 2.076-2.677.832-.73 2.174-1.453 2.982-1.604.807-.152 2.129-.152 2.937 0 .808.151 2.149.873 2.981 1.604.832.73 1.767 1.935 2.077 2.677.346.828.563 2.962.563 5.532v4.184h-7.09Zm30.153 24.174c.413.008 1.268-.253 1.9-.58.632-.326 1.373-1.086 1.647-1.687.318-.697.498-3.43.498-7.539v-6.444h7.279c4.755 0 7.658-.173 8.372-.498.602-.275 1.361-1.016 1.688-1.648.327-.632.594-1.431.594-1.776s-.224-1.119-.498-1.72-1.015-1.361-1.647-1.688c-.867-.448-2.95-.594-8.469-.594h-7.319v-3.65c0-2.883.173-3.929.816-4.984.448-.734 1.376-1.625 2.063-1.98.986-.51 2.759-.646 8.382-.646 5.356 0 7.417-.148 8.28-.595.632-.327 1.374-1.086 1.648-1.688.274-.601.498-1.45.498-1.888 0-.437-.224-1.287-.498-1.888-.274-.602-1.016-1.361-1.648-1.688-.859-.444-2.895-.594-8.068-.594-5.898 0-7.321.13-9.639.878-1.496.483-3.504 1.477-4.463 2.208-.958.732-2.269 2.113-2.912 3.071-.649.966-1.436 3-1.769 4.57-.452 2.13-.597 6.164-.592 16.38.006 10.46.134 13.782.56 14.552.304.548 1.001 1.245 1.55 1.549.548.303 1.334.559 1.747.567Zm36.66 0c.39.008 1.202-.21 1.803-.484.602-.274 1.361-1.015 1.688-1.647.44-.85.595-2.837.595-7.634v-6.485h14.179v7.09c0 6.503.068 7.158.824 7.913.453.453 1.301.943 1.885 1.09.583.146 1.629.03 2.324-.257.694-.288 1.544-1.067 1.888-1.733.529-1.023.606-3.483.502-15.893l-.124-14.684-1.178-2.548c-.655-1.417-2.044-3.398-3.128-4.463-1.073-1.052-3.076-2.434-4.452-3.07-2.079-.96-3.068-1.155-5.839-1.152-2.773.003-3.775.204-5.937 1.19-1.597.728-3.31 1.945-4.444 3.157-1.015 1.084-2.214 2.702-2.666 3.595-.452.893-1.032 2.618-1.29 3.833-.293 1.383-.463 7.236-.454 15.64.012 10.344.142 13.658.568 14.426.304.548 1.001 1.245 1.549 1.549.548.303 1.316.559 1.707.567Zm11.175-24.174h-7.089v-4.184c0-2.57.217-4.704.563-5.532.31-.742 1.244-1.947 2.076-2.677.832-.73 2.174-1.453 2.982-1.604.808-.152 2.129-.152 2.937 0 .808.151 2.149.873 2.981 1.604.833.73 1.767 1.935 2.077 2.677.346.828.563 2.962.563 5.532v4.184h-7.09ZM133.099 56.719h51.922V32.53H81.176v24.189H133.1Zm234.381 0h51.922V32.53H315.557v24.189h51.923Z"/><path fill="#DAA813" d="M250.709 500c-.46-.023-40.811-23.069-89.668-51.215L72.21 397.61l-.105-147.925L72 101.76h355.745l-.105 148.556-.105 148.556-87.995 50.584c-48.397 27.822-88.371 50.566-88.831 50.544Zm-.415-32.075c.461 0 34.711-19.383 76.111-43.076l75.273-43.08.105-126.659.105-126.659H98.691l.105 126.655.105 126.655 75.277 43.081c41.402 23.694 75.655 43.081 76.116 43.083Z"/><path fill="#004A79" d="M238.403 429.444c-.344.058-5.974-2.965-12.511-6.716l-11.886-6.82-.208-48.986-.209-48.987-43.373 24.534c-28.23 15.968-43.773 24.533-44.52 24.533h-1.147V156.393h25.438l.105 82.12.106 82.119 31.8-18.132 31.8-18.133V181.833h-12.87l-8.74-10.984c-4.807-6.042-9.232-11.766-9.835-12.72l-1.096-1.736h105.52l.106 43.108.107 43.108 9.905-5.663 9.904-5.663v-74.89h69.23v25.44h-43.79v17.308c0 9.519.096 17.307.212 17.307.116 0 6.544-3.638 14.284-8.085 7.74-4.446 14.778-8.379 15.641-8.738l1.569-.654-.109 16.335-.109 16.335-15.738 8.981-15.738 8.981-.11 70.212-.11 70.211-11.999 6.671c-6.856 3.811-12.264 6.569-12.616 6.434-.541-.207-.617-8.773-.617-69.514 0-48.081-.133-69.233-.436-69.132-.241.08-15.436 8.681-33.768 19.114l-33.33 18.969-.118 63.386c-.104 55.957-.191 63.398-.744 63.49Zm3.024-160.849c1.204-.689 6.267-3.554 11.251-6.368l9.061-5.117.01-37.847.009-37.847h-22.52V269.847l2.189-1.252Z"/></svg>
