<svg width="500" height="500" viewBox="0 0 500 500" fill="none" xmlns="http://www.w3.org/2000/svg">
<g clip-path="url(#clip0_1175_6767)">
<path d="M156.025 100.157L161.503 106.278L159.328 113.944L153.917 108.095L156.025 100.157Z" fill="#921E30"/>
<path d="M370.978 28.6473C360.534 28.6473 357.666 41.6191 357.666 41.6191C357.666 41.6191 354.486 36.1245 348.028 36.1245C340.652 36.1245 336.305 41.1469 336.305 47.7052C336.305 54.2635 342.324 57.4311 343.651 58.7658C347.13 63.0323 343.437 65.2125 340.172 63.5433C337.946 62.9116 316.164 57.1933 313.136 57.1933C308.031 56.8044 309.114 53.43 312.172 53.43C313.571 53.5104 314.696 53.6128 315.482 53.6128C320.927 53.6128 324.458 49.5664 324.458 45.6485C324.458 37.3328 317.308 36.2762 317.308 36.2762C317.308 36.2762 318.944 34.1532 318.944 31.9335C318.944 26.8877 314.936 22.1977 309.282 22.1977C299.549 22.1977 299.856 32.5482 299.856 32.5482C299.856 32.5482 298.533 32.1664 298.11 32.1664C295.403 32.1664 289.265 34.8682 289.265 40.9995C289.265 46.2259 293.741 49.1655 295.963 49.5664C299.065 50.5997 300.176 53.6127 295.963 54.0165C294.052 53.6981 264.631 51.3994 262.333 51.3994C257.957 51.3994 256.959 44.2023 263.895 44.2645C270.637 44.2645 277.017 39.0762 277.017 31.534C277.236 18.7859 263.995 17.9876 263.995 17.9876C263.995 17.9876 264.871 15.1715 264.871 13.5022C264.871 5.28393 257.156 0.000339237 250.477 0.000339237C243.8 0.000339237 236.095 5.28393 236.095 13.5022C236.095 15.1715 236.961 17.9876 236.961 17.9876C236.961 17.9876 223.721 18.7859 223.937 31.534C223.937 39.0762 230.324 44.2645 237.058 44.2645C243.992 44.2023 243.009 51.3994 238.63 51.3994C236.335 51.3994 206.899 53.6981 204.993 54.0165C200.785 53.6127 201.897 50.5997 204.993 49.5664C207.223 49.1655 211.684 46.2259 211.684 40.9995C211.684 34.8682 205.548 32.1664 202.846 32.1664C202.424 32.1664 201.096 32.5482 201.096 32.5482C201.096 32.5482 201.414 22.1977 191.677 22.1977C186.03 22.1977 182.019 26.8877 182.019 31.9335C182.019 34.1532 183.648 36.2762 183.648 36.2762C183.648 36.2762 176.503 37.3328 176.503 45.6485C176.503 49.5664 180.03 53.6128 185.478 53.6128C186.265 53.6128 187.381 53.5104 188.777 53.43C191.847 53.43 192.93 56.8044 187.812 57.1933C184.795 57.1933 163.004 62.9116 160.784 63.5433C157.516 65.2125 153.836 63.0323 157.305 58.7658C158.642 57.4311 164.657 54.2635 164.657 47.7052C164.657 41.1469 160.301 36.1245 152.921 36.1245C146.465 36.1245 143.288 41.6191 143.288 41.6191C143.288 41.6191 140.422 28.6473 129.981 28.6473C121.501 28.6473 116.888 31.1359 116.888 31.1359C116.888 31.1359 121.986 39.4135 127.822 48.8684C128.927 48.0616 130.278 47.5817 131.752 47.5817C135.443 47.5817 138.439 50.5665 138.439 54.2515C138.439 56.8326 136.962 59.0763 134.806 60.1781C139.819 68.2898 144.06 75.1544 144.601 75.9979C148.353 80.5284 152.456 79.2699 156.011 78.5952C180.098 68.9857 226.62 63.94 250.477 64.5378C274.331 63.94 320.851 68.9857 344.95 78.5952C348.498 79.2699 352.594 80.5284 356.353 75.9979C356.903 75.1544 361.144 68.2898 366.147 60.1781C363.997 59.0763 362.524 56.8326 362.524 54.2515C362.524 50.5665 365.509 47.5817 369.203 47.5817C370.68 47.5817 372.031 48.0616 373.138 48.8684C378.956 39.4135 384.061 31.1359 384.061 31.1359C384.061 31.1359 379.454 28.6473 370.978 28.6473ZM193.467 46.7079C190.166 46.7079 187.497 44.0386 187.497 40.7503C187.497 37.4542 190.166 34.7927 193.467 34.7927C196.756 34.7927 199.429 37.4542 199.429 40.7503C199.429 44.0386 196.756 46.7079 193.467 46.7079ZM250.477 37.2213C246.167 37.2213 242.669 33.7332 242.669 29.4208C242.669 25.1091 246.167 21.6161 250.477 21.6161C254.789 21.6161 258.296 25.1091 258.296 29.4208C258.296 33.7332 254.789 37.2213 250.477 37.2213ZM301.524 40.7503C301.524 37.4542 304.198 34.7927 307.494 34.7927C310.783 34.7927 313.456 37.4542 313.456 40.7503C313.456 44.0386 310.783 46.7079 307.494 46.7079C304.198 46.7079 301.524 44.0386 301.524 40.7503Z" fill="#998235"/>
<path d="M207.38 96.2483C207.38 99.4018 204.825 101.964 201.648 101.964C198.495 101.964 195.933 99.4018 195.933 96.2483C195.933 93.0878 198.495 90.5278 201.648 90.5278C204.825 90.5278 207.38 93.0878 207.38 96.2483Z" fill="#998235"/>
<path d="M250.478 72.7322C277.033 72.7322 322.104 77.8393 347.813 87.983C346.852 92.4359 346.198 94.9267 345.27 98.6265C323.315 89.2563 276.247 83.5337 250.478 83.5337C224.72 83.5337 177.637 89.2563 155.697 98.6265C154.768 94.9267 154.101 92.4359 153.149 87.983C178.848 77.8393 223.919 72.7322 250.478 72.7322Z" fill="#998235"/>
<path d="M250.478 101.172C273.226 101.172 319.026 106.412 341.293 115.625C340.568 118.622 339.379 124.041 338.583 126.748C322.049 119.28 275.451 111.812 250.478 111.812C225.515 111.812 178.915 119.28 162.374 126.748C161.583 124.041 160.398 118.622 159.669 115.625C181.935 106.412 227.74 101.172 250.478 101.172Z" fill="#998235"/>
<path d="M293.582 96.2483C293.582 99.4018 296.146 101.964 299.305 101.964C302.462 101.964 305.032 99.4018 305.032 96.2483C305.032 93.0878 302.462 90.5278 299.305 90.5278C296.146 90.5278 293.582 93.0878 293.582 96.2483Z" fill="#998235"/>
<path d="M250.477 85.2843L258.304 92.5124L250.477 99.4624L242.646 92.5124L250.477 85.2843Z" fill="#921E30"/>
<path d="M344.879 100.383L339.396 106.505L341.576 114.174L346.987 108.321L344.879 100.383Z" fill="#921E30"/>
<path d="M335.132 149.497C334.445 141.157 327.536 134.578 319.144 134.578C312.795 134.578 307.31 138.346 304.702 143.796C298.872 142.739 284.559 140.977 274.586 140.056L265.435 138.636C265.384 138.506 265.351 138.367 265.29 138.233C265.19 137.993 265.079 137.76 264.969 137.518C264.881 137.326 264.787 137.124 264.691 136.938C264.575 136.708 264.451 136.482 264.317 136.259C264.212 136.071 264.108 135.879 263.981 135.697C263.849 135.483 263.718 135.276 263.571 135.072C263.445 134.877 263.3 134.687 263.162 134.505C263.022 134.317 262.88 134.124 262.73 133.948C262.457 133.614 262.16 133.293 261.863 132.975C261.718 132.833 261.567 132.702 261.431 132.567C261.236 132.377 261.03 132.184 260.819 132.004C260.664 131.866 260.498 131.736 260.329 131.607C260.128 131.437 259.905 131.271 259.684 131.113C259.529 130.995 259.353 130.881 259.19 130.767C258.936 130.603 258.681 130.446 258.432 130.297C258.28 130.206 258.13 130.119 257.976 130.031C257.566 129.808 257.143 129.609 256.718 129.42C256.635 129.38 256.539 129.357 256.464 129.318C256.098 129.171 255.73 129.031 255.369 128.91C255.203 128.855 255.049 128.817 254.882 128.772C254.583 128.678 254.258 128.592 253.947 128.523C253.768 128.48 253.588 128.447 253.415 128.409C253.08 128.349 252.762 128.295 252.413 128.259C252.256 128.238 252.101 128.21 251.952 128.198C251.439 128.145 250.948 128.121 250.444 128.121C249.926 128.121 249.433 128.145 248.934 128.198C248.78 128.21 248.618 128.238 248.464 128.259C248.124 128.295 247.794 128.349 247.462 128.409C247.286 128.447 247.108 128.48 246.939 128.523C246.614 128.592 246.303 128.678 245.997 128.772C245.828 128.817 245.676 128.855 245.508 128.91C245.144 129.031 244.779 129.171 244.415 129.318C244.335 129.357 244.242 129.38 244.152 129.42C243.733 129.609 243.313 129.808 242.91 130.031C242.746 130.114 242.608 130.206 242.454 130.297C242.195 130.446 241.943 130.603 241.694 130.767C241.53 130.881 241.352 130.995 241.186 131.113C240.974 131.271 240.753 131.441 240.542 131.607C240.377 131.736 240.212 131.866 240.067 131.997C239.844 132.192 239.643 132.379 239.441 132.569C239.3 132.712 239.158 132.838 239.018 132.975C238.717 133.293 238.424 133.614 238.146 133.948C237.997 134.124 237.869 134.312 237.733 134.497C237.582 134.682 237.441 134.872 237.304 135.074C237.163 135.276 237.03 135.478 236.905 135.687C236.776 135.879 236.665 136.074 236.546 136.271C236.432 136.487 236.306 136.708 236.192 136.929C236.09 137.126 236 137.335 235.907 137.539C235.807 137.772 235.684 138 235.586 138.228C235.539 138.365 235.492 138.498 235.444 138.636L226.281 140.056C216.322 140.977 202.014 142.739 196.177 143.796C193.574 138.346 188.087 134.578 181.728 134.578C173.341 134.578 166.436 141.157 165.744 149.497L66 176.869L67.2415 186.136C76.0724 252.189 101.573 317.208 143.049 379.395C180.871 436.108 222.294 475.595 243.625 494.09L250.43 500H250.444L257.259 494.09C278.592 475.595 320.003 436.108 357.828 379.395C399.302 317.208 424.818 252.189 433.637 186.136L434.87 176.869L335.132 149.497Z" fill="#998235"/>
<path d="M250.445 485.99C302.886 440.509 403.595 331.715 423.235 184.71C405.996 179.977 332.566 159.834 332.566 159.834C330.524 162.961 327.466 165.35 323.858 166.475V208.916C330.414 210.968 335.211 217.179 335.211 224.507C335.211 231.837 330.414 238.051 323.858 240.089V255.426C323.858 261.208 321.384 281.989 318.283 289.572C318.269 289.603 318.174 289.812 318.05 290.122C320.983 293.086 322.795 297.172 322.795 301.692C322.795 310.6 315.716 317.854 306.956 317.973L306.686 318.737C301.856 330.494 279.543 359.01 265.948 366.94C266.096 367.501 266.216 368.071 266.312 368.66C266.335 368.833 266.354 368.988 266.373 369.169C266.404 369.377 266.423 369.572 266.437 369.774C266.466 370.227 266.499 370.659 266.499 371.112C266.499 380.098 259.297 387.411 250.445 387.411V485.99Z" fill="#202C4C"/>
<path d="M250.445 387.412C241.583 387.412 234.367 380.099 234.367 371.113C234.367 370.66 234.405 370.221 234.443 369.782C234.457 369.573 234.481 369.373 234.498 369.167C234.526 368.988 234.555 368.832 234.573 368.658C234.664 368.067 234.78 367.502 234.923 366.937C221.338 359.01 199.034 330.495 194.195 318.738L193.912 317.974C185.16 317.853 178.076 310.598 178.076 301.689C178.076 297.168 179.897 293.089 182.83 290.123C182.702 289.812 182.617 289.606 182.597 289.572C179.496 281.99 177.027 261.208 177.027 255.429V240.089C170.461 238.052 165.669 231.838 165.669 224.507C165.669 217.18 170.461 210.968 177.027 208.914V166.474C173.42 165.346 170.357 162.962 168.314 159.832C168.314 159.832 94.8797 179.978 77.6406 184.71C97.2851 331.713 197.989 440.51 250.445 485.991V387.412Z" fill="#921E30"/>
<path d="M240.816 358.054C243.499 356.012 246.84 354.801 250.445 354.801C254.027 354.801 257.34 356 260.028 358.033L260.061 358.054C270.711 352.579 292.664 325.178 297 314.634C293.167 311.632 290.674 306.954 290.674 301.69C290.674 292.693 297.883 285.374 306.738 285.374C307.367 285.374 307.984 285.424 308.578 285.496C310.917 279.811 313.36 260.63 313.36 255.424V239.698C307.353 237.34 303.081 231.427 303.081 224.51C303.081 217.586 307.353 211.676 313.36 209.308V166.097C308.395 164.124 304.639 159.757 303.476 154.407C296.435 153.016 270.825 150.102 265.492 150.102C265.482 150.119 265.459 150.148 265.449 150.173L265.502 150.095C263.234 156.304 257.335 160.733 250.445 160.733C243.546 160.733 237.658 156.311 235.385 150.102L235.425 150.173C235.421 150.148 235.397 150.119 235.385 150.102C230.057 150.102 204.452 153.016 197.417 154.407C196.239 159.757 192.487 164.124 187.526 166.097V209.308C193.527 211.676 197.792 217.586 197.792 224.51C197.792 231.427 193.527 237.34 187.526 239.698V255.424C187.526 260.63 189.97 279.811 192.295 285.496C192.902 285.424 193.513 285.374 194.145 285.374C203.002 285.374 210.204 292.693 210.204 301.69C210.204 306.954 207.715 311.632 203.883 314.634C208.218 325.178 230.159 352.579 240.816 358.054Z" fill="white"/>
<path d="M191.122 150.883C191.122 156.147 186.914 160.409 181.728 160.409C176.549 160.409 172.352 156.147 172.352 150.883C172.352 145.623 176.549 141.358 181.728 141.358C186.914 141.358 191.122 145.623 191.122 150.883Z" fill="white"/>
<path d="M191.122 224.507C191.122 229.772 186.914 234.034 181.728 234.034C176.549 234.034 172.352 229.772 172.352 224.507C172.352 219.246 176.549 214.978 181.728 214.978C186.914 214.978 191.122 219.246 191.122 224.507Z" fill="white"/>
<path d="M203.52 301.69C203.52 306.947 199.322 311.216 194.145 311.216C188.953 311.216 184.754 306.947 184.754 301.69C184.754 296.428 188.953 292.161 194.145 292.161C199.322 292.161 203.52 296.428 203.52 301.69Z" fill="white"/>
<path d="M309.769 150.883C309.769 156.147 313.962 160.409 319.144 160.409C324.327 160.409 328.525 156.147 328.525 150.883C328.525 145.623 324.327 141.358 319.144 141.358C313.962 141.358 309.769 145.623 309.769 150.883Z" fill="white"/>
<path d="M241.055 144.428C241.055 149.693 245.258 153.95 250.448 153.95C255.622 153.95 259.83 149.693 259.83 144.428C259.83 139.167 255.622 134.896 250.448 134.896C245.258 134.896 241.055 139.167 241.055 144.428Z" fill="white"/>
<path d="M241.055 371.112C241.055 376.37 245.258 380.63 250.448 380.63C255.622 380.63 259.83 376.37 259.83 371.112C259.83 365.85 255.622 361.591 250.448 361.591C245.258 361.591 241.055 365.85 241.055 371.112Z" fill="white"/>
<path d="M309.769 224.507C309.769 229.772 313.962 234.034 319.144 234.034C324.327 234.034 328.525 229.772 328.525 224.507C328.525 219.246 324.327 214.978 319.144 214.978C313.962 214.978 309.769 219.246 309.769 224.507Z" fill="white"/>
<path d="M297.356 301.69C297.356 306.947 301.56 311.216 306.741 311.216C311.915 311.216 316.122 306.947 316.122 301.69C316.122 296.428 311.915 292.161 306.741 292.161C301.56 292.161 297.356 296.428 297.356 301.69Z" fill="white"/>
<path d="M147.586 242.144V249.172H133.99C122.068 249.172 111.807 237.42 111.807 224.705C111.807 211.873 121.708 200.857 133.99 200.857H147.586V207.634H133.99C125.878 207.634 118.608 215.995 118.608 224.705C118.608 233.189 125.772 242.165 133.99 242.165C140.667 242.165 147.586 242.144 147.586 242.144Z" fill="white"/>
<path d="M389.231 218.497V249.13H382.713V238.949H358.538V249.13H352.297V218.497C352.297 209.17 360.123 199.648 370.866 199.648C382.292 199.648 389.231 209.25 389.231 218.497ZM370.866 206.541C363.711 206.541 358.538 211.832 358.538 219.423V232.176H382.713V219.423C382.713 211.912 378.184 206.541 370.866 206.541Z" fill="white"/>
<path d="M250.921 406.516C264.175 406.516 274.963 417.468 274.963 430.931C274.963 444.382 264.175 455.336 250.921 455.336C237.657 455.336 226.879 444.382 226.879 430.931C226.879 417.468 237.657 406.516 250.921 406.516ZM250.921 413.773C241.586 413.773 234.014 421.459 234.014 430.931C234.014 440.391 241.586 448.089 250.921 448.089C260.245 448.089 267.818 440.391 267.818 430.931C267.818 421.459 260.245 413.773 250.921 413.773Z" fill="white"/>
<path d="M225.175 220.365C224.332 220.365 223.128 219.437 223.128 219.133V218.207C223.245 217.226 226.737 216.433 227.26 216.568C227.336 216.638 227.523 216.633 227.523 217.442C227.523 218.14 226.822 220.365 225.175 220.365ZM250.656 235.816L251.637 235.097V226.831C251.637 223.675 249.763 221.79 249.763 221.79C249.763 221.79 244.515 215.928 243.266 214.543C241.932 213.189 240.821 212.624 238.956 212.624V211.335C238.956 210.324 238.731 209.958 237.611 209.958H232.443C231.678 210.065 231.152 210.064 230.579 208.531C230.005 207.243 228.447 207.529 227.566 208.426C226.075 209.597 215.781 221.325 215.446 221.671C214.618 222.51 214.637 223.878 215.446 225.06C215.587 225.3 217.441 228.503 217.441 228.503C217.441 228.503 221.043 225.73 221.288 225.487C222.434 224.732 224.503 226.068 224.503 226.068L218.844 230.607C218.844 230.607 219.037 232.081 220.291 232.081H225.452L227.288 235.755L230.696 235.715V228.769H232.762V221.995H233.139H234.348H235.564V231.613H233.498V238.716H225.664L218.025 246.122H224.503L221.637 252.288L229.962 252.317L229.886 258.011L236.081 250.671L242.675 255.701V247.086H251.998L248.177 240.134H253.745L250.656 235.816Z" fill="#998235"/>
<path d="M217.116 192.363C217.116 192.363 218.482 194.811 218.559 194.947C218.928 195.443 219.324 195.51 219.7 195.469C219.794 195.94 219.996 196.887 220.222 197.919L219.958 199.19L220.666 199.969C220.858 200.866 221.018 201.588 221.065 201.793C221.103 201.978 221.145 202.149 221.179 202.275C223.616 201.061 230.482 199.841 234.167 199.841C237.843 199.841 244.715 201.061 247.149 202.275C247.215 202.046 247.285 201.698 247.361 201.349C247.398 201.17 247.518 200.646 247.657 199.981L248.372 199.19L248.108 197.848C248.32 196.884 248.51 195.97 248.612 195.467C248.995 195.512 249.393 195.448 249.77 194.947C249.847 194.811 251.212 192.363 251.212 192.363L252.243 190.516L253.857 187.621C253.857 187.621 253.178 187.215 251.927 187.215C250.383 187.215 249.958 189.331 249.958 189.331C249.958 189.331 249.493 188.436 248.543 188.436C247.455 188.436 246.815 189.257 246.815 190.328C246.815 191.401 247.7 191.915 247.892 192.133C248.405 192.829 247.869 193.187 247.384 192.914C247.054 192.809 243.846 191.874 243.397 191.874C242.65 191.815 242.808 191.262 243.257 191.262C243.464 191.278 243.628 191.293 243.746 191.293C244.552 191.293 245.069 190.632 245.069 189.993C245.069 188.633 244.015 188.46 244.015 188.46C244.015 188.46 244.255 188.118 244.255 187.752C244.255 186.928 243.666 186.163 242.832 186.163C241.398 186.163 241.441 187.854 241.441 187.854C241.441 187.854 241.246 187.793 241.182 187.793C240.786 187.793 239.883 188.232 239.883 189.231C239.883 190.088 240.536 190.566 240.871 190.632C241.327 190.801 241.491 191.293 240.871 191.359C240.588 191.307 236.247 190.931 235.911 190.931C235.269 190.931 235.124 189.756 236.141 189.763C237.138 189.763 238.078 188.92 238.078 187.69C238.107 185.605 236.155 185.475 236.155 185.475C236.155 185.475 236.286 185.014 236.286 184.741C236.286 183.399 235.148 182.537 234.167 182.537C233.18 182.537 232.045 183.399 232.045 184.741C232.045 185.014 232.173 185.475 232.173 185.475C232.173 185.475 230.223 185.605 230.252 187.69C230.252 188.92 231.195 189.763 232.188 189.763C233.208 189.756 233.061 190.931 232.418 190.931C232.083 190.931 227.745 191.307 227.462 191.359C226.84 191.293 226.999 190.801 227.462 190.632C227.79 190.566 228.45 190.088 228.45 189.231C228.45 188.232 227.541 187.793 227.146 187.793C227.08 187.793 226.887 187.854 226.887 187.854C226.887 187.854 226.935 186.163 225.494 186.163C224.664 186.163 224.074 186.928 224.074 187.752C224.074 188.118 224.313 188.46 224.313 188.46C224.313 188.46 223.263 188.633 223.263 189.993C223.263 190.632 223.782 191.293 224.582 191.293C224.698 191.293 224.864 191.278 225.071 191.262C225.522 191.262 225.681 191.815 224.933 191.874C224.482 191.874 221.272 192.809 220.946 192.914C220.462 193.187 219.921 192.829 220.428 192.133C220.628 191.915 221.516 191.401 221.516 190.328C221.516 189.257 220.872 188.436 219.785 188.436C218.833 188.436 218.363 189.331 218.363 189.331C218.363 189.331 217.945 187.215 216.406 187.215C215.152 187.215 214.476 187.621 214.476 187.621L216.09 190.516L217.116 192.363Z" fill="#998235"/>
<path d="M276.444 219.137C277.871 219.137 279.33 219.502 280.225 220.742C281.179 226.555 286.595 229.034 286.595 229.034L287.966 227.642C287.966 227.642 289.576 229.278 293.802 229.278C293.802 224.614 291.1 222.045 289.454 220.678C287.4 218.88 284.859 216.935 283.397 216.273C281.429 215.033 279.18 214.87 277.423 214.87C271.85 214.87 268.844 218.529 268.844 222.618C268.844 227.493 273.253 230.003 274.93 231.696C279.716 236.148 280.585 237.416 280.585 239.622C280.585 241.683 279.598 242.811 278.303 242.811H252.583L256.278 249.795H245.495V261.244L236.381 254.463L228.752 262.821C228.752 262.821 227.325 280.507 227.265 280.853C227.265 282.1 226.432 282.613 225.536 282.613H221.185C221.185 282.613 219.646 285.55 219.579 285.65C219.178 286.713 219.1 289.155 219.1 289.155H232.15C232.15 289.155 242.025 271.146 243.287 269.719C244.695 268.128 245.433 267.57 245.433 267.57C245.433 267.57 250.738 263.51 257.88 263.51C261.584 263.51 265.92 264.367 269.314 266.435C271.786 267.938 273.104 269.244 274.383 270.877C276.727 273.867 277.589 278.481 277.895 282.373H275.217C273.79 282.373 272.242 283.309 271.94 284.555C271.818 285.039 270.751 289.155 270.751 289.155H285.047L287.911 282.373L285.228 267.48C285.228 267.48 277.537 259.668 277.537 252.644V252.043C284.183 250.975 286.064 246.346 286.064 241.562C286.064 237.233 285.363 234.502 280.877 229.945C278.581 227.611 273.339 225.189 273.339 222.28C273.339 221.342 274.148 219.137 276.444 219.137Z" fill="#998235"/>
<path d="M227.382 263.22V254.768H214.875C212.904 254.768 210.677 256.35 210.404 257.683C210.131 258.454 207.369 266.335 207.369 266.335C207.369 266.335 207.067 267.975 207.067 268.462C207.067 274.94 212.669 275.534 212.669 275.534C212.669 275.534 215.143 267.38 215.172 267.183C215.685 265.976 217.198 264.732 218.271 264.732H225.89C227.028 264.732 227.382 264.302 227.382 263.22Z" fill="#998235"/>
<path d="M255.18 266.582L256.512 270.873C256.512 270.873 256.752 271.357 256.752 272.208C256.752 274.715 254.729 280.437 253.593 282.373H247.22C246.002 282.373 244.421 285.916 244.421 289.157H257.763L268.905 276.444C268.905 276.444 270.132 270.616 270.156 270.479C268.133 268.423 262.206 265.95 255.18 266.582Z" fill="#998235"/>
</g>
<defs>
<clipPath id="clip0_1175_6767">
<rect width="500" height="500" fill="white"/>
</clipPath>
</defs>
</svg>
