<svg width="500" height="500" viewBox="0 0 500 500" fill="none" xmlns="http://www.w3.org/2000/svg">
<g clip-path="url(#clip0_1175_6846)">
<path d="M156.025 100.157L161.504 106.278L159.328 113.944L153.917 108.095L156.025 100.157Z" fill="white"/>
<path d="M370.978 28.6473C360.534 28.6473 357.666 41.6191 357.666 41.6191C357.666 41.6191 354.486 36.1245 348.028 36.1245C340.653 36.1245 336.305 41.1469 336.305 47.7052C336.305 54.2635 342.324 57.4311 343.652 58.7658C347.131 63.0323 343.438 65.2125 340.173 63.5433C337.946 62.9116 316.164 57.1933 313.136 57.1933C308.031 56.8044 309.114 53.43 312.172 53.43C313.571 53.5104 314.696 53.6128 315.483 53.6128C320.928 53.6128 324.458 49.5664 324.458 45.6485C324.458 37.3328 317.308 36.2762 317.308 36.2762C317.308 36.2762 318.945 34.1532 318.945 31.9335C318.945 26.8877 314.936 22.1977 309.283 22.1977C299.549 22.1977 299.856 32.5482 299.856 32.5482C299.856 32.5482 298.534 32.1664 298.111 32.1664C295.403 32.1664 289.266 34.8682 289.266 40.9995C289.266 46.2259 293.741 49.1655 295.964 49.5664C299.065 50.5997 300.177 53.6127 295.964 54.0165C294.052 53.6981 264.632 51.3994 262.333 51.3994C257.957 51.3994 256.96 44.2023 263.896 44.2645C270.638 44.2645 277.017 39.0762 277.017 31.534C277.236 18.7859 263.995 17.9876 263.995 17.9876C263.995 17.9876 264.872 15.1715 264.872 13.5022C264.872 5.28393 257.157 0.000339237 250.477 0.000339237C243.8 0.000339237 236.095 5.28393 236.095 13.5022C236.095 15.1715 236.962 17.9876 236.962 17.9876C236.962 17.9876 223.721 18.7859 223.937 31.534C223.937 39.0762 230.325 44.2645 237.059 44.2645C243.992 44.2023 243.01 51.3994 238.63 51.3994C236.335 51.3994 206.9 53.6981 204.993 54.0165C200.785 53.6127 201.897 50.5997 204.993 49.5664C207.223 49.1655 211.684 46.2259 211.684 40.9995C211.684 34.8682 205.549 32.1664 202.846 32.1664C202.424 32.1664 201.097 32.5482 201.097 32.5482C201.097 32.5482 201.414 22.1977 191.677 22.1977C186.03 22.1977 182.02 26.8877 182.02 31.9335C182.02 34.1532 183.649 36.2762 183.649 36.2762C183.649 36.2762 176.504 37.3328 176.504 45.6485C176.504 49.5664 180.03 53.6128 185.479 53.6128C186.265 53.6128 187.382 53.5104 188.778 53.43C191.848 53.43 192.931 56.8044 187.813 57.1933C184.796 57.1933 163.004 62.9116 160.784 63.5433C157.517 65.2125 153.836 63.0323 157.305 58.7658C158.642 57.4311 164.657 54.2635 164.657 47.7052C164.657 41.1469 160.302 36.1245 152.922 36.1245C146.466 36.1245 143.288 41.6191 143.288 41.6191C143.288 41.6191 140.422 28.6473 129.981 28.6473C121.502 28.6473 116.889 31.1359 116.889 31.1359C116.889 31.1359 121.987 39.4135 127.823 48.8684C128.927 48.0616 130.278 47.5817 131.753 47.5817C135.443 47.5817 138.439 50.5665 138.439 54.2515C138.439 56.8326 136.963 59.0763 134.807 60.1781C139.819 68.2898 144.06 75.1544 144.602 75.9979C148.353 80.5284 152.457 79.2699 156.011 78.5952C180.099 68.9857 226.62 63.94 250.477 64.5378C274.332 63.94 320.852 68.9857 344.95 78.5952C348.498 79.2699 352.594 80.5284 356.353 75.9979C356.904 75.1544 361.145 68.2898 366.148 60.1781C363.997 59.0763 362.525 56.8326 362.525 54.2515C362.525 50.5665 365.51 47.5817 369.204 47.5817C370.681 47.5817 372.032 48.0616 373.139 48.8684C378.956 39.4135 384.061 31.1359 384.061 31.1359C384.061 31.1359 379.455 28.6473 370.978 28.6473ZM193.467 46.7079C190.167 46.7079 187.497 44.0386 187.497 40.7503C187.497 37.4542 190.167 34.7927 193.467 34.7927C196.756 34.7927 199.43 37.4542 199.43 40.7503C199.43 44.0386 196.756 46.7079 193.467 46.7079ZM250.477 37.2213C246.168 37.2213 242.67 33.7332 242.67 29.4208C242.67 25.1091 246.168 21.6161 250.477 21.6161C254.79 21.6161 258.297 25.1091 258.297 29.4208C258.297 33.7332 254.79 37.2213 250.477 37.2213ZM301.525 40.7503C301.525 37.4542 304.199 34.7927 307.494 34.7927C310.783 34.7927 313.457 37.4542 313.457 40.7503C313.457 44.0386 310.783 46.7079 307.494 46.7079C304.199 46.7079 301.525 44.0386 301.525 40.7503Z" fill="white"/>
<path d="M207.38 96.2483C207.38 99.4018 204.825 101.964 201.648 101.964C198.495 101.964 195.933 99.4018 195.933 96.2483C195.933 93.0878 198.495 90.5278 201.648 90.5278C204.825 90.5278 207.38 93.0878 207.38 96.2483Z" fill="white"/>
<path d="M250.478 72.7322C277.032 72.7322 322.104 77.8393 347.812 87.983C346.851 92.4359 346.198 94.9267 345.269 98.6265C323.314 89.2563 276.247 83.5337 250.478 83.5337C224.719 83.5337 177.637 89.2563 155.696 98.6265C154.768 94.9267 154.101 92.4359 153.148 87.983C178.848 77.8393 223.919 72.7322 250.478 72.7322Z" fill="white"/>
<path d="M250.478 101.172C273.226 101.172 319.026 106.412 341.293 115.625C340.568 118.622 339.379 124.041 338.583 126.748C322.049 119.28 275.451 111.812 250.478 111.812C225.515 111.812 178.915 119.28 162.374 126.748C161.583 124.041 160.398 118.622 159.669 115.625C181.935 106.412 227.74 101.172 250.478 101.172Z" fill="white"/>
<path d="M293.582 96.2483C293.582 99.4018 296.146 101.964 299.305 101.964C302.462 101.964 305.032 99.4018 305.032 96.2483C305.032 93.0878 302.462 90.5278 299.305 90.5278C296.146 90.5278 293.582 93.0878 293.582 96.2483Z" fill="white"/>
<path d="M250.477 85.2843L258.304 92.5124L250.477 99.4624L242.646 92.5124L250.477 85.2843Z" fill="white"/>
<path d="M344.879 100.383L339.396 106.505L341.576 114.174L346.987 108.321L344.879 100.383Z" fill="white"/>
<path d="M389.231 218.497V249.13H382.713V238.949H358.538V249.13H352.297V218.497C352.297 209.17 360.123 199.648 370.866 199.648C382.292 199.648 389.231 209.25 389.231 218.497ZM370.866 206.541C363.711 206.541 358.538 211.832 358.538 219.423V232.176H382.713V219.423C382.713 211.912 378.184 206.541 370.866 206.541Z" fill="white"/>
<path fill-rule="evenodd" clip-rule="evenodd" d="M319.144 134.578C327.536 134.578 334.445 141.158 335.132 149.497L434.87 176.869L433.637 186.136C424.818 252.189 399.302 317.208 357.828 379.395C320.003 436.109 278.592 475.595 257.259 494.09L250.444 500H250.43L243.625 494.09C222.294 475.595 180.871 436.109 143.049 379.395C101.573 317.208 76.0724 252.189 67.2415 186.136L66 176.869L165.744 149.497C166.436 141.158 173.341 134.578 181.728 134.578C188.087 134.578 193.574 138.346 196.177 143.796C202.014 142.739 216.322 140.978 226.281 140.056L235.444 138.637C235.47 138.563 235.495 138.491 235.52 138.419L235.52 138.418L235.539 138.365C235.555 138.32 235.57 138.274 235.586 138.228C235.635 138.115 235.69 138.001 235.745 137.887L235.745 137.887C235.801 137.772 235.857 137.656 235.907 137.539L235.962 137.417L235.963 137.415L235.964 137.413L235.964 137.413C236.038 137.25 236.111 137.086 236.192 136.929C236.256 136.806 236.323 136.683 236.39 136.561C236.443 136.464 236.496 136.367 236.546 136.271C236.574 136.224 236.602 136.177 236.63 136.13C236.719 135.981 236.807 135.833 236.905 135.687C237.03 135.478 237.163 135.276 237.304 135.074C237.441 134.873 237.582 134.683 237.733 134.497C237.766 134.453 237.797 134.409 237.829 134.365C237.931 134.223 238.033 134.083 238.146 133.949C238.424 133.614 238.717 133.294 239.018 132.975C239.077 132.918 239.136 132.862 239.196 132.806L239.196 132.805L239.196 132.805C239.278 132.729 239.36 132.652 239.441 132.57C239.643 132.379 239.844 132.192 240.067 131.997C240.212 131.867 240.377 131.736 240.542 131.608C240.753 131.442 240.974 131.271 241.186 131.113C241.281 131.046 241.38 130.979 241.478 130.914L241.479 130.913C241.552 130.864 241.624 130.816 241.694 130.767C241.943 130.603 242.195 130.446 242.454 130.297C242.505 130.267 242.554 130.237 242.603 130.207L242.603 130.207C242.702 130.146 242.8 130.086 242.91 130.031C243.313 129.808 243.733 129.609 244.152 129.42C244.195 129.401 244.239 129.385 244.282 129.37L244.282 129.37C244.328 129.354 244.373 129.338 244.415 129.319C244.779 129.171 245.144 129.031 245.508 128.91C245.644 128.866 245.771 128.832 245.904 128.797L245.997 128.772C246.303 128.678 246.614 128.592 246.939 128.523C247.054 128.494 247.174 128.469 247.295 128.444L247.295 128.444L247.295 128.444L247.295 128.444C247.351 128.432 247.407 128.421 247.462 128.409C247.794 128.35 248.124 128.295 248.464 128.259C248.507 128.253 248.552 128.247 248.597 128.24C248.709 128.223 248.824 128.206 248.934 128.198C249.433 128.146 249.926 128.122 250.444 128.122C250.948 128.122 251.439 128.146 251.952 128.198C252.053 128.206 252.156 128.221 252.261 128.237L252.262 128.237L252.262 128.237C252.312 128.245 252.362 128.252 252.413 128.259C252.762 128.295 253.08 128.35 253.415 128.409C253.482 128.424 253.55 128.438 253.619 128.452L253.619 128.452L253.619 128.452C253.728 128.474 253.838 128.497 253.947 128.523C254.258 128.592 254.583 128.678 254.882 128.772C254.919 128.782 254.956 128.792 254.992 128.802L254.992 128.802C255.118 128.835 255.24 128.868 255.369 128.91C255.73 129.031 256.098 129.171 256.464 129.319C256.502 129.338 256.546 129.353 256.59 129.369C256.633 129.385 256.677 129.4 256.718 129.42C257.143 129.609 257.566 129.808 257.976 130.031C258.13 130.119 258.28 130.206 258.432 130.297C258.681 130.446 258.936 130.603 259.19 130.767C259.241 130.803 259.294 130.839 259.347 130.875C259.462 130.953 259.578 131.032 259.684 131.113C259.905 131.271 260.128 131.437 260.329 131.608C260.498 131.736 260.664 131.867 260.819 132.004C261.03 132.184 261.236 132.377 261.431 132.567C261.501 132.637 261.576 132.706 261.652 132.776C261.722 132.841 261.793 132.907 261.863 132.975C262.16 133.294 262.457 133.614 262.73 133.949C262.873 134.117 263.01 134.301 263.144 134.481L263.162 134.505L263.18 134.528C263.312 134.704 263.45 134.886 263.57 135.072C263.718 135.276 263.849 135.483 263.981 135.697C264.096 135.862 264.192 136.035 264.287 136.206L264.287 136.207L264.288 136.208L264.288 136.209L264.289 136.209L264.317 136.259C264.451 136.482 264.575 136.708 264.691 136.938C264.787 137.124 264.881 137.326 264.969 137.518C265.002 137.589 265.034 137.659 265.066 137.729C265.143 137.897 265.22 138.063 265.29 138.233C265.327 138.314 265.353 138.396 265.38 138.477L265.38 138.477C265.397 138.531 265.415 138.585 265.435 138.637L274.586 140.056C284.559 140.978 298.872 142.739 304.702 143.796C307.31 138.346 312.795 134.578 319.144 134.578ZM423.235 184.71C403.595 331.715 302.886 440.509 250.445 485.99V455.332C250.604 455.335 250.762 455.336 250.921 455.336C264.175 455.336 274.964 444.382 274.964 430.931C274.964 417.468 264.175 406.516 250.921 406.516C250.762 406.516 250.604 406.518 250.445 406.521V387.412C259.297 387.412 266.499 380.098 266.499 371.113C266.499 370.735 266.476 370.372 266.452 369.999L266.447 369.924L266.437 369.774C266.423 369.572 266.404 369.377 266.373 369.169C266.369 369.13 266.365 369.092 266.361 369.054C266.355 369.002 266.349 368.951 266.343 368.9C266.333 368.821 266.323 368.743 266.312 368.661C266.216 368.071 266.096 367.501 265.948 366.941C279.543 359.01 301.856 330.495 306.686 318.737L306.956 317.973C315.716 317.855 322.795 310.6 322.795 301.692C322.795 297.173 320.983 293.086 318.05 290.122C318.172 289.817 318.266 289.61 318.282 289.573L318.283 289.572C321.384 281.989 323.858 261.208 323.858 255.426V240.089C330.414 238.051 335.211 231.838 335.211 224.507C335.211 217.18 330.414 210.968 323.858 208.916V166.476C327.466 165.351 330.524 162.962 332.566 159.834C332.566 159.834 405.996 179.978 423.235 184.71ZM250.445 413.779V406.521C237.4 406.779 226.879 417.629 226.879 430.931C226.879 444.221 237.4 455.073 250.445 455.332V448.083C250.603 448.087 250.762 448.089 250.921 448.089C260.245 448.089 267.818 440.391 267.818 430.931C267.818 421.459 260.245 413.773 250.921 413.773C250.762 413.773 250.603 413.775 250.445 413.779ZM250.445 413.779V448.083C241.33 447.826 234.014 440.23 234.014 430.931C234.014 421.62 241.33 414.035 250.445 413.779ZM191.122 150.883C191.122 156.147 186.914 160.409 181.728 160.409C176.549 160.409 172.352 156.147 172.352 150.883C172.352 145.623 176.549 141.358 181.728 141.358C186.914 141.358 191.122 145.623 191.122 150.883ZM181.728 234.034C186.914 234.034 191.122 229.772 191.122 224.507C191.122 219.246 186.914 214.978 181.728 214.978C176.549 214.978 172.352 219.246 172.352 224.507C172.352 229.772 176.549 234.034 181.728 234.034ZM203.52 301.69C203.52 306.947 199.322 311.216 194.145 311.216C188.953 311.216 184.754 306.947 184.754 301.69C184.754 296.428 188.953 292.161 194.145 292.161C199.322 292.161 203.52 296.428 203.52 301.69ZM319.144 160.409C313.962 160.409 309.769 156.147 309.769 150.883C309.769 145.623 313.962 141.358 319.144 141.358C324.327 141.358 328.525 145.623 328.525 150.883C328.525 156.147 324.327 160.409 319.144 160.409ZM241.055 144.428C241.055 149.693 245.258 153.95 250.448 153.95C255.622 153.95 259.83 149.693 259.83 144.428C259.83 139.167 255.622 134.896 250.448 134.896C245.258 134.896 241.055 139.167 241.055 144.428ZM250.448 380.63C245.258 380.63 241.055 376.37 241.055 371.112C241.055 365.85 245.258 361.591 250.448 361.591C255.622 361.591 259.83 365.85 259.83 371.112C259.83 376.37 255.622 380.63 250.448 380.63ZM309.769 224.507C309.769 229.772 313.962 234.034 319.144 234.034C324.327 234.034 328.525 229.772 328.525 224.507C328.525 219.246 324.327 214.978 319.144 214.978C313.962 214.978 309.769 219.246 309.769 224.507ZM306.741 311.216C301.56 311.216 297.356 306.947 297.356 301.69C297.356 296.428 301.56 292.161 306.741 292.161C311.915 292.161 316.122 296.428 316.122 301.69C316.122 306.947 311.915 311.216 306.741 311.216ZM147.586 242.144V249.172H133.99C122.068 249.172 111.807 237.42 111.807 224.705C111.807 211.873 121.708 200.857 133.99 200.857H147.586V207.634H133.99C125.878 207.634 118.608 215.995 118.608 224.705C118.608 233.189 125.772 242.165 133.99 242.165C140.667 242.165 147.586 242.144 147.586 242.144ZM240.816 358.054C243.499 356.012 246.84 354.801 250.445 354.801C254.027 354.801 257.34 356 260.028 358.033L260.061 358.054C270.711 352.579 292.664 325.178 297 314.634C293.167 311.632 290.674 306.954 290.674 301.69C290.674 292.693 297.883 285.374 306.738 285.374C307.367 285.374 307.984 285.424 308.578 285.496C310.917 279.811 313.36 260.63 313.36 255.424V239.698C307.353 237.341 303.081 231.427 303.081 224.511C303.081 217.586 307.353 211.676 313.36 209.308V166.097C308.395 164.124 304.639 159.757 303.476 154.407C296.437 153.017 270.846 150.105 265.499 150.103L265.502 150.095L265.496 150.103L265.492 150.103C265.489 150.107 265.485 150.113 265.481 150.12L265.481 150.12C265.47 150.136 265.456 150.155 265.449 150.173L265.496 150.103H265.499C263.229 156.308 257.333 160.733 250.445 160.733C243.546 160.733 237.658 156.311 235.385 150.103L235.425 150.173C235.422 150.151 235.403 150.126 235.39 150.109L235.385 150.103C230.057 150.103 204.452 153.016 197.417 154.407C196.239 159.757 192.487 164.124 187.526 166.097V209.308C193.527 211.676 197.792 217.586 197.792 224.511C197.792 231.427 193.527 237.341 187.526 239.698V255.424C187.526 260.63 189.97 279.811 192.295 285.496C192.902 285.424 193.513 285.374 194.145 285.374C203.002 285.374 210.204 292.693 210.204 301.69C210.204 306.954 207.715 311.632 203.883 314.634C208.218 325.178 230.159 352.579 240.816 358.054ZM225.175 220.365C224.332 220.365 223.128 219.437 223.128 219.133V218.207C223.245 217.226 226.737 216.433 227.26 216.569C227.27 216.578 227.283 216.586 227.296 216.595C227.383 216.651 227.523 216.742 227.523 217.442C227.523 218.14 226.822 220.365 225.175 220.365ZM250.656 235.816L251.637 235.097V226.832C251.637 223.675 249.763 221.79 249.763 221.79C249.763 221.79 244.515 215.928 243.266 214.543C241.932 213.189 240.821 212.625 238.956 212.625V211.335C238.956 210.324 238.731 209.958 237.611 209.958H232.443C231.678 210.065 231.152 210.065 230.579 208.531C230.005 207.244 228.447 207.529 227.566 208.426C226.368 209.367 219.488 217.122 216.656 220.314L216.656 220.315C215.963 221.096 215.512 221.603 215.446 221.671C214.618 222.51 214.637 223.878 215.446 225.06C215.587 225.3 217.441 228.503 217.441 228.503C217.441 228.503 221.043 225.73 221.288 225.487C222.434 224.732 224.503 226.069 224.503 226.069L218.844 230.607C218.844 230.607 219.037 232.081 220.291 232.081H225.452L227.288 235.755L230.696 235.715V228.769H232.762V221.995H233.139H234.348H235.564V231.613H233.498V238.716H225.664L218.025 246.122H224.503L221.637 252.288L229.962 252.317L229.886 258.011L236.081 250.671L242.675 255.701V247.086H251.998L248.177 240.134H253.745L250.656 235.816ZM218.559 194.947C218.482 194.811 217.116 192.364 217.116 192.364L216.09 190.516L214.476 187.621C214.476 187.621 215.152 187.215 216.406 187.215C217.945 187.215 218.363 189.331 218.363 189.331C218.363 189.331 218.833 188.436 219.785 188.436C220.872 188.436 221.516 189.257 221.516 190.328C221.516 191.21 220.916 191.714 220.591 191.987C220.521 192.046 220.464 192.094 220.428 192.133C219.921 192.829 220.462 193.187 220.946 192.914C221.272 192.81 224.482 191.874 224.933 191.874C225.681 191.815 225.522 191.262 225.071 191.262L224.983 191.269L224.983 191.269C224.817 191.282 224.681 191.293 224.582 191.293C223.782 191.293 223.263 190.632 223.263 189.993C223.263 188.633 224.313 188.46 224.313 188.46C224.313 188.46 224.074 188.118 224.074 187.752C224.074 186.928 224.664 186.163 225.494 186.163C226.935 186.163 226.887 187.854 226.887 187.854C226.887 187.854 227.08 187.793 227.146 187.793C227.541 187.793 228.45 188.232 228.45 189.231C228.45 190.088 227.79 190.566 227.462 190.632C226.999 190.801 226.84 191.293 227.462 191.359C227.745 191.307 232.083 190.931 232.418 190.931C233.061 190.931 233.208 189.756 232.188 189.763C231.195 189.763 230.252 188.92 230.252 187.69C230.223 185.606 232.173 185.475 232.173 185.475C232.173 185.475 232.045 185.014 232.045 184.741C232.045 183.399 233.18 182.537 234.167 182.537C235.148 182.537 236.286 183.399 236.286 184.741C236.286 185.014 236.155 185.475 236.155 185.475C236.155 185.475 238.107 185.606 238.078 187.69C238.078 188.92 237.138 189.763 236.141 189.763C235.124 189.756 235.269 190.931 235.911 190.931C236.247 190.931 240.588 191.307 240.871 191.359C241.491 191.293 241.327 190.801 240.871 190.632C240.536 190.566 239.883 190.088 239.883 189.231C239.883 188.232 240.786 187.793 241.182 187.793C241.246 187.793 241.441 187.854 241.441 187.854C241.441 187.854 241.398 186.163 242.832 186.163C243.666 186.163 244.255 186.928 244.255 187.752C244.255 188.118 244.015 188.46 244.015 188.46C244.015 188.46 245.069 188.633 245.069 189.993C245.069 190.632 244.552 191.293 243.746 191.293C243.646 191.293 243.513 191.282 243.349 191.269L243.257 191.262C242.808 191.262 242.65 191.815 243.397 191.874C243.846 191.874 247.054 192.81 247.384 192.914C247.869 193.187 248.405 192.829 247.892 192.133C247.857 192.093 247.798 192.043 247.726 191.981C247.405 191.707 246.815 191.204 246.815 190.328C246.815 189.257 247.455 188.436 248.543 188.436C249.493 188.436 249.958 189.331 249.958 189.331C249.958 189.331 250.383 187.215 251.927 187.215C253.178 187.215 253.857 187.621 253.857 187.621L252.243 190.516L251.212 192.364C251.212 192.364 249.847 194.811 249.77 194.947C249.393 195.448 248.995 195.512 248.612 195.467C248.51 195.97 248.32 196.884 248.108 197.848L248.372 199.19L247.657 199.981C247.566 200.413 247.484 200.786 247.428 201.043L247.427 201.045L247.427 201.045L247.427 201.047C247.397 201.183 247.374 201.287 247.361 201.349C247.343 201.431 247.325 201.514 247.308 201.594L247.308 201.595C247.252 201.856 247.2 202.1 247.149 202.275C244.715 201.061 237.843 199.841 234.167 199.841C230.482 199.841 223.616 201.061 221.179 202.275C221.145 202.149 221.103 201.978 221.065 201.793C221.018 201.588 220.858 200.866 220.666 199.969L219.958 199.19L220.222 197.92C219.996 196.887 219.794 195.94 219.7 195.469C219.324 195.51 218.928 195.443 218.559 194.947ZM276.444 219.137C277.871 219.137 279.33 219.503 280.225 220.742C281.179 226.555 286.595 229.034 286.595 229.034L287.966 227.643C287.966 227.643 289.576 229.279 293.802 229.279C293.802 224.615 291.1 222.046 289.454 220.678C287.4 218.88 284.859 216.936 283.397 216.274C281.429 215.033 279.18 214.87 277.423 214.87C271.85 214.87 268.844 218.529 268.844 222.618C268.844 226.539 271.697 228.93 273.685 230.597L273.685 230.597C274.169 231.002 274.602 231.365 274.93 231.696C279.716 236.148 280.585 237.416 280.585 239.622C280.585 241.683 279.598 242.811 278.303 242.811H252.583L256.278 249.795H245.495V261.244L236.381 254.463L228.752 262.821C228.752 262.821 227.325 280.507 227.265 280.853C227.265 282.1 226.432 282.613 225.536 282.613H221.185C221.185 282.613 219.646 285.55 219.579 285.65C219.178 286.714 219.1 289.155 219.1 289.155H232.15C232.15 289.155 242.025 271.146 243.287 269.719C244.695 268.128 245.433 267.57 245.433 267.57C245.433 267.57 250.738 263.51 257.88 263.51C261.584 263.51 265.92 264.367 269.314 266.435C271.786 267.938 273.104 269.244 274.383 270.878C276.727 273.867 277.589 278.481 277.895 282.373H275.217C273.79 282.373 272.242 283.309 271.94 284.555C271.818 285.039 270.751 289.155 270.751 289.155H285.047L287.911 282.373L285.228 267.48C285.228 267.48 277.537 259.668 277.537 252.644V252.043C284.183 250.975 286.064 246.346 286.064 241.562C286.064 237.233 285.363 234.502 280.877 229.946C280.135 229.191 279.085 228.427 278.003 227.64L278.003 227.64L278.002 227.64L278.002 227.64C275.739 225.994 273.339 224.249 273.339 222.281C273.339 221.343 274.148 219.137 276.444 219.137ZM227.382 254.769V263.22C227.382 264.302 227.028 264.732 225.89 264.732H218.271C217.198 264.732 215.685 265.977 215.172 267.183C215.143 267.38 212.669 275.534 212.669 275.534C212.669 275.534 207.067 274.94 207.067 268.462C207.067 267.975 207.369 266.335 207.369 266.335C207.369 266.335 210.131 258.454 210.404 257.683C210.677 256.35 212.904 254.769 214.875 254.769H227.382ZM255.18 266.582L256.512 270.873C256.512 270.873 256.752 271.357 256.752 272.208C256.752 274.715 254.729 280.437 253.593 282.373H247.22C246.002 282.373 244.421 285.916 244.421 289.157H257.763L268.905 276.444C268.905 276.444 270.132 270.616 270.156 270.479C268.133 268.423 262.206 265.95 255.18 266.582Z" fill="white"/>
</g>
<defs>
<clipPath id="clip0_1175_6846">
<rect width="500" height="500" fill="white"/>
</clipPath>
</defs>
</svg>
