<svg xmlns="http://www.w3.org/2000/svg" width="394" height="500" fill="none"><path fill="#fff" d="M86.383 56.389c20.396 9.598 33.893 21.295 36.292 23.095-.899-5.399-5.099-30.894-7.798-46.49 11.698 8.098 39.892 27.594 48.89 33.893 3.6-11.398 16.797-48.89 16.797-48.89s23.395 37.492 26.994 43.79c5.099-4.798 32.694-35.992 39.893-43.79 1.499 17.696 2.699 43.49 3.299 47.09 1.5-1.8 12.297-16.797 29.994-30.894-7.799 15.297-11.398 36.293-13.198 53.39a199.471 199.471 0 0 0-55.188-7.799c-36.593 0-71.386 9.598-101.38 26.695-5.099-16.497-13.198-36.893-24.595-50.09Zm281.343 322.135-16.196-17.996c-4.499 48.29-28.495 89.682-71.986 118.476l-6.899-26.095c-37.192 26.695-100.479 43.792-155.069 13.198 6.899-34.493 12.598-69.586 0-111.578-30.293 46.491-56.988 65.087-56.988 65.087-20.396-34.493-18.596-103.179-12.598-123.575l-33.893 10.498c0-23.096 16.797-71.986 40.792-99.58l-20.696-3.3c14.397-29.394 35.693-54.589 62.388-74.085-8.099 13.198-8.099 43.791 14.997 55.489-9.898-17.097-10.798-38.392-.9-49.79 10.498-11.398 27.594-7.199 38.392 1.5-3.299-9.598-13.197-21.596-26.994-22.496 26.994-14.097 58.488-21.596 90.881-21.596 6.299 0 12.298.6 17.997.9 9.598 3.6 23.395 17.097 29.994 25.795 0 0 .6-9.898-5.099-21.596 35.393 8.699 52.489 23.096 59.388 29.995 1.5 15.296 5.999 24.295 12.297 38.992-11.397-12.598-40.191-33.594-54.289-38.393 0 0-1.499 13.198-5.998 19.496-27.595-19.796-40.792-24.895-40.792-24.895-30.594 3-49.49 14.997-60.288 23.996l8.998 7.798c-17.996 5.399-29.994 21.296-29.994 21.296 0 .6 16.197 2.699 16.197 2.699s-1.8 18.897 22.195 30.894c20.396 9.898 49.19-2.399 76.785 8.698-17.996-20.695-30.294-30.294-30.294-30.294s-7.199-1.499-12.298-1.499c-6.298 0-15.896 1.499-25.794-2.7-5.099-1.799-10.798-5.399-14.997-8.098 0 0 12.597-13.197 31.193-15.897 0 0 16.797 4.499 29.994 14.397 8.699-8.698 17.997-8.098 17.997-8.098s-8.998 8.698-6.299 18.596c13.197 11.698 27.595 28.494 27.595 28.494 14.397-8.098 46.19-6.298 52.789 1.5-8.098-10.798-20.396-19.496-29.394-26.994-.9-4.2-11.398-17.997-12.598-19.497 0 0 9.598 3.3 17.997 10.498 2.399-3.599 7.198-7.198 13.197-8.698 6.299 5.399 7.799 13.497 7.199 14.997-2.7 3.599-5.999 5.099-5.999 5.099l15.297 16.797 1.5-12.298c35.692 50.69 55.188 109.778 30.293 183.863ZM300.54 269.046v-26.095s-11.698-3.599-24.295-13.497c-25.195 3.599-55.489 29.094-55.489 29.094s10.498 19.496 21.596 40.792c19.796 2.1 49.19-22.495 58.188-30.294Zm25.195 47.391s-1.8-10.798-10.798-20.696l-19.496.6s-26.695 22.495-42.592 23.095l13.498 25.195c8.998-1.8 24.295-8.998 30.894-16.197 0 0 4.199 13.498 3.299 29.395 8.998-5.699 21.296-19.497 25.195-41.392Zm8.098-86.383c-9.898 8.098-17.996 13.197-17.996 13.197v26.095c7.198 7.799 14.097 14.397 19.496 26.095 9.898-17.397 7.498-43.491-1.5-65.387Z"/></svg>