<svg width="500" height="500" viewBox="0 0 500 500" fill="none" xmlns="http://www.w3.org/2000/svg">
<path d="M140.286 56.3923C160.681 65.9904 174.179 77.6881 176.578 79.4877C175.678 74.0888 171.479 48.5939 168.78 32.997C180.478 41.0954 208.672 60.5915 217.67 66.8902C221.269 55.4925 234.467 18 234.467 18C234.467 18 257.862 55.4925 261.461 61.7912C266.56 56.9922 294.155 25.7984 301.353 18C302.853 35.6965 304.053 61.4913 304.653 65.0906C306.152 63.2909 316.95 48.2939 334.647 34.1968C326.848 49.4937 323.249 70.4895 321.449 87.5861C303.753 82.4871 285.157 79.7876 266.26 79.7876C229.668 79.7876 194.875 89.3857 164.881 106.482C159.782 89.9856 151.683 69.5897 140.286 56.3923ZM421.629 378.528L405.433 360.531C400.933 408.822 376.938 450.214 333.447 479.008L326.548 452.913C289.356 479.608 226.068 496.704 171.479 466.11C178.378 431.617 184.077 396.524 171.479 354.533C141.185 401.023 114.491 419.62 114.491 419.62C94.0948 385.127 95.8944 316.44 101.893 296.044L68 306.542C68 283.447 84.7966 234.557 108.792 206.962L88.096 203.663C102.493 174.269 123.789 149.074 150.484 129.578C142.385 142.775 142.385 173.369 165.481 185.067C155.582 167.97 154.683 146.674 164.581 135.277C175.079 123.879 192.175 128.078 202.973 136.776C199.674 127.178 189.776 115.181 175.978 114.281C202.973 100.184 234.467 92.6851 266.86 92.6851C273.159 92.6851 279.158 93.2849 284.857 93.5849C294.455 97.1842 308.252 110.681 314.851 119.38C314.851 119.38 315.451 109.482 309.752 97.784C345.145 106.482 362.241 120.879 369.14 127.778C370.639 143.075 375.139 152.073 381.437 166.77C370.04 154.173 341.245 133.177 327.148 128.378C327.148 128.378 325.648 141.575 321.149 147.874C293.555 128.078 280.358 122.979 280.358 122.979C249.764 125.978 230.867 137.976 220.07 146.974L229.068 154.773C211.071 160.172 199.074 176.068 199.074 176.068C199.074 176.668 215.271 178.768 215.271 178.768C215.271 178.768 213.471 197.664 237.466 209.662C257.862 219.56 286.656 207.262 314.251 218.36C296.254 197.664 283.957 188.066 283.957 188.066C283.957 188.066 276.758 186.566 271.659 186.566C265.361 186.566 255.762 188.066 245.864 183.867C240.765 182.067 235.067 178.468 230.867 175.768C230.867 175.768 243.465 162.571 262.061 159.872C262.061 159.872 278.858 164.371 292.055 174.269C300.753 165.57 310.052 166.17 310.052 166.17C310.052 166.17 301.053 174.869 303.753 184.767C316.95 196.464 331.347 213.261 331.347 213.261C345.744 205.163 377.538 206.962 384.137 214.761C376.038 203.963 363.741 195.265 354.743 187.766C353.843 183.567 343.345 169.77 342.145 168.27C342.145 168.27 351.743 171.569 360.142 178.768C362.541 175.169 367.34 171.569 373.339 170.07C379.638 175.469 381.137 183.567 380.538 185.067C377.838 188.666 374.539 190.166 374.539 190.166L389.836 206.962L391.335 194.665C427.028 245.355 446.524 304.443 421.629 378.528ZM354.443 269.05V242.955C354.443 242.955 342.745 239.356 330.148 229.458C304.953 233.057 274.659 258.552 274.659 258.552C274.659 258.552 285.157 278.048 296.254 299.344C316.05 301.443 345.445 276.848 354.443 269.05ZM379.638 316.44C379.638 316.44 377.838 305.642 368.84 295.744L349.344 296.344C349.344 296.344 322.649 318.84 306.752 319.44L320.25 344.635C329.248 342.835 344.545 335.636 351.143 328.438C351.143 328.438 355.343 341.935 354.443 357.832C363.441 352.133 375.738 338.336 379.638 316.44ZM387.736 230.058C377.838 238.156 369.74 243.255 369.74 243.255V269.35C376.938 277.148 383.837 283.747 389.236 295.445C399.134 278.048 396.734 251.953 387.736 230.058Z" fill="#360D3A"/>
</svg>
