<svg width="500" height="500" viewBox="0 0 500 500" fill="none" xmlns="http://www.w3.org/2000/svg">
<g clip-path="url(#clip0_1175_6943)">
<path fill-rule="evenodd" clip-rule="evenodd" d="M273.599 441.584C272.941 442.279 272.269 442.986 271.583 443.707C259.917 455.957 250 472 250 472C250 472 240.083 455.957 228.417 443.707C227.73 442.985 227.058 442.277 226.398 441.581C215.854 430.468 208.41 422.621 191.668 416.582C173.875 410.168 146.46 398.207 113.793 376.626C81.1256 355.043 11.6575 300.216 1.21019 204.544C-9.87265 103.044 58.8137 32.6071 58.8137 32.6071C79.3763 47.0439 110.876 61.7 166.22 58.8576C221.562 56.0136 250 29.3262 250 29.3262C250 29.3262 278.437 56.0136 333.779 58.8576C389.124 61.7 420.624 47.0439 441.186 32.6071C441.186 32.6071 509.873 103.044 498.79 204.544C488.343 300.216 418.873 355.043 386.207 376.626C353.54 398.207 326.124 410.168 308.334 416.582C291.588 422.622 284.143 430.469 273.599 441.584ZM250 63.456C233.252 73.2336 205.758 84.863 167.656 86.8196C128.15 88.8501 94.5059 82.9778 65.5782 68.9541C60.7554 75.8265 55.1937 84.6104 49.8584 95.0577C35.3136 123.544 27.9883 152.76 27.9883 182.158C27.9883 188.6 28.3402 195.051 29.0449 201.503C32.9899 237.634 47.1082 271.056 71.0088 300.847C86.8168 320.548 106.405 338.186 129.227 353.263C159.626 373.348 185.126 384.46 201.166 390.244C224.155 398.535 235.111 410.084 246.71 422.312L248.693 424.397C249.008 424.728 249.318 425.065 249.628 425.402C249.752 425.536 249.876 425.671 250 425.805C250.104 425.692 250.208 425.579 250.312 425.466L250.324 425.454C250.65 425.1 250.976 424.746 251.308 424.397L253.289 422.312C264.889 410.084 275.845 398.535 298.833 390.244C314.873 384.46 340.373 373.348 370.772 353.263C393.595 338.186 413.183 320.548 428.99 300.847C452.891 271.056 467.009 237.634 470.954 201.503C471.659 195.051 472.011 188.6 472.011 182.158C472.011 152.76 464.686 123.544 450.141 95.0577C444.806 84.6104 439.245 75.8265 434.42 68.9541C411.423 80.1037 385.444 86.1007 355.908 87.0707L355.908 87.0704C348.294 87.3207 340.442 87.2364 332.344 86.8194C329.513 86.6748 326.741 86.4762 324.026 86.2283L324.026 86.2286C290.217 83.1447 265.505 72.5075 250 63.456ZM324.026 86.2286L323.949 86.361L257.072 201.748L260.618 200.731L295.886 190.619L255.227 260.773L255.206 260.704L245.695 222.013L245.589 221.562L179.377 335.801L179.184 336.132L167.691 329.471L173.089 374.57L214.902 356.835L203.41 350.173L203.554 349.924L237.387 291.552L237.511 291.337L247.127 330.464L247.153 330.538L352.415 148.922L352.25 148.973L314.015 159.936L313.603 160.054L355.856 87.1506L355.908 87.0707C348.293 87.3209 340.441 87.2367 332.344 86.8196C329.513 86.675 326.74 86.4764 324.026 86.2286ZM148.196 279.209C143.031 274.253 141.22 274.069 139.033 274.069C136.845 274.069 135.035 274.253 129.87 279.209C127.153 281.818 124.745 285.479 122.972 288.175C122.376 289.08 121.853 289.876 121.413 290.487C119.662 292.918 116.55 292.529 114.898 291.849C113.245 291.169 112.079 289.516 111.981 286.307C111.885 283.099 115.287 280.279 119.273 277.168C123.258 274.058 125.788 272.277 125.788 272.277C97.9189 272.476 90.7065 269.424 80.8463 263.386C74.2717 259.361 68.6028 253.608 65.2011 247.187C64.5044 245.497 63.0784 244.405 61.2322 243.82C59.3852 243.237 54.5234 241.488 49.4678 238.183C44.4122 234.876 42.8567 230.307 42.8567 225.738C42.8567 222.31 44.3883 220.744 45.1542 220.173C45.4092 219.984 45.6888 220.3 45.7507 220.493C47.2802 225.321 51.1929 227.923 54.3522 230.025L54.3537 230.026L54.3593 230.03L54.3638 230.033L54.3727 230.039C54.7605 230.297 55.1368 230.547 55.4958 230.793C58.8991 233.127 61.8217 235.07 61.8217 235.07C61.8169 234.884 61.8153 234.698 61.8153 234.512V228.947C61.7326 224.88 57.5405 221.947 51.5976 217.789C50.5785 217.076 49.5079 216.327 48.3977 215.53C43.184 211.787 41.8843 208.529 42.1775 204.641C42.4285 201.287 43.9006 198.552 44.5687 197.465C44.7705 197.139 45.0525 197.139 45.3281 197.574C45.8095 198.335 46.6651 199.875 47.7177 202.599C49.3701 206.877 51.1202 208.821 55.6904 212.127C60.2591 215.432 61.8153 216.795 61.8153 216.795V212.028C61.8153 210.474 53.3564 201.918 49.4678 198.128C45.5792 194.335 45.8707 189.183 46.8423 185.002C47.5747 181.855 49.5719 179.976 50.5172 179.239C50.827 178.996 51.0797 179.04 51.1742 179.344C51.4292 180.167 51.9583 182.031 52.3849 184.516C52.968 187.92 53.9403 189.474 56.4674 192.682C58.9952 195.891 61.8153 198.03 61.8153 198.03V186.266C61.8153 185.817 60.1 184.267 57.7335 182.129L57.7334 182.129C55.4882 180.1 52.6567 177.542 50.1478 174.892C44.9953 169.447 44.7045 163.128 46.0653 160.502C47.0329 158.636 48.787 157.458 49.7196 156.932C50.0994 156.718 50.3774 157.011 50.4028 157.214C50.8707 161.019 53.1006 165.817 55.5927 168.862C58.2182 172.072 61.8153 173.725 61.8153 173.725V167.891C61.7184 166.725 57.8298 161.085 50.8294 154.183C46.3156 149.732 46.0653 145.628 46.7453 140.67C47.2792 136.783 50.7389 134.508 52.2101 133.707C52.6161 133.487 52.8814 133.696 52.902 134.253C52.9457 135.38 53.0323 137.482 53.1626 139.892C53.3572 143.49 54.4273 145.531 56.8574 148.351C59.2875 151.169 61.8153 153.309 61.8153 153.309V150.488C61.8153 148.631 61.6162 147.938 61.284 146.781L61.2839 146.78L61.2839 146.78C61.1815 146.424 61.0665 146.023 60.9407 145.531C60.1248 142.343 60.2106 139.356 61.2322 134.835C61.4874 133.704 61.8195 132.698 62.1528 131.687C62.8562 129.555 63.5646 127.408 63.5646 124.044C63.5646 119.706 62.1132 112.352 61.751 110.582C61.6978 110.329 62.0974 110.205 62.3071 110.22C72.4318 110.917 75.2258 122.516 74.9398 128.517C74.6701 134.167 71.3611 141.285 69.5332 145.217C69.3796 145.548 69.2365 145.856 69.1064 146.138C68.6861 147.052 68.2932 147.846 67.9405 148.56L67.9405 148.56L67.9404 148.56C66.886 150.693 66.1902 152.1 66.1902 153.794V155.154C66.1902 155.154 70.9542 153.114 74.5513 148.641C77.9782 144.379 78.4937 141.708 79.6282 135.828L79.6283 135.828L79.6562 135.683C79.7031 135.44 80.2068 134.951 80.8081 135.249C81.6176 135.65 82.7814 136.562 83.7872 138.627C85.2171 141.566 85.2449 149.323 79.4131 155.836C77.3196 158.174 74.7828 160.713 72.4933 163.004C69.0644 166.435 66.1902 169.312 66.1902 170.127V176.641C66.1902 176.641 70.6619 175.669 74.8429 171.002C77.4501 168.092 79.0364 164.236 80.3326 161.086C80.9819 159.508 81.5584 158.107 82.1539 157.091C82.2762 156.883 82.7672 156.594 83.1191 156.901C83.7371 157.441 84.6888 158.688 85.2449 161.475C86.1204 165.85 85.4395 170.71 79.4131 176.349C73.3835 181.988 66.1902 189.181 66.1902 190.445V198.904C66.1902 198.904 69.398 197.543 72.7035 193.266C75.8923 189.14 76.9989 186.01 78.4702 180.734C78.5242 180.54 78.8976 180.184 79.3011 180.372C80.1011 180.74 81.4572 181.671 82.4263 183.933C83.8841 187.335 84.1764 192.779 79.7039 198.128C77.6834 200.543 74.7304 203.594 72.0999 206.311C68.9076 209.609 66.1902 212.416 66.1902 213.002V217.376C66.1902 217.376 70.6619 213.683 74.9398 210.28C79.1351 206.944 82.0212 203.886 84.8819 197.167C84.9375 197.034 85.167 196.888 85.3474 197.131C85.8884 197.865 87.0045 199.705 87.2873 202.696C87.7719 207.849 85.6342 213.294 80.6763 216.404C80.1268 216.749 79.5212 217.114 78.8786 217.502L78.8781 217.502C73.7224 220.611 66.1902 225.153 66.1902 232.155V234.992C66.1902 236.93 66.523 238.931 67.1514 240.938C67.1514 240.938 68.0364 238.96 69.5926 236.919C71.1481 234.876 74.7452 230.891 79.2185 226.418C83.4321 222.203 85.6604 218.767 86.6351 216.024C86.6947 215.857 86.9163 215.64 87.0983 215.856C87.6448 216.507 88.7935 218.13 89.2321 220.683C89.8144 224.085 89.8144 230.891 83.7872 235.266C81.1668 237.167 78.7943 238.657 76.8506 239.878L76.8504 239.878C74.6146 241.282 72.9461 242.329 72.1204 243.238C70.1765 245.376 69.9787 246.963 71.585 249.477C74.4806 253.429 78.4066 257.067 83.0301 259.896C92.6941 265.805 99.3449 268.849 133.88 267.983C134.392 267.973 134.836 267.964 135.255 267.955L135.258 267.955L135.261 267.955L135.264 267.955L135.267 267.955H135.267H135.268H135.268C136.417 267.93 137.381 267.909 139.033 267.909C140.686 267.909 141.649 267.93 142.798 267.955H142.799H142.799L142.804 267.955L142.808 267.955L142.813 267.955C143.067 267.96 143.329 267.966 143.611 267.972L143.847 267.976L144.185 267.983C178.72 268.849 185.372 265.805 195.036 259.896C199.659 257.067 203.586 253.429 206.482 249.477C208.087 246.963 207.89 245.376 205.945 243.238C205.12 242.329 203.451 241.281 201.215 239.877C199.271 238.657 196.899 237.167 194.279 235.266C188.251 230.891 188.251 224.085 188.835 220.683C189.271 218.13 190.421 216.507 190.968 215.856C191.149 215.64 191.37 215.857 191.43 216.024C192.405 218.767 194.634 222.203 198.848 226.418C203.321 230.891 206.918 234.876 208.473 236.919C210.029 238.96 210.914 240.938 210.914 240.938C211.542 238.931 211.876 236.93 211.876 234.992V232.155C211.876 225.153 204.343 220.611 199.188 217.502L199.188 217.502L199.187 217.502C198.545 217.114 197.939 216.749 197.39 216.404C192.432 213.294 190.292 207.849 190.779 202.696C191.061 199.705 192.177 197.865 192.719 197.131C192.899 196.888 193.128 197.034 193.184 197.167C196.045 203.886 198.931 206.944 203.126 210.28C207.404 213.683 211.876 217.376 211.876 217.376V213.002C211.876 212.416 209.159 209.61 205.968 206.313C203.337 203.595 200.383 200.544 198.363 198.128C193.89 192.779 194.182 187.335 195.639 183.933C196.609 181.671 197.965 180.74 198.765 180.372C199.169 180.184 199.542 180.54 199.596 180.734C201.067 186.01 202.174 189.14 205.363 193.266C208.668 197.543 211.876 198.904 211.876 198.904V190.445C211.876 189.181 204.682 181.988 198.654 176.349C192.625 170.71 191.945 165.85 192.821 161.475C193.378 158.688 194.329 157.441 194.947 156.901C195.299 156.594 195.79 156.883 195.913 157.091C196.509 158.108 197.086 159.51 197.735 161.089C199.031 164.238 200.617 168.093 203.224 171.002C207.404 175.669 211.876 176.641 211.876 176.641V170.127C211.876 169.311 209.001 166.434 205.571 163.002C203.283 160.711 200.747 158.173 198.654 155.836C192.821 149.323 192.849 141.566 194.279 138.627C195.284 136.562 196.448 135.65 197.258 135.249C197.86 134.951 198.363 135.44 198.41 135.683L198.437 135.82V135.82C199.572 141.705 200.087 144.378 203.515 148.641C207.112 153.114 211.876 155.154 211.876 155.154V153.794C211.876 152.101 211.18 150.694 210.127 148.564C209.774 147.85 209.38 147.054 208.959 146.138C208.829 145.855 208.686 145.546 208.531 145.215L208.528 145.207C206.7 141.273 203.395 134.162 203.126 128.517C202.84 122.516 205.634 110.917 215.76 110.22C215.968 110.205 216.367 110.329 216.316 110.582C215.953 112.352 214.501 119.706 214.501 124.044C214.501 127.409 215.21 129.557 215.913 131.69L215.913 131.69L215.914 131.69L215.914 131.69L215.914 131.69L215.914 131.69L215.914 131.691C216.247 132.7 216.578 133.705 216.834 134.835C217.855 139.356 217.942 142.343 217.126 145.531C217 146.023 216.885 146.423 216.783 146.78L216.783 146.781C216.45 147.938 216.251 148.631 216.251 150.488V153.309C216.251 153.309 218.778 151.169 221.208 148.351C223.639 145.531 224.709 143.49 224.904 139.892C225.033 137.482 225.121 135.38 225.164 134.253C225.185 133.696 225.451 133.487 225.857 133.707C227.326 134.508 230.787 136.783 231.32 140.67C232.001 145.628 231.75 149.732 227.237 154.183C220.238 161.085 216.349 166.725 216.251 167.891V173.725C216.251 173.725 219.848 172.072 222.474 168.862C224.966 165.817 227.195 161.019 227.662 157.214C227.688 157.011 227.967 156.718 228.346 156.932C229.28 157.458 231.034 158.636 232.001 160.502C233.362 163.128 233.07 169.447 227.917 174.892C225.409 177.542 222.578 180.1 220.333 182.129L220.333 182.129L220.332 182.129C217.966 184.267 216.251 185.817 216.251 186.266V198.03C216.251 198.03 219.071 195.891 221.598 192.682C224.125 189.474 225.099 187.92 225.682 184.516C226.108 182.031 226.637 180.167 226.892 179.344C226.986 179.04 227.24 178.996 227.549 179.239C228.494 179.976 230.492 181.855 231.224 185.002C232.196 189.183 232.487 194.335 228.599 198.128C224.709 201.918 216.251 210.474 216.251 212.028V216.795C216.251 216.795 217.807 215.432 222.376 212.127C226.946 208.821 228.697 206.877 230.348 202.599C231.401 199.875 232.256 198.335 232.738 197.574C233.014 197.139 233.296 197.139 233.497 197.465C234.165 198.552 235.637 201.287 235.89 204.641C236.181 208.529 234.882 211.787 229.667 215.53C228.559 216.325 227.491 217.073 226.474 217.785L226.473 217.785L226.471 217.787L226.469 217.788C220.526 221.946 216.335 224.879 216.251 228.947V234.512C216.251 234.698 216.25 234.884 216.244 235.07C216.244 235.07 219.168 233.127 222.571 230.793C222.936 230.542 223.32 230.287 223.715 230.024C226.874 227.923 230.786 225.32 232.316 220.493C232.377 220.3 232.657 219.984 232.912 220.173C233.678 220.744 235.209 222.31 235.209 225.738C235.209 230.307 233.654 234.876 228.599 238.183C223.542 241.488 218.681 243.237 216.834 243.82C214.987 244.405 213.562 245.497 212.865 247.187C209.463 253.608 203.794 259.361 197.22 263.386C187.359 269.424 180.148 272.476 152.279 272.277C152.279 272.277 154.808 274.058 158.794 277.168C162.779 280.279 166.182 283.099 166.085 286.307C165.988 289.516 164.821 291.169 163.169 291.849C161.516 292.529 158.404 292.918 156.655 290.487C156.214 289.875 155.69 289.078 155.094 288.172C153.32 285.477 150.912 281.818 148.196 279.209ZM139.033 264.479C139.033 264.479 136.554 261.78 133.856 259.74C131.158 257.7 126.71 256.314 119.273 257.262L118.645 257.342C111.314 258.277 102.325 259.424 97.9817 257.333C92.0752 254.491 90.9082 250.554 90.9082 243.917V137.743L90.8494 137.605L79.46 114.127C80.4211 113.675 81.2939 114.143 82.0459 114.546C82.2642 114.663 82.4723 114.774 82.6694 114.856C83.5432 115.221 85.8041 115.221 88.575 114.856C91.3459 114.492 92.0021 116.826 92.0021 118.648C92.0021 120.471 90.6167 120.981 90.6167 120.981C90.0328 119.523 87.8466 119.45 86.8249 120.763C85.8049 122.075 86.825 123.388 88.7204 125.502C90.6167 127.617 93.3868 128.419 95.21 127.908C97.0331 127.399 96.9434 125.575 96.3777 124.773C95.5031 123.533 94.9184 122.585 95.283 120.617C95.6493 118.648 97.6162 117.189 100.023 118.137C102.428 119.086 102.502 121.492 102.428 123.461C102.371 125.053 105.856 123.388 107.241 121.929C108.627 120.471 108.991 118.575 108.699 116.461C108.408 114.346 106.44 113.689 105.272 114.127C104.107 114.565 103.013 116.607 103.013 116.607C99.8048 115.367 100.096 112.596 100.752 111.065C101.377 109.607 103.187 108.482 104.367 107.749L104.543 107.638C105.623 106.964 106.015 106.104 106.413 105.229C106.431 105.19 106.449 105.151 106.467 105.112C106.482 105.079 106.497 105.046 106.512 105.013C106.95 104.064 107.897 103.336 107.897 103.336C108.845 103.336 110.085 103.846 110.888 104.721C111.69 105.596 113.075 105.815 115.992 106.034C118.907 106.251 119.637 107.784 119.71 109.461C119.783 111.139 118.397 112.086 118.397 112.086C117.595 110.482 114.606 111.284 113.439 112.742C112.272 114.2 113.148 116.971 115.044 119.158C116.939 121.346 120.73 120.908 121.533 120.325C122.014 119.975 121.761 119.127 121.481 118.19C121.294 117.564 121.096 116.898 121.096 116.315C121.096 114.856 122.044 112.889 123.794 112.304C125.544 111.721 127.075 112.377 127.949 113.617C128.825 114.858 128.898 116.607 128.387 118.794C127.877 120.981 130.866 120.763 132.397 119.742C134.084 118.616 135.679 116.023 136.335 111.575C136.742 108.82 135.506 108.144 134.22 108.367C132.543 108.658 132.252 111.065 132.252 111.065C132.252 111.065 128.413 110.418 128.752 106.471C128.971 103.919 131.012 102.825 132.616 102.534C134.22 102.242 136.142 101.596 136.99 100.492C137.72 99.5441 139.033 99.0341 139.033 99.0341C139.033 99.0341 140.345 99.5441 141.074 100.492C141.924 101.596 143.845 102.242 145.449 102.534C147.054 102.825 149.096 103.919 149.314 106.471C149.653 110.418 145.815 111.065 145.815 111.065C145.815 111.065 145.522 108.658 143.845 108.367C142.561 108.144 141.324 108.82 141.731 111.575C142.387 116.023 143.981 118.616 145.669 119.742C147.2 120.763 150.189 120.981 149.679 118.794C149.168 116.607 149.241 114.858 150.116 113.617C150.991 112.377 152.522 111.721 154.272 112.304C156.022 112.889 156.971 114.856 156.971 116.315C156.971 116.898 156.772 117.564 156.585 118.19L156.585 118.19L156.585 118.19C156.305 119.127 156.052 119.975 156.533 120.325C157.335 120.908 161.126 121.346 163.022 119.158C164.918 116.971 165.793 114.2 164.626 112.742C163.46 111.284 160.471 110.482 159.668 112.086C159.668 112.086 158.284 111.139 158.355 109.461C158.428 107.784 159.158 106.251 162.074 106.034C164.991 105.815 166.376 105.596 167.179 104.721C167.98 103.846 169.22 103.336 170.168 103.336C170.168 103.336 171.116 104.064 171.554 105.013C171.585 105.081 171.616 105.15 171.647 105.218L171.648 105.219C172.047 106.098 172.44 106.962 173.522 107.638L173.704 107.751C174.883 108.485 176.691 109.609 177.313 111.065C177.97 112.596 178.261 115.367 175.053 116.607C175.053 116.607 173.96 114.565 172.793 114.127C171.627 113.689 169.657 114.346 169.367 116.461C169.074 118.575 169.44 120.471 170.824 121.929C172.21 123.388 175.696 125.053 175.637 123.461C175.564 121.492 175.637 119.086 178.042 118.137C180.449 117.189 182.417 118.648 182.783 120.617C183.148 122.585 182.563 123.533 181.689 124.773C181.123 125.575 181.033 127.399 182.856 127.908C184.678 128.419 187.449 127.617 189.345 125.502C191.241 123.388 192.262 122.075 191.241 120.763C190.22 119.45 188.033 119.523 187.449 120.981C187.449 120.981 186.064 120.471 186.064 118.648C186.064 116.826 186.72 114.492 189.491 114.856C192.262 115.221 194.522 115.221 195.396 114.856C195.593 114.775 195.801 114.663 196.019 114.546C196.771 114.143 197.644 113.674 198.606 114.127L187.216 137.605L187.158 137.743V243.917C187.158 250.554 185.991 254.491 180.084 257.333C175.741 259.425 166.748 258.277 159.418 257.341L158.794 257.262C151.355 256.314 146.909 257.7 144.21 259.74C141.512 261.78 139.033 264.479 139.033 264.479ZM139.033 128.215C135.342 128.215 131.789 128.371 128.462 128.657C125.748 128.892 122.292 129.329 119.929 129.732C110.085 131.408 106.22 132.721 101.991 135.347C99.2479 137.048 98.4281 138.743 98.204 139.382L98.1953 139.429H179.871L179.862 139.382C179.638 138.743 178.818 137.048 176.074 135.347C171.845 132.721 167.98 131.408 158.138 129.732C155.772 129.329 152.319 128.892 149.604 128.657C146.277 128.371 142.724 128.215 139.033 128.215ZM182.563 144.02V243.917C182.563 250.06 181.502 251.553 178.091 253.194C174.973 254.696 165.6 253.5 159.998 252.785L159.993 252.784L159.374 252.703C151.719 251.73 145.681 252.862 141.438 256.077C140.591 256.718 139.779 257.406 139.033 258.074C138.288 257.406 137.474 256.718 136.628 256.077C132.381 252.864 126.346 251.73 118.692 252.703L118.072 252.784L118.066 252.785C112.463 253.5 103.092 254.696 99.9731 253.194C96.5643 251.553 95.5029 250.06 95.5029 243.917V144.02H182.563ZM138.995 203.919L108.695 247.193C108.537 247.416 108.228 247.47 108.003 247.315L105.16 245.323C104.936 245.166 104.881 244.857 105.038 244.632L136.212 200.113L136.241 200.059L117.815 174.962C117.815 174.962 116.373 175.952 112.14 179.059C110.455 180.298 108.433 181.623 107.001 182.223C105.496 182.854 103.061 182.788 101.856 181.59C99.853 179.602 96.4656 174.295 99.111 168.822C99.111 168.822 101.296 169.925 102.892 170.992C104.237 171.889 104.821 170.662 104.584 168.122C104.348 165.581 104.365 164.654 104.365 164.654C104.365 164.654 105.644 165.036 107.625 165.889C107.871 165.994 108.115 166.103 108.352 166.208C110.018 166.949 111.375 167.553 111.004 166.052C110.111 162.436 109.839 160.328 109.839 160.328C109.839 160.328 111.767 161.22 114.952 163.155C116.273 163.958 116.102 162.477 115.891 160.661C115.862 160.406 115.832 160.145 115.805 159.882C115.587 157.736 115.605 156.402 115.605 156.402C115.605 156.402 116.494 156.663 118.847 157.649C121.2 158.636 122.547 158.444 122.092 156.894C121.554 155.051 121.154 152.636 121.154 152.636C127.17 151.751 131.218 156.572 132.516 159.079C133.297 160.588 132.63 162.93 131.579 164.177C130.578 165.364 128.707 166.896 127.02 168.133C122.789 171.242 121.412 172.32 121.412 172.32L138.947 196.203L138.982 196.154L152.85 176.35C152.85 176.35 151.147 173.645 150.713 167.911C150.31 162.603 152.272 158.944 156.126 155.857C159.979 152.769 162.632 152.667 162.632 152.667C160.487 156.238 159.19 159.871 158.98 161.95L158.971 162.042L158.965 162.095C158.888 162.821 158.759 164.028 159.529 164.472C160.215 164.864 161.003 164.129 162.01 163.189L162.07 163.133C163.531 161.766 170.444 155.112 170.444 155.112H170.445C170.445 155.112 166.558 163.885 165.772 165.727L165.748 165.785C165.204 167.058 164.777 168.057 165.385 168.569C166.066 169.145 167.162 168.606 167.816 168.284C167.86 168.263 167.901 168.243 167.94 168.224C169.822 167.316 172.792 164.856 175.414 161.618C175.414 161.618 176.227 164.145 174.642 168.823C173.06 173.499 170.293 176.594 165.167 178.031C159.63 179.584 156.506 178.91 156.506 178.91L141.788 199.929L141.738 200.003L174.458 244.565C174.621 244.785 174.572 245.096 174.352 245.259L171.553 247.313C171.334 247.474 171.023 247.426 170.86 247.206L139.036 203.863L138.995 203.919ZM379.719 208.45C378.732 206.372 374.025 203.912 360.358 203.529C336.952 202.872 330.241 205.917 326.999 208.669C323.39 211.731 325.357 214.465 329.624 215.45C333.888 216.435 335.967 218.294 338.846 224.426L366.193 281.125C371.624 291.247 372.935 292.559 379.826 292.669C384.636 292.745 387.701 290.042 390.609 284.89L424.648 219.793C426.748 215.559 429.044 213.919 432.655 213.154L432.813 213.12C436.387 212.361 440.529 211.482 440.529 209.434C440.529 207.357 439.216 205.606 435.388 204.403C431.559 203.2 419.529 203.09 413.185 203.529C406.842 203.966 401.429 205.597 400.278 207.795C399.077 210.09 400.717 211.622 403.56 212.826C406.173 213.931 407.666 217.449 405.558 222.355L395.47 241.65C393.826 244.762 391.967 247.169 389.451 247.278C386.936 247.387 385.382 245.65 382.987 240.94L374.272 222.871C372.388 219.169 372.716 216.435 375.998 213.919L376.111 213.832C376.264 213.716 376.412 213.603 376.556 213.494C376.681 213.399 376.802 213.307 376.921 213.218C379.546 211.234 380.643 210.405 379.719 208.45ZM340.672 292.418C344.615 283.67 351.665 268.158 354.624 265.324L354.664 265.277L363.074 282.715L363.109 282.779C365.446 287.136 367.174 290.204 369.123 292.294L369.143 292.325V323.721C369.519 337.148 371.11 338.262 373.572 339.986L373.575 339.989C375.866 341.592 376.535 342.454 376.164 344.302C375.803 346.115 373.207 347.632 370.124 348.37C367.37 349.032 363.331 349.102 357.834 349.197H357.834H357.833C357.186 349.208 356.519 349.219 355.831 349.232C349.299 349.355 346.094 348.862 343.753 346.644C341.785 344.781 343.17 343.21 344.911 341.236C344.982 341.154 345.055 341.072 345.127 340.99C345.203 340.904 345.279 340.817 345.356 340.729C347.82 337.894 348.435 335.06 348.536 330.131V313.123C348.435 307.085 346.827 306.143 343.507 311.768C340.161 317.436 336.676 326.818 334.107 333.733L334.107 333.733L334.104 333.74C333.268 335.993 332.528 337.983 331.923 339.497C329.457 345.659 327.731 348.001 325.637 343.81C323.543 339.619 318.119 326.064 314.424 315.958C312.039 309.443 308.28 307.456 308.334 315.096V333.582C308.384 336.292 309.247 337.279 311.465 338.634C313.682 339.989 314.945 341.591 315.038 344.425C315.163 348.123 313.233 350.202 310.233 351.328C305.902 352.951 301.002 352.673 296.45 352.415C295.82 352.38 295.197 352.344 294.582 352.315C289.527 352.067 286.695 348.493 286.447 345.288C286.2 342.085 288.172 339.865 290.515 338.263C290.671 338.156 290.824 338.053 290.976 337.952L291.113 337.86L291.115 337.859C293.165 336.489 294.71 335.456 294.771 331.857V289.462C294.704 283.422 293.595 282.561 291.007 281.204C288.419 279.85 286.939 278.369 286.939 274.427C286.939 270.483 288.295 267.771 293.595 266.047C298.894 264.322 304.686 263.583 309.74 264.813C314.629 266.007 316.504 270.593 320.768 281.019C321.424 282.624 322.136 284.367 322.925 286.257C327.534 297.298 330.689 304.251 333.031 304.251C335.339 304.251 336.688 301.259 340.502 292.796L340.502 292.796L340.672 292.418ZM432.77 216.714C434.399 216.836 436.041 216.873 437.66 216.873C446.781 216.873 452.326 214.533 456.023 210.096C459.227 206.251 458.377 200.941 454.174 199.497C450.231 198.141 448.875 196.786 447.766 192.843C447.392 191.513 447.27 189.889 447.126 187.975V187.975C446.844 184.213 446.478 179.333 443.944 173.371C440.775 165.904 434.887 162.936 431.497 161.228L431.496 161.227C430.802 160.877 430.212 160.58 429.772 160.308C427.185 158.705 429.28 156.363 432.607 153.898C435.439 151.801 442.661 145.763 442.345 131.715C441.974 115.325 430.513 108.423 422.811 105.857C415.195 103.32 406.841 103.67 396.779 104.545C386.716 105.419 380.483 105.311 373.592 104.763C365.952 104.156 360.796 103.779 356.201 106.295C351.608 108.81 350.952 111.327 351.17 113.951C351.407 116.785 352.702 117.889 356.419 120.185C359.286 121.956 361.342 124.67 361.415 129.044V183.368C361.376 189.762 360.513 193.951 356.817 196.909C356.404 197.239 356.017 197.543 355.655 197.827L355.655 197.827C354.608 198.65 353.774 199.306 353.132 199.944L353.201 199.942C355.435 199.928 357.848 199.956 360.456 200.031C373.51 200.397 380.847 202.66 382.879 206.952C384.217 209.773 383.429 211.809 382.002 213.436L381.953 213.498C385.798 213.374 389.062 213.077 391.322 212.684C393.6 212.288 395.373 211.805 396.748 211.257L396.718 211.192C396.532 210.673 396.378 210.009 396.378 209.236C396.378 208.344 396.582 207.304 397.18 206.17C397.774 205.031 398.754 204.099 399.964 203.336L400.014 203.308C399.417 202.65 398.624 202.029 397.715 201.316C397.071 200.811 396.369 200.261 395.637 199.62C393.129 197.427 392.309 193.212 392.309 191.487V174.48C392.309 167.948 393.294 166.099 397.979 166.346C402.66 166.593 404.878 169.551 406.851 174.356C407.922 176.969 409.14 181.949 410.602 187.93L410.602 187.931L410.603 187.934C411.518 191.677 412.529 195.812 413.66 200.004L413.724 199.987C419.678 199.645 431.827 199.614 436.437 201.064C442.712 203.037 444.029 206.705 444.029 209.434C444.029 214.318 438.209 215.552 433.531 216.545L433.529 216.545L433.38 216.577C433.221 216.61 433.069 216.644 432.92 216.682L432.77 216.714ZM397.107 153.325C392.842 153.325 391.529 151.357 391.529 148.403V131.341C391.638 126.748 391.748 123.794 393.389 121.497C395.03 119.201 396.123 119.201 398.858 119.201C401.591 119.201 404.436 120.185 406.404 124.341C408.373 128.497 408.482 130.357 408.482 135.497C408.482 140.638 408.283 146.977 405.31 149.825C402.687 152.341 401.372 153.325 397.107 153.325Z" fill="white"/>
</g>
<defs>
<clipPath id="clip0_1175_6943">
<rect width="500" height="500" fill="white"/>
</clipPath>
</defs>
</svg>
