<svg width="500" height="500" viewBox="0 0 500 500" fill="none" xmlns="http://www.w3.org/2000/svg">
<path d="M271.583 443.707C283.249 431.457 290.541 422.999 308.334 416.582C326.124 410.168 353.54 398.207 386.207 376.626C418.873 355.043 488.343 300.216 498.79 204.544C509.873 103.044 441.186 32.6072 441.186 32.6072C420.624 47.044 389.124 61.7001 333.779 58.8577C278.437 56.0137 250 29.3263 250 29.3263C250 29.3263 221.562 56.0137 166.22 58.8577C110.876 61.7001 79.3763 47.044 58.8137 32.6072C58.8137 32.6072 -9.87264 103.044 1.21019 204.544C11.6575 300.216 81.1256 355.043 113.793 376.626C146.46 398.207 173.875 410.168 191.668 416.582C209.458 422.999 216.75 431.457 228.417 443.707C240.083 455.957 250 472 250 472C250 472 259.917 455.957 271.583 443.707Z" fill="#CEAA29"/>
<path d="M167.656 86.8196C205.758 84.863 233.252 73.2336 250 63.456C265.505 72.5075 290.217 83.1447 324.026 86.2286C326.74 86.4764 329.513 86.675 332.344 86.8196C340.441 87.2367 348.293 87.3209 355.908 87.0707C385.444 86.1007 411.423 80.1037 434.42 68.9541C439.245 75.8265 444.806 84.6104 450.141 95.0577C464.686 123.544 472.011 152.761 472.011 182.158C472.011 188.6 471.659 195.051 470.954 201.503C467.009 237.634 452.891 271.056 428.99 300.847C413.183 320.548 393.595 338.186 370.772 353.264C340.373 373.348 314.873 384.46 298.833 390.244C275.845 398.535 264.889 410.084 253.289 422.312L251.308 424.397C250.866 424.861 250.435 425.335 250 425.805C249.565 425.335 249.133 424.861 248.693 424.397L246.71 422.312C235.111 410.084 224.155 398.535 201.166 390.244C185.126 384.46 159.626 373.348 129.227 353.264C106.405 338.186 86.8168 320.548 71.0088 300.847C47.1082 271.056 32.9899 237.634 29.0449 201.503C28.3402 195.051 27.9883 188.6 27.9883 182.158C27.9883 152.761 35.3136 123.544 49.8584 95.0577C55.1937 84.6104 60.7554 75.8265 65.5782 68.9541C94.5059 82.9778 128.15 88.8501 167.656 86.8196Z" fill="white"/>
<path d="M139.032 274.069C141.219 274.069 143.031 274.253 148.195 279.209C151.825 282.694 154.904 288.057 156.654 290.487C158.403 292.918 161.515 292.529 163.168 291.849C164.821 291.169 165.988 289.516 166.085 286.307C166.181 283.099 162.779 280.279 158.793 277.168C154.807 274.058 152.278 272.276 152.278 272.276C180.147 272.476 187.359 269.424 197.219 263.386C203.794 259.361 209.463 253.608 212.864 247.187C213.562 245.497 214.987 244.405 216.833 243.82C218.681 243.237 223.542 241.487 228.598 238.183C233.653 234.876 235.209 230.307 235.209 225.737C235.209 222.31 233.678 220.744 232.912 220.173C232.657 219.984 232.377 220.3 232.315 220.493C230.594 225.924 225.857 228.539 222.57 230.793C219.168 233.127 216.244 235.07 216.244 235.07C216.249 234.884 216.251 234.698 216.251 234.512V228.947C216.348 224.182 222.083 220.974 229.667 215.53C234.881 211.787 236.181 208.529 235.889 204.641C235.637 201.287 234.165 198.552 233.497 197.465C233.296 197.139 233.014 197.139 232.738 197.574C232.256 198.335 231.4 199.875 230.348 202.599C228.696 206.877 226.945 208.821 222.376 212.127C217.806 215.432 216.251 216.795 216.251 216.795V212.028C216.251 210.474 224.709 201.918 228.598 198.128C232.486 194.335 232.195 189.183 231.223 185.002C230.491 181.855 228.493 179.976 227.549 179.239C227.239 178.996 226.986 179.04 226.891 179.344C226.637 180.167 226.107 182.031 225.681 184.516C225.098 187.92 224.125 189.474 221.598 192.682C219.07 195.891 216.251 198.03 216.251 198.03V186.266C216.251 185.391 222.764 180.335 227.917 174.892C233.069 169.447 233.362 163.128 232.001 160.502C231.033 158.636 229.279 157.458 228.346 156.932C227.967 156.718 227.688 157.011 227.662 157.214C227.195 161.019 224.965 165.817 222.473 168.862C219.848 172.072 216.251 173.725 216.251 173.725V167.891C216.348 166.725 220.237 161.085 227.237 154.183C231.75 149.732 232.001 145.627 231.32 140.67C230.786 136.783 227.326 134.508 225.856 133.707C225.45 133.487 225.185 133.696 225.163 134.253C225.12 135.38 225.033 137.482 224.904 139.892C224.708 143.49 223.639 145.531 221.208 148.351C218.778 151.169 216.251 153.309 216.251 153.309V150.488C216.251 148.058 216.592 147.621 217.125 145.531C217.941 142.343 217.855 139.356 216.833 134.835C216.039 131.317 214.501 129.002 214.501 124.044C214.501 119.706 215.952 112.352 216.316 110.582C216.367 110.329 215.968 110.205 215.759 110.22C205.633 110.916 202.84 122.516 203.126 128.517C203.417 134.642 207.283 142.492 208.959 146.138C210.635 149.783 211.875 151.533 211.875 153.794V155.154C211.875 155.154 207.112 153.114 203.515 148.641C200.06 144.345 199.563 141.664 198.41 135.683C198.362 135.44 197.859 134.951 197.258 135.249C196.448 135.65 195.283 136.562 194.279 138.627C192.848 141.566 192.82 149.323 198.654 155.836C203.883 161.675 211.875 168.767 211.875 170.127V176.641C211.875 176.641 207.403 175.669 203.223 171.002C199.31 166.634 197.697 160.137 195.912 157.091C195.789 156.883 195.298 156.594 194.946 156.901C194.329 157.441 193.377 158.688 192.82 161.475C191.945 165.85 192.625 170.71 198.654 176.349C204.682 181.988 211.875 189.181 211.875 190.445V198.904C211.875 198.904 208.667 197.543 205.363 193.266C202.174 189.14 201.066 186.01 199.596 180.734C199.541 180.54 199.169 180.184 198.764 180.372C197.964 180.74 196.608 181.671 195.639 183.933C194.181 187.335 193.89 192.779 198.362 198.128C202.834 203.474 211.875 211.933 211.875 213.002V217.376C211.875 217.376 207.403 213.683 203.126 210.28C198.93 206.944 196.044 203.886 193.183 197.166C193.127 197.034 192.898 196.888 192.719 197.131C192.177 197.865 191.061 199.705 190.779 202.696C190.292 207.849 192.431 213.294 197.389 216.404C202.348 219.516 211.875 224.28 211.875 232.155V234.992C211.875 236.93 211.542 238.931 210.914 240.938C210.914 240.938 210.029 238.96 208.473 236.919C206.917 234.876 203.321 230.891 198.848 226.418C194.633 222.203 192.405 218.767 191.429 216.024C191.37 215.857 191.149 215.64 190.967 215.856C190.42 216.507 189.271 218.13 188.834 220.683C188.251 224.085 188.251 230.891 194.279 235.266C199.914 239.354 204.401 241.54 205.945 243.238C207.89 245.376 208.087 246.963 206.481 249.477C203.585 253.429 199.659 257.067 195.035 259.896C185.371 265.805 178.72 268.849 144.184 267.983C142.263 267.948 141.293 267.909 139.032 267.909C136.772 267.909 135.802 267.948 133.88 267.983C99.3444 268.849 92.6936 265.805 83.0296 259.896C78.4061 257.067 74.4801 253.429 71.5845 249.477C69.9782 246.963 70.176 245.376 72.1199 243.238C73.6635 241.54 78.1519 239.354 83.7867 235.266C89.8139 230.891 89.8139 224.085 89.2316 220.683C88.7931 218.13 87.6443 216.507 87.0978 215.856C86.9159 215.64 86.6942 215.857 86.6346 216.024C85.6599 218.767 83.4316 222.203 79.218 226.418C74.7447 230.891 71.1476 234.876 69.5921 236.919C68.0359 238.96 67.1509 240.938 67.1509 240.938C66.5225 238.931 66.1897 236.93 66.1897 234.992V232.155C66.1897 224.28 75.7171 219.516 80.6758 216.404C85.6337 213.294 87.7714 207.849 87.2869 202.696C87.004 199.705 85.8879 197.865 85.3469 197.131C85.1666 196.888 84.937 197.034 84.8814 197.166C82.0207 203.886 79.1346 206.944 74.9393 210.28C70.6614 213.683 66.1897 217.376 66.1897 217.376V213.002C66.1897 211.933 75.2309 203.474 79.7034 198.128C84.1759 192.779 83.8836 187.335 82.4259 183.933C81.4567 181.671 80.1006 180.74 79.3006 180.372C78.8971 180.184 78.5237 180.54 78.4697 180.734C76.9984 186.01 75.8918 189.14 72.703 193.266C69.3975 197.543 66.1897 198.904 66.1897 198.904V190.445C66.1897 189.181 73.3831 181.988 79.4126 176.349C85.439 170.71 86.1199 165.85 85.2444 161.475C84.6883 158.688 83.7366 157.441 83.1186 156.901C82.7667 156.594 82.2757 156.883 82.1534 157.091C80.3691 160.137 78.7557 166.634 74.8424 171.002C70.6614 175.669 66.1897 176.641 66.1897 176.641V170.127C66.1897 168.767 74.1838 161.675 79.4126 155.836C85.2444 149.323 85.2166 141.566 83.7867 138.627C82.781 136.562 81.6171 135.65 80.8076 135.249C80.2063 134.951 79.7026 135.44 79.6557 135.683C78.5015 141.664 78.0057 144.345 74.5508 148.641C70.9538 153.114 66.1897 155.154 66.1897 155.154V153.794C66.1897 151.533 67.4289 149.783 69.106 146.138C70.783 142.492 74.647 134.642 74.9393 128.517C75.2253 122.516 72.4314 110.916 62.3066 110.22C62.0969 110.205 61.6973 110.329 61.7505 110.582C62.1128 112.352 63.5641 119.706 63.5641 124.044C63.5641 129.002 62.0254 131.317 61.2317 134.835C60.2101 139.356 60.1243 142.343 60.9402 145.531C61.474 147.621 61.8149 148.058 61.8149 150.488V153.309C61.8149 153.309 59.287 151.169 56.8569 148.351C54.4268 145.531 53.3568 143.49 53.1621 139.892C53.0318 137.482 52.9452 135.38 52.9016 134.253C52.8809 133.696 52.6156 133.487 52.2096 133.707C50.7384 134.508 47.2787 136.783 46.7449 140.67C46.0648 145.627 46.3151 149.732 50.8289 154.183C57.8293 161.085 61.7179 166.725 61.8149 167.891V173.725C61.8149 173.725 58.2178 172.072 55.5922 168.862C53.1002 165.817 50.8702 161.019 50.4023 157.214C50.3769 157.011 50.0989 156.718 49.7191 156.932C48.7865 157.458 47.0324 158.636 46.0649 160.502C44.704 163.128 44.9948 169.447 50.1473 174.892C55.3007 180.335 61.8149 185.391 61.8149 186.266V198.03C61.8149 198.03 58.9947 195.891 56.4669 192.682C53.9398 189.474 52.9675 187.92 52.3844 184.516C51.9578 182.031 51.4287 180.167 51.1737 179.344C51.0792 179.04 50.8265 178.996 50.5167 179.239C49.5714 179.976 47.5742 181.855 46.8418 185.002C45.8702 189.183 45.5787 194.335 49.4673 198.128C53.356 201.918 61.8149 210.474 61.8149 212.028V216.795C61.8149 216.795 60.2586 215.432 55.6899 212.127C51.1197 208.821 49.3696 206.877 47.7172 202.599C46.6646 199.875 45.809 198.335 45.3276 197.574C45.052 197.139 44.77 197.139 44.5682 197.465C43.9001 198.552 42.428 201.287 42.177 204.641C41.8839 208.529 43.1835 211.787 48.3972 215.53C55.9815 220.974 61.7179 224.182 61.8149 228.947V234.512C61.8149 234.698 61.8164 234.884 61.8212 235.07C61.8212 235.07 58.8986 233.127 55.4953 230.793C52.208 228.539 47.471 225.924 45.7503 220.493C45.6883 220.3 45.4087 219.984 45.1537 220.173C44.3879 220.744 42.8562 222.31 42.8562 225.737C42.8562 230.307 44.4117 234.876 49.4673 238.183C54.5229 241.487 59.3847 243.237 61.2317 243.82C63.078 244.405 64.5039 245.497 65.2006 247.187C68.6023 253.608 74.2712 259.361 80.8458 263.386C90.706 269.424 97.9184 272.476 125.787 272.276C125.787 272.276 123.258 274.058 119.272 277.168C115.287 280.279 111.884 283.099 111.98 286.307C112.078 289.516 113.244 291.169 114.897 291.849C116.55 292.529 119.662 292.918 121.412 290.487C123.162 288.057 126.24 282.694 129.87 279.209C135.034 274.253 136.845 274.069 139.032 274.069Z" fill="#2D9838"/>
<path d="M139.032 264.479C139.032 264.479 136.554 261.78 133.855 259.74C131.157 257.7 126.709 256.314 119.272 257.262C111.834 258.209 102.449 259.485 97.9812 257.333C92.0747 254.491 90.9077 250.554 90.9077 243.917V137.743L90.8489 137.605L79.4595 114.127C80.6995 113.543 81.7927 114.492 82.6689 114.856C83.5427 115.221 85.8036 115.221 88.5745 114.856C91.3455 114.492 92.0016 116.826 92.0016 118.648C92.0016 120.471 90.6162 120.981 90.6162 120.981C90.0323 119.523 87.8461 119.45 86.8245 120.763C85.8044 122.075 86.8245 123.388 88.7199 125.502C90.6162 127.617 93.3863 128.419 95.2095 127.908C97.0326 127.399 96.9429 125.575 96.3773 124.773C95.5026 123.533 94.9179 122.585 95.2826 120.617C95.6488 118.648 97.6157 117.189 100.022 118.137C102.427 119.086 102.501 121.492 102.427 123.461C102.37 125.053 105.855 123.388 107.241 121.929C108.626 120.471 108.991 118.575 108.699 116.461C108.408 114.346 106.439 113.689 105.271 114.127C104.106 114.565 103.012 116.607 103.012 116.607C99.8043 115.367 100.095 112.596 100.751 111.065C101.408 109.532 103.376 108.367 104.543 107.638C105.711 106.909 106.074 105.961 106.512 105.013C106.949 104.064 107.897 103.336 107.897 103.336C108.845 103.336 110.085 103.846 110.887 104.721C111.69 105.596 113.074 105.815 115.991 106.034C118.907 106.251 119.636 107.784 119.709 109.461C119.782 111.139 118.397 112.086 118.397 112.086C117.594 110.482 114.605 111.284 113.439 112.742C112.272 114.2 113.147 116.971 115.044 119.158C116.939 121.346 120.73 120.908 121.532 120.325C122.335 119.742 121.095 117.773 121.095 116.315C121.095 114.856 122.043 112.889 123.793 112.304C125.543 111.721 127.074 112.377 127.949 113.617C128.824 114.858 128.897 116.607 128.386 118.794C127.876 120.981 130.865 120.763 132.397 119.742C134.083 118.616 135.678 116.023 136.335 111.575C136.741 108.82 135.505 108.144 134.219 108.367C132.543 108.658 132.251 111.065 132.251 111.065C132.251 111.065 128.413 110.418 128.751 106.471C128.97 103.919 131.011 102.825 132.615 102.533C134.219 102.242 136.142 101.596 136.99 100.492C137.72 99.5441 139.032 99.0341 139.032 99.0341C139.032 99.0341 140.345 99.5441 141.073 100.492C141.923 101.596 143.845 102.242 145.449 102.533C147.054 102.825 149.095 103.919 149.314 106.471C149.652 110.418 145.814 111.065 145.814 111.065C145.814 111.065 145.521 108.658 143.845 108.367C142.56 108.144 141.323 108.82 141.73 111.575C142.386 116.023 143.981 118.616 145.668 119.742C147.2 120.763 150.188 120.981 149.678 118.794C149.167 116.607 149.241 114.858 150.115 113.617C150.991 112.377 152.521 111.721 154.272 112.304C156.022 112.889 156.97 114.856 156.97 116.315C156.97 117.773 155.73 119.742 156.532 120.325C157.335 120.908 161.126 121.346 163.022 119.158C164.917 116.971 165.793 114.2 164.626 112.742C163.46 111.284 160.47 110.482 159.668 112.086C159.668 112.086 158.283 111.139 158.355 109.461C158.428 107.784 159.157 106.251 162.073 106.034C164.991 105.815 166.375 105.596 167.178 104.721C167.98 103.846 169.22 103.336 170.168 103.336C170.168 103.336 171.115 104.064 171.553 105.013C171.989 105.961 172.355 106.909 173.522 107.638C174.688 108.367 176.657 109.532 177.313 111.065C177.97 112.596 178.26 115.367 175.053 116.607C175.053 116.607 173.959 114.565 172.792 114.127C171.626 113.689 169.656 114.346 169.366 116.461C169.074 118.575 169.439 120.471 170.824 121.929C172.209 123.388 175.695 125.053 175.636 123.461C175.563 121.492 175.636 119.086 178.042 118.137C180.449 117.189 182.417 118.648 182.782 120.617C183.148 122.585 182.563 123.533 181.688 124.773C181.123 125.575 181.032 127.399 182.855 127.908C184.678 128.419 187.449 127.617 189.345 125.502C191.24 123.388 192.261 122.075 191.24 120.763C190.219 119.45 188.032 119.523 187.449 120.981C187.449 120.981 186.063 120.471 186.063 118.648C186.063 116.826 186.719 114.492 189.49 114.856C192.261 115.221 194.521 115.221 195.396 114.856C196.271 114.492 197.365 113.543 198.605 114.127L187.216 137.605L187.157 137.743V243.917C187.157 250.554 185.99 254.491 180.084 257.333C175.617 259.485 166.23 258.209 158.793 257.262C151.354 256.314 146.908 257.7 144.21 259.74C141.512 261.78 139.032 264.479 139.032 264.479Z" fill="#CEAA29"/>
<path d="M139.033 128.215C135.342 128.215 131.789 128.371 128.462 128.657C125.748 128.892 122.292 129.329 119.929 129.732C110.085 131.408 106.22 132.721 101.991 135.347C99.2479 137.048 98.4281 138.743 98.204 139.382L98.1953 139.429H179.871L179.862 139.382C179.638 138.743 178.818 137.048 176.074 135.347C171.845 132.721 167.98 131.408 158.138 129.732C155.772 129.329 152.319 128.892 149.604 128.657C146.277 128.371 142.724 128.215 139.033 128.215Z" fill="#231F20"/>
<path d="M182.563 144.02V243.917C182.563 250.06 181.502 251.553 178.091 253.194C174.972 254.697 165.595 253.5 159.993 252.785L159.374 252.704C151.719 251.73 145.681 252.862 141.438 256.077C140.591 256.718 139.779 257.406 139.033 258.074C138.288 257.406 137.474 256.718 136.628 256.077C132.381 252.864 126.346 251.73 118.692 252.704L118.072 252.785C112.469 253.5 103.093 254.697 99.9731 253.194C96.5643 251.553 95.5029 250.06 95.5029 243.917V144.02H182.563Z" fill="#EF2D2C"/>
<path d="M138.995 203.919L108.695 247.193C108.537 247.416 108.228 247.47 108.003 247.315L105.16 245.323C104.936 245.166 104.881 244.857 105.038 244.633L136.212 200.113L136.241 200.059L117.815 174.962C117.815 174.962 116.373 175.952 112.14 179.059C110.455 180.298 108.433 181.623 107.001 182.223C105.496 182.854 103.061 182.788 101.856 181.59C99.853 179.602 96.4656 174.295 99.111 168.822C99.111 168.822 101.296 169.925 102.892 170.992C104.237 171.889 104.821 170.663 104.584 168.122C104.348 165.581 104.365 164.654 104.365 164.654C104.365 164.654 105.644 165.036 107.625 165.889C109.597 166.735 111.428 167.766 111.004 166.053C110.111 162.436 109.839 160.328 109.839 160.328C109.839 160.328 111.767 161.22 114.952 163.155C116.459 164.071 116.024 162.015 115.805 159.882C115.587 157.736 115.605 156.402 115.605 156.402C115.605 156.402 116.494 156.663 118.847 157.649C121.2 158.636 122.547 158.444 122.092 156.894C121.554 155.051 121.154 152.636 121.154 152.636C127.17 151.751 131.218 156.572 132.516 159.079C133.297 160.588 132.63 162.93 131.579 164.177C130.578 165.364 128.707 166.896 127.02 168.133C122.789 171.242 121.412 172.32 121.412 172.32L138.947 196.203L138.982 196.154L152.85 176.35C152.85 176.35 151.147 173.645 150.713 167.911C150.31 162.603 152.272 158.944 156.126 155.857C159.979 152.769 162.632 152.668 162.632 152.668C160.487 156.238 159.19 159.871 158.98 161.95C158.91 162.648 158.705 163.997 159.529 164.472C160.229 164.872 161.035 164.099 162.07 163.133C163.531 161.766 170.444 155.112 170.444 155.112H170.445C170.445 155.112 166.558 163.885 165.772 165.727C165.217 167.028 164.768 168.05 165.385 168.569C166.111 169.183 167.31 168.53 167.94 168.224C169.822 167.316 172.792 164.856 175.414 161.618C175.414 161.618 176.227 164.145 174.642 168.823C173.06 173.499 170.293 176.594 165.167 178.031C159.63 179.584 156.506 178.91 156.506 178.91L141.788 199.929L141.738 200.003L174.458 244.565C174.621 244.785 174.572 245.096 174.352 245.259L171.553 247.313C171.334 247.474 171.023 247.426 170.86 247.206L139.036 203.863L138.995 203.919Z" fill="#231F20"/>
<path d="M360.358 203.529C374.025 203.912 378.732 206.372 379.719 208.45C380.745 210.62 379.28 211.403 375.998 213.919C372.716 216.435 372.388 219.169 374.272 222.871L382.987 240.94C385.382 245.65 386.936 247.387 389.451 247.278C391.967 247.169 393.826 244.762 395.47 241.65L405.558 222.355C407.666 217.449 406.173 213.931 403.56 212.826C400.717 211.622 399.077 210.091 400.278 207.795C401.429 205.597 406.842 203.966 413.185 203.529C419.529 203.09 431.559 203.2 435.388 204.403C439.216 205.606 440.529 207.357 440.529 209.434C440.529 211.513 436.264 212.387 432.655 213.154C429.044 213.919 426.748 215.559 424.648 219.793L390.609 284.89C387.701 290.042 384.636 292.745 379.826 292.669C372.935 292.559 371.624 291.247 366.193 281.125L338.846 224.427C335.967 218.294 333.888 216.435 329.624 215.45C325.357 214.465 323.39 211.731 326.999 208.669C330.241 205.917 336.952 202.873 360.358 203.529Z" fill="#231F20"/>
<path d="M355.855 87.1507L313.602 160.054L314.014 159.936L352.249 148.973L352.415 148.922L247.153 330.538L247.127 330.464L237.51 291.337L237.387 291.552L203.554 349.924L203.409 350.173L214.902 356.835L173.088 374.57L167.691 329.472L179.184 336.132L179.377 335.801L245.589 221.562L245.695 222.013L255.206 260.704L255.226 260.773L295.885 190.619L260.618 200.731L257.072 201.748L323.948 86.3611L324.026 86.2284C326.74 86.4763 329.513 86.6749 332.344 86.8194C340.441 87.2365 348.293 87.3207 355.908 87.0705L355.855 87.1507Z" fill="#EF2D2C"/>
<path d="M354.624 265.324C351.665 268.158 344.615 283.67 340.672 292.418C336.727 301.17 335.373 304.251 333.031 304.251C330.689 304.251 327.534 297.298 322.925 286.257C317.01 272.085 315.382 266.19 309.74 264.813C304.686 263.583 298.894 264.322 293.595 266.047C288.295 267.771 286.939 270.483 286.939 274.427C286.939 278.369 288.419 279.85 291.007 281.204C293.595 282.561 294.704 283.423 294.771 289.462V331.857C294.704 335.8 292.857 336.662 290.515 338.263C288.172 339.865 286.2 342.085 286.447 345.288C286.695 348.493 289.527 352.067 294.582 352.315C299.634 352.56 305.303 353.176 310.233 351.328C313.233 350.202 315.163 348.123 315.038 344.425C314.945 341.591 313.682 339.989 311.465 338.634C309.247 337.279 308.384 336.292 308.334 333.582V315.096C308.28 307.456 312.039 309.443 314.424 315.958C318.119 326.064 323.543 339.619 325.637 343.811C327.731 348.001 329.457 345.659 331.923 339.497C334.387 333.335 339.07 319.285 343.507 311.768C346.827 306.143 348.435 307.085 348.536 313.123V330.132C348.435 335.06 347.82 337.894 345.356 340.729C343.427 342.948 341.619 344.624 343.753 346.644C346.094 348.862 349.299 349.356 355.831 349.232C362.362 349.11 367.046 349.11 370.124 348.37C373.207 347.632 375.803 346.115 376.164 344.302C376.535 342.454 375.866 341.592 373.575 339.989C371.111 338.263 369.519 337.155 369.143 323.721V292.326L369.123 292.294C367.174 290.204 365.446 287.136 363.109 282.779L363.074 282.715L354.664 265.277L354.624 265.324Z" fill="#231F20"/>
<path d="M432.77 216.714C434.399 216.837 436.041 216.873 437.66 216.873C446.781 216.873 452.326 214.534 456.023 210.096C459.227 206.251 458.377 200.941 454.174 199.497C450.231 198.141 448.875 196.786 447.766 192.843C446.656 188.899 447.766 182.367 443.944 173.371C440.125 164.374 432.36 161.909 429.772 160.308C427.185 158.705 429.28 156.364 432.607 153.899C435.439 151.801 442.661 145.763 442.345 131.715C441.974 115.325 430.513 108.423 422.811 105.857C415.195 103.32 406.841 103.67 396.779 104.545C386.716 105.42 380.483 105.311 373.592 104.763C365.952 104.156 360.796 103.779 356.201 106.295C351.608 108.81 350.952 111.327 351.17 113.951C351.407 116.785 352.702 117.889 356.419 120.185C359.286 121.956 361.342 124.67 361.415 129.045V183.368C361.376 189.762 360.513 193.951 356.817 196.909C355.208 198.195 353.996 199.086 353.132 199.944L353.201 199.942C355.435 199.928 357.848 199.956 360.456 200.031C373.51 200.397 380.847 202.66 382.879 206.952C384.217 209.773 383.429 211.809 382.002 213.436L381.953 213.498C385.798 213.374 389.062 213.077 391.322 212.684C393.6 212.289 395.373 211.805 396.748 211.257L396.718 211.192C396.532 210.673 396.378 210.009 396.378 209.236C396.378 208.344 396.582 207.304 397.18 206.17C397.774 205.031 398.754 204.099 399.964 203.336L400.014 203.308C398.993 202.185 397.404 201.167 395.637 199.62C393.129 197.427 392.309 193.212 392.309 191.487C392.309 189.762 392.309 181.012 392.309 174.48C392.309 167.948 393.294 166.099 397.979 166.346C402.66 166.593 404.878 169.551 406.851 174.356C408.593 178.605 410.721 189.112 413.66 200.005L413.724 199.987C419.678 199.645 431.827 199.614 436.437 201.064C442.712 203.037 444.029 206.705 444.029 209.434C444.029 214.319 438.208 215.553 433.529 216.545L433.38 216.577C433.221 216.61 433.069 216.644 432.92 216.682L432.77 216.714ZM397.107 153.325C392.842 153.325 391.529 151.357 391.529 148.404V131.341C391.638 126.748 391.748 123.794 393.389 121.497C395.03 119.201 396.123 119.201 398.858 119.201C401.591 119.201 404.436 120.185 406.404 124.341C408.373 128.497 408.482 130.357 408.482 135.498C408.482 140.638 408.283 146.977 405.31 149.826C402.687 152.341 401.372 153.325 397.107 153.325Z" fill="#231F20"/>
</svg>
