<svg width="500" height="500" viewBox="0 0 500 500" fill="none" xmlns="http://www.w3.org/2000/svg">
<path d="M129.983 229.265C135.96 218.72 143.273 209.03 151.681 200.418L53.6424 95.2894C58.5598 114.382 65.4206 131.991 74.7927 149.86C89.7818 178.45 109.164 204.656 129.983 229.265ZM237.628 12.797H247.322V2.60298e-05H256.044V12.797H265.742V21.5201H256.044V27.864C259.15 28.9479 261.723 31.1561 263.288 33.9994C265.157 32.4041 267.587 31.4396 270.238 31.4396C276.161 31.4396 280.964 36.2402 280.964 42.1652C280.964 42.4098 280.957 42.6544 280.939 42.8941C282.591 41.8588 284.541 41.2619 286.629 41.2619C290.028 41.2619 293.056 42.8413 295.02 45.3059C295.785 40.1335 300.243 36.1631 305.63 36.1631C311.553 36.1631 316.355 40.9666 316.355 46.8887C316.355 48.1297 316.144 49.322 315.757 50.431C317.715 48.3097 320.518 46.9805 323.634 46.9805C329.278 46.9805 333.902 51.3378 334.328 56.8681C335.19 56.6464 336.092 56.5283 337.021 56.5283C342.947 56.5283 347.747 61.329 347.747 67.2518C347.747 68.3455 347.582 69.3961 347.282 70.389C351.662 71.7377 354.849 75.8192 354.849 80.6428C354.849 82.3333 354.459 83.9336 353.758 85.3545C356.528 87.2945 358.342 90.511 358.342 94.1471C358.342 96.6297 357.497 98.9144 356.078 100.735C358.254 102.698 359.624 105.54 359.624 108.7C359.624 112.854 357.262 116.457 353.803 118.237C354.314 119.462 354.452 120.998 354.205 122.743C353.737 126.068 351.624 129.091 347.476 130.095C342.86 131.216 338.096 131.852 333.338 131.787C333.852 138.132 328.993 145.037 322.701 145.166L328.472 154.987L318.38 157.268C321.824 160.12 322.486 165.671 320.979 169.721C320.24 171.712 318.975 173.345 317.43 174.687C361.476 198.216 391.463 244.64 391.463 298.054C391.463 306.769 390.663 315.287 389.139 323.558C390.149 324.185 391.146 324.822 392.129 325.467C403.544 332.96 413.794 342.084 422.967 352.182V352.189C426.626 356.239 430.396 360.352 434.358 364.577C438.227 368.704 442.154 372.785 446.161 376.82C453.144 383.844 460.214 390.732 467.594 397.349C443.929 403.515 423.224 413.655 403.192 425.727L457.714 481.023L437.421 494.365L382.681 438.776C378.994 441.219 375.307 443.708 371.6 446.226C358.261 455.279 344.838 464.393 330.57 472.617C307.756 485.769 285.39 494.854 264.524 498.386C246.199 501.485 227.519 500.442 210.498 492.442C194.575 475.202 178.401 458.881 158.147 446.639C141.878 443.558 127.834 427.043 119.871 413.93L119.795 413.793C117.113 408.437 113.532 402.916 109.08 397.246C98.541 383.835 85.9685 371.457 71.5936 362.196C62.2306 356.161 57.341 351.541 53.5645 340.851C50.8164 333.076 47.2269 325.633 44.394 317.871C42.3199 312.195 40.5008 306.617 39.198 301.738C34.8267 285.357 36.8445 268.631 40.3056 252.228C41.6862 245.697 43.0877 239.047 43.8249 231.905C44.5927 224.498 44.066 216.97 41.8252 209.849C30.1615 172.069 39.4516 129.213 48.7604 91.2294C34.9268 93.8615 27.904 76.0089 37.2753 65.9879L44.4058 58.3592C57.5522 44.3012 77.0565 60.5736 67.5371 75.3432L169.582 184.936C174.775 181.159 180.238 177.728 185.936 174.686C184.388 173.342 183.124 171.71 182.384 169.719C180.879 165.669 181.539 160.118 184.985 157.267L174.893 154.986L180.664 145.164C174.371 145.035 169.514 138.13 170.027 131.785C165.268 131.85 160.507 131.215 155.888 130.091C151.74 129.089 149.627 126.068 149.16 122.741C148.914 120.996 149.049 119.459 149.56 118.237C146.104 116.456 143.739 112.854 143.739 108.696C143.739 105.538 145.109 102.696 147.285 100.733C145.866 98.9144 145.02 96.6277 145.02 94.145C145.02 90.5075 146.833 87.2931 149.602 85.3525C148.905 83.9301 148.514 82.3313 148.514 80.6414C148.514 75.8171 151.699 71.7356 156.081 70.3855C155.778 69.3947 155.613 68.3413 155.613 67.2518C155.613 61.329 160.417 56.5248 166.338 56.5248C167.271 56.5248 168.173 56.6443 169.033 56.866C169.462 51.3357 174.088 46.9784 179.726 46.9784C182.841 46.9784 185.646 48.3076 187.606 50.4297C187.218 49.3207 187.008 48.1283 187.008 46.8866C187.008 40.9645 191.809 36.1611 197.733 36.1611C203.117 36.1611 207.575 40.1314 208.343 45.3045C210.307 42.8399 213.332 41.2584 216.73 41.2584C218.822 41.2584 220.772 41.8567 222.424 42.892C222.406 42.6529 222.4 42.4098 222.4 42.1631C222.4 36.2403 227.199 31.4362 233.125 31.4362C235.777 31.4362 238.206 32.4027 240.079 33.9994C241.639 31.1561 244.213 28.9465 247.316 27.864V21.5186H237.621V12.797H237.628Z" fill="black"/>
<path d="M82.9736 339.26C66.2744 320.411 71.0119 290.171 74.8676 265.596C75.4346 261.973 75.9842 258.47 76.4455 255.128C77.3697 244.064 77.5066 232.319 76.472 220.86C75.5562 210.756 73.7308 200.871 70.7284 191.863L70.7145 191.804C69.8842 185.916 69.5666 179.63 69.6514 173.327C69.7466 166.395 70.3254 159.446 71.237 152.976L71.3308 152.328L71.0591 151.813C63.1671 136.767 54.8672 120.04 50.5467 103.495C43.0313 137.227 35.8674 174.731 45.86 208.595C48.2773 216.273 48.8547 224.353 48.0258 232.337C47.2649 239.71 45.837 246.461 44.439 253.086C41.8389 265.41 40.0393 275.903 41.7951 286.519C44.2035 301.125 53.5387 314.28 64.019 324.319C69.9203 330.087 76.2538 335.105 82.9736 339.26Z" fill="#0058B1"/>
<path d="M318.848 144.401C318.757 144.362 318.669 144.323 318.577 144.282C308.426 139.686 297.686 136.222 286.531 133.904C263.914 129.208 239.452 129.208 216.836 133.904C205.677 136.222 194.941 139.686 184.791 144.282C184.699 144.322 184.61 144.362 184.52 144.401L195.184 145.718L195.99 145.818L195.481 146.45L188.123 155.546C197.751 151.243 207.874 147.891 218.371 145.607C240.23 140.848 263.139 140.864 284.999 145.621C295.355 147.875 305.496 151.192 315.246 155.548L307.891 146.45L307.38 145.818L308.186 145.718L318.848 144.401Z" fill="#E6CF46"/>
<path d="M107.452 350.006C104.123 344.47 101.446 338.266 99.247 331.886C96.904 325.096 95.1043 318.097 93.65 311.501C90.4829 297.638 91.6885 283.662 92.9052 269.599C93.6271 261.229 94.3546 252.822 94.1628 244.42C93.789 240.845 93.3318 237.227 92.8628 233.579C90.9478 218.506 88.9598 202.888 92.9809 188.548C85.3473 177.137 78.2502 165.385 71.8507 153.315C71.0336 159.442 70.3992 166.879 70.3116 173.333C70.229 179.592 70.5423 185.833 71.3664 191.685C74.3786 200.737 76.2116 210.659 77.1288 220.799C78.1675 232.31 78.032 244.092 77.1058 255.183L77.1037 255.201C76.6479 258.521 76.0934 262.046 75.523 265.697C71.5721 290.884 66.6846 322.058 85.0722 340.523C90.7171 343.826 96.6253 346.53 102.771 348.572C104.318 349.094 105.876 349.572 107.452 350.006Z" fill="white"/>
<path d="M123.043 352.816C115.874 335.999 111.904 317.488 111.904 298.054C111.904 274.959 117.512 253.175 127.434 233.981C115.385 219.766 103.929 204.84 93.4687 189.272C89.6853 203.336 91.6378 218.681 93.5236 233.497C93.9919 237.165 94.4526 240.803 94.823 244.361V244.388C95.0182 252.851 94.2914 261.268 93.5653 269.653C92.3577 283.671 91.1535 297.597 94.2963 311.354V311.357C95.745 317.921 97.5391 324.893 99.8759 331.667C102.143 338.242 104.916 344.626 108.377 350.26C113.143 351.517 118.034 352.38 123.043 352.816Z" fill="#0058B1"/>
<path d="M229.882 474.783C228.53 480.888 226.569 486.973 224.02 492.987C236.302 496.368 249.689 496.614 263.83 494.22C284.189 490.777 306.092 481.867 328.476 468.966C342.603 460.818 355.963 451.754 369.237 442.74C397.252 423.722 424.692 405.025 458.81 395.337C454.873 391.707 451.087 387.844 447.32 384.003C403.597 384.905 369.037 409.2 334.695 433.352C331.194 435.814 327.694 438.271 324.148 440.733L324.134 440.747C309.701 449.44 294.926 457.948 279.348 464.283C263.812 470.593 247.478 474.747 229.882 474.783Z" fill="#0058B1"/>
<path d="M232.104 454.338C232.136 460.92 231.436 467.533 230.026 474.117C247.474 474.061 263.678 469.934 279.098 463.666C294.637 457.349 309.38 448.86 323.786 440.18C327.272 437.761 330.789 435.285 334.314 432.807C368.575 408.714 403.055 384.478 446.682 383.355C445.513 382.164 444.344 380.971 443.171 379.792C439.418 376.013 435.77 372.228 432.193 368.432C419.798 369.355 408.322 372.137 397.329 376.108C386.135 380.154 375.442 385.436 364.776 391.246C343.923 404.45 322.743 417.697 300.693 428.919C278.859 440.039 256.171 449.177 232.104 454.338Z" fill="white"/>
<path d="M226.632 424.353C229.646 432.472 231.396 440.799 231.928 449.208C232.022 450.691 232.075 452.177 232.097 453.663C256.048 448.512 278.644 439.406 300.394 428.328C322.426 417.109 343.588 403.876 364.427 390.683L364.444 390.675C375.142 384.841 385.871 379.545 397.103 375.485C407.991 371.549 419.351 368.778 431.611 367.812L431.287 367.467C427.523 363.452 423.699 359.281 419.85 355.016L419.843 355.02C417.907 352.889 415.921 350.801 413.882 348.763C365.607 350.541 325.134 375.284 285.728 399.376L284.834 399.923L284.812 399.936L284.087 400.313C265.513 409.862 247.08 419.341 226.632 424.353Z" fill="#0058B1"/>
<path d="M219.766 409.867C222.406 414.406 224.615 419.029 226.396 423.727C246.798 418.74 265.221 409.268 283.781 399.723L284.5 399.353L285.387 398.814C324.697 374.778 365.068 350.098 413.245 348.13C409.576 344.495 405.742 341.024 401.738 337.76C389.09 335.555 376.438 335.971 364.272 338.203C350.215 340.784 336.799 345.792 324.765 351.999L324.75 352.006C309.416 358.834 295.066 368.306 280.703 377.788C261.273 390.624 241.805 403.476 219.766 409.867Z" fill="white"/>
<path d="M197.072 383.545C204.874 389.693 211.864 397.331 217.699 406.485C218.294 407.412 218.864 408.345 219.417 409.282C241.428 402.933 260.9 390.073 280.338 377.235C294.717 367.742 309.08 358.256 324.461 351.407L324.465 351.404C336.55 345.175 350.025 340.146 364.152 337.552C376.019 335.372 388.343 334.914 400.688 336.91C397.188 334.108 393.565 331.463 389.811 328.999C386.621 326.907 383.445 325.012 380.304 323.143C376.906 321.118 373.55 319.118 370.378 317.002C368.578 315.801 366.825 314.586 365.099 313.35C316.996 308.946 278.921 334.417 241.921 359.179C236.794 362.608 231.692 366.028 226.586 369.348L226.569 369.358C217.068 374.692 207.403 379.971 197.072 383.545Z" fill="#0058B1"/>
<path d="M179.228 372.64C180.571 373.256 181.899 373.904 183.21 374.588C187.819 376.989 192.249 379.81 196.448 383.056C206.895 379.499 216.652 374.168 226.241 368.781C231.344 365.464 236.439 362.052 241.555 358.63C278.366 333.995 316.243 308.649 364.054 312.59C361.508 310.737 359.029 308.833 356.578 306.85C354.223 304.941 351.878 302.952 349.504 300.854C339.331 300.6 328.817 301.351 318.532 302.889C307.25 304.575 296.243 307.206 286.26 310.505L286.239 310.512C267.375 315.449 251.104 326.886 234.808 338.344C225.956 344.566 217.096 350.791 207.811 355.992C198.592 362.062 188.376 366.464 179.228 372.64Z" fill="white"/>
<path d="M61.0909 327.358C55.0472 321.566 49.6017 314.84 45.3569 307.681C46.2602 310.516 47.2754 313.463 48.3587 316.432C51.1964 324.206 54.795 331.661 57.5452 339.446C61.0048 349.235 65.2871 353.109 73.8747 358.644C81.502 363.556 88.333 369.193 94.8985 375.472C101.584 372.144 108.374 369.609 115.351 367.686C122.441 365.729 129.614 364.57 136.746 364.326C151.183 363.834 165.472 366.468 178.52 372.32C187.754 366.01 198.131 361.58 207.466 355.425L207.487 355.415C216.748 350.228 225.589 344.013 234.424 337.801C250.763 326.315 267.08 314.847 286.052 309.875C296.069 306.565 307.112 303.924 318.433 302.231C328.486 300.73 338.764 299.98 348.74 300.171C346.909 298.533 345.06 296.825 343.183 295.048C339.968 291.995 336.845 288.844 333.845 285.572C331.042 282.516 328.341 279.36 325.764 276.09C304.359 275.871 283.411 281.55 264.255 290.892C249.006 298.325 234.734 307.615 221.504 318.217C207.501 329.432 194.415 339.509 177.72 346.795C167.899 351.076 157.507 354.274 146.404 356.077C130.44 358.665 115.394 357.278 101.429 352.573C86.32 347.784 72.708 339.174 61.0909 327.358Z" fill="#0058B1"/>
<path d="M213.05 488.985C215.308 490.03 217.611 490.946 219.958 491.741C225.931 477.809 228.604 463.512 227.713 449.477C226.829 435.462 222.392 421.68 214.145 408.751C205.455 395.121 194.087 385.018 181.259 378.338C167.627 371.239 152.342 368.01 136.878 368.539C130.094 368.771 123.256 369.88 116.473 371.754C110.256 373.469 104.177 375.68 98.1323 378.595C103.634 384 108.33 389.454 112.402 394.638C116.976 400.461 120.688 406.191 123.509 411.811C131.052 423.758 144.426 439.265 159.643 442.596C180.233 454.851 197.36 471.34 213.05 488.985Z" fill="white"/>
<path d="M447.802 479.981L438.295 486.228L388.128 435.289L397.625 428.913L447.802 479.981Z" fill="#E6CF46"/>
<path d="M59.1053 75.5791L164.519 188.791C161.655 191.078 158.884 193.481 156.206 195.986L51.2723 83.4649C48.1914 85.5251 44.4802 85.9629 41.5772 83.0598C37.8765 79.3612 38.3392 74.1248 41.9114 70.3025L49.0419 62.6738C52.6162 58.8515 58.0012 57.8321 61.704 61.5329C65.4034 65.2322 64.1568 70.1726 60.5825 73.9942L59.1053 75.5791Z" fill="#E6CF46"/>
<path d="M310.996 171.464C312.714 170.556 314.394 169.293 315.059 167.513C315.574 166.127 315.746 162.722 314.038 161.94C304.316 157.479 294.122 154.092 283.661 151.815C262.643 147.243 240.731 147.227 219.709 151.803C209.096 154.112 198.927 157.534 189.324 161.94C187.62 162.722 187.793 166.127 188.309 167.513C188.973 169.293 190.65 170.554 192.368 171.464C210.374 163.008 230.477 158.277 251.681 158.277C272.889 158.277 292.992 163.008 310.996 171.464Z" fill="#E6CF46"/>
<path d="M230.579 136.017C231.491 137.685 230.622 139.549 229.234 140.598C228.329 141.286 227.252 141.616 226.121 141.866L212.624 144.848C211.244 145.155 209.79 145.285 208.374 144.639C206.078 143.59 205.523 141.137 207.163 139.214C208.142 138.063 209.491 137.517 210.917 137.244L224.576 134.221C226.649 133.763 229.417 133.892 230.579 136.017Z" fill="black"/>
<path d="M224.611 134.677L210.987 137.679C209.695 137.962 208.437 138.396 207.497 139.498C206.047 141.197 206.529 143.311 208.554 144.239C209.832 144.822 211.241 144.737 212.529 144.452L226.043 141.459C227.04 141.251 228.03 140.929 228.857 140.334C230.107 139.438 231.005 137.809 230.227 136.292C229.185 134.257 226.516 134.26 224.611 134.677Z" fill="#CB1014"/>
<path d="M155.734 376.412C155.85 376.299 155.959 376.193 156.074 376.088C159.105 378.975 162.192 381.884 165.32 384.855C168.516 387.883 171.768 390.972 175.078 394.106C174.921 394.292 174.768 394.482 174.607 394.669C169.417 390.246 164.741 387.18 161.063 385.538C157.387 383.915 154.63 383.659 153.334 384.939C151.311 386.908 153.693 391.771 157.642 395.792C158.972 397.148 160.132 398.134 161.394 399.045C163.037 400.124 164.838 400.979 166.834 401.652C168.377 402.247 171.057 402.669 175.062 403.296C177.935 403.736 180.576 404.342 182.953 405.063C185.331 405.796 187.491 406.694 189.402 407.747C193.185 409.99 197.399 413.149 201.951 417.518C207.73 423.05 212.638 429.227 215.836 434.867C219.16 440.719 220.681 446.011 219.371 449.294C218.522 451.431 217.12 452.438 213.068 452.329C211.941 452.537 211.318 452.8 211.11 453.279C210.691 454.226 211.67 456.867 214.723 460.97C214.589 461.311 214.452 461.649 214.314 461.991C209.205 456.684 204.205 451.466 199.349 446.413C194.614 441.477 189.984 436.642 185.474 431.966C185.632 431.68 185.801 431.42 185.969 431.131C194.073 438.424 200.934 443.251 206.043 445.66C211.166 448.064 214.399 447.962 215.409 445.578C216.885 442.085 212.42 434.532 206.817 429.061C203.268 425.595 200.008 423.535 196.413 422.12C194.423 421.303 192.139 420.982 188.93 420.536C184.307 419.895 180.773 419.081 177.651 417.912C174.532 416.729 171.857 415.222 168.919 413.236C166.229 411.3 163.099 408.666 160.283 405.726C155.47 400.722 151.885 395.525 150.033 391.204C148.243 387.007 148.052 383.602 149.913 381.865C150.547 381.267 151.433 380.923 152.465 380.901C154.174 380.711 158.128 381.704 158.637 381.197C159.148 380.704 158.902 379.964 155.734 376.412Z" fill="#0058B1"/>
<path d="M251.685 46.5786C255.115 46.5786 257.915 43.7791 257.915 40.3501C257.915 36.9182 255.115 34.1208 251.685 34.1208C248.256 34.1208 245.456 36.9182 245.456 40.3501C245.456 43.7791 248.256 46.5786 251.685 46.5786Z" fill="#E6CF46"/>
<path d="M164.059 113.501C165.106 112.863 166.337 112.506 167.546 112.481C169.132 112.443 170.753 112.961 172.006 114.12C172.254 114.351 172.466 114.569 172.624 114.767C172.703 114.867 172.776 114.974 172.846 115.075C173.108 115.438 173.316 115.781 173.477 116.108C176.184 115.705 178.73 114.851 181.087 113.613C183.543 112.318 185.79 110.61 187.792 108.562C186.373 107.397 185.295 105.793 184.795 103.888C184.265 101.874 184.459 99.8373 185.214 98.0536C185.95 96.3228 187.228 94.8316 188.899 93.8317C189.051 91.5325 190.013 89.6189 191.434 88.2001C192.605 87.0292 194.068 86.2121 195.625 85.8015C195.696 85.7827 195.767 85.7646 195.836 85.7486C194.91 84.2714 194.376 82.5253 194.376 80.6554C194.376 76.4621 197.068 72.8961 200.821 71.5933C200.011 70.0862 199.554 68.363 199.554 66.5342C199.554 61.778 202.649 57.7486 206.931 56.3415C206.543 55.4716 206.272 54.5405 206.124 53.5684C204.159 56.0337 201.135 57.6145 197.738 57.6145C194.619 57.6145 191.815 56.2852 189.857 54.1618C190.242 55.2728 190.455 56.4645 190.455 57.7041C190.455 63.6269 185.654 68.4304 179.73 68.4304C178.8 68.4304 177.897 68.3116 177.034 68.0899C176.691 72.5425 173.624 76.2349 169.499 77.5023C169.802 78.4966 169.966 79.5499 169.966 80.6415C169.966 84.277 168.152 87.492 165.382 89.432C166.08 90.855 166.474 92.4546 166.474 94.1451C166.474 97.3074 165.102 100.147 162.928 102.11C164.344 103.927 165.193 106.215 165.193 108.698C165.194 110.427 164.784 112.057 164.059 113.501Z" fill="#CB1014"/>
<path d="M239.157 87.223C236.474 85.7416 234.653 82.8858 234.653 79.6061C234.653 76.0867 236.745 73.0565 239.752 71.6891C236.745 70.3209 234.653 67.2907 234.653 63.7713C234.653 59.0672 238.393 55.2359 243.062 55.0844C243.231 53.7358 243.713 52.4857 244.424 51.4046C243.34 50.6896 242.368 49.8182 241.537 48.8253C239.573 51.3031 236.533 52.8908 233.129 52.8908C231.041 52.8908 229.086 52.2905 227.439 51.2551C227.456 51.4962 227.463 51.7409 227.463 51.9861C227.463 56.741 224.368 60.7731 220.082 62.1801C220.674 63.5087 221.005 64.9825 221.005 66.534C221.005 71.5814 217.515 75.8158 212.815 76.9567C213.294 78.0934 213.554 79.3435 213.554 80.6553C213.554 84.8209 210.896 88.3674 207.185 89.6904C208.473 89.9773 209.681 90.5409 210.712 91.3351C212.251 92.5149 213.427 94.193 213.955 96.2066C214.533 98.3898 214.255 100.599 213.332 102.48C218.505 104.462 224.157 105.219 229.54 104.527C233.548 104.012 237.403 102.677 240.791 100.427C238.505 98.7803 237.016 96.0996 237.016 93.068C237.016 90.8403 237.822 88.8017 239.157 87.223Z" fill="#CB1014"/>
<path d="M260.308 55.0844C264.978 55.2359 268.713 59.0673 268.713 63.7713C268.713 67.2907 266.622 70.3209 263.615 71.6891C266.622 73.0565 268.713 76.0867 268.713 79.6061C268.713 82.8858 266.896 85.7416 264.21 87.223C265.544 88.8017 266.351 90.839 266.351 93.068C266.351 96.0996 264.862 98.7824 262.576 100.427C265.963 102.677 269.819 104.012 273.826 104.527C279.21 105.219 284.858 104.462 290.034 102.48C289.111 100.599 288.834 98.3898 289.408 96.2066C289.939 94.193 291.111 92.5149 292.651 91.3351C293.685 90.5409 294.89 89.9773 296.182 89.6904C292.467 88.3681 289.809 84.8209 289.809 80.6553C289.809 79.3435 290.073 78.0935 290.552 76.9567C285.852 75.8158 282.362 71.5814 282.362 66.534C282.362 64.9825 282.689 63.5087 283.284 62.1802C278.999 60.7731 275.9 56.7396 275.9 51.9862C275.9 51.7409 275.91 51.4963 275.929 51.2551C274.277 52.2905 272.326 52.8908 270.238 52.8908C266.833 52.8908 263.797 51.3031 261.833 48.8274C261.002 49.8182 260.03 50.6896 258.942 51.4046C259.66 52.4857 260.14 53.7358 260.308 55.0844Z" fill="#CB1014"/>
<path d="M339.31 113.501C338.261 112.863 337.028 112.506 335.821 112.481C334.236 112.443 332.616 112.961 331.363 114.12C331.109 114.351 330.902 114.569 330.743 114.767C330.666 114.867 330.588 114.974 330.521 115.075C330.257 115.438 330.053 115.781 329.891 116.108C327.18 115.705 324.634 114.851 322.282 113.613C319.82 112.318 317.573 110.61 315.577 108.562C316.992 107.397 318.07 105.793 318.573 103.888C319.102 101.874 318.908 99.8373 318.151 98.0536C317.418 96.3228 316.137 94.8316 314.468 93.8317C314.317 91.5325 313.351 89.6189 311.933 88.2001C310.764 87.0292 309.299 86.2121 307.742 85.8015C307.672 85.7827 307.602 85.7646 307.528 85.7486C308.457 84.2714 308.993 82.5253 308.993 80.6554C308.993 76.4621 306.299 72.8961 302.545 71.5933C303.355 70.0862 303.813 68.363 303.813 66.5342C303.813 61.778 300.721 57.7486 296.436 56.3415C296.823 55.4716 297.094 54.5405 297.242 53.5684C299.207 56.0337 302.232 57.6145 305.63 57.6145C308.746 57.6145 311.553 56.2852 313.511 54.1618C313.123 55.2728 312.912 56.4645 312.912 57.7041C312.912 63.6269 317.714 68.4304 323.637 68.4304C324.567 68.4304 325.472 68.3116 326.33 68.0899C326.676 72.5425 329.743 76.2349 333.87 77.5023C333.567 78.4966 333.402 79.5499 333.402 80.6415C333.402 84.277 335.215 87.492 337.986 89.432C337.289 90.855 336.895 92.4546 336.895 94.1451C336.895 97.3074 338.261 100.147 340.437 102.11C339.021 103.927 338.173 106.215 338.173 108.698C338.173 110.427 338.581 112.057 339.31 113.501Z" fill="#CB1014"/>
<path d="M251.685 59.1284C253.309 59.1284 254.632 57.8047 254.632 56.183C254.632 54.5598 253.309 53.2355 251.685 53.2355C250.062 53.2355 248.737 54.5598 248.737 56.183C248.737 57.8047 250.062 59.1284 251.685 59.1284Z" fill="#E6CF46"/>
<path d="M251.685 72.8066C253.309 72.8066 254.632 71.4843 254.632 69.8612C254.632 68.238 253.309 66.9144 251.685 66.9144C250.062 66.9144 248.737 68.238 248.737 69.8612C248.737 71.4843 250.062 72.8066 251.685 72.8066Z" fill="#E6CF46"/>
<path d="M243.346 75.5254C245.596 75.5254 247.424 77.3508 247.424 79.6049C247.424 79.6465 247.424 79.689 247.424 79.7313C245.769 80.6145 244.421 81.9972 243.579 83.6766C243.501 83.6815 243.424 83.6836 243.346 83.6836C241.093 83.6836 239.266 81.8561 239.266 79.6049C239.266 77.3508 241.093 75.5254 243.346 75.5254Z" fill="#E6CF46"/>
<path d="M243.346 59.6917C243.477 59.6917 243.607 59.6973 243.738 59.7091C244.314 61.0154 245.209 62.1515 246.318 63.0228C244.797 64.2186 243.688 65.9085 243.227 67.8506C241.03 67.7846 239.266 65.9842 239.266 63.7712C239.266 61.5192 241.093 59.6917 243.346 59.6917Z" fill="#E6CF46"/>
<path d="M233.129 48.3921C236.562 48.3921 239.357 45.594 239.357 42.1629C239.357 38.7317 236.562 35.9343 233.129 35.9343C229.699 35.9343 226.899 38.7317 226.899 42.1629C226.899 45.594 229.699 48.3921 233.129 48.3921Z" fill="#E6CF46"/>
<path d="M154.469 114.928C157.9 114.928 160.697 112.13 160.697 108.698C160.697 105.267 157.9 102.469 154.469 102.469C151.039 102.469 148.239 105.267 148.239 108.698C148.239 112.13 151.039 114.928 154.469 114.928Z" fill="#E6CF46"/>
<path d="M155.75 100.374C159.181 100.374 161.977 97.5766 161.977 94.1448C161.977 90.715 159.181 87.9162 155.75 87.9162C152.321 87.9162 149.521 90.715 149.521 94.1448C149.521 97.5766 152.321 100.374 155.75 100.374Z" fill="#E6CF46"/>
<path d="M159.243 86.8701C162.671 86.8701 165.468 84.0706 165.468 80.6415C165.468 77.2083 162.673 74.4123 159.243 74.4123C155.81 74.4123 153.014 77.2083 153.014 80.6415C153.014 84.0706 155.811 86.8701 159.243 86.8701Z" fill="#E6CF46"/>
<path d="M166.345 73.4805C169.775 73.4805 172.575 70.683 172.575 67.2512C172.575 63.8194 169.775 61.0226 166.345 61.0226C162.914 61.0226 160.117 63.8194 160.117 67.2512C160.117 70.683 162.914 73.4805 166.345 73.4805Z" fill="#E6CF46"/>
<path d="M179.731 63.9331C183.162 63.9331 185.96 61.1371 185.96 57.7038C185.96 54.2748 183.162 51.4753 179.731 51.4753C176.301 51.4753 173.502 54.2748 173.502 57.7038C173.502 61.1371 176.301 63.9331 179.731 63.9331Z" fill="#E6CF46"/>
<path d="M197.74 53.1157C201.17 53.1157 203.97 50.3203 203.97 46.8864C203.97 43.4574 201.17 40.6592 197.74 40.6592C194.309 40.6592 191.51 43.4574 191.51 46.8864C191.51 50.3203 194.309 53.1157 197.74 53.1157Z" fill="#E6CF46"/>
<path d="M216.737 58.2148C220.167 58.2148 222.966 55.4195 222.966 51.9863C222.966 48.5566 220.167 45.757 216.737 45.757C213.307 45.757 210.508 48.5566 210.508 51.9863C210.508 55.4174 213.307 58.2148 216.737 58.2148Z" fill="#E6CF46"/>
<path d="M210.28 72.7607C213.709 72.7607 216.509 69.9633 216.509 66.5343C216.509 63.1004 213.713 60.3043 210.28 60.3043C206.846 60.3043 204.05 63.1004 204.05 66.5343C204.05 69.9633 206.85 72.7607 210.28 72.7607Z" fill="#E6CF46"/>
<path d="M203.969 85.748C206.772 85.748 209.06 83.4599 209.06 80.6549C209.06 77.8484 206.772 75.5617 203.969 75.5617C201.163 75.5617 198.871 77.8484 198.871 80.6549C198.871 83.4599 201.163 85.748 203.969 85.748Z" fill="#E6CF46"/>
<path d="M348.898 114.928C352.328 114.928 355.127 112.13 355.127 108.698C355.127 105.267 352.328 102.469 348.898 102.469C345.469 102.469 342.67 105.267 342.67 108.698C342.67 112.13 345.469 114.928 348.898 114.928Z" fill="#E6CF46"/>
<path d="M347.616 100.374C351.046 100.374 353.846 97.5766 353.846 94.1448C353.846 90.715 351.05 87.9162 347.616 87.9162C344.187 87.9162 341.388 90.715 341.388 94.1448C341.388 97.5766 344.187 100.374 347.616 100.374Z" fill="#E6CF46"/>
<path d="M344.124 86.8701C347.557 86.8701 350.353 84.0706 350.353 80.6415C350.353 77.2083 347.557 74.4123 344.124 74.4123C340.694 74.4123 337.895 77.2083 337.895 80.6415C337.899 84.0706 340.694 86.8701 344.124 86.8701Z" fill="#E6CF46"/>
<path d="M337.022 73.4805C340.455 73.4805 343.25 70.683 343.25 67.2512C343.25 63.8194 340.455 61.0226 337.022 61.0226C333.595 61.0226 330.796 63.8194 330.796 67.2512C330.796 70.683 333.595 73.4805 337.022 73.4805Z" fill="#E6CF46"/>
<path d="M323.634 63.9331C327.067 63.9331 329.862 61.1371 329.862 57.7038C329.862 54.2748 327.067 51.4753 323.634 51.4753C320.204 51.4753 317.404 54.2748 317.404 57.7038C317.404 61.1371 320.204 63.9331 323.634 63.9331Z" fill="#E6CF46"/>
<path d="M305.63 53.1157C309.06 53.1157 311.858 50.3203 311.858 46.8864C311.858 43.4574 309.06 40.6592 305.63 40.6592C302.2 40.6592 299.401 43.4574 299.401 46.8864C299.401 50.3203 302.197 53.1157 305.63 53.1157Z" fill="#E6CF46"/>
<path d="M270.238 48.3921C273.668 48.3921 276.467 45.594 276.467 42.1629C276.467 38.7317 273.668 35.9343 270.238 35.9343C266.808 35.9343 264.009 38.7317 264.009 42.1629C264.009 45.594 266.808 48.3921 270.238 48.3921Z" fill="#E6CF46"/>
<path d="M286.63 58.2148C290.063 58.2148 292.859 55.4195 292.859 51.9863C292.859 48.5566 290.063 45.757 286.63 45.757C283.2 45.757 280.4 48.5566 280.4 51.9863C280.4 55.4174 283.2 58.2148 286.63 58.2148Z" fill="#E6CF46"/>
<path d="M293.088 72.7607C296.517 72.7607 299.316 69.9633 299.316 66.5343C299.316 63.1004 296.521 60.3043 293.088 60.3043C289.654 60.3043 286.858 63.1004 286.858 66.5343C286.858 69.9633 289.654 72.7607 293.088 72.7607Z" fill="#E6CF46"/>
<path d="M299.401 85.748C302.208 85.748 304.497 83.4599 304.497 80.6549C304.497 77.8484 302.208 75.5617 299.401 75.5617C296.594 75.5617 294.31 77.8484 294.31 80.6549C294.31 83.4599 296.594 85.748 299.401 85.748Z" fill="#E6CF46"/>
<path d="M260.02 75.5254C257.77 75.5254 255.942 77.3508 255.942 79.6049C255.942 79.6465 255.942 79.689 255.942 79.7313C257.597 80.6145 258.945 81.9972 259.787 83.6766C259.865 83.6815 259.942 83.6836 260.02 83.6836C262.27 83.6836 264.097 81.8561 264.097 79.6049C264.097 77.3508 262.273 75.5254 260.02 75.5254Z" fill="#E6CF46"/>
<path d="M260.02 59.6917C259.89 59.6917 259.759 59.6973 259.629 59.7091C259.051 61.0154 258.158 62.1515 257.048 63.0228C258.566 64.2186 259.679 65.9085 260.143 67.8506C262.337 67.7846 264.101 65.9842 264.101 63.7712C264.101 61.5192 262.273 59.6917 260.02 59.6917Z" fill="#E6CF46"/>
<path d="M213.948 117.681C202.103 120.115 190.668 123.726 179.8 128.473C173.425 131.255 177.229 140.748 182.185 138.505C192.74 133.727 203.92 130.122 215.547 127.709C239.009 122.836 264.354 122.836 287.82 127.709C299.444 130.122 310.623 133.727 321.18 138.505C326.134 140.748 329.944 131.255 323.566 128.473C312.7 123.726 301.263 120.115 289.418 117.681C264.872 112.637 238.495 112.637 213.948 117.681Z" fill="#E6CF46"/>
<path d="M263.277 136.278L251.682 140.912L240.09 136.278L251.682 131.644L263.277 136.278Z" fill="black"/>
<path d="M251.681 132.117L241.272 136.278L251.681 140.439L262.093 136.278L251.681 132.117Z" fill="#0058B1"/>
<path d="M272.787 136.017C271.879 137.685 272.745 139.549 274.132 140.598C275.041 141.286 276.115 141.616 277.249 141.866L290.742 144.848C292.122 145.155 293.576 145.285 294.996 144.639C297.291 143.59 297.844 141.137 296.203 139.214C295.224 138.063 293.876 137.517 292.45 137.244L278.791 134.221C276.717 133.763 273.95 133.892 272.787 136.017Z" fill="black"/>
<path d="M278.757 134.677L292.38 137.679C293.672 137.962 294.93 138.396 295.87 139.498C297.32 141.197 296.838 143.311 294.814 144.239C293.539 144.822 292.127 144.737 290.841 144.452L277.323 141.459C276.327 141.251 275.341 140.929 274.513 140.334C273.263 139.438 272.362 137.809 273.141 136.292C274.182 134.257 276.855 134.26 278.757 134.677Z" fill="#CB1014"/>
<path d="M184.399 456.354C181.53 453.702 178.559 450.921 175.487 448.065C172.314 445.11 169.02 442.051 165.617 438.874C165.929 438.793 166.247 438.72 166.557 438.628C173.254 444.23 178.409 447.938 182.355 450.199C186.258 452.438 189.145 453.343 191.101 453.145C195.085 452.755 192.517 448.254 188.546 444.188C186.112 441.709 183.705 439.741 181.24 438.42C179.55 437.536 176.821 436.272 173.617 435.152C171.744 434.444 169.89 433.748 168.041 433.051C165.355 431.997 162.909 430.945 160.65 429.842C158.394 428.751 156.291 427.585 154.27 426.297C150.481 423.962 146.213 420.525 141.54 416.159C136.174 411.152 130.904 405.395 127.294 400.169C123.41 394.553 121.385 389.514 123.324 386.916C124.329 385.556 126.665 385.236 128.787 385.197C130.966 385.147 132.928 385.433 133.079 385.247C133.802 384.391 132.278 382.317 129.371 378.778C129.709 378.313 130.056 377.863 130.398 377.398C135.739 383.063 140.857 388.483 145.741 393.638C150.389 398.568 154.868 403.296 159.14 407.814C158.747 408.068 158.364 408.314 157.972 408.554C151.533 402.778 144.834 397.616 139.289 394.275C133.674 390.884 129.467 389.504 128.024 391.201C126.142 393.422 130.339 399.898 136.503 405.828C140.326 409.493 143.303 411.888 145.553 413.1C147.798 414.3 151.857 415.966 157.289 417.923C159.657 418.769 162.064 419.624 164.481 420.498C167.423 421.413 170.444 422.807 173.354 424.642C178.981 427.969 184.056 432.163 188.832 437.258C193.005 441.712 196.262 446.346 197.293 449.846C198.262 453.097 197.311 455.353 193.39 455.66C191.734 455.783 189.382 455.325 186.652 454.473C186.269 454.357 185.893 454.247 185.522 454.131C184.953 453.97 184.397 453.805 184.17 453.836C183.373 453.91 183.989 454.72 185.409 456.269C185.075 456.301 184.733 456.332 184.399 456.354Z" fill="#0058B1"/>
<path d="M206.279 324.748C210.473 321.614 214.617 318.325 218.861 314.927C232.322 304.138 246.886 294.656 262.404 287.088C263.313 286.648 264.221 286.215 265.133 285.789C248.735 270.198 232.967 252.333 225.065 230.969C222.776 224.781 221.759 219.554 222.561 213.445C208.184 215.966 188.74 220.69 175.822 230.556C161.3 241.65 161.479 257.975 167.58 274.504C175.372 295.606 190.094 310.36 206.279 324.748Z" fill="#D29A29"/>
<path d="M121.32 269.515C119.316 278.712 118.25 288.258 118.25 298.054C118.25 317.699 122.498 336.347 130.122 353.144C135.216 353.174 140.425 352.773 145.742 351.911C156.47 350.171 166.523 347.077 176.035 342.928C185.25 338.907 193.323 334.012 201.071 328.544C184.802 313.864 171.342 299.427 162.726 277.972C157.935 266.036 155.454 253.315 159.01 242.711C144.328 249.132 132.139 258.169 121.32 269.515Z" fill="#D29A29"/>
<path d="M257.753 164.765C255.738 164.674 253.717 164.622 251.682 164.622C192.121 164.622 141.667 203.672 124.515 257.557C136.28 246.868 149.762 238.185 164.901 232.829C178.786 216.433 203.508 210.293 223.967 206.903C225.481 202.317 228.245 196.758 231.804 191.74C236.301 185.404 241.199 179.462 246.812 174.015C250.189 170.74 253.812 167.65 257.753 164.765Z" fill="#D29A29"/>
<path d="M318.457 182.517C313.222 179.484 307.753 176.798 302.098 174.49C293.844 177.573 286.686 182.173 280.249 187.72C274.355 192.797 269.023 198.699 263.984 204.971C272.84 210.493 281.418 216.445 289.781 222.724L294.235 216.477C291.08 213.611 288.059 211.516 284.869 209.476C283.436 208.343 283.002 205.797 284.136 204.364C285.267 202.931 287.816 202.593 289.249 203.725C292.105 206.871 295.115 209.012 298.172 210.954L304.088 202.665C301.939 200.818 299.605 199.303 297.186 197.948C295.788 196.985 295.439 195.07 296.401 193.672C297.369 192.276 299.281 191.924 300.679 192.888C302.728 194.855 304.957 196.586 307.352 198.086L311.961 191.622C310.662 190.511 309.278 189.661 307.778 189.122C306.373 188.17 306.006 186.262 306.958 184.858C307.905 183.455 309.816 183.089 311.218 184.04C312.38 185.345 313.697 186.367 315.07 187.264L318.457 182.517Z" fill="#D29A29"/>
<path d="M339.008 197.166C334.244 193.043 329.183 189.252 323.87 185.824L319.993 191.261C321.338 192.525 322.849 193.573 324.402 194.578C325.634 195.747 325.68 197.696 324.511 198.926C323.342 200.156 321.395 200.205 320.162 199.033C319.222 197.66 318.13 196.519 316.923 195.567L312.373 201.945C314.183 203.547 316.067 205.084 318.141 206.454C319.419 207.578 319.542 209.526 318.42 210.803C317.296 212.08 315.345 212.205 314.067 211.08C312.518 209.129 310.849 207.695 309.148 206.464L303.088 214.963C305.817 217.531 308.736 219.799 311.94 222.138C313.31 223.35 313.342 226.285 312.131 227.651C310.923 229.021 308.363 228.682 306.993 227.47C304.564 224.693 302.109 222.431 299.246 220.35L294.816 226.56C302.475 232.482 310.014 238.703 317.472 245.125C323.092 238.963 327.778 232.697 331.356 225.519C335.307 217.595 337.93 208.512 339.008 197.166Z" fill="#D29A29"/>
<path d="M361.004 221.549C356.191 214.684 350.743 208.295 344.758 202.463C343.37 212.532 340.744 220.899 337.032 228.345C332.194 238.057 325.331 246.087 317.916 253.884C307.943 245.222 297.83 236.754 287.295 228.78C276.77 220.817 265.89 213.495 254.615 206.642C261.193 198.191 267.961 189.952 276.112 182.934C281.383 178.393 287.113 174.43 293.482 171.312C285.264 168.601 276.693 166.668 267.858 165.6C261.587 169.456 256.122 173.802 251.227 178.554C245.91 183.712 241.249 189.367 236.964 195.408C232.509 201.686 229.98 207.313 229.104 212.723C228.238 218.035 228.97 223.252 231.012 228.789C238.875 250.036 255.066 267.698 271.425 283.025C287.964 276.16 305.401 272.187 323.387 271.906C330.792 265.641 337.814 258.613 344.176 250.382C350.54 242.141 356.24 232.681 361.004 221.549Z" fill="#D29A29"/>
<path d="M385.117 298.054C385.117 272.282 377.8 248.217 365.138 227.815C360.508 237.859 355.12 246.556 349.18 254.25C343.261 261.916 336.789 268.575 329.976 274.564C344.571 292.621 362.55 307.656 382.473 319.523L383.318 320.026C384.501 312.879 385.117 305.54 385.117 298.054Z" fill="#D29A29"/>
<path d="M186.316 157.063L195.128 146.167L181.635 144.5L175.581 154.684L186.316 157.063ZM317.049 157.063L308.243 146.167L321.736 144.5L327.785 154.684L317.049 157.063Z" fill="#0058B1"/>
<path d="M246.594 86.2084C246.192 87.7676 245.851 87.7905 244.329 88.1817C242.062 88.7661 240.386 90.8263 240.386 93.2735C240.386 96.9319 245.189 99.6397 248.555 98.5835C238.09 110.205 219.97 110.542 206.737 103.54C209.434 102.728 211.026 99.9162 210.3 97.1695C209.678 94.8015 207.533 93.2381 205.191 93.252C203.617 93.261 203.286 93.3263 202.498 91.9193C199.892 87.2485 192.624 89.1628 192.654 94.5145C192.667 96.1224 192.341 96.2315 190.969 97.0006C188.925 98.1395 187.83 100.559 188.452 102.928C189.122 105.474 191.548 107.09 194.09 106.816C193.256 108.041 192.35 109.184 191.396 110.239C186.694 116.073 180.465 119.818 172.859 119.996C169.043 120.395 171.247 119.105 169.664 117.124C168.667 115.88 166.516 116.045 165.477 117.168C163.597 119.202 162.069 119.663 158.618 118.824C155.275 118.015 154.035 123.139 157.379 123.949C171.374 127.348 185.854 125.984 195.302 113.771C197.353 111.499 199.22 108.89 200.723 105.969C215.695 115.283 238.139 115.809 251.685 103.004C265.228 115.807 287.672 115.281 302.648 105.969C304.148 108.89 306.018 111.499 308.067 113.771C317.514 125.984 331.996 127.348 345.99 123.949C349.335 123.139 348.092 118.015 344.75 118.824C341.3 119.663 339.772 119.202 337.891 117.168C336.853 116.044 334.701 115.877 333.704 117.124C332.124 119.103 334.324 120.395 330.511 119.996C322.901 119.818 316.672 116.073 311.972 110.239C311.017 109.184 310.113 108.041 309.281 106.816C311.817 107.09 314.242 105.474 314.915 102.928C315.539 100.559 314.447 98.1416 312.401 97.0006C311.025 96.2328 310.704 96.1224 310.715 94.5145C310.746 89.1635 303.474 87.2485 300.87 91.9193C300.084 93.3263 299.753 93.261 298.176 93.252C295.837 93.2381 293.69 94.8015 293.07 97.1695C292.345 99.9162 293.932 102.728 296.63 103.54C283.4 110.543 265.28 110.205 254.815 98.5835C258.178 99.6397 262.981 96.9319 262.981 93.2735C262.981 90.8263 261.309 88.7661 259.037 88.1817C257.516 87.7905 257.175 87.7676 256.777 86.2084C255.446 81.0443 247.917 81.0443 246.594 86.2084Z" fill="#E6CF46"/>
<path d="M251.534 95.2295C253.09 95.2295 254.358 93.96 254.358 92.407C254.358 90.8527 253.09 89.5832 251.534 89.5832C249.977 89.5832 248.71 90.8527 248.71 92.407C248.71 93.9621 249.981 95.2295 251.534 95.2295Z" fill="black"/>
<path d="M199.159 96.3865C200.715 96.3865 201.979 97.6518 201.979 99.2103C201.979 100.768 200.715 102.034 199.159 102.034C197.595 102.034 196.335 100.768 196.335 99.2103C196.335 97.6518 197.595 96.3865 199.159 96.3865Z" fill="black"/>
<path d="M304.211 96.3865C305.768 96.3865 307.032 97.6518 307.032 99.2103C307.032 100.768 305.768 102.034 304.211 102.034C302.651 102.034 301.387 100.768 301.387 99.2103C301.387 97.6518 302.651 96.3865 304.211 96.3865Z" fill="black"/>
</svg>
