<svg width="500" height="500" viewBox="0 0 500 500" fill="none" xmlns="http://www.w3.org/2000/svg">
<path fill-rule="evenodd" clip-rule="evenodd" d="M129.983 229.265C135.96 218.72 143.273 209.03 151.681 200.418L53.6424 95.2894C58.5598 114.382 65.4206 131.991 74.7927 149.859C89.7818 178.45 109.164 204.656 129.983 229.265ZM237.628 12.797H247.322V0H256.044V12.797H265.742V21.52H256.044V27.8639C259.15 28.9479 261.723 31.1561 263.288 33.9994C265.157 32.404 267.587 31.4396 270.238 31.4396C276.161 31.4396 280.964 36.2402 280.964 42.1651C280.964 42.4097 280.957 42.6543 280.939 42.894C282.591 41.8587 284.541 41.2618 286.629 41.2618C290.028 41.2618 293.056 42.8412 295.02 45.3058C295.785 40.1334 300.243 36.1631 305.63 36.1631C311.553 36.1631 316.355 40.9666 316.355 46.8887C316.355 48.1297 316.144 49.322 315.757 50.431C317.715 48.3096 320.518 46.9805 323.634 46.9805C329.278 46.9805 333.902 51.3378 334.328 56.868C335.19 56.6464 336.092 56.5283 337.021 56.5283C342.947 56.5283 347.747 61.3289 347.747 67.2518C347.747 68.3455 347.582 69.3961 347.282 70.389C351.662 71.7377 354.849 75.8192 354.849 80.6428C354.849 82.3333 354.459 83.9335 353.758 85.3545C356.528 87.2945 358.342 90.5109 358.342 94.147C358.342 96.6297 357.497 98.9144 356.078 100.735C358.254 102.698 359.624 105.54 359.624 108.7C359.624 112.854 357.262 116.457 353.803 118.237C354.314 119.462 354.452 120.998 354.205 122.743C353.737 126.068 351.624 129.091 347.476 130.095C342.859 131.216 338.096 131.852 333.338 131.787C333.852 138.132 328.993 145.037 322.701 145.166L328.472 154.987L318.38 157.268C321.824 160.12 322.486 165.671 320.979 169.721C320.24 171.712 318.975 173.345 317.43 174.687C361.476 198.216 391.463 244.64 391.463 298.054C391.463 306.769 390.663 315.287 389.139 323.558C390.149 324.185 391.146 324.822 392.129 325.467C403.544 332.96 413.794 342.084 422.967 352.182V352.189C426.626 356.239 430.396 360.352 434.358 364.577C438.227 368.704 442.154 372.784 446.161 376.82C453.144 383.844 460.214 390.732 467.594 397.349C443.928 403.515 423.224 413.655 403.192 425.727L457.714 481.023L437.421 494.365L382.681 438.776C378.994 441.219 375.307 443.708 371.6 446.226L371.52 446.28L371.519 446.28C358.207 455.316 344.81 464.409 330.57 472.617C307.756 485.769 285.39 494.854 264.524 498.386C246.199 501.485 227.519 500.442 210.498 492.442C194.575 475.202 178.401 458.881 158.147 446.639C141.878 443.558 127.834 427.043 119.871 413.93L119.795 413.793C117.113 408.437 113.532 402.916 109.08 397.246C98.541 383.835 85.9685 371.457 71.5936 362.196C62.2306 356.161 57.341 351.541 53.5645 340.851C52.1241 336.776 50.4526 332.792 48.78 328.805C47.2614 325.186 45.742 321.564 44.394 317.871C42.3199 312.195 40.5008 306.617 39.198 301.737C34.8267 285.357 36.8445 268.631 40.3056 252.228C41.6862 245.697 43.0877 239.047 43.8249 231.905C44.5927 224.498 44.066 216.97 41.8252 209.849C30.1615 172.069 39.4516 129.213 48.7604 91.2294C34.9268 93.8615 27.904 76.0089 37.2753 65.9879L44.4058 58.3592C57.5522 44.3011 77.0565 60.5736 67.5371 75.3432L169.582 184.936C174.775 181.159 180.238 177.728 185.936 174.686C184.388 173.342 183.124 171.71 182.384 169.719C180.879 165.669 181.539 160.118 184.985 157.267L174.893 154.986L180.664 145.164C174.371 145.035 169.514 138.13 170.027 131.785C165.268 131.85 160.507 131.215 155.888 130.091C151.74 129.089 149.627 126.068 149.16 122.741C148.914 120.996 149.049 119.459 149.56 118.237C146.104 116.456 143.739 112.854 143.739 108.696C143.739 105.538 145.109 102.696 147.285 100.733C145.866 98.9144 145.02 96.6276 145.02 94.145C145.02 90.5075 146.833 87.2931 149.602 85.3524C148.905 83.9301 148.514 82.3312 148.514 80.6414C148.514 75.8171 151.699 71.7356 156.081 70.3855C155.778 69.3947 155.613 68.3413 155.613 67.2518C155.613 61.3289 160.417 56.5248 166.338 56.5248C167.271 56.5248 168.173 56.6443 169.033 56.8659C169.462 51.3357 174.088 46.9784 179.726 46.9784C182.841 46.9784 185.646 48.3076 187.606 50.4296C187.218 49.3207 187.008 48.1283 187.008 46.8866C187.008 40.9645 191.809 36.1611 197.733 36.1611C203.117 36.1611 207.575 40.1314 208.343 45.3045C210.307 42.8399 213.332 41.2584 216.73 41.2584C218.822 41.2584 220.772 41.8566 222.424 42.8919C222.406 42.6529 222.4 42.4098 222.4 42.1631C222.4 36.2403 227.199 31.4361 233.125 31.4361C235.777 31.4361 238.206 32.4026 240.079 33.9994C241.639 31.1561 244.213 28.9465 247.316 27.8639V21.5186H237.621V12.797H237.628ZM229.882 474.783C228.53 480.888 226.569 486.973 224.02 492.987C236.302 496.368 249.689 496.614 263.83 494.22C284.189 490.777 306.092 481.867 328.476 468.965C342.603 460.818 355.963 451.754 369.237 442.74L369.67 442.446C397.535 423.53 424.868 404.975 458.81 395.337C454.911 391.743 451.162 387.92 447.431 384.116L447.43 384.116L447.32 384.003C403.597 384.905 369.037 409.2 334.695 433.352C331.194 435.814 327.694 438.271 324.148 440.733L324.134 440.747C309.701 449.44 294.926 457.948 279.348 464.283C263.812 470.593 247.478 474.747 229.882 474.783ZM231.928 449.208C231.396 440.799 229.646 432.472 226.632 424.353C247.072 419.343 265.5 409.869 284.067 400.323L284.087 400.313L284.812 399.936L284.834 399.923L285.728 399.376C325.134 375.284 365.607 350.541 413.882 348.763C415.921 350.801 417.907 352.889 419.843 355.02L419.85 355.016C423.699 359.28 427.523 363.452 431.287 367.467L431.611 367.812C419.351 368.778 407.991 371.549 397.103 375.485C385.871 379.545 375.142 384.841 364.444 390.675L364.427 390.682C343.588 403.876 322.426 417.109 300.394 428.328C278.644 439.406 256.048 448.512 232.097 453.663C232.075 452.177 232.022 450.691 231.928 449.208ZM197.072 383.545C204.875 389.693 211.864 397.331 217.699 406.485C218.294 407.412 218.865 408.345 219.417 409.282C241.428 402.933 260.9 390.073 280.338 377.235L280.392 377.199C294.753 367.718 309.1 358.247 324.462 351.407L324.465 351.404C336.55 345.175 350.025 340.146 364.153 337.551C376.019 335.372 388.344 334.914 400.689 336.91C397.188 334.108 393.565 331.463 389.812 328.999C386.621 326.907 383.446 325.012 380.304 323.143L380.299 323.139L380.297 323.138C376.901 321.115 373.548 319.116 370.379 317.002C368.579 315.801 366.825 314.586 365.1 313.35C316.997 308.946 278.922 334.417 241.922 359.178L241.019 359.782C236.195 363.009 231.392 366.222 226.586 369.348L226.569 369.358C217.068 374.692 207.403 379.971 197.072 383.545ZM45.3574 307.681C49.6022 314.84 55.0477 321.566 61.0914 327.358C72.7085 339.174 86.3205 347.784 101.429 352.573C115.394 357.278 130.44 358.665 146.405 356.077C157.507 354.274 167.9 351.076 177.721 346.795C194.415 339.509 207.502 329.432 221.505 318.217C234.735 307.615 249.006 298.325 264.256 290.892C283.411 281.55 304.359 275.871 325.765 276.09C328.342 279.36 331.043 282.516 333.846 285.572C336.845 288.844 339.969 291.995 343.184 295.048C345.06 296.825 346.909 298.533 348.74 300.171C338.764 299.98 328.486 300.73 318.433 302.231C307.112 303.924 296.07 306.565 286.052 309.875C267.08 314.847 250.763 326.315 234.425 337.801C225.59 344.013 216.748 350.228 207.488 355.415L207.466 355.425C203.003 358.368 198.303 360.916 193.602 363.464L193.602 363.464C188.47 366.246 183.34 369.027 178.521 372.32C165.472 366.468 151.183 363.834 136.747 364.326C129.615 364.57 122.441 365.729 115.352 367.686C108.375 369.609 101.584 372.144 94.899 375.472C88.3334 369.193 81.5024 363.556 73.8752 358.644C65.2876 353.109 61.0053 349.235 57.5457 339.446C56.1034 335.363 54.4278 331.372 52.751 327.377C51.2303 323.754 49.7087 320.129 48.3591 316.432C47.2759 313.463 46.2607 310.516 45.3574 307.681ZM82.9736 339.26C66.2744 320.411 71.0119 290.171 74.8676 265.596L74.9029 265.37L74.903 265.37C75.4574 261.827 75.9938 258.4 76.4455 255.128C77.3697 244.064 77.5066 232.319 76.472 220.86C75.5562 210.756 73.7308 200.871 70.7284 191.863L70.7145 191.804C69.8842 185.916 69.5666 179.63 69.6514 173.327C69.7466 166.395 70.3254 159.446 71.237 152.976L71.3308 152.328L71.0591 151.813C63.1671 136.767 54.8672 120.04 50.5467 103.495C43.0313 137.227 35.8674 174.731 45.86 208.595C48.2773 216.273 48.8547 224.353 48.0258 232.337C47.2682 239.678 45.8494 246.402 44.4572 253L44.439 253.086C41.8389 265.41 40.0393 275.903 41.7951 286.519C44.2035 301.125 53.5387 314.28 64.019 324.319C69.9203 330.087 76.2538 335.105 82.9736 339.26ZM111.904 298.054C111.904 317.488 115.873 335.999 123.043 352.816C118.034 352.38 113.143 351.517 108.377 350.26C104.916 344.626 102.143 338.242 99.8754 331.667C97.5386 324.893 95.7445 317.921 94.2958 311.357V311.354C91.1562 297.611 92.3547 283.699 93.5611 269.696L93.5648 269.653C94.2909 261.268 95.0177 252.851 94.8225 244.388V244.361C94.4521 240.803 93.9914 237.165 93.5231 233.497C91.6373 218.681 89.6848 203.336 93.4682 189.272C103.928 204.84 115.384 219.766 127.434 233.981C117.511 253.175 111.904 274.959 111.904 298.054ZM213.051 488.984C215.308 490.029 217.611 490.945 219.959 491.741C225.932 477.808 228.604 463.511 227.713 449.476C226.829 435.461 222.392 421.68 214.146 408.75C205.455 395.12 194.087 385.017 181.26 378.338C167.628 371.239 152.342 368.009 136.879 368.538C130.095 368.771 123.257 369.879 116.473 371.753C110.256 373.468 104.177 375.679 98.1328 378.595C103.635 384 108.33 389.454 112.403 394.637C116.977 400.461 120.688 406.19 123.51 411.81C131.052 423.758 144.426 439.265 159.643 442.596C180.233 454.85 197.361 471.339 213.051 488.984ZM155.734 376.411L155.757 376.389L155.757 376.388L155.761 376.385C155.813 376.334 155.864 376.285 155.915 376.237C155.967 376.186 156.02 376.137 156.074 376.087C157.776 377.708 159.495 379.336 161.229 380.978L161.244 380.991C162.594 382.27 163.953 383.556 165.32 384.855C166.41 385.888 167.506 386.927 168.609 387.974L169.361 388.686L169.37 388.695L169.371 388.696C171.254 390.482 173.156 392.286 175.078 394.105C175.014 394.181 174.951 394.258 174.887 394.334L174.887 394.334C174.795 394.446 174.702 394.558 174.607 394.668C169.417 390.245 164.741 387.179 161.063 385.538C157.387 383.915 154.63 383.658 153.334 384.939C151.311 386.907 153.693 391.771 157.642 395.792C158.972 397.148 160.132 398.133 161.394 399.045C163.037 400.123 164.838 400.979 166.834 401.651C168.377 402.246 171.057 402.669 175.062 403.295C177.935 403.735 180.576 404.341 182.953 405.063C185.331 405.795 187.491 406.693 189.402 407.746C193.185 409.989 197.399 413.148 201.951 417.517C207.73 423.05 212.638 429.226 215.836 434.867C219.16 440.719 220.681 446.011 219.371 449.293C218.522 451.431 217.12 452.437 213.068 452.328C211.941 452.536 211.318 452.799 211.11 453.279C210.691 454.226 211.67 456.867 214.723 460.969C214.617 461.239 214.509 461.507 214.401 461.776L214.4 461.777L214.314 461.991C211.127 458.681 207.983 455.405 204.89 452.183L204.887 452.179L204.865 452.157C203.008 450.222 201.168 448.305 199.349 446.412L197.858 444.857L196.857 443.814L196.808 443.762L196.805 443.76C192.953 439.743 189.173 435.801 185.474 431.965C185.565 431.801 185.66 431.644 185.756 431.486C185.827 431.37 185.898 431.253 185.969 431.131C194.073 438.423 200.934 443.25 206.043 445.659C211.166 448.064 214.399 447.962 215.409 445.578C216.885 442.085 212.42 434.531 206.817 429.06C203.268 425.595 200.008 423.535 196.413 422.12C194.423 421.303 192.139 420.982 188.93 420.535C184.307 419.894 180.773 419.081 177.651 417.912C174.532 416.729 171.857 415.222 168.919 413.236C166.229 411.299 163.099 408.665 160.283 405.725C155.47 400.722 151.885 395.524 150.033 391.204C148.243 387.007 148.052 383.601 149.913 381.865C150.547 381.267 151.433 380.922 152.465 380.901C153.248 380.813 154.503 380.975 155.682 381.126L155.683 381.127C157.075 381.306 158.362 381.471 158.637 381.197C159.148 380.704 158.902 379.964 155.734 376.411ZM178.774 451.125C180.691 452.911 182.566 454.659 184.399 456.353C184.733 456.332 185.075 456.3 185.409 456.269C183.989 454.719 183.373 453.909 184.17 453.836C184.381 453.807 184.879 453.948 185.405 454.098L185.406 454.098L185.522 454.131C185.766 454.207 186.011 454.281 186.26 454.355L186.264 454.356C186.392 454.395 186.522 454.433 186.652 454.473C189.382 455.325 191.734 455.783 193.39 455.66C197.311 455.352 198.262 453.096 197.293 449.846C196.262 446.346 193.005 441.711 188.832 437.257C184.056 432.162 178.981 427.969 173.354 424.641C170.444 422.807 167.423 421.413 164.481 420.497C162.611 419.821 160.746 419.156 158.901 418.498L158.888 418.493L157.914 418.146L157.289 417.923C151.857 415.965 147.798 414.299 145.553 413.099C143.303 411.888 140.326 409.493 136.503 405.828C130.339 399.898 126.142 393.422 128.024 391.2C129.467 389.504 133.674 390.884 139.289 394.274C144.834 397.616 151.533 402.778 157.972 408.553C158.355 408.32 158.728 408.079 159.111 407.832L159.118 407.827L159.121 407.826L159.14 407.813C158.166 406.783 157.181 405.742 156.186 404.69L155.843 404.327L155.687 404.163C152.473 400.765 149.152 397.255 145.741 393.637C140.857 388.482 135.739 383.062 130.398 377.397C130.308 377.519 130.219 377.639 130.129 377.759L130.066 377.843L129.934 378.019C129.745 378.271 129.557 378.522 129.371 378.777C132.278 382.316 133.802 384.39 133.079 385.246C133 385.343 132.434 385.312 131.603 385.268H131.602C130.832 385.226 129.835 385.173 128.787 385.196C126.665 385.235 124.329 385.556 123.324 386.915C121.385 389.513 123.41 394.552 127.294 400.169C130.904 405.395 136.174 411.151 141.54 416.158C146.213 420.525 150.481 423.962 154.27 426.296C156.291 427.584 158.394 428.75 160.65 429.842C162.909 430.944 165.355 431.997 168.041 433.05L168.794 433.334L169.845 433.73C171.097 434.201 172.352 434.674 173.617 435.152C176.821 436.271 179.55 437.536 181.24 438.42C183.705 439.74 186.112 441.709 188.546 444.188C192.517 448.254 195.085 452.754 191.101 453.145C189.145 453.342 186.258 452.438 182.355 450.198C178.409 447.937 173.254 444.229 166.557 438.628C166.34 438.692 166.119 438.747 165.898 438.802C165.804 438.826 165.71 438.849 165.617 438.874C167.863 440.971 170.062 443.017 172.21 445.015C173.316 446.044 174.409 447.06 175.487 448.064C176.596 449.095 177.692 450.116 178.774 451.125ZM251.681 164.622C253.717 164.622 255.738 164.674 257.752 164.764C253.812 167.65 250.188 170.74 246.811 174.015C241.199 179.462 236.301 185.404 231.804 191.74C228.244 196.758 225.48 202.317 223.966 206.903C203.508 210.293 178.785 216.433 164.901 232.829C149.762 238.185 136.279 246.868 124.515 257.557C141.667 203.672 192.12 164.622 251.681 164.622ZM206.279 324.748C210.473 321.614 214.617 318.325 218.861 314.927C232.322 304.138 246.886 294.656 262.404 287.088C263.313 286.648 264.221 286.215 265.133 285.789C248.735 270.198 232.967 252.333 225.065 230.969C222.776 224.781 221.759 219.554 222.561 213.445C208.184 215.965 188.74 220.69 175.822 230.556C161.3 241.65 161.479 257.975 167.58 274.504C175.372 295.606 190.094 310.36 206.279 324.748ZM121.321 269.515C119.317 278.712 118.25 288.258 118.25 298.054C118.25 317.699 122.498 336.347 130.123 353.144C135.217 353.174 140.426 352.773 145.743 351.91C156.471 350.171 166.523 347.076 176.036 342.928C185.251 338.906 193.324 334.012 201.072 328.544C184.802 313.864 171.342 299.427 162.726 277.972C157.935 266.036 155.455 253.315 159.011 242.711C144.328 249.132 132.139 258.169 121.321 269.515ZM318.457 182.517C313.222 179.483 307.753 176.798 302.098 174.49C293.844 177.573 286.686 182.173 280.249 187.719C274.355 192.797 269.023 198.699 263.984 204.971C272.84 210.493 281.418 216.445 289.781 222.724L294.235 216.477C291.08 213.611 288.059 211.516 284.869 209.476C283.436 208.343 283.002 205.797 284.136 204.364C285.267 202.931 287.816 202.593 289.249 203.725C292.105 206.871 295.115 209.012 298.172 210.954L304.088 202.665C301.939 200.818 299.605 199.302 297.186 197.948C295.788 196.985 295.439 195.07 296.401 193.672C297.369 192.276 299.281 191.924 300.679 192.888C302.728 194.855 304.957 196.586 307.352 198.086L311.961 191.622C310.662 190.511 309.278 189.661 307.778 189.122C306.373 188.17 306.006 186.262 306.958 184.858C307.905 183.455 309.816 183.089 311.218 184.04C312.38 185.344 313.697 186.367 315.07 187.264L318.457 182.517ZM323.87 185.824C329.183 189.252 334.244 193.043 339.008 197.166C337.93 208.512 335.307 217.595 331.356 225.519C327.778 232.697 323.092 238.963 317.472 245.125C310.014 238.702 302.475 232.482 294.816 226.559L299.246 220.35C302.109 222.431 304.564 224.693 306.993 227.47C308.363 228.681 310.923 229.021 312.131 227.651C313.342 226.285 313.31 223.35 311.94 222.138C308.736 219.799 305.817 217.531 303.088 214.963L309.148 206.464C310.849 207.694 312.518 209.129 314.067 211.08C315.345 212.205 317.296 212.08 318.42 210.802C319.542 209.526 319.419 207.578 318.141 206.453C316.067 205.084 314.183 203.547 312.373 201.945L316.923 195.567C318.13 196.519 319.222 197.66 320.162 199.033C321.395 200.205 323.342 200.156 324.511 198.926C325.68 197.696 325.634 195.747 324.402 194.578C322.849 193.573 321.338 192.525 319.993 191.261L323.87 185.824ZM361.004 221.549C356.191 214.684 350.743 208.295 344.758 202.462C343.37 212.531 340.744 220.899 337.032 228.345C332.194 238.056 325.331 246.087 317.916 253.884C307.943 245.222 297.83 236.754 287.295 228.78C276.77 220.817 265.89 213.494 254.615 206.642C261.193 198.191 267.961 189.952 276.112 182.934C281.383 178.393 287.113 174.43 293.482 171.312C285.264 168.601 276.693 166.668 267.858 165.6C261.587 169.456 256.122 173.802 251.227 178.554C245.91 183.712 241.249 189.367 236.964 195.408C232.509 201.686 229.98 207.312 229.104 212.723C228.238 218.035 228.97 223.251 231.012 228.789C238.875 250.036 255.066 267.698 271.425 283.025C287.964 276.16 305.401 272.187 323.387 271.906C330.792 265.641 337.814 258.613 344.176 250.382C350.54 242.141 356.24 232.681 361.004 221.549ZM365.138 227.815C377.8 248.217 385.117 272.282 385.117 298.054C385.117 305.54 384.501 312.878 383.318 320.026L382.473 319.523C362.55 307.656 344.571 292.621 329.976 274.564C336.789 268.575 343.261 261.916 349.18 254.25C355.12 246.556 360.508 237.859 365.138 227.815ZM59.1053 75.5791L164.519 188.791C161.655 191.078 158.884 193.481 156.206 195.986L51.2723 83.4649C48.1914 85.5251 44.4802 85.9629 41.5772 83.0598C37.8765 79.3612 38.3392 74.1248 41.9114 70.3025L49.0419 62.6738C52.6162 58.8515 58.0012 57.8321 61.704 61.5329C65.4034 65.2322 64.1568 70.1726 60.5825 73.9942L59.1053 75.5791ZM195.128 146.167L186.316 157.063L175.581 154.684L181.635 144.5L195.128 146.167ZM308.243 146.167L317.049 157.063L327.785 154.684L321.736 144.5L308.243 146.167ZM164.058 113.501C165.105 112.863 166.337 112.506 167.546 112.481C169.132 112.443 170.752 112.961 172.005 114.12C172.254 114.351 172.465 114.569 172.624 114.767C172.695 114.858 172.761 114.953 172.824 115.045L172.845 115.075C173.108 115.438 173.316 115.781 173.477 116.108C176.183 115.705 178.729 114.851 181.087 113.613C183.542 112.318 185.789 110.61 187.791 108.562C186.372 107.397 185.295 105.793 184.794 103.888C184.264 101.874 184.458 99.8373 185.213 98.0536C185.949 96.3228 187.228 94.8316 188.898 93.8317C189.05 91.5325 190.013 89.6189 191.434 88.2001C192.604 87.0292 194.068 86.2121 195.624 85.8015C195.696 85.7827 195.767 85.7646 195.835 85.7486C194.909 84.2714 194.376 82.5253 194.376 80.6554C194.376 76.4621 197.067 72.8961 200.821 71.5933C200.011 70.0862 199.554 68.363 199.554 66.5342C199.554 61.778 202.648 57.7486 206.931 56.3415C206.543 55.4716 206.272 54.5405 206.124 53.5684C204.159 56.0337 201.134 57.6145 197.737 57.6145C194.619 57.6145 191.814 56.2852 189.856 54.1618C190.241 55.2728 190.455 56.4645 190.455 57.7041C190.455 63.6269 185.653 68.4304 179.729 68.4304C178.799 68.4304 177.896 68.3116 177.034 68.0899C176.69 72.5425 173.623 76.2349 169.498 77.5023C169.801 78.4966 169.965 79.5499 169.965 80.6415C169.965 84.2769 168.152 87.492 165.382 89.432C166.08 90.855 166.474 92.4546 166.474 94.1451C166.474 97.3074 165.102 100.147 162.928 102.11C164.343 103.927 165.192 106.215 165.192 108.698C165.194 110.427 164.784 112.057 164.058 113.501ZM234.653 79.6061C234.653 82.8858 236.474 85.7416 239.157 87.223C237.822 88.8017 237.016 90.8403 237.016 93.068C237.016 96.0996 238.505 98.7803 240.791 100.427C237.403 102.677 233.548 104.012 229.54 104.527C224.157 105.219 218.505 104.462 213.332 102.48C214.255 100.599 214.533 98.3898 213.955 96.2066C213.427 94.193 212.251 92.5149 210.712 91.3351C209.681 90.5409 208.473 89.9773 207.185 89.6904C210.896 88.3674 213.554 84.8209 213.554 80.6553C213.554 79.3435 213.294 78.0934 212.815 76.9567C217.515 75.8158 221.005 71.5814 221.005 66.534C221.005 64.9825 220.674 63.5087 220.082 62.1801C224.368 60.7731 227.463 56.741 227.463 51.9861C227.463 51.7409 227.456 51.4963 227.439 51.2551C229.086 52.2905 231.041 52.8908 233.129 52.8908C236.533 52.8908 239.573 51.3031 241.537 48.8253C242.368 49.8182 243.34 50.6896 244.424 51.4046C243.713 52.4857 243.231 53.7358 243.062 55.0844C238.393 55.2359 234.653 59.0672 234.653 63.7713C234.653 67.2907 236.745 70.3209 239.752 71.6891C236.745 73.0565 234.653 76.0867 234.653 79.6061ZM260.308 55.0844C264.978 55.2359 268.713 59.0673 268.713 63.7713C268.713 67.2907 266.622 70.3209 263.615 71.6891C266.622 73.0565 268.713 76.0867 268.713 79.6061C268.713 82.8858 266.896 85.7416 264.21 87.223C265.544 88.8017 266.351 90.839 266.351 93.068C266.351 96.0996 264.862 98.7824 262.576 100.427C265.963 102.677 269.819 104.012 273.826 104.527C279.21 105.219 284.858 104.462 290.034 102.48C289.111 100.599 288.834 98.3898 289.408 96.2066C289.939 94.193 291.111 92.5149 292.651 91.3351C293.685 90.5409 294.89 89.9773 296.182 89.6904C292.467 88.3681 289.809 84.8209 289.809 80.6553C289.809 79.3435 290.073 78.0935 290.552 76.9567C285.852 75.8158 282.362 71.5814 282.362 66.534C282.362 64.9825 282.689 63.5087 283.284 62.1802C278.999 60.7731 275.9 56.7396 275.9 51.9862C275.9 51.7409 275.91 51.4963 275.929 51.2551C274.277 52.2905 272.326 52.8908 270.238 52.8908C266.833 52.8908 263.797 51.3031 261.833 48.8274C261.002 49.8182 260.03 50.6896 258.942 51.4046C259.66 52.4857 260.14 53.7358 260.308 55.0844ZM335.821 112.481C337.028 112.506 338.261 112.863 339.31 113.501C338.581 112.057 338.173 110.427 338.173 108.698C338.173 106.215 339.021 103.927 340.437 102.11C338.261 100.147 336.895 97.3074 336.895 94.1451C336.895 92.4546 337.289 90.855 337.986 89.432C335.215 87.492 333.402 84.2769 333.402 80.6415C333.402 79.5499 333.567 78.4966 333.87 77.5023C329.743 76.2349 326.676 72.5425 326.33 68.0899C325.472 68.3116 324.567 68.4304 323.637 68.4304C317.714 68.4304 312.912 63.6269 312.912 57.7041C312.912 56.4645 313.123 55.2728 313.511 54.1618C311.553 56.2852 308.746 57.6145 305.63 57.6145C302.232 57.6145 299.207 56.0337 297.242 53.5684C297.094 54.5405 296.823 55.4716 296.436 56.3415C300.721 57.7486 303.813 61.778 303.813 66.5342C303.813 68.363 303.355 70.0862 302.545 71.5933C306.299 72.8961 308.993 76.4621 308.993 80.6554C308.993 82.5253 308.457 84.2714 307.528 85.7486C307.602 85.7646 307.672 85.7827 307.742 85.8015C309.299 86.2121 310.764 87.0292 311.933 88.2001C313.351 89.6189 314.317 91.5325 314.468 93.8317C316.137 94.8316 317.418 96.3228 318.151 98.0536C318.908 99.8373 319.102 101.874 318.573 103.888C318.07 105.793 316.992 107.397 315.577 108.562C317.573 110.61 319.82 112.318 322.282 113.613C324.634 114.851 327.18 115.705 329.891 116.108C330.053 115.781 330.257 115.438 330.521 115.075C330.588 114.974 330.666 114.867 330.743 114.767C330.902 114.569 331.109 114.351 331.363 114.12C332.616 112.961 334.236 112.443 335.821 112.481ZM244.515 88.1337C245.879 87.7855 246.208 87.7014 246.593 86.208C247.916 81.0439 255.445 81.0439 256.776 86.208C257.158 87.7015 257.487 87.7855 258.85 88.1337L259.037 88.1814C261.308 88.7657 262.981 90.826 262.981 93.2732C262.981 96.9315 258.177 99.6393 254.815 98.5832C265.28 110.205 283.4 110.543 296.629 103.539C293.932 102.727 292.344 99.9159 293.069 97.1692C293.689 94.8011 295.837 93.2377 298.175 93.2516L298.37 93.253C299.781 93.2636 300.117 93.2661 300.869 91.9189C303.474 87.2482 310.746 89.1632 310.714 94.5142C310.704 96.0571 310.999 96.2211 312.239 96.9103L312.401 97.0003C314.446 98.1412 315.539 100.559 314.915 102.928C314.242 105.474 311.816 107.09 309.281 106.816C310.113 108.041 311.017 109.184 311.971 110.238C316.672 116.073 322.9 119.818 330.51 119.995C332.89 120.245 332.928 119.835 333.004 119.011C333.05 118.515 333.109 117.868 333.704 117.124C334.7 115.877 336.852 116.043 337.891 117.168C339.771 119.201 341.299 119.663 344.75 118.823C348.092 118.014 349.334 123.138 345.989 123.948C331.996 127.348 317.513 125.984 308.066 113.77C306.017 111.499 304.147 108.89 302.647 105.969C287.671 115.28 265.227 115.807 251.685 103.004C238.139 115.809 215.695 115.282 200.722 105.969C199.219 108.89 197.353 111.499 195.302 113.77C185.854 125.984 171.373 127.348 157.378 123.948C154.035 123.138 155.274 118.014 158.617 118.823C162.069 119.663 163.597 119.201 165.477 117.168C166.516 116.045 168.667 115.879 169.663 117.124C170.259 117.869 170.319 118.516 170.364 119.013C170.44 119.836 170.478 120.245 172.859 119.995C180.465 119.818 186.694 116.073 191.395 110.238C192.349 109.184 193.256 108.041 194.09 106.816C191.547 107.09 189.122 105.474 188.451 102.928C187.829 100.559 188.924 98.1391 190.969 97.0003L191.14 96.9042C192.368 96.2189 192.666 96.0526 192.654 94.5142C192.624 89.1625 199.892 87.2482 202.497 91.9189C203.252 93.2661 203.588 93.2636 204.996 93.253L205.191 93.2516C207.532 93.2377 209.677 94.8011 210.3 97.1692C211.025 99.9159 209.434 102.727 206.737 103.539C219.969 110.541 238.089 110.205 248.554 98.5832C245.189 99.6393 240.385 96.9315 240.385 93.2732C240.385 90.826 242.061 88.7657 244.329 88.1814L244.515 88.1337ZM254.358 92.4067C254.358 93.9597 253.09 95.2291 251.534 95.2291C249.982 95.2291 248.71 93.9617 248.71 92.4067C248.71 90.8523 249.977 89.5828 251.534 89.5828C253.09 89.5828 254.358 90.8523 254.358 92.4067ZM199.159 96.3861C200.715 96.3861 201.979 97.6515 201.979 99.21C201.979 100.768 200.715 102.034 199.159 102.034C197.595 102.034 196.335 100.768 196.335 99.21C196.335 97.6515 197.595 96.3861 199.159 96.3861ZM307.032 99.21C307.032 97.6515 305.768 96.3861 304.211 96.3861C302.651 96.3861 301.387 97.6515 301.387 99.21C301.387 100.768 302.651 102.034 304.211 102.034C305.768 102.034 307.032 100.768 307.032 99.21ZM447.802 479.981L438.295 486.228L388.128 435.289L397.625 428.913L447.802 479.981ZM257.915 40.3501C257.915 43.7791 255.115 46.5786 251.685 46.5786C248.256 46.5786 245.456 43.7791 245.456 40.3501C245.456 36.9182 248.256 34.1208 251.685 34.1208C255.115 34.1208 257.915 36.9182 257.915 40.3501ZM251.685 59.1284C253.309 59.1284 254.632 57.8047 254.632 56.183C254.632 54.5598 253.309 53.2355 251.685 53.2355C250.062 53.2355 248.737 54.5598 248.737 56.183C248.737 57.8047 250.062 59.1284 251.685 59.1284ZM254.632 69.8612C254.632 71.4843 253.309 72.8066 251.685 72.8066C250.062 72.8066 248.737 71.4843 248.737 69.8612C248.737 68.238 250.062 66.9144 251.685 66.9144C253.309 66.9144 254.632 68.238 254.632 69.8612ZM243.346 75.5254C245.596 75.5254 247.424 77.3508 247.424 79.6049V79.7313C245.769 80.6145 244.421 81.9972 243.579 83.6766C243.541 83.679 243.503 83.6807 243.465 83.6819C243.425 83.6831 243.386 83.6836 243.346 83.6836C241.093 83.6836 239.266 81.8561 239.266 79.6049C239.266 77.3508 241.093 75.5254 243.346 75.5254ZM243.738 59.7091C243.607 59.6973 243.477 59.6917 243.346 59.6917C241.093 59.6917 239.266 61.5192 239.266 63.7712C239.266 65.9842 241.03 67.7846 243.227 67.8506C243.688 65.9085 244.797 64.2186 246.318 63.0228C245.209 62.1515 244.314 61.0154 243.738 59.7091ZM233.129 48.3921C236.562 48.3921 239.357 45.594 239.357 42.1629C239.357 38.7317 236.562 35.9343 233.129 35.9343C229.699 35.9343 226.899 38.7317 226.899 42.1629C226.899 45.594 229.699 48.3921 233.129 48.3921ZM160.698 108.698C160.698 112.13 157.9 114.928 154.469 114.928C151.039 114.928 148.239 112.13 148.239 108.698C148.239 105.267 151.039 102.469 154.469 102.469C157.9 102.469 160.698 105.267 160.698 108.698ZM155.75 100.374C159.181 100.374 161.977 97.5766 161.977 94.1448C161.977 90.715 159.181 87.9162 155.75 87.9162C152.32 87.9162 149.521 90.715 149.521 94.1448C149.521 97.5766 152.32 100.374 155.75 100.374ZM165.468 80.6415C165.468 84.0706 162.671 86.8701 159.243 86.8701C155.811 86.8701 153.014 84.0706 153.014 80.6415C153.014 77.2083 155.81 74.4123 159.243 74.4123C162.673 74.4123 165.468 77.2083 165.468 80.6415ZM166.345 73.4805C169.775 73.4805 172.574 70.683 172.574 67.2512C172.574 63.8194 169.775 61.0226 166.345 61.0226C162.914 61.0226 160.116 63.8194 160.116 67.2512C160.116 70.683 162.914 73.4805 166.345 73.4805ZM185.96 57.7038C185.96 61.1371 183.162 63.9331 179.731 63.9331C176.301 63.9331 173.502 61.1371 173.502 57.7038C173.502 54.2748 176.301 51.4753 179.731 51.4753C183.162 51.4753 185.96 54.2748 185.96 57.7038ZM197.74 53.1157C201.17 53.1157 203.97 50.3203 203.97 46.8864C203.97 43.4574 201.17 40.6592 197.74 40.6592C194.309 40.6592 191.51 43.4574 191.51 46.8864C191.51 50.3203 194.309 53.1157 197.74 53.1157ZM222.966 51.9863C222.966 55.4195 220.167 58.2148 216.737 58.2148C213.307 58.2148 210.508 55.4174 210.508 51.9863C210.508 48.5566 213.307 45.757 216.737 45.757C220.167 45.757 222.966 48.5566 222.966 51.9863ZM210.279 72.7607C213.708 72.7607 216.508 69.9633 216.508 66.5343C216.508 63.1004 213.712 60.3043 210.279 60.3043C206.846 60.3043 204.05 63.1004 204.05 66.5343C204.05 69.9633 206.849 72.7607 210.279 72.7607ZM209.061 80.6549C209.061 83.4599 206.772 85.748 203.97 85.748C201.163 85.748 198.871 83.4599 198.871 80.6549C198.871 77.8484 201.163 75.5617 203.97 75.5617C206.772 75.5617 209.061 77.8484 209.061 80.6549ZM348.898 114.928C352.328 114.928 355.127 112.13 355.127 108.698C355.127 105.267 352.328 102.469 348.898 102.469C345.469 102.469 342.67 105.267 342.67 108.698C342.67 112.13 345.469 114.928 348.898 114.928ZM353.846 94.1448C353.846 97.5766 351.046 100.374 347.616 100.374C344.187 100.374 341.388 97.5766 341.388 94.1448C341.388 90.715 344.187 87.9162 347.616 87.9162C351.05 87.9162 353.846 90.715 353.846 94.1448ZM344.124 86.8701C347.557 86.8701 350.353 84.0706 350.353 80.6415C350.353 77.2083 347.557 74.4123 344.124 74.4123C340.694 74.4123 337.895 77.2083 337.895 80.6415C337.899 84.0706 340.694 86.8701 344.124 86.8701ZM343.25 67.2512C343.25 70.683 340.455 73.4805 337.022 73.4805C333.595 73.4805 330.796 70.683 330.796 67.2512C330.796 63.8194 333.595 61.0226 337.022 61.0226C340.455 61.0226 343.25 63.8194 343.25 67.2512ZM323.634 63.9331C327.067 63.9331 329.862 61.1371 329.862 57.7038C329.862 54.2748 327.067 51.4753 323.634 51.4753C320.204 51.4753 317.404 54.2748 317.404 57.7038C317.404 61.1371 320.204 63.9331 323.634 63.9331ZM311.858 46.8864C311.858 50.3203 309.06 53.1157 305.63 53.1157C302.197 53.1157 299.401 50.3203 299.401 46.8864C299.401 43.4574 302.2 40.6592 305.63 40.6592C309.06 40.6592 311.858 43.4574 311.858 46.8864ZM270.238 48.3921C273.668 48.3921 276.467 45.594 276.467 42.1629C276.467 38.7317 273.668 35.9343 270.238 35.9343C266.808 35.9343 264.009 38.7317 264.009 42.1629C264.009 45.594 266.808 48.3921 270.238 48.3921ZM292.859 51.9863C292.859 55.4195 290.063 58.2148 286.63 58.2148C283.2 58.2148 280.4 55.4174 280.4 51.9863C280.4 48.5566 283.2 45.757 286.63 45.757C290.063 45.757 292.859 48.5566 292.859 51.9863ZM293.088 72.7607C296.517 72.7607 299.316 69.9633 299.316 66.5343C299.316 63.1004 296.521 60.3043 293.088 60.3043C289.654 60.3043 286.858 63.1004 286.858 66.5343C286.858 69.9633 289.654 72.7607 293.088 72.7607ZM304.497 80.6549C304.497 83.4599 302.208 85.748 299.401 85.748C296.594 85.748 294.31 83.4599 294.31 80.6549C294.31 77.8484 296.594 75.5617 299.401 75.5617C302.208 75.5617 304.497 77.8484 304.497 80.6549ZM260.02 75.5254C257.77 75.5254 255.942 77.3508 255.942 79.6049V79.7313C257.597 80.6145 258.945 81.9972 259.787 83.6766C259.865 83.6815 259.942 83.6836 260.02 83.6836C262.27 83.6836 264.097 81.8561 264.097 79.6049C264.097 77.3508 262.273 75.5254 260.02 75.5254ZM259.629 59.7091C259.759 59.6973 259.89 59.6917 260.02 59.6917C262.273 59.6917 264.101 61.5192 264.101 63.7712C264.101 65.9842 262.337 67.7846 260.143 67.8506C259.679 65.9085 258.566 64.2186 257.048 63.0228C258.158 62.1515 259.051 61.0154 259.629 59.7091ZM213.948 117.681C202.103 120.115 190.668 123.726 179.8 128.473C173.425 131.255 177.229 140.748 182.185 138.505C192.74 133.727 203.92 130.122 215.547 127.709C239.009 122.836 264.354 122.836 287.82 127.709C299.444 130.122 310.623 133.727 321.18 138.505C326.134 140.748 329.944 131.255 323.566 128.473C312.7 123.726 301.263 120.115 289.418 117.681C264.872 112.637 238.495 112.637 213.948 117.681ZM315.06 167.513C314.395 169.293 312.715 170.556 310.996 171.464C292.992 163.008 272.89 158.277 251.682 158.277C230.477 158.277 210.375 163.008 192.369 171.464C190.65 170.554 188.973 169.293 188.31 167.513C187.793 166.127 187.621 162.722 189.325 161.94C198.927 157.534 209.096 154.112 219.709 151.803C240.731 147.227 262.643 147.243 283.661 151.815C294.123 154.092 304.317 157.479 314.039 161.94C315.746 162.722 315.574 166.127 315.06 167.513ZM229.234 140.598C230.622 139.549 231.491 137.685 230.579 136.017C229.417 133.892 226.649 133.763 224.576 134.221L210.917 137.244C209.491 137.517 208.142 138.063 207.163 139.214C205.523 141.137 206.078 143.589 208.374 144.639C209.79 145.285 211.244 145.155 212.624 144.848L226.121 141.866C227.252 141.615 228.329 141.286 229.234 140.598ZM210.987 137.679L224.611 134.677C226.516 134.26 229.185 134.256 230.227 136.292C231.005 137.809 230.107 139.438 228.857 140.334C228.03 140.929 227.04 141.251 226.043 141.459L212.529 144.452C211.241 144.737 209.832 144.822 208.554 144.239C206.529 143.311 206.047 141.196 207.497 139.498C208.437 138.396 209.695 137.962 210.987 137.679ZM251.682 140.912L263.277 136.278L251.682 131.645L240.09 136.278L251.682 140.912ZM241.272 136.278L251.681 132.118L262.093 136.278L251.681 140.44L241.272 136.278ZM274.132 140.598C272.745 139.549 271.879 137.685 272.787 136.017C273.95 133.892 276.717 133.763 278.791 134.221L292.45 137.244C293.876 137.517 295.224 138.063 296.203 139.214C297.844 141.137 297.291 143.589 294.996 144.639C293.576 145.285 292.122 145.155 290.742 144.848L277.249 141.866C276.115 141.615 275.041 141.286 274.132 140.598ZM292.38 137.679L278.757 134.677C276.855 134.26 274.182 134.256 273.141 136.292C272.362 137.809 273.263 139.438 274.513 140.334C275.341 140.929 276.327 141.251 277.323 141.459L290.841 144.452C292.127 144.737 293.539 144.822 294.814 144.239C296.838 143.311 297.32 141.196 295.87 139.498C294.93 138.396 293.672 137.962 292.38 137.679Z" fill="white"/>
</svg>
