<svg width="500" height="500" viewBox="0 0 500 500" fill="none" xmlns="http://www.w3.org/2000/svg">
<g clip-path="url(#clip0_1175_6967)">
<path d="M320.501 144.988C318.407 144.988 316.712 143.296 316.712 141.206C316.712 139.118 318.407 137.435 320.501 137.435C322.59 137.435 324.273 139.118 324.273 141.206C324.273 143.296 322.59 144.988 320.501 144.988ZM97.5176 320.425C97.5176 236.607 165.915 168.377 249.573 168.377C333.214 168.377 401.625 236.607 401.625 320.425C401.625 404.072 333.214 472.488 249.573 472.488C165.93 472.488 97.5176 404.072 97.5176 320.425ZM309.222 88.3086C312.853 89.2427 315.039 92.9446 314.098 96.5716C313.168 100.199 309.469 102.393 305.841 101.45C302.215 100.523 300.026 96.8211 300.954 93.1956C301.897 89.5672 305.596 87.3797 309.222 88.3086ZM315.391 74.982C317.482 74.982 319.166 76.6747 319.166 78.7647C319.166 80.8539 317.482 82.5379 315.391 82.5379C313.305 82.5379 311.618 80.8539 311.618 78.7647C311.618 76.6747 313.305 74.982 315.391 74.982ZM312.254 61.4736C314.33 61.4736 316.027 63.167 316.027 65.2533C316.027 67.3418 314.33 69.0338 312.254 69.0338C310.178 69.0338 308.478 67.3418 308.478 65.2533C308.478 63.167 310.178 61.4736 312.254 61.4736ZM358.998 97.0837C361.057 97.0837 362.76 98.7758 362.76 100.864C362.76 102.953 361.057 104.638 358.998 104.638C356.899 104.638 355.207 102.953 355.207 100.864C355.207 98.7758 356.899 97.0837 358.998 97.0837ZM355.868 83.5876C357.944 83.5876 359.646 85.2796 359.646 87.3681C359.646 89.458 357.934 91.142 355.868 91.142C353.775 91.142 352.083 89.458 352.083 87.3681C352.083 85.2796 353.775 83.5876 355.868 83.5876ZM350.228 71.7449C352.316 71.7449 354.003 73.4319 354.003 75.5203C354.003 77.6095 352.316 79.2994 350.228 79.2994C348.137 79.2994 346.442 77.6095 346.442 75.5203C346.442 73.4442 348.137 71.7449 350.228 71.7449ZM341.264 61.2175C343.337 61.2175 345.047 62.903 345.047 64.9929C345.047 67.0806 343.337 68.7646 341.264 68.7646C339.172 68.7646 337.491 67.0806 337.491 64.9929C337.491 62.903 339.172 61.2175 341.264 61.2175ZM330.245 53.223C332.334 53.223 334.033 54.9099 334.033 56.9984C334.033 59.0737 332.334 60.7774 330.245 60.7774C328.157 60.7774 326.472 59.0737 326.472 56.9984C326.472 54.9099 328.157 53.223 330.245 53.223ZM318.407 48.5834C320.501 48.5834 322.185 50.2739 322.185 52.3617C322.185 54.4501 320.501 56.1364 318.407 56.1364C316.324 56.1364 314.624 54.4501 314.624 52.3617C314.624 50.2739 316.324 48.5834 318.407 48.5834ZM306.319 49.596C308.41 49.596 310.105 51.2815 310.105 53.3714C310.105 55.4599 308.41 57.1497 306.319 57.1497C304.241 57.1497 302.546 55.4599 302.546 53.3714C302.546 51.2815 304.241 49.596 306.319 49.596ZM297.46 39.4024C299.567 39.4024 301.261 41.0893 301.261 43.1778C301.261 45.2524 299.567 46.9568 297.46 46.9568C295.384 46.9568 293.698 45.2524 293.698 43.1778C293.698 41.0893 295.384 39.4024 297.46 39.4024ZM285.895 31.6952C287.973 31.6952 289.673 33.3873 289.673 35.4772C289.673 37.5649 287.973 39.2526 285.895 39.2526C283.806 39.2526 282.122 37.5649 282.122 35.4772C282.122 33.3873 283.806 31.6952 285.895 31.6952ZM273.865 27.2317C275.953 27.2317 277.653 28.9237 277.653 31.0136C277.653 33.0883 275.953 34.7854 273.865 34.7854C271.775 34.7854 270.102 33.1006 270.102 31.0136C270.102 28.9237 271.775 27.2317 273.865 27.2317ZM261.527 25.0814C263.639 25.0814 265.328 26.7684 265.328 28.8568C265.328 30.9453 263.639 32.6387 261.527 32.6387C259.452 32.6387 257.767 30.9453 257.767 28.8568C257.767 26.7684 259.452 25.0814 261.527 25.0814ZM144.895 124.427C141.6 126.226 137.482 125.035 135.663 121.75C133.867 118.47 135.065 114.342 138.337 112.529C141.623 110.732 145.752 111.93 147.557 115.211C149.368 118.484 148.167 122.609 144.895 124.427ZM193.311 101.45C189.675 102.393 185.972 100.199 185.043 96.5716C184.115 92.9446 186.289 89.2427 189.931 88.3086C193.547 87.3797 197.246 89.5672 198.187 93.1956C199.124 96.8211 196.941 100.523 193.311 101.45ZM249.573 94.3355C245.821 94.3355 242.791 91.2955 242.791 87.5572C242.791 83.8 245.821 80.7608 249.573 80.7608C253.32 80.7608 256.362 83.8 256.362 87.5572C256.362 91.2955 253.32 94.3355 249.573 94.3355ZM183.75 82.5379C181.672 82.5379 179.985 80.8539 179.985 78.7647C179.985 76.6747 181.672 74.982 183.75 74.982C185.836 74.982 187.523 76.6747 187.523 78.7647C187.523 80.8539 185.836 82.5379 183.75 82.5379ZM186.888 69.0338C184.8 69.0338 183.114 67.3418 183.114 65.2533C183.114 63.167 184.8 61.4736 186.888 61.4736C188.979 61.4736 190.664 63.167 190.664 65.2533C190.664 67.3418 188.979 69.0338 186.888 69.0338ZM140.171 104.638C138.068 104.638 136.372 102.953 136.372 100.864C136.372 98.7758 138.068 97.0837 140.171 97.0837C142.245 97.0837 143.932 98.7758 143.932 100.864C143.932 102.953 142.245 104.638 140.171 104.638ZM143.296 91.142C141.196 91.142 139.5 89.458 139.5 87.3681C139.5 85.2796 141.196 83.5876 143.296 83.5876C145.371 83.5876 147.071 85.2796 147.071 87.3681C147.071 89.458 145.371 91.142 143.296 91.142ZM148.913 79.2994C146.827 79.2994 145.141 77.6095 145.141 75.5203C145.141 73.4319 146.827 71.7449 148.913 71.7449C151.006 71.7449 152.699 73.4319 152.699 75.5203C152.699 77.6095 151.006 79.2994 148.913 79.2994ZM157.879 68.7646C155.791 68.7646 154.094 67.0806 154.094 64.9929C154.094 62.903 155.791 61.2175 157.879 61.2175C159.97 61.2175 161.656 62.903 161.656 64.9929C161.656 67.0806 159.97 68.7646 157.879 68.7646ZM168.899 60.7774C166.807 60.7774 165.11 59.0737 165.11 56.9984C165.11 54.9099 166.807 53.223 168.899 53.223C170.987 53.223 172.673 54.9099 172.673 56.9984C172.673 59.0737 170.987 60.7774 168.899 60.7774ZM180.731 56.1364C178.643 56.1364 176.956 54.4501 176.956 52.3617C176.956 50.2739 178.643 48.5834 180.731 48.5834C182.822 48.5834 184.519 50.2739 184.519 52.3617C184.519 54.4501 182.822 56.1364 180.731 56.1364ZM192.823 57.1497C190.733 57.1497 189.036 55.4599 189.036 53.3714C189.036 51.2815 190.733 49.596 192.823 49.596C194.913 49.596 196.6 51.2815 196.6 53.3714C196.6 55.4599 194.913 57.1497 192.823 57.1497ZM201.668 46.9568C199.59 46.9568 197.88 45.2524 197.88 43.1778C197.88 41.0893 199.59 39.4024 201.668 39.4024C203.757 39.4024 205.441 41.0893 205.441 43.1778C205.441 45.2524 203.757 46.9568 201.668 46.9568ZM213.244 39.2526C211.168 39.2526 209.471 37.5649 209.471 35.4772C209.471 33.3873 211.168 31.6952 213.244 31.6952C215.336 31.6952 217.019 33.3873 217.019 35.4772C217.019 37.5649 215.336 39.2526 213.244 39.2526ZM225.279 34.7854C223.189 34.7854 221.502 33.1006 221.502 31.0136C221.502 28.9237 223.189 27.2317 225.279 27.2317C227.365 27.2317 229.055 28.9237 229.055 31.0136C229.055 33.1006 227.365 34.7854 225.279 34.7854ZM249.573 71.7573C247.495 71.7573 245.787 70.0726 245.787 67.9841C245.787 65.8957 247.495 64.2036 249.573 64.2036C251.659 64.2036 253.357 65.9073 253.357 67.9841C253.357 70.0726 251.659 71.7573 249.573 71.7573ZM249.573 58.0612C247.495 58.0612 245.787 56.3742 245.787 54.2857C245.787 52.1973 247.495 50.5067 249.573 50.5067C251.659 50.5067 253.357 52.1973 253.357 54.2857C253.357 56.3742 251.659 58.0612 249.573 58.0612ZM249.573 44.3665C247.495 44.3665 245.787 42.6744 245.787 40.5896C245.787 38.4996 247.495 36.8135 249.573 36.8135C251.659 36.8135 253.357 38.4996 253.357 40.5896C253.357 42.6744 251.659 44.3665 249.573 44.3665ZM237.611 32.6387C235.527 32.6387 233.816 30.9322 233.816 28.8568C233.816 26.7684 235.527 25.0814 237.611 25.0814C239.69 25.0814 241.376 26.7684 241.376 28.8568C241.376 30.9322 239.69 32.6387 237.611 32.6387ZM360.803 112.529C364.089 114.342 365.287 118.47 363.48 121.75C361.673 125.035 357.545 126.226 354.258 124.427C350.974 122.609 349.776 118.484 351.584 115.211C353.391 111.93 357.534 110.732 360.803 112.529ZM273.788 132.369C271.7 132.369 270.013 130.68 270.013 128.591C270.013 126.5 271.7 124.818 273.788 124.818C275.883 124.818 277.58 126.5 277.58 128.591C277.58 130.668 275.883 132.369 273.788 132.369ZM178.643 144.988C176.567 144.988 174.87 143.296 174.87 141.206C174.87 139.118 176.567 137.435 178.643 137.435C180.731 137.435 182.429 139.118 182.429 141.206C182.429 143.296 180.731 144.988 178.643 144.988ZM225.35 132.369C223.26 132.369 221.574 130.68 221.574 128.591C221.574 126.5 223.26 124.818 225.35 124.818C227.44 124.818 229.127 126.5 229.127 128.591C229.127 130.668 227.44 132.369 225.35 132.369Z" fill="white"/>
<path d="M277.624 105.169C278.641 107.437 279.847 109.177 281.374 110.636C277.918 110.111 274.464 109.672 270.973 109.323C272.914 108.236 274.622 106.733 275.929 104.958C276.479 105.083 277.054 105.158 277.624 105.169ZM221.48 105.169C222.065 105.158 222.652 105.083 223.214 104.958C224.52 106.733 226.229 108.236 228.176 109.323C224.68 109.672 221.223 110.111 217.778 110.636C219.38 109.084 220.659 107.222 221.48 105.169ZM201.302 113.775C198.271 114.489 195.241 115.265 192.237 116.1C193.849 114 194.889 111.48 195.194 108.798C196.747 111.001 198.882 112.713 201.302 113.775ZM166.589 125.121C167.507 123.632 168.164 122.021 168.531 120.348L169.044 120.232C169.962 119.993 170.805 119.634 171.548 119.145C172.965 120.101 174.564 120.832 176.251 121.279C172.986 122.484 169.765 123.76 166.589 125.121ZM249.574 101.921C250.535 104.467 252.201 106.673 254.323 108.308C252.737 108.285 251.163 108.26 249.574 108.26C247.986 108.26 246.407 108.285 244.834 108.308C246.946 106.673 248.606 104.467 249.574 101.921ZM327.605 119.145C328.34 119.634 329.184 120.004 330.098 120.232L330.611 120.348C330.992 122.021 331.664 123.632 332.563 125.121C329.379 123.76 326.165 122.484 322.905 121.279C324.576 120.832 326.176 120.101 327.605 119.145ZM306.905 116.1C303.91 115.265 300.878 114.489 297.843 113.775C300.261 112.713 302.396 111.001 303.95 108.787C304.254 111.48 305.29 114 306.905 116.1ZM318.654 86.5629C321.197 85.4885 323.125 83.1971 323.675 80.419C327.742 81.3217 332.321 82.5198 336.044 83.9841C339.567 85.3713 342.315 87.2474 344.33 88.9867C346.385 94.2031 347.517 100.24 348.126 107.571C345.626 108.621 344.099 111.197 343.142 113.69C341.65 117.591 341.65 121.592 345.836 124.534C341.9 124.779 338.49 121.507 338.721 117.425C339.515 116.504 340.1 115.376 340.421 114.116C341.606 109.574 338.855 104.944 334.315 103.785C329.77 102.604 325.14 105.359 323.982 109.898C323.859 110.386 323.772 110.885 323.738 111.387C319.899 116.126 312.144 113.676 311.828 107.522C318.951 108.938 321.954 105.347 323.189 100.535C324.221 96.4793 323.811 92.4493 319.177 89.9877C319.203 88.7001 319.022 87.5624 318.654 86.5629Z" fill="#C23949"/>
<path d="M198.331 69.7864C211.841 62.2815 229.53 60.9539 243.243 62.9835V63.9713C242.509 65.1323 242.071 66.5115 242.071 67.9839C242.071 70.3226 243.146 72.3994 244.833 73.7728C242.289 74.6654 240.311 76.516 239.52 79.9036C234.412 81.1439 233.006 84.9433 233.006 89.1268C233.006 94.0864 235.012 98.3179 242.267 98.7151C241.41 101.443 238.871 103.428 235.869 103.428C232.922 103.428 230.419 101.518 229.513 98.8671C229.711 98.1659 229.821 97.4377 229.821 96.6877C229.821 91.9965 226.023 88.1862 221.32 88.1862C216.629 88.1862 212.818 91.9849 212.818 96.6877C212.818 98.1528 213.21 99.5276 213.845 100.718C213.698 103.558 211.733 106.099 208.836 106.849C205.916 107.593 202.96 106.307 201.459 103.88C208.396 101.684 209.276 97.1031 208.042 92.278C207.002 88.2364 204.709 84.8953 199.457 84.9731C198.478 83.1065 197.198 81.8713 195.707 81.1439C196.147 77.2186 197.039 73.4011 198.331 69.7864ZM255.91 62.9835C269.614 60.9539 287.298 62.2917 300.813 69.7864C302.105 73.4011 302.982 77.2186 303.436 81.1439C301.947 81.8713 300.676 83.1065 299.693 84.9731C294.444 84.8953 292.137 88.2364 291.099 92.278C289.867 97.1031 290.755 101.684 297.67 103.88C296.167 106.307 293.215 107.593 290.319 106.849C287.411 106.099 285.456 103.558 285.285 100.718C285.931 99.5276 286.313 98.1528 286.313 96.6877C286.313 91.9965 282.524 88.1862 277.823 88.1862C273.129 88.1862 269.333 91.9849 269.333 96.6877C269.333 97.4377 269.432 98.1659 269.627 98.8671C268.713 101.518 266.219 103.428 263.266 103.428C260.258 103.428 257.717 101.443 256.885 98.7151C264.131 98.3179 266.123 94.0864 266.123 89.1268C266.123 84.9433 264.727 81.1439 259.622 79.9036C258.842 76.516 256.864 74.6654 254.323 73.7728C255.997 72.3994 257.058 70.3226 257.058 67.9839C257.058 66.5115 256.63 65.1323 255.91 63.9713V62.9835ZM163.108 83.9838C166.82 82.5195 171.416 81.3214 175.467 80.4187C176.017 83.1967 177.936 85.4882 180.501 86.5626C180.122 87.5621 179.95 88.6998 179.975 89.9873C175.334 92.449 174.921 96.479 175.955 100.529C177.203 105.347 180.195 108.938 187.316 107.521C187.023 113.676 179.243 116.126 175.406 111.386C175.372 110.885 175.297 110.398 175.176 109.897C174.003 105.359 169.371 102.603 164.829 103.785C160.289 104.944 157.55 109.574 158.71 114.111C159.04 115.376 159.638 116.496 160.42 117.436C160.569 119.944 159.297 122.415 156.963 123.704C155.806 124.345 154.533 124.609 153.312 124.527C157.5 121.592 157.49 117.591 155.999 113.69C155.046 111.196 153.52 108.633 151.015 107.57C151.627 100.24 152.777 94.2028 154.801 88.9966C156.831 87.2573 159.564 85.3827 163.108 83.9838ZM261.661 127.369L249.573 131.873L237.492 127.369L249.573 122.855L261.661 127.369ZM170.706 143.73L169.631 147.932L169.251 149.542L168.358 149.042L164.39 146.831L165.451 142.79L165.661 141.904L167.039 142.378L170.706 143.73ZM328.44 143.73L333.519 141.819L333.742 142.691L334.74 146.831L330.781 149.042L329.938 149.495L329.512 147.932L328.44 143.73Z" fill="#C23949"/>
<path d="M306.905 116.099C305.289 114 304.254 111.473 303.96 108.797C302.415 110.996 300.271 112.712 297.843 113.775C300.896 114.489 303.91 115.265 306.905 116.099ZM327.605 119.144C326.165 120.1 324.576 120.831 322.894 121.279C326.157 122.483 329.378 123.752 332.552 125.12C331.664 123.631 330.981 122.021 330.611 120.338L330.098 120.232C329.184 120.004 328.34 119.612 327.605 119.144ZM249.574 101.92C248.606 104.466 246.946 106.673 244.823 108.308C246.407 108.285 247.986 108.26 249.574 108.26C251.163 108.26 252.736 108.285 254.31 108.308C252.2 106.673 250.534 104.466 249.574 101.92ZM166.576 125.12C169.764 123.752 172.986 122.483 176.251 121.279C174.564 120.831 172.964 120.1 171.535 119.144C170.805 119.612 169.962 119.993 169.056 120.232L168.542 120.338C168.164 122.021 167.493 123.631 166.576 125.12ZM201.315 113.775C198.881 112.712 196.747 110.996 195.193 108.797C194.889 111.473 193.849 114 192.236 116.099C195.241 115.265 198.258 114.489 201.315 113.775ZM221.48 105.168C220.659 107.222 219.38 109.083 217.765 110.636C221.209 110.11 224.68 109.672 228.175 109.323C226.22 108.236 224.52 106.733 223.224 104.957C222.664 105.083 222.065 105.158 221.48 105.168ZM277.624 105.168C277.041 105.158 276.478 105.083 275.929 104.957C274.621 106.746 272.913 108.236 270.957 109.323C274.464 109.672 277.934 110.11 281.363 110.636C279.847 109.17 278.641 107.436 277.81 105.517L277.624 105.168ZM360.803 112.536C357.521 110.721 353.379 111.923 351.597 115.215C349.787 118.49 350.974 122.618 354.258 124.421C357.534 126.233 361.659 125.028 363.48 121.757C365.274 118.466 364.089 114.338 360.803 112.536ZM309.223 88.3085C305.596 87.3861 301.897 89.5589 300.97 93.2005C300.026 96.8289 302.215 100.516 305.841 101.458C309.469 102.393 313.168 100.204 314.099 96.5656C315.039 92.9371 312.853 89.249 309.223 88.3085ZM315.391 74.9884C313.292 74.9884 311.608 76.6819 311.608 78.7689C311.608 80.8442 313.292 82.5312 315.391 82.5312C317.483 82.5312 319.166 80.8442 319.166 78.7689C319.166 76.6819 317.483 74.9884 315.391 74.9884ZM312.267 61.4807C310.165 61.4807 308.478 63.1697 308.478 65.2611C308.478 67.3481 310.165 69.0336 312.267 69.0336C314.345 69.0336 316.027 67.3481 316.027 65.2611C316.027 63.1697 314.345 61.4807 312.267 61.4807ZM358.984 97.0901C356.899 97.0901 355.207 98.7755 355.207 100.864C355.207 102.952 356.899 104.646 358.984 104.646C361.076 104.646 362.76 102.952 362.76 100.864C362.76 98.7755 361.076 97.0901 358.984 97.0901ZM355.861 83.5939C353.775 83.5939 352.083 85.2845 352.083 87.373C352.083 89.4629 353.775 91.1469 355.861 91.1469C357.944 91.1469 359.634 89.4629 359.634 87.373C359.634 85.2845 357.944 83.5939 355.861 83.5939ZM350.22 71.7542C348.137 71.7542 346.443 73.4382 346.443 75.5252C346.443 77.6152 348.137 79.3072 350.22 79.3072C352.301 79.3072 354.004 77.6152 354.004 75.5252C354.004 73.4382 352.301 71.7542 350.22 71.7542ZM341.264 61.2173C339.173 61.2173 337.491 62.9093 337.491 64.9971C337.491 67.087 339.173 68.771 341.264 68.771C343.352 68.771 345.039 67.087 345.039 64.9971C345.039 62.9093 343.352 61.2173 341.264 61.2173ZM330.245 53.2177C328.157 53.2177 326.483 54.9032 326.483 56.9902C326.483 59.0801 328.157 60.7721 330.245 60.7721C332.334 60.7721 334.021 59.0801 334.021 56.9902C334.021 54.9032 332.334 53.2177 330.245 53.2177ZM318.399 48.5869C316.305 48.5869 314.624 50.2738 314.624 52.3615C314.624 54.45 316.305 56.1427 318.399 56.1427C320.485 56.1427 322.185 54.45 322.185 52.3615C322.185 50.2738 320.485 48.5869 318.399 48.5869ZM306.33 49.5885C304.241 49.5885 302.546 51.2878 302.546 53.377C302.546 55.4509 304.241 57.1444 306.33 57.1444C308.41 57.1444 310.092 55.4509 310.092 53.377C310.092 51.2878 308.41 49.5885 306.33 49.5885ZM297.476 39.3986C295.385 39.3986 293.698 41.0833 293.698 43.1711C293.698 45.261 295.385 46.9516 297.476 46.9516C299.567 46.9516 301.251 45.261 301.251 43.1711C301.251 41.0833 299.567 39.3986 297.476 39.3986ZM285.895 31.69C283.806 31.69 282.122 33.382 282.122 35.4705C282.122 37.5567 283.806 39.2444 285.895 39.2444C287.984 39.2444 289.673 37.5567 289.673 35.4705C289.673 33.382 287.984 31.69 285.895 31.69ZM273.875 27.225C271.792 27.225 270.103 28.9119 270.103 31.0004C270.103 33.0881 271.792 34.7786 273.875 34.7786C275.953 34.7786 277.653 33.0881 277.653 31.0004C277.653 28.9235 275.964 27.225 273.875 27.225ZM261.54 25.0754C259.452 25.0754 257.767 26.7616 257.767 28.85C257.767 30.9371 259.452 32.6305 261.54 32.6305C263.626 32.6305 265.318 30.9371 265.318 28.85C265.318 26.7616 263.626 25.0754 261.54 25.0754ZM144.884 124.421C148.181 122.618 149.368 118.49 147.57 115.215C145.753 111.923 141.624 110.721 138.348 112.536C135.065 114.338 133.867 118.466 135.675 121.757C137.482 125.028 141.6 126.233 144.884 124.421ZM193.301 101.458C196.928 100.516 199.114 96.8289 198.187 93.2005C197.259 89.5589 193.555 87.3861 189.931 88.3085C186.303 89.249 184.115 92.9371 185.031 96.5656C185.972 100.204 189.675 102.393 193.301 101.458ZM249.574 94.3433C253.32 94.3433 256.349 91.3004 256.349 87.5454C256.349 83.8063 253.32 80.7664 249.574 80.7664C245.835 80.7664 242.791 83.8063 242.791 87.5454C242.791 91.3004 245.835 94.3433 249.574 94.3433ZM183.762 82.5312C185.836 82.5312 187.535 80.8442 187.535 78.7689C187.535 76.6819 185.836 74.9884 183.762 74.9884C181.672 74.9884 179.986 76.6819 179.986 78.7689C179.986 80.8442 181.672 82.5312 183.762 82.5312ZM186.888 69.0336C188.979 69.0336 190.664 67.3481 190.664 65.2611C190.664 63.1697 188.979 61.4807 186.888 61.4807C184.813 61.4807 183.114 63.1697 183.114 65.2611C183.114 67.3481 184.813 69.0336 186.888 69.0336ZM140.156 104.646C142.246 104.646 143.944 102.952 143.944 100.864C143.944 98.7755 142.246 97.0901 140.156 97.0901C138.068 97.0901 136.384 98.7755 136.384 100.864C136.384 102.952 138.068 104.646 140.156 104.646ZM143.283 91.1469C145.371 91.1469 147.071 89.4629 147.071 87.373C147.071 85.2845 145.371 83.5939 143.283 83.5939C141.196 83.5939 139.512 85.2845 139.512 87.373C139.512 89.4629 141.196 91.1469 143.283 91.1469ZM148.913 79.3072C151.006 79.3072 152.689 77.6152 152.689 75.5252C152.689 73.4382 151.006 71.7542 148.913 71.7542C146.839 71.7542 145.154 73.4382 145.154 75.5252C145.154 77.6152 146.839 79.3072 148.913 79.3072ZM157.88 68.771C159.957 68.771 161.666 67.087 161.666 64.9971C161.666 62.9093 159.957 61.2173 157.88 61.2173C155.791 61.2173 154.107 62.9093 154.107 64.9971C154.107 67.087 155.791 68.771 157.88 68.771ZM168.886 60.7721C170.974 60.7721 172.673 59.0801 172.673 56.9902C172.673 54.9032 170.974 53.2177 168.886 53.2177C166.807 53.2177 165.11 54.9032 165.11 56.9902C165.11 59.0801 166.807 60.7721 168.886 60.7721ZM180.744 56.1427C182.823 56.1427 184.507 54.45 184.507 52.3615C184.507 50.2738 182.823 48.5869 180.744 48.5869C178.643 48.5869 176.956 50.2738 176.956 52.3615C176.956 54.45 178.643 56.1427 180.744 56.1427ZM192.813 57.1444C194.9 57.1444 196.6 55.4509 196.6 53.377C196.6 51.2878 194.9 49.5885 192.813 49.5885C190.733 49.5885 189.036 51.2878 189.036 53.377C189.036 55.4509 190.723 57.1444 192.813 57.1444ZM201.668 46.9516C203.745 46.9516 205.441 45.261 205.441 43.1711C205.441 41.0833 203.745 39.3986 201.668 39.3986C199.578 39.3986 197.893 41.0833 197.893 43.1711C197.893 45.261 199.578 46.9516 201.668 46.9516ZM213.259 39.2444C215.348 39.2444 217.032 37.5567 217.032 35.4705C217.032 33.382 215.348 31.69 213.259 31.69C211.169 31.69 209.471 33.382 209.471 35.4705C209.471 37.5567 211.169 39.2444 213.259 39.2444ZM225.279 34.7786C227.365 34.7786 229.055 33.0881 229.055 31.0004C229.055 28.9119 227.365 27.225 225.279 27.225C223.198 27.225 221.492 28.9235 221.492 31.0004C221.492 33.0881 223.198 34.7786 225.279 34.7786ZM249.574 71.7644C251.659 71.7644 253.346 70.0607 253.346 67.9839C253.346 65.8955 251.659 64.2085 249.574 64.2085C247.479 64.2085 245.798 65.8955 245.798 67.9839C245.798 70.0607 247.479 71.7644 249.574 71.7644ZM249.574 58.066C251.659 58.066 253.346 56.369 253.346 54.279C253.346 52.2044 251.659 50.5 249.574 50.5C247.479 50.5 245.798 52.2044 245.798 54.279C245.798 56.369 247.479 58.066 249.574 58.066ZM249.574 44.3626C251.659 44.3626 253.346 42.6691 253.346 40.5952C253.346 38.506 251.659 36.8067 249.574 36.8067C247.479 36.8067 245.798 38.506 245.798 40.5952C245.798 42.6691 247.479 44.3626 249.574 44.3626ZM237.6 32.6305C239.677 32.6305 241.376 30.9371 241.376 28.85C241.376 26.7616 239.677 25.0754 237.6 25.0754C235.512 25.0754 233.817 26.7616 233.817 28.85C233.817 30.9371 235.512 32.6305 237.6 32.6305ZM341.409 125.12C344.521 126.842 347.002 126.104 350.044 124.994C344.989 122.467 342.386 120.196 344.658 114.264C345.68 111.563 346.955 109.574 349.839 108.712C348.026 85.5704 341.579 74.4996 320.569 64.0092L319.045 64.4493C319.072 64.7104 319.092 64.9861 319.092 65.2611C319.092 68.4356 317.335 69.9516 315.086 71.7164C318.835 72.5028 322.232 74.2122 322.232 78.7689C322.232 82.5312 319.692 84.6211 316.421 85.5973C317.469 87.6603 317.666 88.5463 317.506 90.9578C321.78 93.0113 322.757 95.7261 321.612 100.118C320.028 106.348 316.25 106.984 310.323 105.506C309.456 115.192 320.109 118.907 325.322 111.96C325.345 111.399 325.409 110.849 325.529 110.288C326.499 106.611 330.232 104.395 333.91 105.347C337.599 106.28 339.803 110.037 338.871 113.712C338.566 114.898 337.977 115.863 337.163 116.768C336.829 120.204 338.308 123.417 341.409 125.12ZM243.699 40.5952C243.699 40.0802 243.769 39.5681 243.828 39.0661C216.336 37.0708 196.685 55.7703 193.986 82.1711C196.426 83.1298 197.331 84.2246 198.441 86.6361C203.194 86.372 205.345 88.2844 206.493 92.6738C208.078 98.9028 205.087 101.267 199.188 102.844C200.958 106.9 204.539 109.622 209.239 108.413C213.026 107.436 215.396 104.143 215.479 100.315C214.823 99.1778 214.444 98.0183 214.444 96.6878C214.444 92.8891 217.522 89.7983 221.32 89.7983C225.119 89.7983 228.198 92.8891 228.198 96.6878C228.198 97.4378 228.049 98.1529 227.844 98.8803C228.927 102.506 231.993 105.047 235.877 105.047C240.714 105.047 243.51 101.505 244.219 97.1388C238.117 97.0901 234.631 95.5384 234.631 89.1268C234.631 84.5833 236.232 82.1951 240.9 81.2662C241.961 75.5929 244.823 75.251 249.574 74.4639C254.31 75.251 257.192 75.5929 258.243 81.2662C262.909 82.1951 264.525 84.5833 264.525 89.1268C264.525 95.5384 261.028 97.0901 254.933 97.1388C255.643 101.505 258.414 105.047 263.266 105.047C267.147 105.047 270.226 102.506 271.311 98.8803C271.082 98.1529 270.946 97.4378 270.946 96.6878C270.946 92.8891 274.025 89.7983 277.824 89.7983C281.636 89.7983 284.712 92.8891 284.712 96.6878C284.712 98.0183 284.332 99.1669 283.672 100.315C283.759 104.132 286.118 107.436 289.915 108.413C294.604 109.622 298.172 106.9 299.966 102.844C294.069 101.267 291.066 98.9028 292.662 92.6738C293.797 88.2844 295.949 86.372 300.684 86.6361C301.811 84.2246 302.704 83.1298 305.168 82.1711C302.47 55.7397 282.793 37.0708 255.288 39.0793C255.359 39.5797 255.448 40.0802 255.448 40.5952C255.448 41.9308 255.043 43.0067 254.284 44.1117V50.764C255.043 51.861 255.448 52.9427 255.448 54.279C255.448 55.6306 255.043 56.7043 254.284 57.8034L254.434 64.6748C255.08 65.6088 255.448 66.7516 255.448 67.9839C255.448 71.9106 252.529 73.1021 249.574 74.4152C246.612 73.1021 243.699 71.9106 243.699 67.9839C243.699 66.6483 244.114 65.5608 244.858 64.4595V57.8034C244.114 56.7159 243.699 55.6306 243.699 54.279C243.699 52.9427 244.114 51.861 244.858 50.764V44.1117C244.114 43.0067 243.699 41.9308 243.699 40.5952ZM154.496 114.264C156.746 120.183 154.154 122.467 149.099 124.994C152.152 126.122 154.616 126.842 157.733 125.12C160.835 123.417 162.315 120.204 161.982 116.768C161.177 115.863 160.579 114.898 160.289 113.712C159.333 110.037 161.544 106.28 165.234 105.347C168.909 104.395 172.658 106.611 173.599 110.288C173.747 110.849 173.808 111.399 173.818 111.96C179.034 118.907 189.698 115.192 188.82 105.506C182.879 106.984 179.121 106.336 177.534 100.118C176.396 95.7261 177.362 93.0113 181.649 90.9578C181.49 88.5463 181.686 87.6603 182.737 85.5842C179.463 84.6211 176.922 82.5312 176.922 78.7689C176.922 74.2122 180.292 72.5028 184.068 71.7164C181.806 69.9516 180.05 68.4356 180.05 65.2611C180.05 64.9861 180.085 64.6988 178.521 64.1365C157.111 74.7258 151.138 85.3347 149.305 108.712C152.188 109.574 153.471 111.551 154.496 114.264ZM336.254 136.175C309.947 123.775 280.57 116.856 249.574 116.856C218.583 116.856 189.343 123.729 163.032 136.139C161.312 136.94 159.346 136.187 158.517 134.397C157.685 132.633 158.576 131.308 159.31 129.756C153.946 131.413 149.976 131.399 145.301 127.796C136.665 133.648 126.709 121.618 133.233 116.139C130.166 112.151 130.13 107.821 134.638 104.967C133.831 103.593 133.318 102.519 133.318 100.864C133.318 96.3255 136.689 94.5979 140.439 93.8159C138.192 92.0642 136.443 90.5366 136.443 87.373C136.443 82.7436 140.034 80.8086 143.98 80.4296C142.881 78.7936 142.086 77.6152 142.086 75.5252C142.086 71.7542 145.141 68.6866 148.913 68.6866C150.099 68.6866 151.237 69.0721 152.371 69.3864C151.675 67.8617 151.041 66.7138 151.041 64.9971C151.041 61.2173 154.107 58.1577 157.88 58.1577C159.7 58.1577 160.849 58.8306 162.401 59.6177C162.277 58.8044 162.057 57.8398 162.057 56.9902C162.057 53.2177 165.122 50.1516 168.886 50.1516C170.974 50.1516 172.194 50.9634 173.808 52.0865C174.577 48.5025 176.58 45.5207 180.744 45.5207C183.799 45.5207 185.533 47.1851 187.061 49.5631C188.683 47.7532 190.211 46.534 192.813 46.534C193.849 46.534 194.85 46.8228 195.855 47.0621C195.33 45.7236 194.828 44.6594 194.828 43.1711C194.828 39.3986 197.893 36.3296 201.668 36.3296C203.829 36.3296 205.087 37.2534 206.824 38.3293C206.677 37.4898 206.408 36.3783 206.408 35.4705C206.408 31.69 209.471 28.6369 213.259 28.6369C215.434 28.6369 216.692 29.5157 218.33 30.7378C219.119 27.1631 221.097 24.1719 225.279 24.1719C227.804 24.1719 229.25 25.3133 230.92 26.9886C232.264 24.1355 234.132 22.0231 237.6 22.0231C238.602 22.0231 239.408 22.25 240.327 22.5614C242.45 20.1485 244.319 19.0849 247.287 18.3226V11.0679H241.538V6.81674H247.287V1.62502H251.854V6.81674H257.631V11.0679H251.854V18.3226C254.823 19.0849 256.696 20.1485 258.803 22.5614C259.746 22.25 260.537 22.0231 261.54 22.0231C265.011 22.0231 266.868 24.1355 268.211 26.9886C269.884 25.3133 271.335 24.1719 273.875 24.1719C278.042 24.1719 280.02 27.1631 280.814 30.7378C282.451 29.5157 283.724 28.6369 285.895 28.6369C289.673 28.6369 292.734 31.69 292.734 35.4705C292.734 36.3783 292.492 37.4672 292.345 38.3162C294.089 37.2403 295.313 36.3296 297.476 36.3296C301.251 36.3296 304.315 39.3986 304.315 43.1711C304.315 44.6594 303.815 45.7113 303.287 47.0621C304.291 46.8228 305.289 46.534 306.33 46.534C308.933 46.534 310.444 47.7532 312.084 49.5631C313.607 47.1851 315.344 45.5207 318.399 45.5207C322.563 45.5207 324.568 48.5141 325.361 52.0865C326.959 50.9634 328.167 50.1516 330.245 50.1516C334.021 50.1516 337.084 53.2177 337.084 56.9902C337.084 57.8588 336.905 58.8044 336.776 59.6177C338.348 58.816 339.446 58.1577 341.264 58.1577C345.039 58.1577 348.103 61.2173 348.103 64.9971C348.103 66.7138 347.467 67.8617 346.771 69.3864C347.905 69.0721 349.03 68.6866 350.22 68.6866C354.003 68.6866 357.067 71.7542 357.067 75.5252C357.067 77.6152 356.261 78.7936 355.175 80.4427C359.119 80.8086 362.7 82.7436 362.7 87.373C362.7 90.5366 360.953 92.0642 358.704 93.8159C362.453 94.5979 365.824 96.3255 365.824 100.864C365.824 102.519 365.311 103.593 364.505 104.967C369.002 107.809 368.973 112.139 365.9 116.139C369.83 119.43 367.804 124.56 364.471 127.175C361.052 129.837 357.582 130.338 353.841 127.796C349.164 131.399 345.21 131.413 339.821 129.756L340.628 131.413C341.921 134.159 339.26 137.301 336.254 136.175ZM171.987 143.039L166.405 140.989L165.993 140.09C165.539 140.301 165.16 140.399 164.854 140.426C163.376 140.543 163.46 138.85 164.181 138.502C190.138 126.281 218.999 119.465 249.574 119.465C280.154 119.465 309.004 126.281 334.948 138.502C335.689 138.85 335.813 140.578 334.297 140.426C333.997 140.389 333.59 140.301 333.164 140.09L332.751 140.989L327.142 143.039L328.79 149.481L328.278 150.582C331.246 151.976 329.184 154.04 327.986 153.471C304.155 142.226 277.663 136.04 249.574 136.04C221.48 136.04 194.987 142.226 171.167 153.471C170.572 153.762 169.838 153.495 169.483 152.736C169.13 151.987 169.458 151.509 169.935 151.097C170.216 150.881 170.559 150.722 170.852 150.582L170.35 149.481L171.987 143.039ZM202.987 138.314L214.921 129.996L200.446 128.467L188.513 136.786L202.987 138.314ZM320.485 146.067C323.175 146.067 325.361 143.893 325.361 141.202C325.361 138.524 323.175 136.353 320.485 136.353C317.811 136.353 315.635 138.524 315.635 141.202C315.635 143.893 317.811 146.067 320.485 146.067ZM225.35 133.449C228.039 133.449 230.213 131.273 230.213 128.587C230.213 125.908 228.039 123.73 225.35 123.73C222.674 123.73 220.491 125.908 220.491 128.587C220.491 131.273 222.674 133.449 225.35 133.449ZM178.643 146.067C181.334 146.067 183.506 143.893 183.506 141.202C183.506 138.524 181.334 136.353 178.643 136.353C175.968 136.353 173.796 138.524 173.796 141.202C173.796 143.893 175.968 146.067 178.643 146.067ZM273.788 133.449C276.479 133.449 278.667 131.273 278.667 128.587C278.667 125.908 276.479 123.73 273.788 123.73C271.117 123.73 268.928 125.908 268.928 128.587C268.928 131.273 271.117 133.449 273.788 133.449ZM296.167 138.314L310.63 136.786L298.687 128.467L284.234 129.996L296.167 138.314ZM264.757 127.369L249.574 121.701L234.385 127.369L249.574 133.024L264.757 127.369ZM92.3027 320.43C92.3027 406.943 163.048 477.698 249.574 477.698C336.085 477.698 406.84 406.943 406.84 320.43C406.84 233.716 336.085 163.166 249.574 163.166C163.048 163.166 92.3027 233.716 92.3027 320.43ZM423.938 320.43C423.938 416.362 345.696 494.793 249.574 494.793C153.446 494.793 75.2021 416.362 75.2021 320.43C75.2021 224.298 153.446 145.865 249.574 145.865C345.696 145.865 423.938 224.298 423.938 320.43ZM226.669 246.316L249.413 269.538L270.728 247.014C263.238 245.014 256.128 243.573 248.351 243.335C241.057 243 233.729 244.728 226.669 246.316ZM286.565 230.015L319.997 195.5C363.248 220.275 392.353 266.74 392.353 319.868C392.353 354.514 380.089 386.177 359.45 410.931L343.838 395.328C361.386 373.911 372.812 352.59 372.812 318.543C372.812 282.084 353.775 241.45 323.365 220.422L303.301 240.95C313.586 248.667 321.733 256.438 328.632 267.355L313.292 280.608C307.186 269.927 299.404 262.463 289.279 255.581L249.363 297.756L207.922 255.008C186.438 270.004 173.818 291.44 173.235 318.102C172.526 353.492 195.439 378.177 227.599 388.896V317.745H276.647V332.39H246.581V351.401H276.261V368.122H246.581V392.109C268.576 393.252 291.969 380.518 306.235 364.72L320.923 379.564C302.14 401.341 275.049 412.384 246.581 412.575V434.484H227.599V410.282C184.216 399.476 152.91 361.484 153.483 316.12C153.871 284.963 170.41 259.481 194.507 241.327L174.149 220.275C142.625 246.091 125.684 277.504 124.255 318.458C123.157 354.635 141.867 383.642 153.641 395.89L140.024 409.809C118.832 385.092 106.411 354.679 106.411 319.868C106.411 267.111 135.492 220.66 178.376 195.885L212.207 231.22C224.204 226.613 236.684 224.153 249.542 224.153C262.36 224.325 273.476 226.652 285.383 231.207L286.565 230.015Z" fill="#EBC200"/>
<path d="M192.823 49.5888C194.913 49.5888 196.6 51.2816 196.6 53.3715C196.6 55.46 194.913 57.1498 192.823 57.1498C190.733 57.1498 189.036 55.46 189.036 53.3715C189.036 51.2816 190.733 49.5888 192.823 49.5888ZM192.823 58.2373C195.511 58.2373 197.675 56.0594 197.675 53.3715C197.675 50.6836 195.511 48.5144 192.823 48.5144C190.124 48.5144 187.963 50.6836 187.963 53.3715C187.963 56.0594 190.124 58.2373 192.823 58.2373Z" fill="#004996"/>
<path d="M178.447 65.7627C178.56 67.7399 179.376 69.5294 180.612 70.9152C177.496 72.1569 175.297 75.1976 175.322 79.3382C171.193 80.2591 166.504 81.487 162.706 82.9768C160.165 83.9726 157.831 85.274 155.694 86.8925C159.723 78.172 166.65 71.8936 178.447 65.7627ZM180.501 86.5499C180.122 87.5625 179.95 88.7053 179.975 89.982C175.334 92.4414 174.921 96.4794 175.968 100.523C177.203 105.348 180.195 108.926 187.316 107.514C187.01 113.666 179.255 116.121 175.406 111.393C175.372 110.893 175.297 110.392 175.177 109.892C174.003 105.348 169.372 102.61 164.829 103.771C160.289 104.951 157.55 109.581 158.71 114.116C159.04 115.381 159.639 116.494 160.421 117.432C160.569 119.931 159.297 122.422 156.963 123.712C155.806 124.345 154.547 124.609 153.327 124.526C157.501 121.585 157.49 117.598 156.011 113.676C155.059 111.191 153.52 108.627 151.015 107.577C151.627 100.248 152.777 94.196 154.813 89.0036C156.831 87.2526 159.564 85.3766 163.108 83.9843C166.82 82.5258 171.416 81.3219 175.456 80.4126C176.017 83.203 177.936 85.4886 180.501 86.5499ZM149.305 108.701C152.188 109.581 153.471 111.552 154.496 114.257C156.746 120.183 154.143 122.471 149.11 124.999C152.152 126.112 154.616 126.84 157.733 125.121C160.835 123.424 162.315 120.211 161.972 116.768C161.177 115.858 160.591 114.905 160.274 113.72C159.333 110.037 161.557 106.286 165.234 105.336C168.909 104.4 172.658 106.612 173.61 110.288C173.747 110.844 173.796 111.406 173.818 111.967C179.034 118.892 189.71 115.192 188.82 105.5C182.894 106.978 179.121 106.337 177.534 100.118C176.396 95.7345 177.362 93.0052 181.638 90.9546C181.49 88.5533 181.686 87.668 182.737 85.5919C179.463 84.615 176.922 82.5381 176.922 78.7562C176.922 74.2185 180.304 72.4923 184.068 71.7168C181.82 69.9579 180.05 68.4433 180.05 65.2681C180.05 64.9785 180.072 64.6992 178.251 64.038C157.098 74.7342 151.138 85.3279 149.305 108.701Z" fill="#004996"/>
<path d="M186.888 61.4735C188.979 61.4735 190.664 63.1772 190.664 65.2678C190.664 67.3417 188.979 69.0287 186.888 69.0287C184.8 69.0287 183.114 67.3417 183.114 65.2678C183.114 63.1772 184.813 61.4735 186.888 61.4735ZM182.027 65.2678C182.027 67.9411 184.216 70.1162 186.888 70.1162C189.575 70.1162 191.75 67.9411 191.75 65.2678C191.75 62.5734 189.575 60.3991 186.888 60.3991C184.216 60.3991 182.027 62.5734 182.027 65.2678Z" fill="#004996"/>
<path d="M139.501 87.3634C139.501 85.2917 141.196 83.5881 143.296 83.5881C145.372 83.5881 147.072 85.2917 147.072 87.3634C147.072 89.4584 145.372 91.1555 143.296 91.1555C141.196 91.1555 139.501 89.4584 139.501 87.3634ZM148.148 87.3634C148.148 84.6879 145.971 82.5129 143.296 82.5129C140.597 82.5129 138.425 84.6879 138.425 87.3634C138.425 90.0564 140.597 92.2285 143.296 92.2285C145.971 92.2285 148.148 90.0564 148.148 87.3634Z" fill="#004996"/>
<path d="M180.731 48.5936C182.822 48.5936 184.518 50.2776 184.518 52.3544C184.518 54.4443 182.822 56.1364 180.731 56.1364C178.642 56.1364 176.955 54.4443 176.955 52.3544C176.955 50.2776 178.642 48.5936 180.731 48.5936ZM180.731 57.2246C183.429 57.2246 185.593 55.0437 185.593 52.3544C185.593 49.6818 183.429 47.501 180.731 47.501C178.046 47.501 175.884 49.6818 175.884 52.3544C175.884 55.0437 178.046 57.2246 180.731 57.2246Z" fill="#004996"/>
<path d="M168.899 53.2176C170.987 53.2176 172.673 54.9097 172.673 56.9981C172.673 59.0852 170.987 60.7721 168.899 60.7721C166.807 60.7721 165.11 59.0735 165.11 56.9981C165.11 54.9097 166.807 53.2176 168.899 53.2176ZM168.899 61.853C171.571 61.853 173.747 59.6729 173.747 56.9981C173.747 54.3103 171.571 52.1301 168.899 52.1301C166.224 52.1301 164.025 54.3103 164.025 56.9981C164.025 59.6729 166.224 61.853 168.899 61.853Z" fill="#004996"/>
<path d="M148.913 71.7453C151.006 71.7453 152.699 73.4445 152.699 75.5323C152.699 77.6098 151.006 79.2939 148.913 79.2939C146.827 79.2939 145.141 77.6098 145.141 75.5323C145.141 73.4445 146.827 71.7453 148.913 71.7453ZM148.913 80.3872C151.614 80.3872 153.788 78.2085 153.788 75.5323C153.788 72.8451 151.614 70.6643 148.913 70.6643C146.23 70.6643 144.065 72.8451 144.065 75.5323C144.065 78.2085 146.23 80.3872 148.913 80.3872Z" fill="#004996"/>
<path d="M157.894 61.2116C159.97 61.2116 161.656 62.9145 161.656 64.9928C161.656 67.0805 159.97 68.7646 157.894 68.7646C155.791 68.7646 154.094 67.0805 154.094 64.9928C154.094 62.9145 155.791 61.2116 157.894 61.2116ZM157.894 69.8521C160.569 69.8521 162.742 67.6792 162.742 64.9928C162.742 62.3107 160.569 60.1357 157.894 60.1357C155.195 60.1357 153.018 62.3107 153.018 64.9928C153.018 67.6792 155.195 69.8521 157.894 69.8521Z" fill="#004996"/>
<path d="M253.357 67.9789C253.357 70.0674 251.659 71.7572 249.56 71.7572C247.495 71.7572 245.798 70.0674 245.798 67.9789C245.798 65.9021 247.495 64.1955 249.56 64.1955C251.659 64.1955 253.357 65.9021 253.357 67.9789ZM244.713 67.9789C244.713 70.6639 246.889 72.8447 249.56 72.8447C252.259 72.8447 254.434 70.6639 254.434 67.9789C254.434 65.3034 252.259 63.124 249.56 63.124C246.889 63.124 244.713 65.3034 244.713 67.9789Z" fill="#004996"/>
<path d="M225.279 27.2314C227.365 27.2314 229.055 28.9183 229.055 31.0067C229.055 33.0952 227.365 34.7851 225.279 34.7851C223.189 34.7851 221.503 33.0952 221.503 31.0067C221.503 28.9183 223.189 27.2314 225.279 27.2314ZM225.279 35.874C227.953 35.874 230.129 33.6801 230.129 31.0067C230.129 28.3189 227.953 26.1511 225.279 26.1511C222.606 26.1511 220.415 28.3189 220.415 31.0067C220.415 33.6997 222.606 35.874 225.279 35.874Z" fill="#004996"/>
<path d="M237.612 25.0758C239.69 25.0758 241.376 26.7686 241.376 28.857C241.376 30.9455 239.69 32.631 237.612 32.631C235.527 32.631 233.817 30.9455 233.817 28.857C233.817 26.7686 235.527 25.0758 237.612 25.0758ZM237.612 33.7119C240.289 33.7119 242.461 31.5427 242.461 28.857C242.461 26.1692 240.289 23.9883 237.612 23.9883C234.914 23.9883 232.742 26.1692 232.742 28.857C232.742 31.5427 234.914 33.7119 237.612 33.7119Z" fill="#004996"/>
<path d="M140.17 97.0953C142.245 97.0953 143.931 98.7822 143.931 100.859C143.931 102.945 142.245 104.638 140.17 104.638C138.081 104.638 136.372 102.945 136.372 100.859C136.372 98.7822 138.067 97.0953 140.17 97.0953ZM140.17 105.726C142.844 105.726 145.02 103.552 145.02 100.859C145.02 98.1828 142.844 96.0092 140.17 96.0092C137.472 96.0092 135.296 98.1828 135.296 100.859C135.296 103.552 137.472 105.726 140.17 105.726Z" fill="#004996"/>
<path d="M213.245 31.6951C215.337 31.6951 217.02 33.3821 217.02 35.4705C217.02 37.5568 215.337 39.2525 213.245 39.2525C211.169 39.2525 209.472 37.5568 209.472 35.4705C209.472 33.3821 211.169 31.6951 213.245 31.6951ZM213.245 40.3262C215.935 40.3262 218.106 38.1635 218.106 35.4705C218.106 32.7819 215.935 30.6105 213.245 30.6105C210.572 30.6105 208.397 32.7819 208.397 35.4705C208.397 38.1635 210.572 40.3262 213.245 40.3262Z" fill="#004996"/>
<path d="M243.231 62.9889V63.9774C242.509 65.1261 242.071 66.5016 242.071 67.979C242.071 70.3163 243.146 72.4055 244.823 73.7796C242.289 74.6707 240.311 76.5213 239.52 79.9104C234.412 81.1405 233.006 84.9378 233.006 89.1154C233.006 94.0925 235.012 98.3051 242.254 98.7205C241.41 101.45 238.871 103.423 235.869 103.423C232.922 103.423 230.419 101.525 229.53 98.874C229.711 98.1727 229.821 97.4446 229.821 96.6815C229.821 91.991 226.01 88.1916 221.31 88.1916C216.629 88.1916 212.818 91.991 212.818 96.6815C212.818 98.1465 213.21 99.5214 213.856 100.724C213.698 103.564 211.733 106.099 208.825 106.837C205.93 107.589 202.96 106.312 201.459 103.875C208.396 101.684 209.276 97.0954 208.042 92.2783C207.002 88.2425 204.696 84.9014 199.445 84.9734C198.467 83.1104 197.198 81.8716 195.707 81.1507C196.16 77.2059 197.05 73.3948 198.331 69.7918C211.841 62.2869 229.53 60.9484 243.231 62.9889ZM242.071 40.5896C242.071 42.0663 242.509 43.439 243.231 44.6007V50.2776C242.509 51.4328 242.071 52.8077 242.071 54.2793C242.071 55.7574 242.509 57.1323 243.231 58.2991V61.8875C228.892 59.8005 212.025 61.4518 198.907 68.2526C205.575 51.4699 221.183 39.3843 242.071 40.5896ZM198.441 86.6414C203.205 86.3657 205.356 88.2774 206.481 92.6799C208.078 98.898 205.086 101.272 199.188 102.837C200.958 106.901 204.539 109.617 209.239 108.402C213.015 107.423 215.396 104.138 215.479 100.31C214.822 99.1737 214.433 98.0185 214.433 96.6815C214.433 92.8814 217.522 89.805 221.31 89.805C225.128 89.805 228.208 92.8814 228.208 96.6815C228.208 97.4446 228.049 98.1596 227.844 98.8864C228.927 102.514 231.993 105.036 235.869 105.036C240.727 105.036 243.51 101.513 244.219 97.1456C238.127 97.0954 234.624 95.5452 234.624 89.1154C234.624 84.5908 236.232 82.1888 240.9 81.2729C241.961 75.5931 244.823 75.1974 249.56 74.4081C246.612 73.1075 243.689 71.9174 243.689 67.979C243.689 66.6413 244.114 65.5538 244.844 64.4663V57.8088C244.114 56.7111 243.689 55.6243 243.689 54.2793C243.689 52.943 244.114 51.8555 244.844 50.7694V44.1017C244.114 43.0135 243.689 41.9245 243.689 40.5896C243.689 40.087 243.769 39.5734 243.817 39.073C216.336 37.0587 196.685 55.7705 193.971 82.1764C196.44 83.1236 197.316 84.2249 198.441 86.6414Z" fill="#004996"/>
<path d="M257.058 67.979C257.058 66.5016 256.643 65.1377 255.91 63.9774V62.975C269.614 60.9484 287.298 62.2869 300.813 69.7918C302.089 73.3948 302.982 77.2059 303.436 81.1507C301.947 81.8716 300.676 83.1104 299.693 84.9734C294.444 84.9014 292.137 88.2294 291.099 92.2783C289.867 97.0954 290.755 101.684 297.68 103.875C296.18 106.312 293.214 107.589 290.319 106.837C287.411 106.099 285.443 103.564 285.285 100.724C285.942 99.5214 286.313 98.1465 286.313 96.6815C286.313 91.991 282.524 88.1916 277.823 88.1916C273.144 88.1916 269.322 91.991 269.322 96.6815C269.322 97.4446 269.432 98.1727 269.627 98.874C268.72 101.525 266.219 103.423 263.266 103.423C260.258 103.423 257.717 101.45 256.885 98.7205C264.131 98.3051 266.123 94.0925 266.123 89.1154C266.123 84.9377 264.727 81.1405 259.622 79.9104C258.829 76.5213 256.864 74.6707 254.323 73.7796C255.997 72.4055 257.058 70.3163 257.058 67.979ZM255.91 58.2991C256.643 57.1323 257.058 55.7574 257.058 54.2793C257.058 52.8077 256.643 51.4328 255.91 50.2776V44.6007C256.643 43.439 257.058 42.0663 257.058 40.5896C277.953 39.3843 293.567 51.4699 300.221 68.2417C287.103 61.3769 270.286 59.8623 255.91 61.8875V58.2991ZM258.243 81.2729C262.909 82.1888 264.506 84.5762 264.506 89.1154C264.506 95.5336 261.041 97.0954 254.932 97.1456C255.629 101.513 258.424 105.036 263.266 105.036C267.147 105.036 270.213 102.502 271.311 98.8864C271.093 98.1596 270.945 97.4446 270.945 96.6815C270.945 92.8814 274.025 89.805 277.823 89.805C281.636 89.805 284.699 92.8814 284.699 96.6815C284.699 98.0185 284.321 99.1737 283.659 100.31C283.748 104.138 286.118 107.423 289.901 108.402C294.604 109.617 298.182 106.901 299.966 102.837C294.068 101.272 291.066 98.898 292.662 92.6798C293.787 88.2774 295.949 86.3657 300.702 86.6414C301.824 84.2249 302.704 83.1236 305.168 82.1764C302.459 55.7465 282.792 37.0587 255.298 39.073C255.372 39.588 255.447 40.0746 255.447 40.5896C255.447 41.9245 255.03 43.0135 254.3 44.1017V50.7694C255.03 51.8555 255.447 52.943 255.447 54.2793C255.447 55.6243 255.03 56.7111 254.3 57.8088L254.433 64.675C255.066 65.6142 255.447 66.7519 255.447 67.979C255.447 71.9174 252.529 73.1075 249.56 74.4081C254.323 75.1974 257.179 75.5931 258.243 81.2729Z" fill="#004996"/>
<path d="M201.668 39.3991C203.757 39.3991 205.441 41.0896 205.441 43.1781C205.441 45.2666 203.757 46.9521 201.668 46.9521C199.59 46.9521 197.881 45.2666 197.881 43.1781C197.881 41.0896 199.59 39.3991 201.668 39.3991ZM201.668 48.0396C204.355 48.0396 206.528 45.8514 206.528 43.1781C206.528 40.4902 204.355 38.3101 201.668 38.3101C198.98 38.3101 196.808 40.4902 196.808 43.1781C196.808 45.8514 198.98 48.0396 201.668 48.0396Z" fill="#004996"/>
<path d="M249.56 58.0609C247.495 58.0609 245.798 56.3689 245.798 54.279C245.798 52.1905 247.495 50.5065 249.56 50.5065C251.659 50.5065 253.357 52.2043 253.357 54.279C253.357 56.3689 251.659 58.0609 249.56 58.0609ZM249.56 49.419C246.889 49.419 244.713 51.6057 244.713 54.279C244.713 56.9734 246.889 59.147 249.56 59.147C252.259 59.147 254.434 56.9734 254.434 54.279C254.434 51.6057 252.259 49.419 249.56 49.419Z" fill="#004996"/>
<path d="M249.56 472.488C165.93 472.488 97.5177 404.072 97.5177 320.425C97.5177 236.601 165.916 168.371 249.56 168.371C333.214 168.371 401.625 236.601 401.625 320.425C401.625 404.072 333.214 472.488 249.56 472.488ZM249.56 163.166C163.058 163.166 92.3027 233.723 92.3027 320.425C92.3027 406.951 163.058 477.684 249.56 477.684C336.093 477.684 406.84 406.951 406.84 320.425C406.84 233.723 336.093 163.166 249.56 163.166Z" fill="#004996"/>
<path d="M249.343 262.043L237.027 249.461C241.264 248.758 245.336 248.41 248.155 248.534C252.489 248.668 256.719 249.108 260.821 249.908L249.343 262.043ZM226.684 246.322L249.413 269.549L270.728 247.007C263.251 245.003 256.129 243.578 248.352 243.329C241.047 243.006 233.73 244.716 226.684 246.322Z" fill="#004996"/>
<path d="M138.337 112.541C141.623 110.728 145.752 111.93 147.557 115.204C149.368 118.496 148.167 122.61 144.895 124.427C141.6 126.241 137.482 125.035 135.663 121.744C133.854 118.47 135.065 114.342 138.337 112.541ZM145.41 125.37C149.22 123.272 150.601 118.496 148.512 114.692C146.422 110.88 141.623 109.49 137.813 111.588C134.012 113.676 132.623 118.47 134.724 122.268C136.824 126.087 141.6 127.474 145.41 125.37Z" fill="#004996"/>
<path d="M134.638 104.963C133.831 103.589 133.317 102.514 133.317 100.859C133.317 96.334 136.688 94.6049 140.439 93.8163C138.192 92.0523 136.442 90.5429 136.442 87.3633C136.442 82.7506 140.024 80.8091 143.98 80.4366C142.881 78.7941 142.076 77.6229 142.076 75.5322C142.076 71.7452 145.14 68.6936 148.913 68.6936C150.111 68.6936 151.236 69.0777 152.371 69.3869C151.674 67.8687 151.041 66.7143 151.041 64.9932C151.041 61.212 154.094 58.1582 157.894 58.1582C159.688 58.1582 160.849 58.8354 162.4 59.6232C162.277 58.81 162.057 57.8461 162.057 56.9987C162.057 53.2182 165.122 50.1571 168.898 50.1571C170.987 50.1571 172.194 50.9704 173.807 52.0819C174.587 48.5029 176.58 45.5284 180.731 45.5284C183.798 45.5284 185.544 47.1899 187.06 49.5533C188.698 47.7537 190.211 46.5316 192.823 46.5316C193.861 46.5316 194.866 46.8298 195.855 47.0677C195.317 45.7183 194.828 44.6562 194.828 43.1781C194.828 39.3991 197.88 36.3366 201.668 36.3366C203.828 36.3366 205.086 37.2488 206.832 38.3232C206.676 37.4983 206.419 36.3882 206.419 35.4709C206.419 31.6955 209.471 28.6308 213.244 28.6308C215.433 28.6308 216.68 29.5161 218.341 30.7448C219.119 27.1534 221.097 24.1673 225.279 24.1673C227.816 24.1673 229.259 25.3137 230.933 26.9926C232.263 24.1411 234.131 22.0185 237.611 22.0185C238.591 22.0185 239.408 22.2549 240.337 22.5677C242.449 20.1541 244.318 19.0854 247.287 18.3231V11.0618H241.52V6.80414H247.287V1.61243H251.854V6.80414H257.622V11.0618H251.854V18.3231C254.822 19.0854 256.696 20.1541 258.803 22.5677C259.733 22.2549 260.549 22.0185 261.527 22.0185C265.011 22.0185 266.876 24.1411 268.211 26.9926C269.884 25.3137 271.334 24.1673 273.864 24.1673C278.041 24.1673 280.02 27.1534 280.801 30.7448C282.463 29.5161 283.709 28.6308 285.895 28.6308C289.672 28.6308 292.72 31.6955 292.72 35.4709C292.72 36.3882 292.492 37.4728 292.357 38.3101C294.081 37.2342 295.313 36.3366 297.476 36.3366C301.261 36.3366 304.314 39.3991 304.314 43.1781C304.314 44.6679 303.825 45.7183 303.3 47.0677C304.301 46.8298 305.279 46.5316 306.319 46.5316C308.933 46.5316 310.444 47.7537 312.07 49.5533C313.606 47.1899 315.359 45.5284 318.407 45.5284C322.574 45.5284 324.554 48.5146 325.345 52.0935C326.959 50.9573 328.157 50.1571 330.244 50.1571C334.033 50.1571 337.084 53.2182 337.084 56.9987C337.084 57.8461 336.887 58.7998 336.776 59.6232C338.347 58.81 339.43 58.1582 341.264 58.1582C345.047 58.1582 348.102 61.212 348.102 64.9932C348.102 66.7143 347.453 67.8687 346.77 69.3767C347.905 69.0777 349.03 68.6936 350.228 68.6936C354.003 68.6936 357.066 71.7452 357.066 75.5322C357.066 77.6229 356.26 78.7941 355.174 80.4366C359.118 80.8091 362.713 82.7506 362.713 87.3633C362.713 90.5429 360.952 92.0523 358.704 93.8163C362.452 94.6049 365.823 96.334 365.823 100.859C365.823 102.525 365.311 103.589 364.504 104.963C369.012 107.815 368.989 112.139 365.912 116.146C369.829 119.431 367.791 124.561 364.454 127.162C361.052 129.823 357.592 130.338 353.855 127.803C349.177 131.399 345.21 131.399 339.837 129.749L340.615 131.413C341.934 134.166 339.273 137.308 336.246 136.183C309.947 123.773 280.569 116.846 249.559 116.846C218.571 116.846 189.331 123.734 163.032 136.133C161.312 136.947 159.346 136.183 158.527 134.405C157.685 132.641 158.576 131.316 159.31 129.749C153.945 131.399 149.966 131.399 145.3 127.803C136.665 133.641 126.709 121.625 133.232 116.146C130.166 112.158 130.13 107.815 134.638 104.963ZM334.296 140.42C333.983 140.398 333.59 140.295 332.738 140.997L327.142 143.048L328.803 149.477L328.29 150.576C331.235 151.976 329.184 154.04 327.973 153.476C304.154 142.233 277.663 136.04 249.559 136.04C221.491 136.04 194.999 142.233 171.167 153.476C170.558 153.763 169.848 153.501 169.483 152.736C169.13 151.992 169.458 151.517 169.948 151.091C170.216 150.888 170.558 150.729 170.852 150.576L170.337 149.488L171.998 143.048L165.978 140.097C165.526 140.31 165.17 140.398 164.854 140.42C163.366 140.546 163.451 138.844 164.196 138.509C190.124 126.276 218.987 119.473 249.559 119.473C280.154 119.473 309.004 126.276 334.948 138.509C335.702 138.858 335.812 140.574 334.296 140.42ZM334.74 146.838L329.938 149.502L329.512 147.926L328.44 143.724L333.742 142.686L334.74 146.838ZM168.358 149.04L164.403 146.838L165.648 141.911L167.038 142.385L170.706 143.724L169.631 147.939L168.358 149.04ZM145.239 129.776C148.512 132.103 152.627 133.008 156.621 132.194C156.487 133.155 156.609 134.154 157.062 135.095C158.05 137.207 160.211 138.37 162.409 138.008C161.495 139.548 162.471 141.911 164.425 142.148L163.157 147.376L168.395 150.302C167.699 151.148 167.529 152.366 168.018 153.414C168.677 154.813 170.276 155.67 171.854 154.941C195.462 143.798 221.723 137.654 249.559 137.654C277.422 137.654 303.678 143.798 327.3 154.941C328.863 155.67 330.479 154.826 331.122 153.414C331.624 152.353 331.44 151.148 330.744 150.302L335.983 147.376L334.714 142.148C336.681 141.898 337.669 139.535 336.729 137.995C340.029 138.495 343.011 135.554 342.535 132.194C346.516 133.008 350.635 132.103 353.917 129.776C358.096 132.292 362.353 130.849 365.455 128.437C368.585 125.99 371.85 119.821 368.088 115.919C370.699 111.967 370.05 107.077 366.63 104.451C367.157 103.362 367.439 102.147 367.439 100.859C367.439 97.3124 365.237 94.2688 362.15 93.0155C363.493 91.5271 364.323 89.5419 364.323 87.3633C364.323 83.3857 361.562 80.0583 357.852 79.1607C358.375 78.063 358.682 76.8344 358.682 75.5322C358.682 70.8548 354.894 67.0809 349.445 67.1158C349.615 66.4393 349.716 65.725 349.716 64.9932C349.716 60.3259 345.927 56.5484 341.264 56.5484C340.37 56.5484 339.503 56.6873 338.71 56.9354C338.67 52.2958 334.898 48.5386 330.244 48.5386C328.842 48.5386 327.52 48.8936 326.362 49.4923C325.187 46.2428 322.075 43.9063 318.407 43.9063C315.774 43.9063 313.428 45.1131 311.873 47.0008C310.385 45.7067 308.455 44.9123 305.73 44.9421C305.867 44.3762 305.928 43.7768 305.928 43.1781C305.928 38.5123 302.139 34.7195 297.476 34.7195C296.361 34.7195 295.3 34.9326 294.336 35.3385C294.26 30.7317 290.51 27.0181 285.895 27.0181C284.392 27.0181 283.013 27.4029 281.791 28.0816C280.606 24.8555 277.516 22.5545 273.864 22.5545C271.912 22.5545 270.115 23.2238 268.676 24.3434C267.186 21.9748 264.545 20.3985 261.527 20.3985C260.76 20.3985 260.026 20.5127 259.304 20.7047C257.941 19.2506 256.226 18.115 253.466 17.0893V12.6731H259.231V5.19072H253.466V0.000419622H245.677V5.19072H239.91V12.6731H245.677L244.807 17.3861C242.916 18.115 241.206 19.2506 239.835 20.7047C239.116 20.5127 238.37 20.3985 237.611 20.3985C234.597 20.3985 231.958 21.9748 230.466 24.3434C229.028 23.2238 227.231 22.5545 225.279 22.5545C221.626 22.5545 218.536 24.8555 217.352 28.0816C216.126 27.4029 214.734 27.0181 213.244 27.0181C208.629 27.0181 204.88 30.7317 204.806 35.324C203.841 34.9326 202.778 34.7195 201.668 34.7195C197.001 34.7195 193.203 38.5123 193.203 43.1781C193.203 43.7768 193.273 44.3762 192.823 44.9123C190.7 44.9123 188.756 45.7067 187.265 47.0008C185.728 45.1131 183.384 43.9063 180.731 43.9063C177.069 43.9063 173.954 46.2428 172.795 49.4923C171.621 48.8936 170.304 48.5386 168.898 48.5386C164.254 48.5386 160.481 52.2958 160.433 56.9485C159.638 56.6873 158.771 56.5484 157.894 56.5484C153.212 56.5484 149.425 60.3259 149.425 64.9932C149.425 65.725 149.525 66.4393 148.913 67.0809C144.251 67.0809 140.461 70.8548 140.461 75.5322C140.461 76.8213 140.769 78.063 141.294 79.1607C137.592 80.0583 134.832 83.3857 134.832 87.3633C134.832 89.5419 135.663 91.5271 136.993 93.0155C133.904 94.2688 131.705 97.3124 131.705 100.859C131.705 102.147 131.997 103.362 132.498 104.451C129.09 107.077 128.444 111.967 131.058 115.919C125.121 122.087 136.015 135.319 145.239 129.776Z" fill="#004996"/>
<path d="M222.384 367.017V381.585C194.816 370.976 179.511 347.351 178.472 322.241L222.384 367.017ZM267.966 285.674L289.995 262.401C300.176 269.8 306.085 277.774 311.728 288.833L335.366 268.406C328.706 257.248 321.351 248.498 311.155 240.37L323.982 227.232C345.462 243.166 367.597 279.098 367.597 318.539C367.597 341.086 362.713 357.483 353.049 373.451L267.966 285.674ZM359.449 410.939L343.838 395.328C361.386 373.903 372.812 352.58 372.812 318.539C372.812 282.092 353.762 241.454 323.356 220.415L303.3 240.955C313.585 248.654 321.733 256.438 328.619 267.342L313.292 280.6C307.185 269.933 299.393 262.452 289.296 255.588L249.349 297.761L207.934 255.012C186.438 270.005 173.807 291.447 173.235 318.109C172.536 353.494 195.439 378.175 227.599 388.904V317.739H276.647V332.382H246.591V351.393H276.271V368.126H246.591V392.105C268.576 393.24 291.969 380.518 306.219 364.715L320.91 379.572C302.139 401.342 275.049 412.391 246.591 412.568V434.492H227.599V410.28C184.215 399.482 152.897 361.486 153.471 316.107C153.871 284.965 170.425 259.492 194.495 241.327L174.149 220.283C142.625 246.095 125.696 277.499 124.255 318.458C123.157 354.643 141.866 383.642 153.63 395.896L140.012 409.817C118.845 385.1 106.395 354.679 106.395 319.865C106.395 267.117 135.502 220.665 178.375 195.891L212.207 231.213C224.203 226.611 236.684 224.143 249.541 224.143C262.349 224.331 273.475 226.646 285.383 231.196L286.581 230.011L320.012 195.5C363.256 220.283 392.366 266.73 392.366 319.865C392.366 354.522 380.089 386.178 359.449 410.939ZM319.045 188.983L284.221 225.168C273.914 221.418 262.336 219.126 249.594 218.937C237.771 218.937 224.874 221.04 213.576 225.133L179.34 189.362C131.581 216.073 101.194 264.442 101.194 319.865C101.194 357.848 114.862 389.388 139.813 417.454L161.018 395.804C140.827 376.635 128.6 346.454 129.458 318.624C129.946 304.754 132.353 291.709 136.701 279.549L151.212 294.276C149.379 301.274 148.364 308.566 148.268 316.046C147.692 361.013 178.218 402.356 222.384 414.326V439.694H251.796V417.704C257.964 417.505 263.996 416.746 269.858 415.458L295.597 441.749L309.374 455.828C337.136 443.507 360.414 422.906 375.778 396.891C389.984 373.89 397.568 348.245 397.568 319.865C397.568 264.107 367.221 215.715 319.045 188.983Z" fill="#004996"/>
<path d="M249.559 494.797C153.446 494.797 75.2019 416.37 75.2019 320.425C75.2019 224.305 153.446 145.873 249.559 145.873C345.696 145.873 423.937 224.305 423.937 320.425C423.937 416.37 345.696 494.797 249.559 494.797ZM249.559 140.669C150.574 140.669 70 221.432 70 320.425C70 419.244 150.574 500 249.559 500C348.565 500 429.145 419.244 429.145 320.425C429.145 221.432 348.565 140.669 249.559 140.669Z" fill="#004996"/>
<path d="M297.476 39.3991C299.568 39.3991 301.262 41.0896 301.262 43.1781C301.262 45.2666 299.568 46.9521 297.476 46.9521C295.385 46.9521 293.698 45.2666 293.698 43.1781C293.698 41.0896 295.385 39.3991 297.476 39.3991ZM297.476 48.0396C300.161 48.0396 302.336 45.8514 302.336 43.1781C302.336 40.4902 300.161 38.3101 297.476 38.3101C294.785 38.3101 292.61 40.4902 292.61 43.1781C292.61 45.8514 294.785 48.0396 297.476 48.0396Z" fill="#004996"/>
<path d="M166.576 125.111C167.493 123.638 168.151 122.021 169.056 120.237C169.97 119.997 170.789 119.619 171.548 119.144C172.976 120.107 174.577 120.823 176.251 121.286C172.986 122.483 169.751 123.759 166.576 125.111ZM171.548 117.158C169.848 118.421 169.116 118.649 167.165 118.907C166.615 121.885 165.564 124.296 163.475 126.539L164.403 127.829C169.398 125.611 174.494 123.583 179.683 121.757L179.476 120.183C176.419 119.986 174.003 118.947 171.548 117.158Z" fill="#004996"/>
<path d="M183.75 82.5379C181.672 82.5379 179.986 80.8445 179.986 78.756C179.986 76.6661 181.672 74.9821 183.75 74.9821C185.836 74.9821 187.523 76.6821 187.523 78.756C187.523 80.8445 185.836 82.5379 183.75 82.5379ZM188.621 78.756C188.621 76.0812 186.438 73.9084 183.75 73.9084C181.075 73.9084 178.9 76.0812 178.9 78.756C178.9 81.4497 181.075 83.624 183.75 83.624C186.438 83.624 188.621 81.4497 188.621 78.756Z" fill="#004996"/>
<path d="M189.931 88.3138C193.547 87.3797 197.246 89.5672 198.187 93.1956C199.124 96.8212 196.941 100.523 193.311 101.45C189.675 102.387 185.972 100.21 185.043 96.5716C184.115 92.9446 186.289 89.2427 189.931 88.3138ZM193.57 102.502C197.771 101.421 200.31 97.1332 199.238 92.9315C198.15 88.7175 193.861 86.178 189.66 87.2648C185.435 88.3378 182.92 92.6318 183.992 96.8459C185.082 101.048 189.369 103.588 193.57 102.502Z" fill="#004996"/>
<path d="M192.251 116.106C193.861 114.006 194.9 111.479 195.182 108.79C196.747 111.001 198.87 112.718 201.315 113.781C198.258 114.495 195.23 115.265 192.251 116.106ZM195.133 105.371L193.581 105.764C194.058 110.128 192.311 114.33 189.088 117.083L189.855 118.469C194.681 117.04 199.59 115.778 204.55 114.703V113.115C200.397 112.266 196.807 109.414 195.133 105.371Z" fill="#004996"/>
<path d="M217.777 110.629C219.39 109.09 220.659 107.217 221.48 105.175C222.079 105.164 222.652 105.091 223.224 104.962C224.52 106.74 226.229 108.231 228.175 109.33C224.68 109.675 221.209 110.117 217.777 110.629ZM223.886 103.101C223.03 103.362 222.26 103.563 221.333 103.563L220.355 103.527C219.194 106.801 217.387 109.341 214.417 111.228L214.979 112.705C220.405 111.815 225.874 111.118 231.42 110.654L231.592 109.078C228.26 107.992 225.837 105.989 223.886 103.101Z" fill="#004996"/>
<path d="M270.972 109.33C272.913 108.231 274.621 106.74 275.929 104.962C276.465 105.091 277.04 105.151 277.61 105.175L277.81 105.523C278.63 107.422 279.865 109.176 281.373 110.629C277.933 110.117 274.448 109.675 270.972 109.33ZM278.79 103.527L277.81 103.563C276.877 103.563 276.124 103.362 275.257 103.101C273.302 105.976 270.896 107.992 267.551 109.078L267.725 110.654C273.265 111.118 278.746 111.815 284.16 112.705L284.725 111.228C281.754 109.341 279.943 106.801 278.79 103.527Z" fill="#004996"/>
<path d="M242.791 87.5508C242.791 83.8132 245.821 80.7725 249.559 80.7725C253.32 80.7725 256.362 83.8132 256.362 87.5508C256.362 91.3007 253.32 94.329 249.559 94.329C245.821 94.329 242.791 91.3007 242.791 87.5508ZM257.437 87.5508C257.437 83.2145 253.916 79.6879 249.559 79.6879C245.225 79.6879 241.703 83.2145 241.703 87.5508C241.703 91.895 245.225 95.4165 249.559 95.4165C253.916 95.4165 257.437 91.895 257.437 87.5508Z" fill="#004996"/>
<path d="M249.559 108.266L244.823 108.315C246.946 106.678 248.606 104.46 249.559 101.92C250.534 104.474 252.208 106.678 254.323 108.315L249.559 108.266ZM250.366 98.5799H248.774C248.154 102.96 245.343 106.635 241.486 108.485L241.876 110.014C244.432 109.928 246.993 109.877 249.559 109.877C252.148 109.877 254.714 109.928 257.268 110.014L257.657 108.485C253.808 106.635 250.987 102.96 250.366 98.5799Z" fill="#004996"/>
<path d="M320.502 144.988C318.408 144.988 316.713 143.296 316.713 141.206C316.713 139.118 318.408 137.435 320.502 137.435C322.591 137.435 324.274 139.118 324.274 141.206C324.274 143.296 322.591 144.988 320.502 144.988ZM320.502 136.341C317.798 136.341 315.636 138.519 315.636 141.206C315.636 143.894 317.798 146.074 320.502 146.074C323.189 146.074 325.346 143.894 325.346 141.206C325.346 138.519 323.189 136.341 320.502 136.341Z" fill="#004996"/>
<path d="M225.349 132.366C223.26 132.366 221.574 130.679 221.574 128.591C221.574 126.5 223.26 124.811 225.349 124.811C227.439 124.811 229.126 126.5 229.126 128.591C229.126 130.679 227.439 132.366 225.349 132.366ZM225.349 123.723C222.674 123.723 220.49 125.897 220.49 128.591C220.49 131.278 222.674 133.449 225.349 133.449C228.023 133.449 230.212 131.278 230.212 128.591C230.212 125.897 228.023 123.723 225.349 123.723Z" fill="#004996"/>
<path d="M188.513 136.79L202.987 138.32L214.922 129.998L200.446 128.476L188.513 136.79Z" fill="#004996"/>
<path d="M178.642 144.988C176.567 144.988 174.87 143.296 174.87 141.206C174.87 139.118 176.567 137.435 178.642 137.435C180.731 137.435 182.429 139.118 182.429 141.206C182.429 143.296 180.731 144.988 178.642 144.988ZM178.642 136.341C175.968 136.341 173.795 138.519 173.795 141.206C173.795 143.894 175.968 146.074 178.642 146.074C181.343 146.074 183.516 143.894 183.516 141.206C183.516 138.519 181.343 136.341 178.642 136.341Z" fill="#004996"/>
<path d="M297.83 113.781C300.271 112.718 302.396 111.001 303.959 108.79C304.254 111.479 305.289 114.006 306.916 116.106C303.91 115.265 300.878 114.495 297.83 113.781ZM305.56 105.764L304.01 105.371C302.336 109.414 298.744 112.266 294.591 113.115V114.703C299.551 115.778 304.461 117.04 309.285 118.469L310.052 117.083C306.844 114.33 305.087 110.117 305.56 105.764Z" fill="#004996"/>
<path d="M284.221 129.998L296.167 138.32L310.63 136.79L298.697 128.476L284.221 129.998Z" fill="#004996"/>
<path d="M249.56 131.873L237.493 127.364L249.56 122.861L261.662 127.364L249.56 131.873ZM234.386 127.364L249.56 133.031L264.767 127.364L249.56 121.709L234.386 127.364Z" fill="#004996"/>
<path d="M273.788 132.366C271.7 132.366 270.013 130.679 270.013 128.591C270.013 126.5 271.7 124.811 273.788 124.811C275.883 124.811 277.58 126.5 277.58 128.591C277.58 130.679 275.883 132.366 273.788 132.366ZM273.788 123.723C271.116 123.723 268.938 125.908 268.938 128.591C268.938 131.266 271.116 133.449 273.788 133.449C276.478 133.449 278.654 131.278 278.654 128.591C278.654 125.897 276.478 123.723 273.788 123.723Z" fill="#004996"/>
<path d="M355.86 83.5881C357.943 83.5881 359.646 85.2917 359.646 87.3634C359.646 89.4584 357.933 91.1555 355.86 91.1555C353.774 91.1555 352.082 89.4584 352.082 87.3634C352.082 85.2917 353.774 83.5881 355.86 83.5881ZM350.994 87.3634C350.994 90.0564 353.17 92.2285 355.86 92.2285C358.546 92.2285 360.721 90.0564 360.721 87.3634C360.721 84.6879 358.546 82.5129 355.86 82.5129C353.17 82.5129 350.994 84.6879 350.994 87.3634Z" fill="#004996"/>
<path d="M306.319 49.5888C308.41 49.5888 310.105 51.2816 310.105 53.3715C310.105 55.46 308.41 57.1498 306.319 57.1498C304.23 57.1498 302.546 55.46 302.546 53.3715C302.546 51.2816 304.23 49.5888 306.319 49.5888ZM306.319 58.2373C309.004 58.2373 311.179 56.0594 311.179 53.3715C311.179 50.6836 309.004 48.5144 306.319 48.5144C303.644 48.5144 301.469 50.6836 301.469 53.3715C301.469 56.0594 303.644 58.2373 306.319 58.2373Z" fill="#004996"/>
<path d="M318.408 48.5936C320.501 48.5936 322.185 50.2776 322.185 52.3544C322.185 54.4443 320.501 56.1364 318.408 56.1364C316.324 56.1364 314.624 54.4443 314.624 52.3544C314.624 50.2776 316.324 48.5936 318.408 48.5936ZM318.408 57.2246C321.098 57.2246 323.273 55.0437 323.273 52.3544C323.273 49.6818 321.098 47.501 318.408 47.501C315.712 47.501 313.547 49.6818 313.547 52.3544C313.547 55.0437 315.712 57.2246 318.408 57.2246Z" fill="#004996"/>
<path d="M330.244 53.2176C332.334 53.2176 334.033 54.9097 334.033 56.9981C334.033 59.0735 332.334 60.7721 330.244 60.7721C328.157 60.7721 326.472 59.0852 326.472 56.9981C326.472 54.9097 328.157 53.2176 330.244 53.2176ZM330.244 61.853C332.92 61.853 335.119 59.6729 335.119 56.9981C335.119 54.3103 332.92 52.1301 330.244 52.1301C327.56 52.1301 325.397 54.3103 325.397 56.9981C325.397 59.6729 327.56 61.853 330.244 61.853Z" fill="#004996"/>
<path d="M343.42 86.8678C341.545 85.4624 339.235 84.0759 336.438 82.9768C332.48 81.4266 328.022 80.2838 323.845 78.7562C323.845 75.1976 321.649 72.1569 318.536 70.9152C319.828 69.4807 320.632 67.6061 320.705 65.5292C332.494 71.8572 339.404 78.1953 343.42 86.8678ZM348.125 107.577C345.625 108.627 344.098 111.191 343.142 113.676C341.65 117.598 341.64 121.585 345.835 124.526C341.899 124.775 338.482 121.494 338.734 117.432C339.503 116.494 340.1 115.381 340.428 114.116C341.605 109.581 338.854 104.951 334.314 103.771C329.769 102.61 325.153 105.359 323.966 109.892C323.845 110.392 323.772 110.893 323.737 111.393C319.889 116.121 312.144 113.676 311.828 107.514C318.958 108.926 321.94 105.348 323.188 100.523C324.22 96.4794 323.811 92.4414 319.166 89.982C319.203 88.7053 319.021 87.5625 318.637 86.5499C321.205 85.4886 323.136 83.203 323.685 80.4256C327.73 81.3218 332.31 82.5258 336.03 83.9843C339.566 85.3766 342.302 87.241 344.317 88.981C346.366 94.196 347.517 100.248 348.125 107.577ZM319.092 65.2681C319.092 68.4433 317.348 69.9579 315.075 71.7168C318.835 72.4923 322.232 74.2185 322.232 78.7562C322.232 82.5381 319.678 84.615 316.405 85.5919C317.468 87.668 317.655 88.5533 317.506 90.9546C321.78 93.0052 322.744 95.7345 321.622 100.118C320.028 106.337 316.25 106.978 310.323 105.5C309.443 115.192 320.109 118.907 325.322 111.967C325.345 111.406 325.397 110.844 325.529 110.288C326.483 106.612 330.231 104.4 333.91 105.336C337.586 106.286 339.821 110.037 338.87 113.72C338.547 114.905 337.966 115.858 337.17 116.768C336.829 120.211 338.316 123.424 341.408 125.121C344.521 126.84 347.002 126.112 350.044 124.999C344.997 122.471 342.398 120.183 344.648 114.257C345.68 111.552 346.943 109.581 349.839 108.701C348.021 85.5803 341.579 74.4949 320.569 64.0162L319.092 65.2681Z" fill="#004996"/>
<path d="M312.254 61.4735C314.33 61.4735 316.027 63.1772 316.027 65.2678C316.027 67.3417 314.33 69.0287 312.254 69.0287C310.178 69.0287 308.478 67.3417 308.478 65.2678C308.478 63.1772 310.178 61.4735 312.254 61.4735ZM307.394 65.2678C307.394 67.9411 309.577 70.1162 312.254 70.1162C314.928 70.1162 317.116 67.9411 317.116 65.2678C317.116 62.5734 314.928 60.3991 312.254 60.3991C309.577 60.3991 307.394 62.5734 307.394 65.2678Z" fill="#004996"/>
<path d="M261.528 25.0758C263.627 25.0758 265.329 26.7686 265.329 28.857C265.329 30.9455 263.627 32.631 261.528 32.631C259.453 32.631 257.768 30.9455 257.768 28.857C257.768 26.7686 259.453 25.0758 261.528 25.0758ZM261.528 33.7119C264.244 33.7119 266.401 31.5427 266.401 28.857C266.401 26.1692 264.244 23.9883 261.528 23.9883C258.856 23.9883 256.678 26.1692 256.678 28.857C256.678 31.5304 258.856 33.7119 261.528 33.7119Z" fill="#004996"/>
<path d="M285.895 31.6951C287.973 31.6951 289.673 33.3821 289.673 35.4705C289.673 37.5568 287.973 39.2525 285.895 39.2525C283.806 39.2525 282.122 37.5568 282.122 35.4705C282.122 33.3821 283.806 31.6951 285.895 31.6951ZM285.895 40.3262C288.572 40.3262 290.755 38.1635 290.755 35.4705C290.755 32.7819 288.572 30.6105 285.895 30.6105C283.207 30.6105 281.032 32.7819 281.032 35.4705C281.032 38.1635 283.207 40.3262 285.895 40.3262Z" fill="#004996"/>
<path d="M273.864 27.2314C275.953 27.2314 277.653 28.9183 277.653 31.0067C277.653 33.0952 275.953 34.7851 273.864 34.7851C271.775 34.7851 270.102 33.0952 270.102 31.0067C270.102 28.9183 271.775 27.2314 273.864 27.2314ZM273.864 35.874C276.549 35.874 278.724 33.6997 278.724 31.0067C278.724 28.3189 276.549 26.1511 273.864 26.1511C271.176 26.1511 269.017 28.3189 269.017 31.0067C269.017 33.6801 271.176 35.874 273.864 35.874Z" fill="#004996"/>
<path d="M249.56 36.8066C251.659 36.8066 253.357 38.4993 253.357 40.5893C253.357 42.6741 251.659 44.3625 249.56 44.3625C247.495 44.3625 245.798 42.6741 245.798 40.5893C245.798 38.4993 247.495 36.8066 249.56 36.8066ZM249.56 45.4551C252.259 45.4551 254.434 43.2749 254.434 40.5893C254.434 37.9006 252.259 35.7213 249.56 35.7213C246.889 35.7213 244.713 37.9006 244.713 40.5893C244.713 43.2749 246.889 45.4551 249.56 45.4551Z" fill="#004996"/>
<path d="M341.264 61.2116C343.337 61.2116 345.048 62.9145 345.048 64.9928C345.048 67.0805 343.337 68.7646 341.264 68.7646C339.173 68.7646 337.492 67.0805 337.492 64.9928C337.492 62.9145 339.173 61.2116 341.264 61.2116ZM341.264 69.8521C343.954 69.8521 346.125 67.6792 346.125 64.9928C346.125 62.3107 343.954 60.1357 341.264 60.1357C338.576 60.1357 336.401 62.3107 336.401 64.9928C336.401 67.6792 338.576 69.8521 341.264 69.8521Z" fill="#004996"/>
<path d="M363.481 121.744C361.674 125.035 357.546 126.241 354.259 124.427C350.975 122.61 349.777 118.484 351.585 115.204C353.392 111.93 357.535 110.728 360.804 112.541C364.09 114.342 365.288 118.47 363.481 121.744ZM361.332 111.588C357.522 109.49 352.719 110.88 350.636 114.692C348.529 118.496 349.937 123.272 353.734 125.37C357.546 127.474 362.333 126.087 364.421 122.268C366.521 118.47 365.142 113.676 361.332 111.588Z" fill="#004996"/>
<path d="M311.618 78.756C311.618 76.6821 313.305 74.9821 315.391 74.9821C317.483 74.9821 319.166 76.6821 319.166 78.756C319.166 80.8445 317.483 82.5379 315.391 82.5379C313.305 82.5379 311.618 80.8445 311.618 78.756ZM320.241 78.756C320.241 76.0812 318.081 73.9084 315.391 73.9084C312.706 73.9084 310.521 76.0812 310.521 78.756C310.521 81.4497 312.706 83.624 315.391 83.624C318.081 83.624 320.241 81.4497 320.241 78.756Z" fill="#004996"/>
<path d="M322.893 121.286C324.575 120.823 326.165 120.107 327.596 119.144C328.353 119.619 329.17 119.997 330.61 120.348C330.991 122.021 331.65 123.638 332.562 125.111C329.389 123.759 326.157 122.483 322.893 121.286ZM330.489 118.675C329.333 118.369 328.545 117.854 327.121 117.506C324.98 119.059 322.381 120.009 319.667 120.183L319.463 121.757C324.651 123.583 329.748 125.611 334.74 127.829L335.67 126.539C333.579 124.296 332.531 121.871 331.968 118.907C331.477 118.832 330.98 118.782 330.489 118.675Z" fill="#004996"/>
<path d="M358.984 97.0953C361.057 97.0953 362.76 98.7822 362.76 100.859C362.76 102.945 361.057 104.638 358.984 104.638C356.898 104.638 355.206 102.945 355.206 100.859C355.206 98.7822 356.898 97.0953 358.984 97.0953ZM354.124 100.859C354.124 103.552 356.299 105.726 358.984 105.726C361.673 105.726 363.845 103.552 363.845 100.859C363.845 98.1828 361.673 96.0092 358.984 96.0092C356.299 96.0092 354.124 98.1828 354.124 100.859Z" fill="#004996"/>
<path d="M350.229 71.7453C352.317 71.7453 354.004 73.4445 354.004 75.5323C354.004 77.6098 352.317 79.2939 350.229 79.2939C348.137 79.2939 346.443 77.6098 346.443 75.5323C346.443 73.4445 348.137 71.7453 350.229 71.7453ZM350.229 80.3872C352.919 80.3872 355.089 78.2085 355.089 75.5323C355.089 72.8451 352.919 70.6643 350.229 70.6643C347.554 70.6643 345.353 72.8451 345.353 75.5323C345.353 78.2085 347.554 80.3872 350.229 80.3872Z" fill="#004996"/>
<path d="M314.098 96.5716C313.167 100.21 309.468 102.387 305.829 101.45C302.214 100.523 300.025 96.8212 300.953 93.1956C301.896 89.5672 305.595 87.3797 309.222 88.3138C312.852 89.2427 315.038 92.9446 314.098 96.5716ZM299.915 92.9315C298.828 97.1332 301.371 101.421 305.571 102.502C309.783 103.588 314.06 101.048 315.146 96.8459C316.225 92.6318 313.708 88.3378 309.483 87.2648C305.278 86.178 300.99 88.7175 299.915 92.9315Z" fill="#004996"/>
</g>
<defs>
<clipPath id="clip0_1175_6967">
<rect width="500" height="500" fill="white"/>
</clipPath>
</defs>
</svg>
