<svg width="500" height="500" viewBox="0 0 500 500" fill="none" xmlns="http://www.w3.org/2000/svg">
<path d="M323.239 122.545C324.94 122.094 326.545 121.375 327.999 120.393C328.763 120.888 329.579 121.287 330.466 121.513C330.468 121.513 330.735 121.562 331.003 121.611C331.388 123.294 332.07 124.921 332.996 126.415C329.77 125.041 326.513 123.75 323.239 122.545Z" fill="white"/>
<path d="M250.196 109.547C250.196 109.547 247.636 109.595 245.37 109.637C247.571 107.961 249.237 105.729 250.196 103.144C251.154 105.728 252.82 107.96 255.022 109.637C252.756 109.594 250.196 109.547 250.196 109.547Z" fill="white"/>
<path d="M167.398 126.414C168.327 124.92 169.008 123.292 169.388 121.611C169.659 121.561 169.929 121.512 169.929 121.512C170.81 121.287 171.629 120.888 172.398 120.392C173.835 121.362 175.455 122.085 177.163 122.541C173.879 123.75 170.622 125.042 167.398 126.414Z" fill="white"/>
<path d="M193.021 117.402C194.688 115.245 195.648 112.661 195.923 109.955C197.483 112.219 199.638 113.974 202.171 115.061C199.084 115.776 196.032 116.559 193.021 117.402Z" fill="white"/>
<path d="M218.443 111.955C220.069 110.404 221.339 108.537 222.163 106.483C222.755 106.474 223.335 106.357 223.911 106.227C225.227 108.032 226.939 109.538 228.92 110.643C225.426 110.993 221.93 111.43 218.443 111.955Z" fill="white"/>
<path d="M271.469 110.643C273.449 109.538 275.164 108.033 276.485 106.227C277.056 106.357 277.633 106.474 278.226 106.483C279.053 108.539 280.323 110.406 281.947 111.955C278.462 111.431 274.966 110.993 271.469 110.643Z" fill="white"/>
<path d="M298.221 115.06C300.756 113.973 302.91 112.218 304.468 109.954C304.745 112.66 305.707 115.244 307.373 117.402C304.363 116.558 301.309 115.776 298.221 115.06Z" fill="white"/>
<path d="M234.505 30.3922C234.505 28.3232 236.191 26.6392 238.263 26.6392C240.332 26.6392 242.017 28.3223 242.017 30.3922C242.017 32.4621 240.333 34.1462 238.263 34.1462C236.192 34.1462 234.505 32.4621 234.505 30.3922Z" fill="white"/>
<path d="M246.441 42.0937C246.441 40.0229 248.125 38.3389 250.195 38.3389C252.265 38.3389 253.949 40.0238 253.949 42.0937C253.949 44.1627 252.265 45.8459 250.195 45.8459C248.125 45.8459 246.441 44.1627 246.441 42.0937Z" fill="white"/>
<path d="M246.441 55.7481C246.441 53.6782 248.125 51.9941 250.195 51.9941C252.265 51.9941 253.949 53.6791 253.949 55.7481C253.949 57.8198 252.265 59.5047 250.195 59.5047C248.125 59.5047 246.441 57.8198 246.441 55.7481Z" fill="white"/>
<path d="M246.441 69.406C246.441 67.337 248.125 65.6538 250.195 65.6538C252.265 65.6538 253.949 67.337 253.949 69.406C253.949 71.475 252.265 73.1582 250.195 73.1582C248.125 73.1582 246.441 71.475 246.441 69.406Z" fill="white"/>
<path d="M222.219 32.5413C222.219 31.5384 222.609 30.5962 223.318 29.8877C224.028 29.1793 224.968 28.7891 225.969 28.7891C228.038 28.7891 229.722 30.4722 229.722 32.5413C229.722 34.6094 228.039 36.2926 225.969 36.2926C223.901 36.2926 222.219 34.6094 222.219 32.5413Z" fill="white"/>
<path d="M210.229 36.9932C210.229 34.9233 211.913 33.2393 213.982 33.2393C216.051 33.2393 217.735 34.9242 217.735 36.9932C217.735 39.0614 216.051 40.7445 213.982 40.7445C211.913 40.7437 210.229 39.0614 210.229 36.9932Z" fill="white"/>
<path d="M198.681 44.6734C198.681 42.6035 200.366 40.9194 202.436 40.9194C203.437 40.9194 204.378 41.3106 205.086 42.019C205.796 42.7283 206.185 43.6705 206.185 44.6734C206.185 46.7433 204.503 48.4273 202.435 48.4273C200.366 48.4273 198.681 46.7433 198.681 44.6734Z" fill="white"/>
<path d="M189.863 54.8408C189.863 52.7709 191.546 51.0859 193.612 51.0859C195.682 51.0859 197.367 52.7709 197.367 54.8408C197.367 56.908 195.682 58.5895 193.612 58.5895C191.545 58.5895 189.863 56.9072 189.863 54.8408Z" fill="white"/>
<path d="M177.815 53.8283C177.815 51.761 179.5 50.0796 181.572 50.0796C182.573 50.0796 183.514 50.4698 184.223 51.1783C184.931 51.8858 185.322 52.8272 185.322 53.8292C185.322 55.9008 183.639 57.5866 181.572 57.5866C179.5 57.5858 177.815 55.8999 177.815 53.8283Z" fill="white"/>
<path d="M166.003 58.4516C166.003 56.3817 167.688 54.6968 169.76 54.6968C171.827 54.6968 173.508 56.3817 173.508 58.4516C173.508 60.5206 171.826 62.2056 169.76 62.2056C167.688 62.2047 166.003 60.5206 166.003 58.4516Z" fill="white"/>
<path d="M155.024 66.4254C155.024 64.3564 156.709 62.6724 158.782 62.6724C160.848 62.6724 162.531 64.3564 162.531 66.4254C162.531 68.4954 160.848 70.1803 158.782 70.1803C156.71 70.1803 155.024 68.4954 155.024 66.4254Z" fill="white"/>
<path d="M146.096 76.9281C146.096 74.8573 147.778 73.1724 149.844 73.1724C151.915 73.1724 153.601 74.8573 153.601 76.9281C153.601 78.9971 151.915 80.6812 149.844 80.6812C147.777 80.6803 146.096 78.9971 146.096 76.9281Z" fill="white"/>
<path d="M140.473 88.732C140.473 86.6647 142.158 84.9824 144.229 84.9824C146.299 84.9824 147.983 86.6647 147.983 88.732C147.983 90.8037 146.298 92.4903 144.229 92.4903C142.158 92.4903 140.473 90.8045 140.473 88.732Z" fill="white"/>
<path d="M137.356 102.188C137.356 100.12 139.041 98.439 141.11 98.439C143.179 98.439 144.863 100.12 144.863 102.188C144.863 104.258 143.179 105.942 141.11 105.942C139.041 105.942 137.356 104.258 137.356 102.188Z" fill="white"/>
<path d="M183.948 66.6898C183.948 65.6878 184.339 64.7447 185.05 64.0345C185.76 63.3252 186.701 62.9341 187.701 62.9341C189.77 62.9341 191.454 64.619 191.454 66.6898C191.454 68.7588 189.77 70.4429 187.701 70.4429C185.632 70.442 183.948 68.7588 183.948 66.6898Z" fill="white"/>
<path d="M180.827 80.1526C180.827 78.0836 182.509 76.4004 184.576 76.4004C186.646 76.4004 188.33 78.0844 188.33 80.1526C188.33 82.2216 186.645 83.9057 184.576 83.9057C182.509 83.9057 180.827 82.2225 180.827 80.1526Z" fill="white"/>
<path d="M243.446 88.9167C243.446 85.1944 246.473 82.1655 250.196 82.1655C253.918 82.1655 256.947 85.1944 256.947 88.9167C256.947 92.639 253.919 95.6687 250.196 95.6687C246.474 95.6687 243.446 92.639 243.446 88.9167Z" fill="white"/>
<path d="M188.977 102.04C187.423 101.123 186.32 99.6547 185.87 97.9056C184.945 94.2993 187.126 90.6122 190.731 89.6867C194.336 88.7594 198.024 90.9391 198.953 94.5463C199.881 98.1473 197.702 101.834 194.097 102.764C192.347 103.214 190.53 102.957 188.977 102.04Z" fill="white"/>
<path d="M136.644 123.009C134.853 119.749 136.044 115.634 139.304 113.838C140.887 112.967 142.714 112.766 144.448 113.27C146.179 113.773 147.61 114.92 148.477 116.499C150.272 119.757 149.079 123.87 145.819 125.668C142.56 127.462 138.444 126.269 136.644 123.009Z" fill="white"/>
<path d="M258.382 30.3922C258.382 29.3894 258.772 28.4463 259.48 27.737C260.187 27.0294 261.127 26.6392 262.128 26.6392C264.2 26.6392 265.885 28.3223 265.885 30.3922C265.885 32.4621 264.2 34.1462 262.128 34.1462C260.061 34.1462 258.382 32.4621 258.382 30.3922Z" fill="white"/>
<path d="M270.675 32.5413C270.675 30.4722 272.354 28.7891 274.422 28.7891C276.492 28.7891 278.177 30.4722 278.177 32.5413C278.177 34.6094 276.492 36.2926 274.422 36.2926C272.354 36.2926 270.675 34.6094 270.675 32.5413Z" fill="white"/>
<path d="M282.657 36.9932C282.657 34.9233 284.34 33.2393 286.409 33.2393C288.479 33.2393 290.164 34.9242 290.164 36.9932C290.164 39.0614 288.479 40.7445 286.409 40.7445C284.34 40.7437 282.657 39.0614 282.657 36.9932Z" fill="white"/>
<path d="M294.204 44.6734C294.204 42.6035 295.887 40.9194 297.955 40.9194C300.026 40.9194 301.71 42.6044 301.71 44.6734C301.71 46.7433 300.026 48.4273 297.955 48.4273C295.887 48.4273 294.204 46.7433 294.204 44.6734Z" fill="white"/>
<path d="M303.025 54.8408C303.025 52.7709 304.709 51.0859 306.779 51.0859C307.781 51.0859 308.722 51.4762 309.431 52.1846C310.14 52.893 310.531 53.837 310.531 54.8408C310.531 56.908 308.847 58.5895 306.779 58.5895C304.709 58.5895 303.025 56.9072 303.025 54.8408Z" fill="white"/>
<path d="M315.069 53.8283C315.069 51.761 316.755 50.0796 318.826 50.0796C320.894 50.0796 322.577 51.7619 322.577 53.8283C322.577 55.8999 320.894 57.5858 318.826 57.5858C316.755 57.5858 315.069 55.8999 315.069 53.8283Z" fill="white"/>
<path d="M326.881 58.4516C326.881 56.3817 328.562 54.6968 330.63 54.6968C332.701 54.6968 334.387 56.3817 334.387 58.4516C334.387 60.5206 332.701 62.2056 330.63 62.2056C328.562 62.2047 326.881 60.5206 326.881 58.4516Z" fill="white"/>
<path d="M337.859 66.4254C337.859 64.3564 339.544 62.6724 341.615 62.6724C343.683 62.6724 345.365 64.3564 345.365 66.4254C345.365 68.4954 343.683 70.1803 341.615 70.1803C339.544 70.1803 337.859 68.4954 337.859 66.4254Z" fill="white"/>
<path d="M346.791 76.9281C346.791 74.8573 348.476 73.1724 350.546 73.1724C352.615 73.1724 354.3 74.8573 354.3 76.9281C354.3 78.9971 352.615 80.6812 350.546 80.6812C348.476 80.6803 346.791 78.9971 346.791 76.9281Z" fill="white"/>
<path d="M352.415 88.732C352.415 86.6647 354.097 84.9824 356.166 84.9824C358.235 84.9824 359.92 86.6647 359.92 88.732C359.92 90.8037 358.236 92.4903 356.166 92.4903C354.097 92.4903 352.415 90.8045 352.415 88.732Z" fill="white"/>
<path d="M355.527 102.188C355.527 100.12 357.213 98.439 359.285 98.439C361.352 98.439 363.033 100.12 363.033 102.188C363.033 104.258 361.352 105.942 359.285 105.942C357.213 105.942 355.527 104.258 355.527 102.188Z" fill="white"/>
<path d="M308.936 66.6898C308.936 64.619 310.62 62.9341 312.69 62.9341C314.759 62.9341 316.442 64.619 316.442 66.6898C316.442 68.7588 314.759 70.4429 312.69 70.4429C310.62 70.4429 308.936 68.7588 308.936 66.6898Z" fill="white"/>
<path d="M312.058 80.1526C312.058 78.0836 313.742 76.4004 315.813 76.4004C317.882 76.4004 319.567 78.0844 319.567 80.1526C319.567 82.2216 317.883 83.9057 315.813 83.9057C313.742 83.9057 312.058 82.2225 312.058 80.1526Z" fill="white"/>
<path d="M306.3 102.763C304.552 102.313 303.085 101.211 302.169 99.659C301.253 98.1086 300.996 96.2918 301.446 94.5471C301.893 92.8006 302.994 91.3328 304.543 90.4152C306.096 89.4958 307.915 89.2374 309.662 89.6865C311.409 90.1357 312.877 91.2379 313.794 92.791C314.712 94.3432 314.969 96.1591 314.519 97.9055C314.068 99.6555 312.967 101.125 311.415 102.042C309.863 102.957 308.047 103.213 306.3 102.763Z" fill="white"/>
<path d="M354.573 125.669C352.99 124.796 351.842 123.36 351.341 121.625C350.843 119.896 351.047 118.076 351.916 116.501C351.916 116.501 351.917 116.5 351.917 116.499C352.783 114.92 354.214 113.773 355.948 113.269C357.682 112.766 359.506 112.968 361.085 113.838C362.665 114.706 363.812 116.136 364.315 117.865C364.819 119.599 364.618 121.426 363.747 123.011C361.952 126.271 357.835 127.463 354.573 125.669Z" fill="white"/>
<path d="M335.311 139.732C308.594 127.143 279.958 120.759 250.196 120.759C220.433 120.759 191.797 127.143 165.08 139.732C164.862 139.834 164.713 139.995 164.634 140.211C164.538 140.48 164.564 140.811 164.71 141.12C164.832 141.38 165.046 141.576 165.312 141.671C165.577 141.767 165.864 141.753 166.121 141.633C166.318 141.54 166.545 141.53 166.751 141.605C166.957 141.678 167.124 141.832 167.216 142.031L167.289 142.189L172.398 144.067C172.663 144.165 172.813 144.448 172.743 144.722L171.226 150.657L171.396 151.023C171.587 151.434 171.41 151.921 171.001 152.113C170.335 152.427 170.047 153.23 170.353 153.895C170.647 154.51 171.311 154.958 172.017 154.629C196.465 143.094 222.768 137.245 250.195 137.245C277.622 137.245 303.927 143.094 328.373 154.628C329.084 154.959 329.747 154.513 330.034 153.898C330.347 153.23 330.058 152.429 329.389 152.113C328.981 151.923 328.804 151.434 328.996 151.023L329.167 150.654L327.649 144.722C327.579 144.447 327.728 144.165 327.994 144.067L333.101 142.191L333.175 142.031C333.266 141.832 333.434 141.679 333.639 141.605C333.844 141.53 334.071 141.54 334.269 141.633C334.801 141.883 335.438 141.652 335.688 141.119C335.831 140.814 335.857 140.486 335.76 140.216C335.682 139.998 335.531 139.835 335.311 139.732ZM179.485 147.273C176.809 147.273 174.632 145.093 174.632 142.413C174.632 141.115 175.138 139.895 176.055 138.977C176.972 138.059 178.19 137.554 179.486 137.554C182.166 137.554 184.346 139.733 184.346 142.413C184.346 145.093 182.166 147.273 179.485 147.273ZM215.959 131.688L204.068 139.987C203.959 140.062 203.826 140.096 203.694 140.082L189.264 138.558C189.035 138.535 188.844 138.37 188.787 138.147C188.73 137.924 188.817 137.688 189.007 137.556L200.905 129.263C201.014 129.187 201.146 129.153 201.278 129.167L215.701 130.686C215.93 130.709 216.12 130.874 216.177 131.097C216.234 131.32 216.148 131.557 215.959 131.688ZM226.045 134.689C223.367 134.689 221.189 132.509 221.189 129.83C221.189 128.534 221.694 127.314 222.614 126.395C223.531 125.478 224.75 124.972 226.046 124.972C228.728 124.972 230.908 127.151 230.908 129.83C230.907 132.509 228.726 134.689 226.045 134.689ZM263.983 129.128L250.389 134.197C250.265 134.243 250.128 134.244 250.003 134.197L236.414 129.128C236.198 129.047 236.054 128.842 236.054 128.61C236.054 128.38 236.198 128.174 236.414 128.093L250.003 123.026C250.128 122.98 250.264 122.981 250.389 123.026L263.983 128.093C264.199 128.174 264.341 128.38 264.341 128.61C264.341 128.842 264.199 129.047 263.983 129.128ZM274.345 134.689C271.668 134.689 269.492 132.509 269.492 129.83C269.492 127.152 271.669 124.972 274.345 124.972C277.027 124.972 279.21 127.151 279.21 129.83C279.21 132.509 277.027 134.689 274.345 134.689ZM311.126 138.559L296.705 140.083C296.573 140.097 296.44 140.064 296.331 139.987L284.432 131.689C284.244 131.558 284.155 131.322 284.213 131.099C284.269 130.875 284.46 130.712 284.689 130.687L299.114 129.169C299.245 129.154 299.378 129.188 299.488 129.264L311.383 137.558C311.572 137.687 311.659 137.925 311.603 138.149C311.546 138.371 311.356 138.535 311.126 138.559ZM320.905 147.273C318.229 147.273 316.052 145.093 316.052 142.413C316.052 139.734 318.23 137.554 320.905 137.554C323.581 137.554 325.757 139.733 325.757 142.413C325.758 145.093 323.581 147.273 320.905 147.273Z" fill="white"/>
<path d="M366.759 117.931C366.421 117.648 366.367 117.149 366.636 116.8C368.017 115.001 368.582 112.901 368.225 110.888C367.914 109.136 366.92 107.652 365.429 106.71C365.055 106.473 364.935 105.982 365.159 105.6C365.763 104.569 366.082 103.39 366.082 102.188C366.082 98.9913 363.813 96.1945 360.687 95.5371C360.374 95.4712 360.127 95.2295 360.055 94.9183C359.982 94.6072 360.097 94.282 360.349 94.0851C362.013 92.7851 362.967 90.8339 362.967 88.7332C362.967 85.2095 360.323 82.302 356.816 81.968C356.53 81.9408 356.277 81.765 356.152 81.5039C356.028 81.2429 356.05 80.9361 356.209 80.6962C356.951 79.5773 357.343 78.2738 357.343 76.9282C357.343 73.1786 354.293 70.1287 350.545 70.1287C349.956 70.1287 349.355 70.2104 348.76 70.3721C348.451 70.4547 348.123 70.3537 347.918 70.1102C347.712 69.8667 347.665 69.5266 347.797 69.2365C348.205 68.3453 348.412 67.3995 348.412 66.4257C348.412 62.6752 345.363 59.6236 341.615 59.6236C340.542 59.6236 339.477 59.8811 338.535 60.3671C338.269 60.5043 337.953 60.4603 337.704 60.2951C337.456 60.1289 337.32 59.8169 337.345 59.519L337.433 58.451C337.433 54.6997 334.38 51.648 330.63 51.648C329.23 51.648 327.888 52.0734 326.747 52.8777C326.523 53.0368 326.233 53.071 325.977 52.9717C325.72 52.8724 325.53 52.6509 325.472 52.3828C324.787 49.2802 321.993 47.0283 318.826 47.0283C316.506 47.0283 314.368 48.2 313.1 50.1635C312.963 50.3788 312.731 50.516 312.476 50.5371C312.222 50.5581 311.972 50.4588 311.8 50.2699C310.518 48.8521 308.686 48.0391 306.777 48.0391L305.248 48.2184C304.96 48.2518 304.632 48.1411 304.455 47.9117C304.279 47.684 304.189 47.3869 304.294 47.118C304.601 46.3366 304.757 45.5148 304.757 44.6736C304.757 40.9223 301.704 37.8706 297.953 37.8706C296.692 37.8706 295.448 38.2292 294.356 38.9078C294.092 39.0721 293.76 39.0414 293.495 38.8779C293.23 38.7153 293.084 38.3848 293.111 38.0745L293.207 36.9926C293.207 35.1758 292.5 33.468 291.215 32.183C289.93 30.898 288.223 30.1904 286.406 30.1904C284.941 30.1904 283.537 30.6589 282.347 31.5458C282.124 31.7119 281.831 31.7541 281.569 31.6556C281.308 31.5589 281.114 31.3357 281.053 31.0632C280.372 27.9781 277.581 25.7386 274.419 25.7386C272.598 25.7386 270.888 26.4488 269.603 27.7373C269.413 27.9263 269.144 28.0124 268.881 27.9658C268.616 27.9201 268.39 27.7479 268.277 27.5061C267.16 25.1286 264.744 23.5922 262.124 23.5922C261.381 23.5922 260.64 23.7179 259.918 23.964C259.603 24.0712 259.254 23.979 259.036 23.7276C257.772 22.287 256.153 21.1628 254.355 20.4755L253.066 20.0624C252.725 19.9534 252.449 19.6238 252.449 19.267V13.4554C252.449 13.001 252.817 12.6336 253.271 12.6336C253.271 12.6336 256.994 12.6336 258.201 12.6336C258.201 11.6175 258.201 9.44742 258.201 8.43224C256.994 8.43224 253.271 8.43224 253.271 8.43224C252.817 8.43224 252.449 8.06484 252.449 7.61043C252.449 7.61043 252.449 4.41811 252.449 3.25439C251.405 3.25439 248.979 3.25439 247.934 3.25439C247.934 4.41723 247.934 7.61043 247.934 7.61043C247.934 8.06484 247.566 8.43224 247.112 8.43224C247.112 8.43224 243.395 8.43224 242.187 8.43224C242.187 9.44742 242.187 11.6184 242.187 12.6336C243.395 12.6336 247.112 12.6336 247.112 12.6336C247.565 12.6336 247.934 13.001 247.934 13.4554V19.267C247.934 19.6247 247.658 19.9543 247.317 20.0633L246.029 20.4764C244.231 21.1628 242.613 22.2879 241.347 23.7285C241.125 23.979 240.778 24.0721 240.463 23.964C239.744 23.7179 239.002 23.5922 238.258 23.5922C235.637 23.5922 233.222 25.1286 232.106 27.5061C231.992 27.7479 231.767 27.9201 231.503 27.9658C231.238 28.0115 230.969 27.9263 230.779 27.7373C229.493 26.4488 227.783 25.7386 225.964 25.7386C222.801 25.7386 220.011 27.9781 219.328 31.0632C219.267 31.3357 219.073 31.5589 218.812 31.6556C218.55 31.7523 218.257 31.7101 218.033 31.5431C216.849 30.6572 215.446 30.1896 213.977 30.1896C210.227 30.1896 207.177 33.2412 207.177 36.9908L207.276 38.0614C207.305 38.3725 207.16 38.7065 206.895 38.8709C206.63 39.0352 206.301 39.0704 206.035 38.9069C204.936 38.2275 203.689 37.8689 202.431 37.8689C198.68 37.8689 195.628 40.9206 195.628 44.6719C195.628 45.5069 195.784 46.3296 196.092 47.118C196.197 47.3869 196.107 47.6823 195.93 47.9108C195.754 48.1393 195.425 48.25 195.138 48.2166L193.605 48.0373C191.699 48.0373 189.868 48.8504 188.581 50.269C188.409 50.4579 188.159 50.5573 187.904 50.5353C187.649 50.5142 187.419 50.3753 187.281 50.16C186.02 48.1982 183.884 47.0266 181.565 47.0266C178.387 47.0266 175.594 49.2767 174.925 52.3776C174.867 52.6465 174.678 52.868 174.422 52.9682C174.167 53.0684 173.877 53.035 173.652 52.8768C172.498 52.0717 171.15 51.6454 169.754 51.6454C166.004 51.6454 162.954 54.6971 162.954 58.4484L163.047 59.5031C163.074 59.8002 162.94 60.1175 162.693 60.2854C162.446 60.4533 162.131 60.5025 161.865 60.3671C160.888 59.8723 159.849 59.6209 158.776 59.6209C155.026 59.6209 151.974 62.6726 151.974 66.423C151.974 67.4004 152.179 68.347 152.583 69.2365C152.714 69.5266 152.666 69.8659 152.46 70.1084C152.254 70.3502 151.926 70.4521 151.618 70.3686C151.027 70.2069 150.427 70.1251 149.838 70.1251C146.089 70.1251 143.039 73.176 143.039 76.9246C143.039 78.2721 143.434 79.5738 144.178 80.69C144.339 80.9309 144.361 81.2385 144.237 81.4995C144.112 81.7606 143.86 81.9381 143.573 81.9645C140.066 82.2985 137.42 85.206 137.42 88.7297C137.42 90.8304 138.373 92.7807 140.034 94.0825C140.285 94.2793 140.4 94.6045 140.327 94.9157C140.255 95.2268 140.008 95.4677 139.696 95.5336C136.573 96.1919 134.306 98.9887 134.306 102.185C134.306 103.387 134.622 104.568 135.221 105.599C135.442 105.982 135.323 106.469 134.949 106.706C133.46 107.649 132.469 109.134 132.159 110.887C131.802 112.901 132.366 115 133.749 116.797C134.017 117.146 133.962 117.644 133.626 117.927C132.519 118.855 131.97 120.082 131.996 121.571C132.042 124.209 133.874 127.003 135.66 128.4C137.652 129.956 141.612 132.15 145.743 129.355C146.036 129.157 146.424 129.169 146.705 129.385C150.039 131.955 154.427 132.75 158.442 131.512C158.754 131.416 159.093 131.514 159.306 131.761C159.52 132.008 159.567 132.357 159.426 132.652C158.979 133.591 158.979 134.671 159.427 135.619C159.836 136.498 160.535 137.152 161.395 137.464C162.208 137.76 163.099 137.714 163.907 137.337C190.971 124.577 220 118.107 250.188 118.107C280.381 118.107 309.421 124.577 336.508 137.334C338.207 138.019 340.168 137.296 340.957 135.617C341.401 134.674 341.398 133.593 340.95 132.65C340.81 132.356 340.858 132.007 341.071 131.76C341.284 131.513 341.623 131.415 341.934 131.511C345.95 132.748 350.34 131.953 353.677 129.384C353.958 129.168 354.345 129.157 354.64 129.354C358.765 132.148 362.726 129.955 364.719 128.399C366.505 127.003 368.336 124.21 368.382 121.573C368.415 120.086 367.866 118.859 366.759 117.931ZM364.137 102.188C364.137 104.867 361.961 107.047 359.285 107.047C356.603 107.047 354.424 104.867 354.424 102.188C354.424 99.5126 356.603 97.3354 359.285 97.3354C361.961 97.3354 364.137 99.5126 364.137 102.188ZM356.167 83.8797C358.845 83.8797 361.024 86.0568 361.024 88.7323C361.024 91.4131 358.845 93.5946 356.167 93.5946C353.489 93.5946 351.312 91.414 351.312 88.7323C351.311 86.056 353.489 83.8797 356.167 83.8797ZM350.546 72.0685C353.225 72.0685 355.404 74.2483 355.404 76.9282C355.404 79.6063 353.225 81.7843 350.546 81.7843C347.866 81.7843 345.687 79.6054 345.687 76.9282C345.687 74.2483 347.866 72.0685 350.546 72.0685ZM341.616 61.5695C344.292 61.5695 346.468 63.7484 346.468 66.4257C346.468 69.1047 344.291 71.2845 341.616 71.2845C338.936 71.2845 336.756 69.1047 336.756 66.4257C336.756 63.7475 338.936 61.5695 341.616 61.5695ZM330.63 53.5931C333.311 53.5931 335.491 55.772 335.491 58.4519C335.491 61.1301 333.311 63.309 330.63 63.309C327.954 63.309 325.777 61.1301 325.777 58.4519C325.777 55.772 327.954 53.5931 330.63 53.5931ZM318.826 48.9761C321.503 48.9761 323.68 51.1532 323.68 53.8287C323.68 56.5095 321.502 58.6901 318.826 58.6901C316.145 58.6901 313.965 56.5095 313.965 53.8287C313.965 51.1532 316.145 48.9761 318.826 48.9761ZM312.69 61.8306C315.367 61.8306 317.545 64.0104 317.545 66.6902C317.545 69.3684 315.366 71.5464 312.69 71.5464C310.011 71.5464 307.833 69.3675 307.833 66.6902C307.832 64.0104 310.011 61.8306 312.69 61.8306ZM303.982 89.4645C305.787 88.3957 307.903 88.0942 309.938 88.6172C311.971 89.1393 313.678 90.4225 314.746 92.2288C315.814 94.0341 316.112 96.148 315.589 98.181C315.065 100.217 313.782 101.925 311.977 102.992C310.172 104.058 308.058 104.356 306.026 103.833C303.993 103.31 302.286 102.026 301.219 100.22C300.496 98.9957 300.126 97.6299 300.126 96.2438C300.126 95.5863 300.21 94.9254 300.377 94.2723C300.896 92.2402 302.177 90.5333 303.982 89.4645ZM315.813 85.01C313.133 85.01 310.954 82.8311 310.954 80.153C310.954 77.4757 313.133 75.2968 315.813 75.2968C318.492 75.2968 320.671 77.4757 320.671 80.153C320.672 82.832 318.492 85.01 315.813 85.01ZM306.778 49.9824C308.074 49.9824 309.292 50.487 310.21 51.4046C311.128 52.3222 311.632 53.543 311.632 54.8421C311.632 57.5176 309.454 59.6947 306.778 59.6947C304.099 59.6947 301.92 57.5176 301.92 54.8421C301.92 52.1622 304.099 49.9824 306.778 49.9824ZM297.954 39.8157C300.634 39.8157 302.813 41.9955 302.813 44.6736C302.813 47.3526 300.634 49.5315 297.954 49.5315C295.277 49.5315 293.1 47.3526 293.1 44.6736C293.1 41.9955 295.277 39.8157 297.954 39.8157ZM286.408 32.1347C289.087 32.1347 291.267 34.3136 291.267 36.9926C291.267 39.6689 289.087 41.847 286.408 41.847C283.73 41.847 281.553 39.6689 281.553 36.9926C281.553 34.3144 283.73 32.1347 286.408 32.1347ZM274.421 27.6855C277.101 27.6855 279.281 29.8643 279.281 32.5416C279.281 35.2189 277.101 37.396 274.421 37.396C271.746 37.396 269.571 35.218 269.571 32.5416C269.571 29.8643 271.746 27.6855 274.421 27.6855ZM258.699 26.9577C259.614 26.041 260.831 25.5364 262.127 25.5364C264.808 25.5364 266.988 27.7153 266.988 30.3926C266.988 33.0707 264.808 35.2496 262.127 35.2496C259.453 35.2496 257.277 33.0707 257.277 30.3926C257.278 29.0953 257.782 27.8753 258.699 26.9577ZM250.195 37.2352C252.875 37.2352 255.053 39.4149 255.053 42.0939C255.053 44.7712 252.874 46.9501 250.195 46.9501C247.516 46.9501 245.337 44.7712 245.337 42.0939C245.337 39.4149 247.516 37.2352 250.195 37.2352ZM245.337 69.4062C245.337 66.7289 247.516 64.55 250.195 64.55C252.875 64.55 255.053 66.7289 255.053 69.4062C255.053 72.0834 252.874 74.2614 250.195 74.2614C247.516 74.2623 245.337 72.0843 245.337 69.4062ZM258.05 88.9169C258.05 93.2483 254.527 96.7729 250.195 96.7729C245.865 96.7729 242.342 93.2492 242.342 88.9169C242.342 84.5855 245.865 81.0618 250.195 81.0618C254.527 81.0618 258.05 84.5855 258.05 88.9169ZM250.195 60.6088C247.516 60.6088 245.337 58.4291 245.337 55.7483C245.337 53.0693 247.516 50.8904 250.195 50.8904C252.875 50.8904 255.053 53.0693 255.053 55.7483C255.054 58.4291 252.875 60.6088 250.195 60.6088ZM238.263 25.5364C240.941 25.5364 243.12 27.7153 243.12 30.3926C243.12 33.0707 240.941 35.2496 238.263 35.2496C235.582 35.2496 233.4 33.0707 233.4 30.3926C233.4 27.7153 235.582 25.5364 238.263 25.5364ZM222.538 29.1076C223.454 28.1908 224.673 27.6863 225.969 27.6863C228.647 27.6863 230.825 29.8652 230.825 32.5425C230.825 35.2197 228.646 37.3969 225.969 37.3969C223.292 37.3969 221.114 35.2189 221.114 32.5425C221.114 31.2443 221.62 30.0243 222.538 29.1076ZM213.982 32.1347C216.659 32.1347 218.838 34.3136 218.838 36.9926C218.838 39.6689 216.659 41.847 213.982 41.847C211.303 41.847 209.124 39.6689 209.124 36.9926C209.124 34.3144 211.303 32.1347 213.982 32.1347ZM202.437 39.8157C203.733 39.8157 204.952 40.3211 205.868 41.2387C206.784 42.1572 207.29 43.3772 207.29 44.6736C207.29 47.3526 205.112 49.5315 202.437 49.5315C199.757 49.5315 197.577 47.3526 197.577 44.6736C197.576 41.9955 199.757 39.8157 202.437 39.8157ZM193.612 49.9824C196.291 49.9824 198.47 52.1622 198.47 54.8412C198.47 57.5167 196.291 59.6939 193.612 59.6939C190.936 59.6939 188.759 57.5167 188.759 54.8412C188.759 52.1622 190.935 49.9824 193.612 49.9824ZM190.456 88.6172C194.65 87.5379 198.941 90.0745 200.022 94.2714C201.101 98.4622 198.566 102.751 194.372 103.833C192.338 104.357 190.222 104.058 188.415 102.991C186.608 101.924 185.324 100.216 184.801 98.181C183.724 93.9849 186.262 89.6939 190.456 88.6172ZM179.723 80.153C179.723 77.4757 181.901 75.2968 184.576 75.2968C187.254 75.2968 189.434 77.4757 189.434 80.153C189.434 82.8311 187.254 85.01 184.576 85.01C181.901 85.01 179.723 82.832 179.723 80.153ZM187.702 61.8306C190.379 61.8306 192.558 64.0104 192.558 66.6902C192.558 69.3684 190.379 71.5464 187.702 71.5464C185.023 71.5464 182.845 69.3675 182.845 66.6902C182.845 65.3929 183.351 64.173 184.269 63.2545C185.188 62.336 186.406 61.8306 187.702 61.8306ZM181.572 48.9761C182.868 48.9761 184.086 49.4806 185.003 50.3973C185.92 51.314 186.425 52.5323 186.425 53.8287C186.425 56.5095 184.248 58.6901 181.573 58.6901C178.893 58.6901 176.712 56.5095 176.712 53.8287C176.711 51.1532 178.891 48.9761 181.572 48.9761ZM169.76 53.5931C172.435 53.5931 174.612 55.772 174.612 58.4519C174.612 61.1301 172.435 63.309 169.76 63.309C167.08 63.309 164.899 61.1301 164.899 58.4519C164.899 55.772 167.08 53.5931 169.76 53.5931ZM158.783 61.5695C161.458 61.5695 163.635 63.7484 163.635 66.4257C163.635 69.1047 161.458 71.2845 158.783 71.2845C156.102 71.2845 153.921 69.1047 153.921 66.4257C153.921 63.7475 156.101 61.5695 158.783 61.5695ZM149.845 72.0685C152.525 72.0685 154.705 74.2483 154.705 76.9282C154.705 79.6063 152.525 81.7843 149.845 81.7843C147.169 81.7843 144.992 79.6054 144.992 76.9282C144.992 74.2483 147.168 72.0685 149.845 72.0685ZM149.446 115.969C149.446 115.968 149.446 115.968 149.446 115.969ZM139.369 88.7323C139.369 86.056 141.548 83.8797 144.229 83.8797C146.907 83.8797 149.087 86.0568 149.087 88.7323C149.087 91.4131 146.907 93.5946 144.229 93.5946C141.548 93.5946 139.369 91.414 139.369 88.7323ZM141.111 97.3354C143.789 97.3354 145.967 99.5126 145.967 102.188C145.967 104.867 143.789 107.047 141.111 107.047C138.432 107.047 136.253 104.867 136.253 102.188C136.253 99.5126 138.432 97.3354 141.111 97.3354ZM146.353 126.636C142.561 128.722 137.771 127.335 135.677 123.543C133.592 119.748 134.98 114.962 138.772 112.872C140.613 111.859 142.738 111.624 144.756 112.211C146.77 112.796 148.436 114.131 149.445 115.969C150.104 117.166 150.416 118.462 150.416 119.741C150.417 122.513 148.948 125.205 146.353 126.636ZM180.528 123.037C175.394 124.842 170.265 126.877 165.284 129.084C164.927 129.242 164.508 129.128 164.282 128.809C164.055 128.491 164.084 128.058 164.35 127.771C166.177 125.81 167.445 123.315 167.92 120.746C167.982 120.409 168.285 120.141 168.621 120.082C168.621 120.082 169.517 119.921 169.519 119.921C170.381 119.7 171.187 119.313 171.913 118.771C172.202 118.555 172.6 118.553 172.89 118.767C175.001 120.314 177.635 121.263 180.31 121.44C180.699 121.467 181.016 121.762 181.069 122.15C181.123 122.537 180.896 122.907 180.528 123.037ZM183.528 116.531C180.26 117.37 176.839 116.168 174.81 113.47C174.727 113.359 174.665 113.144 174.646 113.008L174.444 111.595C173.501 107.939 169.764 105.731 166.114 106.672C164.342 107.128 162.855 108.245 161.924 109.82C160.995 111.394 160.734 113.231 161.191 115C161.462 116.06 161.971 117.014 162.706 117.834C162.823 117.964 162.895 118.129 162.912 118.303C163.23 121.615 161.557 124.789 158.645 126.393C156.542 127.551 154.036 127.739 151.771 126.908C151.464 126.796 151.252 126.51 151.233 126.182C151.215 125.855 151.393 125.548 151.687 125.401C156.014 123.239 157.155 120.2 155.389 115.55C154.257 112.577 152.729 110.78 150.847 110.21C150.477 110.099 150.236 109.744 150.266 109.359C152.075 86.2423 159.235 75.4955 179.737 65.1292C180 64.9956 180.331 64.9904 180.577 65.1539C180.823 65.3182 180.978 65.5766 180.957 65.8719L180.9 66.6894C180.9 68.7909 181.857 70.7422 183.524 72.043C183.776 72.2399 183.891 72.566 183.818 72.8771C183.745 73.1891 183.499 73.43 183.186 73.4959C180.051 74.1481 177.776 76.9475 177.776 80.153C177.776 83.1396 179.776 85.8186 182.64 86.6686C182.874 86.738 183.064 86.9068 183.161 87.1309C183.258 87.355 183.25 87.6099 183.14 87.827C182.585 88.9239 182.354 90.2503 182.454 91.7691C182.476 92.104 182.292 92.4186 181.988 92.5636C178.365 94.2978 177.254 97.0375 178.387 101.445C179.746 106.744 182.927 108.466 188.707 107.024C188.941 106.966 189.186 107.012 189.382 107.151C189.578 107.29 189.703 107.507 189.725 107.746C190.098 111.817 187.492 115.511 183.528 116.531ZM205.319 116.003C200.354 117.084 195.422 118.348 190.66 119.758C190.288 119.868 189.89 119.703 189.705 119.362C189.52 119.022 189.597 118.597 189.893 118.345C193.16 115.549 194.83 111.337 194.361 107.078C194.316 106.672 194.577 106.294 194.974 106.193C195.37 106.091 195.781 106.296 195.937 106.673C197.585 110.64 201.09 113.526 205.31 114.395C205.691 114.473 205.964 114.807 205.967 115.196C205.968 115.584 205.698 115.922 205.319 116.003ZM232.098 111.962C226.654 112.426 221.142 113.116 215.714 114.012C215.329 114.076 214.952 113.86 214.812 113.496C214.673 113.131 214.809 112.719 215.138 112.509C217.802 110.807 219.834 108.279 220.86 105.393C220.981 105.053 221.288 104.831 221.648 104.846L222.027 104.861C222.705 104.861 223.375 104.762 224.022 104.568C224.367 104.465 224.738 104.597 224.94 104.896C226.657 107.441 229.265 109.382 232.282 110.362C232.654 110.483 232.89 110.849 232.845 111.238C232.799 111.625 232.487 111.928 232.098 111.962ZM228.579 100.45C228.533 100.296 228.533 100.13 228.579 99.9766C228.771 99.3385 228.869 98.6811 228.869 98.0219C228.869 96.1937 228.157 94.4753 226.865 93.1833C225.574 91.8912 223.855 91.1793 222.027 91.1793C218.254 91.1793 215.183 94.2486 215.183 98.0219C215.183 99.2067 215.503 100.388 216.108 101.437C216.183 101.568 216.221 101.716 216.218 101.865C216.137 105.572 213.573 108.805 209.984 109.726C206.024 110.746 201.958 108.77 200.316 105.026C200.219 104.806 200.225 104.555 200.328 104.339C200.433 104.123 200.626 103.963 200.858 103.901C206.617 102.369 208.581 99.3297 207.22 94.0332C206.084 89.6271 203.788 87.7629 199.775 87.9888C199.439 88.0072 199.125 87.82 198.983 87.5141C198.104 85.6244 196.909 84.4062 195.33 83.7909C194.985 83.6573 194.774 83.3093 194.81 82.9419C197.133 60.2476 214.649 38.3839 243.636 40.5066C244.084 40.54 244.42 40.9663 244.392 41.4154L244.351 42.0931C244.351 43.27 244.703 44.4091 245.368 45.3873C245.46 45.5236 245.51 45.6844 245.51 45.8497V51.9926C245.51 52.1578 245.46 52.3187 245.368 52.4549C244.703 53.4332 244.351 54.5714 244.351 55.7474C244.351 56.9261 244.703 58.0661 245.368 59.0452C245.46 59.1814 245.51 59.3423 245.51 59.5075V65.6505C245.51 65.8157 245.46 65.9774 245.367 66.1137C244.703 67.0875 244.351 68.2258 244.351 69.4053C244.351 71.7152 245.718 73.8123 247.833 74.7466C248.165 74.8934 248.362 75.2415 248.316 75.6018C248.27 75.9622 247.993 76.2496 247.636 76.3094C244.195 76.8798 242.297 78.7273 241.662 82.1209C241.6 82.4505 241.343 82.7107 241.013 82.7758C237.067 83.5527 235.307 85.9285 235.307 90.4814C235.307 95.9493 237.965 98.4086 243.924 98.4543C244.164 98.4552 244.392 98.5633 244.546 98.7461C244.701 98.9289 244.768 99.1715 244.729 99.408C244.069 103.442 240.623 106.37 236.537 106.37C232.899 106.371 229.626 103.936 228.579 100.45ZM258.695 110.702C258.607 111.079 258.259 111.341 257.872 111.334L250.195 111.191L242.518 111.334C242.131 111.341 241.785 111.079 241.695 110.702C241.605 110.325 241.784 109.939 242.133 109.772C246.062 107.892 248.771 104.208 249.382 99.916C249.44 99.5117 249.786 99.2102 250.196 99.2102C250.606 99.2102 250.951 99.5108 251.01 99.916C251.62 104.206 254.33 107.89 258.259 109.772C258.608 109.938 258.784 110.325 258.695 110.702ZM285.581 113.495C285.442 113.86 285.066 114.076 284.68 114.012C279.257 113.116 273.744 112.427 268.293 111.962C267.903 111.928 267.589 111.625 267.545 111.237C267.5 110.848 267.736 110.482 268.107 110.361C271.121 109.382 273.731 107.44 275.459 104.893C275.663 104.595 276.034 104.464 276.379 104.568C277.016 104.762 277.683 104.86 278.363 104.86L278.741 104.845C279.1 104.83 279.408 105.052 279.529 105.391C280.56 108.283 282.594 110.81 285.257 112.508C285.585 112.717 285.721 113.13 285.581 113.495ZM290.406 109.727C286.82 108.806 284.256 105.574 284.172 101.867C284.17 101.716 284.208 101.566 284.285 101.435C284.885 100.404 285.203 99.2234 285.203 98.0219C285.203 94.2495 282.134 91.1793 278.363 91.1793C274.591 91.1793 271.522 94.2486 271.522 98.0219C271.522 98.6864 271.619 99.3412 271.814 99.9696C271.864 100.127 271.864 100.294 271.815 100.451C270.745 103.993 267.545 106.371 263.85 106.371C259.763 106.371 256.322 103.442 255.665 99.408C255.626 99.1706 255.693 98.9289 255.848 98.7461C256.003 98.5624 256.23 98.4561 256.469 98.4543C262.425 98.4086 265.079 95.9493 265.079 90.4814C265.079 85.9294 263.32 83.5527 259.376 82.7758C259.044 82.7107 258.788 82.4505 258.725 82.1209C258.091 78.7273 256.194 76.8807 252.754 76.3094C252.396 76.2496 252.119 75.9622 252.073 75.6018C252.028 75.2415 252.224 74.8943 252.557 74.7466C254.672 73.8114 256.038 71.7143 256.038 69.4053C256.038 68.2196 255.689 67.0822 255.025 66.1154C254.931 65.9783 254.881 65.8166 254.881 65.6505V59.5075C254.881 59.3423 254.931 59.1797 255.025 59.0435C255.689 58.0713 256.038 56.9314 256.038 55.7474C256.038 54.5652 255.689 53.427 255.025 52.4558C254.931 52.3195 254.881 52.1578 254.881 51.9926V45.8497C254.881 45.6844 254.931 45.5218 255.025 45.3856C255.689 44.4152 256.038 43.2761 256.038 42.0931L255.999 41.4339C255.972 40.9847 256.306 40.5391 256.754 40.5066C285.74 38.3839 303.257 60.2485 305.578 82.9419C305.616 83.3093 305.403 83.6573 305.059 83.7909C303.49 84.4027 302.294 85.6218 301.409 87.5159C301.266 87.8209 300.953 88.0072 300.618 87.9888C296.607 87.7629 294.309 89.6271 293.175 94.0324C291.812 99.3297 293.775 102.374 299.535 103.901C299.767 103.963 299.961 104.123 300.065 104.34C300.17 104.556 300.174 104.807 300.078 105.027C298.431 108.77 294.365 110.746 290.406 109.727ZM310.685 119.363C310.497 119.705 310.101 119.869 309.729 119.759C304.972 118.349 300.041 117.085 295.073 116.004C294.694 115.922 294.424 115.585 294.426 115.197C294.429 114.809 294.701 114.475 295.083 114.397C299.308 113.527 302.809 110.641 304.453 106.676C304.61 106.298 305.02 106.092 305.416 106.194C305.812 106.295 306.073 106.672 306.029 107.079C305.565 111.336 307.235 115.549 310.499 118.347C310.793 118.599 310.869 119.023 310.685 119.363ZM336.106 128.809C335.88 129.126 335.462 129.24 335.104 129.083C330.106 126.87 324.978 124.835 319.861 123.037C319.493 122.908 319.266 122.538 319.319 122.151C319.372 121.765 319.69 121.469 320.079 121.442C322.787 121.263 325.355 120.338 327.504 118.768C327.796 118.554 328.195 118.557 328.483 118.775C329.201 119.315 330.003 119.701 330.873 119.922L331.769 120.083C332.105 120.143 332.405 120.411 332.468 120.747C332.951 123.319 334.218 125.814 336.039 127.773C336.306 128.058 336.333 128.491 336.106 128.809ZM349.542 110.21C347.671 110.778 346.143 112.575 345.001 115.55C343.236 120.2 344.38 123.239 348.71 125.401C349.003 125.548 349.182 125.854 349.163 126.182C349.145 126.51 348.934 126.795 348.626 126.908C346.355 127.74 343.848 127.551 341.749 126.393C338.835 124.787 337.159 121.612 337.483 118.303C337.5 118.129 337.572 117.965 337.688 117.835C338.417 117.018 338.928 116.063 339.203 114.997C339.661 113.233 339.402 111.396 338.474 109.824C337.544 108.247 336.054 107.128 334.277 106.672C330.631 105.732 326.893 107.941 325.949 111.584L325.747 113.01C325.728 113.148 325.665 113.359 325.582 113.47C323.549 116.168 320.128 117.369 316.86 116.53C312.904 115.51 310.297 111.818 310.663 107.748C310.683 107.509 310.809 107.291 311.004 107.151C311.199 107.013 311.447 106.966 311.68 107.024C317.464 108.466 320.65 106.746 322.01 101.445C323.143 97.0401 322.03 94.3013 318.404 92.5636C318.1 92.4186 317.916 92.1048 317.939 91.7691C318.04 90.2178 317.815 88.9301 317.253 87.8297C317.142 87.6117 317.134 87.3568 317.23 87.1318C317.326 86.9077 317.518 86.7371 317.752 86.6677C320.618 85.8178 322.618 83.1379 322.618 80.1521C322.618 76.9475 320.343 74.1481 317.208 73.495C316.895 73.43 316.647 73.1883 316.573 72.8762C316.503 72.5651 316.618 72.239 316.87 72.0421C318.536 70.7439 319.491 68.7927 319.491 66.6885L319.436 65.8816C319.416 65.5872 319.571 65.3217 319.818 65.1591C320.064 64.9956 320.395 64.9956 320.658 65.1284C341.156 75.4937 348.316 86.2414 350.122 109.358C350.153 109.744 349.912 110.099 349.542 110.21ZM364.713 123.544C362.624 127.337 357.836 128.724 354.039 126.636C352.197 125.621 350.863 123.949 350.28 121.931C350.073 121.21 349.969 120.475 349.969 119.745C349.969 118.438 350.3 117.144 350.949 115.968C351.956 114.129 353.624 112.795 355.639 112.21C357.657 111.623 359.779 111.859 361.617 112.871C363.456 113.88 364.789 115.544 365.374 117.558C365.961 119.574 365.728 121.701 364.713 123.544Z" fill="white"/>
<path fill-rule="evenodd" clip-rule="evenodd" d="M127.96 443.358C96.6393 412.051 77.248 368.849 77.248 321.191C77.248 273.481 96.641 230.233 127.962 198.891C159.286 167.553 202.511 148.151 250.196 148.151C297.879 148.151 341.104 167.553 372.43 198.891C403.751 230.233 423.142 273.481 423.142 321.191C423.142 368.849 403.752 412.051 372.43 443.358C341.105 474.663 297.879 494.046 250.196 494.046C202.508 494.046 159.286 474.663 127.96 443.358ZM92.4033 321.098C92.4068 234.086 163.183 163.312 250.195 163.308C337.208 163.312 407.982 234.086 407.986 321.098C407.982 408.112 337.208 478.887 250.195 478.892C163.183 478.887 92.4068 408.112 92.4033 321.098ZM320.646 192.02C367.5 218.007 396.605 267.252 396.605 320.538C396.605 347.537 389.137 373.82 375.273 396.564L375.296 396.588C359.667 422.241 336.379 442.735 308.639 454.889C295.461 441.412 282.401 428.07 269.407 414.799C263.43 416.08 257.35 416.816 251.273 416.948V438.871H224.234V413.799C181.18 402.531 150.33 362.566 150.33 317.983C150.33 317.573 150.333 317.16 150.338 316.749C150.425 309.815 151.364 302.91 153.074 296.161C149.769 292.792 146.457 289.416 143.141 286.034L143.053 285.945C140.965 283.816 138.874 281.685 136.782 279.552C132.304 291.86 129.8 305.111 129.304 319.261C129.274 320.238 129.26 321.208 129.26 322.172C129.26 357.412 148.667 385.258 159.209 395.261L160.281 396.278L140.811 416.171L139.773 415.005C115.977 388.233 103.398 355.568 103.398 320.539C103.398 299.067 108.161 278.232 116.927 259.306C116.902 259.281 116.877 259.256 116.852 259.23C129.772 231.283 151.234 208.065 177.874 192.947L177.932 193.007C178.093 192.915 178.253 192.821 178.413 192.727C178.6 192.616 178.787 192.506 178.978 192.399L179.96 191.849C179.96 191.849 212.826 226.172 214.044 227.444C225.091 223.344 237.866 221.056 250.214 221.056H250.216C262.312 221.227 273.953 223.401 284.858 227.448C284.889 227.415 285.404 226.9 285.404 226.9H285.578C286.416 226.03 319.668 191.477 319.668 191.477L320.646 192.02ZM178.148 321.719C178.756 349.718 196.535 373.625 224.235 383.664V368.707C208.882 353.048 193.545 337.413 178.148 321.719ZM246 260.454L249.986 264.524C251.604 262.815 261.024 252.854 263.608 250.122C258.999 249.072 254.147 248.45 248.808 248.285C245.439 248.131 240.384 248.657 235.388 249.618C237.15 251.418 241.844 256.211 245.483 259.926L245.794 260.244L246 260.454ZM267.733 285.637L354.255 374.881C363.608 359.464 369.011 342.564 369.01 319.216C369.01 279.355 346.65 242.802 324.237 226.7L318.464 232.608L318.317 232.759C314.791 236.368 310.85 240.402 309.835 241.44C319.483 248.924 327.718 258.031 333.634 267.956L334.259 269.004L312.515 287.786L311.672 286.132C306.793 276.561 299.419 268.172 290.334 261.763C289.78 262.348 285.199 267.187 279.31 273.408L267.733 285.637ZM288.358 231.294C288.358 231.294 314.575 204.052 320.571 197.819C364.422 223.25 391.558 270.005 391.557 320.54C391.559 353.181 380.242 384.732 359.654 409.844C357.722 407.91 354.58 404.767 351.616 401.801L351.496 401.681L345.517 395.698C362.607 374.706 374.098 352.868 374.06 319.217C374 276.943 350.14 238.487 326.133 221.816L323.636 220.091L302.259 241.972L305.536 244.43C314.393 251.067 321.976 259.204 327.673 268.024C324.565 270.709 317.577 276.747 313.947 279.88C308.572 270.85 301.133 262.951 292.177 256.865L289.648 255.147L288.398 256.467C288.398 256.467 257.458 289.149 249.975 297.054C242.284 289.12 210.064 255.88 210.064 255.88L208.799 254.574L206.292 256.324C185.752 270.648 173.63 293.457 173.086 318.763C173.075 319.257 173.071 319.75 173.071 320.24C173.053 351.74 193.241 378.756 224.556 389.171L229.284 390.746V387.782V319.416H276.196V332.027C269.11 332.024 248.363 332.024 248.363 332.024H246.227V352.973H248.363C248.363 352.97 268.558 352.97 275.696 352.97H275.816V367.657C268.794 367.655 248.388 367.655 248.363 367.655H246.227V393.51L249.634 393.687C250.251 393.716 250.881 393.732 251.528 393.732C267.172 393.683 290.118 384.521 306.687 366.676L307.154 367.148C310.586 370.617 317.008 377.107 319.954 380.085C302.777 399.606 276.122 411.805 249.798 411.954L246.228 411.973V414.099V424.078V433.824H229.285V411.575V409.903L226.558 409.226C185.18 398.943 155.365 360.63 155.381 317.982C155.381 317.594 155.384 317.201 155.388 316.811C155.719 289.554 169.963 262.575 193.546 244.794L196.788 242.348L175.077 219.894L172.519 221.99C141.936 246.997 125.609 279.84 124.26 319.091C124.228 320.122 124.212 321.142 124.212 322.154C124.252 356.588 141.712 384.015 153.185 396.312C150.251 399.311 144.133 405.56 141.042 408.717C119.698 383.414 108.454 353.064 108.448 320.538C108.446 270.331 135.44 223.719 179.059 198.207C185.111 204.528 211.699 232.294 211.699 232.294L212.682 233.32L214.913 232.465C225.392 228.437 238.331 226.098 250.196 226.103C261.993 226.272 273.368 228.414 283.972 232.467L284.854 232.804L286.148 233.298L287.129 232.317C287.129 232.317 287.297 232.149 287.497 231.95H287.726L288.358 231.294ZM250.048 271.8L251.574 270.19L273.158 247.372L267.336 245.813C261.626 244.283 255.607 243.443 248.987 243.239C248.531 243.217 248.024 243.207 247.504 243.207C243.09 243.21 237.277 243.95 231.676 245.214L225.402 246.634L250.048 271.8Z" fill="white"/>
</svg>
