<svg width="500" height="500" viewBox="0 0 500 500" fill="none" xmlns="http://www.w3.org/2000/svg">
<path fill-rule="evenodd" clip-rule="evenodd" d="M55.6602 255.332L90.9943 290.957V219.698H55.6602V255.332ZM408.998 290.957L444.331 255.332V219.698H408.998V290.957ZM155.85 278.838C155.85 267.308 157.908 256.257 161.671 246.043V219.708H126.337V326.591L161.671 362.215V311.641C157.908 301.428 155.85 290.376 155.85 278.847V278.838ZM196.995 397.84V357.022C207.452 364.187 219.426 369.285 232.329 371.743V433.464L196.995 397.84ZM267.663 371.733V433.474L302.996 397.849V356.956C292.54 364.14 280.566 369.265 267.663 371.733ZM338.33 246.328V219.698H373.664V326.591L338.33 362.215V311.346C342.018 301.209 344.037 290.261 344.037 278.838C344.037 267.413 342.018 256.466 338.33 246.328Z" fill="white"/>
<path d="M315.709 211.219C318.43 213.886 320.98 216.716 323.36 219.698H479.664L250 451.281L20.3356 219.698H176.517C178.897 216.716 181.456 213.886 184.168 211.219H0L250 463.295L500 211.219H315.718H315.709Z" fill="white"/>
<path d="M249.942 192.753C297.174 192.753 335.599 231.37 335.599 278.837C335.599 326.305 297.174 364.921 249.942 364.921C202.711 364.921 164.287 326.305 164.287 278.837C164.287 231.37 202.711 192.753 249.942 192.753ZM249.942 184.274C197.97 184.274 155.849 226.615 155.849 278.837C155.849 331.059 197.98 373.4 249.942 373.4C301.905 373.4 344.036 331.059 344.036 278.837C344.036 226.615 301.914 184.274 249.942 184.274Z" fill="white"/>
<path d="M305.807 260.174H309.389V255.327H305.807V249.837C305.807 238.748 296.763 229.731 285.633 229.731H274.949V225.866C274.949 216.558 267.412 208.984 258.152 208.984H226.956V221.103H230.549V229.731H197.219V241.851H200.813V254.83H197.099V259.677H200.813V272.766H197.219V284.885H200.813V297.973H197.099V302.82H200.813V315.8H197.219V327.919H230.549V336.584H226.956V348.702H258.152C267.412 348.702 274.949 341.128 274.949 331.833V327.93H285.633C296.751 327.93 305.807 318.914 305.807 307.826V302.845H309.389V297.997H305.807V292.907C305.807 287.441 303.6 282.485 300.043 278.861C303.6 275.238 305.807 270.281 305.807 264.816V260.235V260.174ZM285.633 241.838C290.107 241.838 293.749 245.426 293.749 249.825V255.315H290.408V260.162H293.749V264.743C293.749 269.154 290.107 272.729 285.633 272.729H274.262C274.708 271.214 274.949 269.627 274.949 267.979V241.826H285.633V241.838ZM262.89 315.775H242.608V284.908H247.528V288.387H252.351V284.908H258.152C260.768 284.908 262.89 287.042 262.89 289.672V315.787V315.775ZM258.152 272.753H252.351V269.312H247.528V272.753H242.608V241.851H262.89V268.003C262.89 270.621 260.768 272.753 258.152 272.753ZM242.608 221.103H258.152C260.768 221.103 262.89 223.236 262.89 225.866V229.731H242.608V221.103ZM212.871 259.677H216.079V254.83H212.871V241.851H230.549V272.753H212.871V259.665V259.677ZM212.871 315.787V302.809H216.079V297.961H212.871V284.872H226.606V284.908H230.549V315.775H212.871V315.787ZM262.89 331.809C262.89 334.426 260.768 336.559 258.152 336.559H242.608V327.894H262.89V331.797V331.809ZM293.749 302.809V307.789C293.749 312.2 290.107 315.775 285.633 315.775H274.949V289.659C274.949 287.999 274.696 286.387 274.25 284.86H285.633C290.107 284.86 293.749 288.448 293.749 292.847V297.937H290.408V302.784H293.749V302.809Z" fill="white"/>
<path d="M359.576 131.618C359.576 109.295 339.221 90.8256 311.812 87.8322C308.387 83.2756 303.937 79.0946 298.511 75.4226C286.911 67.5817 272.006 62.8796 256.017 61.9343V55.5113H263.324V43.3925H256.017V36H243.958V43.3925H236.65V55.5113H243.958V61.9343C227.968 62.8796 213.064 67.5817 201.463 75.4226C196.037 79.0946 191.587 83.2756 188.162 87.8322C160.729 90.8256 140.41 109.234 140.41 131.618C140.41 143.906 146.608 155.334 157.57 163.635C158.088 169.283 162.803 173.718 168.567 173.718C169.653 173.718 170.702 173.549 171.703 173.258L189.477 194.805C205.829 180.953 226.931 172.591 249.999 172.591C273.067 172.591 294.17 180.953 310.522 194.805L328.296 173.258C329.285 173.549 330.346 173.718 331.432 173.718C337.183 173.718 341.91 169.295 342.429 163.648C353.402 155.347 359.588 143.93 359.588 131.618H359.576ZM197.773 169.15C190.381 173.44 182.049 173.222 177.551 169.065C178.841 167.247 179.613 165.029 179.613 162.618C179.613 156.486 174.669 151.517 168.567 151.517C166.698 151.517 164.926 151.989 163.382 152.814C156.388 146.972 152.469 139.483 152.469 131.618C152.469 117.887 164.54 105.865 181.397 101.393C180.541 104.508 180.095 107.719 180.095 110.979C180.095 122.613 185.883 133.775 196.218 142.537C196.531 148.39 201.331 153.044 207.239 153.044C207.516 153.044 207.782 153.019 208.047 153.008C208.481 158.691 204.562 165.223 197.773 169.162V169.15ZM229.138 159.055C221.951 159.055 215.765 155.94 212.895 151.456C216.115 149.517 218.285 145.978 218.285 141.931C218.285 135.799 213.341 130.83 207.239 130.83C205.515 130.83 203.899 131.242 202.452 131.945C195.772 125.789 192.166 118.541 192.166 110.979C192.166 91.8195 214.909 76.0164 243.97 74.0774V126.152C240.955 128.14 238.954 131.557 238.954 135.447C238.954 140.561 242.402 144.863 247.081 146.148C246.876 153.298 238.929 159.055 229.138 159.055ZM270.849 159.055C261.057 159.055 253.111 153.298 252.905 146.148C257.584 144.863 261.033 140.561 261.033 135.447C261.033 131.557 259.031 128.127 256.017 126.152V74.0774C285.09 76.0164 307.821 91.8317 307.821 110.979C307.821 118.541 304.215 125.776 297.535 131.945C296.087 131.242 294.459 130.83 292.747 130.83C286.645 130.83 281.702 135.799 281.702 141.931C281.702 145.978 283.872 149.517 287.092 151.456C284.222 155.94 278.036 159.055 270.849 159.055ZM320.374 162.618C320.374 165.029 321.145 167.247 322.435 169.065C317.938 173.222 309.605 173.44 302.213 169.15C295.424 165.211 291.505 158.679 291.939 152.995C292.205 153.019 292.47 153.031 292.747 153.031C298.644 153.031 303.455 148.378 303.769 142.525C314.091 133.763 319.891 122.601 319.891 110.967C319.891 107.707 319.445 104.496 318.589 101.381C335.435 105.865 347.518 117.923 347.518 131.606C347.518 139.47 343.598 146.96 336.605 152.801C335.061 151.977 333.289 151.505 331.419 151.505C325.318 151.505 320.374 156.474 320.374 162.605V162.618Z" fill="white"/>
</svg>
