<svg width="500" height="500" viewBox="0 0 500 500" fill="none" xmlns="http://www.w3.org/2000/svg">
<path d="M34 363.402H165.873L249.421 500L34 363.402Z" fill="#1A1659"/>
<path d="M465.057 363.402H332.969L249.421 500L465.057 363.402Z" fill="#1A1659"/>
<path d="M165.873 363.402H249.421H332.969L249.421 142.826L165.873 363.402Z" fill="#1A1659"/>
<path d="M249.421 500L332.969 363.402H165.873L249.421 500Z" fill="url(#paint0_linear_1112_8263)"/>
<path d="M249.421 142.826L285.503 237.972H239.971L209.043 320.017H316.646L332.969 363.402H465.057L308.914 0C269.18 0 229.662 0 189.928 0L34 363.402H166.088L249.421 142.826Z" fill="url(#paint1_linear_1112_8263)"/>
<defs>
<linearGradient id="paint0_linear_1112_8263" x1="165.959" y1="431.615" x2="332.974" y2="431.615" gradientUnits="userSpaceOnUse">
<stop stop-color="#31ECFF"/>
<stop offset="0.049371" stop-color="#2DE2FF"/>
<stop offset="0.2964" stop-color="#1BB2FF"/>
<stop offset="0.5147" stop-color="#0E90FF"/>
<stop offset="0.694" stop-color="#067BFF"/>
<stop offset="0.8118" stop-color="#0373FF"/>
</linearGradient>
<linearGradient id="paint1_linear_1112_8263" x1="373.241" y1="23.4607" x2="224.322" y2="432.611" gradientUnits="userSpaceOnUse">
<stop stop-color="#31ECFF"/>
<stop offset="0.0488274" stop-color="#2DE2FF"/>
<stop offset="0.2932" stop-color="#1BB2FF"/>
<stop offset="0.5091" stop-color="#0E90FF"/>
<stop offset="0.6863" stop-color="#067BFF"/>
<stop offset="0.8028" stop-color="#0373FF"/>
</linearGradient>
</defs>
</svg>
