<svg width="500" height="500" viewBox="0 0 500 500" fill="none" xmlns="http://www.w3.org/2000/svg">
<path fill-rule="evenodd" clip-rule="evenodd" d="M138.191 203.881V363.404C126.28 344.563 115.735 324.893 106.638 304.544V203.881H138.191ZM201.23 230.311V441.475C190.099 430.57 179.565 419.07 169.676 407.026V203.881H193.813C194.008 213.177 196.56 222.271 201.23 230.311ZM265.077 255.597V471.276C260.139 475.235 255.127 479.101 250.044 482.872C244.464 478.796 238.979 474.592 233.591 470.264V255.73C238.513 257.213 243.774 257.958 249.099 257.958C254.513 257.968 259.898 257.172 265.077 255.597ZM328.926 203.881V408.639C319.059 420.574 308.549 431.963 297.444 442.756V229.503C301.819 221.66 304.202 212.863 304.383 203.884L328.926 203.881ZM391.965 203.881V307.509C382.873 327.566 372.349 346.944 360.477 365.492V203.881H391.965Z" fill="#CA2A2F"/>
<path fill-rule="evenodd" clip-rule="evenodd" d="M395.239 147.099C395.239 147.327 395.239 147.557 395.233 147.788C394.972 170.2 383.026 183.313 360.681 185.711H354.542C347.179 185.441 331.822 183.398 329.671 179.882C329.529 179.664 329.446 179.414 329.431 179.155C329.416 178.896 329.468 178.638 329.583 178.405C330.994 176.294 337.313 178.337 341.93 179.828L343.054 180.186C346.314 181.23 351.344 180.934 354.673 180.735L354.849 180.727V159.882L350.343 159.682L345.959 158.67C326.621 153.233 319.776 140.795 319.776 130.695C319.776 130.453 319.782 130.211 319.788 129.972C320.195 117.486 330.385 106.982 345.171 103.776L343.814 102.584C341.384 100.459 339.085 98.4559 337.734 95.3065C336.368 92.1599 335.683 89.1614 335.683 86.3818C335.683 83.5511 336.388 80.9508 337.805 78.6606C340.923 73.6278 347.239 70.5012 355.148 70.083H355.159L360.698 70.8938C363.782 71.349 375.558 77.6336 376.229 82.3477C376.411 83.662 375.691 84.7061 374.073 85.4458L374.007 85.4771L373.956 85.4202C370.283 81.1698 362.149 75.955 356.374 75.2751L353.134 75.4771C349.321 75.662 345.614 78.4586 343.916 82.4273C343.054 84.3704 342.67 86.1457 342.67 87.7815C342.67 94.2624 348.676 98.5327 354.644 102.095V90.0376L382.471 90.0803L382.704 90.4103C383.142 91.022 383.427 91.4174 383.427 92.0604C383.427 92.5469 383.265 93.1784 382.889 94.1543L382.861 94.2168H363.208V102.715C368.792 102.72 374.733 103.264 380.906 104.356L382.078 105.412L382.485 106.692C381.285 109.901 376.795 108.709 373.182 107.753L370.454 107.096L366.664 106.959L364.257 106.607L365.108 107.307C383.691 116.641 395.239 126.584 395.239 147.099ZM354.849 154.886V109.307C347.452 107.5 340.169 109.787 334.852 115.597C330.718 120.149 328.407 126.065 328.362 132.214C328.362 134.544 328.718 136.84 329.458 138.994C332.22 147.008 339.794 152.442 350.789 154.294C350.787 154.297 354.63 154.854 354.849 154.886ZM363.006 133.822C366.895 135.048 368.166 134.957 372.257 134.001C374.624 133.426 375.509 134.12 375.819 134.587C376.257 135.236 376.129 136.174 375.475 137.096C373.964 139.221 370.147 140.755 365.04 139.389L362.806 138.815V155.503L366.317 155.412C371.728 155.193 379.902 154.86 381.27 156.248L381.481 156.755C381.466 157.123 381.377 157.484 381.219 157.816C381.06 158.148 380.836 158.444 380.559 158.687C377.819 161.216 369.535 160.88 365.085 160.698L363.008 160.633V180.692C383.68 176.269 388.79 162.155 388.79 149.301C388.79 147.435 388.679 145.597 388.494 143.819C387.031 130.231 377.743 119.065 363.006 113.153V133.822Z" fill="white"/>
<path fill-rule="evenodd" clip-rule="evenodd" d="M348.886 26.7C324.542 25.9603 300.004 20.7683 275.461 11.3969C266.943 8.07944 258.574 4.38976 250.38 0.338552V0C250.254 0.00160624 250.134 0.0491853 250.041 0.133713C249.936 0.0705231 249.822 0.0253249 249.702 0V0.335706C240.872 4.65152 232.106 8.49507 223.273 11.7981C198.866 21.0357 174.527 26.0229 150.322 26.6972C114.456 27.6417 78.922 19.0101 44 0V79.0189C49.798 217.299 87.3516 323.825 150.322 405.004C171.762 432.714 196.169 457.459 223.273 479.508C231.85 486.482 240.665 493.16 249.702 499.528V500C249.805 499.918 249.919 499.851 250.041 499.801C250.144 499.882 250.258 499.949 250.38 500V499.528C258.91 493.419 267.273 487.08 275.461 480.518C302.698 458.469 327.31 433.726 348.886 406.014C412.258 324.705 450.15 217.907 456.016 79.0189V0.201993V0C420.756 19.1495 385.02 27.7783 348.886 26.7ZM106.637 203.881H73.3965C81.3112 238.695 92.2643 272.408 106.637 304.504V203.881ZM169.676 203.881H138.191V363.404C138.191 363.404 138.279 364.499 150.327 381.6C156.468 390.293 162.923 398.759 169.679 406.983L169.676 203.881ZM233.591 255.739C230.019 254.697 226.564 253.293 223.278 251.548C214.09 246.706 206.45 239.377 201.229 230.399V441.461C208.347 448.455 215.701 455.204 223.278 461.697C226.658 464.576 230.106 467.404 233.591 470.21V255.739ZM297.443 229.503C297.449 229.491 297.455 229.474 297.466 229.463C292.34 238.667 284.711 246.231 275.463 251.278C272.157 253.066 268.677 254.515 265.079 255.602V471.271C276.327 462.294 287.129 452.772 297.446 442.739V229.503H297.443ZM426.616 203.881H391.964V307.509C390.861 309.938 415.609 258.123 426.616 203.881ZM360.476 203.881H328.926V408.639C325.293 413.029 339.333 396.147 348.886 382.684C352.882 377.03 356.746 371.285 360.476 365.452V203.881ZM442.87 72.9504C410.981 57.6445 379.359 50.9047 348.886 51.3087C323.398 51.6473 298.789 57.0385 275.461 66.5464C266.764 70.1196 258.334 74.2989 250.041 78.9504C249.919 79.0018 249.805 79.0698 249.702 79.1524V79.4227H249.637C240.94 74.6346 232.175 70.4553 223.275 66.9475C199.341 57.4425 174.865 52.5861 150.325 52.4524C119.175 52.3187 87.892 59.8009 57.2148 75.2406C56.5397 57.3589 56.4723 39.4594 57.0128 21.5731L57.4168 21.7751C88.4297 34.7197 119.446 40.7909 150.322 40.2503C174.729 39.7781 199.068 35.192 223.273 26.4978C232.397 23.2701 241.332 19.5336 250.038 15.3057C258.316 19.3263 266.801 22.9046 275.458 26.0255C299.324 34.5888 324.067 39.5106 348.884 40.2503C380.639 41.2603 412.597 35.3285 442.935 21.5731C443.408 38.7681 443.408 55.892 442.87 72.9504ZM429.385 190.937H303.106C299.666 175.094 289.347 161.677 275.461 154.126C269.506 150.849 262.988 148.722 256.246 147.856V88.5926C262.331 84.279 268.757 80.4684 275.461 77.1985C296.426 66.8826 321.441 60.7489 348.887 60.6123C377.809 60.4786 409.43 67.0846 441.587 82.7263C439.903 119.133 436.529 156.081 429.385 190.937ZM57.5537 83.7388C89.1755 68.8369 120.052 61.2863 150.325 61.4883C175.136 61.6903 199.475 67.0161 223.276 77.7359C229.95 80.7032 236.556 84.1399 243.097 87.9181V147.722C236.018 148.465 229.344 150.621 223.276 153.79C216.174 157.589 209.975 162.874 205.1 169.285C200.225 175.695 196.789 183.082 195.025 190.94H70.5666C63.42 156.081 59.1725 120.146 57.5537 83.7388ZM249.099 157.093H250.043C259.174 157.267 268.037 160.205 275.463 165.52C287.059 173.813 294.678 187.366 294.678 202.737C294.678 218.041 287.059 231.662 275.463 239.955C268.022 245.241 259.168 248.177 250.043 248.382H249.099C239.864 248.401 230.848 245.576 223.275 240.291C211.34 232.066 203.454 218.311 203.454 202.737C203.454 187.164 211.34 173.34 223.275 165.116C230.869 159.881 239.876 157.083 249.099 157.093ZM272.727 188.064C272.67 188.041 272.622 188.021 272.633 188.033C270.633 186.69 268.767 186.24 267.077 186.695C264.926 187.279 262.966 189.37 261.236 192.892C265.521 199.233 267.683 205.677 267.683 212.144C267.683 215.119 267.228 218.101 266.317 221.08C263.723 229.708 257.344 238.525 247.393 247.293L249.102 247.344C254.915 247.344 260.511 246.243 265.74 244.081C275.359 231.506 280.169 219.865 280.169 209.262C280.169 201.643 277.689 194.567 272.727 188.064ZM293.276 204.9C293.276 202.058 292.937 199.227 292.226 196.459C290.975 191.599 288.576 187.111 285.23 183.372C282.892 181.588 280.812 180.934 279.045 181.429C277.074 181.981 275.395 184 274.044 187.409C279.082 194.12 281.611 201.4 281.611 209.21C281.611 219.543 277.17 230.809 268.365 242.906C283.469 235.622 293.276 220.132 293.276 204.9ZM250.994 197.848C253.159 193.487 256.192 191.575 260.027 192.175C261.91 188.283 264.121 185.939 266.604 185.233C268.528 184.687 270.633 185.14 272.855 186.514C274.417 182.758 276.371 180.514 278.684 179.891C280.846 179.307 283.347 180.104 286.124 182.26L286.218 182.354C288.875 185.284 290.977 188.674 292.42 192.357C292.003 190.51 291.461 188.694 290.798 186.92C290.63 186.903 290.437 186.824 290.292 186.531C287.569 181.47 283.552 177.634 278.667 175.441C275.162 173.817 271.316 173.097 267.247 173.304C263.309 173.506 259.468 174.604 256.018 176.514C250.681 179.393 246.496 183.947 243.936 189.62C243.808 190.542 243.745 191.384 243.745 192.138C243.745 193.882 244.084 195.165 244.758 195.979C245.839 197.248 247.822 197.839 250.994 197.848ZM279.262 174.137C282.274 175.474 285.04 177.517 287.424 180.068C284.545 175.275 280.812 170.956 276.405 167.531C268.044 162.285 260.22 160.908 253.156 163.445C246.377 165.832 239.978 171.79 234.146 181.107C233.811 181.915 233.629 182.778 233.608 183.653C233.608 184.438 233.793 185.144 234.166 185.764C235.27 187.608 238.098 188.822 242.542 189.389L242.596 189.218L242.527 189.386L242.547 189.152C245.183 183.263 249.669 178.396 255.324 175.289C258.98 173.265 263.049 172.103 267.222 171.889C271.478 171.681 275.646 172.458 279.262 174.137ZM224.471 175.415C225.333 178.166 228.192 179.83 232.963 180.371C238.892 170.803 245.521 164.644 252.661 162.064C256.986 160.567 261.413 160.456 266.075 161.56C260.625 159.29 254.94 158.069 249.1 158.069C245.122 158.069 241.06 158.633 237.026 159.745L237.128 159.685C237.128 159.685 236.764 159.887 236.866 159.862C230.533 162.963 226.482 168.052 224.471 175.415ZM215.387 183.466C215.387 186.513 215.933 189.406 217.023 192.132C219.666 198.578 225.253 203.845 233.62 207.782C236.109 208.889 238.198 209.734 240.323 210.266C242.318 210.752 244.376 210.932 246.425 210.8C246.425 210.8 247.242 210.553 247.191 210.587C249.384 208.604 250.388 207.202 250.761 205.574C250.937 204.923 251.014 204.229 251.014 203.489C251.014 202.231 250.787 200.829 250.454 199.247C247.108 199.15 244.935 198.428 243.66 196.948C242.721 195.79 242.272 194.211 242.272 192.044C242.272 191.671 242.292 191.27 242.32 190.857C237.518 190.229 234.365 188.849 232.983 186.738C232.415 185.86 232.121 184.833 232.138 183.788C232.138 183.153 232.266 182.467 232.451 181.759C227.179 181.108 224.01 179.048 223.043 175.563L223.051 175.233C224.525 169.591 227.304 165.156 231.199 161.896C226.343 164.066 221.987 166.934 218.283 170.507C216.354 175.076 215.387 179.406 215.387 183.466ZM248.271 220.864C248.499 220.212 248.613 219.501 248.613 218.707C248.613 217.911 248.496 217.034 248.263 216.07C247.94 214.718 247.423 213.419 246.729 212.215C244.351 212.391 242.149 212.215 240.009 211.663C237.523 211.08 235.181 210.078 233.019 209.086C224.416 205.066 218.427 199.381 215.708 192.647C214.527 189.722 213.928 186.593 213.947 183.438C213.947 180.198 214.564 176.781 215.733 173.228C211.284 178.314 207.966 184.263 206.186 190.568C206.214 190.696 206.248 190.866 206.248 190.846C207.804 202.644 211.93 211.441 218.504 216.992C224.607 222.17 233.15 224.716 243.864 224.559C244.528 224.428 245.164 224.187 245.748 223.845C246.934 223.179 247.83 222.124 248.271 220.864ZM217.529 218.083C211.318 212.808 207.244 204.771 205.361 194.242C204.823 197.141 204.496 199.998 204.496 202.737C204.496 206.885 205.105 211.101 206.308 215.272C209.566 223.685 213.737 230.001 218.701 234.04C224.024 238.271 230.34 239.958 237.481 239.048C238.713 238.926 239.915 238.593 241.034 238.063C242.326 237.383 243.267 236.464 243.833 235.335C244.309 234.382 244.548 233.304 244.548 232.117C244.547 231.751 244.527 231.386 244.485 231.022C244.28 229.454 243.731 227.77 242.875 226.029C232.126 225.998 223.833 223.403 217.529 218.083ZM237.668 240.453C231.454 241.273 225.853 240.158 220.937 237.236C227.89 242.926 236.439 246.431 245.38 247.19C255.742 238.243 262.319 229.321 264.92 220.67C265.805 217.799 266.248 214.926 266.248 212.061C266.248 205.844 264.16 199.659 260.015 193.588C256.592 193.051 253.969 194.815 252.029 198.897L251.907 199.125C252.245 200.738 252.479 202.18 252.479 203.506C252.479 204.368 252.385 205.179 252.157 205.964C251.699 207.864 250.507 209.537 248.097 211.694C248.792 213.105 249.324 214.473 249.662 215.759C249.913 216.741 250.041 217.682 250.041 218.579C250.041 219.56 249.89 220.487 249.588 221.355C249.033 222.954 247.978 224.22 246.439 225.13C245.81 225.443 245.099 225.688 244.356 225.887C245.164 227.68 245.696 229.367 245.893 230.886C245.958 231.335 245.989 231.782 245.989 232.223C245.989 233.543 245.702 234.815 245.124 236.024C244.356 237.436 243.168 238.576 241.725 239.284C240.464 239.941 239.085 240.339 237.668 240.453Z" fill="white"/>
<path fill-rule="evenodd" clip-rule="evenodd" d="M117.896 86.5693C120.052 93.3802 122.684 100.052 125.918 106.458V106.524C125.85 107.941 126.661 109.625 128.009 110.367C128.681 111.446 129.29 112.524 129.964 113.537C131.042 115.221 132.12 116.84 133.335 118.459C135.896 121.895 138.729 125.133 142.1 127.898C141.967 127.964 134.999 135.491 130.032 142.595L129.967 142.393L117.896 86.5693Z" fill="white"/>
<path fill-rule="evenodd" clip-rule="evenodd" d="M218.559 142.8C217.412 138.823 215.458 134.979 212.758 131.067C213.028 129.787 212.96 128.641 212.892 127.36C212.892 126.82 212.826 126.282 212.826 125.673V124.663C212.892 123.585 212.892 122.575 212.624 121.631C215.927 115.966 216.872 110.911 216.064 104.1C215.054 104.706 214.106 105.315 213.367 106.256C213.165 105.178 213.031 104.1 212.829 102.953C212.761 102.549 212.223 102.413 211.953 102.751C211.077 103.83 210.2 104.842 209.256 105.921C206.559 109.022 204.064 112.259 204.266 116.774V117.582L203.995 117.986C201.367 121.357 200.22 125.067 199.005 128.84C198.601 130.188 198.197 131.537 197.725 132.885V104.84L197.591 104.706C196.917 104.1 196.379 103.628 195.907 103.155C194.425 101.875 193.21 101.266 193.142 98.0287C193.076 96.5464 194.086 95.6019 194.692 95.1979C195.165 94.7939 195.839 94.8622 196.849 95.4682C196.983 96.0087 197.119 96.4127 197.051 96.7513C196.917 98.4355 195.298 98.8423 197.995 100.797C198.806 101.335 199.748 101.269 200.829 99.7869C201.326 99.1172 201.629 98.324 201.705 97.4938C201.834 96.2254 201.625 94.9455 201.099 93.784C200.57 92.5771 199.761 91.514 198.738 90.683C198.064 90.2107 197.256 89.8067 196.379 89.7413H196.243C193.816 90.0087 192.197 90.7512 191.119 91.8978C189.973 93.0443 189.432 94.5948 189.028 96.5493C188.69 98.5721 189.096 100.461 190.038 102.279C190.849 103.966 192.129 105.585 193.543 106.933V151.093C193.478 151.158 193.341 151.158 193.273 151.227C191.856 152.171 191.791 155.139 190.846 156.754C189.699 158.575 187.204 158.914 185.722 160.328C183.617 162.254 180.9 166.45 180.934 166.328V64.3869C179.03 64.0391 177.12 63.7242 175.204 63.4424V65.4623H170.954C170.211 61.8236 164.413 62.0256 163.671 64.5861H160.84C159.019 60.5406 154.234 61.4851 152.886 64.5861H149.247C147.494 61.0811 142.908 61.3485 141.224 64.5861H138.191C138.058 62.293 135.292 62.0228 133.338 62.8336C131.989 63.4396 131.045 64.4495 131.315 65.6643H127.406V62.8336C125.449 63.0356 123.494 63.3059 121.54 63.5761V94.0514C118.709 86.7029 116.484 79.1523 114.595 71.5307C114.53 70.993 113.585 71.2604 113.651 71.7326L121.537 108.006V180.553H177.631C177.645 180.237 177.631 181.224 177.631 182.035C177.631 183.315 181.81 183.113 182.351 183.045C182.744 182.996 183.13 182.954 183.497 182.925L183.361 190.934H195.025C195.261 190.052 195.449 189.218 195.671 188.351L195.631 188.439C195.657 188.339 195.694 188.245 195.719 188.146L195.668 188.348C195.715 188.25 195.743 188.143 195.751 188.035C198.274 179.093 202.937 170.942 209.247 164.436C212.445 161.102 216.046 158.181 219.967 155.739C220.175 150.956 219.771 146.777 218.559 142.8ZM175.81 142.732C175.002 141.722 165.293 129.989 161.315 125.07C166.305 121.901 170.485 118.259 173.318 113.135C173.722 112.393 174.126 111.585 174.465 110.706C175.002 110.572 175.409 110.37 175.813 110.032L175.81 142.732ZM175.81 103.357C175.095 102.813 174.217 102.528 173.318 102.549C171.768 102.549 170.419 103.357 169.677 104.572L166.103 106.256C165.697 104.774 164.957 103.289 164.012 101.739C162.974 100.202 161.751 98.7983 160.371 97.5593C161.788 95.1979 161.921 92.8394 161.247 90.3444C160.507 87.9177 158.886 85.3543 156.863 82.589C157.201 82.0513 157.469 81.5108 157.674 80.9048C157.876 80.2306 157.941 79.4226 157.742 78.3415C157.605 77.3998 156.797 76.3216 155.853 75.1068C154.504 73.3543 152.82 71.1949 152.348 68.5662C152.282 68.0939 151.54 68.0939 151.403 68.4979C151.292 69.2047 151.064 69.8882 150.729 70.5207C149.989 72.0029 148.977 73.1494 148.032 74.2277C146.752 75.6445 145.739 76.8564 145.605 78.2732C145.537 79.0158 145.674 79.8237 145.944 80.6345C146.146 81.3088 146.416 81.9176 146.752 82.589C146.483 82.9333 146.235 83.2934 146.009 83.6673C143.179 87.7783 140.211 92.1623 142.977 97.5564C141.765 98.6346 140.615 99.9177 139.54 101.332C138.399 102.808 137.363 104.362 136.439 105.983L133.674 104.501C133.54 104.299 133.472 104.165 133.338 103.963C132.92 103.487 132.399 103.112 131.815 102.867C131.231 102.621 130.599 102.512 129.967 102.546C128.55 102.612 127.068 103.354 126.393 104.84V68.2305C127.608 69.1067 128.888 69.6473 129.967 69.5107C130.588 69.4542 131.166 69.1658 131.585 68.7028C132.123 69.377 132.664 69.983 133.338 70.5918C134.348 71.6018 135.494 72.478 136.709 73.4226C137.585 69.5107 137.989 67.488 140.08 67.1523C142.237 66.8166 144.396 70.1196 145.676 72.5463C146.957 69.4453 148.371 67.1523 149.992 65.7355H152.553C154.576 67.4225 155.79 69.8493 156.328 72.68C158.149 69.5107 159.631 66.478 162.126 66.7454C164.556 67.0157 165.227 70.3187 165.497 73.4226C166.98 71.5335 168.598 69.781 170.354 68.2305C171.5 69.1067 172.376 69.5107 173.321 69.5107C174.129 69.5107 174.872 69.1067 175.813 68.4325L175.81 103.357ZM160.237 125.27C164.56 130.605 168.921 135.909 173.318 141.182C173.992 141.99 174.667 142.798 175.341 143.674V152.036L173.318 150.619L151.879 136.258C151.704 136.192 151.512 136.192 151.338 136.258L126.123 153.788V129.179L129.292 143.945C129.358 144.215 129.696 144.349 129.967 144.283C130.032 144.283 130.169 144.215 130.169 144.081C131.181 142.599 132.191 141.114 133.338 139.632C136.103 135.788 139.406 132.016 143.116 128.238V128.172C143.181 128.172 143.181 128.104 143.181 128.104C143.219 128.005 143.233 127.898 143.221 127.793C143.21 127.688 143.174 127.587 143.116 127.498C140.08 125.003 137.383 122.104 134.957 119.003H167.588C165.497 121.094 163.073 122.915 160.374 124.599C160.103 124.73 160.103 125.068 160.237 125.27ZM175.81 160.058H125.65V155.204C125.921 155.139 151.406 137.338 151.608 137.204C153.497 138.348 175.679 153.318 175.813 153.386L175.81 160.058ZM173.318 110.909C172.692 110.912 172.074 110.776 171.509 110.509C170.943 110.242 170.445 109.851 170.05 109.366C169.655 108.881 169.374 108.314 169.228 107.706C169.082 107.098 169.073 106.465 169.204 105.853L165.966 107.335C165.89 107.387 165.79 107.389 165.696 107.369V111.517C165.696 111.719 165.426 111.99 165.224 111.99H159.156C158.954 111.99 158.683 111.719 158.683 111.517V108.618H144.458V111.517C144.458 111.719 144.188 111.99 143.986 111.99H137.918C137.716 111.99 137.446 111.719 137.446 111.517V106.163C137.312 106.399 137.175 106.627 137.042 106.866C136.908 107.068 136.569 107.204 136.367 107.068L134.208 105.924C134.478 107.204 134.143 108.485 133.332 109.429C132.911 109.906 132.392 110.286 131.809 110.542C131.227 110.798 130.596 110.924 129.961 110.911H129.622V110.843H129.423C129.625 111.113 129.761 111.449 129.963 111.719C131.042 113.472 132.12 115.159 133.335 116.843C133.605 117.247 133.872 117.651 134.211 118.055H168.53C170.45 115.957 172.062 113.597 173.318 111.045C173.318 110.98 173.318 110.98 173.386 110.911L173.318 110.909ZM146.752 84.2115C144.165 88.1233 141.332 92.2314 143.932 97.1817L143.986 97.1561C144.188 97.1561 144.458 97.3581 144.458 97.6283V103.091H158.885V97.6283C158.885 97.341 159.19 97.1532 159.503 97.1134C160.774 95.0309 160.951 92.8858 160.302 90.6155C159.628 88.1859 158.012 85.6937 155.921 82.9312C155.787 82.7947 155.787 82.5244 155.853 82.3907C156.259 81.7164 156.595 81.2442 156.729 80.6382C156.931 80.1005 156.931 79.4262 156.797 78.4817C156.729 77.8075 155.989 76.7975 155.045 75.6481C153.966 74.2313 152.618 72.4788 151.875 70.3906C151.547 71.0941 151.164 71.7705 150.729 72.4134C150.123 73.3579 149.38 74.0976 148.709 74.9056C147.631 76.1204 146.686 77.1986 146.55 78.3423C146.484 79.0166 146.618 79.6254 146.82 80.2996C147.087 80.9739 147.358 81.7164 147.696 82.4561C147.764 82.5244 147.764 82.7947 147.696 82.9312C147.36 83.3324 147.09 83.7392 146.752 84.2115ZM154.37 94.3251C153.631 95.4033 152.686 96.0776 151.605 96.0776C150.527 96.0776 149.585 95.4033 148.843 94.3251C148.032 93.1785 147.56 91.5598 147.56 89.7418C147.56 87.9893 148.032 86.3677 148.843 85.224C149.585 84.0775 150.527 83.4004 151.605 83.4004C152.686 83.4004 153.628 84.0746 154.37 85.224C155.113 86.3677 155.585 87.9893 155.585 89.7418C155.585 91.5598 155.113 93.1757 154.37 94.3251ZM130.1 103.494C128.347 103.494 126.931 104.911 126.931 106.729C126.931 108.482 128.347 109.967 130.1 109.967C131.921 109.967 133.338 108.482 133.338 106.729C133.338 104.908 131.921 103.494 130.1 103.494ZM173.318 103.494C171.497 103.494 170.08 104.911 170.08 106.729C170.08 108.482 171.497 109.967 173.318 109.967C175.07 109.967 176.487 108.482 176.487 106.729C176.487 104.908 175.07 103.494 173.318 103.494ZM209.252 117.719C207.996 117.104 206.603 116.824 205.207 116.908V116.774C205.07 112.999 206.959 110.097 209.252 107.403C210.197 106.256 211.139 105.246 212.018 104.168C212.624 108.481 214.445 116.236 212.151 120.552C211.456 119.365 210.455 118.387 209.252 117.719ZM178.575 181.767L179.52 182.106C180.126 182.376 181.204 182.24 182.285 182.106C183.5 181.972 184.712 181.767 185.523 182.174C186.601 182.78 187.343 183.321 187.881 183.793C189.028 184.669 189.702 185.141 192.464 184.669C192.601 184.669 192.803 184.735 192.937 184.871C193.543 185.747 193.881 186.22 194.217 186.49C194.487 186.76 194.891 186.962 195.497 187.301C197.318 180.828 200.353 174.894 204.262 169.568C208.315 164.131 213.317 159.472 219.028 155.815C219.23 151.096 218.826 146.982 217.679 143.073C216.601 139.431 214.914 136.06 212.555 132.487C211.881 136.734 210.94 140.174 208.914 142.871C206.757 145.835 203.386 147.995 197.924 149.477C197.856 149.477 197.79 149.477 197.722 149.542V159.454C197.708 159.576 197.662 159.692 197.588 159.79C197.05 160.396 196.578 161.138 196.038 162.083C195.497 163.093 194.959 164.239 194.419 165.656C194.285 166.06 193.543 165.926 193.543 165.454V152.237H193.477C193.343 152.709 193.207 153.116 193.073 153.585C192.735 154.868 192.331 156.08 191.656 157.227C190.848 158.507 189.634 159.116 188.419 159.787C187.676 160.194 186.937 160.53 186.331 161.067C183.488 163.618 181.371 166.874 180.194 170.507C179.047 173.946 178.575 177.722 178.575 181.767ZM204.735 122.843C204.396 122.775 204.129 122.909 203.859 123.179C203.52 123.449 203.318 123.921 203.253 124.394C203.187 124.931 203.253 125.404 203.455 125.742C203.657 126.081 203.927 126.351 204.197 126.351C204.533 126.416 204.803 126.283 205.074 126.012C205.412 125.742 205.614 125.27 205.68 124.798C205.748 124.26 205.68 123.788 205.478 123.449C205.416 123.293 205.316 123.155 205.186 123.049C205.056 122.942 204.9 122.872 204.735 122.843ZM196.712 105.247C196.174 104.709 195.702 104.302 195.295 103.898C193.611 102.416 192.8 101.674 192.126 98.1004L192.192 97.8984C192.732 96.2114 193.27 94.9994 194.081 94.3934C196.035 92.9112 198.192 94.6637 197.99 96.823C197.99 97.2953 197.788 97.6993 197.517 98.3052C197.788 98.9795 198.123 99.6538 198.596 99.9895C198.934 100.26 199.406 100.126 200.078 99.2469C200.416 98.7092 200.684 98.1033 200.752 97.4262C200.871 96.2969 200.686 95.1563 200.214 94.1232C199.742 93.1132 199.068 92.1004 198.192 91.4944C197.586 91.0904 196.977 90.7519 196.305 90.6836C194.146 90.9539 192.732 91.5627 191.788 92.5726C190.843 93.5172 190.305 94.9311 189.967 96.7519C189.628 98.5044 190.032 100.257 190.843 101.876C191.77 103.553 192.953 105.077 194.348 106.391L194.482 106.593V163.091C194.684 162.553 194.954 162.081 195.156 161.677C195.694 160.732 196.234 159.924 196.706 159.316V105.247H196.712Z" fill="white"/>
<path fill-rule="evenodd" clip-rule="evenodd" d="M120.862 179.276C120.458 176.781 119.986 174.286 119.65 171.725C119.312 168.351 119.175 164.915 119.042 161.475C118.908 158.846 118.84 156.215 118.569 153.586C118.555 153.464 118.509 153.347 118.436 153.247C117.559 152.371 116.748 151.495 115.872 150.55C113.781 148.189 111.625 145.831 108.996 144.348V106.931C110.344 105.583 111.628 103.964 112.501 102.277C113.38 100.456 113.849 98.57 113.445 96.5473C113.107 94.5899 112.501 93.0423 111.423 91.8957C110.413 90.8858 109.061 90.2087 107.175 89.873C106.867 89.7917 106.55 89.7468 106.231 89.7393H106.031C105.204 89.8679 104.42 90.1906 103.741 90.6809C103.605 90.8175 103.403 90.9512 103.266 91.1532C102.458 91.8275 101.849 92.772 101.38 93.7819C100.905 94.9967 100.637 96.277 100.774 97.4918C100.908 98.368 101.178 99.1106 101.65 99.7848C102.256 100.593 102.797 100.931 103.269 101.065C103.744 101.133 104.145 101.065 104.484 100.798C105.158 100.257 105.63 99.3154 105.966 98.4363V98.0295C105.63 97.4235 105.494 97.0878 105.428 96.7493C105.428 96.4107 105.497 96.0067 105.699 95.4662C105.835 95.4007 105.901 95.3325 106.037 95.2642C106.037 95.2642 106.105 95.2642 106.105 95.1987H106.171C106.482 95.0316 106.828 94.9391 107.181 94.9285C107.451 94.9285 107.653 94.9968 107.855 95.1987C108.461 95.6056 108.933 96.6155 109.406 98.0295C108.868 100.727 108.259 101.603 107.181 102.616C106.979 102.818 106.777 103.02 106.575 103.156C106.441 103.29 106.305 103.426 106.168 103.495C106.168 103.56 106.103 103.56 106.103 103.628C106.103 103.628 106.034 103.628 106.034 103.697C105.657 104.014 105.297 104.351 104.956 104.707C104.884 104.805 104.838 104.921 104.822 105.042V130.798H103.272V130.528C103.003 128.573 102.458 126.667 101.653 124.866C100.496 122.255 98.9004 119.861 96.9361 117.788L96.6659 116.778C96.6659 116.035 96.6659 115.361 96.5976 114.618C96.5321 113.136 96.5322 111.719 96.3956 110.303C96.1253 108.01 95.7213 105.785 94.6431 103.56L93.5563 101.27C93.4226 100.931 92.8821 100.931 92.7484 101.27L92.3444 101.876C92.0741 102.348 91.8038 102.82 91.4681 103.29L90.8621 104.3C90.733 103.951 90.575 103.613 90.3899 103.29C90.1196 102.684 89.8522 102.078 89.5136 101.469C89.3799 101.199 89.0414 101.133 88.8394 101.267C86.0741 103.222 84.7938 106.593 84.4553 110.3C83.983 115.02 84.993 120.345 86.4126 123.717C86.2761 125.199 85.6018 125.739 84.7938 126.414C84.1878 126.886 83.5107 127.424 82.9048 128.371C82.2305 129.449 81.9602 130.73 81.7582 131.944L81.5563 132.752V132.886C81.69 134.101 82.0968 135.042 82.7028 135.922C83.2405 136.593 83.8493 137.202 84.5918 137.742L83.5136 140.169C82.9718 141.846 82.3875 143.509 81.7611 145.156C80.3471 149.202 78.9304 153.179 78.1878 157.495C76.8393 165.381 76.367 173.407 76.165 181.43C76.165 181.43 76.2333 181.7 76.3016 181.7L77.0413 182.644L77.1096 182.71C78.4581 183.72 78.9986 183.72 78.3244 183.452L77.4453 190.935H118.165C118.165 190.869 118.165 190.801 118.1 190.801L116.279 186.351L121.539 186.824C121.81 186.824 122.08 186.553 122.012 186.286C121.727 183.934 121.344 181.596 120.862 179.276ZM92.2768 103.83C92.3451 103.762 92.3451 103.762 92.3451 103.696C92.6125 103.289 92.8173 102.954 93.0848 102.55L93.759 103.967C95.375 107.403 95.5115 110.979 95.6481 114.686L95.7818 117.048C94.4333 116.51 93.2867 116.911 92.3451 117.654C91.5342 118.328 90.7945 119.273 90.254 120.083C90.1886 120.149 90.1886 120.149 90.1886 120.217C90.1203 120.217 90.1203 120.282 90.1203 120.282L90.052 120.351L89.9183 120.484C87.8272 112.797 89.244 108.886 92.2768 103.83ZM96.3878 184.197C95.0392 184.064 78.7916 182.715 77.7134 181.973L77.1729 181.23C77.3748 173.409 77.8471 165.455 79.1302 157.699C79.8727 153.452 81.2867 149.475 82.7035 145.495C83.2412 143.879 83.85 142.26 84.3905 140.507L85.4005 138.214H85.5314C85.5314 138.214 85.5996 138.214 85.5996 138.146H85.6679C87.0164 137.335 87.6224 136.798 88.0264 136.462C88.2967 136.26 88.4332 136.123 88.6324 136.055C89.3749 135.853 90.9937 136.123 92.3422 136.394C93.0165 136.527 93.5542 136.664 93.961 136.732C94.769 137.002 95.5769 137.204 96.3878 137.338C98.4105 137.745 100.502 137.54 102.12 135.99C102.726 135.452 103.065 134.775 103.267 134.103C103.469 133.361 103.469 132.55 103.401 131.742H104.817V143.54C104.277 143.808 103.739 144.012 103.267 144.283C100.735 145.587 98.4165 147.268 96.3906 149.27C94.8867 150.653 93.5317 152.19 92.3479 153.856C87.8984 159.856 84.8656 167.338 82.5043 174.957C82.5043 175.094 82.5043 175.159 82.4389 175.296C82.4389 175.364 82.3734 175.498 82.3734 175.566V175.631C82.3052 175.697 82.3052 175.833 82.3052 175.902C82.2369 176.035 82.2369 176.104 82.2369 176.24C82.1715 176.442 82.3735 176.778 82.5754 176.778C83.0506 176.846 83.52 176.912 84.0577 176.98C86.7547 177.384 89.2497 177.788 92.0805 177.924C92.1821 177.908 92.2764 177.862 92.3507 177.791C92.4162 177.791 92.4845 177.722 92.4845 177.722C93.9013 175.836 95.1815 173.813 96.3934 171.725V174.624C96.4617 177.862 96.5954 181.028 96.732 184.197H96.3878ZM115.605 185.276C115.266 185.276 114.996 185.614 115.13 185.95L116.95 190.468H113.983L115.804 172.667C115.804 172.465 115.872 172.195 115.4 172.195C114.928 172.126 114.862 172.328 114.862 172.599L113.042 190.397V190.465H110.549L112.37 176.035C112.37 175.833 112.436 175.563 111.963 175.563C111.491 175.495 111.426 175.697 111.426 175.967L109.605 190.462H97.8721C97.8721 188.573 97.8067 186.687 97.7384 184.798V184.73C97.6019 181.358 97.3999 178.055 97.3316 174.684V172.055L98.9504 167.336C99.0187 167.27 99.0187 167.202 99.0841 167.134V167.068V167.003H99.1495V166.937V166.869H99.2178V166.738H99.2861V166.67V166.602V166.536H99.3515L103.263 160.334L104.208 158.784C104.273 158.715 104.273 158.65 104.273 158.579C104.475 157.367 103.935 157.702 103.263 158.377C102.585 159.145 101.955 159.956 101.377 160.804C101.377 160.804 101.377 160.872 101.309 160.872C101.309 160.937 101.309 160.937 101.241 161.006C101.241 161.006 101.241 161.071 101.172 161.071C101.172 161.139 101.172 161.139 101.107 161.207C101.107 161.207 101.107 161.273 101.041 161.273C101.041 161.338 101.041 161.407 100.973 161.407C100.973 161.475 100.973 161.475 100.905 161.54L100.839 161.609C100.839 161.677 100.774 161.742 100.774 161.742C100.774 161.811 100.706 161.811 100.706 161.876C100.706 161.876 100.64 161.944 100.64 162.01C100.572 162.01 100.572 162.078 100.572 162.078C100.504 162.143 100.504 162.212 100.504 162.212C100.438 162.277 100.438 162.277 100.438 162.345L100.305 162.479C100.305 162.545 100.305 162.545 100.236 162.613C99.5621 163.825 99.0244 165.242 98.2818 166.456L98.2135 166.522C98.0798 166.929 97.875 167.196 97.6758 167.6V167.668H97.6076C97.2036 168.411 96.7996 169.085 96.3928 169.759C95.1125 171.984 93.8323 174.209 92.3501 176.3C92.2143 176.518 92.056 176.721 91.8778 176.906C89.0743 176.759 86.2822 176.443 83.5164 175.961H83.3173V175.893H83.249C85.4084 168.681 88.1054 162.004 92.3529 155.668C92.4184 155.6 92.4866 155.466 92.5549 155.398C93.7014 153.711 94.9845 152.095 96.3984 150.678C98.4895 148.454 100.783 146.564 103.275 145.284C103.949 144.946 104.692 144.61 105.431 144.34L105.969 144.138H106.305C106.643 144.274 106.911 144.408 107.181 144.476C110.35 145.825 112.777 148.522 115.204 151.219C116.014 152.098 116.82 152.971 117.633 153.782C117.835 156.411 117.969 158.974 118.037 161.535C118.171 164.909 118.308 168.346 118.712 171.851C119.047 174.411 119.519 176.906 119.923 179.469C120.33 181.56 120.734 183.651 121.002 185.808L115.605 185.276ZM105.761 131.27V105.247C105.829 105.179 105.895 105.11 106.031 105.045V104.98L106.1 104.914L106.165 104.846C106.572 104.507 106.908 104.172 107.175 103.97C107.175 103.901 107.175 103.901 107.243 103.901C108.927 102.419 109.735 101.677 110.344 98.1033V97.9013C109.807 96.2142 109.201 95.0022 108.458 94.3963C108.082 94.1324 107.634 93.9913 107.175 93.9923C106.839 93.9923 106.569 93.9923 106.165 94.126L106.1 94.1914H106.031C105.681 94.3453 105.344 94.526 105.021 94.732C104.953 94.7974 104.819 94.934 104.819 95.0022C104.549 95.8131 104.413 96.2825 104.481 96.823C104.546 97.2953 104.683 97.6993 105.019 98.3052C104.683 98.9795 104.344 99.6538 103.94 99.9895C103.741 100.126 103.536 100.126 103.266 99.9895C102.996 99.924 102.728 99.6538 102.458 99.2469C102.067 98.715 101.834 98.0842 101.784 97.4262C101.65 96.3479 101.852 95.2014 102.256 94.1232C102.526 93.5826 102.862 93.0449 103.266 92.5044C103.605 92.1004 103.94 91.7647 104.344 91.4944C104.817 91.0904 105.422 90.8201 106.028 90.7519V90.6836H106.228C106.566 90.7519 106.836 90.7519 107.172 90.8201C108.791 91.1558 109.937 91.7647 110.745 92.5726C111.69 93.5172 112.162 94.9311 112.498 96.7519C112.836 98.5044 112.432 100.257 111.622 101.876C110.811 103.494 109.531 105.042 108.182 106.391C108.099 106.509 108.052 106.65 108.048 106.795V143.808C107.71 143.674 107.442 143.606 107.172 143.472H107.107V143.407H106.905V143.338H106.771C106.703 143.273 106.569 143.273 106.435 143.205C106.367 143.205 106.299 143.136 106.23 143.136H105.898V143.205H105.764L105.761 131.27ZM96.3869 123.113C96.5802 123.174 96.7626 123.266 96.9274 123.384C97.2631 123.586 97.5334 123.99 97.6671 124.462C97.8008 124.934 97.7354 125.406 97.5988 125.81C97.3968 126.149 97.1266 126.416 96.7909 126.485C96.6572 126.553 96.5206 126.553 96.384 126.553C96.182 126.485 95.9801 126.419 95.7781 126.283C95.5926 126.148 95.437 125.977 95.321 125.78C95.2049 125.583 95.131 125.363 95.1038 125.136C94.9701 124.664 94.9701 124.192 95.1721 123.856C95.239 123.688 95.3394 123.536 95.4671 123.408C95.5947 123.281 95.747 123.18 95.9146 123.113H96.3869Z" fill="white"/>
<path fill-rule="evenodd" clip-rule="evenodd" d="M100.569 182.712C100.703 182.376 100.771 182.038 100.905 181.702C101.18 181.08 101.362 180.42 101.445 179.745C101.514 179.071 101.445 178.533 101.38 177.992C101.312 177.116 101.175 176.308 101.582 174.96L101.647 174.826L107.514 167.881C107.647 167.546 107.38 166.94 107.11 166.334C106.84 165.728 106.638 165.119 106.638 164.513C106.572 163.568 106.908 162.288 107.175 161.344C107.309 160.874 107.445 160.467 107.445 160.265C107.511 160.063 107.511 159.793 107.983 159.861C108.458 159.927 108.458 160.132 108.39 160.399C108.39 160.669 108.256 161.142 108.12 161.614C107.849 162.49 107.582 163.637 107.582 164.513C107.582 164.92 107.784 165.389 107.986 165.93C108.393 166.806 108.797 167.682 108.325 168.422V168.49L102.458 175.366C102.188 176.445 102.256 177.119 102.325 177.861C102.39 178.467 102.458 179.073 102.39 179.819C102.315 180.582 102.134 181.33 101.852 182.044C101.719 182.382 101.582 182.718 101.517 182.988C101.448 183.258 101.383 183.46 100.908 183.327C100.435 183.184 100.501 182.982 100.569 182.712Z" fill="white"/>
</svg>
