<svg width="500" height="500" viewBox="0 0 500 500" fill="none" xmlns="http://www.w3.org/2000/svg">
<path d="M344.714 406.072C359.066 387.096 371.846 366.982 382.928 345.929V203.786H344.785V406.072H344.714Z" fill="white"/>
<path d="M113.571 348.857C124.693 369.615 137.473 389.441 151.786 408.142V203.714H113.571V348.857Z" fill="white"/>
<path d="M268.214 203.714V241.571C278.455 245.757 287.217 252.898 293.385 262.082C299.553 271.267 302.846 282.079 302.846 293.142C302.846 304.206 299.553 315.018 293.385 324.203C287.217 333.387 278.455 340.528 268.214 344.714V477.571C279.857 471.857 292.929 462.071 306.5 449.285V203.714H268.357H268.214ZM191.786 293C191.794 281.291 195.49 269.883 202.35 260.395C209.21 250.906 218.884 243.82 230 240.142V203.714H190.929V451.571C204.857 464.428 218.286 474 230 479.142V346C218.884 342.322 209.21 335.236 202.35 325.748C195.49 316.259 191.794 304.851 191.786 293.142" fill="white"/>
<path fill-rule="evenodd" clip-rule="evenodd" d="M195.182 315.243C192.559 308.159 191.403 300.616 191.785 293.072C191.403 285.527 192.559 277.984 195.182 270.9C197.806 263.817 201.843 257.341 207.047 251.866C212.252 246.391 218.515 242.031 225.457 239.052C232.399 236.073 239.874 234.537 247.428 234.537C254.982 234.537 262.457 236.073 269.399 239.052C276.341 242.031 282.604 246.391 287.809 251.866C293.013 257.341 297.05 263.817 299.674 270.9C302.298 277.984 303.453 285.527 303.071 293.072C303.453 300.616 302.298 308.159 299.674 315.243C297.05 322.327 293.013 328.803 287.809 334.278C282.604 339.753 276.341 344.112 269.399 347.091C262.457 350.07 254.982 351.606 247.428 351.606C239.874 351.606 232.399 350.07 225.457 347.091C218.515 344.112 212.252 339.753 207.047 334.278C201.843 328.803 197.806 322.327 195.182 315.243ZM290.7 321.98C296.405 313.419 299.443 303.359 299.429 293.071C299.41 279.292 293.923 266.084 284.173 256.348C274.423 246.611 261.208 241.143 247.429 241.143C237.141 241.143 227.085 244.194 218.532 249.911C209.979 255.628 203.314 263.754 199.38 273.26C195.447 282.766 194.421 293.225 196.433 303.314C198.445 313.403 203.405 322.668 210.684 329.937C217.964 337.207 227.236 342.154 237.328 344.152C247.42 346.15 257.877 345.111 267.378 341.164C276.878 337.217 284.995 330.541 290.7 321.98Z" fill="white"/>
<path d="M258.857 341.428C254.143 338.428 250.286 333.571 249.929 331.928C262.071 327.857 264.714 318.928 264.714 312.071C264.714 307.571 263 301.357 261.5 298.786C262.929 296.643 262.929 292.643 262.929 287.071C262.929 276.5 256 269.928 253.286 267.928L253.5 267.5C255.214 264.5 258.857 258.214 264.214 258.214C273.786 258.214 283.929 271.571 283.929 296.357V297.428C283.929 306.357 284.071 329.928 258.786 341.428M286.357 297.5V296.428C286.357 275 279.071 261.643 270.643 257.357C271.014 256.746 271.499 256.213 272.071 255.786C274 254.357 277.214 252.928 280.286 252.928C279.358 252.182 278.405 251.467 277.429 250.786C274.571 251.286 272.143 252.643 270.5 253.928C269.786 254.643 268.714 255.5 268.357 256.5C267.038 256.099 265.664 255.907 264.286 255.928C257.5 255.928 253.429 263.071 251.429 266.428C251.143 266.928 250.857 267.357 250.714 267.571C249.5 269.286 246.071 270.143 240.5 270.143C234.5 270.143 232.5 268.928 232.5 265.286C232.5 259.214 240.643 245.5 252.143 241.357C250.577 241.19 249.004 241.095 247.429 241.071H246.857C236.714 247 230 259.214 230 265.214C230 265.786 230 266.286 230.143 266.786C228.214 267.857 224.071 269.928 220.857 269.928C213.286 269.928 207.5 264.214 205.857 261.928C205.286 262.643 204.786 263.357 204.429 264.071C207.071 267.357 213.357 272.357 220.857 272.357C224.429 272.357 228.571 270.428 231 269.143C233.143 272.428 237.857 272.5 240.5 272.5C246.214 272.5 249.786 271.643 251.929 269.786C254.286 271.571 260.643 277.428 260.643 286.928C260.643 292.857 260.429 297.071 258.857 298C257 299 244.286 300.643 236 300.643C214.071 300.643 197.429 292.5 195.5 291.214C195.5 291.786 195.5 292.357 195.5 292.857C195.5 293.286 195.5 293.571 195.5 294C200.786 296.857 216.714 303 236.071 303C243.429 303 256.357 301.571 259.643 300.143C260.643 302.286 262.286 307.5 262.286 311.786C262.286 317.786 259.929 325.786 248.714 329.286C246.071 327.857 239.429 325 234.429 325C230.857 325 226.929 326.428 224.714 328.143C222.286 326 215.214 320.428 210 320.428C208.071 320.428 205.571 321 204.143 321.357C204.643 322.071 205.143 322.786 205.571 323.5C207 323.214 208.714 322.786 210.071 322.786C214.357 322.786 220.786 327.786 223.286 329.928C223.191 330.155 223.143 330.398 223.143 330.643C223.143 332.428 225.143 337.071 228 340.857C229.429 341.428 231 341.928 232.5 342.428L232.714 342.143C228.929 339.286 225.786 332.571 225.571 330.714C226.286 329.786 230.286 327.357 234.571 327.357C238.857 327.357 245.143 329.786 247.571 331.214C247.786 334.071 252.929 340.071 258.286 343.357C259.5 343.214 260.714 342.928 261.857 342.643L261.429 342.857C286.643 330.428 286.429 306.571 286.429 297.357" fill="white"/>
<path d="M247.429 483.357C195.571 483.357 74.9286 335.642 74.9286 215.5C74.9286 170.857 119.929 112.214 145.429 112.214C147.786 112.214 151 112.928 151 112.928C151 112.928 161.143 104.5 175.286 104.5C202.071 104.5 216.143 130.214 216.143 139.5C216.143 144.285 214.429 143.357 214.429 146.142C214.429 147.571 216.571 149.714 218 149.714C220.143 149.714 226.286 143.714 227.643 140.928C236.571 140.928 244.929 150.928 247.357 158.642C249.857 150.785 258.214 140.928 267.143 140.928C268.571 143.785 274.786 149.785 276.786 149.785C278.214 149.785 280.357 147.642 280.357 146.214C280.357 143.357 278.714 144.285 278.714 139.5C278.714 130.214 292.714 104.5 319.429 104.5C333.714 104.5 343.857 112.928 343.857 112.928C343.857 112.928 347 112.214 349.429 112.214C374.857 112.214 420 170.928 420 215.642C420 335.642 299.286 483.5 247.429 483.5M186 27.1424C186.214 27.1424 186.714 27.2853 186.714 27.8567C186.714 29.7139 153.857 58.571 149.286 99.6424C146.857 67.4996 182.857 27.1424 186 27.1424ZM310.5 27.1424C313.714 27.1424 349.643 67.4996 347.214 99.6424C342.643 58.4996 309.929 29.6424 309.929 27.8567C309.929 27.2853 310.357 27.1424 310.643 27.1424M306.357 18.7853C300.643 18.7853 294.571 34.8567 278.786 34.8567C269.643 34.8567 264.5 28.1424 263.786 27.571C263.786 24.4282 268.071 17.9282 268.071 11.8567C268.071 10.4282 267.571 7.71387 262.5 7.71387C257.5 7.71387 254.643 11.7139 254.286 12.4282C253.786 13.1424 251.857 11.7139 247.429 11.7139C243.143 11.7139 241.143 13.1424 240.714 12.4282C240.286 11.7139 237.5 7.71387 232.5 7.71387C227.5 7.71387 226.786 10.3567 226.786 11.9996C226.786 17.9282 231.071 24.4282 231.071 27.571C230.571 28.1424 225.357 34.8567 216.214 34.8567C200.5 34.8567 194.214 18.7853 188.571 18.7853C171.071 18.7853 65 91.9996 65 207.785C65 348.142 195.571 492.071 247.429 492.071C299.286 492.071 429.929 348.142 429.929 207.785C429.929 92.071 323.786 18.8567 306.357 18.8567" fill="white"/>
<path fill-rule="evenodd" clip-rule="evenodd" d="M419 203.714H75.9288H75.8574C77.8574 191.071 82.7146 177.857 89.286 165.714H405.715C412.215 178 417 191.071 419 203.714ZM105.143 199.143L95.1426 172H102.571C102.571 172 108.357 191.786 108.571 191.786C109 191.786 115 172 115 172H121.785L111.571 199.143H105.143ZM134.143 179.357L130.714 188.429V188.5H137.428L134.143 179.357ZM148.214 199.286H141.285L141.214 199.214L139.071 193.214H128.928L126.643 199.143H120L130.714 172H137.5L148.214 199.286ZM296.428 179.286L292.912 188.429H299.643L296.428 179.286ZM310.5 199.286H303.571L303.5 199.214L301.357 193.214H291.143L288.857 199.143H282.143L293 172H299.643L310.5 199.286ZM151.785 199.143V172H158.428V193.429H173.214V199.143H151.785ZM178.785 199.143V172L200.143 172.072V177.572H185V182.786H198.143V187.429H185V193.643H200.214V199.143H178.785ZM372.214 199.143V172H393.571V177.5H378.571V182.714H391.643V187.357H378.643V199.143H372.214ZM207.643 199.143V172L214.285 171.929L225.357 190.643V172.072H231.785V199.357H225.071L213.357 181.5V199.143H207.643ZM264.643 181.786H257.643C257.643 179.143 256.071 177 251.928 177C247 177 244.428 182.143 244.428 186.429C244.428 190.714 247 195 251.714 195C256.571 195 257.428 190.929 257.428 189.286H264.571C264.571 193.929 260.714 199.286 251.143 199.286C243.071 199.286 238.071 194.286 238.071 186.429C238.071 180 242.643 172 251.643 172C258 172 264.643 176.072 264.643 181.786ZM352.214 181.786H345.214C345.214 179.143 343.785 177 339.5 177C334.571 177 332.071 182.143 332.071 186.429C332.071 190.714 334.643 195 339.428 195C344.143 195 345 190.929 345 189.286H352.285C352.285 193.929 348.357 199.286 338.714 199.286C330.643 199.286 325.643 194.286 325.643 186.429C325.643 180 330.214 172 339.214 172C345.571 172 352.214 176.072 352.214 181.786ZM277.643 199.286H271.071V172H277.643V199.286ZM365.214 199.286H358.214V192.857H365.214V199.286ZM400 199.286H393.214L393.071 192.857H400V199.286Z" fill="white"/>
</svg>
