<svg width="500" height="500" viewBox="0 0 500 500" fill="none" xmlns="http://www.w3.org/2000/svg">
<path d="M247.429 496.071C219.572 496.071 172.857 458.643 133.572 405C87.5001 341.929 61.0715 270 61.0715 207.857C61.0715 92.5 166.643 15 188.572 15C192.357 15 195.143 17.8571 198.429 21.2857C202.929 25.9286 208 31.1429 216.286 31.1429C221.143 31.1429 224.857 28.5714 227 26.5C226.64 25.6103 226.259 24.7291 225.857 23.8571C224.572 20.5 223 16.3571 223 12.0714C223 8.14286 225.429 4 232.5 4C237.286 4 240.572 6.5 242.5 8.5C243.643 8.21429 245.357 7.92857 247.5 7.92857C249.643 7.92857 251.286 8.21429 252.5 8.5C254.357 6.5 257.643 4 262.5 4C269.5 4 272 8.28571 272 12.0714C272 16.3571 270.357 20.5 269 23.8571C268.714 24.7143 268.286 25.7143 268 26.5714C270.143 28.7143 273.714 31.2143 278.714 31.2143C286.929 31.2143 292 26.0714 296.572 21.4286C299.714 18.0714 302.572 15.2143 306.357 15.2143C328.214 15.2143 433.786 92.7857 433.786 208.071C433.786 270.214 407.357 342.143 361.214 405.214C321.929 458.786 275.214 496.286 247.357 496.286M262.429 0C257.429 0 253.714 2.14286 251.214 4.28571C248.704 3.91212 246.153 3.91212 243.643 4.28571C241.214 2.14286 237.5 0 232.5 0C223.214 0 219.072 6.07143 219.072 12C219.072 17 220.929 21.7857 222.357 25.2143C220.714 26.3571 218.786 27.2143 216.286 27.2143C209.714 27.2143 205.429 22.9286 201.286 18.6429C197.714 15.0714 194.143 11.2143 188.643 11.2143C175.5 11.2143 142.572 32.7857 114.357 64.9286C88.2858 94.7143 57.2144 143.714 57.2144 208C57.143 350.357 189.286 500 247.429 500C305.714 500 437.857 350.286 437.857 207.857C437.857 143.571 406.643 94.6429 380.572 64.8571C352.429 32.7143 319.429 11.1429 306.286 11.1429C300.929 11.1429 297.214 14.9286 293.643 18.5714C289.643 22.8571 285.357 27.1429 278.786 27.1429C276.621 27.1514 274.504 26.504 272.714 25.2857C274.143 21.7143 275.929 17.0714 275.929 12C275.929 6.07143 271.786 0 262.5 0M262.5 7.85714C267.5 7.85714 268.214 10.5 268.214 12C268.214 18.0714 263.929 24.5714 263.929 27.7143C264.429 28.2857 269.643 35 278.786 35C294.5 35 300.714 18.9286 306.429 18.9286C323.857 18.9286 430 92.1429 430 207.929C430 348.286 299.286 492.214 247.429 492.214C195.572 492.214 64.9287 348.286 64.9287 207.929C64.9287 92.2143 171 19 188.5 19C194.214 19 200.357 35.0714 216.143 35.0714C225.286 35.0714 230.429 28.3571 231.143 27.7857C231.143 24.6429 226.857 18.1429 226.857 12.0714C226.714 10.6429 227.357 7.78571 232.357 7.78571C237.357 7.78571 240.214 11.9286 240.643 12.6429C240.643 12.7857 240.857 12.7857 241.072 12.7857C241.786 12.7857 243.786 11.7857 247.357 11.7857C250.929 11.7857 252.929 12.7857 253.786 12.7857C253.929 12.7857 254.072 12.7857 254.143 12.6429C254.5 11.9286 257.286 7.85714 262.286 7.85714" fill="white"/>
<path d="M75.9284 203.714H419C417 191.071 412.214 178 405.714 165.714H89.2855C82.7141 177.857 77.8569 191.071 75.8569 203.714" fill="#009AD5"/>
<path d="M419 203.714H382.857V345.857C404.786 304.214 420 258.143 420 215.571C420 205.714 417.857 195.143 414.072 184.643C416.357 191.071 418 197.5 419.072 203.643" fill="#F7DC31"/>
<path d="M344.714 406.072C359.066 387.096 371.846 366.982 382.928 345.929V203.786H344.785V406.072H344.714Z" fill="#E8302A"/>
<path d="M306.429 449.285C319.143 437.285 332.143 422.642 344.714 406.071V203.714H306.429V449.285ZM151.786 408.142C164.643 424.857 178 439.571 190.857 451.571V203.714H151.786V408.142Z" fill="#F7DC31"/>
<path d="M113.571 348.857C124.693 369.615 137.473 389.441 151.786 408.142V203.714H113.571V348.857Z" fill="#E8302A"/>
<path d="M75.2859 227.857C77.9288 267.857 92.9288 310.285 113.572 348.857V203.714H75.7145C76.7145 197.428 78.4288 191.071 80.7145 184.714C77.8574 192.571 75.9288 200.428 75.1431 208.071V227.785L75.2859 227.857ZM247.429 237.428C254.786 237.428 261.714 238.857 268.143 241.5V203.785H230V240.214C235.628 238.387 241.512 237.471 247.429 237.5M247.429 348.928C241.504 348.911 235.62 347.946 230 346.071V479.214C236.429 482.071 242.286 483.5 247.429 483.5C253.5 483.5 260.572 481.357 268.143 477.642V344.785C261.714 347.428 254.786 348.857 247.429 348.857" fill="#F7DC31"/>
<path d="M268.214 203.714V241.571C278.455 245.757 287.217 252.898 293.385 262.082C299.553 271.267 302.846 282.079 302.846 293.142C302.846 304.206 299.553 315.018 293.385 324.203C287.217 333.387 278.455 340.528 268.214 344.714V477.571C279.857 471.857 292.929 462.071 306.5 449.285V203.714H268.357H268.214ZM191.786 293C191.794 281.291 195.49 269.883 202.35 260.395C209.21 250.906 218.884 243.82 230 240.142V203.714H190.929V451.571C204.857 464.428 218.286 474 230 479.142V346C218.884 342.322 209.21 335.236 202.35 325.748C195.49 316.259 191.794 304.851 191.786 293.142" fill="#E8302A"/>
<path d="M191.786 293.072C191.403 300.616 192.559 308.159 195.183 315.243C197.807 322.327 201.843 328.803 207.048 334.278C212.252 339.753 218.516 344.112 225.458 347.091C232.4 350.07 239.875 351.606 247.429 351.606C254.983 351.606 262.458 350.07 269.4 347.091C276.341 344.112 282.605 339.753 287.809 334.278C293.014 328.803 297.051 322.327 299.674 315.243C302.298 308.159 303.454 300.616 303.071 293.072C303.454 285.527 302.298 277.984 299.674 270.9C297.051 263.817 293.014 257.341 287.809 251.866C282.605 246.391 276.341 242.031 269.4 239.052C262.458 236.073 254.983 234.537 247.429 234.537C239.875 234.537 232.4 236.073 225.458 239.052C218.516 242.031 212.252 246.391 207.048 251.866C201.843 257.341 197.807 263.817 195.183 270.9C192.559 277.984 191.403 285.527 191.786 293.072Z" fill="#A03822"/>
<path d="M299.429 293.071C299.443 303.359 296.405 313.419 290.7 321.98C284.995 330.541 276.878 337.217 267.378 341.164C257.877 345.111 247.42 346.15 237.328 344.152C227.236 342.154 217.964 337.207 210.684 329.937C203.405 322.668 198.445 313.403 196.433 303.314C194.421 293.225 195.447 282.765 199.38 273.26C203.314 263.754 209.979 255.628 218.532 249.911C227.085 244.194 237.141 241.143 247.429 241.143C261.208 241.143 274.423 246.611 284.173 256.348C293.923 266.084 299.41 279.292 299.429 293.071Z" fill="#CE8B27"/>
<path d="M258.857 341.428C254.143 338.428 250.286 333.571 249.929 331.928C262.071 327.857 264.714 318.928 264.714 312.071C264.714 307.571 263 301.357 261.5 298.786C262.929 296.643 262.929 292.643 262.929 287.071C262.929 276.5 256 269.928 253.286 267.928L253.5 267.5C255.214 264.5 258.857 258.214 264.214 258.214C273.786 258.214 283.929 271.571 283.929 296.357V297.428C283.929 306.357 284.071 329.928 258.786 341.428M286.357 297.5V296.428C286.357 275 279.071 261.643 270.643 257.357C271.014 256.746 271.499 256.213 272.071 255.786C274 254.357 277.214 252.928 280.286 252.928C279.358 252.182 278.405 251.467 277.429 250.786C274.571 251.286 272.143 252.643 270.5 253.928C269.786 254.643 268.714 255.5 268.357 256.5C267.038 256.099 265.664 255.907 264.286 255.928C257.5 255.928 253.429 263.071 251.429 266.428C251.143 266.928 250.857 267.357 250.714 267.571C249.5 269.286 246.071 270.143 240.5 270.143C234.5 270.143 232.5 268.928 232.5 265.286C232.5 259.214 240.643 245.5 252.143 241.357C250.577 241.19 249.004 241.095 247.429 241.071H246.857C236.714 247 230 259.214 230 265.214C230 265.786 230 266.286 230.143 266.786C228.214 267.857 224.071 269.928 220.857 269.928C213.286 269.928 207.5 264.214 205.857 261.928C205.286 262.643 204.786 263.357 204.429 264.071C207.071 267.357 213.357 272.357 220.857 272.357C224.429 272.357 228.571 270.428 231 269.143C233.143 272.428 237.857 272.5 240.5 272.5C246.214 272.5 249.786 271.643 251.929 269.786C254.286 271.571 260.643 277.428 260.643 286.928C260.643 292.857 260.429 297.071 258.857 298C257 299 244.286 300.643 236 300.643C214.071 300.643 197.429 292.5 195.5 291.214C195.5 291.786 195.5 292.357 195.5 292.857C195.5 293.286 195.5 293.571 195.5 294C200.786 296.857 216.714 303 236.071 303C243.429 303 256.357 301.571 259.643 300.143C260.643 302.286 262.286 307.5 262.286 311.786C262.286 317.786 259.929 325.786 248.714 329.286C246.071 327.857 239.429 325 234.429 325C230.857 325 226.929 326.428 224.714 328.143C222.286 326 215.214 320.428 210 320.428C208.071 320.428 205.571 321 204.143 321.357C204.643 322.071 205.143 322.786 205.571 323.5C207 323.214 208.714 322.786 210.071 322.786C214.357 322.786 220.786 327.786 223.286 329.928C223.191 330.155 223.143 330.398 223.143 330.643C223.143 332.428 225.143 337.071 228 340.857C229.429 341.428 231 341.928 232.5 342.428L232.714 342.143C228.929 339.286 225.786 332.571 225.571 330.714C226.286 329.786 230.286 327.357 234.571 327.357C238.857 327.357 245.143 329.786 247.571 331.214C247.786 334.071 252.929 340.071 258.286 343.357C259.5 343.214 260.714 342.928 261.857 342.643L261.429 342.857C286.643 330.428 286.429 306.571 286.429 297.357" fill="#A03822"/>
<path d="M247.429 483.357C195.571 483.357 74.9286 335.642 74.9286 215.5C74.9286 170.857 119.929 112.214 145.429 112.214C147.786 112.214 151 112.928 151 112.928C151 112.928 161.143 104.5 175.286 104.5C202.071 104.5 216.143 130.214 216.143 139.5C216.143 144.285 214.429 143.357 214.429 146.142C214.429 147.571 216.571 149.714 218 149.714C220.143 149.714 226.286 143.714 227.643 140.928C236.571 140.928 244.929 150.928 247.357 158.642C249.857 150.785 258.214 140.928 267.143 140.928C268.571 143.785 274.786 149.785 276.786 149.785C278.214 149.785 280.357 147.642 280.357 146.214C280.357 143.357 278.714 144.285 278.714 139.5C278.714 130.214 292.714 104.5 319.429 104.5C333.714 104.5 343.857 112.928 343.857 112.928C343.857 112.928 347 112.214 349.429 112.214C374.857 112.214 420 170.928 420 215.642C420 335.642 299.286 483.5 247.429 483.5M186 27.1424C186.214 27.1424 186.714 27.2853 186.714 27.8567C186.714 29.7139 153.857 58.571 149.286 99.6424C146.857 67.4996 182.857 27.1424 186 27.1424ZM310.5 27.1424C313.714 27.1424 349.643 67.4996 347.214 99.6424C342.643 58.4996 309.929 29.6424 309.929 27.8567C309.929 27.2853 310.357 27.1424 310.643 27.1424M306.357 18.7853C300.643 18.7853 294.571 34.8567 278.786 34.8567C269.643 34.8567 264.5 28.1424 263.786 27.571C263.786 24.4282 268.071 17.9282 268.071 11.8567C268.071 10.4282 267.571 7.71387 262.5 7.71387C257.5 7.71387 254.643 11.7139 254.286 12.4282C253.786 13.1424 251.857 11.7139 247.429 11.7139C243.143 11.7139 241.143 13.1424 240.714 12.4282C240.286 11.7139 237.5 7.71387 232.5 7.71387C227.5 7.71387 226.786 10.3567 226.786 11.9996C226.786 17.9282 231.071 24.4282 231.071 27.571C230.571 28.1424 225.357 34.8567 216.214 34.8567C200.5 34.8567 194.214 18.7853 188.571 18.7853C171.071 18.7853 65 91.9996 65 207.785C65 348.142 195.571 492.071 247.429 492.071C299.286 492.071 429.929 348.142 429.929 207.785C429.929 92.071 323.786 18.8567 306.357 18.8567" fill="#232020"/>
<path d="M95.1431 172L105.143 199.143H111.572L121.786 172H115C115 172 109 191.786 108.572 191.786C108.357 191.786 102.572 172 102.572 172H95.1431ZM130.714 188.429L134.143 179.357L137.429 188.5H130.714V188.429ZM141.286 199.286H148.214L137.5 172H130.714L120 199.143H126.643L128.929 193.214H139.072L141.214 199.214L141.286 199.286ZM292.857 188.572L296.429 179.286L299.643 188.429H292.857V188.572ZM303.572 199.286H310.5L299.643 172H293L282.143 199.143H288.857L291.143 193.214H301.357L303.5 199.214L303.572 199.286ZM151.786 172V199.143H173.214V193.429H158.429V172H151.786ZM178.786 172V199.143H200.215V193.643H185V187.429H198.143V182.786H185V177.572H200.143V172.072L178.786 172ZM372.214 172V199.143H378.643V187.357H391.643V182.714H378.572V177.5H393.572V172H372.214ZM207.643 172V199.143H213.357V181.5L225.072 199.357H231.786V172.072H225.357V190.643L214.286 171.929L207.643 172ZM257.5 181.786H264.643C264.643 176.072 258 172 251.643 172C242.643 172 238.072 180 238.072 186.429C238.072 194.286 243.072 199.286 251.143 199.286C260.714 199.286 264.572 193.929 264.572 189.286H257.429C257.429 190.929 256.572 195 251.715 195C247 195 244.429 190.714 244.429 186.429C244.429 182.143 247 177 251.929 177C256.072 177 257.643 179.143 257.643 181.786M345.072 181.786H352.215C352.215 176.072 345.572 172 339.215 172C330.215 172 325.643 180 325.643 186.429C325.643 194.286 330.643 199.286 338.714 199.286C348.357 199.286 352.286 193.929 352.286 189.286H345C345 190.929 344.143 195 339.429 195C334.643 195 332.072 190.714 332.072 186.429C332.072 182.143 334.572 177 339.5 177C343.786 177 345.215 179.143 345.215 181.786M271.072 199.286H277.643V172H271.072V199.286ZM358.215 199.286H365.215V192.857H358.215V199.286ZM393.214 199.286H400V192.857H393.072L393.214 199.286Z" fill="#EEECEB"/>
</svg>
