<svg width="500" height="500" viewBox="0 0 500 500" fill="none" xmlns="http://www.w3.org/2000/svg">
<path d="M244.388 79.3296V62.4256C231.666 62.7804 219.741 64.3924 209.482 66.9439C209.482 67.1392 209.463 67.3163 209.463 67.4934C209.463 71.9056 210.509 76.2111 212.441 80.1096C216.87 80.1806 220.626 83.3701 221.406 87.7465C221.778 89.7844 221.442 91.7688 220.591 93.4876C221.141 93.5937 221.69 93.6471 222.274 93.5761C223.674 93.399 224.915 92.7076 225.783 91.5917C225.996 91.3254 226.19 91.0246 226.332 90.7232C225.588 89.7485 225.127 88.5441 225.127 87.2146C225.127 84.0075 227.732 81.4033 230.939 81.4033C234.146 81.4033 236.751 84.0075 236.751 87.2146C236.751 88.2426 236.45 89.2173 235.989 90.05C236.946 91.4322 238.558 92.3358 240.383 92.3358C240.915 92.3358 241.429 92.2115 241.925 92.052C240.95 90.5812 240.383 88.8273 240.383 86.9314C240.383 83.7953 241.96 81.0133 244.388 79.3296Z" fill="#C82E33"/>
<path d="M296.218 91.0411C295.899 92.8133 295.101 94.3726 293.967 95.6304C294.339 95.8075 294.747 95.9319 295.172 96.0028C296.82 96.286 298.432 95.7014 299.531 94.5848C299.3 93.965 299.159 93.2912 299.159 92.5828C299.159 89.3757 301.763 86.7708 304.971 86.7708C308.178 86.7708 310.782 89.3757 310.782 92.5828C310.782 94.1948 310.109 95.6656 309.046 96.7112C309.578 98.1819 310.765 99.387 312.377 99.8298C312.82 99.9541 313.264 99.9893 313.706 99.9893C313.458 99.1566 313.316 98.288 313.316 97.3668C313.316 93.5926 315.655 90.3321 318.986 88.9506C319.412 87.054 319.642 85.1054 319.642 83.1203C319.642 82.3762 319.607 81.6503 319.553 80.9412C319.518 80.9054 319.501 80.8703 319.465 80.8351C318.986 80.3566 318.49 79.8781 317.941 79.3996C317.888 79.3462 317.817 79.2934 317.746 79.24C317.25 78.8149 316.736 78.4073 316.204 77.9998C316.027 77.8761 315.85 77.7342 315.656 77.6098C315.195 77.2732 314.734 76.9542 314.237 76.6351C314.025 76.4939 313.831 76.3695 313.618 76.2276C313.086 75.891 312.555 75.572 311.987 75.2536C311.81 75.1468 311.633 75.0407 311.438 74.9346C309.897 74.0661 308.213 73.2334 306.424 72.4183C306.353 72.3831 306.282 72.3649 306.229 72.3297C305.414 71.9573 304.563 71.6031 303.695 71.2665C303.518 71.1956 303.323 71.1246 303.145 71.0536C302.366 70.7529 301.551 70.4514 300.736 70.15C300.63 70.1148 300.523 70.0797 300.399 70.0263C300.027 75.6429 298.432 81.1183 295.774 86.0267C296.359 87.6394 296.537 89.3399 296.218 91.0411Z" fill="#C82E33"/>
<path d="M286.914 80.1087C288.846 76.2101 289.891 71.9047 289.891 67.4925C289.891 67.2978 289.874 67.12 289.874 66.943C279.614 64.409 267.672 62.7795 254.967 62.4246V79.3111C257.376 80.9948 258.971 83.7761 258.971 86.948C258.971 88.8439 258.404 90.5985 257.43 92.0693C257.926 92.2288 258.44 92.3349 258.971 92.3524C258.989 92.3524 259.024 92.3524 259.042 92.3524C260.832 92.3524 262.427 91.4488 263.365 90.0666C262.888 89.2163 262.586 88.2593 262.586 87.2319C262.586 84.0248 265.191 81.4199 268.398 81.4199C271.605 81.4199 274.21 84.0248 274.21 87.2319C274.21 88.5607 273.749 89.7651 273.005 90.7398C273.165 91.0412 273.342 91.3427 273.554 91.6083C274.422 92.7066 275.663 93.4156 277.062 93.5927C277.629 93.6637 278.197 93.6103 278.728 93.5042C277.86 91.732 277.558 89.7476 277.913 87.7631C278.728 83.3692 282.484 80.1796 286.914 80.1087Z" fill="#C82E33"/>
<path d="M196.228 71.0898C196.051 71.1607 195.856 71.2317 195.678 71.302C194.792 71.6568 193.907 72.0286 193.074 72.401C193.038 72.4186 193.003 72.4362 192.95 72.4537C191.125 73.2689 189.424 74.1198 187.847 75.0235C187.74 75.0762 187.652 75.1471 187.545 75.2005C186.872 75.5905 186.234 75.9623 185.614 76.3698C185.49 76.4408 185.384 76.5118 185.26 76.6003C184.64 77.0079 184.037 77.4154 183.452 77.8406C183.4 77.8764 183.329 77.9291 183.275 77.965C181.981 78.9389 180.812 79.9318 179.82 80.9591C179.767 81.6857 179.731 82.4123 179.731 83.1565C179.731 85.1409 179.962 87.1077 180.387 89.0036C183.718 90.4034 186.057 93.6463 186.057 97.4205C186.057 98.3242 185.915 99.2103 185.667 100.043C186.111 100.043 186.553 100.007 186.996 99.8834C188.609 99.4225 189.795 98.2356 190.327 96.7649C189.264 95.7017 188.591 94.2485 188.591 92.6358C188.591 89.4287 191.196 86.8245 194.403 86.8245C197.61 86.8245 200.215 89.4287 200.215 92.6358C200.215 93.3449 200.073 94.0005 199.843 94.6385C200.941 95.7544 202.536 96.3215 204.201 96.0559C204.627 95.9849 205.017 95.8436 205.389 95.6841C204.255 94.4256 203.44 92.8663 203.138 91.0948C202.802 89.3402 202.979 87.6397 203.599 86.0621C200.941 81.1545 199.347 75.6966 198.974 70.0617C198.868 70.0976 198.744 70.1503 198.637 70.1861C197.805 70.4869 197.007 70.7883 196.228 71.0898Z" fill="#C82E33"/>
<path d="M193.357 108.105C193.428 108.14 193.481 108.158 193.552 108.193C209.251 104.632 228.76 102.116 249.793 102.116C270.808 102.116 290.122 104.632 305.785 108.193C306.618 107.822 307.451 107.449 308.249 107.059C305.98 106.032 304.102 104.402 302.773 102.417C300.771 103.622 298.432 104.313 296.004 104.313C295.278 104.313 294.552 104.26 293.807 104.136C290.547 103.586 287.677 101.868 285.639 99.2804C283.389 100.911 280.642 101.868 277.736 101.868C277.187 101.868 276.637 101.833 276.088 101.762C272.828 101.372 269.904 99.8299 267.725 97.4027C265.368 99.3872 262.356 100.592 259.042 100.592C258.971 100.592 258.918 100.592 258.847 100.592C255.374 100.539 252.15 99.1918 249.668 96.7823C247.188 99.1918 243.946 100.539 240.49 100.592C240.42 100.592 240.366 100.592 240.295 100.592C236.999 100.592 233.969 99.3872 231.613 97.4027C229.434 99.8123 226.51 101.354 223.249 101.762C222.7 101.833 222.151 101.868 221.601 101.868C218.678 101.868 215.931 100.911 213.699 99.2804C211.661 101.868 208.79 103.586 205.53 104.136C204.786 104.26 204.059 104.313 203.333 104.313C200.888 104.313 198.566 103.622 196.564 102.435C195.235 104.419 193.357 106.049 191.071 107.095C191.106 107.113 191.142 107.13 191.196 107.148C191.904 107.467 192.631 107.786 193.357 108.105Z" fill="#C82E33"/>
<path d="M382.616 139.008C365.162 129.351 308.018 121.678 249.668 121.164C191.319 121.678 134.174 129.351 116.757 138.99C113.39 140.797 110.785 142.215 110.289 150.171C104.814 228.49 113.266 296.017 136.071 355.395L386.709 142.055C385.592 140.62 384.192 139.858 382.616 139.008Z" fill="#C82E33"/>
<path d="M108.961 212.718C109.386 226.539 110.326 240.006 111.778 253.118C150.371 252.356 198.709 248.227 255.517 237.118C197.061 235.824 147.872 225.405 108.961 212.718Z" fill="#ECCA35"/>
<path d="M344.289 161.492C274.528 153.004 219.776 138.617 180.316 125.133C150.689 128.392 126.945 133.337 116.757 138.971C113.39 140.778 110.785 142.196 110.289 150.152C110.289 150.205 110.289 150.258 110.271 150.312C142.042 158.072 223.037 172.921 344.289 161.492Z" fill="#ECCA35"/>
<path d="M208.525 276.951C172.537 273.709 140.501 267.17 112.469 258.984C113.798 269.81 115.499 280.389 117.537 290.755C144.665 289.284 175.053 285.138 208.525 276.951Z" fill="#ECCA35"/>
<path d="M118.688 296.354C120.442 304.647 122.444 312.797 124.659 320.807C137.967 319.176 151.983 316.519 166.743 312.62C151.983 310.689 135.593 304.735 118.688 296.354Z" fill="#ECCA35"/>
<path d="M109.882 156.584C108.837 173.718 108.482 190.339 108.801 206.446C151.416 210.751 215.329 212.541 297.298 201.466C212.955 194.645 150.246 174.268 109.882 156.584Z" fill="#ECCA35"/>
<path d="M249.669 117.053C268.345 117.213 286.808 118.116 303.925 119.552L305.467 111.737C292.655 108.796 273.43 105.642 249.793 105.642C230.763 105.642 211.059 107.803 193.871 111.737L195.413 119.552C212.53 118.099 230.993 117.213 249.669 117.053Z" fill="#ECCA35"/>
<path d="M363.284 355.359V161.99L316.293 202V439.136C302.826 455.739 288.19 469.258 273.235 478.791V418.12C275.486 416.597 277.612 414.861 279.579 412.894C287.57 404.902 291.964 394.271 291.964 382.983C291.964 371.678 287.57 361.065 279.579 353.073C277.612 351.106 275.486 349.352 273.235 347.847V238.661L226.244 278.67V347.758C223.941 349.299 221.761 351.071 219.759 353.091C211.767 361.083 207.373 371.714 207.373 383.001C207.373 394.306 211.767 404.92 219.759 412.911C221.761 414.913 223.941 416.703 226.244 418.245V478.88C211.289 469.365 196.653 455.88 183.169 439.295V315.331L136.071 355.395C113.267 296.018 104.815 228.49 110.289 150.171C110.785 142.215 113.408 140.798 116.757 138.99C134.175 129.351 191.302 121.679 249.668 121.164C308.018 121.679 365.162 129.351 382.616 139.008C385.929 140.798 388.551 142.215 389.048 150.206C394.523 228.49 386.071 295.982 363.284 355.359ZM249.668 344.692C270.773 344.692 287.942 361.863 287.942 382.966C287.942 404.069 270.773 421.239 249.668 421.239C228.565 421.239 211.395 404.069 211.395 382.966C211.378 361.862 228.548 344.692 249.668 344.692ZM305.467 111.738L303.925 119.552C286.826 118.099 268.345 117.213 249.668 117.054C230.993 117.213 212.53 118.117 195.413 119.552L193.871 111.738C211.059 107.804 230.762 105.643 249.793 105.643C273.43 105.643 292.655 108.796 305.467 111.738ZM191.089 107.078C193.375 106.05 195.253 104.42 196.582 102.418C198.585 103.622 200.923 104.296 203.351 104.296C204.078 104.296 204.803 104.243 205.548 104.118C208.808 103.57 211.679 101.851 213.716 99.2635C215.967 100.894 218.713 101.851 221.619 101.851C222.168 101.851 222.718 101.815 223.267 101.745C226.527 101.355 229.451 99.813 231.63 97.3852C233.987 99.3703 237 100.575 240.313 100.575C240.384 100.575 240.437 100.575 240.508 100.575C243.981 100.522 247.206 99.175 249.687 96.7654C252.167 99.175 255.409 100.522 258.865 100.575C258.936 100.575 258.989 100.575 259.06 100.575C262.356 100.575 265.386 99.3703 267.742 97.3852C269.922 99.7955 272.845 101.337 276.106 101.745C276.655 101.815 277.204 101.851 277.754 101.851C280.677 101.851 283.424 100.894 285.656 99.2635C287.694 101.851 290.565 103.57 293.825 104.118C294.569 104.243 295.296 104.296 296.022 104.296C298.467 104.296 300.789 103.605 302.791 102.4C304.12 104.385 305.998 106.015 308.266 107.042C307.469 107.432 306.654 107.804 305.803 108.177C290.14 104.615 270.843 102.099 249.81 102.099C228.778 102.099 209.269 104.615 193.57 108.177C192.702 107.84 191.886 107.45 191.089 107.078ZM186.978 99.8482C186.535 99.9725 186.092 100.008 185.649 100.008C185.897 99.175 186.039 98.3071 186.039 97.3852C186.039 93.611 183.7 90.3688 180.369 88.969C179.943 87.0731 179.714 85.1239 179.714 83.1212C179.714 82.377 179.749 81.6511 179.802 80.9245C183.842 76.778 190.487 73.0396 198.956 70.0271C199.329 75.6438 200.923 81.1192 203.581 86.0275C202.978 87.6044 202.801 89.3056 203.103 91.0068C203.422 92.7783 204.219 94.3376 205.353 95.5961C204.981 95.755 204.574 95.8969 204.166 95.9679C202.5 96.2517 200.906 95.6664 199.807 94.5505C200.037 93.9301 200.179 93.2569 200.179 92.5479C200.179 89.3408 197.574 86.7365 194.367 86.7365C191.16 86.7365 188.555 89.3408 188.555 92.5479C188.555 94.1606 189.229 95.6313 190.292 96.6769C189.778 98.2004 188.591 99.4055 186.978 99.8482ZM200.197 57.4819C199.452 60.299 199.027 63.2405 198.921 66.253C191.585 68.7693 185.472 71.8345 180.936 75.3248C183.7 66.4476 191.036 59.5725 200.197 57.4819ZM209.464 66.9437C219.723 64.4098 231.666 62.7802 244.371 62.4254V79.3294C241.961 81.0131 240.366 83.7951 240.366 86.9664C240.366 88.8622 240.933 90.6169 241.908 92.0876C241.412 92.2471 240.897 92.3532 240.366 92.3708C238.541 92.3708 236.929 91.4671 235.972 90.0849C236.45 89.2346 236.734 88.2776 236.734 87.2502C236.734 84.0431 234.129 81.4382 230.922 81.4382C227.715 81.4382 225.11 84.0431 225.11 87.2502C225.11 88.579 225.571 89.7841 226.315 90.7588C226.156 91.0596 225.978 91.361 225.766 91.6266C224.897 92.7256 223.657 93.434 222.257 93.6111C221.672 93.682 221.123 93.6293 220.574 93.5225C221.424 91.8037 221.761 89.8017 221.389 87.7815C220.592 83.4051 216.835 80.2155 212.423 80.1446C210.492 76.2467 209.446 71.9406 209.446 67.5284C209.464 67.3161 209.464 67.139 209.464 66.9437ZM237.85 39.1247C238.328 39.1247 238.807 39.1423 239.285 39.1605C240.526 41.1274 242.28 42.7042 244.388 43.714V58.8992C231.719 59.2358 219.989 60.7242 209.8 63.1344C211.892 49.5436 223.674 39.1247 237.85 39.1247ZM254.967 62.4254C267.689 62.7802 279.614 64.3922 289.874 66.9437C289.874 67.1208 289.891 67.3161 289.891 67.4932C289.891 71.9054 288.846 76.2109 286.914 80.1094C282.484 80.1804 278.728 83.3699 277.931 87.7463C277.577 89.7308 277.877 91.7152 278.746 93.4874C278.214 93.5935 277.647 93.6469 277.081 93.5759C275.681 93.3988 274.44 92.7074 273.572 91.5915C273.359 91.3252 273.164 91.0244 273.023 90.723C273.767 89.7483 274.228 88.5439 274.228 87.2144C274.228 84.0073 271.623 81.4031 268.416 81.4031C265.209 81.4031 262.604 84.0073 262.604 87.2144C262.604 88.26 262.905 89.2171 263.384 90.0498C262.427 91.432 260.85 92.3356 259.06 92.3356C259.042 92.3356 259.007 92.3356 258.989 92.3356C258.458 92.3356 257.943 92.2113 257.447 92.0518C258.422 90.581 258.989 88.8271 258.989 86.9312C258.989 83.7768 257.395 80.9773 254.984 79.2943V62.4254H254.967ZM254.967 43.714C257.057 42.7042 258.83 41.1274 260.07 39.1605C260.548 39.1423 261.027 39.1247 261.505 39.1247C275.681 39.1247 287.446 49.5611 289.555 63.152C279.366 60.7424 267.618 59.2359 254.967 58.9168V43.714ZM296.217 91.042C296.519 89.3408 296.341 87.6402 295.739 86.0627C298.396 81.1368 299.991 75.6796 300.363 70.0623C308.833 73.0747 315.478 76.7955 319.518 80.9421C319.571 81.6687 319.606 82.3953 319.606 83.1394C319.606 85.1239 319.393 87.0731 318.951 88.969C315.619 90.3688 313.281 93.611 313.281 97.3852C313.281 98.2889 313.423 99.175 313.671 100.008C313.227 100.008 312.785 99.9725 312.341 99.8482C310.729 99.3879 309.542 98.2003 309.01 96.7296C310.074 95.6664 310.747 94.2139 310.747 92.6012C310.747 89.3941 308.142 86.7893 304.935 86.7893C301.728 86.7893 299.123 89.3941 299.123 92.6012C299.123 93.3103 299.265 93.9659 299.495 94.6032C298.396 95.7198 296.802 96.2869 295.136 96.0213C294.711 95.9503 294.321 95.8084 293.931 95.6489C295.101 94.3735 295.898 92.8142 296.217 91.042ZM318.401 75.3248C313.848 71.852 307.734 68.7869 300.416 66.253C300.328 63.2405 299.903 60.299 299.14 57.4819C308.301 59.5725 315.638 66.4476 318.401 75.3248ZM393.141 149.923C392.556 140.354 388.906 137.732 384.565 135.393C372.622 128.784 343.261 123.096 307.451 119.871L309.294 110.533C310.818 109.807 312.271 109.063 313.635 108.265C313.671 108.265 313.706 108.265 313.741 108.265C315.974 108.265 318.189 107.698 320.191 106.564C320.333 106.493 320.457 106.404 320.581 106.316C321.237 106.458 321.892 106.546 322.583 106.546C327.704 106.546 331.868 102.435 331.868 97.4035C331.868 94.9757 330.894 92.7608 329.316 91.1129C329.883 88.5256 330.185 85.8505 330.185 83.1394C330.185 63.081 314.078 46.7089 294.126 46.2655C287.162 35.5985 275.131 28.5463 261.487 28.5463C261.399 28.5463 261.31 28.5463 261.221 28.5463C259.981 25.0736 257.235 22.3267 253.78 21.0865V18.0564H258.191V9.83492H253.78V5.56459H245.558V9.83492H241.27V18.0564H245.558V21.0865C242.085 22.3267 239.338 25.0736 238.098 28.5463C238.009 28.5463 237.921 28.5463 237.832 28.5463C224.189 28.5463 212.157 35.6161 205.193 46.2655C185.242 46.7089 169.135 63.081 169.135 83.1394C169.135 85.8505 169.436 88.508 170.003 91.1129C168.426 92.7608 167.434 94.9581 167.434 97.4035C167.434 102.453 171.598 106.546 176.719 106.546C177.41 106.546 178.083 106.458 178.739 106.316C180.777 107.556 183.151 108.265 185.614 108.265C185.649 108.265 185.667 108.265 185.703 108.265C187.067 109.063 188.502 109.824 190.026 110.551L191.869 119.871C156.058 123.096 126.697 128.784 114.755 135.393C110.396 137.749 106.763 140.354 106.179 149.923C97.8151 269.403 123.632 343.753 146.898 390.159C173.122 442.484 210.917 481.308 248.056 494.136C249.474 494.597 249.917 494.579 251.494 494.047C288.563 481.13 326.251 442.378 352.422 390.142C375.688 343.753 401.504 269.403 393.141 149.923Z" fill="#5B268A"/>
<path d="M318.402 75.3242C313.848 71.8515 307.735 68.7863 300.417 66.2524C300.328 63.24 299.903 60.2985 299.141 57.4814C308.302 59.5719 315.638 66.4471 318.402 75.3242Z" fill="white"/>
<path d="M254.967 43.7144C257.057 42.7046 258.83 41.1278 260.07 39.1609C260.548 39.1427 261.027 39.1251 261.505 39.1251C275.681 39.1251 287.446 49.5615 289.555 63.1523C279.366 60.7428 267.618 59.2362 254.967 58.9172V43.7144Z" fill="white"/>
<path d="M237.85 39.1241C238.328 39.1241 238.807 39.1417 239.285 39.1599C240.526 41.1268 242.28 42.7036 244.388 43.7134V58.8986C231.719 59.2352 219.989 60.7236 209.8 63.1338C211.892 49.5429 223.674 39.1241 237.85 39.1241Z" fill="white"/>
<path d="M200.196 57.4814C199.452 60.2985 199.027 63.24 198.921 66.2524C191.585 68.7688 185.472 71.8339 180.936 75.3242C183.7 66.4471 191.036 59.5719 200.196 57.4814Z" fill="white"/>
<path d="M226.227 478.861C211.271 469.346 196.635 455.861 183.151 439.276V315.313L226.227 278.652V347.739C223.923 349.281 221.743 351.053 219.741 353.072C211.75 361.064 207.356 371.695 207.356 382.983C207.356 394.288 211.75 404.901 219.741 412.893C221.743 414.895 223.923 416.685 226.227 418.226V478.861Z" fill="white"/>
<path d="M386.709 142.036C387.949 143.613 388.8 146.005 389.048 150.205C394.523 228.488 386.089 295.98 363.284 355.357V161.988L386.709 142.036Z" fill="white"/>
<path d="M316.294 201.98V439.117C302.826 455.72 288.191 469.239 273.236 478.772V418.119C275.486 416.596 277.612 414.859 279.579 412.893C287.57 404.901 291.965 394.27 291.965 382.982C291.965 371.677 287.57 361.064 279.579 353.072C277.612 351.105 275.486 349.351 273.236 347.845V238.66L316.294 201.98Z" fill="white"/>
<path d="M239.48 387.006H232.445V372.813H235.617L239.48 387.006ZM225.075 365.424C226.935 362.819 229.203 360.533 231.772 358.637L234.536 368.79H228.441V404.459C229.682 405.682 231.028 406.816 232.463 407.808V391.046L254.577 391.028L249.668 409.084L245.859 395.068H241.677L247.684 417.164C248.34 417.199 248.995 417.217 249.668 417.217C250.342 417.217 250.998 417.199 251.653 417.164L258.758 391.01H261.469L268.38 406.674C269.496 405.788 270.542 404.831 271.517 403.821L265.439 390.036C269.302 388.282 271.977 384.401 271.977 379.9C271.977 375.099 268.912 370.988 264.624 369.429L267.565 358.62C270.134 360.516 272.403 362.819 274.263 365.406L277.151 362.518C273.979 358.265 269.85 354.774 265.102 352.365L260.637 368.755H242.882L243.981 372.778H259.521L256.756 382.93H260.938L263.561 373.309C266.13 374.372 267.955 376.906 267.955 379.865C267.955 383.781 264.765 386.952 260.867 386.952H243.679L234.271 352.347C229.504 354.757 225.375 358.247 222.222 362.5L225.075 365.424Z" fill="#542C84"/>
<path d="M232.445 372.812V387.005H239.48L235.617 372.812H232.445Z" fill="white"/>
<path d="M274.245 365.423C272.385 362.818 270.117 360.532 267.547 358.636L264.606 369.445C268.894 370.987 271.959 375.098 271.959 379.918C271.959 384.418 269.266 388.299 265.421 390.053L271.499 403.838C270.525 404.866 269.479 405.823 268.362 406.691L261.452 391.027H258.741L251.635 417.181C250.98 417.216 250.324 417.234 249.651 417.234C248.978 417.234 248.322 417.216 247.667 417.181L241.66 395.085H245.842L249.651 409.101L254.559 391.045L232.445 391.063V407.825C231.011 406.833 229.664 405.699 228.423 404.476V368.807H234.519L231.755 358.654C229.186 360.551 226.917 362.854 225.057 365.441L222.169 362.553C225.34 358.3 229.469 354.81 234.218 352.399L243.627 387.005H260.814C264.73 387.005 267.902 383.815 267.902 379.918C267.902 376.959 266.095 374.425 263.507 373.361L260.885 382.983H256.703L259.468 372.83H243.928L242.829 368.807H260.566L265.032 352.417C269.798 354.827 273.926 358.317 277.081 362.57L274.245 365.423ZM249.669 344.691C228.565 344.691 211.396 361.862 211.396 382.965C211.396 404.069 228.565 421.238 249.669 421.238C270.773 421.238 287.942 404.069 287.942 382.965C287.942 361.861 270.773 344.691 249.669 344.691Z" fill="white"/>
<path d="M321.857 91.8564C319.022 92.2106 316.825 94.5499 316.825 97.4028C316.825 99.0507 317.569 100.521 318.738 101.549C318.42 101.797 318.101 102.01 317.746 102.222C315.833 103.303 313.618 103.569 311.509 102.966C307.806 101.921 305.414 98.5011 305.52 94.8155C306.512 94.5674 307.256 93.6813 307.256 92.6006C307.256 91.3428 306.229 90.3147 304.971 90.3147C303.712 90.3147 302.685 91.3428 302.685 92.6006C302.685 93.3096 303.022 93.947 303.535 94.3728C302.065 97.757 298.45 99.8475 294.658 99.2101C292.497 98.8553 290.6 97.6684 289.325 95.8787C289.112 95.5772 288.917 95.2582 288.74 94.9216C290.76 94.3194 292.372 92.654 292.78 90.4391C293.063 88.8264 292.656 87.2496 291.752 86.0093C295.137 80.4805 296.962 74.0839 296.962 67.5101C296.962 62.4605 295.898 57.6583 293.985 53.3171C310.145 53.6712 323.168 66.9079 323.168 83.1563C323.15 86.133 322.708 89.0569 321.857 91.8564ZM287.074 83.6349C284.345 83.6349 281.9 85.5842 281.404 88.3837C280.979 90.7047 282.024 92.9548 283.885 94.195C282.095 96.0916 279.473 97.1365 276.691 96.7999C274.44 96.5167 272.438 95.3826 271.038 93.6104C270.064 92.3526 269.497 90.8994 269.32 89.3584C270.135 89.0035 270.719 88.1884 270.719 87.2496C270.719 85.991 269.691 84.9637 268.434 84.9637C267.176 84.9637 266.148 85.991 266.148 87.2496C266.148 88.0998 266.609 88.8264 267.282 89.2164C266.343 92.9372 262.958 95.684 258.954 95.6131C256.686 95.5772 254.56 94.6736 252.983 93.0433C252.717 92.7601 252.469 92.4587 252.239 92.1579C254.152 91.2184 255.463 89.2691 255.463 87.0015C255.463 84.4318 253.78 82.2878 251.459 81.5437V40.6123C254.028 40.0452 256.154 38.2562 257.182 35.8993C258.617 35.704 260.053 35.5979 261.523 35.5979C279.118 35.5979 293.435 49.9153 293.435 67.5101C293.435 73.3397 291.823 79.0098 288.864 83.9357C288.616 83.8654 288.385 83.7762 288.12 83.7234C287.748 83.6525 287.411 83.6349 287.074 83.6349ZM247.915 81.491C245.594 82.2351 243.91 84.3966 243.91 86.9481C243.91 89.2164 245.239 91.1657 247.135 92.1045C246.905 92.4235 246.657 92.725 246.391 92.9906C244.814 94.6208 242.687 95.5245 240.42 95.5597C236.45 95.6306 233.031 92.8845 232.092 89.163C232.765 88.773 233.226 88.0289 233.226 87.1962C233.226 85.9383 232.198 84.9103 230.94 84.9103C229.682 84.9103 228.654 85.9383 228.654 87.1962C228.654 88.1532 229.239 88.9684 230.071 89.305C229.894 90.8467 229.31 92.2992 228.335 93.5577C226.935 95.3474 224.933 96.4809 222.682 96.7472C219.9 97.0838 217.279 96.0382 215.489 94.1423C217.331 92.902 218.377 90.6513 217.952 88.3303C217.456 85.5484 215.028 83.5815 212.282 83.5815C211.945 83.5815 211.59 83.6173 211.254 83.67C211.006 83.7234 210.758 83.812 210.51 83.8829C207.551 78.957 205.938 73.2687 205.938 67.4574C205.938 49.8619 220.255 35.5445 237.85 35.5445C239.321 35.5445 240.774 35.6513 242.209 35.8459C243.237 38.2028 245.327 39.9926 247.915 40.5596V81.491ZM210.049 95.8611C208.773 97.6509 206.877 98.8377 204.715 99.1919C200.923 99.8299 197.291 97.7394 195.82 94.3545C196.334 93.9294 196.671 93.3096 196.671 92.583C196.671 91.3245 195.643 90.2972 194.385 90.2972C193.127 90.2972 192.1 91.3245 192.1 92.583C192.1 93.6638 192.844 94.5499 193.836 94.7979C193.942 98.4836 191.55 101.903 187.847 102.949C185.26 103.675 182.602 103.055 180.618 101.531C181.769 100.503 182.513 99.0324 182.513 97.3846C182.513 94.5323 180.316 92.193 177.499 91.8389C176.648 89.0393 176.205 86.133 176.205 83.1205C176.205 66.8903 189.247 53.6361 205.389 53.2819C203.475 57.6232 202.412 62.4247 202.412 67.475C202.412 74.0311 204.237 80.4278 207.622 85.9559C206.718 87.1786 206.293 88.7554 206.576 90.3857C206.983 92.6006 208.596 94.266 210.616 94.8689C210.456 95.2406 210.262 95.5597 210.049 95.8611ZM325.348 92.4945C326.234 89.482 326.677 86.3635 326.677 83.1388C326.677 64.7457 311.704 49.7734 293.311 49.7734H292.178C286.047 39.195 274.6 32.0718 261.523 32.0718C260.283 32.0718 259.06 32.1427 257.838 32.2671C257.643 28.2448 254.577 25.0019 250.626 24.541V14.9555H255.339V13.0589H250.626V8.82444H248.748V13.0589H244.035V14.9372H248.748V24.5234C244.814 24.9843 241.731 28.2266 241.536 32.2489C240.313 32.1252 239.09 32.0542 237.85 32.0542C224.774 32.0542 213.327 39.1774 207.196 49.7558H206.062C187.652 49.7734 172.679 64.7457 172.679 83.1388C172.679 86.3459 173.122 89.4645 174.008 92.4769C172.218 93.4333 170.978 95.2582 170.978 97.3846C170.978 100.486 173.565 103.002 176.737 103.002C177.552 103.002 178.332 102.825 179.04 102.523C180.847 104.1 183.187 105.004 185.632 105.004C186.518 105.004 187.422 104.88 188.325 104.632C192.029 103.587 194.651 100.574 195.395 97.048C197.255 99.5109 200.179 101.035 203.351 101.035C203.9 101.035 204.45 100.982 204.999 100.893C207.622 100.45 209.925 99.0148 211.467 96.8357C211.856 96.2862 212.193 95.7016 212.459 95.0987C212.725 95.0811 212.99 95.0811 213.274 95.0284C213.451 94.9926 213.593 94.9399 213.77 94.8865C215.666 97.1548 218.519 98.5721 221.619 98.5721C222.027 98.5721 222.453 98.5545 222.878 98.5011C225.589 98.1646 228.016 96.7999 229.717 94.6384C230.39 93.7882 230.905 92.8487 231.259 91.8564C232.995 95.0987 236.398 97.3143 240.313 97.3143C240.366 97.3143 240.42 97.3143 240.455 97.3143C243.202 97.2785 245.753 96.1801 247.667 94.2133C248.145 93.7172 248.57 93.1853 248.925 92.6182C249.173 92.654 249.421 92.6891 249.669 92.6891C249.917 92.6891 250.165 92.654 250.413 92.6182C250.785 93.1853 251.193 93.7172 251.671 94.2133C253.585 96.1801 256.136 97.2785 258.883 97.3143C258.936 97.3143 258.989 97.3143 259.024 97.3143C262.941 97.3143 266.343 95.0987 268.079 91.8564C268.451 92.8487 268.965 93.7882 269.621 94.6384C271.304 96.7999 273.732 98.1646 276.46 98.5011C276.886 98.5545 277.293 98.5721 277.718 98.5721C280.819 98.5721 283.655 97.1548 285.568 94.8865C285.728 94.9399 285.887 94.9926 286.047 95.0284C286.312 95.0811 286.596 95.0987 286.862 95.0987C287.127 95.7016 287.464 96.2862 287.854 96.8357C289.396 99.0148 291.699 100.45 294.322 100.893C294.87 100.982 295.437 101.035 295.969 101.035C299.141 101.035 302.082 99.4934 303.925 97.048C304.669 100.574 307.292 103.587 310.995 104.632C311.899 104.88 312.803 105.004 313.706 105.004C315.39 105.004 317.073 104.579 318.579 103.728C319.199 103.392 319.749 102.984 320.28 102.523C320.989 102.825 321.751 102.984 322.566 102.984C325.755 102.984 328.324 100.468 328.324 97.367C328.36 95.2764 327.137 93.4509 325.348 92.4945Z" fill="#ECCA35"/>
<path d="M259.343 -2.56654e-05H239.994V4.27024H235.706V9.83421V18.0557V21.5467C235.316 22.0428 234.944 22.5741 234.59 23.106C221.726 24.0272 209.942 30.4949 202.182 40.8786C180.652 42.8454 163.589 61.2196 163.589 83.1387C163.589 85.3354 163.766 87.5327 164.103 89.6949C162.668 91.9983 161.888 94.6384 161.888 97.4028C161.888 105.518 168.551 112.11 176.736 112.11C177.073 112.11 177.392 112.092 177.729 112.074C179.749 113.013 181.929 113.598 184.161 113.775C184.48 113.952 184.799 114.13 185.118 114.289L185.242 114.909C150.299 118.4 123.809 124.034 112.079 130.519C106.976 133.284 101.395 137.289 100.633 149.568C94.0058 244.436 107.507 323.96 141.936 392.64C168.78 446.187 207.763 486.091 246.249 499.38L246.302 499.398L246.355 499.415C247.312 499.717 248.375 500 249.633 500C251.016 500 252.167 499.663 253.213 499.309L253.266 499.292L253.319 499.274C291.716 485.895 330.627 446.027 357.383 392.622C391.812 323.942 405.314 244.419 398.67 149.515C397.925 137.27 392.344 133.266 387.187 130.484C375.511 124.017 349.038 118.382 314.078 114.891L314.202 114.253C314.539 114.076 314.84 113.917 315.159 113.74C317.392 113.562 319.571 112.996 321.608 112.039C321.927 112.056 322.246 112.074 322.565 112.074C330.752 112.074 337.414 105.482 337.414 97.3669C337.414 94.6208 336.652 91.9801 335.217 89.6766C335.553 87.4976 335.731 85.3002 335.731 83.1029C335.731 61.1844 318.667 42.8096 297.121 40.8427C289.36 30.459 277.577 23.9921 264.695 23.0701C264.393 22.5916 264.057 22.1313 263.72 21.6704V18.0557V9.83421V4.27024H259.308V-2.56654e-05H259.343ZM253.779 5.56387V9.83421H258.191V18.0557H253.779V21.0858C257.253 22.326 259.999 25.0729 261.221 28.5456C261.31 28.5456 261.399 28.5456 261.487 28.5456C275.131 28.5456 287.162 35.6154 294.126 46.2648C314.078 46.7082 330.185 63.0803 330.185 83.1387C330.185 85.8497 329.883 88.5249 329.316 91.1122C330.894 92.7601 331.868 94.9574 331.868 97.4028C331.868 102.452 327.704 106.546 322.583 106.546C321.892 106.546 321.219 106.457 320.563 106.315C320.422 106.404 320.297 106.492 320.173 106.563C318.171 107.68 315.957 108.264 313.723 108.264C313.688 108.264 313.652 108.264 313.617 108.264C312.271 109.044 310.8 109.806 309.276 110.533L307.434 119.87C343.244 123.095 372.604 128.783 384.547 135.393C388.906 137.749 392.539 140.354 393.123 149.922C401.487 269.402 375.67 343.753 352.405 390.159C326.234 442.377 288.544 481.147 251.476 494.064C250.643 494.33 250.129 494.472 249.616 494.472C249.155 494.472 248.712 494.366 248.039 494.153C210.899 481.324 173.104 442.502 146.879 390.177C123.65 343.753 97.8327 269.402 106.196 149.922C106.781 140.354 110.431 137.731 114.773 135.393C126.716 128.783 156.076 123.095 191.886 119.87L190.044 110.55C188.52 109.824 187.084 109.044 185.72 108.264C185.684 108.264 185.667 108.264 185.632 108.264C183.169 108.264 180.794 107.574 178.757 106.315C178.101 106.457 177.428 106.546 176.736 106.546C171.616 106.546 167.452 102.435 167.452 97.4028C167.452 94.9574 168.426 92.7601 170.021 91.1122C169.454 88.5249 169.153 85.8673 169.153 83.1387C169.153 63.0803 185.259 46.7082 205.211 46.2648C212.175 35.5978 224.206 28.5456 237.85 28.5456C237.938 28.5456 238.027 28.5456 238.116 28.5456C239.356 25.0729 242.103 22.326 245.575 21.0858V18.0557H241.287V9.83421H245.575V5.56387H253.779Z" fill="white"/>
</svg>
