<svg width="500" height="500" viewBox="0 0 500 500" fill="none" xmlns="http://www.w3.org/2000/svg">
<path fill-rule="evenodd" clip-rule="evenodd" d="M249.669 121.164C308.018 121.678 365.162 129.35 382.616 139.008C384.193 139.858 385.593 140.62 386.709 142.055L136.072 355.395C131.758 344.162 127.957 332.639 124.668 320.806C137.973 319.175 151.986 316.518 166.743 312.62C151.984 310.689 135.594 304.736 118.691 296.356C118.297 294.496 117.914 292.629 117.543 290.754C144.669 289.283 175.056 285.137 208.525 276.951C172.537 273.709 140.501 267.17 112.469 258.984C113.4 266.574 114.515 274.043 115.801 281.402C108.78 241.278 106.971 197.778 110.28 150.314C142.056 158.075 223.047 172.92 344.289 161.492C274.539 153.006 219.793 138.621 180.334 125.139C201.396 122.827 225.429 121.378 249.669 121.164ZM110.289 150.18L110.289 150.152C110.785 142.196 113.39 140.778 116.757 138.971C126.945 133.337 150.689 128.392 180.316 125.133L180.334 125.139C150.696 128.392 126.939 133.355 116.757 138.99C113.391 140.797 110.786 142.215 110.29 150.171L110.289 150.18ZM110.289 150.18L110.283 150.263C110.288 150.235 110.289 150.207 110.289 150.18ZM110.283 150.263C110.281 150.279 110.277 150.295 110.271 150.312L110.28 150.314L110.283 150.263ZM115.801 281.402C116.349 284.539 116.928 287.657 117.537 290.755L117.543 290.754C116.931 287.658 116.35 284.54 115.801 281.402ZM118.691 296.356L118.688 296.354C120.442 304.647 122.444 312.797 124.659 320.807L124.668 320.806C122.442 312.799 120.45 304.651 118.691 296.356ZM111.778 253.118C110.326 240.006 109.386 226.539 108.961 212.718C147.872 225.405 197.061 235.824 255.517 237.118C198.709 248.227 150.371 252.356 111.778 253.118ZM108.802 206.446C108.483 190.339 108.837 173.718 109.882 156.584C150.247 174.268 212.955 194.645 297.298 201.466C215.33 212.541 151.417 210.751 108.802 206.446Z" fill="white"/>
<path d="M239.48 387.006H232.445V372.813H235.617L239.48 387.006ZM225.075 365.424C226.935 362.819 229.203 360.533 231.772 358.637L234.536 368.79H228.441V404.459C229.682 405.682 231.028 406.816 232.463 407.808V391.046L254.577 391.028L249.668 409.084L245.859 395.068H241.677L247.684 417.164C248.34 417.199 248.995 417.217 249.668 417.217C250.342 417.217 250.998 417.199 251.653 417.164L258.758 391.01H261.469L268.38 406.674C269.496 405.788 270.542 404.831 271.517 403.821L265.439 390.036C269.302 388.282 271.977 384.401 271.977 379.9C271.977 375.099 268.912 370.988 264.624 369.429L267.565 358.62C270.134 360.516 272.403 362.819 274.263 365.406L277.151 362.518C273.979 358.265 269.85 354.774 265.102 352.365L260.637 368.755H242.882L243.981 372.778H259.521L256.756 382.93H260.938L263.561 373.309C266.13 374.372 267.955 376.906 267.955 379.865C267.955 383.781 264.765 386.952 260.867 386.952H243.679L234.271 352.347C229.504 354.757 225.375 358.247 222.222 362.5L225.075 365.424Z" fill="white"/>
<path fill-rule="evenodd" clip-rule="evenodd" d="M363.283 161.99V355.359C386.07 295.982 394.522 228.49 389.048 150.206C388.551 142.215 385.928 140.798 382.615 139.008C365.162 129.351 308.018 121.679 249.668 121.164C191.301 121.679 134.174 129.351 116.756 138.99C113.407 140.798 110.785 142.215 110.289 150.171C104.814 228.49 113.266 296.018 136.071 355.395L183.168 315.331V439.295C196.652 455.88 211.289 469.364 226.244 478.88V418.245C223.94 416.703 221.76 414.913 219.758 412.911C211.767 404.919 207.373 394.306 207.373 383.001C207.373 371.714 211.767 361.082 219.758 353.091C221.76 351.071 223.94 349.299 226.244 347.758V278.67L273.235 238.661V347.846C275.485 349.352 277.611 351.106 279.578 353.073C287.569 361.065 291.964 371.678 291.964 382.983C291.964 394.271 287.569 404.902 279.578 412.894C277.611 414.86 275.485 416.597 273.235 418.12V478.791C288.19 469.258 302.826 455.738 316.293 439.136V202L363.283 161.99ZM287.942 382.966C287.942 361.862 270.772 344.692 249.668 344.692C228.547 344.692 211.377 361.862 211.395 382.966C211.395 404.069 228.565 421.239 249.668 421.239C270.772 421.239 287.942 404.069 287.942 382.966ZM303.925 119.552L305.466 111.738C292.655 108.796 273.43 105.642 249.792 105.642C230.762 105.642 211.058 107.804 193.87 111.738L195.412 119.552C212.529 118.117 230.992 117.213 249.668 117.054C268.344 117.213 286.825 118.099 303.925 119.552ZM196.581 102.418C195.253 104.42 193.374 106.05 191.088 107.078C191.179 107.12 191.27 107.163 191.361 107.205C192.072 107.538 192.8 107.878 193.57 108.176C209.269 104.615 228.778 102.099 249.81 102.099C270.843 102.099 290.139 104.615 305.803 108.176C306.653 107.804 307.468 107.432 308.266 107.042C305.997 106.015 304.119 104.385 302.79 102.4C300.788 103.605 298.467 104.296 296.022 104.296C295.295 104.296 294.569 104.243 293.825 104.118C290.564 103.57 287.694 101.851 285.656 99.2634C283.423 100.894 280.677 101.851 277.753 101.851C277.204 101.851 276.654 101.815 276.105 101.745C272.845 101.337 269.921 99.7953 267.742 97.3851C265.385 99.3702 262.355 100.575 259.06 100.575H258.865C255.409 100.522 252.167 99.1749 249.686 96.7653C247.205 99.1749 243.98 100.522 240.508 100.575H240.312C236.999 100.575 233.987 99.3702 231.63 97.3851C229.451 99.8129 226.527 101.355 223.267 101.745C222.717 101.815 222.168 101.851 221.618 101.851C218.713 101.851 215.967 100.894 213.716 99.2634C211.678 101.851 208.808 103.57 205.548 104.118C204.803 104.243 204.077 104.296 203.35 104.296C200.923 104.296 198.584 103.622 196.581 102.418ZM185.649 100.008C186.092 100.008 186.535 99.9724 186.978 99.848C188.59 99.4053 189.777 98.2002 190.292 96.6768C189.228 95.6312 188.554 94.1604 188.554 92.5477C188.554 89.3406 191.159 86.7364 194.366 86.7364C197.574 86.7364 200.178 89.3406 200.178 92.5477C200.178 93.2568 200.037 93.9299 199.807 94.5504C200.905 95.6663 202.499 96.2516 204.166 95.9677C204.573 95.8968 204.981 95.7548 205.352 95.596C204.218 94.3375 203.421 92.7782 203.102 91.0067C202.801 89.3055 202.978 87.6043 203.581 86.0274C200.923 81.1191 199.328 75.6437 198.956 70.027C190.486 73.0395 183.841 76.7778 179.802 80.9244C179.748 81.651 179.713 82.3769 179.713 83.1211C179.713 85.1237 179.943 87.073 180.369 88.9689C183.7 90.3687 186.039 93.6109 186.039 97.3851C186.039 98.307 185.897 99.1748 185.649 100.008ZM198.921 66.2528C199.027 63.2404 199.452 60.2989 200.196 57.4818C191.036 59.5723 183.7 66.4475 180.935 75.3246C185.472 71.8343 191.585 68.7692 198.921 66.2528ZM244.37 62.4252C231.666 62.7801 219.723 64.4097 209.463 66.9436C209.463 67.1389 209.463 67.316 209.446 67.5282C209.446 71.9404 210.491 76.2466 212.422 80.1444C216.834 80.2154 220.591 83.405 221.389 87.7814C221.76 89.8016 221.424 91.8036 220.574 93.5224C221.122 93.6292 221.672 93.6819 222.256 93.6109C223.656 93.4338 224.897 92.7255 225.765 91.6265C225.978 91.3609 226.155 91.0594 226.315 90.7586C225.57 89.784 225.109 88.5789 225.109 87.2501C225.109 84.043 227.714 81.4381 230.921 81.4381C234.129 81.4381 236.733 84.043 236.733 87.2501C236.733 88.2774 236.45 89.2345 235.971 90.0848C236.928 91.467 238.541 92.3707 240.366 92.3707C240.897 92.3531 241.411 92.247 241.907 92.0875C240.933 90.6167 240.366 88.8621 240.366 86.9662C240.366 83.7949 241.96 81.013 244.37 79.3293V62.4252ZM239.285 39.1604C238.806 39.1421 238.328 39.1245 237.849 39.1245C223.674 39.1245 211.891 49.5434 209.8 63.1343C219.989 60.724 231.719 59.2357 244.388 58.8991V43.7139C242.279 42.7041 240.525 41.1272 239.285 39.1604ZM254.984 62.4257V79.2942C257.394 80.9771 258.989 83.7767 258.989 86.9311C258.989 88.827 258.421 90.5809 257.447 92.0516C257.943 92.2111 258.457 92.3355 258.989 92.3355H259.06C260.849 92.3355 262.426 91.4318 263.383 90.0496C262.905 89.2169 262.603 88.2599 262.603 87.2143C262.603 84.0072 265.208 81.403 268.415 81.403C271.622 81.403 274.227 84.0072 274.227 87.2143C274.227 88.5438 273.766 89.7482 273.022 90.7228C273.164 91.0243 273.359 91.325 273.572 91.5913C274.439 92.7072 275.68 93.3987 277.08 93.5758C277.647 93.6467 278.214 93.5933 278.746 93.4872C277.877 91.715 277.576 89.7306 277.93 87.7462C278.728 83.3698 282.484 80.1803 286.914 80.1093C288.845 76.2107 289.891 71.9053 289.891 67.4931C289.891 67.4045 289.887 67.3114 289.882 67.2183C289.878 67.1252 289.873 67.0321 289.873 66.9436C279.618 64.3933 267.7 62.7816 254.984 62.4257ZM260.069 39.1604C258.829 41.1272 257.057 42.7041 254.966 43.7139V58.9167C267.618 59.2357 279.365 60.7423 289.554 63.1518C287.446 49.561 275.68 39.1245 261.505 39.1245C261.026 39.1245 260.548 39.1421 260.069 39.1604ZM295.738 86.0625C296.34 87.6401 296.518 89.3406 296.217 91.0418C295.898 92.814 295.1 94.3733 293.931 95.6487C294.321 95.8082 294.711 95.9502 295.136 96.0211C296.801 96.2868 298.396 95.7197 299.495 94.6031C299.264 93.9657 299.122 93.3101 299.122 92.6011C299.122 89.394 301.727 86.7891 304.934 86.7891C308.141 86.7891 310.746 89.394 310.746 92.6011C310.746 94.2138 310.073 95.6663 309.01 96.7295C309.541 98.2002 310.729 99.3878 312.341 99.848C312.784 99.9724 313.227 100.008 313.67 100.008C313.422 99.1748 313.28 98.2888 313.28 97.3851C313.28 93.6109 315.619 90.3687 318.95 88.9689C319.393 87.073 319.606 85.1237 319.606 83.1393C319.606 82.3952 319.571 81.6686 319.517 80.942C315.478 76.7954 308.833 73.0746 300.363 70.0622C299.991 75.6795 298.396 81.1366 295.738 86.0625ZM300.416 66.2528C307.734 68.7868 313.847 71.8519 318.401 75.3246C315.637 66.4475 308.301 59.5723 299.14 57.4818C299.902 60.2989 300.327 63.2404 300.416 66.2528ZM384.565 135.393C388.906 137.732 392.556 140.354 393.14 149.923C401.504 269.403 375.687 343.753 352.422 390.142C326.251 442.378 288.562 481.13 251.494 494.047C249.916 494.579 249.473 494.597 248.056 494.136C210.916 481.307 173.121 442.484 146.897 390.159C123.632 343.753 97.8146 269.403 106.178 149.923C106.763 140.354 110.396 137.749 114.754 135.393C126.697 128.784 156.058 123.096 191.868 119.871L190.025 110.551C188.502 109.824 187.066 109.062 185.702 108.265H185.614C183.151 108.265 180.776 107.556 178.739 106.316C178.083 106.458 177.41 106.546 176.718 106.546C171.598 106.546 167.434 102.453 167.434 97.4033C167.434 94.958 168.426 92.7606 170.003 91.1128C169.436 88.5079 169.135 85.8503 169.135 83.1393C169.135 63.0809 185.241 46.7087 205.193 46.2653C212.157 35.616 224.188 28.5462 237.832 28.5462H238.097C239.338 25.0734 242.084 22.3266 245.557 21.0863V18.0563H241.269V9.83478H245.557V5.56445H253.779V9.83478H258.191V18.0563H253.779V21.0863C257.235 22.3266 259.981 25.0734 261.221 28.5462H261.487C275.131 28.5462 287.162 35.5984 294.125 46.2653C314.078 46.7087 330.184 63.0809 330.184 83.1393C330.184 85.8503 329.883 88.5255 329.316 91.1128C330.893 92.7606 331.867 94.9755 331.867 97.4033C331.867 102.435 327.704 106.546 322.583 106.546C321.892 106.546 321.236 106.458 320.581 106.316C320.456 106.404 320.332 106.493 320.191 106.564C318.189 107.698 315.974 108.265 313.741 108.265H313.634C312.27 109.062 310.817 109.807 309.293 110.533L307.451 119.871C343.261 123.096 372.622 128.784 384.565 135.393ZM316.824 97.4027C316.824 94.5497 319.022 92.2105 321.856 91.8563C322.707 89.0568 323.15 86.1328 323.167 83.1562C323.167 66.9078 310.144 53.6711 293.984 53.3169C295.898 57.6582 296.961 62.4604 296.961 67.51C296.961 74.0837 295.136 80.4803 291.751 86.0091C292.656 87.2494 293.063 88.8263 292.779 90.4389C292.372 92.6538 290.759 94.3193 288.74 94.9215C288.917 95.2581 289.111 95.5771 289.324 95.8785C290.6 97.6683 292.496 98.8552 294.658 99.21C298.449 99.8474 302.064 97.7568 303.535 94.3726C303.021 93.9468 302.685 93.3095 302.685 92.6004C302.685 91.3426 303.712 90.3146 304.97 90.3146C306.228 90.3146 307.256 91.3426 307.256 92.6004C307.256 93.6812 306.511 94.5673 305.519 94.8153C305.413 98.501 307.805 101.921 311.508 102.966C313.617 103.569 315.832 103.303 317.745 102.222C318.1 102.01 318.419 101.797 318.738 101.549C317.568 100.521 316.824 99.0505 316.824 97.4027ZM281.403 88.3836C281.9 85.584 284.345 83.6347 287.073 83.6347C287.41 83.6347 287.747 83.6523 288.119 83.7233C288.295 83.7581 288.455 83.8088 288.615 83.8595C288.697 83.8856 288.779 83.9116 288.863 83.9355C291.822 79.0096 293.435 73.3396 293.435 67.51C293.435 49.9152 279.118 35.5977 261.523 35.5977C260.052 35.5977 258.616 35.7039 257.182 35.8992C256.153 38.256 254.028 40.0451 251.458 40.6122V81.5435C253.78 82.2877 255.463 84.4316 255.463 87.0014C255.463 89.269 254.151 91.2183 252.238 92.1577C252.468 92.4585 252.717 92.76 252.982 93.0432C254.559 94.6734 256.685 95.5771 258.954 95.6129C262.958 95.6839 266.343 92.937 267.281 89.2163C266.608 88.8263 266.147 88.0997 266.147 87.2494C266.147 85.9909 267.175 84.9636 268.433 84.9636C269.691 84.9636 270.719 85.9909 270.719 87.2494C270.719 88.1882 270.134 89.0034 269.319 89.3582C269.496 90.8992 270.063 92.3524 271.038 93.6103C272.438 95.3824 274.44 96.5166 276.69 96.7998C279.472 97.1364 282.095 96.0914 283.885 94.1949C282.024 92.9546 280.978 90.7046 281.403 88.3836ZM243.91 86.948C243.91 84.3965 245.593 82.235 247.914 81.4908V40.5595C245.327 39.9924 243.236 38.2026 242.208 35.8458C240.774 35.6511 239.32 35.5443 237.85 35.5443C220.255 35.5443 205.937 49.8617 205.937 67.4573C205.937 73.2686 207.55 78.9569 210.509 83.8828C210.592 83.8591 210.674 83.8335 210.757 83.8079C210.922 83.7567 211.088 83.7055 211.253 83.6699C211.59 83.6172 211.945 83.5813 212.281 83.5813C215.027 83.5813 217.455 85.5482 217.951 88.3302C218.377 90.6512 217.331 92.9019 215.488 94.1422C217.278 96.038 219.9 97.0836 222.682 96.747C224.933 96.4807 226.935 95.3473 228.334 93.5575C229.309 92.299 229.894 90.8465 230.071 89.3048C229.238 88.9682 228.653 88.1531 228.653 87.196C228.653 85.9382 229.681 84.9102 230.939 84.9102C232.197 84.9102 233.225 85.9382 233.225 87.196C233.225 88.0287 232.764 88.7729 232.091 89.1629C233.031 92.8843 236.45 95.6305 240.419 95.5595C242.687 95.5244 244.813 94.6207 246.39 92.9904C246.656 92.7248 246.905 92.4234 247.134 92.1044C245.238 91.1655 243.91 89.2163 243.91 86.948ZM204.715 99.1917C206.877 98.8376 208.773 97.6507 210.048 95.861C210.261 95.5595 210.456 95.2405 210.615 94.8687C208.596 94.2658 206.983 92.6004 206.575 90.3855C206.292 88.7553 206.717 87.1785 207.621 85.9558C204.237 80.4277 202.411 74.031 202.411 67.4748C202.411 62.4246 203.474 57.623 205.389 53.2818C189.246 53.6359 176.205 66.8902 176.205 83.1204C176.205 86.1328 176.648 89.0392 177.499 91.8387C180.316 92.1929 182.513 94.5322 182.513 97.3844C182.513 99.0323 181.769 100.503 180.617 101.531C182.602 103.054 185.259 103.675 187.846 102.948C191.55 101.903 193.942 98.4834 193.836 94.7978C192.843 94.5497 192.099 93.6636 192.099 92.5829C192.099 91.3244 193.127 90.297 194.384 90.297C195.643 90.297 196.67 91.3244 196.67 92.5829C196.67 93.3095 196.334 93.9293 195.82 94.3544C197.291 97.7393 200.923 99.8298 204.715 99.1917ZM326.676 83.1386C326.676 86.3633 326.233 89.4819 325.347 92.4943C327.137 93.4507 328.36 95.2763 328.324 97.3668C328.324 100.468 325.755 102.984 322.565 102.984C321.75 102.984 320.988 102.825 320.279 102.523C319.748 102.984 319.199 103.392 318.578 103.728C317.072 104.579 315.389 105.004 313.706 105.004C312.802 105.004 311.898 104.88 310.995 104.632C307.291 103.586 304.669 100.574 303.925 97.0478C302.082 99.4932 299.14 101.035 295.969 101.035C295.437 101.035 294.87 100.982 294.321 100.893C291.699 100.45 289.395 99.0147 287.853 96.8356C287.463 96.2861 287.127 95.7015 286.861 95.0986C286.596 95.0986 286.312 95.081 286.046 95.0283C285.887 94.9925 285.727 94.9397 285.568 94.8863C283.654 97.1546 280.819 98.572 277.718 98.572C277.293 98.572 276.885 98.5544 276.46 98.501C273.731 98.1644 271.304 96.7998 269.621 94.6383C268.965 93.788 268.451 92.8485 268.079 91.8563C266.343 95.0986 262.94 97.3141 259.024 97.3141H258.883C256.136 97.2783 253.584 96.18 251.671 94.2131C251.192 93.717 250.785 93.1851 250.412 92.618C250.164 92.6539 249.916 92.689 249.668 92.689C249.42 92.689 249.172 92.6539 248.924 92.618C248.57 93.1851 248.145 93.717 247.666 94.2131C245.753 96.18 243.201 97.2783 240.455 97.3141H240.313C236.397 97.3141 232.995 95.0986 231.258 91.8563C230.904 92.8485 230.39 93.788 229.717 94.6383C228.015 96.7998 225.588 98.1644 222.877 98.501C222.452 98.5544 222.026 98.572 221.619 98.572C218.518 98.572 215.666 97.1546 213.77 94.8863C213.721 94.9009 213.676 94.9153 213.631 94.9295C213.513 94.9672 213.402 95.0022 213.273 95.0283C213.062 95.0676 212.86 95.0776 212.66 95.0875C212.593 95.0908 212.526 95.0941 212.458 95.0986C212.193 95.7015 211.855 96.2861 211.466 96.8356C209.924 99.0147 207.621 100.45 204.999 100.893C204.449 100.982 203.9 101.035 203.351 101.035C200.179 101.035 197.255 99.5108 195.395 97.0478C194.651 100.574 192.028 103.586 188.325 104.632C187.421 104.88 186.518 105.004 185.632 105.004C183.186 105.004 180.847 104.1 179.04 102.523C178.331 102.825 177.551 103.002 176.736 103.002C173.565 103.002 170.978 100.485 170.978 97.3844C170.978 95.2581 172.218 93.4332 174.008 92.4768C173.121 89.4643 172.679 86.3458 172.679 83.1386C172.679 64.7456 187.651 49.7732 206.062 49.7556H207.196C213.326 39.1772 224.773 32.0541 237.85 32.0541C239.09 32.0541 240.313 32.125 241.535 32.2487C241.731 28.2265 244.813 24.9842 248.747 24.5232V14.9371H244.034V13.0588H248.747V8.82429H250.625V13.0588H255.339V14.9553H250.625V24.5408C254.577 25.0018 257.642 28.2447 257.837 32.2669C259.06 32.1426 260.282 32.0716 261.523 32.0716C274.599 32.0716 286.046 39.1948 292.177 49.7732H293.311C311.704 49.7732 326.676 64.7456 326.676 83.1386Z" fill="white"/>
</svg>
