<svg width="500" height="500" viewBox="0 0 500 500" fill="none" xmlns="http://www.w3.org/2000/svg">
<g clip-path="url(#clip0_1175_17117)">
<path fill-rule="evenodd" clip-rule="evenodd" d="M249.03 -0.000178694C255.793 -0.000178694 261.399 5.60363 261.399 12.5177C261.399 14.5573 260.916 16.4858 260.043 18.1921L260.81 18.1692C267.717 18.1692 273.325 23.7709 273.325 30.6857C273.325 37.5984 267.717 43.2029 260.81 43.2029C258.247 43.2029 255.991 42.3868 253.926 41.0658C254.007 55.3292 265.399 66.8038 279.56 66.8038C291.645 66.8038 301.768 58.4419 304.474 47.1895C302.599 47.7691 299.969 48.0113 297.807 47.5114C291.07 45.9561 286.873 39.2356 288.428 32.5003C289.982 25.7628 296.702 21.5626 303.442 23.1193L303.863 23.2225C303.405 21.371 303.359 19.3906 303.817 17.4037C305.37 10.6719 312.093 6.46958 318.831 8.02417C325.571 9.58019 329.764 16.302 328.212 23.0381C327.752 25.03 326.839 26.7953 325.617 28.2609L326.362 28.4098C333.099 29.9651 337.295 36.6855 335.743 43.4244C334.187 50.1598 327.466 54.36 320.727 52.8018C318.562 52.304 316.665 51.2735 315.131 49.8813L315.012 50.2865C311.823 64.0792 320.384 78.0007 334.212 81.0251C346.228 83.6508 353.908 80.2183 357.943 76.1855C355.932 75.8258 353.808 74.9378 352.048 73.4565C346.749 69.0135 346.055 61.1181 350.504 55.8241C354.95 50.5265 362.839 49.8365 368.141 54.2809L371.347 57.2569C375.74 49.5787 376.379 48.304 378.607 44.9064C382.397 39.1267 388.194 40.7689 394.346 44.697L403.936 51.3134L385.931 70.049C386.444 71.2091 386.571 72.4524 386.571 73.7542C386.571 79.8416 381.626 84.7802 375.533 84.7802C373.762 84.7802 372.128 84.6976 370.648 83.9541C360.239 92.692 345.822 96.5931 331.471 93.281C319.567 90.5321 309.857 83.3268 303.69 73.829L304.105 73.3056C294.518 78.856 282.837 80.9233 271.196 78.2335C262.364 76.1961 254.731 71.7047 249.03 65.6451C243.325 71.7047 235.696 76.1961 226.872 78.2335C215.23 80.9233 203.711 79.462 194.125 73.9145L193.97 74.2242C187.806 83.7184 178.49 90.5321 166.584 93.281C152.244 96.5931 137.816 92.692 127.413 83.9541C125.929 84.6976 124.293 84.7802 122.523 84.7802C116.433 84.7802 111.498 79.8416 111.498 73.7542C111.498 72.4524 111.615 71.2091 112.137 70.049L94.1245 51.3134L103.716 44.697C109.873 40.7689 115.667 39.1267 119.459 44.9064C121.688 48.304 122.326 49.5787 126.708 57.2569L129.929 54.2809C135.219 49.8365 143.117 50.5265 147.555 55.8241C152.003 61.1181 151.313 69.0135 146.019 73.4565C144.249 74.9378 142.136 75.8258 140.124 76.1855C144.159 80.2183 151.833 83.6508 163.845 81.0251C177.671 78.0007 186.233 64.0792 183.055 50.2865L182.927 49.8813C181.402 51.2735 179.497 52.304 177.33 52.8018C170.601 54.36 163.88 50.1598 162.326 43.4244C160.77 36.6855 164.968 29.9651 171.706 28.4098L172.452 28.2609C171.22 26.7953 170.315 25.03 169.857 23.0381C168.3 16.302 172.496 9.58019 179.235 8.02417C185.964 6.46958 192.686 10.6719 194.249 17.4037C194.698 19.3906 194.662 21.371 194.205 23.2225L194.625 23.1193C201.357 21.5626 208.076 25.7628 209.631 32.5003C211.195 39.2356 206.989 45.9561 200.25 47.5114C198.093 48.0113 195.471 47.7691 193.583 47.1895C196.287 58.4419 206.423 66.8038 218.507 66.8038C232.66 66.8038 244.052 55.3292 244.141 41.0658C242.066 42.3868 239.82 43.2029 237.258 43.2029C230.339 43.2029 224.743 37.5984 224.743 30.6857C224.743 23.7709 230.339 18.1692 237.258 18.1692L238.025 18.1921C237.153 16.4858 236.664 14.5573 236.664 12.5177C236.664 5.60363 242.263 -0.000178694 249.03 -0.000178694Z" fill="#F4DE5D"/>
<path d="M249.03 -0.000178694C255.793 -0.000178694 261.399 5.60363 261.399 12.5177C261.399 14.5573 260.916 16.4858 260.043 18.1921L260.81 18.1692C267.717 18.1692 273.325 23.7709 273.325 30.6857C273.325 37.5984 267.717 43.2029 260.81 43.2029C258.247 43.2029 255.991 42.3868 253.926 41.0658C254.007 55.3292 265.399 66.8038 279.56 66.8038C291.645 66.8038 301.768 58.4419 304.474 47.1895C302.599 47.7691 299.969 48.0113 297.807 47.5114C291.07 45.9561 286.873 39.2356 288.428 32.5003C289.982 25.7628 296.702 21.5626 303.442 23.1193L303.863 23.2225C303.405 21.371 303.359 19.3906 303.817 17.4037C305.37 10.6719 312.093 6.46958 318.831 8.02417C325.571 9.58019 329.764 16.302 328.212 23.0381C327.752 25.03 326.839 26.7953 325.617 28.2609L326.362 28.4098C333.099 29.9651 337.295 36.6855 335.743 43.4244C334.187 50.1598 327.466 54.36 320.727 52.8018C318.562 52.304 316.665 51.2735 315.131 49.8813L315.012 50.2865C311.823 64.0792 320.384 78.0007 334.212 81.0251C346.228 83.6508 353.908 80.2183 357.943 76.1855C355.932 75.8258 353.808 74.9378 352.048 73.4565C346.749 69.0135 346.055 61.1181 350.504 55.8241C354.95 50.5265 362.839 49.8365 368.141 54.2809L371.347 57.2569C375.74 49.5787 376.379 48.304 378.607 44.9064C382.397 39.1267 388.194 40.7689 394.346 44.697L403.936 51.3134L385.931 70.049C386.444 71.2091 386.571 72.4524 386.571 73.7542C386.571 79.8416 381.626 84.7802 375.533 84.7802C373.762 84.7802 372.128 84.6976 370.648 83.9541C360.239 92.692 345.822 96.5931 331.471 93.281C319.567 90.5321 309.857 83.3268 303.69 73.829L304.105 73.3056C294.518 78.856 282.837 80.9233 271.196 78.2335C262.364 76.1961 254.731 71.7047 249.03 65.6451C243.325 71.7047 235.696 76.1961 226.872 78.2335C215.23 80.9233 203.711 79.462 194.125 73.9145L193.97 74.2242C187.806 83.7184 178.49 90.5321 166.584 93.281C152.244 96.5931 137.816 92.692 127.413 83.9541C125.929 84.6976 124.293 84.7802 122.523 84.7802C116.433 84.7802 111.498 79.8416 111.498 73.7542C111.498 72.4524 111.615 71.2091 112.137 70.049L94.1245 51.3134L103.716 44.697C109.873 40.7689 115.667 39.1267 119.459 44.9064C121.688 48.304 122.326 49.5787 126.708 57.2569L129.929 54.2809C135.219 49.8365 143.117 50.5265 147.555 55.8241C152.003 61.1181 151.313 69.0135 146.019 73.4565C144.249 74.9378 142.136 75.8258 140.124 76.1855C144.159 80.2183 151.833 83.6508 163.845 81.0251C177.671 78.0007 186.233 64.0792 183.055 50.2865L182.927 49.8813C181.402 51.2735 179.497 52.304 177.33 52.8018C170.601 54.36 163.88 50.1598 162.326 43.4244C160.77 36.6855 164.968 29.9651 171.706 28.4098L172.452 28.2609C171.22 26.7953 170.315 25.03 169.857 23.0381C168.3 16.302 172.496 9.58019 179.235 8.02417C185.964 6.46958 192.686 10.6719 194.249 17.4037C194.698 19.3906 194.662 21.371 194.205 23.2225L194.625 23.1193C201.357 21.5626 208.076 25.7628 209.631 32.5003C211.195 39.2356 206.989 45.9561 200.25 47.5114C198.093 48.0113 195.471 47.7691 193.583 47.1895C196.287 58.4419 206.423 66.8038 218.507 66.8038C232.66 66.8038 244.052 55.3292 244.141 41.0658C242.066 42.3868 239.82 43.2029 237.258 43.2029C230.339 43.2029 224.743 37.5984 224.743 30.6857C224.743 23.7709 230.339 18.1692 237.258 18.1692L238.025 18.1921C237.153 16.4858 236.664 14.5573 236.664 12.5177C236.664 5.60363 242.263 -0.000178694 249.03 -0.000178694Z" stroke="#003A63" stroke-width="0.3078" stroke-miterlimit="3.86369"/>
<path fill-rule="evenodd" clip-rule="evenodd" d="M49 282.476C49 171.839 138.687 82.1487 249.325 82.1487C359.966 82.1487 449.651 171.839 449.651 282.476C449.651 393.117 359.966 482.804 249.325 482.804C138.687 482.804 49 393.117 49 282.476Z" fill="#FFFFFD"/>
<path d="M49 282.476C49 171.839 138.687 82.1487 249.325 82.1487C359.966 82.1487 449.651 171.839 449.651 282.476C449.651 393.117 359.966 482.804 249.325 482.804C138.687 482.804 49 393.117 49 282.476Z" stroke="#003A63" stroke-width="0.3078" stroke-miterlimit="3.86369"/>
<path fill-rule="evenodd" clip-rule="evenodd" d="M56.415 283.531C56.415 177.279 142.541 91.149 248.795 91.149C355.05 91.149 441.188 177.279 441.188 283.531C441.188 389.792 355.05 475.925 248.795 475.925C142.541 475.925 56.415 389.792 56.415 283.531Z" fill="#003A63"/>
<path fill-rule="evenodd" clip-rule="evenodd" d="M280.1 104.314L323.071 160.447L369.117 160.629V193.16H348.156L415.041 282.667L270.546 478.277L227.5 478.385L82.8911 282.291L150.888 192.814H127.654V160.196L175.217 160.1L217.735 104.087C217.735 104.087 234.357 101.911 248.462 101.911C260.205 101.911 280.1 104.314 280.1 104.314Z" fill="#FFFFFD"/>
<path d="M191.661 143.445C172.211 143.113 155.156 132.407 146.198 116.625C145.398 115.177 145.112 113.434 145.112 111.657C145.112 107.72 147.295 104.322 150.736 102.663C180.574 88.9999 213.774 81.3872 248.742 81.3872C283.027 81.3872 315.454 88.7023 344.985 101.863L344.788 101.877C348.139 103.473 350.655 106.976 350.655 111.038C350.655 112.918 349.847 115.278 348.951 116.784C339.577 132.734 322.306 143.452 302.531 143.452C300.09 143.452 295.904 143.53 295.904 143.53L191.661 143.445Z" fill="#F4DE5D"/>
<mask id="mask0_1175_17117" style="mask-type:luminance" maskUnits="userSpaceOnUse" x="145" y="81" width="206" height="63">
<path d="M191.662 143.446C172.211 143.114 155.157 132.408 146.198 116.626C145.399 115.178 145.112 113.435 145.112 111.658C145.112 107.721 147.296 104.323 150.736 102.664C180.574 89.0009 213.774 81.3882 248.743 81.3882C283.027 81.3882 315.454 88.7032 344.986 101.863L344.789 101.878C348.14 103.474 350.656 106.977 350.656 111.039C350.656 112.919 349.848 115.279 348.951 116.785C339.578 132.735 322.306 143.453 302.532 143.453C300.091 143.453 295.904 143.531 295.904 143.531L191.662 143.446Z" fill="white"/>
</mask>
<g mask="url(#mask0_1175_17117)">
<path fill-rule="evenodd" clip-rule="evenodd" d="M50.8359 302.762C50.8359 194.075 138.938 105.972 247.618 105.972C356.297 105.972 444.403 194.075 444.403 302.762C444.403 411.443 356.297 499.543 247.618 499.543C138.938 499.543 50.8359 411.443 50.8359 302.762Z" fill="#211915"/>
<path d="M50.8359 302.762C50.8359 194.075 138.938 105.972 247.618 105.972C356.297 105.972 444.403 194.075 444.403 302.762C444.403 411.443 356.297 499.543 247.618 499.543C138.938 499.543 50.8359 411.443 50.8359 302.762Z" stroke="#211915" stroke-width="0.686157" stroke-miterlimit="3.86369"/>
<path fill-rule="evenodd" clip-rule="evenodd" d="M142.182 103.962C143.639 105.291 133.135 116.459 144.491 125.252C161.034 138.054 161.258 106.703 249.812 106.703C310.515 106.703 334.386 126.808 334.386 126.808L324.223 129.375L315.059 130.108L317.26 123.509L314.323 119.478L310.296 124.245L307.732 124.61L305.525 117.742L302.599 123.875L295.618 127.218L306.576 142.572C328.563 141.382 353.556 120.889 353.556 111.279C353.556 94.5295 298.047 79.2371 248.67 79.2371C201.859 79.2371 140.719 102.631 142.182 103.962Z" fill="#F4DE5D"/>
<path d="M142.182 103.962C143.639 105.291 133.135 116.459 144.491 125.252C161.034 138.054 161.258 106.703 249.812 106.703C310.515 106.703 334.386 126.808 334.386 126.808L324.223 129.375L315.059 130.108L317.26 123.509L314.323 119.478L310.296 124.245L307.732 124.61L305.525 117.742L302.599 123.875L295.618 127.218L306.576 142.572C328.563 141.382 353.556 120.889 353.556 111.279C353.556 94.5295 298.047 79.2371 248.67 79.2371C201.859 79.2371 140.719 102.631 142.182 103.962Z" stroke="#211915" stroke-width="0.165487" stroke-miterlimit="3.86369"/>
</g>
<path d="M191.661 143.445C172.211 143.113 155.156 132.407 146.198 116.625C145.398 115.177 145.112 113.434 145.112 111.657C145.112 107.72 147.295 104.322 150.736 102.663C180.574 88.9999 213.774 81.3872 248.742 81.3872C283.027 81.3872 315.454 88.7023 344.985 101.863L344.788 101.877C348.139 103.473 350.655 106.976 350.655 111.038C350.655 112.918 349.847 115.278 348.951 116.784C339.577 132.734 322.306 143.452 302.531 143.452C300.09 143.452 295.904 143.53 295.904 143.53L191.661 143.445Z" stroke="#211915" stroke-width="0.3078" stroke-miterlimit="3.86369"/>
<path fill-rule="evenodd" clip-rule="evenodd" d="M279.37 110.035L409.881 282.541L249.252 500L88.623 282.172L219.043 109.812C219.043 109.812 235.129 107.711 248.777 107.711C260.127 107.711 279.37 110.035 279.37 110.035Z" fill="#F4DE5D"/>
<mask id="mask1_1175_17117" style="mask-type:luminance" maskUnits="userSpaceOnUse" x="88" y="107" width="322" height="393">
<path d="M279.37 110.035L409.881 282.541L249.252 500L88.623 282.172L219.043 109.812C219.043 109.812 235.129 107.711 248.777 107.711C260.127 107.711 279.37 110.035 279.37 110.035Z" fill="white"/>
</mask>
<g mask="url(#mask1_1175_17117)">
<path fill-rule="evenodd" clip-rule="evenodd" d="M122.299 250.58L158.427 204.71V361.107L122.299 316.071V250.58Z" fill="#C64830"/>
<path d="M122.299 250.58L158.427 204.71V361.107L122.299 316.071V250.58Z" stroke="#C64830" stroke-width="0.686157" stroke-miterlimit="3.86371"/>
<path fill-rule="evenodd" clip-rule="evenodd" d="M229.314 111.401L193.179 159.264V413.453L229.336 459.646L229.314 111.401Z" fill="#C64830"/>
<path d="M229.314 111.401L193.179 159.264V413.453L229.336 459.646L229.314 111.401Z" stroke="#C64830" stroke-width="0.686157" stroke-miterlimit="3.86371"/>
<path fill-rule="evenodd" clip-rule="evenodd" d="M375.415 250.867L339.902 205.208V359.88L375.415 315.611V250.867Z" fill="#C64830"/>
<path d="M375.415 250.867L339.902 205.208V359.88L375.415 315.611V250.867Z" stroke="#C64830" stroke-width="0.686157" stroke-miterlimit="3.86371"/>
<path fill-rule="evenodd" clip-rule="evenodd" d="M268.805 110.369L305.335 159.482V412.644L269.448 460.026L268.805 110.369Z" fill="#C64830"/>
<path d="M268.805 110.369L305.335 159.482V412.644L269.448 460.026L268.805 110.369Z" stroke="#C64830" stroke-width="0.686157" stroke-miterlimit="3.86371"/>
</g>
<path d="M279.37 110.035L409.881 282.541L249.252 500L88.623 282.172L219.043 109.812C219.043 109.812 235.129 107.711 248.777 107.711C260.127 107.711 279.37 110.035 279.37 110.035Z" stroke="#003A63" stroke-width="0.3078" stroke-miterlimit="3.86369"/>
<path fill-rule="evenodd" clip-rule="evenodd" d="M241.543 28.595C241.543 24.3151 245.012 20.8434 249.29 20.8434C253.577 20.8434 257.045 24.3151 257.045 28.595C257.045 32.8742 253.577 36.3438 249.29 36.3438C245.012 36.3438 241.543 32.8742 241.543 28.595Z" fill="#C64830"/>
<path fill-rule="evenodd" clip-rule="evenodd" d="M178.221 36.6183C178.221 32.3383 181.695 28.8695 185.974 28.8695C190.259 28.8695 193.728 32.3383 193.728 36.6183C193.728 40.9003 190.259 44.3691 185.974 44.3691C181.695 44.3691 178.221 40.9003 178.221 36.6183Z" fill="#C64830"/>
<path fill-rule="evenodd" clip-rule="evenodd" d="M305.427 36.6183C305.427 32.3383 308.896 28.8695 313.18 28.8695C317.456 28.8695 320.924 32.3383 320.924 36.6183C320.924 40.9003 317.456 44.3691 313.18 44.3691C308.896 44.3691 305.427 40.9003 305.427 36.6183Z" fill="#C64830"/>
<path fill-rule="evenodd" clip-rule="evenodd" d="M370.062 76.5716C370.062 72.2895 373.539 68.8207 377.816 68.8207C382.095 68.8207 385.57 72.2895 385.57 76.5716C385.57 80.8515 382.095 84.3203 377.816 84.3203C373.539 84.3203 370.062 80.8515 370.062 76.5716Z" fill="#C64830"/>
<path fill-rule="evenodd" clip-rule="evenodd" d="M112.265 76.5716C112.265 72.2895 115.738 68.8207 120.018 68.8207C124.293 68.8207 127.771 72.2895 127.771 76.5716C127.771 80.8515 124.293 84.3203 120.018 84.3203C115.738 84.3203 112.265 80.8515 112.265 76.5716Z" fill="#C64830"/>
<path fill-rule="evenodd" clip-rule="evenodd" d="M248.743 86.0832L230.447 93.1433L248.759 101.479L267.152 93.3377L248.743 86.0832Z" fill="#C64830"/>
<path fill-rule="evenodd" clip-rule="evenodd" d="M167.115 101.879L152.568 115.027L172.657 116.248L186.909 102.052L167.115 101.879Z" fill="#003A63"/>
<path fill-rule="evenodd" clip-rule="evenodd" d="M329.953 101.879L344.508 115.027L324.42 116.248L310.161 102.052L329.953 101.879Z" fill="#003A63"/>
<path fill-rule="evenodd" clip-rule="evenodd" d="M189.908 237.775C183.8 233.97 178.703 232.486 171.902 232.486C146.943 232.486 128.769 254.271 128.769 284.084C128.769 312.216 147.275 334.419 170.719 334.419C177.683 334.419 182.945 332.938 189.908 329.136V300.372C185.497 304.602 181.078 306.721 176.154 306.721C164.77 306.721 157.133 297.201 157.133 283.242C157.133 270.133 165.111 260.402 175.811 260.402C180.736 260.402 184.642 262.097 189.908 266.542V237.775Z" fill="#211915"/>
<path fill-rule="evenodd" clip-rule="evenodd" d="M369.747 255.203V233.762H312.397V334.175H338.363V292.83H366.889V271.393H338.363V255.203H369.747Z" fill="#211915"/>
<path fill-rule="evenodd" clip-rule="evenodd" d="M130.428 162.971L130.421 190.177L184.395 190.11L248.385 411.979L310.188 190.11H366.172V162.971H290.044L249.045 312.74L207.751 162.971H130.428Z" fill="#211915"/>
<path fill-rule="evenodd" clip-rule="evenodd" d="M180.608 121.372L186.12 130.02L185.722 137.487L191.618 137.096L207.735 113.612L180.608 121.372Z" fill="#FAEA7C"/>
<path d="M180.608 121.372L186.12 130.02L185.722 137.487L191.618 137.096L207.735 113.612L180.608 121.372Z" stroke="#211915" stroke-width="0.282369" stroke-miterlimit="3.86369"/>
</g>
<defs>
<clipPath id="clip0_1175_17117">
<rect width="500" height="500" fill="white"/>
</clipPath>
</defs>
</svg>
