<svg xmlns="http://www.w3.org/2000/svg" width="500" height="500" fill="none"><path stroke="#fff" stroke-width="4" d="M341.884 107.749c-23.657-9.8-66.288-14.316-91.894-14.316-25.607 0-58.823 1.99-82.481 11.788-5.965 2.471-3.932 8.286-9.603 11.325a194.98 194.98 0 0 0-88.063 97.257 194.99 194.99 0 1 0 318.025-63.259c-14.543-14.543-25.834-23.145-43.962-32.181m-2.022-10.614c4.656 1.928-2.42 8.4 2.022 10.614m-2.022-10.614 2.022 10.614"/><path fill="#fff" d="m316.232 151.817 106.802 129.037-139.183 186.558s126.774-20.51 146.071-150.813c18.992-128.243-79.896-180.744-79.896-180.744l-4.327 5.403-29.467 10.559Z"/><path fill="#fff" fill-rule="evenodd" d="M413.69 281.255 249.913 500 86.286 280.815l68.531-83.711 26.2.035 14.615 45.328-.056 162.342 36.444 48.625-.013-98.149 16.583 51.432 1.433 4.443 1.423-4.446 16.539-51.652-.012 98.977 36.444-48.625-.057-163.954 14.25-44.504 26.178.077 68.902 84.222ZM320.186 166.96l23.371 28.568-25.538-.075-13.66 42.662-.024-68.851-1.904-2.278 17.755-.026Zm-1.226-1.499-42.665-52.152h-52.878l-42.681 52.135 17.638-.035 33.605-40.224.015 125.333 17.969 55.025 18.035-55.33.016-124.423 33.165 39.697 17.781-.026Zm-50.963 91.136-17.53 53.782-18.472-56.567.012 95.024 18.513 57.421 17.466-54.546.011-95.114Zm-72.363-20.571.023-67.366 1.46-1.748-17.612.035-23.461 28.658 26.569.035 13.021 40.386Zm-48.36-40.433L171 166.964l-40.39.08.069 28.527 16.595.022Zm24.972-30.132 12.04-14.529-28.678-10.296-3.537-7.244S50.816 188.26 69.807 316.503C89.104 446.806 215.88 467.316 215.88 467.316L76.696 280.758l69.336-83.666-15.857-.021-1.495-.002-.003-1.495-.07-28.527-.004-1.5 1.501-.003 42.142-.083ZM159.607 328.48l.008 28.875-37.309-49.541-.041-50.395 37.31-44.494.007 25.126a50.523 50.523 0 0 1 2.454-.773 35.8 35.8 0 0 1 1.559-.411l.014-.003.076-.017.026-.006.008-.002h.002c.001 0 .002-.001.319 1.465l-.317-1.466.158-.034h.162l20.878.038 1.5.003-.003 1.5-.04 18.204-.003 1.497h-1.496l-16.325.002-.016.005c-.139.042-.348.108-.619.2-.541.185-1.324.475-2.267.891a32.193 32.193 0 0 0-6.063 3.504l.011 41.899a28.413 28.413 0 0 0 6.014 3.184c.899.345 1.643.577 2.156.722.256.072.454.122.584.153l.028.007 16.464-.317 1.528-.03v1.53l.001 18.215v1.518l-1.517-.018-22.492-.256-.171-.002-.166-.041.316-1.298.039.009 22.491.257v-18.216l-16.645.321-.034-.007c-.397-.087-4.297-.984-8.595-3.756l.006 20.539c1.537.54 2.534.801 2.738.853-.316 1.298-.317 1.298-.318 1.298l-.003-.001-.007-.002-.025-.006a34.477 34.477 0 0 1-1.577-.458 48.147 48.147 0 0 1-.808-.265Zm-.025-88.673.006 21.17c4.592-3.15 8.754-4.26 8.754-4.26l16.537-.003.039-18.204-20.877-.037s-1.738.376-4.459 1.334Zm180.836-3.072.006-23.926 20.049 23.909 6.764-.006 1.506-.001-.005 1.505-.025 8.327 9.021 10.759-.041 50.395-37.309 49.541.019-67.756-5.686-.014.017 38.609.001 1.502-1.502-.001-17.434-.015-1.499-.001v-1.499l.031-89.807v-1.498l1.499-.001 24.588-.022Zm-.001 1.669-24.586.021-.03 89.807 17.434.014-.018-40.113 7.186.017.005-18.3-6.341.007.003-13.126 6.342-.003.005-18.324Zm26.802 6.358.02-6.382-5.368.005 5.348 6.377Zm-26.807 13.297-4.842.002-.003 10.126 4.842-.005.003-10.123Z" clip-rule="evenodd"/><path fill="#fff" fill-rule="evenodd" d="M249.865 115.765c60.355-.186 90.731 18.476 90.731 18.476l10.911-24.956s-35.701-17.52-101.675-18.194c-65.601-.674-101.212 18.475-101.212 18.475l10.077 23.931s31.186-17.546 91.168-17.732Zm-18.004-11.833 18.436 9.291 17.864-8.997-18.236-9.602-18.064 9.308Zm-42.48 5.832-12.425 12.476-19.177-2.182 13.088-12.535 18.514 2.241Zm134.464 12.587-12.425-12.476 18.514-2.241 13.089 12.534-19.178 2.183Z" clip-rule="evenodd"/><path fill="#fff" fill-rule="evenodd" d="M219.169 91.918c22.216-3.28 30.662-20.17 30.662-20.17s11.432 18.67 31.934 21.024c21.786 2.502 30.659-8.787 30.659-8.787s20.309 25.253 38.299 23.447c17.97-1.804 35.068-13.552 35.068-13.552l.329-.51c.112.141.177.217.177.217l9.166-14.258s-.083-.038-.236-.101l15.681-24.349s-4.127-6.7-13.065-4.062c-9.959 2.94-12.636 15.825-12.636 15.825s-13.113-11.151-24.339-.288c-11.696 11.318 3.591 23.241 3.591 23.241s-16.349 4.5-27.683-2.187c-10.538-6.218-11.702-21.586-11.702-21.586s15.218 18.491 25.193 2.392C360.19 52.198 339.1 44.722 339.1 44.722s17.627-20.375-2.608-29.002C315.467 6.756 314.7 35.507 314.7 35.507S290.514 30.46 289.714 48.7c-.882 20.105 22.947 12.916 22.947 12.916s-7.706 18.647-28.537 16.035c-20.788-2.607-31.723-29.46-31.723-29.46s19.645 19.902 28.63.6c9.056-19.453-18.261-22.645-18.261-22.645S274.845-.023 250.291 0c-23.896.022-13.327 26.608-13.327 26.608s-25.295 1.103-18.334 21.375c6.616 19.271 28.565.253 28.565.253s-6.143 20.835-28.296 28.76c-21.988 7.866-31.488-14.916-31.488-14.916s22.26 4.451 22.77-12.627c.548-18.378-25.009-15.51-25.009-15.51s-1.195-25.897-21.515-17.946c-20.482 8.015-3.225 28.178-3.225 28.178s-21.92 10.661-10.041 24.85c11.543 13.786 24.222-3.182 24.222-3.182s.923 13.785-11.152 21.416c-11.593 7.328-27.848 2.044-27.848 2.044s13.847-10.95 4.843-22.145c-8.974-11.157-25.233-1.058-25.233-1.058s-4.112-11.921-10.84-14.766c-6.728-2.845-16.073 3.387-16.073 3.387l15.958 24.39a7.453 7.453 0 0 0-.299.128l9.165 14.257s.114-.133.301-.375l.386.589s14.529 12.069 35.256 13.393c20.713 1.323 37.927-22.98 37.927-22.98s10.858 10.94 32.165 7.795Zm-105.734 1.203c1.181-1.535 5.275-7.47 1.991-12.194-3.251-4.677-9.695-2.41-11.158-1.816l9.167 14.01Zm281.792-13.893c-1.326-.549-7.92-2.96-11.221 1.79-3.412 4.906 1.139 11.121 2.114 12.352l9.107-14.142ZM258.912 35.795a9.404 9.404 0 0 0-2.037-10.243 9.403 9.403 0 0 0-10.242-2.037 9.403 9.403 0 0 0-5.086 5.087 9.385 9.385 0 0 0-.714 3.596 9.384 9.384 0 0 0 2.751 6.646 9.405 9.405 0 0 0 6.646 2.753 9.395 9.395 0 0 0 8.682-5.802Zm75.941 8.766a9.386 9.386 0 0 1-2.751 6.646 9.403 9.403 0 0 1-6.646 2.753 9.396 9.396 0 0 1-9.397-9.399 9.405 9.405 0 0 1 2.752-6.646 9.382 9.382 0 0 1 6.645-2.753 9.402 9.402 0 0 1 6.646 2.753 9.403 9.403 0 0 1 2.751 6.646Zm-151.168 3.334a9.385 9.385 0 0 0 .714-3.597 9.385 9.385 0 0 0-2.751-6.646 9.405 9.405 0 0 0-6.646-2.753 9.396 9.396 0 0 0-9.397 9.4 9.405 9.405 0 0 0 2.752 6.645 9.382 9.382 0 0 0 6.645 2.753 9.399 9.399 0 0 0 8.683-5.802Z" clip-rule="evenodd"/><path fill="#fff" d="m250.52 406.255-67.908-210.616-51.933-.07-.07-28.527 73.004-.144 46.853 143.479 46.738-143.385 73.064-.107-.075 28.718-52.174-.152-67.499 210.804Z"/><path fill="#fff" d="M168.342 256.715s-21.138 5.638-20.693 27.548c.444 21.904 20.58 26.02 20.58 26.02l16.645-.321v18.216l-22.491-.257s-35.25-8.576-35.309-45.125c-.058-36.313 36.966-44.325 36.966-44.325l20.878.037-.04 18.204-16.536.003ZM334.066 269.854l22.683-.023.029 18.356-23.562-.056.018 40.113-17.434-.015.03-89.806 51.408-.045-.056 18.336-33.112.014-.004 13.126Z"/></svg>