<svg width="534" height="534" viewBox="0 0 534 534" fill="none" xmlns="http://www.w3.org/2000/svg">
<path d="M341 110C317.597 100.306 275.425 95.8379 250.094 95.8379C224.763 95.8379 191.903 97.8062 168.5 107.5C162.599 109.944 164.61 115.697 159 118.702C142.363 127.616 127.093 138.94 113.697 152.335C95.7856 170.247 81.5772 191.511 71.8833 214.914C62.1895 238.317 57.2002 263.4 57.2002 288.731C57.2002 314.063 62.1895 339.146 71.8833 362.549C81.5772 385.952 95.7856 407.216 113.697 425.128C131.609 443.04 152.874 457.248 176.277 466.942C199.68 476.636 224.763 481.625 250.094 481.625C275.425 481.625 300.508 476.636 323.911 466.942C347.314 457.248 368.578 443.04 386.49 425.128C404.402 407.216 418.61 385.952 428.304 362.549C437.998 339.146 442.987 314.063 442.987 288.731C442.987 263.4 437.998 238.317 428.304 214.914C418.61 191.511 404.402 170.247 386.49 152.335C372.103 137.948 360.934 129.439 343 120.5M341 110C345.606 111.908 338.606 118.31 343 120.5M341 110L343 120.5" stroke="white" stroke-width="4"/>
<path d="M315.624 153.593L421.278 281.244L283.591 465.796C283.591 465.796 409.003 445.507 428.092 316.605C446.88 189.74 349.055 137.804 349.055 137.804L344.775 143.148L315.624 153.593Z" fill="white"/>
<path fill-rule="evenodd" clip-rule="evenodd" d="M412.034 281.641L250.018 498.034L88.1504 281.206L155.931 198.411L181.851 198.446L196.32 243.321L196.265 403.867L232.316 451.969L232.304 354.928L248.694 405.76L250.126 410.203L251.55 405.757L267.896 354.707L267.884 452.567L303.936 404.465L303.88 242.327L317.988 198.265L343.887 198.341L412.034 281.641ZM319.536 168.575L342.656 196.836L317.392 196.762L303.879 238.964L303.855 170.854L301.972 168.601L319.536 168.575ZM318.31 167.076L276.116 115.501L223.807 115.5L181.598 167.059L199.046 167.024L232.276 127.249L232.292 251.182L250.067 305.616L267.909 250.88L267.924 127.847L300.72 167.102L318.31 167.076ZM267.908 257.248L250.565 310.452L232.292 254.493L232.304 348.495L250.619 405.299L267.896 351.339L267.908 257.248ZM196.322 236.899L196.345 170.257L197.789 168.528L180.367 168.562L157.158 196.912L183.441 196.947L196.322 236.899ZM148.482 196.9L171.952 168.579L131.997 168.658L132.066 196.878L148.482 196.9ZM173.198 167.076L185.097 152.718L156.727 142.533L153.228 135.368C153.228 135.368 53.0606 189.646 71.8482 316.51C90.9376 445.412 216.349 465.701 216.349 465.701L78.6623 281.15L147.24 198.399L131.567 198.378L130.073 198.376L130.069 196.882L130 168.662L129.996 167.161L131.497 167.158L173.198 167.076ZM160.683 328.376L160.691 356.923L123.782 307.915L123.742 258.061L160.651 214.046L160.658 238.885C161.612 238.559 162.432 238.308 163.082 238.122C163.6 237.973 164.01 237.866 164.294 237.795C164.437 237.76 164.547 237.733 164.624 237.716L164.664 237.706L164.714 237.695L164.739 237.689L164.747 237.688L164.749 237.687C164.75 237.687 164.751 237.687 165.068 239.153L164.751 237.687L164.909 237.653L165.071 237.653L185.724 237.69L187.225 237.693L187.222 239.193L187.182 257.202L187.179 258.698L185.683 258.698L169.536 258.701L169.522 258.705C169.385 258.746 169.178 258.811 168.911 258.902C168.376 259.085 167.601 259.372 166.669 259.783C165.005 260.517 162.854 261.639 160.665 263.255L160.676 304.664C162.859 306.188 164.996 307.189 166.631 307.818C167.52 308.159 168.256 308.389 168.762 308.532C169.015 308.603 169.211 308.652 169.339 308.683L169.365 308.69L185.65 308.376L187.178 308.346L187.179 309.875L187.179 327.895L187.179 329.413L185.662 329.395L163.412 329.142L163.241 329.14L163.075 329.099L163.391 327.798L163.429 327.808L185.679 328.062L185.679 310.041L169.212 310.359C169.212 310.359 169.201 310.357 169.18 310.352C168.789 310.267 164.93 309.38 160.677 306.637L160.683 326.955C162.204 327.489 163.19 327.747 163.391 327.798C163.075 329.099 163.074 329.099 163.073 329.099L163.07 329.098L163.063 329.096L163.038 329.09C163.018 329.085 162.989 329.078 162.952 329.068L162.914 329.058C162.843 329.039 162.75 329.015 162.636 328.983C162.364 328.907 161.972 328.793 161.477 328.636C161.236 328.56 160.971 328.473 160.683 328.376ZM160.658 240.638L160.664 261.581C165.207 258.465 169.324 257.367 169.324 257.367L185.682 257.364L185.722 239.356L165.068 239.319C165.068 239.319 163.35 239.691 160.658 240.638ZM339.549 237.584L339.556 213.93L359.377 237.567L366.081 237.561L367.587 237.56L367.582 239.066L367.557 247.322L376.465 257.945L376.424 307.799L339.516 356.807L339.535 289.796L333.927 289.783L333.944 327.96L333.944 329.462L332.443 329.461L315.196 329.447L313.697 329.445L313.697 327.946L313.728 239.105L313.728 237.607L315.226 237.606L339.549 237.584ZM339.549 239.25L315.228 239.272L315.197 328.113L332.444 328.127L332.426 288.445L339.535 288.462L339.54 270.359L333.268 270.365L333.271 257.38L339.544 257.377L339.549 239.25ZM366.063 245.54L366.082 239.227L360.773 239.232L366.063 245.54ZM339.543 258.711L334.77 258.714L334.768 268.698L339.54 268.693L339.543 258.711Z" fill="white"/>
<path fill-rule="evenodd" clip-rule="evenodd" d="M249.97 117.93C309.676 117.746 339.726 136.207 339.726 136.207L350.52 111.52C350.52 111.52 315.202 94.1875 249.938 93.5211C185.042 92.8547 149.813 111.798 149.813 111.798L159.782 135.471C159.782 135.471 190.633 118.114 249.97 117.93ZM232.159 106.224L250.398 115.416L268.069 106.515L250.03 97.0166L232.159 106.224ZM190.137 111.993L177.845 124.335L158.874 122.176L171.822 109.776L190.137 111.993ZM323.155 124.446L310.863 112.104L329.178 109.887L342.126 122.287L323.155 124.446Z" fill="white"/>
<path fill-rule="evenodd" clip-rule="evenodd" d="M219.605 94.3395C241.582 91.0951 249.938 74.3853 249.938 74.3853C249.938 74.3853 261.247 92.8552 281.528 95.1839C303.08 97.6586 311.857 86.4918 311.857 86.4918C311.857 86.4918 331.949 111.473 349.744 109.686C367.521 107.902 384.436 96.2804 384.436 96.2804L384.762 95.7747C384.872 95.9145 384.936 95.9891 384.936 95.9891L394.004 81.8853C394.004 81.8853 393.922 81.8473 393.771 81.7849L409.282 57.6985C409.282 57.6985 405.2 51.0693 396.358 53.68C386.507 56.589 383.858 69.3345 383.858 69.3345C383.858 69.3345 370.886 58.3037 359.781 69.0496C348.21 80.246 363.333 92.0411 363.333 92.0411C363.333 92.0411 347.16 96.4931 335.948 89.8776C325.522 83.7266 324.371 68.5231 324.371 68.5231C324.371 68.5231 339.426 86.8162 349.293 70.8895C359.11 55.0457 338.246 47.65 338.246 47.65C338.246 47.65 355.684 27.4946 335.666 18.9601C314.868 10.0925 314.109 38.5347 314.109 38.5347C314.109 38.5347 290.183 33.5407 289.392 51.5849C288.519 71.4732 312.092 64.3622 312.092 64.3622C312.092 64.3622 304.469 82.8085 283.862 80.2241C263.297 77.6451 252.48 51.0808 252.48 51.0808C252.48 51.0808 271.913 70.7692 280.802 51.6756C289.76 32.4309 262.737 29.2727 262.737 29.2727C262.737 29.2727 274.683 3.38655 250.393 3.40919C226.753 3.43123 237.209 29.7312 237.209 29.7312C237.209 29.7312 212.186 30.8224 219.071 50.8767C225.617 69.9406 247.329 51.127 247.329 51.127C247.329 51.127 241.253 71.7376 219.338 79.5772C197.586 87.3584 188.188 64.8222 188.188 64.8222C188.188 64.8222 210.209 69.2252 210.713 52.3308C211.256 34.1497 185.973 36.9872 185.973 36.9872C185.973 36.9872 184.792 11.3683 164.69 19.2346C144.428 27.1634 161.499 47.1094 161.499 47.1094C161.499 47.1094 139.815 57.6561 151.566 71.692C162.985 85.3303 175.528 68.5442 175.528 68.5442C175.528 68.5442 176.441 82.1807 164.496 89.7306C153.027 96.9791 136.948 91.7523 136.948 91.7523C136.948 91.7523 150.645 80.9199 141.738 69.8456C132.861 58.8077 116.776 68.7982 116.776 68.7982C116.776 68.7982 112.709 57.0054 106.053 54.1913C99.3969 51.3772 90.1523 57.5418 90.1523 57.5418L105.94 81.6697C105.748 81.7476 105.643 81.7965 105.643 81.7965L114.71 95.9003C114.71 95.9003 114.823 95.769 115.008 95.5285L115.389 96.1117C115.389 96.1117 129.763 108.051 150.266 109.361C170.757 110.67 187.785 86.6271 187.785 86.6271C187.785 86.6271 198.527 97.4511 219.605 94.3395ZM115.008 95.5285C116.176 94.0101 120.225 88.1384 116.977 83.466C113.761 78.8405 107.387 81.0819 105.94 81.6697L115.008 95.5285ZM393.771 81.7849C392.459 81.2424 385.936 78.8572 382.67 83.5549C379.294 88.4093 383.797 94.5584 384.762 95.7747L393.771 81.7849ZM258.92 38.8198C259.387 37.6918 259.628 36.4827 259.627 35.2618C259.628 34.0409 259.387 32.8319 258.92 31.7038C258.453 30.5757 257.768 29.5507 256.905 28.6873C256.042 27.8239 255.017 27.139 253.889 26.6717C252.761 26.2044 251.552 25.9639 250.331 25.9639C249.11 25.9639 247.901 26.2044 246.773 26.6717C245.645 27.139 244.62 27.8239 243.757 28.6873C242.894 29.5507 242.209 30.5757 241.742 31.7038C241.275 32.8319 241.035 34.0409 241.035 35.2618C241.035 36.4827 241.275 37.6918 241.742 38.8198C242.209 39.9479 242.894 40.9729 243.757 41.8363C244.62 42.6998 245.645 43.3847 246.773 43.852C247.901 44.3192 249.11 44.5598 250.331 44.5598C251.552 44.5598 252.761 44.3192 253.889 43.852C255.017 43.3847 256.042 42.6998 256.905 41.8363C257.768 40.9729 258.453 39.9479 258.92 38.8198ZM334.045 47.4913C334.046 48.7122 333.805 49.9213 333.338 51.0493C332.871 52.1774 332.186 53.2024 331.323 54.0658C330.46 54.9293 329.435 55.6142 328.307 56.0815C327.179 56.5487 325.97 56.7892 324.749 56.7892C323.528 56.7892 322.319 56.5487 321.191 56.0815C320.063 55.6142 319.038 54.9293 318.175 54.0658C317.312 53.2024 316.627 52.1774 316.16 51.0493C315.693 49.9213 315.453 48.7122 315.453 47.4913C315.453 46.2704 315.693 45.0613 316.16 43.9333C316.627 42.8052 317.312 41.7802 318.175 40.9168C319.038 40.0534 320.063 39.3685 321.191 38.9012C322.319 38.4339 323.528 38.1934 324.749 38.1934C325.97 38.1934 327.179 38.4339 328.307 38.9012C329.435 39.3685 330.46 40.0534 331.323 40.9168C332.186 41.7802 332.871 42.8052 333.338 43.9333C333.805 45.0613 334.046 46.2704 334.045 47.4913ZM184.502 50.7896C184.969 49.6615 185.21 48.4525 185.209 47.2315C185.21 46.0106 184.969 44.8016 184.502 43.6735C184.035 42.5454 183.351 41.5204 182.487 40.657C181.624 39.7936 180.599 39.1087 179.471 38.6414C178.343 38.1741 177.134 37.9336 175.913 37.9336C174.692 37.9336 173.483 38.1741 172.355 38.6414C171.227 39.1087 170.203 39.7936 169.339 40.657C168.476 41.5204 167.791 42.5454 167.324 43.6735C166.857 44.8016 166.617 46.0106 166.617 47.2315C166.617 48.4525 166.857 49.6615 167.324 50.7896C167.791 51.9176 168.476 52.9426 169.339 53.8061C170.203 54.6695 171.227 55.3544 172.355 55.8217C173.483 56.289 174.692 56.5295 175.913 56.5295C177.134 56.5295 178.343 56.289 179.471 55.8217C180.599 55.3544 181.624 54.6695 182.487 53.8061C183.351 52.9426 184.035 51.9176 184.502 50.7896Z" fill="white"/>
<path d="M250.619 405.297L183.441 196.945L132.066 196.876L131.997 168.655L204.216 168.513L250.565 310.449L296.801 168.606L369.08 168.5L369.005 196.91L317.392 196.759L250.619 405.297Z" fill="white"/>
<path d="M169.324 257.364C169.324 257.364 148.413 262.942 148.853 284.616C149.293 306.285 169.212 310.356 169.212 310.356L185.679 310.039L185.679 328.059L163.429 327.805C163.429 327.805 128.558 319.321 128.5 283.165C128.442 247.243 165.068 239.316 165.068 239.316L185.722 239.354L185.682 257.362L169.324 257.364Z" fill="white"/>
<path d="M333.268 270.363L355.707 270.34L355.735 288.498L332.426 288.443L332.444 328.124L315.197 328.11L315.228 239.269L366.082 239.225L366.027 257.363L333.271 257.378L333.268 270.363Z" fill="white"/>
</svg>
