<svg width="547" height="500" viewBox="0 0 547 500" fill="none" xmlns="http://www.w3.org/2000/svg">
<g clip-path="url(#clip0_1175_17117)">
<path fill-rule="evenodd" clip-rule="evenodd" d="M272.03 -0.000178694C278.793 -0.000178694 284.399 5.60363 284.399 12.5177C284.399 14.5573 283.916 16.4858 283.043 18.1921L283.81 18.1692C290.717 18.1692 296.325 23.7709 296.325 30.6857C296.325 37.5984 290.717 43.2029 283.81 43.2029C281.247 43.2029 278.991 42.3868 276.926 41.0658C277.007 55.3292 288.399 66.8038 302.56 66.8038C314.645 66.8038 324.768 58.4419 327.474 47.1895C325.599 47.7691 322.969 48.0113 320.807 47.5114C314.07 45.9561 309.873 39.2356 311.428 32.5003C312.982 25.7628 319.702 21.5626 326.442 23.1193L326.863 23.2225C326.405 21.371 326.359 19.3906 326.817 17.4037C328.37 10.6719 335.093 6.46958 341.831 8.02417C348.571 9.58019 352.764 16.302 351.212 23.0381C350.752 25.03 349.839 26.7953 348.617 28.2609L349.362 28.4098C356.099 29.9651 360.295 36.6855 358.743 43.4244C357.187 50.1598 350.466 54.36 343.727 52.8018C341.562 52.304 339.665 51.2735 338.131 49.8813L338.012 50.2865C334.823 64.0792 343.384 78.0007 357.212 81.0251C369.228 83.6508 376.908 80.2183 380.943 76.1855C378.932 75.8258 376.808 74.9378 375.048 73.4565C369.749 69.0135 369.055 61.1181 373.504 55.8241C377.95 50.5265 385.839 49.8365 391.141 54.2809L394.347 57.2569C398.74 49.5787 399.379 48.304 401.607 44.9064C405.397 39.1267 411.194 40.7689 417.346 44.697L426.936 51.3134L408.931 70.049C409.444 71.2091 409.571 72.4524 409.571 73.7542C409.571 79.8416 404.626 84.7802 398.533 84.7802C396.762 84.7802 395.128 84.6976 393.648 83.9541C383.239 92.692 368.822 96.5931 354.471 93.281C342.567 90.5321 332.857 83.3268 326.69 73.829L327.105 73.3056C317.518 78.856 305.837 80.9233 294.196 78.2335C285.364 76.1961 277.731 71.7047 272.03 65.6451C266.325 71.7047 258.696 76.1961 249.872 78.2335C238.23 80.9233 226.711 79.462 217.125 73.9145L216.97 74.2242C210.806 83.7184 201.49 90.5321 189.584 93.281C175.244 96.5931 160.816 92.692 150.413 83.9541C148.929 84.6976 147.293 84.7802 145.523 84.7802C139.433 84.7802 134.498 79.8416 134.498 73.7542C134.498 72.4524 134.615 71.2091 135.137 70.049L117.125 51.3134L126.716 44.697C132.873 40.7689 138.667 39.1267 142.459 44.9064C144.688 48.304 145.326 49.5787 149.708 57.2569L152.929 54.2809C158.219 49.8365 166.117 50.5265 170.555 55.8241C175.003 61.1181 174.313 69.0135 169.019 73.4565C167.249 74.9378 165.136 75.8258 163.124 76.1855C167.159 80.2183 174.833 83.6508 186.845 81.0251C200.671 78.0007 209.233 64.0792 206.055 50.2865L205.927 49.8813C204.402 51.2735 202.497 52.304 200.33 52.8018C193.601 54.36 186.88 50.1598 185.326 43.4244C183.77 36.6855 187.968 29.9651 194.706 28.4098L195.452 28.2609C194.22 26.7953 193.315 25.03 192.857 23.0381C191.3 16.302 195.496 9.58019 202.235 8.02417C208.964 6.46958 215.686 10.6719 217.249 17.4037C217.698 19.3906 217.662 21.371 217.205 23.2225L217.625 23.1193C224.357 21.5626 231.076 25.7628 232.631 32.5003C234.195 39.2356 229.989 45.9561 223.25 47.5114C221.093 48.0113 218.471 47.7691 216.583 47.1895C219.287 58.4419 229.423 66.8038 241.507 66.8038C255.66 66.8038 267.052 55.3292 267.141 41.0658C265.066 42.3868 262.82 43.2029 260.258 43.2029C253.339 43.2029 247.743 37.5984 247.743 30.6857C247.743 23.7709 253.339 18.1692 260.258 18.1692L261.025 18.1921C260.153 16.4858 259.664 14.5573 259.664 12.5177C259.664 5.60363 265.263 -0.000178694 272.03 -0.000178694Z" fill="#F4DE5D"/>
<path d="M272.03 -0.000178694C278.793 -0.000178694 284.399 5.60363 284.399 12.5177C284.399 14.5573 283.916 16.4858 283.043 18.1921L283.81 18.1692C290.717 18.1692 296.325 23.7709 296.325 30.6857C296.325 37.5984 290.717 43.2029 283.81 43.2029C281.247 43.2029 278.991 42.3868 276.926 41.0658C277.007 55.3292 288.399 66.8038 302.56 66.8038C314.645 66.8038 324.768 58.4419 327.474 47.1895C325.599 47.7691 322.969 48.0113 320.807 47.5114C314.07 45.9561 309.873 39.2356 311.428 32.5003C312.982 25.7628 319.702 21.5626 326.442 23.1193L326.863 23.2225C326.405 21.371 326.359 19.3906 326.817 17.4037C328.37 10.6719 335.093 6.46958 341.831 8.02417C348.571 9.58019 352.764 16.302 351.212 23.0381C350.752 25.03 349.839 26.7953 348.617 28.2609L349.362 28.4098C356.099 29.9651 360.295 36.6855 358.743 43.4244C357.187 50.1598 350.466 54.36 343.727 52.8018C341.562 52.304 339.665 51.2735 338.131 49.8813L338.012 50.2865C334.823 64.0792 343.384 78.0007 357.212 81.0251C369.228 83.6508 376.908 80.2183 380.943 76.1855C378.932 75.8258 376.808 74.9378 375.048 73.4565C369.749 69.0135 369.055 61.1181 373.504 55.8241C377.95 50.5265 385.839 49.8365 391.141 54.2809L394.347 57.2569C398.74 49.5787 399.379 48.304 401.607 44.9064C405.397 39.1267 411.194 40.7689 417.346 44.697L426.936 51.3134L408.931 70.049C409.444 71.2091 409.571 72.4524 409.571 73.7542C409.571 79.8416 404.626 84.7802 398.533 84.7802C396.762 84.7802 395.128 84.6976 393.648 83.9541C383.239 92.692 368.822 96.5931 354.471 93.281C342.567 90.5321 332.857 83.3268 326.69 73.829L327.105 73.3056C317.518 78.856 305.837 80.9233 294.196 78.2335C285.364 76.1961 277.731 71.7047 272.03 65.6451C266.325 71.7047 258.696 76.1961 249.872 78.2335C238.23 80.9233 226.711 79.462 217.125 73.9145L216.97 74.2242C210.806 83.7184 201.49 90.5321 189.584 93.281C175.244 96.5931 160.816 92.692 150.413 83.9541C148.929 84.6976 147.293 84.7802 145.523 84.7802C139.433 84.7802 134.498 79.8416 134.498 73.7542C134.498 72.4524 134.615 71.2091 135.137 70.049L117.125 51.3134L126.716 44.697C132.873 40.7689 138.667 39.1267 142.459 44.9064C144.688 48.304 145.326 49.5787 149.708 57.2569L152.929 54.2809C158.219 49.8365 166.117 50.5265 170.555 55.8241C175.003 61.1181 174.313 69.0135 169.019 73.4565C167.249 74.9378 165.136 75.8258 163.124 76.1855C167.159 80.2183 174.833 83.6508 186.845 81.0251C200.671 78.0007 209.233 64.0792 206.055 50.2865L205.927 49.8813C204.402 51.2735 202.497 52.304 200.33 52.8018C193.601 54.36 186.88 50.1598 185.326 43.4244C183.77 36.6855 187.968 29.9651 194.706 28.4098L195.452 28.2609C194.22 26.7953 193.315 25.03 192.857 23.0381C191.3 16.302 195.496 9.58019 202.235 8.02417C208.964 6.46958 215.686 10.6719 217.249 17.4037C217.698 19.3906 217.662 21.371 217.205 23.2225L217.625 23.1193C224.357 21.5626 231.076 25.7628 232.631 32.5003C234.195 39.2356 229.989 45.9561 223.25 47.5114C221.093 48.0113 218.471 47.7691 216.583 47.1895C219.287 58.4419 229.423 66.8038 241.507 66.8038C255.66 66.8038 267.052 55.3292 267.141 41.0658C265.066 42.3868 262.82 43.2029 260.258 43.2029C253.339 43.2029 247.743 37.5984 247.743 30.6857C247.743 23.7709 253.339 18.1692 260.258 18.1692L261.025 18.1921C260.153 16.4858 259.664 14.5573 259.664 12.5177C259.664 5.60363 265.263 -0.000178694 272.03 -0.000178694Z" stroke="#003A63" stroke-width="0.3078" stroke-miterlimit="3.86369"/>
<path fill-rule="evenodd" clip-rule="evenodd" d="M72 282.476C72 171.839 161.687 82.1487 272.325 82.1487C382.966 82.1487 472.651 171.839 472.651 282.476C472.651 393.117 382.966 482.804 272.325 482.804C161.687 482.804 72 393.117 72 282.476Z" fill="#FFFFFD"/>
<path d="M72 282.476C72 171.839 161.687 82.1487 272.325 82.1487C382.966 82.1487 472.651 171.839 472.651 282.476C472.651 393.117 382.966 482.804 272.325 482.804C161.687 482.804 72 393.117 72 282.476Z" stroke="#003A63" stroke-width="0.3078" stroke-miterlimit="3.86369"/>
<path fill-rule="evenodd" clip-rule="evenodd" d="M79.415 283.531C79.415 177.279 165.541 91.149 271.795 91.149C378.05 91.149 464.188 177.279 464.188 283.531C464.188 389.792 378.05 475.925 271.795 475.925C165.541 475.925 79.415 389.792 79.415 283.531Z" fill="#003A63"/>
<path fill-rule="evenodd" clip-rule="evenodd" d="M303.1 104.314L346.071 160.447L392.117 160.629V193.16H371.156L438.041 282.667L293.546 478.277L250.5 478.385L105.891 282.291L173.888 192.814H150.654V160.196L198.217 160.1L240.735 104.087C240.735 104.087 257.357 101.911 271.462 101.911C283.205 101.911 303.1 104.314 303.1 104.314Z" fill="#FFFFFD"/>
<path d="M214.661 143.444C195.211 143.112 178.156 132.406 169.198 116.624C168.398 115.176 168.112 113.433 168.112 111.656C168.112 107.719 170.295 104.321 173.736 102.662C203.574 88.999 236.774 81.3862 271.742 81.3862C306.027 81.3862 338.454 88.7013 367.985 101.862L367.788 101.876C371.139 103.472 373.655 106.975 373.655 111.037C373.655 112.917 372.847 115.277 371.951 116.783C362.577 132.733 345.306 143.451 325.531 143.451C323.09 143.451 318.904 143.529 318.904 143.529L214.661 143.444Z" fill="#F4DE5D"/>
<mask id="mask0_1175_17117" style="mask-type:luminance" maskUnits="userSpaceOnUse" x="168" y="81" width="206" height="63">
<path d="M214.662 143.445C195.211 143.113 178.157 132.407 169.198 116.625C168.399 115.177 168.112 113.434 168.112 111.657C168.112 107.72 170.296 104.322 173.736 102.663C203.574 88.9999 236.774 81.3872 271.743 81.3872C306.027 81.3872 338.454 88.7023 367.986 101.863L367.789 101.877C371.14 103.473 373.656 106.976 373.656 111.038C373.656 112.918 372.848 115.278 371.951 116.784C362.578 132.734 345.306 143.452 325.532 143.452C323.091 143.452 318.904 143.53 318.904 143.53L214.662 143.445Z" fill="white"/>
</mask>
<g mask="url(#mask0_1175_17117)">
<path fill-rule="evenodd" clip-rule="evenodd" d="M73.8359 302.762C73.8359 194.075 161.938 105.972 270.618 105.972C379.297 105.972 467.403 194.075 467.403 302.762C467.403 411.443 379.297 499.543 270.618 499.543C161.938 499.543 73.8359 411.443 73.8359 302.762Z" fill="#211915"/>
<path d="M73.8359 302.762C73.8359 194.075 161.938 105.972 270.618 105.972C379.297 105.972 467.403 194.075 467.403 302.762C467.403 411.443 379.297 499.543 270.618 499.543C161.938 499.543 73.8359 411.443 73.8359 302.762Z" stroke="#211915" stroke-width="0.686157" stroke-miterlimit="3.86369"/>
<path fill-rule="evenodd" clip-rule="evenodd" d="M165.182 103.962C166.639 105.291 156.135 116.459 167.491 125.252C184.034 138.054 184.258 106.703 272.812 106.703C333.515 106.703 357.386 126.808 357.386 126.808L347.223 129.375L338.059 130.108L340.26 123.509L337.323 119.478L333.296 124.245L330.732 124.61L328.525 117.742L325.599 123.875L318.618 127.218L329.576 142.572C351.563 141.382 376.556 120.889 376.556 111.279C376.556 94.5295 321.047 79.2371 271.67 79.2371C224.859 79.2371 163.719 102.631 165.182 103.962Z" fill="#F4DE5D"/>
<path d="M165.182 103.962C166.639 105.291 156.135 116.459 167.491 125.252C184.034 138.054 184.258 106.703 272.812 106.703C333.515 106.703 357.386 126.808 357.386 126.808L347.223 129.375L338.059 130.108L340.26 123.509L337.323 119.478L333.296 124.245L330.732 124.61L328.525 117.742L325.599 123.875L318.618 127.218L329.576 142.572C351.563 141.382 376.556 120.889 376.556 111.279C376.556 94.5295 321.047 79.2371 271.67 79.2371C224.859 79.2371 163.719 102.631 165.182 103.962Z" stroke="#211915" stroke-width="0.165487" stroke-miterlimit="3.86369"/>
</g>
<path d="M214.661 143.444C195.211 143.112 178.156 132.406 169.198 116.624C168.398 115.176 168.112 113.433 168.112 111.656C168.112 107.719 170.295 104.321 173.736 102.662C203.574 88.999 236.774 81.3862 271.742 81.3862C306.027 81.3862 338.454 88.7013 367.985 101.862L367.788 101.876C371.139 103.472 373.655 106.975 373.655 111.037C373.655 112.917 372.847 115.277 371.951 116.783C362.577 132.733 345.306 143.451 325.531 143.451C323.09 143.451 318.904 143.529 318.904 143.529L214.661 143.444Z" stroke="#211915" stroke-width="0.3078" stroke-miterlimit="3.86369"/>
<path fill-rule="evenodd" clip-rule="evenodd" d="M302.37 110.035L432.881 282.541L272.252 500L111.623 282.172L242.043 109.812C242.043 109.812 258.129 107.711 271.777 107.711C283.127 107.711 302.37 110.035 302.37 110.035Z" fill="#F4DE5D"/>
<mask id="mask1_1175_17117" style="mask-type:luminance" maskUnits="userSpaceOnUse" x="111" y="107" width="322" height="393">
<path d="M302.37 110.035L432.881 282.541L272.252 500L111.623 282.172L242.043 109.812C242.043 109.812 258.129 107.711 271.777 107.711C283.127 107.711 302.37 110.035 302.37 110.035Z" fill="white"/>
</mask>
<g mask="url(#mask1_1175_17117)">
<path fill-rule="evenodd" clip-rule="evenodd" d="M145.299 250.58L181.427 204.71V361.107L145.299 316.071V250.58Z" fill="#C64830"/>
<path d="M145.299 250.58L181.427 204.71V361.107L145.299 316.071V250.58Z" stroke="#C64830" stroke-width="0.686157" stroke-miterlimit="3.86371"/>
<path fill-rule="evenodd" clip-rule="evenodd" d="M252.314 111.401L216.179 159.264V413.453L252.336 459.646L252.314 111.401Z" fill="#C64830"/>
<path d="M252.314 111.401L216.179 159.264V413.453L252.336 459.646L252.314 111.401Z" stroke="#C64830" stroke-width="0.686157" stroke-miterlimit="3.86371"/>
<path fill-rule="evenodd" clip-rule="evenodd" d="M398.415 250.867L362.902 205.208V359.88L398.415 315.611V250.867Z" fill="#C64830"/>
<path d="M398.415 250.867L362.902 205.208V359.88L398.415 315.611V250.867Z" stroke="#C64830" stroke-width="0.686157" stroke-miterlimit="3.86371"/>
<path fill-rule="evenodd" clip-rule="evenodd" d="M291.805 110.369L328.335 159.482V412.644L292.448 460.026L291.805 110.369Z" fill="#C64830"/>
<path d="M291.805 110.369L328.335 159.482V412.644L292.448 460.026L291.805 110.369Z" stroke="#C64830" stroke-width="0.686157" stroke-miterlimit="3.86371"/>
</g>
<path d="M302.37 110.035L432.881 282.541L272.252 500L111.623 282.172L242.043 109.812C242.043 109.812 258.129 107.711 271.777 107.711C283.127 107.711 302.37 110.035 302.37 110.035Z" stroke="#003A63" stroke-width="0.3078" stroke-miterlimit="3.86369"/>
<path fill-rule="evenodd" clip-rule="evenodd" d="M264.543 28.595C264.543 24.3151 268.012 20.8434 272.29 20.8434C276.577 20.8434 280.045 24.3151 280.045 28.595C280.045 32.8742 276.577 36.3438 272.29 36.3438C268.012 36.3438 264.543 32.8742 264.543 28.595Z" fill="#C64830"/>
<path fill-rule="evenodd" clip-rule="evenodd" d="M201.22 36.6183C201.22 32.3383 204.695 28.8695 208.974 28.8695C213.259 28.8695 216.728 32.3383 216.728 36.6183C216.728 40.9003 213.259 44.3691 208.974 44.3691C204.695 44.3691 201.22 40.9003 201.22 36.6183Z" fill="#C64830"/>
<path fill-rule="evenodd" clip-rule="evenodd" d="M328.426 36.6183C328.426 32.3383 331.895 28.8695 336.179 28.8695C340.455 28.8695 343.923 32.3383 343.923 36.6183C343.923 40.9003 340.455 44.3691 336.179 44.3691C331.895 44.3691 328.426 40.9003 328.426 36.6183Z" fill="#C64830"/>
<path fill-rule="evenodd" clip-rule="evenodd" d="M393.062 76.5716C393.062 72.2895 396.539 68.8207 400.816 68.8207C405.095 68.8207 408.57 72.2895 408.57 76.5716C408.57 80.8515 405.095 84.3203 400.816 84.3203C396.539 84.3203 393.062 80.8515 393.062 76.5716Z" fill="#C64830"/>
<path fill-rule="evenodd" clip-rule="evenodd" d="M135.265 76.5716C135.265 72.2895 138.738 68.8207 143.018 68.8207C147.293 68.8207 150.771 72.2895 150.771 76.5716C150.771 80.8515 147.293 84.3203 143.018 84.3203C138.738 84.3203 135.265 80.8515 135.265 76.5716Z" fill="#C64830"/>
<path fill-rule="evenodd" clip-rule="evenodd" d="M271.743 86.0832L253.447 93.1433L271.759 101.479L290.152 93.3377L271.743 86.0832Z" fill="#C64830"/>
<path fill-rule="evenodd" clip-rule="evenodd" d="M190.115 101.879L175.568 115.027L195.657 116.248L209.909 102.052L190.115 101.879Z" fill="#003A63"/>
<path fill-rule="evenodd" clip-rule="evenodd" d="M352.953 101.879L367.508 115.027L347.42 116.248L333.161 102.052L352.953 101.879Z" fill="#003A63"/>
<path fill-rule="evenodd" clip-rule="evenodd" d="M212.908 237.775C206.8 233.97 201.703 232.486 194.902 232.486C169.943 232.486 151.769 254.271 151.769 284.084C151.769 312.216 170.275 334.419 193.719 334.419C200.683 334.419 205.945 332.938 212.908 329.136V300.372C208.497 304.602 204.078 306.721 199.154 306.721C187.77 306.721 180.133 297.201 180.133 283.242C180.133 270.133 188.111 260.402 198.811 260.402C203.736 260.402 207.642 262.097 212.908 266.542V237.775Z" fill="#211915"/>
<path fill-rule="evenodd" clip-rule="evenodd" d="M392.747 255.203V233.762H335.397V334.175H361.363V292.83H389.889V271.393H361.363V255.203H392.747Z" fill="#211915"/>
<path fill-rule="evenodd" clip-rule="evenodd" d="M153.428 162.971L153.421 190.177L207.395 190.11L271.385 411.979L333.188 190.11H389.172V162.971H313.044L272.045 312.74L230.751 162.971H153.428Z" fill="#211915"/>
<path fill-rule="evenodd" clip-rule="evenodd" d="M203.608 121.372L209.12 130.02L208.722 137.487L214.618 137.096L230.735 113.612L203.608 121.372Z" fill="#FAEA7C"/>
<path d="M203.608 121.372L209.12 130.02L208.722 137.487L214.618 137.096L230.735 113.612L203.608 121.372Z" stroke="#211915" stroke-width="0.282369" stroke-miterlimit="3.86369"/>
</g>
<defs>
<clipPath id="clip0_1175_17117">
<rect width="546.616" height="500" fill="white"/>
</clipPath>
</defs>
</svg>
