<svg width="56" height="46" viewBox="0 0 56 46" fill="none" xmlns="http://www.w3.org/2000/svg">
<g clip-path="url(#clip0_867_3733)">
<path d="M52.1513 32.8743C53.0319 31.7581 55.4961 31.7581 55.4961 31.7581C54.2127 30.396 52.8661 30.0135 52.641 29.955C52.3606 30.0252 51.9894 30.0916 51.5156 30.1462C50.3349 30.2828 48.704 30.3531 46.8085 30.2633C46.7374 30.5131 46.6427 30.7707 46.5163 31.0439C44.6485 35.0287 41.9751 38.1276 36.7942 37.4992C32.0318 36.9255 28.2014 30.9892 30.3535 25.1935C27.8184 23.9134 17.7842 18.6133 12.4572 12.4702C12.4572 12.4702 12.3427 12.3258 12.2361 12.1267C2.99569 21.076 4.46468 29.7481 4.46468 29.7481C1.34506 29.9589 0.5 31.7581 0.5 31.7581C2.9562 31.7347 3.69464 32.9836 3.69464 32.9836C1.60569 34.0023 1.81893 37.71 1.81893 37.71C3.90788 35.778 5.54272 36.746 5.54272 36.746C4.43308 39.7473 5.70067 41.4957 5.70067 41.4957C7.70671 36.7967 10.6921 40.7737 10.6921 40.7737C16.8918 45.1605 24.7817 45.785 32.0002 45.4025C39.2188 45.02 44.8578 41.0508 44.8578 41.0508C44.8578 41.0508 44.7906 41.043 46.5479 39.556C48.8145 37.6358 50.0347 41.4684 50.0347 41.4684C51.5511 39.2399 50.2124 36.5274 50.2124 36.5274C52.6765 36.1098 54.0508 37.8153 54.0508 37.8153C53.9797 34.5096 52.1513 32.8743 52.1513 32.8743V32.8743ZM18.2107 36.7343C13.4997 36.7343 9.68115 33.6588 9.68115 29.8691C9.68115 26.0794 13.5037 23.004 18.2107 23.004C22.9178 23.004 26.7443 26.0794 26.7443 29.8691C26.7443 31.0361 26.3849 32.1289 25.7452 33.0929C26.0611 32.367 26.2348 31.5708 26.2348 30.7356C26.2348 27.344 23.368 24.5924 19.8298 24.5924C16.2916 24.5924 13.4247 27.344 13.4247 30.7356C13.4247 33.6705 15.5729 36.1254 18.4437 36.7303C18.3647 36.7303 18.2858 36.7343 18.2107 36.7343V36.7343ZM20.6788 34.7906C18.5108 34.7906 16.7496 33.1163 16.7496 31.0478C16.7496 28.9793 18.5108 27.3049 20.6788 27.3049C21.2 27.3049 21.6976 27.4064 22.1517 27.5781L21.7924 29.069L21.2593 31.2624L22.8467 29.8184L23.8774 28.8817C24.3354 29.4944 24.604 30.2399 24.604 31.0478C24.604 33.1124 22.8467 34.7906 20.6748 34.7906H20.6788ZM30.8511 38.1315C30.5312 38.4008 28.7621 40.2624 28.466 40.5747V40.6215C28.466 40.6215 28.4581 40.6137 28.4462 40.5981C28.4304 40.6137 28.4225 40.6215 28.4225 40.6215V40.5747C28.1264 40.2585 26.3612 38.4008 26.0374 38.1315C25.686 37.8349 24.9238 36.984 26.452 35.7312C27.8657 34.5682 28.229 34.213 28.4265 34.1154V34.0959C28.4265 34.0959 28.4423 34.1037 28.4502 34.1037C28.4581 34.1037 28.462 34.0998 28.4699 34.0959V34.1154C28.6674 34.2169 29.0307 34.5682 30.4444 35.7312C31.9686 36.984 31.2104 37.8349 30.855 38.1315H30.8511Z" fill="white"/>
<path d="M15.8023 13.5551C18.0887 15.8148 25.406 21.7121 31.12 23.5815C31.3569 23.2459 32.2928 22.2624 34.8477 22.961C34.8991 22.9766 34.9504 22.9883 34.9978 23.0039C38.1687 23.9289 43.8038 25.6735 43.8038 25.6735C43.8038 25.6735 46.6628 26.5438 46.9392 28.8738L52.0096 28.5226C52.0096 28.5226 52.207 28.5889 52.4558 28.6943C50.1812 12.033 37.9279 8.94579 35.5585 8.26279C32.0717 7.28708 35.5585 3.52862 35.5585 3.52862C32.4231 3.52862 30.4171 6.41674 30.4171 6.41674C28.9402 6.06938 29.9235 0.5 29.9235 0.5C26.2273 1.02298 25.7298 6.45186 25.7298 6.45186H25.5165C23.1867 3.17736 21.2596 3.17736 21.2596 3.17736C23.6211 7.4588 18.9535 8.50477 18.9535 8.50477C16.6316 8.89506 14.5781 10.222 13.4014 11.1314C13.8357 11.467 14.4478 12.2164 15.8023 13.5551V13.5551Z" fill="white"/>
</g>
<defs>
<clipPath id="clip0_867_3733">
<rect width="55" height="45" fill="white" transform="translate(0.5 0.5)"/>
</clipPath>
</defs>
	<style>
    @media (prefers-color-scheme:dark)
    {:root{fill="black")}}
  </style>
</svg>
